<?xml version="1.0" encoding="UTF-8" standalone="no"?>
<!DOCTYPE svg PUBLIC "-//W3C//DTD SVG 1.1//EN"
 "http://www.w3.org/Graphics/SVG/1.1/DTD/svg11.dtd">
<!-- Generated by graphviz version 2.38.0 (20140413.2041)
 -->
<!-- Title: BasicDefinitions.h Pages: 1 -->
<svg width="1371pt" height="625pt"
 viewBox="0.00 0.00 1371.47 625.40" xmlns="http://www.w3.org/2000/svg" xmlns:xlink="http://www.w3.org/1999/xlink">
<g id="graph0" class="graph" transform="scale(1 1) rotate(0) translate(4 621.4)">
<title>BasicDefinitions.h</title>
<polygon fill="white" stroke="none" points="-4,4 -4,-621.4 1367.47,-621.4 1367.47,4 -4,4"/>
<!-- Node1 -->
<g id="node1" class="node"><title>Node1</title>
<polygon fill="#bfbfbf" stroke="black" points="526.154,-594.5 526.154,-616.9 631.802,-616.9 631.802,-594.5 526.154,-594.5"/>
<text text-anchor="middle" x="578.978" y="-602.1" font-family="-adobe-utopia-medium-i-normal--0-0-0-0-p-0-iso10646-1" font-size="12.00">BasicDefinitions.h</text>
</g>
<!-- Node2 -->
<g id="node2" class="node"><title>Node2</title>
<g id="a_node2"><a xlink:href="InputManager_8h.html" target="_top" xlink:title="InputManager.h">
<polygon fill="white" stroke="black" points="494.492,-178.7 494.492,-201.1 587.464,-201.1 587.464,-178.7 494.492,-178.7"/>
<text text-anchor="middle" x="540.978" y="-186.3" font-family="-adobe-utopia-medium-i-normal--0-0-0-0-p-0-iso10646-1" font-size="12.00">InputManager.h</text>
</a>
</g>
</g>
<!-- Node1&#45;&gt;Node2 -->
<g id="edge1" class="edge"><title>Node1&#45;&gt;Node2</title>
<path fill="none" stroke="midnightblue" d="M568.619,-585.532C557.367,-562.887 540.978,-523.75 540.978,-487.9 540.978,-487.9 540.978,-487.9 540.978,-307.7 540.978,-268.361 540.978,-221.569 540.978,-201.212"/>
<polygon fill="midnightblue" stroke="midnightblue" points="565.515,-587.151 573.207,-594.438 571.738,-583.945 565.515,-587.151"/>
</g>
<!-- Node3 -->
<g id="node3" class="node"><title>Node3</title>
<g id="a_node3"><a xlink:href="GERMLINE_8h.html" target="_top" xlink:title="GERMLINE.h">
<polygon fill="white" stroke="black" points="376.487,-59.9 376.487,-82.3 463.469,-82.3 463.469,-59.9 376.487,-59.9"/>
<text text-anchor="middle" x="419.978" y="-67.5" font-family="-adobe-utopia-medium-i-normal--0-0-0-0-p-0-iso10646-1" font-size="12.00">GERMLINE.h</text>
</a>
</g>
</g>
<!-- Node1&#45;&gt;Node3 -->
<g id="edge60" class="edge"><title>Node1&#45;&gt;Node3</title>
<path fill="none" stroke="midnightblue" d="M515.508,-605.087C394.45,-604.844 135.694,-599.328 57.9779,-558 22.524,-539.146 0.977907,-528.055 0.977907,-487.9 0.977907,-487.9 0.977907,-487.9 0.977907,-188.9 0.977907,-156.376 -2.93372,-139.709 21.9779,-118.8 74.8002,-74.4646 284.497,-70.7903 376.419,-71.3888"/>
<polygon fill="midnightblue" stroke="midnightblue" points="515.731,-608.587 525.734,-605.095 515.737,-601.587 515.731,-608.587"/>
</g>
<!-- Node7 -->
<g id="node7" class="node"><title>Node7</title>
<g id="a_node7"><a xlink:href="Individuals_8h.html" target="_top" xlink:title="Individuals.h">
<polygon fill="white" stroke="black" points="408.482,-297.5 408.482,-319.9 487.474,-319.9 487.474,-297.5 408.482,-297.5"/>
<text text-anchor="middle" x="447.978" y="-305.1" font-family="-adobe-utopia-medium-i-normal--0-0-0-0-p-0-iso10646-1" font-size="12.00">Individuals.h</text>
</a>
</g>
</g>
<!-- Node1&#45;&gt;Node7 -->
<g id="edge6" class="edge"><title>Node1&#45;&gt;Node7</title>
<path fill="none" stroke="midnightblue" d="M555.79,-588.197C545.769,-580.071 534.614,-569.543 526.978,-558 508.809,-530.535 502.978,-520.831 502.978,-487.9 502.978,-487.9 502.978,-487.9 502.978,-426.5 502.978,-394.22 498.329,-385.314 483.978,-356.4 477.151,-342.645 465.965,-328.976 457.872,-320.015"/>
<polygon fill="midnightblue" stroke="midnightblue" points="553.79,-591.074 563.84,-594.427 558.074,-585.538 553.79,-591.074"/>
</g>
<!-- Node9 -->
<g id="node9" class="node"><title>Node9</title>
<g id="a_node9"><a xlink:href="MatchesBuilder_8h.html" target="_top" xlink:title="MatchesBuilder.h">
<polygon fill="white" stroke="black" points="487.157,-119.3 487.157,-141.7 588.799,-141.7 588.799,-119.3 487.157,-119.3"/>
<text text-anchor="middle" x="537.978" y="-126.9" font-family="-adobe-utopia-medium-i-normal--0-0-0-0-p-0-iso10646-1" font-size="12.00">MatchesBuilder.h</text>
</a>
</g>
</g>
<!-- Node1&#45;&gt;Node9 -->
<g id="edge59" class="edge"><title>Node1&#45;&gt;Node9</title>
<path fill="none" stroke="midnightblue" d="M624.85,-591.157C646.422,-583.478 671.778,-572.476 691.978,-558 747.322,-518.338 758.437,-483.228 748.978,-415.8 737.534,-334.219 746.644,-304.068 697.978,-237.6 678.632,-211.178 594.717,-162.806 556.755,-141.748"/>
<polygon fill="midnightblue" stroke="midnightblue" points="623.562,-587.898 615.236,-594.451 625.831,-594.52 623.562,-587.898"/>
</g>
<!-- Node11 -->
<g id="node11" class="node"><title>Node11</title>
<g id="a_node11"><a xlink:href="HMIndividualsExtractor_8h.html" target="_top" xlink:title="HMIndividualsExtractor.h">
<polygon fill="white" stroke="black" points="925.495,-178.7 925.495,-201.1 1068.46,-201.1 1068.46,-178.7 925.495,-178.7"/>
<text text-anchor="middle" x="996.978" y="-186.3" font-family="-adobe-utopia-medium-i-normal--0-0-0-0-p-0-iso10646-1" font-size="12.00">HMIndividualsExtractor.h</text>
</a>
</g>
</g>
<!-- Node1&#45;&gt;Node11 -->
<g id="edge62" class="edge"><title>Node1&#45;&gt;Node11</title>
<path fill="none" stroke="midnightblue" d="M641.94,-603.142C749.933,-596.761 958.978,-566.576 958.978,-428.5 958.978,-428.5 958.978,-428.5 958.978,-307.7 958.978,-266.545 980.576,-221.058 991.207,-201.162"/>
<polygon fill="midnightblue" stroke="midnightblue" points="641.612,-599.655 631.815,-603.688 641.989,-606.645 641.612,-599.655"/>
</g>
<!-- Node13 -->
<g id="node13" class="node"><title>Node13</title>
<g id="a_node13"><a xlink:href="PEDIndividualsExtractor_8h.html" target="_top" xlink:title="PEDIndividualsExtractor.h">
<polygon fill="white" stroke="black" points="1086.83,-178.7 1086.83,-201.1 1233.13,-201.1 1233.13,-178.7 1086.83,-178.7"/>
<text text-anchor="middle" x="1159.98" y="-186.3" font-family="-adobe-utopia-medium-i-normal--0-0-0-0-p-0-iso10646-1" font-size="12.00">PEDIndividualsExtractor.h</text>
</a>
</g>
</g>
<!-- Node1&#45;&gt;Node13 -->
<g id="edge63" class="edge"><title>Node1&#45;&gt;Node13</title>
<path fill="none" stroke="midnightblue" d="M642.241,-602.834C761.065,-598.696 1013.02,-586.742 1094.98,-558 1148.28,-539.309 1200.98,-544.381 1200.98,-487.9 1200.98,-487.9 1200.98,-487.9 1200.98,-307.7 1200.98,-266.223 1177.67,-220.899 1166.2,-201.104"/>
<polygon fill="midnightblue" stroke="midnightblue" points="642.073,-599.337 632.198,-603.176 642.312,-606.333 642.073,-599.337"/>
</g>
<!-- Node16 -->
<g id="node16" class="node"><title>Node16</title>
<g id="a_node16"><a xlink:href="Individual_8h.html" target="_top" xlink:title="Individual.h">
<polygon fill="white" stroke="black" points="216.815,-238.1 216.815,-260.5 291.141,-260.5 291.141,-238.1 216.815,-238.1"/>
<text text-anchor="middle" x="253.978" y="-245.7" font-family="-adobe-utopia-medium-i-normal--0-0-0-0-p-0-iso10646-1" font-size="12.00">Individual.h</text>
</a>
</g>
</g>
<!-- Node1&#45;&gt;Node16 -->
<g id="edge57" class="edge"><title>Node1&#45;&gt;Node16</title>
<path fill="none" stroke="midnightblue" d="M515.529,-603.154C380.513,-598.139 76.9779,-576.962 76.9779,-487.9 76.9779,-487.9 76.9779,-487.9 76.9779,-426.5 76.9779,-341.299 181.262,-283.082 229.738,-260.623"/>
<polygon fill="midnightblue" stroke="midnightblue" points="515.613,-606.659 525.73,-603.514 515.86,-599.663 515.613,-606.659"/>
</g>
<!-- Node17 -->
<g id="node17" class="node"><title>Node17</title>
<g id="a_node17"><a xlink:href="Match_8h.html" target="_top" xlink:title="Match.h">
<polygon fill="white" stroke="black" points="40.1503,-178.7 40.1503,-201.1 95.8055,-201.1 95.8055,-178.7 40.1503,-178.7"/>
<text text-anchor="middle" x="67.9779" y="-186.3" font-family="-adobe-utopia-medium-i-normal--0-0-0-0-p-0-iso10646-1" font-size="12.00">Match.h</text>
</a>
</g>
</g>
<!-- Node1&#45;&gt;Node17 -->
<g id="edge58" class="edge"><title>Node1&#45;&gt;Node17</title>
<path fill="none" stroke="midnightblue" d="M515.788,-603.717C404.47,-601.12 178.517,-591.733 107.978,-558 68.5392,-539.14 38.9779,-531.616 38.9779,-487.9 38.9779,-487.9 38.9779,-487.9 38.9779,-307.7 38.9779,-267.376 55.4608,-221.467 63.5734,-201.313"/>
<polygon fill="midnightblue" stroke="midnightblue" points="515.794,-607.218 525.87,-603.94 515.95,-600.219 515.794,-607.218"/>
</g>
<!-- Node24 -->
<g id="node24" class="node"><title>Node24</title>
<g id="a_node24"><a xlink:href="Chromosome_8h.html" target="_top" xlink:title="Chromosome.h">
<polygon fill="white" stroke="black" points="385.148,-356.9 385.148,-379.3 474.808,-379.3 474.808,-356.9 385.148,-356.9"/>
<text text-anchor="middle" x="429.978" y="-364.5" font-family="-adobe-utopia-medium-i-normal--0-0-0-0-p-0-iso10646-1" font-size="12.00">Chromosome.h</text>
</a>
</g>
</g>
<!-- Node1&#45;&gt;Node24 -->
<g id="edge33" class="edge"><title>Node1&#45;&gt;Node24</title>
<path fill="none" stroke="midnightblue" d="M535.684,-590.499C519.06,-583.128 501.17,-572.55 488.978,-558 442.418,-502.434 432.528,-410.138 430.49,-379.408"/>
<polygon fill="midnightblue" stroke="midnightblue" points="534.695,-593.878 545.273,-594.475 537.376,-587.412 534.695,-593.878"/>
</g>
<!-- Node26 -->
<g id="node26" class="node"><title>Node26</title>
<g id="a_node26"><a xlink:href="ChromosomePair_8h.html" target="_top" xlink:title="ChromosomePair.h">
<polygon fill="white" stroke="black" points="568.484,-297.5 568.484,-319.9 677.472,-319.9 677.472,-297.5 568.484,-297.5"/>
<text text-anchor="middle" x="622.978" y="-305.1" font-family="-adobe-utopia-medium-i-normal--0-0-0-0-p-0-iso10646-1" font-size="12.00">ChromosomePair.h</text>
</a>
</g>
</g>
<!-- Node1&#45;&gt;Node26 -->
<g id="edge61" class="edge"><title>Node1&#45;&gt;Node26</title>
<path fill="none" stroke="midnightblue" d="M578.978,-584.326C578.978,-561.018 578.978,-521.707 578.978,-487.9 578.978,-487.9 578.978,-487.9 578.978,-426.5 578.978,-384.896 603.728,-339.998 616.103,-320.149"/>
<polygon fill="midnightblue" stroke="midnightblue" points="575.478,-584.388 578.978,-594.388 582.478,-584.388 575.478,-584.388"/>
</g>
<!-- Node28 -->
<g id="node28" class="node"><title>Node28</title>
<g id="a_node28"><a xlink:href="MarkerSet_8h.html" target="_top" xlink:title="MarkerSet.h">
<polygon fill="white" stroke="black" points="323.157,-416.3 323.157,-438.7 398.799,-438.7 398.799,-416.3 323.157,-416.3"/>
<text text-anchor="middle" x="360.978" y="-423.9" font-family="-adobe-utopia-medium-i-normal--0-0-0-0-p-0-iso10646-1" font-size="12.00">MarkerSet.h</text>
</a>
</g>
</g>
<!-- Node1&#45;&gt;Node28 -->
<g id="edge39" class="edge"><title>Node1&#45;&gt;Node28</title>
<path fill="none" stroke="midnightblue" d="M516.034,-595.361C488.209,-588.681 456.536,-577.304 432.978,-558 392.786,-525.066 371.193,-463.477 363.872,-438.959"/>
<polygon fill="midnightblue" stroke="midnightblue" points="515.566,-598.843 526.089,-597.616 517.097,-592.013 515.566,-598.843"/>
</g>
<!-- Node30 -->
<g id="node30" class="node"><title>Node30</title>
<g id="a_node30"><a xlink:href="SNPs_8h.html" target="_top" xlink:title="SNPs.h">
<polygon fill="white" stroke="black" points="683.142,-475.7 683.142,-498.1 734.814,-498.1 734.814,-475.7 683.142,-475.7"/>
<text text-anchor="middle" x="708.978" y="-483.3" font-family="-adobe-utopia-medium-i-normal--0-0-0-0-p-0-iso10646-1" font-size="12.00">SNPs.h</text>
</a>
</g>
</g>
<!-- Node1&#45;&gt;Node30 -->
<g id="edge44" class="edge"><title>Node1&#45;&gt;Node30</title>
<path fill="none" stroke="midnightblue" d="M617.638,-590.52C634.822,-582.827 654.413,-571.996 668.978,-558 687.164,-540.525 699.552,-512.968 705.304,-498.146"/>
<polygon fill="midnightblue" stroke="midnightblue" points="616.208,-587.324 608.385,-594.47 618.957,-593.762 616.208,-587.324"/>
</g>
<!-- Node32 -->
<g id="node32" class="node"><title>Node32</title>
<g id="a_node32"><a xlink:href="NucleotideMap_8h.html" target="_top" xlink:title="NucleotideMap.h">
<polygon fill="white" stroke="black" points="986.157,-535.1 986.157,-557.5 1085.8,-557.5 1085.8,-535.1 986.157,-535.1"/>
<text text-anchor="middle" x="1035.98" y="-542.7" font-family="-adobe-utopia-medium-i-normal--0-0-0-0-p-0-iso10646-1" font-size="12.00">NucleotideMap.h</text>
</a>
</g>
</g>
<!-- Node1&#45;&gt;Node32 -->
<g id="edge49" class="edge"><title>Node1&#45;&gt;Node32</title>
<path fill="none" stroke="midnightblue" d="M641.949,-598.147C719.662,-589.846 855.783,-574.607 971.978,-558 976.55,-557.346 981.3,-556.628 986.052,-555.882"/>
<polygon fill="midnightblue" stroke="midnightblue" points="641.415,-594.684 631.842,-599.223 642.156,-601.645 641.415,-594.684"/>
</g>
<!-- Node34 -->
<g id="node34" class="node"><title>Node34</title>
<g id="a_node34"><a xlink:href="SNP_8h.html" target="_top" xlink:title="SNP.h">
<polygon fill="white" stroke="black" points="612.476,-535.1 612.476,-557.5 659.48,-557.5 659.48,-535.1 612.476,-535.1"/>
<text text-anchor="middle" x="635.978" y="-542.7" font-family="-adobe-utopia-medium-i-normal--0-0-0-0-p-0-iso10646-1" font-size="12.00">SNP.h</text>
</a>
</g>
</g>
<!-- Node1&#45;&gt;Node34 -->
<g id="edge54" class="edge"><title>Node1&#45;&gt;Node34</title>
<path fill="none" stroke="midnightblue" d="M596.282,-587.275C605.81,-577.68 617.322,-566.087 625.49,-557.861"/>
<polygon fill="midnightblue" stroke="midnightblue" points="593.731,-584.876 589.168,-594.438 598.698,-589.808 593.731,-584.876"/>
</g>
<!-- Node36 -->
<g id="node36" class="node"><title>Node36</title>
<g id="a_node36"><a xlink:href="SharedSegmentPointer_8h.html" target="_top" xlink:title="SharedSegmentPointer.h">
<polygon fill="white" stroke="black" points="1228.49,-535.1 1228.49,-557.5 1363.47,-557.5 1363.47,-535.1 1228.49,-535.1"/>
<text text-anchor="middle" x="1295.98" y="-542.7" font-family="-adobe-utopia-medium-i-normal--0-0-0-0-p-0-iso10646-1" font-size="12.00">SharedSegmentPointer.h</text>
</a>
</g>
</g>
<!-- Node1&#45;&gt;Node36 -->
<g id="edge64" class="edge"><title>Node1&#45;&gt;Node36</title>
<path fill="none" stroke="midnightblue" d="M642.154,-601.279C756.57,-594.814 1005.65,-579.493 1214.98,-558 1219.35,-557.551 1223.85,-557.054 1228.39,-556.526"/>
<polygon fill="midnightblue" stroke="midnightblue" points="641.626,-597.804 631.838,-601.859 642.018,-604.793 641.626,-597.804"/>
</g>
<!-- Node2&#45;&gt;Node3 -->
<g id="edge2" class="edge"><title>Node2&#45;&gt;Node3</title>
<path fill="none" stroke="midnightblue" d="M516.536,-172.859C504.393,-164.386 489.824,-153.431 477.978,-142.2 457.803,-123.073 437.954,-97.1125 427.519,-82.755"/>
<polygon fill="midnightblue" stroke="midnightblue" points="514.645,-175.806 524.876,-178.559 518.595,-170.027 514.645,-175.806"/>
</g>
<!-- Node6 -->
<g id="node6" class="node"><title>Node6</title>
<g id="a_node6"><a xlink:href="InputManager_8cpp.html" target="_top" xlink:title="InputManager.cpp">
<polygon fill="white" stroke="black" points="797.829,-119.3 797.829,-141.7 902.127,-141.7 902.127,-119.3 797.829,-119.3"/>
<text text-anchor="middle" x="849.978" y="-126.9" font-family="-adobe-utopia-medium-i-normal--0-0-0-0-p-0-iso10646-1" font-size="12.00">InputManager.cpp</text>
</a>
</g>
</g>
<!-- Node2&#45;&gt;Node6 -->
<g id="edge5" class="edge"><title>Node2&#45;&gt;Node6</title>
<path fill="none" stroke="midnightblue" d="M597.511,-178.398C654.583,-167.797 742.013,-151.556 797.566,-141.236"/>
<polygon fill="midnightblue" stroke="midnightblue" points="596.765,-174.977 587.573,-180.244 598.044,-181.859 596.765,-174.977"/>
</g>
<!-- Node4 -->
<g id="node4" class="node"><title>Node4</title>
<g id="a_node4"><a xlink:href="GERMLINE__0001_8cpp.html" target="_top" xlink:title="GERMLINE_0001.cpp">
<polygon fill="white" stroke="black" points="290.823,-0.5 290.823,-22.9 419.133,-22.9 419.133,-0.5 290.823,-0.5"/>
<text text-anchor="middle" x="354.978" y="-8.1" font-family="-adobe-utopia-medium-i-normal--0-0-0-0-p-0-iso10646-1" font-size="12.00">GERMLINE_0001.cpp</text>
</a>
</g>
</g>
<!-- Node3&#45;&gt;Node4 -->
<g id="edge3" class="edge"><title>Node3&#45;&gt;Node4</title>
<path fill="none" stroke="midnightblue" d="M400.567,-52.9589C389.641,-43.3099 376.344,-31.5682 366.938,-23.2615"/>
<polygon fill="midnightblue" stroke="midnightblue" points="398.545,-55.8422 408.357,-59.838 403.178,-50.5952 398.545,-55.8422"/>
</g>
<!-- Node5 -->
<g id="node5" class="node"><title>Node5</title>
<g id="a_node5"><a xlink:href="GERMLINE_8cpp.html" target="_top" xlink:title="GERMLINE.cpp">
<polygon fill="white" stroke="black" points="436.823,-0.5 436.823,-22.9 535.133,-22.9 535.133,-0.5 436.823,-0.5"/>
<text text-anchor="middle" x="485.978" y="-8.1" font-family="-adobe-utopia-medium-i-normal--0-0-0-0-p-0-iso10646-1" font-size="12.00">GERMLINE.cpp</text>
</a>
</g>
</g>
<!-- Node3&#45;&gt;Node5 -->
<g id="edge4" class="edge"><title>Node3&#45;&gt;Node5</title>
<path fill="none" stroke="midnightblue" d="M439.362,-53.2421C450.517,-43.5405 464.189,-31.6496 473.834,-23.2615"/>
<polygon fill="midnightblue" stroke="midnightblue" points="437.026,-50.6347 431.777,-59.838 441.62,-55.9166 437.026,-50.6347"/>
</g>
<!-- Node7&#45;&gt;Node2 -->
<g id="edge29" class="edge"><title>Node7&#45;&gt;Node2</title>
<path fill="none" stroke="midnightblue" d="M462.529,-289.425C482.238,-264.672 516.771,-221.301 532.61,-201.41"/>
<polygon fill="midnightblue" stroke="midnightblue" points="459.722,-287.332 456.231,-297.335 465.198,-291.692 459.722,-287.332"/>
</g>
<!-- Node7&#45;&gt;Node3 -->
<g id="edge30" class="edge"><title>Node7&#45;&gt;Node3</title>
<path fill="none" stroke="midnightblue" d="M398.592,-299.493C376.11,-293.023 351.543,-281.496 337.978,-261 307.649,-215.175 399.962,-203.09 400.978,-201.6 426.589,-164.057 423.779,-106.134 421.325,-82.5898"/>
<polygon fill="midnightblue" stroke="midnightblue" points="397.833,-302.913 408.393,-302.046 399.598,-296.139 397.833,-302.913"/>
</g>
<!-- Node8 -->
<g id="node8" class="node"><title>Node8</title>
<g id="a_node8"><a xlink:href="PolymorphicIndividualsExtractor_8h.html" target="_top" xlink:title="PolymorphicIndividualsExtractor.h">
<polygon fill="white" stroke="black" points="745.161,-238.1 745.161,-260.5 930.795,-260.5 930.795,-238.1 745.161,-238.1"/>
<text text-anchor="middle" x="837.978" y="-245.7" font-family="-adobe-utopia-medium-i-normal--0-0-0-0-p-0-iso10646-1" font-size="12.00">PolymorphicIndividualsExtractor.h</text>
</a>
</g>
</g>
<!-- Node7&#45;&gt;Node8 -->
<g id="edge7" class="edge"><title>Node7&#45;&gt;Node8</title>
<path fill="none" stroke="midnightblue" d="M497.646,-300.39C566.346,-290.279 690.69,-271.978 768.551,-260.518"/>
<polygon fill="midnightblue" stroke="midnightblue" points="496.903,-296.961 487.519,-301.88 497.923,-303.887 496.903,-296.961"/>
</g>
<!-- Node7&#45;&gt;Node9 -->
<g id="edge31" class="edge"><title>Node7&#45;&gt;Node9</title>
<path fill="none" stroke="midnightblue" d="M450.479,-287.027C454.486,-260.191 464.229,-212.718 485.978,-178.2 495.292,-163.417 510.581,-150.488 522.176,-142.006"/>
<polygon fill="midnightblue" stroke="midnightblue" points="446.979,-286.784 449.094,-297.166 453.915,-287.731 446.979,-286.784"/>
</g>
<!-- Node7&#45;&gt;Node16 -->
<g id="edge19" class="edge"><title>Node7&#45;&gt;Node16</title>
<path fill="none" stroke="midnightblue" d="M398.502,-294.762C362.036,-284.407 313.773,-270.084 283.216,-260.522"/>
<polygon fill="midnightblue" stroke="midnightblue" points="397.875,-298.222 408.45,-297.57 399.777,-291.485 397.875,-298.222"/>
</g>
<!-- Node23 -->
<g id="node23" class="node"><title>Node23</title>
<g id="a_node23"><a xlink:href="Individuals_8cpp.html" target="_top" xlink:title="Individuals.cpp">
<polygon fill="white" stroke="black" points="346.818,-238.1 346.818,-260.5 437.138,-260.5 437.138,-238.1 346.818,-238.1"/>
<text text-anchor="middle" x="391.978" y="-245.7" font-family="-adobe-utopia-medium-i-normal--0-0-0-0-p-0-iso10646-1" font-size="12.00">Individuals.cpp</text>
</a>
</g>
</g>
<!-- Node7&#45;&gt;Node23 -->
<g id="edge32" class="edge"><title>Node7&#45;&gt;Node23</title>
<path fill="none" stroke="midnightblue" d="M430.977,-290.275C421.617,-280.68 410.306,-269.087 402.282,-260.861"/>
<polygon fill="midnightblue" stroke="midnightblue" points="428.478,-292.724 437.966,-297.438 433.488,-287.836 428.478,-292.724"/>
</g>
<!-- Node8&#45;&gt;Node2 -->
<g id="edge8" class="edge"><title>Node8&#45;&gt;Node2</title>
<path fill="none" stroke="midnightblue" d="M774.715,-236.073C718.679,-225.244 638.16,-209.682 587.752,-199.94"/>
<polygon fill="midnightblue" stroke="midnightblue" points="774.398,-239.577 784.88,-238.038 775.726,-232.704 774.398,-239.577"/>
</g>
<!-- Node8&#45;&gt;Node9 -->
<g id="edge9" class="edge"><title>Node8&#45;&gt;Node9</title>
<path fill="none" stroke="midnightblue" d="M793.1,-234.979C766.238,-226.493 731.661,-214.663 701.978,-201.6 682.063,-192.836 678.724,-187.336 658.978,-178.2 628.529,-164.112 592.534,-150.603 567.765,-141.772"/>
<polygon fill="midnightblue" stroke="midnightblue" points="792.402,-238.427 802.991,-238.063 794.486,-231.744 792.402,-238.427"/>
</g>
<!-- Node8&#45;&gt;Node11 -->
<g id="edge12" class="edge"><title>Node8&#45;&gt;Node11</title>
<path fill="none" stroke="midnightblue" d="M876.016,-234.568C904.451,-224.303 942.715,-210.489 968.53,-201.17"/>
<polygon fill="midnightblue" stroke="midnightblue" points="874.621,-231.35 866.404,-238.038 876.998,-237.934 874.621,-231.35"/>
</g>
<!-- Node8&#45;&gt;Node13 -->
<g id="edge15" class="edge"><title>Node8&#45;&gt;Node13</title>
<path fill="none" stroke="midnightblue" d="M905.419,-236.278C963.829,-225.866 1047.4,-210.969 1102.64,-201.121"/>
<polygon fill="midnightblue" stroke="midnightblue" points="904.776,-232.837 895.545,-238.038 906.004,-239.729 904.776,-232.837"/>
</g>
<!-- Node15 -->
<g id="node15" class="node"><title>Node15</title>
<g id="a_node15"><a xlink:href="PolymorphicIndividualsExtractor_8cpp.html" target="_top" xlink:title="PolymorphicIndividualsExtractor.cpp">
<polygon fill="white" stroke="black" points="710.498,-178.7 710.498,-201.1 907.458,-201.1 907.458,-178.7 710.498,-178.7"/>
<text text-anchor="middle" x="808.978" y="-186.3" font-family="-adobe-utopia-medium-i-normal--0-0-0-0-p-0-iso10646-1" font-size="12.00">PolymorphicIndividualsExtractor.cpp</text>
</a>
</g>
</g>
<!-- Node8&#45;&gt;Node15 -->
<g id="edge18" class="edge"><title>Node8&#45;&gt;Node15</title>
<path fill="none" stroke="midnightblue" d="M828.153,-228.853C823.523,-219.689 818.181,-209.117 814.314,-201.461"/>
<polygon fill="midnightblue" stroke="midnightblue" points="825.16,-230.691 832.793,-238.038 831.408,-227.534 825.16,-230.691"/>
</g>
<!-- Node9&#45;&gt;Node3 -->
<g id="edge10" class="edge"><title>Node9&#45;&gt;Node3</title>
<path fill="none" stroke="midnightblue" d="M507.823,-114.831C487.018,-104.711 459.866,-91.5034 441.289,-82.4667"/>
<polygon fill="midnightblue" stroke="midnightblue" points="506.358,-118.011 516.882,-119.238 509.42,-111.716 506.358,-118.011"/>
</g>
<!-- Node10 -->
<g id="node10" class="node"><title>Node10</title>
<g id="a_node10"><a xlink:href="MatchesBuilder_8cpp.html" target="_top" xlink:title="MatchesBuilder.cpp">
<polygon fill="white" stroke="black" points="481.493,-59.9 481.493,-82.3 594.463,-82.3 594.463,-59.9 481.493,-59.9"/>
<text text-anchor="middle" x="537.978" y="-67.5" font-family="-adobe-utopia-medium-i-normal--0-0-0-0-p-0-iso10646-1" font-size="12.00">MatchesBuilder.cpp</text>
</a>
</g>
</g>
<!-- Node9&#45;&gt;Node10 -->
<g id="edge11" class="edge"><title>Node9&#45;&gt;Node10</title>
<path fill="none" stroke="midnightblue" d="M537.978,-109.171C537.978,-100.217 537.978,-90.0723 537.978,-82.6615"/>
<polygon fill="midnightblue" stroke="midnightblue" points="534.478,-109.238 537.978,-119.238 541.478,-109.238 534.478,-109.238"/>
</g>
<!-- Node11&#45;&gt;Node6 -->
<g id="edge14" class="edge"><title>Node11&#45;&gt;Node6</title>
<path fill="none" stroke="midnightblue" d="M961.151,-174.911C935.023,-164.708 900.191,-151.107 876.527,-141.867"/>
<polygon fill="midnightblue" stroke="midnightblue" points="960.109,-178.261 970.697,-178.638 962.655,-171.74 960.109,-178.261"/>
</g>
<!-- Node12 -->
<g id="node12" class="node"><title>Node12</title>
<g id="a_node12"><a xlink:href="HMIndividualsExtractor_8cpp.html" target="_top" xlink:title="HMIndividualsExtractor.cpp">
<polygon fill="white" stroke="black" points="919.832,-119.3 919.832,-141.7 1074.12,-141.7 1074.12,-119.3 919.832,-119.3"/>
<text text-anchor="middle" x="996.978" y="-126.9" font-family="-adobe-utopia-medium-i-normal--0-0-0-0-p-0-iso10646-1" font-size="12.00">HMIndividualsExtractor.cpp</text>
</a>
</g>
</g>
<!-- Node11&#45;&gt;Node12 -->
<g id="edge13" class="edge"><title>Node11&#45;&gt;Node12</title>
<path fill="none" stroke="midnightblue" d="M996.978,-168.571C996.978,-159.617 996.978,-149.472 996.978,-142.061"/>
<polygon fill="midnightblue" stroke="midnightblue" points="993.478,-168.638 996.978,-178.638 1000.48,-168.638 993.478,-168.638"/>
</g>
<!-- Node13&#45;&gt;Node6 -->
<g id="edge16" class="edge"><title>Node13&#45;&gt;Node6</title>
<path fill="none" stroke="midnightblue" d="M1094.53,-176.781C1037.31,-166.186 955.301,-151.002 902.338,-141.195"/>
<polygon fill="midnightblue" stroke="midnightblue" points="1094.09,-180.259 1104.56,-178.638 1095.36,-173.376 1094.09,-180.259"/>
</g>
<!-- Node14 -->
<g id="node14" class="node"><title>Node14</title>
<g id="a_node14"><a xlink:href="PEDIndividualsExtractor_8cpp.html" target="_top" xlink:title="PEDIndividualsExtractor.cpp">
<polygon fill="white" stroke="black" points="1092.16,-119.3 1092.16,-141.7 1249.79,-141.7 1249.79,-119.3 1092.16,-119.3"/>
<text text-anchor="middle" x="1170.98" y="-126.9" font-family="-adobe-utopia-medium-i-normal--0-0-0-0-p-0-iso10646-1" font-size="12.00">PEDIndividualsExtractor.cpp</text>
</a>
</g>
</g>
<!-- Node13&#45;&gt;Node14 -->
<g id="edge17" class="edge"><title>Node13&#45;&gt;Node14</title>
<path fill="none" stroke="midnightblue" d="M1163.87,-168.571C1165.59,-159.617 1167.53,-149.472 1168.95,-142.061"/>
<polygon fill="midnightblue" stroke="midnightblue" points="1160.39,-168.158 1161.94,-178.638 1167.26,-169.476 1160.39,-168.158"/>
</g>
<!-- Node16&#45;&gt;Node7 -->
<g id="edge20" class="edge"><title>Node16&#45;&gt;Node7</title>
<path fill="none" stroke="midnightblue" d="M301.25,-262.613C337.904,-272.996 387.427,-287.682 418.61,-297.438"/>
<polygon fill="midnightblue" stroke="midnightblue" points="301.853,-259.147 291.278,-259.806 299.956,-265.885 301.853,-259.147"/>
</g>
<!-- Node16&#45;&gt;Node17 -->
<g id="edge21" class="edge"><title>Node16&#45;&gt;Node17</title>
<path fill="none" stroke="midnightblue" d="M206.737,-235.49C171.663,-225.125 125.135,-210.723 95.7911,-201.121"/>
<polygon fill="midnightblue" stroke="midnightblue" points="206.18,-238.974 216.761,-238.433 208.152,-232.257 206.18,-238.974"/>
</g>
<!-- Node19 -->
<g id="node19" class="node"><title>Node19</title>
<g id="a_node19"><a xlink:href="MatchFactory_8h.html" target="_top" xlink:title="MatchFactory.h">
<polygon fill="white" stroke="black" points="113.823,-178.7 113.823,-201.1 206.133,-201.1 206.133,-178.7 113.823,-178.7"/>
<text text-anchor="middle" x="159.978" y="-186.3" font-family="-adobe-utopia-medium-i-normal--0-0-0-0-p-0-iso10646-1" font-size="12.00">MatchFactory.h</text>
</a>
</g>
</g>
<!-- Node16&#45;&gt;Node19 -->
<g id="edge24" class="edge"><title>Node16&#45;&gt;Node19</title>
<path fill="none" stroke="midnightblue" d="M228.602,-232.804C212.219,-222.8 191.354,-210.059 176.955,-201.267"/>
<polygon fill="midnightblue" stroke="midnightblue" points="226.814,-235.814 237.173,-238.038 230.462,-229.839 226.814,-235.814"/>
</g>
<!-- Node21 -->
<g id="node21" class="node"><title>Node21</title>
<g id="a_node21"><a xlink:href="Share_8cpp.html" target="_top" xlink:title="Share.cpp">
<polygon fill="white" stroke="black" points="328.155,-178.7 328.155,-201.1 391.801,-201.1 391.801,-178.7 328.155,-178.7"/>
<text text-anchor="middle" x="359.978" y="-186.3" font-family="-adobe-utopia-medium-i-normal--0-0-0-0-p-0-iso10646-1" font-size="12.00">Share.cpp</text>
</a>
</g>
</g>
<!-- Node16&#45;&gt;Node21 -->
<g id="edge27" class="edge"><title>Node16&#45;&gt;Node21</title>
<path fill="none" stroke="midnightblue" d="M281.827,-233.22C300.413,-223.155 324.371,-210.181 340.834,-201.267"/>
<polygon fill="midnightblue" stroke="midnightblue" points="280.055,-230.198 272.929,-238.038 283.389,-236.354 280.055,-230.198"/>
</g>
<!-- Node22 -->
<g id="node22" class="node"><title>Node22</title>
<g id="a_node22"><a xlink:href="Individual_8cpp.html" target="_top" xlink:title="Individual.cpp">
<polygon fill="white" stroke="black" points="224.152,-178.7 224.152,-201.1 309.804,-201.1 309.804,-178.7 224.152,-178.7"/>
<text text-anchor="middle" x="266.978" y="-186.3" font-family="-adobe-utopia-medium-i-normal--0-0-0-0-p-0-iso10646-1" font-size="12.00">Individual.cpp</text>
</a>
</g>
</g>
<!-- Node16&#45;&gt;Node22 -->
<g id="edge28" class="edge"><title>Node16&#45;&gt;Node22</title>
<path fill="none" stroke="midnightblue" d="M258.515,-228.266C260.559,-219.241 262.889,-208.954 264.586,-201.461"/>
<polygon fill="midnightblue" stroke="midnightblue" points="255.097,-227.512 256.302,-238.038 261.925,-229.058 255.097,-227.512"/>
</g>
<!-- Node17&#45;&gt;Node16 -->
<g id="edge22" class="edge"><title>Node17&#45;&gt;Node16</title>
<path fill="none" stroke="midnightblue" d="M105.937,-200.984C141.624,-211.397 194.011,-227.56 226.041,-238.038"/>
<polygon fill="midnightblue" stroke="midnightblue" points="106.471,-197.495 95.8928,-198.079 104.527,-204.22 106.471,-197.495"/>
</g>
<!-- Node18 -->
<g id="node18" class="node"><title>Node18</title>
<g id="a_node18"><a xlink:href="Match_8cpp.html" target="_top" xlink:title="Match.cpp">
<polygon fill="white" stroke="black" points="30.4869,-119.3 30.4869,-141.7 97.4689,-141.7 97.4689,-119.3 30.4869,-119.3"/>
<text text-anchor="middle" x="63.9779" y="-126.9" font-family="-adobe-utopia-medium-i-normal--0-0-0-0-p-0-iso10646-1" font-size="12.00">Match.cpp</text>
</a>
</g>
</g>
<!-- Node17&#45;&gt;Node18 -->
<g id="edge23" class="edge"><title>Node17&#45;&gt;Node18</title>
<path fill="none" stroke="midnightblue" d="M66.5613,-168.571C65.9373,-159.617 65.2303,-149.472 64.7139,-142.061"/>
<polygon fill="midnightblue" stroke="midnightblue" points="63.076,-168.906 67.2628,-178.638 70.059,-168.419 63.076,-168.906"/>
</g>
<!-- Node19&#45;&gt;Node9 -->
<g id="edge25" class="edge"><title>Node19&#45;&gt;Node9</title>
<path fill="none" stroke="midnightblue" d="M216.299,-178.035C317.977,-160.977 425.24,-146.252 486.95,-138.099"/>
<polygon fill="midnightblue" stroke="midnightblue" points="215.439,-174.63 206.162,-179.746 216.605,-181.533 215.439,-174.63"/>
</g>
<!-- Node20 -->
<g id="node20" class="node"><title>Node20</title>
<g id="a_node20"><a xlink:href="MatchFactory_8cpp.html" target="_top" xlink:title="MatchFactory.cpp">
<polygon fill="white" stroke="black" points="115.16,-119.3 115.16,-141.7 218.796,-141.7 218.796,-119.3 115.16,-119.3"/>
<text text-anchor="middle" x="166.978" y="-126.9" font-family="-adobe-utopia-medium-i-normal--0-0-0-0-p-0-iso10646-1" font-size="12.00">MatchFactory.cpp</text>
</a>
</g>
</g>
<!-- Node19&#45;&gt;Node20 -->
<g id="edge26" class="edge"><title>Node19&#45;&gt;Node20</title>
<path fill="none" stroke="midnightblue" d="M162.457,-168.571C163.549,-159.617 164.786,-149.472 165.69,-142.061"/>
<polygon fill="midnightblue" stroke="midnightblue" points="158.966,-168.288 161.229,-178.638 165.914,-169.135 158.966,-168.288"/>
</g>
<!-- Node24&#45;&gt;Node7 -->
<g id="edge34" class="edge"><title>Node24&#45;&gt;Node7</title>
<path fill="none" stroke="midnightblue" d="M436.26,-347.066C439.091,-338.041 442.316,-327.754 444.666,-320.261"/>
<polygon fill="midnightblue" stroke="midnightblue" points="432.849,-346.249 433.196,-356.838 439.528,-348.343 432.849,-346.249"/>
</g>
<!-- Node24&#45;&gt;Node16 -->
<g id="edge35" class="edge"><title>Node24&#45;&gt;Node16</title>
<path fill="none" stroke="midnightblue" d="M415.897,-349.005C403.148,-333.576 383.167,-311.633 361.978,-297 338.613,-280.865 308.781,-268.484 286.393,-260.537"/>
<polygon fill="midnightblue" stroke="midnightblue" points="413.196,-351.231 422.197,-356.819 418.645,-346.837 413.196,-351.231"/>
</g>
<!-- Node25 -->
<g id="node25" class="node"><title>Node25</title>
<g id="a_node25"><a xlink:href="Chromosome_8cpp.html" target="_top" xlink:title="Chromosome.cpp">
<polygon fill="white" stroke="black" points="252.484,-297.5 252.484,-319.9 353.472,-319.9 353.472,-297.5 252.484,-297.5"/>
<text text-anchor="middle" x="302.978" y="-305.1" font-family="-adobe-utopia-medium-i-normal--0-0-0-0-p-0-iso10646-1" font-size="12.00">Chromosome.cpp</text>
</a>
</g>
</g>
<!-- Node24&#45;&gt;Node25 -->
<g id="edge36" class="edge"><title>Node24&#45;&gt;Node25</title>
<path fill="none" stroke="midnightblue" d="M398.127,-352.704C375.659,-342.549 346.089,-329.185 325.915,-320.067"/>
<polygon fill="midnightblue" stroke="midnightblue" points="396.719,-355.909 407.273,-356.838 399.602,-349.53 396.719,-355.909"/>
</g>
<!-- Node24&#45;&gt;Node26 -->
<g id="edge37" class="edge"><title>Node24&#45;&gt;Node26</title>
<path fill="none" stroke="midnightblue" d="M474.352,-353.903C509.039,-343.587 556.564,-329.452 588.447,-319.97"/>
<polygon fill="midnightblue" stroke="midnightblue" points="473.07,-350.632 464.482,-356.838 475.065,-357.342 473.07,-350.632"/>
</g>
<!-- Node27 -->
<g id="node27" class="node"><title>Node27</title>
<g id="a_node27"><a xlink:href="ChromosomePair_8cpp.html" target="_top" xlink:title="ChromosomePair.cpp">
<polygon fill="white" stroke="black" points="568.821,-238.1 568.821,-260.5 689.135,-260.5 689.135,-238.1 568.821,-238.1"/>
<text text-anchor="middle" x="628.978" y="-245.7" font-family="-adobe-utopia-medium-i-normal--0-0-0-0-p-0-iso10646-1" font-size="12.00">ChromosomePair.cpp</text>
</a>
</g>
</g>
<!-- Node26&#45;&gt;Node27 -->
<g id="edge38" class="edge"><title>Node26&#45;&gt;Node27</title>
<path fill="none" stroke="midnightblue" d="M625.103,-287.371C626.039,-278.417 627.099,-268.272 627.874,-260.861"/>
<polygon fill="midnightblue" stroke="midnightblue" points="621.609,-287.128 624.051,-297.438 628.571,-287.856 621.609,-287.128"/>
</g>
<!-- Node28&#45;&gt;Node17 -->
<g id="edge41" class="edge"><title>Node28&#45;&gt;Node17</title>
<path fill="none" stroke="midnightblue" d="M316.326,-412.92C294.614,-405.136 268.782,-394.055 247.978,-379.8 169.128,-325.774 97.9767,-232.48 75.3989,-201.35"/>
<polygon fill="midnightblue" stroke="midnightblue" points="315.384,-416.298 325.979,-416.264 317.675,-409.684 315.384,-416.298"/>
</g>
<!-- Node28&#45;&gt;Node19 -->
<g id="edge42" class="edge"><title>Node28&#45;&gt;Node19</title>
<path fill="none" stroke="midnightblue" d="M322.755,-412.082C305.808,-404.353 286.471,-393.559 271.978,-379.8 213.635,-324.413 175.381,-232.001 163.735,-201.224"/>
<polygon fill="midnightblue" stroke="midnightblue" points="321.836,-415.499 332.402,-416.278 324.628,-409.08 321.836,-415.499"/>
</g>
<!-- Node28&#45;&gt;Node24 -->
<g id="edge40" class="edge"><title>Node28&#45;&gt;Node24</title>
<path fill="none" stroke="midnightblue" d="M381.243,-409.642C392.905,-399.94 407.199,-388.05 417.282,-379.661"/>
<polygon fill="midnightblue" stroke="midnightblue" points="378.763,-407.152 373.314,-416.238 383.24,-412.533 378.763,-407.152"/>
</g>
<!-- Node29 -->
<g id="node29" class="node"><title>Node29</title>
<g id="a_node29"><a xlink:href="MarkerSet_8cpp.html" target="_top" xlink:title="MarkerSet.cpp">
<polygon fill="white" stroke="black" points="280.493,-356.9 280.493,-379.3 367.463,-379.3 367.463,-356.9 280.493,-356.9"/>
<text text-anchor="middle" x="323.978" y="-364.5" font-family="-adobe-utopia-medium-i-normal--0-0-0-0-p-0-iso10646-1" font-size="12.00">MarkerSet.cpp</text>
</a>
</g>
</g>
<!-- Node28&#45;&gt;Node29 -->
<g id="edge43" class="edge"><title>Node28&#45;&gt;Node29</title>
<path fill="none" stroke="midnightblue" d="M348.818,-407.636C342.826,-398.34 335.825,-387.48 330.786,-379.661"/>
<polygon fill="midnightblue" stroke="midnightblue" points="346.003,-409.729 354.363,-416.238 351.887,-405.937 346.003,-409.729"/>
</g>
<!-- Node30&#45;&gt;Node8 -->
<g id="edge47" class="edge"><title>Node30&#45;&gt;Node8</title>
<path fill="none" stroke="midnightblue" d="M688.769,-468.632C675.169,-454.799 661.052,-434.655 668.978,-415.8 700.407,-341.032 783.929,-283.125 820.46,-260.564"/>
<polygon fill="midnightblue" stroke="midnightblue" points="686.466,-471.272 696.128,-475.619 691.286,-466.195 686.466,-471.272"/>
</g>
<!-- Node30&#45;&gt;Node17 -->
<g id="edge46" class="edge"><title>Node30&#45;&gt;Node17</title>
<path fill="none" stroke="midnightblue" d="M673.014,-475.394C514.254,-445.37 463.697,-488.094 313.978,-439.2 196.324,-400.777 167.638,-364.638 99.9779,-261 87.1063,-241.284 76.8081,-215.544 71.6288,-201.382"/>
<polygon fill="midnightblue" stroke="midnightblue" points="672.643,-478.888 683.13,-477.377 673.99,-472.018 672.643,-478.888"/>
</g>
<!-- Node30&#45;&gt;Node28 -->
<g id="edge45" class="edge"><title>Node30&#45;&gt;Node28</title>
<path fill="none" stroke="midnightblue" d="M673.337,-475.323C568.832,-452.162 456.313,-438.496 398.894,-432.317"/>
<polygon fill="midnightblue" stroke="midnightblue" points="672.575,-478.739 683.099,-477.52 674.112,-471.91 672.575,-478.739"/>
</g>
<!-- Node31 -->
<g id="node31" class="node"><title>Node31</title>
<g id="a_node31"><a xlink:href="SNPs_8cpp.html" target="_top" xlink:title="SNPs.cpp">
<polygon fill="white" stroke="black" points="677.479,-416.3 677.479,-438.7 740.477,-438.7 740.477,-416.3 677.479,-416.3"/>
<text text-anchor="middle" x="708.978" y="-423.9" font-family="-adobe-utopia-medium-i-normal--0-0-0-0-p-0-iso10646-1" font-size="12.00">SNPs.cpp</text>
</a>
</g>
</g>
<!-- Node30&#45;&gt;Node31 -->
<g id="edge48" class="edge"><title>Node30&#45;&gt;Node31</title>
<path fill="none" stroke="midnightblue" d="M708.978,-465.571C708.978,-456.617 708.978,-446.472 708.978,-439.061"/>
<polygon fill="midnightblue" stroke="midnightblue" points="705.478,-465.638 708.978,-475.638 712.478,-465.638 705.478,-465.638"/>
</g>
<!-- Node32&#45;&gt;Node11 -->
<g id="edge51" class="edge"><title>Node32&#45;&gt;Node11</title>
<path fill="none" stroke="midnightblue" d="M1025.35,-526.165C1013.8,-503.55 996.978,-464.441 996.978,-428.5 996.978,-428.5 996.978,-428.5 996.978,-307.7 996.978,-268.361 996.978,-221.569 996.978,-201.212"/>
<polygon fill="midnightblue" stroke="midnightblue" points="1022.28,-527.857 1030.05,-535.057 1028.47,-524.582 1022.28,-527.857"/>
</g>
<!-- Node32&#45;&gt;Node13 -->
<g id="edge52" class="edge"><title>Node32&#45;&gt;Node13</title>
<path fill="none" stroke="midnightblue" d="M1035.7,-524.926C1035.4,-501.619 1034.98,-462.308 1034.98,-428.5 1034.98,-428.5 1034.98,-428.5 1034.98,-307.7 1034.98,-253.793 1097.81,-217.614 1134.38,-201.122"/>
<polygon fill="midnightblue" stroke="midnightblue" points="1032.2,-525.035 1035.83,-534.988 1039.2,-524.943 1032.2,-525.035"/>
</g>
<!-- Node32&#45;&gt;Node30 -->
<g id="edge50" class="edge"><title>Node32&#45;&gt;Node30</title>
<path fill="none" stroke="midnightblue" d="M975.692,-534.718C903.81,-522.1 786.897,-501.578 735.1,-492.485"/>
<polygon fill="midnightblue" stroke="midnightblue" points="975.503,-538.238 985.958,-536.52 976.713,-531.343 975.503,-538.238"/>
</g>
<!-- Node33 -->
<g id="node33" class="node"><title>Node33</title>
<g id="a_node33"><a xlink:href="NucleotideMap_8cpp.html" target="_top" xlink:title="NucleotideMap.cpp">
<polygon fill="white" stroke="black" points="1062.49,-475.7 1062.49,-498.1 1173.46,-498.1 1173.46,-475.7 1062.49,-475.7"/>
<text text-anchor="middle" x="1117.98" y="-483.3" font-family="-adobe-utopia-medium-i-normal--0-0-0-0-p-0-iso10646-1" font-size="12.00">NucleotideMap.cpp</text>
</a>
</g>
</g>
<!-- Node32&#45;&gt;Node33 -->
<g id="edge53" class="edge"><title>Node32&#45;&gt;Node33</title>
<path fill="none" stroke="midnightblue" d="M1058.91,-529.246C1073.08,-519.33 1090.84,-506.896 1103.17,-498.267"/>
<polygon fill="midnightblue" stroke="midnightblue" points="1056.82,-526.436 1050.64,-535.038 1060.84,-532.171 1056.82,-526.436"/>
</g>
<!-- Node34&#45;&gt;Node30 -->
<g id="edge55" class="edge"><title>Node34&#45;&gt;Node30</title>
<path fill="none" stroke="midnightblue" d="M657.059,-528.724C669.462,-518.972 684.775,-506.931 695.546,-498.461"/>
<polygon fill="midnightblue" stroke="midnightblue" points="654.726,-526.106 649.029,-535.038 659.053,-531.608 654.726,-526.106"/>
</g>
<!-- Node35 -->
<g id="node35" class="node"><title>Node35</title>
<g id="a_node35"><a xlink:href="SNP_8cpp.html" target="_top" xlink:title="SNP.cpp">
<polygon fill="white" stroke="black" points="606.812,-475.7 606.812,-498.1 665.144,-498.1 665.144,-475.7 606.812,-475.7"/>
<text text-anchor="middle" x="635.978" y="-483.3" font-family="-adobe-utopia-medium-i-normal--0-0-0-0-p-0-iso10646-1" font-size="12.00">SNP.cpp</text>
</a>
</g>
</g>
<!-- Node34&#45;&gt;Node35 -->
<g id="edge56" class="edge"><title>Node34&#45;&gt;Node35</title>
<path fill="none" stroke="midnightblue" d="M635.978,-524.971C635.978,-516.017 635.978,-505.872 635.978,-498.461"/>
<polygon fill="midnightblue" stroke="midnightblue" points="632.478,-525.038 635.978,-535.038 639.478,-525.038 632.478,-525.038"/>
</g>
</g>
</svg>
