<?xml version="1.0" encoding="UTF-8" standalone="no"?>
<!DOCTYPE svg PUBLIC "-//W3C//DTD SVG 1.1//EN"
 "http://www.w3.org/Graphics/SVG/1.1/DTD/svg11.dtd">
<!-- Generated by graphviz version 2.38.0 (20140413.2041)
 -->
<!-- Title: Chromosome.h Pages: 1 -->
<svg width="1170pt" height="388pt"
 viewBox="0.00 0.00 1169.98 387.80" xmlns="http://www.w3.org/2000/svg" xmlns:xlink="http://www.w3.org/1999/xlink">
<g id="graph0" class="graph" transform="scale(1 1) rotate(0) translate(4 383.8)">
<title>Chromosome.h</title>
<polygon fill="white" stroke="none" points="-4,4 -4,-383.8 1165.98,-383.8 1165.98,4 -4,4"/>
<!-- Node1 -->
<g id="node1" class="node"><title>Node1</title>
<polygon fill="#bfbfbf" stroke="black" points="839.324,-356.9 839.324,-379.3 928.985,-379.3 928.985,-356.9 839.324,-356.9"/>
<text text-anchor="middle" x="884.155" y="-364.5" font-family="-adobe-utopia-medium-i-normal--0-0-0-0-p-0-iso10646-1" font-size="12.00">Chromosome.h</text>
</g>
<!-- Node2 -->
<g id="node2" class="node"><title>Node2</title>
<g id="a_node2"><a xlink:href="Individuals_8h.html" target="_top" xlink:title="Individuals.h">
<polygon fill="white" stroke="black" points="700.658,-297.5 700.658,-319.9 779.651,-319.9 779.651,-297.5 700.658,-297.5"/>
<text text-anchor="middle" x="740.155" y="-305.1" font-family="-adobe-utopia-medium-i-normal--0-0-0-0-p-0-iso10646-1" font-size="12.00">Individuals.h</text>
</a>
</g>
</g>
<!-- Node1&#45;&gt;Node2 -->
<g id="edge1" class="edge"><title>Node1&#45;&gt;Node2</title>
<path fill="none" stroke="midnightblue" d="M849.059,-353.111C823.464,-342.908 789.343,-329.307 766.162,-320.067"/>
<polygon fill="midnightblue" stroke="midnightblue" points="847.825,-356.386 858.41,-356.838 850.417,-349.884 847.825,-356.386"/>
</g>
<!-- Node16 -->
<g id="node16" class="node"><title>Node16</title>
<g id="a_node16"><a xlink:href="Individual_8h.html" target="_top" xlink:title="Individual.h">
<polygon fill="white" stroke="black" points="838.992,-238.1 838.992,-260.5 913.318,-260.5 913.318,-238.1 838.992,-238.1"/>
<text text-anchor="middle" x="876.155" y="-245.7" font-family="-adobe-utopia-medium-i-normal--0-0-0-0-p-0-iso10646-1" font-size="12.00">Individual.h</text>
</a>
</g>
</g>
<!-- Node1&#45;&gt;Node16 -->
<g id="edge32" class="edge"><title>Node1&#45;&gt;Node16</title>
<path fill="none" stroke="midnightblue" d="M873.756,-347.692C869.932,-339.512 866.07,-329.737 864.155,-320.4 859.838,-299.354 866.933,-274.533 871.921,-260.791"/>
<polygon fill="midnightblue" stroke="midnightblue" points="870.674,-349.355 878.268,-356.742 876.938,-346.231 870.674,-349.355"/>
</g>
<!-- Node24 -->
<g id="node24" class="node"><title>Node24</title>
<g id="a_node24"><a xlink:href="Chromosome_8cpp.html" target="_top" xlink:title="Chromosome.cpp">
<polygon fill="white" stroke="black" points="872.661,-297.5 872.661,-319.9 973.648,-319.9 973.648,-297.5 872.661,-297.5"/>
<text text-anchor="middle" x="923.155" y="-305.1" font-family="-adobe-utopia-medium-i-normal--0-0-0-0-p-0-iso10646-1" font-size="12.00">Chromosome.cpp</text>
</a>
</g>
</g>
<!-- Node1&#45;&gt;Node24 -->
<g id="edge33" class="edge"><title>Node1&#45;&gt;Node24</title>
<path fill="none" stroke="midnightblue" d="M896.775,-348.525C903.133,-339.167 910.611,-328.161 915.979,-320.261"/>
<polygon fill="midnightblue" stroke="midnightblue" points="893.852,-346.6 891.127,-356.838 899.642,-350.534 893.852,-346.6"/>
</g>
<!-- Node25 -->
<g id="node25" class="node"><title>Node25</title>
<g id="a_node25"><a xlink:href="ChromosomePair_8h.html" target="_top" xlink:title="ChromosomePair.h">
<polygon fill="white" stroke="black" points="991.661,-297.5 991.661,-319.9 1100.65,-319.9 1100.65,-297.5 991.661,-297.5"/>
<text text-anchor="middle" x="1046.15" y="-305.1" font-family="-adobe-utopia-medium-i-normal--0-0-0-0-p-0-iso10646-1" font-size="12.00">ChromosomePair.h</text>
</a>
</g>
</g>
<!-- Node1&#45;&gt;Node25 -->
<g id="edge34" class="edge"><title>Node1&#45;&gt;Node25</title>
<path fill="none" stroke="midnightblue" d="M922.91,-353.368C951.882,-343.103 990.868,-329.289 1017.17,-319.97"/>
<polygon fill="midnightblue" stroke="midnightblue" points="921.374,-350.199 913.117,-356.838 923.712,-356.797 921.374,-350.199"/>
</g>
<!-- Node3 -->
<g id="node3" class="node"><title>Node3</title>
<g id="a_node3"><a xlink:href="PolymorphicIndividualsExtractor_8h.html" target="_top" xlink:title="PolymorphicIndividualsExtractor.h">
<polygon fill="white" stroke="black" points="412.338,-238.1 412.338,-260.5 597.971,-260.5 597.971,-238.1 412.338,-238.1"/>
<text text-anchor="middle" x="505.155" y="-245.7" font-family="-adobe-utopia-medium-i-normal--0-0-0-0-p-0-iso10646-1" font-size="12.00">PolymorphicIndividualsExtractor.h</text>
</a>
</g>
</g>
<!-- Node2&#45;&gt;Node3 -->
<g id="edge2" class="edge"><title>Node2&#45;&gt;Node3</title>
<path fill="none" stroke="midnightblue" d="M690.701,-295.621C648.189,-285.237 587.543,-270.424 547.299,-260.594"/>
<polygon fill="midnightblue" stroke="midnightblue" points="690.011,-299.055 700.556,-298.028 691.672,-292.255 690.011,-299.055"/>
</g>
<!-- Node4 -->
<g id="node4" class="node"><title>Node4</title>
<g id="a_node4"><a xlink:href="InputManager_8h.html" target="_top" xlink:title="InputManager.h">
<polygon fill="white" stroke="black" points="82.6688,-178.7 82.6688,-201.1 175.64,-201.1 175.64,-178.7 82.6688,-178.7"/>
<text text-anchor="middle" x="129.155" y="-186.3" font-family="-adobe-utopia-medium-i-normal--0-0-0-0-p-0-iso10646-1" font-size="12.00">InputManager.h</text>
</a>
</g>
</g>
<!-- Node2&#45;&gt;Node4 -->
<g id="edge28" class="edge"><title>Node2&#45;&gt;Node4</title>
<path fill="none" stroke="midnightblue" d="M690.363,-302.578C624.345,-295.382 504.38,-280.897 403.155,-261 316.19,-243.907 215.644,-216.068 163.902,-201.135"/>
<polygon fill="midnightblue" stroke="midnightblue" points="690.166,-306.077 700.484,-303.67 690.917,-299.117 690.166,-306.077"/>
</g>
<!-- Node5 -->
<g id="node5" class="node"><title>Node5</title>
<g id="a_node5"><a xlink:href="GERMLINE_8h.html" target="_top" xlink:title="GERMLINE.h">
<polygon fill="white" stroke="black" points="85.6634,-59.9 85.6634,-82.3 172.646,-82.3 172.646,-59.9 85.6634,-59.9"/>
<text text-anchor="middle" x="129.155" y="-67.5" font-family="-adobe-utopia-medium-i-normal--0-0-0-0-p-0-iso10646-1" font-size="12.00">GERMLINE.h</text>
</a>
</g>
</g>
<!-- Node2&#45;&gt;Node5 -->
<g id="edge29" class="edge"><title>Node2&#45;&gt;Node5</title>
<path fill="none" stroke="midnightblue" d="M690.102,-308.112C548.207,-308.067 148.756,-299.131 74.1546,-201.6 44.4744,-162.797 94.7388,-105.583 118.15,-82.4089"/>
<polygon fill="midnightblue" stroke="midnightblue" points="690.266,-311.612 700.262,-308.1 690.258,-304.612 690.266,-311.612"/>
</g>
<!-- Node9 -->
<g id="node9" class="node"><title>Node9</title>
<g id="a_node9"><a xlink:href="MatchesBuilder_8h.html" target="_top" xlink:title="MatchesBuilder.h">
<polygon fill="white" stroke="black" points="731.333,-119.3 731.333,-141.7 832.976,-141.7 832.976,-119.3 731.333,-119.3"/>
<text text-anchor="middle" x="782.155" y="-126.9" font-family="-adobe-utopia-medium-i-normal--0-0-0-0-p-0-iso10646-1" font-size="12.00">MatchesBuilder.h</text>
</a>
</g>
</g>
<!-- Node2&#45;&gt;Node9 -->
<g id="edge30" class="edge"><title>Node2&#45;&gt;Node9</title>
<path fill="none" stroke="midnightblue" d="M751.272,-288.55C755.603,-280.314 760.221,-270.428 763.155,-261 776.522,-218.039 780.578,-164.066 781.729,-141.814"/>
<polygon fill="midnightblue" stroke="midnightblue" points="748.192,-286.886 746.437,-297.335 754.325,-290.261 748.192,-286.886"/>
</g>
<!-- Node2&#45;&gt;Node16 -->
<g id="edge18" class="edge"><title>Node2&#45;&gt;Node16</title>
<path fill="none" stroke="midnightblue" d="M768.321,-293.304C791.13,-283.149 822.997,-269.785 846.257,-260.667"/>
<polygon fill="midnightblue" stroke="midnightblue" points="766.831,-290.137 759.153,-297.438 769.708,-296.519 766.831,-290.137"/>
</g>
<!-- Node23 -->
<g id="node23" class="node"><title>Node23</title>
<g id="a_node23"><a xlink:href="Individuals_8cpp.html" target="_top" xlink:title="Individuals.cpp">
<polygon fill="white" stroke="black" points="663.995,-238.1 663.995,-260.5 754.314,-260.5 754.314,-238.1 663.995,-238.1"/>
<text text-anchor="middle" x="709.155" y="-245.7" font-family="-adobe-utopia-medium-i-normal--0-0-0-0-p-0-iso10646-1" font-size="12.00">Individuals.cpp</text>
</a>
</g>
</g>
<!-- Node2&#45;&gt;Node23 -->
<g id="edge31" class="edge"><title>Node2&#45;&gt;Node23</title>
<path fill="none" stroke="midnightblue" d="M729.809,-288.545C724.824,-279.314 719.037,-268.598 714.859,-260.861"/>
<polygon fill="midnightblue" stroke="midnightblue" points="726.781,-290.302 734.612,-297.438 732.94,-286.976 726.781,-290.302"/>
</g>
<!-- Node3&#45;&gt;Node4 -->
<g id="edge3" class="edge"><title>Node3&#45;&gt;Node4</title>
<path fill="none" stroke="midnightblue" d="M418.268,-236.67C353.814,-227.788 263.852,-214.854 185.155,-201.6 182.129,-201.09 179.015,-200.547 175.878,-199.986"/>
<polygon fill="midnightblue" stroke="midnightblue" points="418.005,-240.167 428.388,-238.06 418.957,-233.232 418.005,-240.167"/>
</g>
<!-- Node3&#45;&gt;Node9 -->
<g id="edge8" class="edge"><title>Node3&#45;&gt;Node9</title>
<path fill="none" stroke="midnightblue" d="M608.364,-240.977C647.168,-234.601 690.291,-222.91 725.155,-201.6 749.513,-186.712 768.046,-157.562 776.726,-141.954"/>
<polygon fill="midnightblue" stroke="midnightblue" points="607.424,-237.58 598.073,-242.562 608.49,-244.499 607.424,-237.58"/>
</g>
<!-- Node11 -->
<g id="node11" class="node"><title>Node11</title>
<g id="a_node11"><a xlink:href="HMIndividualsExtractor_8h.html" target="_top" xlink:title="HMIndividualsExtractor.h">
<polygon fill="white" stroke="black" points="573.672,-178.7 573.672,-201.1 716.638,-201.1 716.638,-178.7 573.672,-178.7"/>
<text text-anchor="middle" x="645.155" y="-186.3" font-family="-adobe-utopia-medium-i-normal--0-0-0-0-p-0-iso10646-1" font-size="12.00">HMIndividualsExtractor.h</text>
</a>
</g>
</g>
<!-- Node3&#45;&gt;Node11 -->
<g id="edge11" class="edge"><title>Node3&#45;&gt;Node11</title>
<path fill="none" stroke="midnightblue" d="M539.605,-234.175C564.451,-223.988 597.432,-210.466 619.87,-201.267"/>
<polygon fill="midnightblue" stroke="midnightblue" points="538.109,-231.006 530.184,-238.038 540.764,-237.483 538.109,-231.006"/>
</g>
<!-- Node13 -->
<g id="node13" class="node"><title>Node13</title>
<g id="a_node13"><a xlink:href="PEDIndividualsExtractor_8h.html" target="_top" xlink:title="PEDIndividualsExtractor.h">
<polygon fill="white" stroke="black" points="194.004,-178.7 194.004,-201.1 340.305,-201.1 340.305,-178.7 194.004,-178.7"/>
<text text-anchor="middle" x="267.155" y="-186.3" font-family="-adobe-utopia-medium-i-normal--0-0-0-0-p-0-iso10646-1" font-size="12.00">PEDIndividualsExtractor.h</text>
</a>
</g>
</g>
<!-- Node3&#45;&gt;Node13 -->
<g id="edge14" class="edge"><title>Node3&#45;&gt;Node13</title>
<path fill="none" stroke="midnightblue" d="M452.623,-235.631C409.678,-225.273 349.729,-210.815 309.736,-201.17"/>
<polygon fill="midnightblue" stroke="midnightblue" points="452.063,-239.096 462.605,-238.038 453.704,-232.291 452.063,-239.096"/>
</g>
<!-- Node15 -->
<g id="node15" class="node"><title>Node15</title>
<g id="a_node15"><a xlink:href="PolymorphicIndividualsExtractor_8cpp.html" target="_top" xlink:title="PolymorphicIndividualsExtractor.cpp">
<polygon fill="white" stroke="black" points="358.675,-178.7 358.675,-201.1 555.635,-201.1 555.635,-178.7 358.675,-178.7"/>
<text text-anchor="middle" x="457.155" y="-186.3" font-family="-adobe-utopia-medium-i-normal--0-0-0-0-p-0-iso10646-1" font-size="12.00">PolymorphicIndividualsExtractor.cpp</text>
</a>
</g>
</g>
<!-- Node3&#45;&gt;Node15 -->
<g id="edge17" class="edge"><title>Node3&#45;&gt;Node15</title>
<path fill="none" stroke="midnightblue" d="M490.104,-230.302C482.177,-220.822 472.729,-209.524 465.986,-201.461"/>
<polygon fill="midnightblue" stroke="midnightblue" points="487.473,-232.612 496.573,-238.038 492.843,-228.122 487.473,-232.612"/>
</g>
<!-- Node4&#45;&gt;Node5 -->
<g id="edge4" class="edge"><title>Node4&#45;&gt;Node5</title>
<path fill="none" stroke="midnightblue" d="M129.155,-168.304C129.155,-143.243 129.155,-101.893 129.155,-82.6099"/>
<polygon fill="midnightblue" stroke="midnightblue" points="125.655,-168.535 129.155,-178.535 132.655,-168.535 125.655,-168.535"/>
</g>
<!-- Node8 -->
<g id="node8" class="node"><title>Node8</title>
<g id="a_node8"><a xlink:href="InputManager_8cpp.html" target="_top" xlink:title="InputManager.cpp">
<polygon fill="white" stroke="black" points="349.005,-119.3 349.005,-141.7 453.304,-141.7 453.304,-119.3 349.005,-119.3"/>
<text text-anchor="middle" x="401.155" y="-126.9" font-family="-adobe-utopia-medium-i-normal--0-0-0-0-p-0-iso10646-1" font-size="12.00">InputManager.cpp</text>
</a>
</g>
</g>
<!-- Node4&#45;&gt;Node8 -->
<g id="edge7" class="edge"><title>Node4&#45;&gt;Node8</title>
<path fill="none" stroke="midnightblue" d="M185.793,-176.948C235.148,-166.532 305.951,-151.591 352.719,-141.721"/>
<polygon fill="midnightblue" stroke="midnightblue" points="184.975,-173.543 175.913,-179.033 186.42,-180.392 184.975,-173.543"/>
</g>
<!-- Node6 -->
<g id="node6" class="node"><title>Node6</title>
<g id="a_node6"><a xlink:href="GERMLINE__0001_8cpp.html" target="_top" xlink:title="GERMLINE_0001.cpp">
<polygon fill="white" stroke="black" points="7.10543e-14,-0.5 7.10543e-14,-22.9 128.309,-22.9 128.309,-0.5 7.10543e-14,-0.5"/>
<text text-anchor="middle" x="64.1546" y="-8.1" font-family="-adobe-utopia-medium-i-normal--0-0-0-0-p-0-iso10646-1" font-size="12.00">GERMLINE_0001.cpp</text>
</a>
</g>
</g>
<!-- Node5&#45;&gt;Node6 -->
<g id="edge5" class="edge"><title>Node5&#45;&gt;Node6</title>
<path fill="none" stroke="midnightblue" d="M109.744,-52.9589C98.8174,-43.3099 85.521,-31.5682 76.1145,-23.2615"/>
<polygon fill="midnightblue" stroke="midnightblue" points="107.721,-55.8422 117.534,-59.838 112.355,-50.5952 107.721,-55.8422"/>
</g>
<!-- Node7 -->
<g id="node7" class="node"><title>Node7</title>
<g id="a_node7"><a xlink:href="GERMLINE_8cpp.html" target="_top" xlink:title="GERMLINE.cpp">
<polygon fill="white" stroke="black" points="146,-0.5 146,-22.9 244.309,-22.9 244.309,-0.5 146,-0.5"/>
<text text-anchor="middle" x="195.155" y="-8.1" font-family="-adobe-utopia-medium-i-normal--0-0-0-0-p-0-iso10646-1" font-size="12.00">GERMLINE.cpp</text>
</a>
</g>
</g>
<!-- Node5&#45;&gt;Node7 -->
<g id="edge6" class="edge"><title>Node5&#45;&gt;Node7</title>
<path fill="none" stroke="midnightblue" d="M148.538,-53.2421C159.693,-43.5405 173.366,-31.6496 183.011,-23.2615"/>
<polygon fill="midnightblue" stroke="midnightblue" points="146.203,-50.6347 140.954,-59.838 150.797,-55.9166 146.203,-50.6347"/>
</g>
<!-- Node9&#45;&gt;Node5 -->
<g id="edge9" class="edge"><title>Node9&#45;&gt;Node5</title>
<path fill="none" stroke="midnightblue" d="M721.108,-118.774C509.886,-92.1365 269.668,-78.7635 172.828,-74.0731"/>
<polygon fill="midnightblue" stroke="midnightblue" points="720.782,-122.261 731.144,-120.053 721.666,-115.317 720.782,-122.261"/>
</g>
<!-- Node10 -->
<g id="node10" class="node"><title>Node10</title>
<g id="a_node10"><a xlink:href="MatchesBuilder_8cpp.html" target="_top" xlink:title="MatchesBuilder.cpp">
<polygon fill="white" stroke="black" points="725.67,-59.9 725.67,-82.3 838.639,-82.3 838.639,-59.9 725.67,-59.9"/>
<text text-anchor="middle" x="782.155" y="-67.5" font-family="-adobe-utopia-medium-i-normal--0-0-0-0-p-0-iso10646-1" font-size="12.00">MatchesBuilder.cpp</text>
</a>
</g>
</g>
<!-- Node9&#45;&gt;Node10 -->
<g id="edge10" class="edge"><title>Node9&#45;&gt;Node10</title>
<path fill="none" stroke="midnightblue" d="M782.155,-109.171C782.155,-100.217 782.155,-90.0723 782.155,-82.6615"/>
<polygon fill="midnightblue" stroke="midnightblue" points="778.655,-109.238 782.155,-119.238 785.655,-109.238 778.655,-109.238"/>
</g>
<!-- Node11&#45;&gt;Node8 -->
<g id="edge13" class="edge"><title>Node11&#45;&gt;Node8</title>
<path fill="none" stroke="midnightblue" d="M591.577,-176.296C547.53,-165.934 485.897,-151.435 444.81,-141.77"/>
<polygon fill="midnightblue" stroke="midnightblue" points="590.997,-179.755 601.532,-178.638 592.6,-172.941 590.997,-179.755"/>
</g>
<!-- Node12 -->
<g id="node12" class="node"><title>Node12</title>
<g id="a_node12"><a xlink:href="HMIndividualsExtractor_8cpp.html" target="_top" xlink:title="HMIndividualsExtractor.cpp">
<polygon fill="white" stroke="black" points="559.008,-119.3 559.008,-141.7 713.301,-141.7 713.301,-119.3 559.008,-119.3"/>
<text text-anchor="middle" x="636.155" y="-126.9" font-family="-adobe-utopia-medium-i-normal--0-0-0-0-p-0-iso10646-1" font-size="12.00">HMIndividualsExtractor.cpp</text>
</a>
</g>
</g>
<!-- Node11&#45;&gt;Node12 -->
<g id="edge12" class="edge"><title>Node11&#45;&gt;Node12</title>
<path fill="none" stroke="midnightblue" d="M641.967,-168.571C640.563,-159.617 638.973,-149.472 637.811,-142.061"/>
<polygon fill="midnightblue" stroke="midnightblue" points="638.539,-169.301 643.546,-178.638 645.454,-168.217 638.539,-169.301"/>
</g>
<!-- Node13&#45;&gt;Node8 -->
<g id="edge15" class="edge"><title>Node13&#45;&gt;Node8</title>
<path fill="none" stroke="midnightblue" d="M300.444,-174.64C324.189,-164.469 355.572,-151.026 376.954,-141.867"/>
<polygon fill="midnightblue" stroke="midnightblue" points="298.925,-171.483 291.111,-178.638 301.681,-177.918 298.925,-171.483"/>
</g>
<!-- Node14 -->
<g id="node14" class="node"><title>Node14</title>
<g id="a_node14"><a xlink:href="PEDIndividualsExtractor_8cpp.html" target="_top" xlink:title="PEDIndividualsExtractor.cpp">
<polygon fill="white" stroke="black" points="173.341,-119.3 173.341,-141.7 330.968,-141.7 330.968,-119.3 173.341,-119.3"/>
<text text-anchor="middle" x="252.155" y="-126.9" font-family="-adobe-utopia-medium-i-normal--0-0-0-0-p-0-iso10646-1" font-size="12.00">PEDIndividualsExtractor.cpp</text>
</a>
</g>
</g>
<!-- Node13&#45;&gt;Node14 -->
<g id="edge16" class="edge"><title>Node13&#45;&gt;Node14</title>
<path fill="none" stroke="midnightblue" d="M261.919,-168.866C259.561,-159.841 256.872,-149.554 254.915,-142.061"/>
<polygon fill="midnightblue" stroke="midnightblue" points="258.558,-169.848 264.473,-178.638 265.331,-168.078 258.558,-169.848"/>
</g>
<!-- Node16&#45;&gt;Node2 -->
<g id="edge19" class="edge"><title>Node16&#45;&gt;Node2</title>
<path fill="none" stroke="midnightblue" d="M847.725,-264.813C824.848,-274.992 792.979,-288.353 769.785,-297.438"/>
<polygon fill="midnightblue" stroke="midnightblue" points="849.248,-267.965 856.927,-260.667 846.372,-261.583 849.248,-267.965"/>
</g>
<!-- Node17 -->
<g id="node17" class="node"><title>Node17</title>
<g id="a_node17"><a xlink:href="Match_8h.html" target="_top" xlink:title="Match.h">
<polygon fill="white" stroke="black" points="1024.33,-178.7 1024.33,-201.1 1079.98,-201.1 1079.98,-178.7 1024.33,-178.7"/>
<text text-anchor="middle" x="1052.15" y="-186.3" font-family="-adobe-utopia-medium-i-normal--0-0-0-0-p-0-iso10646-1" font-size="12.00">Match.h</text>
</a>
</g>
</g>
<!-- Node16&#45;&gt;Node17 -->
<g id="edge20" class="edge"><title>Node16&#45;&gt;Node17</title>
<path fill="none" stroke="midnightblue" d="M912.069,-234.682C945.229,-223.377 993.625,-207.712 1024.07,-198.507"/>
<polygon fill="midnightblue" stroke="midnightblue" points="910.623,-231.478 902.304,-238.038 912.899,-238.097 910.623,-231.478"/>
</g>
<!-- Node19 -->
<g id="node19" class="node"><title>Node19</title>
<g id="a_node19"><a xlink:href="MatchFactory_8h.html" target="_top" xlink:title="MatchFactory.h">
<polygon fill="white" stroke="black" points="914,-178.7 914,-201.1 1006.31,-201.1 1006.31,-178.7 914,-178.7"/>
<text text-anchor="middle" x="960.155" y="-186.3" font-family="-adobe-utopia-medium-i-normal--0-0-0-0-p-0-iso10646-1" font-size="12.00">MatchFactory.h</text>
</a>
</g>
</g>
<!-- Node16&#45;&gt;Node19 -->
<g id="edge23" class="edge"><title>Node16&#45;&gt;Node19</title>
<path fill="none" stroke="midnightblue" d="M899.649,-232.246C914.16,-222.33 932.355,-209.896 944.984,-201.267"/>
<polygon fill="midnightblue" stroke="midnightblue" points="897.454,-229.506 891.172,-238.038 901.403,-235.286 897.454,-229.506"/>
</g>
<!-- Node21 -->
<g id="node21" class="node"><title>Node21</title>
<g id="a_node21"><a xlink:href="Share_8cpp.html" target="_top" xlink:title="Share.cpp">
<polygon fill="white" stroke="black" points="1098.33,-178.7 1098.33,-201.1 1161.98,-201.1 1161.98,-178.7 1098.33,-178.7"/>
<text text-anchor="middle" x="1130.15" y="-186.3" font-family="-adobe-utopia-medium-i-normal--0-0-0-0-p-0-iso10646-1" font-size="12.00">Share.cpp</text>
</a>
</g>
</g>
<!-- Node16&#45;&gt;Node21 -->
<g id="edge26" class="edge"><title>Node16&#45;&gt;Node21</title>
<path fill="none" stroke="midnightblue" d="M923.532,-238.472C966.778,-229.369 1032.41,-215.219 1089.15,-201.6 1092.02,-200.913 1094.98,-200.18 1097.96,-199.431"/>
<polygon fill="midnightblue" stroke="midnightblue" points="922.647,-235.082 913.579,-240.561 924.085,-241.932 922.647,-235.082"/>
</g>
<!-- Node22 -->
<g id="node22" class="node"><title>Node22</title>
<g id="a_node22"><a xlink:href="Individual_8cpp.html" target="_top" xlink:title="Individual.cpp">
<polygon fill="white" stroke="black" points="810.328,-178.7 810.328,-201.1 895.981,-201.1 895.981,-178.7 810.328,-178.7"/>
<text text-anchor="middle" x="853.155" y="-186.3" font-family="-adobe-utopia-medium-i-normal--0-0-0-0-p-0-iso10646-1" font-size="12.00">Individual.cpp</text>
</a>
</g>
</g>
<!-- Node16&#45;&gt;Node22 -->
<g id="edge27" class="edge"><title>Node16&#45;&gt;Node22</title>
<path fill="none" stroke="midnightblue" d="M868.245,-228.56C864.6,-219.465 860.421,-209.035 857.387,-201.461"/>
<polygon fill="midnightblue" stroke="midnightblue" points="865.074,-230.057 872.043,-238.038 871.572,-227.454 865.074,-230.057"/>
</g>
<!-- Node17&#45;&gt;Node16 -->
<g id="edge21" class="edge"><title>Node17&#45;&gt;Node16</title>
<path fill="none" stroke="midnightblue" d="M1016.28,-204.506C986.12,-214.787 943.346,-228.68 912.936,-238.038"/>
<polygon fill="midnightblue" stroke="midnightblue" points="1017.66,-207.73 1025.98,-201.17 1015.39,-201.11 1017.66,-207.73"/>
</g>
<!-- Node18 -->
<g id="node18" class="node"><title>Node18</title>
<g id="a_node18"><a xlink:href="Match_8cpp.html" target="_top" xlink:title="Match.cpp">
<polygon fill="white" stroke="black" points="1023.66,-119.3 1023.66,-141.7 1090.65,-141.7 1090.65,-119.3 1023.66,-119.3"/>
<text text-anchor="middle" x="1057.15" y="-126.9" font-family="-adobe-utopia-medium-i-normal--0-0-0-0-p-0-iso10646-1" font-size="12.00">Match.cpp</text>
</a>
</g>
</g>
<!-- Node17&#45;&gt;Node18 -->
<g id="edge22" class="edge"><title>Node17&#45;&gt;Node18</title>
<path fill="none" stroke="midnightblue" d="M1053.93,-168.571C1054.71,-159.617 1055.59,-149.472 1056.23,-142.061"/>
<polygon fill="midnightblue" stroke="midnightblue" points="1050.43,-168.372 1053.05,-178.638 1057.4,-168.98 1050.43,-168.372"/>
</g>
<!-- Node19&#45;&gt;Node9 -->
<g id="edge24" class="edge"><title>Node19&#45;&gt;Node9</title>
<path fill="none" stroke="midnightblue" d="M918.403,-175.436C886.487,-165.144 843.155,-151.171 814.001,-141.77"/>
<polygon fill="midnightblue" stroke="midnightblue" points="917.74,-178.9 928.332,-178.638 919.889,-172.238 917.74,-178.9"/>
</g>
<!-- Node20 -->
<g id="node20" class="node"><title>Node20</title>
<g id="a_node20"><a xlink:href="MatchFactory_8cpp.html" target="_top" xlink:title="MatchFactory.cpp">
<polygon fill="white" stroke="black" points="902.337,-119.3 902.337,-141.7 1005.97,-141.7 1005.97,-119.3 902.337,-119.3"/>
<text text-anchor="middle" x="954.155" y="-126.9" font-family="-adobe-utopia-medium-i-normal--0-0-0-0-p-0-iso10646-1" font-size="12.00">MatchFactory.cpp</text>
</a>
</g>
</g>
<!-- Node19&#45;&gt;Node20 -->
<g id="edge25" class="edge"><title>Node19&#45;&gt;Node20</title>
<path fill="none" stroke="midnightblue" d="M958.03,-168.571C957.094,-159.617 956.033,-149.472 955.259,-142.061"/>
<polygon fill="midnightblue" stroke="midnightblue" points="954.561,-169.056 959.082,-178.638 961.523,-168.328 954.561,-169.056"/>
</g>
<!-- Node26 -->
<g id="node26" class="node"><title>Node26</title>
<g id="a_node26"><a xlink:href="ChromosomePair_8cpp.html" target="_top" xlink:title="ChromosomePair.cpp">
<polygon fill="white" stroke="black" points="985.997,-238.1 985.997,-260.5 1106.31,-260.5 1106.31,-238.1 985.997,-238.1"/>
<text text-anchor="middle" x="1046.15" y="-245.7" font-family="-adobe-utopia-medium-i-normal--0-0-0-0-p-0-iso10646-1" font-size="12.00">ChromosomePair.cpp</text>
</a>
</g>
</g>
<!-- Node25&#45;&gt;Node26 -->
<g id="edge35" class="edge"><title>Node25&#45;&gt;Node26</title>
<path fill="none" stroke="midnightblue" d="M1046.15,-287.371C1046.15,-278.417 1046.15,-268.272 1046.15,-260.861"/>
<polygon fill="midnightblue" stroke="midnightblue" points="1042.65,-287.438 1046.15,-297.438 1049.65,-287.438 1042.65,-287.438"/>
</g>
</g>
</svg>
