<?xml version="1.0" encoding="UTF-8" standalone="no"?>
<!DOCTYPE svg PUBLIC "-//W3C//DTD SVG 1.1//EN"
 "http://www.w3.org/Graphics/SVG/1.1/DTD/svg11.dtd">
<!-- Generated by graphviz version 2.38.0 (20140413.2041)
 -->
<!-- Title: SNP::setChr Pages: 1 -->
<svg width="433pt" height="102pt"
 viewBox="0.00 0.00 433.28 101.80" xmlns="http://www.w3.org/2000/svg" xmlns:xlink="http://www.w3.org/1999/xlink">
<g id="graph0" class="graph" transform="scale(1 1) rotate(0) translate(4 97.8)">
<title>SNP::setChr</title>
<polygon fill="white" stroke="none" points="-4,4 -4,-97.8 429.275,-97.8 429.275,4 -4,4"/>
<!-- Node1 -->
<g id="node1" class="node"><title>Node1</title>
<polygon fill="#bfbfbf" stroke="black" points="0,-36.7 0,-59.1 76,-59.1 76,-36.7 0,-36.7"/>
<text text-anchor="middle" x="38" y="-44.3" font-family="-adobe-utopia-medium-i-normal--0-0-0-0-p-0-iso10646-1" font-size="12.00">SNP::setChr</text>
</g>
<!-- Node2 -->
<g id="node2" class="node"><title>Node2</title>
<g id="a_node2"><a xlink:href="classSNPs.html#a5ebf04c1e5d71710bd68af7a556864f9" target="_top" xlink:title="SNPs::processLegendFile">
<polygon fill="white" stroke="black" points="112,-59.7 112,-82.1 251.974,-82.1 251.974,-59.7 112,-59.7"/>
<text text-anchor="middle" x="181.987" y="-67.3" font-family="-adobe-utopia-medium-i-normal--0-0-0-0-p-0-iso10646-1" font-size="12.00">SNPs::processLegendFile</text>
</a>
</g>
</g>
<!-- Node1&#45;&gt;Node2 -->
<g id="edge1" class="edge"><title>Node1&#45;&gt;Node2</title>
<path fill="none" stroke="midnightblue" d="M86.3666,-55.5727C94.5387,-56.8965 103.182,-58.2967 111.791,-59.6911"/>
<polygon fill="midnightblue" stroke="midnightblue" points="86.7365,-52.0871 76.3055,-53.943 85.6171,-58.997 86.7365,-52.0871"/>
</g>
<!-- Node4 -->
<g id="node4" class="node"><title>Node4</title>
<g id="a_node4"><a xlink:href="classSNPs.html#a0f26b6fbd02cc5afd8d423b411d304e8" target="_top" xlink:title="SNPs::processMAPFile">
<polygon fill="white" stroke="black" points="116.992,-14.7 116.992,-37.1 246.982,-37.1 246.982,-14.7 116.992,-14.7"/>
<text text-anchor="middle" x="181.987" y="-22.3" font-family="-adobe-utopia-medium-i-normal--0-0-0-0-p-0-iso10646-1" font-size="12.00">SNPs::processMAPFile</text>
</a>
</g>
</g>
<!-- Node1&#45;&gt;Node4 -->
<g id="edge3" class="edge"><title>Node1&#45;&gt;Node4</title>
<path fill="none" stroke="midnightblue" d="M86.2212,-40.5834C96.008,-39.067 106.476,-37.445 116.754,-35.8525"/>
<polygon fill="midnightblue" stroke="midnightblue" points="85.6516,-37.1298 76.3055,-42.1198 86.7235,-44.0472 85.6516,-37.1298"/>
</g>
<!-- Node3 -->
<g id="node3" class="node"><title>Node3</title>
<g id="a_node3"><a xlink:href="classHMIndividualsExtractor.html#af7aaa5ed222fd00cc2c36e69a01a3bb3" target="_top" xlink:title="HMIndividualsExtractor\l::loadInput">
<polygon fill="white" stroke="black" points="289.642,-56.5 289.642,-93.3 423.608,-93.3 423.608,-56.5 289.642,-56.5"/>
<text text-anchor="start" x="297.642" y="-78.5" font-family="-adobe-utopia-medium-i-normal--0-0-0-0-p-0-iso10646-1" font-size="12.00">HMIndividualsExtractor</text>
<text text-anchor="middle" x="356.625" y="-64.1" font-family="-adobe-utopia-medium-i-normal--0-0-0-0-p-0-iso10646-1" font-size="12.00">::loadInput</text>
</a>
</g>
</g>
<!-- Node2&#45;&gt;Node3 -->
<g id="edge2" class="edge"><title>Node2&#45;&gt;Node3</title>
<path fill="none" stroke="midnightblue" d="M262.378,-72.7395C271.441,-72.9495 280.606,-73.1618 289.471,-73.3672"/>
<polygon fill="midnightblue" stroke="midnightblue" points="262.289,-69.2366 252.211,-72.5039 262.127,-76.2347 262.289,-69.2366"/>
</g>
<!-- Node5 -->
<g id="node5" class="node"><title>Node5</title>
<g id="a_node5"><a xlink:href="classPEDIndividualsExtractor.html#aaaae7102f9e3db6f900b3d56f559dc91" target="_top" xlink:title="PEDIndividualsExtractor\l::loadInput">
<polygon fill="white" stroke="black" points="287.974,-0.5 287.974,-37.3 425.275,-37.3 425.275,-0.5 287.974,-0.5"/>
<text text-anchor="start" x="295.974" y="-22.5" font-family="-adobe-utopia-medium-i-normal--0-0-0-0-p-0-iso10646-1" font-size="12.00">PEDIndividualsExtractor</text>
<text text-anchor="middle" x="356.625" y="-8.1" font-family="-adobe-utopia-medium-i-normal--0-0-0-0-p-0-iso10646-1" font-size="12.00">::loadInput</text>
</a>
</g>
</g>
<!-- Node4&#45;&gt;Node5 -->
<g id="edge4" class="edge"><title>Node4&#45;&gt;Node5</title>
<path fill="none" stroke="midnightblue" d="M257.311,-22.8864C267.447,-22.4754 277.808,-22.0553 287.82,-21.6493"/>
<polygon fill="midnightblue" stroke="midnightblue" points="257.121,-19.3911 247.271,-23.2935 257.405,-26.3853 257.121,-19.3911"/>
</g>
</g>
</svg>
