<?xml version="1.0" encoding="UTF-8" standalone="no"?>
<!DOCTYPE svg PUBLIC "-//W3C//DTD SVG 1.1//EN"
 "http://www.w3.org/Graphics/SVG/1.1/DTD/svg11.dtd">
<!-- Generated by graphviz version 2.38.0 (20140413.2041)
 -->
<!-- Title: Match::scanLeft Pages: 1 -->
<svg width="215pt" height="31pt"
 viewBox="0.00 0.00 214.62 31.40" xmlns="http://www.w3.org/2000/svg" xmlns:xlink="http://www.w3.org/1999/xlink">
<g id="graph0" class="graph" transform="scale(1 1) rotate(0) translate(4 27.4)">
<title>Match::scanLeft</title>
<polygon fill="white" stroke="none" points="-4,4 -4,-27.4 210.622,-27.4 210.622,4 -4,4"/>
<!-- Node1 -->
<g id="node1" class="node"><title>Node1</title>
<polygon fill="#bfbfbf" stroke="black" points="7.10543e-15,-0.5 7.10543e-15,-22.9 94.6324,-22.9 94.6324,-0.5 7.10543e-15,-0.5"/>
<text text-anchor="middle" x="47.3162" y="-8.1" font-family="-adobe-utopia-medium-i-normal--0-0-0-0-p-0-iso10646-1" font-size="12.00">Match::scanLeft</text>
</g>
<!-- Node2 -->
<g id="node2" class="node"><title>Node2</title>
<g id="a_node2"><a xlink:href="classMatch.html#a989ae28b68842fc096ee6edb8c1595fd" target="_top" xlink:title="Match::print">
<polygon fill="white" stroke="black" points="130.632,-0.5 130.632,-22.9 206.622,-22.9 206.622,-0.5 130.632,-0.5"/>
<text text-anchor="middle" x="168.627" y="-8.1" font-family="-adobe-utopia-medium-i-normal--0-0-0-0-p-0-iso10646-1" font-size="12.00">Match::print</text>
</a>
</g>
</g>
<!-- Node1&#45;&gt;Node2 -->
<g id="edge1" class="edge"><title>Node1&#45;&gt;Node2</title>
<path fill="none" stroke="midnightblue" d="M104.851,-11.7C113.497,-11.7 122.23,-11.7 130.321,-11.7"/>
<polygon fill="midnightblue" stroke="midnightblue" points="104.787,-8.2001 94.7865,-11.7 104.786,-15.2001 104.787,-8.2001"/>
</g>
</g>
</svg>
