<?xml version="1.0" encoding="UTF-8" standalone="no"?>
<!DOCTYPE svg PUBLIC "-//W3C//DTD SVG 1.1//EN"
 "http://www.w3.org/Graphics/SVG/1.1/DTD/svg11.dtd">
<!-- Generated by graphviz version 2.38.0 (20140413.2041)
 -->
<!-- Title: HMIndividualsExtractor Pages: 1 -->
<svg width="536pt" height="296pt"
 viewBox="0.00 0.00 535.86 296.00" xmlns="http://www.w3.org/2000/svg" xmlns:xlink="http://www.w3.org/1999/xlink">
<g id="graph0" class="graph" transform="scale(1 1) rotate(0) translate(4 292)">
<title>HMIndividualsExtractor</title>
<polygon fill="white" stroke="none" points="-4,4 -4,-292 531.858,-292 531.858,4 -4,4"/>
<!-- Node1 -->
<g id="node1" class="node"><title>Node1</title>
<polygon fill="#bfbfbf" stroke="black" points="232.9,-0.5 232.9,-22.9 366.866,-22.9 366.866,-0.5 232.9,-0.5"/>
<text text-anchor="middle" x="299.883" y="-8.1" font-family="-adobe-utopia-medium-i-normal--0-0-0-0-p-0-iso10646-1" font-size="12.00">HMIndividualsExtractor</text>
</g>
<!-- Node2 -->
<g id="node2" class="node"><title>Node2</title>
<g id="a_node2"><a xlink:href="classPolymorphicIndividualsExtractor.html" target="_top" xlink:title="PolymorphicIndividualsExtractor">
<polygon fill="white" stroke="black" points="83.5663,-103.1 83.5663,-125.5 260.2,-125.5 260.2,-103.1 83.5663,-103.1"/>
<text text-anchor="middle" x="171.883" y="-110.7" font-family="-adobe-utopia-medium-i-normal--0-0-0-0-p-0-iso10646-1" font-size="12.00">PolymorphicIndividualsExtractor</text>
</a>
</g>
</g>
<!-- Node2&#45;&gt;Node1 -->
<g id="edge1" class="edge"><title>Node2&#45;&gt;Node1</title>
<path fill="none" stroke="midnightblue" d="M193.028,-96.6813C219.578,-75.8146 264.333,-40.64 286.547,-23.1813"/>
<polygon fill="midnightblue" stroke="midnightblue" points="190.799,-93.9818 185.099,-102.913 195.124,-99.4854 190.799,-93.9818"/>
</g>
<!-- Node3 -->
<g id="node3" class="node"><title>Node3</title>
<polygon fill="white" stroke="#bfbfbf" points="8.38292,-191.3 8.38292,-213.7 37.3829,-213.7 37.3829,-191.3 8.38292,-191.3"/>
<text text-anchor="middle" x="22.7177" y="-198.9" font-family="-adobe-utopia-medium-i-normal--0-0-0-0-p-0-iso10646-1" font-size="12.00">int</text>
</g>
<!-- Node3&#45;&gt;Node1 -->
<g id="edge11" class="edge"><title>Node3&#45;&gt;Node1</title>
<path fill="none" stroke="#9a32cd" stroke-dasharray="5,2" d="M12.6459,-181.918C2.95958,-160.373 -7.77643,-125.737 9.25372,-102.6 36.5706,-65.4883 161.683,-37.1997 238.576,-22.9492"/>
<polygon fill="#9a32cd" stroke="#9a32cd" points="9.56199,-183.581 17.0545,-191.072 15.8687,-180.544 9.56199,-183.581"/>
<text text-anchor="middle" x="42.6975" y="-110.7" font-family="-adobe-utopia-medium-i-normal--0-0-0-0-p-0-iso10646-1" font-size="12.00"> offset_buffer</text>
</g>
<!-- Node3&#45;&gt;Node2 -->
<g id="edge2" class="edge"><title>Node3&#45;&gt;Node2</title>
<path fill="none" stroke="#9a32cd" stroke-dasharray="5,2" d="M34.2197,-182.064C42.5111,-169.474 54.8572,-153.676 69.5921,-144 82.2345,-135.698 97.2728,-129.77 111.875,-125.547"/>
<polygon fill="#9a32cd" stroke="#9a32cd" points="31.0227,-180.576 28.6971,-190.912 36.961,-184.282 31.0227,-180.576"/>
<text text-anchor="middle" x="116.028" y="-154.8" font-family="-adobe-utopia-medium-i-normal--0-0-0-0-p-0-iso10646-1" font-size="12.00"> numberOfMarkers</text>
</g>
<!-- Node4 -->
<g id="node4" class="node"><title>Node4</title>
<polygon fill="white" stroke="#bfbfbf" points="147.216,-191.3 147.216,-213.7 184.55,-213.7 184.55,-191.3 147.216,-191.3"/>
<text text-anchor="middle" x="165.883" y="-198.9" font-family="-adobe-utopia-medium-i-normal--0-0-0-0-p-0-iso10646-1" font-size="12.00">bool</text>
</g>
<!-- Node4&#45;&gt;Node2 -->
<g id="edge3" class="edge"><title>Node4&#45;&gt;Node2</title>
<path fill="none" stroke="#9a32cd" stroke-dasharray="5,2" d="M165.681,-181.024C165.745,-170.027 166.099,-156.25 167.23,-144 167.796,-137.868 168.88,-131.062 169.858,-125.618"/>
<polygon fill="#9a32cd" stroke="#9a32cd" points="162.182,-181.303 165.7,-191.297 169.182,-181.29 162.182,-181.303"/>
<text text-anchor="middle" x="193.709" y="-162" font-family="-adobe-utopia-medium-i-normal--0-0-0-0-p-0-iso10646-1" font-size="12.00"> valid_flag</text>
<text text-anchor="middle" x="193.709" y="-147.6" font-family="-adobe-utopia-medium-i-normal--0-0-0-0-p-0-iso10646-1" font-size="12.00">phased</text>
</g>
<!-- Node5 -->
<g id="node5" class="node"><title>Node5</title>
<g id="a_node5"><a xlink:href="classIndividuals.html" target="_top" xlink:title="Individuals">
<polygon fill="white" stroke="black" points="205.887,-191.3 205.887,-213.7 275.879,-213.7 275.879,-191.3 205.887,-191.3"/>
<text text-anchor="middle" x="240.883" y="-198.9" font-family="-adobe-utopia-medium-i-normal--0-0-0-0-p-0-iso10646-1" font-size="12.00">Individuals</text>
</a>
</g>
</g>
<!-- Node5&#45;&gt;Node2 -->
<g id="edge4" class="edge"><title>Node5&#45;&gt;Node2</title>
<path fill="none" stroke="#9a32cd" stroke-dasharray="5,2" d="M236.612,-181.229C233.318,-169.377 227.781,-154.694 218.883,-144 212.523,-136.357 203.574,-130.187 195.189,-125.555"/>
<polygon fill="#9a32cd" stroke="#9a32cd" points="233.256,-182.243 239.037,-191.121 240.055,-180.575 233.256,-182.243"/>
<text text-anchor="middle" x="265.385" y="-154.8" font-family="-adobe-utopia-medium-i-normal--0-0-0-0-p-0-iso10646-1" font-size="12.00"> individualsP</text>
</g>
<!-- Node6 -->
<g id="node6" class="node"><title>Node6</title>
<polygon fill="white" stroke="#bfbfbf" points="76.9615,-265.1 76.9615,-287.5 200.804,-287.5 200.804,-265.1 76.9615,-265.1"/>
<text text-anchor="middle" x="138.883" y="-272.7" font-family="-adobe-utopia-medium-i-normal--0-0-0-0-p-0-iso10646-1" font-size="12.00">vector&lt; Individual * &gt;</text>
</g>
<!-- Node6&#45;&gt;Node5 -->
<g id="edge5" class="edge"><title>Node6&#45;&gt;Node5</title>
<path fill="none" stroke="#9a32cd" stroke-dasharray="5,2" d="M158.574,-258.392C168.513,-250.146 180.908,-240.288 192.573,-232.2 202.033,-225.641 213.036,-219.031 222.15,-213.81"/>
<polygon fill="#9a32cd" stroke="#9a32cd" points="156.276,-255.751 150.874,-264.865 160.781,-261.11 156.276,-255.751"/>
<text text-anchor="middle" x="215.038" y="-235.8" font-family="-adobe-utopia-medium-i-normal--0-0-0-0-p-0-iso10646-1" font-size="12.00"> pedigree</text>
</g>
<!-- Node7 -->
<g id="node7" class="node"><title>Node7</title>
<polygon fill="white" stroke="#bfbfbf" points="218.888,-265.1 218.888,-287.5 262.878,-287.5 262.878,-265.1 218.888,-265.1"/>
<text text-anchor="middle" x="240.883" y="-272.7" font-family="-adobe-utopia-medium-i-normal--0-0-0-0-p-0-iso10646-1" font-size="12.00">size_t</text>
</g>
<!-- Node7&#45;&gt;Node5 -->
<g id="edge6" class="edge"><title>Node7&#45;&gt;Node5</title>
<path fill="none" stroke="#9a32cd" stroke-dasharray="5,2" d="M240.883,-254.792C240.883,-241.377 240.883,-224.424 240.883,-213.768"/>
<polygon fill="#9a32cd" stroke="#9a32cd" points="237.383,-255.013 240.883,-265.013 244.383,-255.013 237.383,-255.013"/>
<text text-anchor="middle" x="250.379" y="-235.8" font-family="-adobe-utopia-medium-i-normal--0-0-0-0-p-0-iso10646-1" font-size="12.00"> iter</text>
</g>
<!-- Node8 -->
<g id="node8" class="node"><title>Node8</title>
<polygon fill="white" stroke="#bfbfbf" points="281.216,-265.1 281.216,-287.5 318.55,-287.5 318.55,-265.1 281.216,-265.1"/>
<text text-anchor="middle" x="299.883" y="-272.7" font-family="-adobe-utopia-medium-i-normal--0-0-0-0-p-0-iso10646-1" font-size="12.00">long</text>
</g>
<!-- Node8&#45;&gt;Node5 -->
<g id="edge7" class="edge"><title>Node8&#45;&gt;Node5</title>
<path fill="none" stroke="#9a32cd" stroke-dasharray="5,2" d="M284.982,-257.166C273.697,-243.434 258.602,-225.063 249.321,-213.768"/>
<polygon fill="#9a32cd" stroke="#9a32cd" points="282.377,-259.509 291.43,-265.013 287.785,-255.065 282.377,-259.509"/>
<text text-anchor="middle" x="286.381" y="-235.8" font-family="-adobe-utopia-medium-i-normal--0-0-0-0-p-0-iso10646-1" font-size="12.00"> sets</text>
</g>
<!-- Node9 -->
<g id="node9" class="node"><title>Node9</title>
<polygon fill="white" stroke="#bfbfbf" points="278.217,-103.1 278.217,-125.5 321.549,-125.5 321.549,-103.1 278.217,-103.1"/>
<text text-anchor="middle" x="299.883" y="-110.7" font-family="-adobe-utopia-medium-i-normal--0-0-0-0-p-0-iso10646-1" font-size="12.00">string</text>
</g>
<!-- Node9&#45;&gt;Node1 -->
<g id="edge8" class="edge"><title>Node9&#45;&gt;Node1</title>
<path fill="none" stroke="#9a32cd" stroke-dasharray="5,2" d="M299.883,-92.7369C299.883,-71.616 299.883,-39.5819 299.883,-23.1813"/>
<polygon fill="#9a32cd" stroke="#9a32cd" points="296.383,-92.9129 299.883,-102.913 303.383,-92.913 296.383,-92.9129"/>
<text text-anchor="middle" x="327.376" y="-73.8" font-family="-adobe-utopia-medium-i-normal--0-0-0-0-p-0-iso10646-1" font-size="12.00"> fileSample</text>
<text text-anchor="middle" x="327.376" y="-59.4" font-family="-adobe-utopia-medium-i-normal--0-0-0-0-p-0-iso10646-1" font-size="12.00">filePhased</text>
<text text-anchor="middle" x="327.376" y="-45" font-family="-adobe-utopia-medium-i-normal--0-0-0-0-p-0-iso10646-1" font-size="12.00">fileLegend</text>
</g>
<!-- Node10 -->
<g id="node10" class="node"><title>Node10</title>
<g id="a_node10"><a xlink:href="classNucleotideMap.html" target="_top" xlink:title="NucleotideMap">
<polygon fill="white" stroke="black" points="339.562,-103.1 339.562,-125.5 430.204,-125.5 430.204,-103.1 339.562,-103.1"/>
<text text-anchor="middle" x="384.883" y="-110.7" font-family="-adobe-utopia-medium-i-normal--0-0-0-0-p-0-iso10646-1" font-size="12.00">NucleotideMap</text>
</a>
</g>
</g>
<!-- Node10&#45;&gt;Node1 -->
<g id="edge9" class="edge"><title>Node10&#45;&gt;Node1</title>
<path fill="none" stroke="#9a32cd" stroke-dasharray="5,2" d="M381.762,-92.7506C378.445,-77.0655 371.812,-55.7739 358.883,-41.4 351.646,-33.3546 341.656,-27.3281 331.952,-22.93"/>
<polygon fill="#9a32cd" stroke="#9a32cd" points="378.394,-93.7929 383.633,-103.002 385.28,-92.5358 378.394,-93.7929"/>
<text text-anchor="middle" x="389.05" y="-59.4" font-family="-adobe-utopia-medium-i-normal--0-0-0-0-p-0-iso10646-1" font-size="12.00"> inp</text>
</g>
<!-- Node11 -->
<g id="node11" class="node"><title>Node11</title>
<polygon fill="white" stroke="#bfbfbf" points="448.226,-103.1 448.226,-125.5 503.54,-125.5 503.54,-103.1 448.226,-103.1"/>
<text text-anchor="middle" x="475.883" y="-110.7" font-family="-adobe-utopia-medium-i-normal--0-0-0-0-p-0-iso10646-1" font-size="12.00">ifstream</text>
</g>
<!-- Node11&#45;&gt;Node1 -->
<g id="edge10" class="edge"><title>Node11&#45;&gt;Node1</title>
<path fill="none" stroke="#9a32cd" stroke-dasharray="5,2" d="M461.871,-95.2916C448.232,-78.947 426.071,-55.3342 401.883,-41.4 387.696,-33.2273 371.045,-27.2684 355.359,-22.9718"/>
<polygon fill="#9a32cd" stroke="#9a32cd" points="459.175,-97.5238 468.192,-103.087 464.612,-93.1148 459.175,-97.5238"/>
<text text-anchor="middle" x="490.37" y="-66.6" font-family="-adobe-utopia-medium-i-normal--0-0-0-0-p-0-iso10646-1" font-size="12.00"> stream_sample</text>
<text text-anchor="middle" x="490.37" y="-52.2" font-family="-adobe-utopia-medium-i-normal--0-0-0-0-p-0-iso10646-1" font-size="12.00">stream_phased</text>
</g>
</g>
</svg>
