<?xml version="1.0" encoding="UTF-8" standalone="no"?>
<!DOCTYPE svg PUBLIC "-//W3C//DTD SVG 1.1//EN"
 "http://www.w3.org/Graphics/SVG/1.1/DTD/svg11.dtd">
<!-- Generated by graphviz version 2.38.0 (20140413.2041)
 -->
<!-- Title: Share::assertMatches Pages: 1 -->
<svg width="611pt" height="113pt"
 viewBox="0.00 0.00 611.20 113.40" xmlns="http://www.w3.org/2000/svg" xmlns:xlink="http://www.w3.org/1999/xlink">
<g id="graph0" class="graph" transform="scale(1 1) rotate(0) translate(4 109.4)">
<title>Share::assertMatches</title>
<polygon fill="white" stroke="none" points="-4,4 -4,-109.4 607.197,-109.4 607.197,4 -4,4"/>
<!-- Node1 -->
<g id="node1" class="node"><title>Node1</title>
<polygon fill="#bfbfbf" stroke="black" points="4.26326e-14,-61.5 4.26326e-14,-83.9 117.954,-83.9 117.954,-61.5 4.26326e-14,-61.5"/>
<text text-anchor="middle" x="58.9772" y="-69.1" font-family="-adobe-utopia-medium-i-normal--0-0-0-0-p-0-iso10646-1" font-size="12.00">Share::assertMatches</text>
</g>
<!-- Node2 -->
<g id="node2" class="node"><title>Node2</title>
<g id="a_node2"><a xlink:href="classShare.html#aae5758518d2b768426e42bfc084ef24a" target="_top" xlink:title="Share::createMatch">
<polygon fill="white" stroke="black" points="154.299,-82.5 154.299,-104.9 263.58,-104.9 263.58,-82.5 154.299,-82.5"/>
<text text-anchor="middle" x="208.939" y="-90.1" font-family="-adobe-utopia-medium-i-normal--0-0-0-0-p-0-iso10646-1" font-size="12.00">Share::createMatch</text>
</a>
</g>
</g>
<!-- Node1&#45;&gt;Node2 -->
<g id="edge1" class="edge"><title>Node1&#45;&gt;Node2</title>
<path fill="none" stroke="midnightblue" d="M118.031,-80.9395C126.527,-82.1453 135.317,-83.3929 143.924,-84.6144"/>
<polygon fill="midnightblue" stroke="midnightblue" points="143.522,-88.0924 153.915,-86.0324 144.506,-81.1618 143.522,-88.0924"/>
</g>
<!-- Node3 -->
<g id="node3" class="node"><title>Node3</title>
<g id="a_node3"><a xlink:href="classMatch.html#afb81327901b29b02ff117406cdec0a4e" target="_top" xlink:title="Match::extendBack">
<polygon fill="white" stroke="black" points="153.954,-41.5 153.954,-63.9 263.924,-63.9 263.924,-41.5 153.954,-41.5"/>
<text text-anchor="middle" x="208.939" y="-49.1" font-family="-adobe-utopia-medium-i-normal--0-0-0-0-p-0-iso10646-1" font-size="12.00">Match::extendBack</text>
</a>
</g>
</g>
<!-- Node1&#45;&gt;Node3 -->
<g id="edge2" class="edge"><title>Node1&#45;&gt;Node3</title>
<path fill="none" stroke="midnightblue" d="M118.031,-64.8529C126.527,-63.7045 135.317,-62.5163 143.924,-61.3529"/>
<polygon fill="midnightblue" stroke="midnightblue" points="144.474,-64.8105 153.915,-60.0025 143.536,-57.8736 144.474,-64.8105"/>
</g>
<!-- Node4 -->
<g id="node4" class="node"><title>Node4</title>
<g id="a_node4"><a xlink:href="classMatch.html#a7c47a9c7017d308d2ae58fac5a204179" target="_top" xlink:title="Match::approxEqual">
<polygon fill="white" stroke="black" points="299.924,-41.5 299.924,-63.9 414.563,-63.9 414.563,-41.5 299.924,-41.5"/>
<text text-anchor="middle" x="357.243" y="-49.1" font-family="-adobe-utopia-medium-i-normal--0-0-0-0-p-0-iso10646-1" font-size="12.00">Match::approxEqual</text>
</a>
</g>
</g>
<!-- Node3&#45;&gt;Node4 -->
<g id="edge3" class="edge"><title>Node3&#45;&gt;Node4</title>
<path fill="none" stroke="midnightblue" d="M264.002,-52.7C272.219,-52.7 280.782,-52.7 289.235,-52.7"/>
<polygon fill="midnightblue" stroke="midnightblue" points="289.461,-56.2001 299.461,-52.7 289.461,-49.2001 289.461,-56.2001"/>
</g>
<!-- Node5 -->
<g id="node5" class="node"><title>Node5</title>
<g id="a_node5"><a xlink:href="classIndividual.html#adab24d093d691c3e84bdce0b2d2f3a81" target="_top" xlink:title="Individual::getChromosome">
<polygon fill="white" stroke="black" points="451.221,-82.5 451.221,-104.9 602.539,-104.9 602.539,-82.5 451.221,-82.5"/>
<text text-anchor="middle" x="526.88" y="-90.1" font-family="-adobe-utopia-medium-i-normal--0-0-0-0-p-0-iso10646-1" font-size="12.00">Individual::getChromosome</text>
</a>
</g>
</g>
<!-- Node4&#45;&gt;Node5 -->
<g id="edge4" class="edge"><title>Node4&#45;&gt;Node5</title>
<path fill="none" stroke="midnightblue" d="M404.051,-63.9034C424.387,-68.8772 448.51,-74.7772 469.904,-80.0096"/>
<polygon fill="midnightblue" stroke="midnightblue" points="469.292,-83.4629 479.837,-82.4389 470.955,-76.6633 469.292,-83.4629"/>
</g>
<!-- Node6 -->
<g id="node6" class="node"><title>Node6</title>
<g id="a_node6"><a xlink:href="classMarkerSet.html#a4875bf7f161c77ff90c15936fee29ff0" target="_top" xlink:title="MarkerSet::getMarkerBits">
<polygon fill="white" stroke="black" points="455.569,-41.5 455.569,-63.9 598.191,-63.9 598.191,-41.5 455.569,-41.5"/>
<text text-anchor="middle" x="526.88" y="-49.1" font-family="-adobe-utopia-medium-i-normal--0-0-0-0-p-0-iso10646-1" font-size="12.00">MarkerSet::getMarkerBits</text>
</a>
</g>
</g>
<!-- Node4&#45;&gt;Node6 -->
<g id="edge5" class="edge"><title>Node4&#45;&gt;Node6</title>
<path fill="none" stroke="midnightblue" d="M414.998,-52.7C424.757,-52.7 435.065,-52.7 445.309,-52.7"/>
<polygon fill="midnightblue" stroke="midnightblue" points="445.508,-56.2001 455.508,-52.7 445.508,-49.2001 445.508,-56.2001"/>
</g>
<!-- Node7 -->
<g id="node7" class="node"><title>Node7</title>
<g id="a_node7"><a xlink:href="classChromosome.html#a6acf26d0b4a7e2651be613ea14c20a1b" target="_top" xlink:title="Chromosome::getMarkerSet">
<polygon fill="white" stroke="black" points="450.563,-0.5 450.563,-22.9 603.197,-22.9 603.197,-0.5 450.563,-0.5"/>
<text text-anchor="middle" x="526.88" y="-8.1" font-family="-adobe-utopia-medium-i-normal--0-0-0-0-p-0-iso10646-1" font-size="12.00">Chromosome::getMarkerSet</text>
</a>
</g>
</g>
<!-- Node4&#45;&gt;Node7 -->
<g id="edge6" class="edge"><title>Node4&#45;&gt;Node7</title>
<path fill="none" stroke="midnightblue" d="M404.051,-41.4966C424.387,-36.5228 448.51,-30.6228 469.904,-25.3904"/>
<polygon fill="midnightblue" stroke="midnightblue" points="470.955,-28.7367 479.837,-22.9611 469.292,-21.9371 470.955,-28.7367"/>
</g>
</g>
</svg>
