<?xml version="1.0" encoding="UTF-8" standalone="no"?>
<!DOCTYPE svg PUBLIC "-//W3C//DTD SVG 1.1//EN"
 "http://www.w3.org/Graphics/SVG/1.1/DTD/svg11.dtd">
<!-- Generated by graphviz version 2.38.0 (20140413.2041)
 -->
<!-- Title: MatchesBuilder::readHaploidMarkerSet Pages: 1 -->
<svg width="799pt" height="46pt"
 viewBox="0.00 0.00 799.17 45.80" xmlns="http://www.w3.org/2000/svg" xmlns:xlink="http://www.w3.org/1999/xlink">
<g id="graph0" class="graph" transform="scale(1 1) rotate(0) translate(4 41.8)">
<title>MatchesBuilder::readHaploidMarkerSet</title>
<polygon fill="white" stroke="none" points="-4,4 -4,-41.8 795.166,-41.8 795.166,4 -4,4"/>
<!-- Node1 -->
<g id="node1" class="node"><title>Node1</title>
<polygon fill="#bfbfbf" stroke="black" points="5.68434e-14,-0.5 5.68434e-14,-37.3 158.62,-37.3 158.62,-0.5 5.68434e-14,-0.5"/>
<text text-anchor="start" x="8" y="-22.5" font-family="-adobe-utopia-medium-i-normal--0-0-0-0-p-0-iso10646-1" font-size="12.00">MatchesBuilder::readHaploid</text>
<text text-anchor="middle" x="79.31" y="-8.1" font-family="-adobe-utopia-medium-i-normal--0-0-0-0-p-0-iso10646-1" font-size="12.00">MarkerSet</text>
</g>
<!-- Node2 -->
<g id="node2" class="node"><title>Node2</title>
<g id="a_node2"><a xlink:href="classMatchesBuilder.html#ad627b36445ae9df99c732b23c8b06547" target="_top" xlink:title="MatchesBuilder::readAllMarkers">
<polygon fill="white" stroke="black" points="194.62,-7.7 194.62,-30.1 369.89,-30.1 369.89,-7.7 194.62,-7.7"/>
<text text-anchor="middle" x="282.255" y="-15.3" font-family="-adobe-utopia-medium-i-normal--0-0-0-0-p-0-iso10646-1" font-size="12.00">MatchesBuilder::readAllMarkers</text>
</a>
</g>
</g>
<!-- Node1&#45;&gt;Node2 -->
<g id="edge1" class="edge"><title>Node1&#45;&gt;Node2</title>
<path fill="none" stroke="midnightblue" d="M169.07,-18.9C177.496,-18.9 186.033,-18.9 194.44,-18.9"/>
<polygon fill="midnightblue" stroke="midnightblue" points="168.864,-15.4001 158.864,-18.9 168.864,-22.4001 168.864,-15.4001"/>
</g>
<!-- Node3 -->
<g id="node3" class="node"><title>Node3</title>
<g id="a_node3"><a xlink:href="classMatchesBuilder.html#a31faf645700f38ac0d7d164b57cfebd1" target="_top" xlink:title="MatchesBuilder::buildMatches">
<polygon fill="white" stroke="black" points="405.89,-7.7 405.89,-30.1 570.521,-30.1 570.521,-7.7 405.89,-7.7"/>
<text text-anchor="middle" x="488.205" y="-15.3" font-family="-adobe-utopia-medium-i-normal--0-0-0-0-p-0-iso10646-1" font-size="12.00">MatchesBuilder::buildMatches</text>
</a>
</g>
</g>
<!-- Node2&#45;&gt;Node3 -->
<g id="edge2" class="edge"><title>Node2&#45;&gt;Node3</title>
<path fill="none" stroke="midnightblue" d="M380.067,-18.9C388.636,-18.9 397.254,-18.9 405.678,-18.9"/>
<polygon fill="midnightblue" stroke="midnightblue" points="380.044,-15.4001 370.044,-18.9 380.044,-22.4001 380.044,-15.4001"/>
</g>
<!-- Node4 -->
<g id="node4" class="node"><title>Node4</title>
<g id="a_node4"><a xlink:href="classGERMLINE.html#a7912aa3108f42f42e06c615b460d0565" target="_top" xlink:title="GERMLINE::mine">
<polygon fill="white" stroke="black" points="606.521,-7.7 606.521,-30.1 715.169,-30.1 715.169,-7.7 606.521,-7.7"/>
<text text-anchor="middle" x="660.845" y="-15.3" font-family="-adobe-utopia-medium-i-normal--0-0-0-0-p-0-iso10646-1" font-size="12.00">GERMLINE::mine</text>
</a>
</g>
</g>
<!-- Node3&#45;&gt;Node4 -->
<g id="edge3" class="edge"><title>Node3&#45;&gt;Node4</title>
<path fill="none" stroke="midnightblue" d="M580.53,-18.9C589.376,-18.9 598.134,-18.9 606.424,-18.9"/>
<polygon fill="midnightblue" stroke="midnightblue" points="580.527,-15.4001 570.527,-18.9 580.527,-22.4001 580.527,-15.4001"/>
</g>
<!-- Node5 -->
<g id="node5" class="node"><title>Node5</title>
<g id="a_node5"><a xlink:href="GERMLINE__0001_8cpp.html#a0ddf1224851353fc92bfbff6f499fa97" target="_top" xlink:title="main">
<polygon fill="white" stroke="black" points="751.169,-7.7 751.169,-30.1 791.166,-30.1 791.166,-7.7 751.169,-7.7"/>
<text text-anchor="middle" x="771.167" y="-15.3" font-family="-adobe-utopia-medium-i-normal--0-0-0-0-p-0-iso10646-1" font-size="12.00">main</text>
</a>
</g>
</g>
<!-- Node4&#45;&gt;Node5 -->
<g id="edge4" class="edge"><title>Node4&#45;&gt;Node5</title>
<path fill="none" stroke="midnightblue" d="M725.522,-18.9C734.787,-18.9 743.668,-18.9 751.035,-18.9"/>
<polygon fill="midnightblue" stroke="midnightblue" points="725.372,-15.4001 715.372,-18.9 725.371,-22.4001 725.372,-15.4001"/>
</g>
</g>
</svg>
