<?xml version="1.0" encoding="UTF-8" standalone="no"?>
<!DOCTYPE svg PUBLIC "-//W3C//DTD SVG 1.1//EN"
 "http://www.w3.org/Graphics/SVG/1.1/DTD/svg11.dtd">
<!-- Generated by graphviz version 2.38.0 (20140413.2041)
 -->
<!-- Title: HMIndividualsExtractor::getCompleteMarkerSet Pages: 1 -->
<svg width="319pt" height="72pt"
 viewBox="0.00 0.00 318.60 72.40" xmlns="http://www.w3.org/2000/svg" xmlns:xlink="http://www.w3.org/1999/xlink">
<g id="graph0" class="graph" transform="scale(1 1) rotate(0) translate(4 68.4)">
<title>HMIndividualsExtractor::getCompleteMarkerSet</title>
<polygon fill="white" stroke="none" points="-4,4 -4,-68.4 314.599,-68.4 314.599,4 -4,4"/>
<!-- Node1 -->
<g id="node1" class="node"><title>Node1</title>
<polygon fill="#bfbfbf" stroke="black" points="2.84217e-14,-13.3 2.84217e-14,-50.1 134.634,-50.1 134.634,-13.3 2.84217e-14,-13.3"/>
<text text-anchor="start" x="8" y="-35.3" font-family="-adobe-utopia-medium-i-normal--0-0-0-0-p-0-iso10646-1" font-size="12.00">HMIndividualsExtractor</text>
<text text-anchor="middle" x="67.3172" y="-20.9" font-family="-adobe-utopia-medium-i-normal--0-0-0-0-p-0-iso10646-1" font-size="12.00">::getCompleteMarkerSet</text>
</g>
<!-- Node2 -->
<g id="node2" class="node"><title>Node2</title>
<g id="a_node2"><a xlink:href="classIndividual.html#af7f3a1e23fcb643c40b8a925c20c367b" target="_top" xlink:title="Individual::addMarkerSet">
<polygon fill="white" stroke="black" points="170.634,-41.5 170.634,-63.9 310.599,-63.9 310.599,-41.5 170.634,-41.5"/>
<text text-anchor="middle" x="240.617" y="-49.1" font-family="-adobe-utopia-medium-i-normal--0-0-0-0-p-0-iso10646-1" font-size="12.00">Individual::addMarkerSet</text>
</a>
</g>
</g>
<!-- Node1&#45;&gt;Node2 -->
<g id="edge1" class="edge"><title>Node1&#45;&gt;Node2</title>
<path fill="none" stroke="midnightblue" d="M135.037,-39.8793C143.409,-40.9057 152.036,-41.9632 160.574,-43.01"/>
<polygon fill="midnightblue" stroke="midnightblue" points="160.185,-46.4884 170.537,-44.2313 161.037,-39.5404 160.185,-46.4884"/>
</g>
<!-- Node3 -->
<g id="node3" class="node"><title>Node3</title>
<g id="a_node3"><a xlink:href="classIndividual.html#a4932af57f66adb254dcb53eef679d9d2" target="_top" xlink:title="Individual::getOffset">
<polygon fill="white" stroke="black" points="182.298,-0.5 182.298,-22.9 298.936,-22.9 298.936,-0.5 182.298,-0.5"/>
<text text-anchor="middle" x="240.617" y="-8.1" font-family="-adobe-utopia-medium-i-normal--0-0-0-0-p-0-iso10646-1" font-size="12.00">Individual::getOffset</text>
</a>
</g>
</g>
<!-- Node1&#45;&gt;Node3 -->
<g id="edge2" class="edge"><title>Node1&#45;&gt;Node3</title>
<path fill="none" stroke="midnightblue" d="M135.037,-23.9102C147.22,-22.4878 159.941,-21.0026 172.145,-19.5776"/>
<polygon fill="midnightblue" stroke="midnightblue" points="172.726,-23.0337 182.253,-18.3975 171.914,-16.0809 172.726,-23.0337"/>
</g>
</g>
</svg>
