<?xml version="1.0" encoding="UTF-8" standalone="no"?>
<!DOCTYPE svg PUBLIC "-//W3C//DTD SVG 1.1//EN"
 "http://www.w3.org/Graphics/SVG/1.1/DTD/svg11.dtd">
<!-- Generated by graphviz version 2.38.0 (20140413.2041)
 -->
<!-- Title: Individual::getID Pages: 1 -->
<svg width="219pt" height="72pt"
 viewBox="0.00 0.00 219.30 72.40" xmlns="http://www.w3.org/2000/svg" xmlns:xlink="http://www.w3.org/1999/xlink">
<g id="graph0" class="graph" transform="scale(1 1) rotate(0) translate(4 68.4)">
<title>Individual::getID</title>
<polygon fill="white" stroke="none" points="-4,4 -4,-68.4 215.304,-68.4 215.304,4 -4,4"/>
<!-- Node1 -->
<g id="node1" class="node"><title>Node1</title>
<polygon fill="#bfbfbf" stroke="black" points="0,-20.5 0,-42.9 99.3148,-42.9 99.3148,-20.5 0,-20.5"/>
<text text-anchor="middle" x="49.6574" y="-28.1" font-family="-adobe-utopia-medium-i-normal--0-0-0-0-p-0-iso10646-1" font-size="12.00">Individual::getID</text>
</g>
<!-- Node2 -->
<g id="node2" class="node"><title>Node2</title>
<g id="a_node2"><a xlink:href="Individual_8h.html#a51c3dd4bb7a3668c4dd06c743bd629ff" target="_top" xlink:title="operator\&lt;\&lt;">
<polygon fill="white" stroke="black" points="138.554,-41.5 138.554,-63.9 208.065,-63.9 208.065,-41.5 138.554,-41.5"/>
<text text-anchor="middle" x="173.309" y="-49.1" font-family="-adobe-utopia-medium-i-normal--0-0-0-0-p-0-iso10646-1" font-size="12.00">operator&lt;&lt;</text>
</a>
</g>
</g>
<!-- Node1&#45;&gt;Node2 -->
<g id="edge1" class="edge"><title>Node1&#45;&gt;Node2</title>
<path fill="none" stroke="midnightblue" d="M109.359,-41.8332C119.346,-43.5572 129.409,-45.2944 138.471,-46.8586"/>
<polygon fill="midnightblue" stroke="midnightblue" points="109.887,-38.3727 99.437,-40.1205 108.696,-45.2707 109.887,-38.3727"/>
</g>
<!-- Node3 -->
<g id="node3" class="node"><title>Node3</title>
<g id="a_node3"><a xlink:href="classMatch.html#a989ae28b68842fc096ee6edb8c1595fd" target="_top" xlink:title="Match::print">
<polygon fill="white" stroke="black" points="135.315,-0.5 135.315,-22.9 211.304,-22.9 211.304,-0.5 135.315,-0.5"/>
<text text-anchor="middle" x="173.309" y="-8.1" font-family="-adobe-utopia-medium-i-normal--0-0-0-0-p-0-iso10646-1" font-size="12.00">Match::print</text>
</a>
</g>
</g>
<!-- Node1&#45;&gt;Node3 -->
<g id="edge2" class="edge"><title>Node1&#45;&gt;Node3</title>
<path fill="none" stroke="midnightblue" d="M109.586,-22.012C118.287,-20.5814 127.041,-19.1423 135.133,-17.8119"/>
<polygon fill="midnightblue" stroke="midnightblue" points="108.737,-18.6045 99.437,-23.6805 109.872,-25.5118 108.737,-18.6045"/>
</g>
</g>
</svg>
