<?xml version="1.0" encoding="UTF-8" standalone="no"?>
<!DOCTYPE svg PUBLIC "-//W3C//DTD SVG 1.1//EN"
 "http://www.w3.org/Graphics/SVG/1.1/DTD/svg11.dtd">
<!-- Generated by graphviz version 2.38.0 (20140413.2041)
 -->
<!-- Title: Match::assertLength Pages: 1 -->
<svg width="265pt" height="31pt"
 viewBox="0.00 0.00 264.62 31.40" xmlns="http://www.w3.org/2000/svg" xmlns:xlink="http://www.w3.org/1999/xlink">
<g id="graph0" class="graph" transform="scale(1 1) rotate(0) translate(4 27.4)">
<title>Match::assertLength</title>
<polygon fill="white" stroke="none" points="-4,4 -4,-27.4 260.616,-27.4 260.616,4 -4,4"/>
<!-- Node1 -->
<g id="node1" class="node"><title>Node1</title>
<polygon fill="#bfbfbf" stroke="black" points="7.10543e-15,-0.5 7.10543e-15,-22.9 114.634,-22.9 114.634,-0.5 7.10543e-15,-0.5"/>
<text text-anchor="middle" x="57.317" y="-8.1" font-family="-adobe-utopia-medium-i-normal--0-0-0-0-p-0-iso10646-1" font-size="12.00">Match::assertLength</text>
</g>
<!-- Node2 -->
<g id="node2" class="node"><title>Node2</title>
<g id="a_node2"><a xlink:href="classSNPs.html#ade6928b76d711b107ac9fa36b8b95794" target="_top" xlink:title="SNPs::getDistance">
<polygon fill="white" stroke="black" points="150.634,-0.5 150.634,-22.9 256.616,-22.9 256.616,-0.5 150.634,-0.5"/>
<text text-anchor="middle" x="203.625" y="-8.1" font-family="-adobe-utopia-medium-i-normal--0-0-0-0-p-0-iso10646-1" font-size="12.00">SNPs::getDistance</text>
</a>
</g>
</g>
<!-- Node1&#45;&gt;Node2 -->
<g id="edge1" class="edge"><title>Node1&#45;&gt;Node2</title>
<path fill="none" stroke="midnightblue" d="M114.937,-11.7C123.245,-11.7 131.842,-11.7 140.258,-11.7"/>
<polygon fill="midnightblue" stroke="midnightblue" points="140.402,-15.2001 150.402,-11.7 140.402,-8.2001 140.402,-15.2001"/>
</g>
</g>
</svg>
