<?xml version="1.0" encoding="UTF-8" standalone="no"?>
<!DOCTYPE svg PUBLIC "-//W3C//DTD SVG 1.1//EN"
 "http://www.w3.org/Graphics/SVG/1.1/DTD/svg11.dtd">
<!-- Generated by graphviz version 2.38.0 (20140413.2041)
 -->
<!-- Title: PEDIndividualsExtractor::getIndividuals Pages: 1 -->
<svg width="297pt" height="72pt"
 viewBox="0.00 0.00 296.61 72.40" xmlns="http://www.w3.org/2000/svg" xmlns:xlink="http://www.w3.org/1999/xlink">
<g id="graph0" class="graph" transform="scale(1 1) rotate(0) translate(4 68.4)">
<title>PEDIndividualsExtractor::getIndividuals</title>
<polygon fill="white" stroke="none" points="-4,4 -4,-68.4 292.606,-68.4 292.606,4 -4,4"/>
<!-- Node1 -->
<g id="node1" class="node"><title>Node1</title>
<polygon fill="#bfbfbf" stroke="black" points="0,-13.3 0,-50.1 137.301,-50.1 137.301,-13.3 0,-13.3"/>
<text text-anchor="start" x="8" y="-35.3" font-family="-adobe-utopia-medium-i-normal--0-0-0-0-p-0-iso10646-1" font-size="12.00">PEDIndividualsExtractor</text>
<text text-anchor="middle" x="68.6504" y="-20.9" font-family="-adobe-utopia-medium-i-normal--0-0-0-0-p-0-iso10646-1" font-size="12.00">::getIndividuals</text>
</g>
<!-- Node2 -->
<g id="node2" class="node"><title>Node2</title>
<g id="a_node2"><a xlink:href="classIndividual.html#a959becb7f3282af81a3a6cb695bc6414" target="_top" xlink:title="Individual::setID">
<polygon fill="white" stroke="black" points="181.962,-41.5 181.962,-63.9 279.944,-63.9 279.944,-41.5 181.962,-41.5"/>
<text text-anchor="middle" x="230.953" y="-49.1" font-family="-adobe-utopia-medium-i-normal--0-0-0-0-p-0-iso10646-1" font-size="12.00">Individual::setID</text>
</a>
</g>
</g>
<!-- Node1&#45;&gt;Node2 -->
<g id="edge1" class="edge"><title>Node1&#45;&gt;Node2</title>
<path fill="none" stroke="midnightblue" d="M137.633,-40.6059C149.001,-42.0951 160.704,-43.6281 171.797,-45.0814"/>
<polygon fill="midnightblue" stroke="midnightblue" points="171.416,-48.5613 181.786,-46.39 172.325,-41.6206 171.416,-48.5613"/>
</g>
<!-- Node3 -->
<g id="node3" class="node"><title>Node3</title>
<g id="a_node3"><a xlink:href="classIndividual.html#a87bc5ec4228b8de951d8b1b269df2a62" target="_top" xlink:title="Individual::setOffset">
<polygon fill="white" stroke="black" points="173.301,-0.5 173.301,-22.9 288.606,-22.9 288.606,-0.5 173.301,-0.5"/>
<text text-anchor="middle" x="230.953" y="-8.1" font-family="-adobe-utopia-medium-i-normal--0-0-0-0-p-0-iso10646-1" font-size="12.00">Individual::setOffset</text>
</a>
</g>
</g>
<!-- Node1&#45;&gt;Node3 -->
<g id="edge2" class="edge"><title>Node1&#45;&gt;Node3</title>
<path fill="none" stroke="midnightblue" d="M137.633,-23.2182C146.005,-22.1737 154.559,-21.1065 162.916,-20.0638"/>
<polygon fill="midnightblue" stroke="midnightblue" points="163.499,-23.5183 172.989,-18.8071 162.632,-16.5722 163.499,-23.5183"/>
</g>
</g>
</svg>
