<?xml version="1.0" encoding="UTF-8" standalone="no"?>
<!DOCTYPE svg PUBLIC "-//W3C//DTD SVG 1.1//EN"
 "http://www.w3.org/Graphics/SVG/1.1/DTD/svg11.dtd">
<!-- Generated by graphviz version 2.38.0 (20140413.2041)
 -->
<!-- Title: Share::add Pages: 1 -->
<svg width="189pt" height="31pt"
 viewBox="0.00 0.00 188.62 31.40" xmlns="http://www.w3.org/2000/svg" xmlns:xlink="http://www.w3.org/1999/xlink">
<g id="graph0" class="graph" transform="scale(1 1) rotate(0) translate(4 27.4)">
<title>Share::add</title>
<polygon fill="white" stroke="none" points="-4,4 -4,-27.4 184.624,-27.4 184.624,4 -4,4"/>
<!-- Node1 -->
<g id="node1" class="node"><title>Node1</title>
<polygon fill="#bfbfbf" stroke="black" points="1.42109e-14,-0.5 1.42109e-14,-22.9 67.3156,-22.9 67.3156,-0.5 1.42109e-14,-0.5"/>
<text text-anchor="middle" x="33.6578" y="-8.1" font-family="-adobe-utopia-medium-i-normal--0-0-0-0-p-0-iso10646-1" font-size="12.00">Share::add</text>
</g>
<!-- Node2 -->
<g id="node2" class="node"><title>Node2</title>
<g id="a_node2"><a xlink:href="classShare.html#a05a8590b6a6bf5195ebe726701a00d60" target="_top" xlink:title="Share::Share">
<polygon fill="white" stroke="black" points="103.316,-0.5 103.316,-22.9 180.624,-22.9 180.624,-0.5 103.316,-0.5"/>
<text text-anchor="middle" x="141.97" y="-8.1" font-family="-adobe-utopia-medium-i-normal--0-0-0-0-p-0-iso10646-1" font-size="12.00">Share::Share</text>
</a>
</g>
</g>
<!-- Node1&#45;&gt;Node2 -->
<g id="edge1" class="edge"><title>Node1&#45;&gt;Node2</title>
<path fill="none" stroke="midnightblue" d="M77.5675,-11.7C86.0837,-11.7 94.9646,-11.7 103.29,-11.7"/>
<polygon fill="midnightblue" stroke="midnightblue" points="77.4224,-8.2001 67.4223,-11.7 77.4223,-15.2001 77.4224,-8.2001"/>
</g>
</g>
</svg>
