<?xml version="1.0" encoding="UTF-8" standalone="no"?>
<!DOCTYPE svg PUBLIC "-//W3C//DTD SVG 1.1//EN"
 "http://www.w3.org/Graphics/SVG/1.1/DTD/svg11.dtd">
<!-- Generated by graphviz version 2.38.0 (20140413.2041)
 -->
<!-- Title: SNPs::setGeneticDistances Pages: 1 -->
<svg width="504pt" height="102pt"
 viewBox="0.00 0.00 503.90 101.80" xmlns="http://www.w3.org/2000/svg" xmlns:xlink="http://www.w3.org/1999/xlink">
<g id="graph0" class="graph" transform="scale(1 1) rotate(0) translate(4 97.8)">
<title>SNPs::setGeneticDistances</title>
<polygon fill="white" stroke="none" points="-4,4 -4,-97.8 499.904,-97.8 499.904,4 -4,4"/>
<!-- Node1 -->
<g id="node1" class="node"><title>Node1</title>
<polygon fill="#bfbfbf" stroke="black" points="4.26326e-14,-36.7 4.26326e-14,-59.1 146.628,-59.1 146.628,-36.7 4.26326e-14,-36.7"/>
<text text-anchor="middle" x="73.3142" y="-44.3" font-family="-adobe-utopia-medium-i-normal--0-0-0-0-p-0-iso10646-1" font-size="12.00">SNPs::setGeneticDistances</text>
</g>
<!-- Node2 -->
<g id="node2" class="node"><title>Node2</title>
<g id="a_node2"><a xlink:href="classSNPs.html#a5ebf04c1e5d71710bd68af7a556864f9" target="_top" xlink:title="SNPs::processLegendFile">
<polygon fill="white" stroke="black" points="182.628,-59.7 182.628,-82.1 322.603,-82.1 322.603,-59.7 182.628,-59.7"/>
<text text-anchor="middle" x="252.616" y="-67.3" font-family="-adobe-utopia-medium-i-normal--0-0-0-0-p-0-iso10646-1" font-size="12.00">SNPs::processLegendFile</text>
</a>
</g>
</g>
<!-- Node1&#45;&gt;Node2 -->
<g id="edge1" class="edge"><title>Node1&#45;&gt;Node2</title>
<path fill="none" stroke="midnightblue" d="M156.779,-58.5976C165.426,-59.7192 174.151,-60.8511 182.624,-61.9502"/>
<polygon fill="midnightblue" stroke="midnightblue" points="157.052,-55.1038 146.685,-57.2882 156.152,-62.0456 157.052,-55.1038"/>
</g>
<!-- Node4 -->
<g id="node4" class="node"><title>Node4</title>
<g id="a_node4"><a xlink:href="classSNPs.html#a0f26b6fbd02cc5afd8d423b411d304e8" target="_top" xlink:title="SNPs::processMAPFile">
<polygon fill="white" stroke="black" points="187.62,-14.7 187.62,-37.1 317.611,-37.1 317.611,-14.7 187.62,-14.7"/>
<text text-anchor="middle" x="252.616" y="-22.3" font-family="-adobe-utopia-medium-i-normal--0-0-0-0-p-0-iso10646-1" font-size="12.00">SNPs::processMAPFile</text>
</a>
</g>
</g>
<!-- Node1&#45;&gt;Node4 -->
<g id="edge3" class="edge"><title>Node1&#45;&gt;Node4</title>
<path fill="none" stroke="midnightblue" d="M156.888,-37.654C167.149,-36.3809 177.518,-35.0943 187.443,-33.8627"/>
<polygon fill="midnightblue" stroke="midnightblue" points="156.178,-34.2152 146.685,-38.92 157.04,-41.1619 156.178,-34.2152"/>
</g>
<!-- Node3 -->
<g id="node3" class="node"><title>Node3</title>
<g id="a_node3"><a xlink:href="classHMIndividualsExtractor.html#af7aaa5ed222fd00cc2c36e69a01a3bb3" target="_top" xlink:title="HMIndividualsExtractor\l::loadInput">
<polygon fill="white" stroke="black" points="360.27,-56.5 360.27,-93.3 494.236,-93.3 494.236,-56.5 360.27,-56.5"/>
<text text-anchor="start" x="368.27" y="-78.5" font-family="-adobe-utopia-medium-i-normal--0-0-0-0-p-0-iso10646-1" font-size="12.00">HMIndividualsExtractor</text>
<text text-anchor="middle" x="427.253" y="-64.1" font-family="-adobe-utopia-medium-i-normal--0-0-0-0-p-0-iso10646-1" font-size="12.00">::loadInput</text>
</a>
</g>
</g>
<!-- Node2&#45;&gt;Node3 -->
<g id="edge2" class="edge"><title>Node2&#45;&gt;Node3</title>
<path fill="none" stroke="midnightblue" d="M333.006,-72.7395C342.069,-72.9495 351.234,-73.1618 360.099,-73.3672"/>
<polygon fill="midnightblue" stroke="midnightblue" points="332.918,-69.2366 322.839,-72.5039 332.755,-76.2347 332.918,-69.2366"/>
</g>
<!-- Node5 -->
<g id="node5" class="node"><title>Node5</title>
<g id="a_node5"><a xlink:href="classPEDIndividualsExtractor.html#aaaae7102f9e3db6f900b3d56f559dc91" target="_top" xlink:title="PEDIndividualsExtractor\l::loadInput">
<polygon fill="white" stroke="black" points="358.603,-0.5 358.603,-37.3 495.904,-37.3 495.904,-0.5 358.603,-0.5"/>
<text text-anchor="start" x="366.603" y="-22.5" font-family="-adobe-utopia-medium-i-normal--0-0-0-0-p-0-iso10646-1" font-size="12.00">PEDIndividualsExtractor</text>
<text text-anchor="middle" x="427.253" y="-8.1" font-family="-adobe-utopia-medium-i-normal--0-0-0-0-p-0-iso10646-1" font-size="12.00">::loadInput</text>
</a>
</g>
</g>
<!-- Node4&#45;&gt;Node5 -->
<g id="edge4" class="edge"><title>Node4&#45;&gt;Node5</title>
<path fill="none" stroke="midnightblue" d="M327.939,-22.8864C338.075,-22.4754 348.436,-22.0553 358.448,-21.6493"/>
<polygon fill="midnightblue" stroke="midnightblue" points="327.749,-19.3911 317.899,-23.2935 328.033,-26.3853 327.749,-19.3911"/>
</g>
</g>
</svg>
