<?xml version="1.0" encoding="UTF-8" standalone="no"?>
<!DOCTYPE svg PUBLIC "-//W3C//DTD SVG 1.1//EN"
 "http://www.w3.org/Graphics/SVG/1.1/DTD/svg11.dtd">
<!-- Generated by graphviz version 2.38.0 (20140413.2041)
 -->
<!-- Title: Match::isHom Pages: 1 -->
<svg width="282pt" height="113pt"
 viewBox="0.00 0.00 281.96 113.40" xmlns="http://www.w3.org/2000/svg" xmlns:xlink="http://www.w3.org/1999/xlink">
<g id="graph0" class="graph" transform="scale(1 1) rotate(0) translate(4 109.4)">
<title>Match::isHom</title>
<polygon fill="white" stroke="none" points="-4,4 -4,-109.4 277.958,-109.4 277.958,4 -4,4"/>
<!-- Node1 -->
<g id="node1" class="node"><title>Node1</title>
<polygon fill="#bfbfbf" stroke="black" points="1.42109e-14,-41.5 1.42109e-14,-63.9 85.324,-63.9 85.324,-41.5 1.42109e-14,-41.5"/>
<text text-anchor="middle" x="42.662" y="-49.1" font-family="-adobe-utopia-medium-i-normal--0-0-0-0-p-0-iso10646-1" font-size="12.00">Match::isHom</text>
</g>
<!-- Node2 -->
<g id="node2" class="node"><title>Node2</title>
<g id="a_node2"><a xlink:href="classIndividual.html#adab24d093d691c3e84bdce0b2d2f3a81" target="_top" xlink:title="Individual::getChromosome">
<polygon fill="white" stroke="black" points="121.982,-82.5 121.982,-104.9 273.3,-104.9 273.3,-82.5 121.982,-82.5"/>
<text text-anchor="middle" x="197.641" y="-90.1" font-family="-adobe-utopia-medium-i-normal--0-0-0-0-p-0-iso10646-1" font-size="12.00">Individual::getChromosome</text>
</a>
</g>
</g>
<!-- Node1&#45;&gt;Node2 -->
<g id="edge1" class="edge"><title>Node1&#45;&gt;Node2</title>
<path fill="none" stroke="midnightblue" d="M85.1664,-63.9602C96.8575,-67.1219 109.587,-70.5547 121.324,-73.7 128.767,-75.6944 136.625,-77.7913 144.347,-79.8464"/>
<polygon fill="midnightblue" stroke="midnightblue" points="143.449,-83.2291 154.012,-82.4162 145.247,-76.4641 143.449,-83.2291"/>
</g>
<!-- Node3 -->
<g id="node3" class="node"><title>Node3</title>
<g id="a_node3"><a xlink:href="classMarkerSet.html#a4875bf7f161c77ff90c15936fee29ff0" target="_top" xlink:title="MarkerSet::getMarkerBits">
<polygon fill="white" stroke="black" points="126.33,-41.5 126.33,-63.9 268.953,-63.9 268.953,-41.5 126.33,-41.5"/>
<text text-anchor="middle" x="197.641" y="-49.1" font-family="-adobe-utopia-medium-i-normal--0-0-0-0-p-0-iso10646-1" font-size="12.00">MarkerSet::getMarkerBits</text>
</a>
</g>
</g>
<!-- Node1&#45;&gt;Node3 -->
<g id="edge2" class="edge"><title>Node1&#45;&gt;Node3</title>
<path fill="none" stroke="midnightblue" d="M85.4642,-52.7C94.984,-52.7 105.413,-52.7 115.949,-52.7"/>
<polygon fill="midnightblue" stroke="midnightblue" points="116.057,-56.2001 126.057,-52.7 116.057,-49.2001 116.057,-56.2001"/>
</g>
<!-- Node4 -->
<g id="node4" class="node"><title>Node4</title>
<g id="a_node4"><a xlink:href="classChromosome.html#a6acf26d0b4a7e2651be613ea14c20a1b" target="_top" xlink:title="Chromosome::getMarkerSet">
<polygon fill="white" stroke="black" points="121.324,-0.5 121.324,-22.9 273.958,-22.9 273.958,-0.5 121.324,-0.5"/>
<text text-anchor="middle" x="197.641" y="-8.1" font-family="-adobe-utopia-medium-i-normal--0-0-0-0-p-0-iso10646-1" font-size="12.00">Chromosome::getMarkerSet</text>
</a>
</g>
</g>
<!-- Node1&#45;&gt;Node4 -->
<g id="edge3" class="edge"><title>Node1&#45;&gt;Node4</title>
<path fill="none" stroke="midnightblue" d="M85.1664,-41.4398C96.8575,-38.2781 109.587,-34.8453 121.324,-31.7 128.767,-29.7056 136.625,-27.6087 144.347,-25.5536"/>
<polygon fill="midnightblue" stroke="midnightblue" points="145.247,-28.9359 154.012,-22.9838 143.449,-22.1709 145.247,-28.9359"/>
</g>
</g>
</svg>
