<?xml version="1.0" encoding="UTF-8" standalone="no"?>
<!DOCTYPE svg PUBLIC "-//W3C//DTD SVG 1.1//EN"
 "http://www.w3.org/Graphics/SVG/1.1/DTD/svg11.dtd">
<!-- Generated by graphviz version 2.38.0 (20140413.2041)
 -->
<!-- Title: GERMLINE::mine Pages: 1 -->
<svg width="1674pt" height="690pt"
 viewBox="0.00 0.00 1674.34 689.80" xmlns="http://www.w3.org/2000/svg" xmlns:xlink="http://www.w3.org/1999/xlink">
<g id="graph0" class="graph" transform="scale(1 1) rotate(0) translate(4 685.8)">
<title>GERMLINE::mine</title>
<polygon fill="white" stroke="none" points="-4,4 -4,-685.8 1670.34,-685.8 1670.34,4 -4,4"/>
<!-- Node1 -->
<g id="node1" class="node"><title>Node1</title>
<polygon fill="#bfbfbf" stroke="black" points="2.13163e-14,-297.7 2.13163e-14,-320.1 108.648,-320.1 108.648,-297.7 2.13163e-14,-297.7"/>
<text text-anchor="middle" x="54.3242" y="-305.3" font-family="-adobe-utopia-medium-i-normal--0-0-0-0-p-0-iso10646-1" font-size="12.00">GERMLINE::mine</text>
</g>
<!-- Node2 -->
<g id="node2" class="node"><title>Node2</title>
<g id="a_node2"><a xlink:href="classSNPs.html#a7e4f810a6d54fdd7d84c0a1b8bc38647" target="_top" xlink:title="SNPs::beginChromosome">
<polygon fill="white" stroke="black" points="162.633,-564.7 162.633,-587.1 303.297,-587.1 303.297,-564.7 162.633,-564.7"/>
<text text-anchor="middle" x="232.965" y="-572.3" font-family="-adobe-utopia-medium-i-normal--0-0-0-0-p-0-iso10646-1" font-size="12.00">SNPs::beginChromosome</text>
</a>
</g>
</g>
<!-- Node1&#45;&gt;Node2 -->
<g id="edge1" class="edge"><title>Node1&#45;&gt;Node2</title>
<path fill="none" stroke="midnightblue" d="M55.7828,-320.325C58.0079,-359.658 70.8904,-490.622 144.648,-555.9 147.351,-558.292 150.28,-560.414 153.374,-562.296"/>
<polygon fill="midnightblue" stroke="midnightblue" points="151.982,-565.516 162.474,-566.989 155.191,-559.295 151.982,-565.516"/>
</g>
<!-- Node3 -->
<g id="node3" class="node"><title>Node3</title>
<g id="a_node3"><a xlink:href="classMatchesBuilder.html#a31faf645700f38ac0d7d164b57cfebd1" target="_top" xlink:title="MatchesBuilder::buildMatches">
<polygon fill="white" stroke="black" points="150.65,-523.7 150.65,-546.1 315.28,-546.1 315.28,-523.7 150.65,-523.7"/>
<text text-anchor="middle" x="232.965" y="-531.3" font-family="-adobe-utopia-medium-i-normal--0-0-0-0-p-0-iso10646-1" font-size="12.00">MatchesBuilder::buildMatches</text>
</a>
</g>
</g>
<!-- Node1&#45;&gt;Node3 -->
<g id="edge2" class="edge"><title>Node1&#45;&gt;Node3</title>
<path fill="none" stroke="midnightblue" d="M56.7008,-320.383C61.5432,-355.47 81.0921,-462.079 144.648,-514.9 146.218,-516.205 147.857,-517.428 149.552,-518.575"/>
<polygon fill="midnightblue" stroke="midnightblue" points="148.044,-521.745 158.458,-523.698 151.534,-515.678 148.044,-521.745"/>
</g>
<!-- Node24 -->
<g id="node24" class="node"><title>Node24</title>
<g id="a_node24"><a xlink:href="classSNPs.html#ab60d36a9d490c8d5d155134170ffd2dc" target="_top" xlink:title="SNPs::currentSize">
<polygon fill="white" stroke="black" points="180.976,-482.7 180.976,-505.1 284.954,-505.1 284.954,-482.7 180.976,-482.7"/>
<text text-anchor="middle" x="232.965" y="-490.3" font-family="-adobe-utopia-medium-i-normal--0-0-0-0-p-0-iso10646-1" font-size="12.00">SNPs::currentSize</text>
</a>
</g>
</g>
<!-- Node1&#45;&gt;Node24 -->
<g id="edge34" class="edge"><title>Node1&#45;&gt;Node24</title>
<path fill="none" stroke="midnightblue" d="M57.9887,-320.237C65.6955,-350.4 90.9653,-433.099 144.648,-473.9 152.367,-479.767 161.505,-483.962 170.913,-486.952"/>
<polygon fill="midnightblue" stroke="midnightblue" points="170.197,-490.385 180.767,-489.652 172.047,-483.634 170.197,-490.385"/>
</g>
<!-- Node25 -->
<g id="node25" class="node"><title>Node25</title>
<g id="a_node25"><a xlink:href="classIndividuals.html#a735f9e2036c83e12adc0ecc52a17a49e" target="_top" xlink:title="Individuals::freeMarkers">
<polygon fill="white" stroke="black" points="165.324,-441.7 165.324,-464.1 300.606,-464.1 300.606,-441.7 165.324,-441.7"/>
<text text-anchor="middle" x="232.965" y="-449.3" font-family="-adobe-utopia-medium-i-normal--0-0-0-0-p-0-iso10646-1" font-size="12.00">Individuals::freeMarkers</text>
</a>
</g>
</g>
<!-- Node1&#45;&gt;Node25 -->
<g id="edge35" class="edge"><title>Node1&#45;&gt;Node25</title>
<path fill="none" stroke="midnightblue" d="M60.0941,-320.263C71.0822,-344.971 100.655,-403.707 144.648,-432.9 148.147,-435.222 151.879,-437.276 155.756,-439.094"/>
<polygon fill="midnightblue" stroke="midnightblue" points="154.446,-442.339 165.025,-442.92 157.117,-435.869 154.446,-442.339"/>
</g>
<!-- Node26 -->
<g id="node26" class="node"><title>Node26</title>
<g id="a_node26"><a xlink:href="classIndividuals.html#a97881cfe8e71575f6df1bf511e0da82f" target="_top" xlink:title="Individuals::freeMatches">
<polygon fill="white" stroke="black" points="164.988,-400.7 164.988,-423.1 300.942,-423.1 300.942,-400.7 164.988,-400.7"/>
<text text-anchor="middle" x="232.965" y="-408.3" font-family="-adobe-utopia-medium-i-normal--0-0-0-0-p-0-iso10646-1" font-size="12.00">Individuals::freeMatches</text>
</a>
</g>
</g>
<!-- Node1&#45;&gt;Node26 -->
<g id="edge36" class="edge"><title>Node1&#45;&gt;Node26</title>
<path fill="none" stroke="midnightblue" d="M64.1387,-320.283C78.8023,-338.39 110.038,-373.575 144.648,-391.9 148.359,-393.865 152.259,-395.638 156.266,-397.237"/>
<polygon fill="midnightblue" stroke="midnightblue" points="155.178,-400.565 165.772,-400.663 157.551,-393.98 155.178,-400.565"/>
</g>
<!-- Node27 -->
<g id="node27" class="node"><title>Node27</title>
<g id="a_node27"><a xlink:href="classSNPs.html#aa3fc87bb408f1b480251a686ac3b80ad" target="_top" xlink:title="SNPs::getROIEnd">
<polygon fill="white" stroke="black" points="180.968,-359.7 180.968,-382.1 284.962,-382.1 284.962,-359.7 180.968,-359.7"/>
<text text-anchor="middle" x="232.965" y="-367.3" font-family="-adobe-utopia-medium-i-normal--0-0-0-0-p-0-iso10646-1" font-size="12.00">SNPs::getROIEnd</text>
</a>
</g>
</g>
<!-- Node1&#45;&gt;Node27 -->
<g id="edge37" class="edge"><title>Node1&#45;&gt;Node27</title>
<path fill="none" stroke="midnightblue" d="M76.0877,-320.226C93.8595,-329.535 120.35,-342.514 144.648,-350.9 152.98,-353.775 161.901,-356.358 170.744,-358.636"/>
<polygon fill="midnightblue" stroke="midnightblue" points="170.111,-362.085 180.658,-361.079 171.785,-355.288 170.111,-362.085"/>
</g>
<!-- Node28 -->
<g id="node28" class="node"><title>Node28</title>
<g id="a_node28"><a xlink:href="classSNPs.html#ae27666e68ba06ba960eeced83704ef9d" target="_top" xlink:title="SNPs::getROIStart">
<polygon fill="white" stroke="black" points="179.303,-318.7 179.303,-341.1 286.627,-341.1 286.627,-318.7 179.303,-318.7"/>
<text text-anchor="middle" x="232.965" y="-326.3" font-family="-adobe-utopia-medium-i-normal--0-0-0-0-p-0-iso10646-1" font-size="12.00">SNPs::getROIStart</text>
</a>
</g>
</g>
<!-- Node1&#45;&gt;Node28 -->
<g id="edge38" class="edge"><title>Node1&#45;&gt;Node28</title>
<path fill="none" stroke="midnightblue" d="M108.802,-315.258C127.825,-317.519 149.417,-320.086 169.151,-322.432"/>
<polygon fill="midnightblue" stroke="midnightblue" points="168.934,-325.931 179.277,-323.636 169.76,-318.98 168.934,-325.931"/>
</g>
<!-- Node29 -->
<g id="node29" class="node"><title>Node29</title>
<g id="a_node29"><a xlink:href="classSNP.html#acb364c2ba0b3daf71f3a83a9f9f4fa1b" target="_top" xlink:title="SNP::getSNPID">
<polygon fill="white" stroke="black" points="185.966,-277.7 185.966,-300.1 279.964,-300.1 279.964,-277.7 185.966,-277.7"/>
<text text-anchor="middle" x="232.965" y="-285.3" font-family="-adobe-utopia-medium-i-normal--0-0-0-0-p-0-iso10646-1" font-size="12.00">SNP::getSNPID</text>
</a>
</g>
</g>
<!-- Node1&#45;&gt;Node29 -->
<g id="edge39" class="edge"><title>Node1&#45;&gt;Node29</title>
<path fill="none" stroke="midnightblue" d="M108.802,-302.845C130.015,-300.443 154.423,-297.68 175.886,-295.249"/>
<polygon fill="midnightblue" stroke="midnightblue" points="176.295,-298.726 185.838,-294.123 175.507,-291.77 176.295,-298.726"/>
</g>
<!-- Node30 -->
<g id="node30" class="node"><title>Node30</title>
<g id="a_node30"><a xlink:href="classPolymorphicIndividualsExtractor.html#a7da0f3eb8ff6eb7c0fd70f82683fa531" target="_top" xlink:title="PolymorphicIndividualsExtractor\l::loadInput">
<polygon fill="white" stroke="black" points="144.648,-221.5 144.648,-258.3 321.282,-258.3 321.282,-221.5 144.648,-221.5"/>
<text text-anchor="start" x="152.648" y="-243.5" font-family="-adobe-utopia-medium-i-normal--0-0-0-0-p-0-iso10646-1" font-size="12.00">PolymorphicIndividualsExtractor</text>
<text text-anchor="middle" x="232.965" y="-229.1" font-family="-adobe-utopia-medium-i-normal--0-0-0-0-p-0-iso10646-1" font-size="12.00">::loadInput</text>
</a>
</g>
</g>
<!-- Node1&#45;&gt;Node30 -->
<g id="edge40" class="edge"><title>Node1&#45;&gt;Node30</title>
<path fill="none" stroke="midnightblue" d="M77.7641,-297.69C95.6373,-288.984 121.425,-276.916 144.648,-267.9 150.067,-265.796 155.717,-263.723 161.421,-261.714"/>
<polygon fill="midnightblue" stroke="midnightblue" points="162.726,-264.966 171.042,-258.401 160.447,-258.348 162.726,-264.966"/>
</g>
<!-- Node31 -->
<g id="node31" class="node"><title>Node31</title>
<g id="a_node31"><a xlink:href="classSNPs.html#a448a7eacaf61bffa6966ff05c63cd5fc" target="_top" xlink:title="SNPs::moreChromosome">
<polygon fill="white" stroke="black" points="163.636,-179.7 163.636,-202.1 302.294,-202.1 302.294,-179.7 163.636,-179.7"/>
<text text-anchor="middle" x="232.965" y="-187.3" font-family="-adobe-utopia-medium-i-normal--0-0-0-0-p-0-iso10646-1" font-size="12.00">SNPs::moreChromosome</text>
</a>
</g>
</g>
<!-- Node1&#45;&gt;Node31 -->
<g id="edge41" class="edge"><title>Node1&#45;&gt;Node31</title>
<path fill="none" stroke="midnightblue" d="M62.3847,-297.6C75.7821,-277.145 106.951,-234.054 144.648,-211.9 148.534,-209.617 152.655,-207.581 156.91,-205.767"/>
<polygon fill="midnightblue" stroke="midnightblue" points="158.307,-208.98 166.396,-202.137 155.806,-202.442 158.307,-208.98"/>
</g>
<!-- Node32 -->
<g id="node32" class="node"><title>Node32</title>
<g id="a_node32"><a xlink:href="classSNPs.html#ab2669ca68bf35e52fa9a999a66f4b0bf" target="_top" xlink:title="SNPs::nextChromosome">
<polygon fill="white" stroke="black" points="165.633,-138.7 165.633,-161.1 300.297,-161.1 300.297,-138.7 165.633,-138.7"/>
<text text-anchor="middle" x="232.965" y="-146.3" font-family="-adobe-utopia-medium-i-normal--0-0-0-0-p-0-iso10646-1" font-size="12.00">SNPs::nextChromosome</text>
</a>
</g>
</g>
<!-- Node1&#45;&gt;Node32 -->
<g id="edge42" class="edge"><title>Node1&#45;&gt;Node32</title>
<path fill="none" stroke="midnightblue" d="M59.2418,-297.401C69.0306,-270.496 97.2344,-203.208 144.648,-169.9 148.156,-167.436 151.92,-165.271 155.846,-163.369"/>
<polygon fill="midnightblue" stroke="midnightblue" points="157.405,-166.509 165.251,-159.39 154.678,-160.062 157.405,-166.509"/>
</g>
<!-- Node33 -->
<g id="node33" class="node"><title>Node33</title>
<g id="a_node33"><a xlink:href="classIndividuals.html#a8c3626441a9fe6306e771062a150c85b" target="_top" xlink:title="Individuals::print">
<polygon fill="white" stroke="black" points="183.302,-97.7 183.302,-120.1 282.628,-120.1 282.628,-97.7 183.302,-97.7"/>
<text text-anchor="middle" x="232.965" y="-105.3" font-family="-adobe-utopia-medium-i-normal--0-0-0-0-p-0-iso10646-1" font-size="12.00">Individuals::print</text>
</a>
</g>
</g>
<!-- Node1&#45;&gt;Node33 -->
<g id="edge43" class="edge"><title>Node1&#45;&gt;Node33</title>
<path fill="none" stroke="midnightblue" d="M57.4614,-297.491C64.0885,-265.45 87.3925,-174.044 144.648,-128.9 152.978,-122.333 163.066,-117.845 173.386,-114.795"/>
<polygon fill="midnightblue" stroke="midnightblue" points="174.462,-118.134 183.301,-112.291 172.748,-111.347 174.462,-118.134"/>
</g>
<!-- Node34 -->
<g id="node34" class="node"><title>Node34</title>
<g id="a_node34"><a xlink:href="classSNPs.html#a87100cf7482a6dbf0e559231e3c865b5" target="_top" xlink:title="SNPs::print">
<polygon fill="white" stroke="black" points="196.962,-56.7 196.962,-79.1 268.968,-79.1 268.968,-56.7 196.962,-56.7"/>
<text text-anchor="middle" x="232.965" y="-64.3" font-family="-adobe-utopia-medium-i-normal--0-0-0-0-p-0-iso10646-1" font-size="12.00">SNPs::print</text>
</a>
</g>
</g>
<!-- Node1&#45;&gt;Node34 -->
<g id="edge44" class="edge"><title>Node1&#45;&gt;Node34</title>
<path fill="none" stroke="midnightblue" d="M56.306,-297.646C60.1152,-261.185 77.2529,-145.353 144.648,-87.9 156.284,-77.9812 171.86,-72.7311 186.634,-70.0266"/>
<polygon fill="midnightblue" stroke="midnightblue" points="187.299,-73.4664 196.676,-68.5349 186.27,-66.5423 187.299,-73.4664"/>
</g>
<!-- Node35 -->
<g id="node35" class="node"><title>Node35</title>
<g id="a_node35"><a xlink:href="classPolymorphicIndividualsExtractor.html#a0afa2852fe48f802e0ee7b5221f70d98" target="_top" xlink:title="PolymorphicIndividualsExtractor\l::valid">
<polygon fill="white" stroke="black" points="144.648,-0.5 144.648,-37.3 321.282,-37.3 321.282,-0.5 144.648,-0.5"/>
<text text-anchor="start" x="152.648" y="-22.5" font-family="-adobe-utopia-medium-i-normal--0-0-0-0-p-0-iso10646-1" font-size="12.00">PolymorphicIndividualsExtractor</text>
<text text-anchor="middle" x="232.965" y="-8.1" font-family="-adobe-utopia-medium-i-normal--0-0-0-0-p-0-iso10646-1" font-size="12.00">::valid</text>
</a>
</g>
</g>
<!-- Node1&#45;&gt;Node35 -->
<g id="edge45" class="edge"><title>Node1&#45;&gt;Node35</title>
<path fill="none" stroke="midnightblue" d="M55.731,-297.598C57.7953,-257.414 70.2385,-119.963 144.648,-46.9 145.898,-45.6731 147.201,-44.5 148.551,-43.3782"/>
<polygon fill="midnightblue" stroke="midnightblue" points="150.663,-46.1712 156.749,-37.499 146.583,-40.4828 150.663,-46.1712"/>
</g>
<!-- Node4 -->
<g id="node4" class="node"><title>Node4</title>
<g id="a_node4"><a xlink:href="classMatchesBuilder.html#ad627b36445ae9df99c732b23c8b06547" target="_top" xlink:title="MatchesBuilder::readAllMarkers">
<polygon fill="white" stroke="black" points="357.282,-553.7 357.282,-576.1 532.552,-576.1 532.552,-553.7 357.282,-553.7"/>
<text text-anchor="middle" x="444.917" y="-561.3" font-family="-adobe-utopia-medium-i-normal--0-0-0-0-p-0-iso10646-1" font-size="12.00">MatchesBuilder::readAllMarkers</text>
</a>
</g>
</g>
<!-- Node3&#45;&gt;Node4 -->
<g id="edge3" class="edge"><title>Node3&#45;&gt;Node4</title>
<path fill="none" stroke="midnightblue" d="M312.442,-546.114C326.313,-548.096 340.844,-550.172 354.979,-552.192"/>
<polygon fill="midnightblue" stroke="midnightblue" points="354.791,-555.7 365.185,-553.65 355.781,-548.771 354.791,-555.7"/>
</g>
<!-- Node11 -->
<g id="node11" class="node"><title>Node11</title>
<g id="a_node11"><a xlink:href="classMatchesBuilder.html#ae8d8a0ff7f0726406e83d4fa55a96bf4" target="_top" xlink:title="MatchesBuilder::matchAll\lMarkers">
<polygon fill="white" stroke="black" points="372.933,-485.5 372.933,-522.3 516.901,-522.3 516.901,-485.5 372.933,-485.5"/>
<text text-anchor="start" x="380.933" y="-507.5" font-family="-adobe-utopia-medium-i-normal--0-0-0-0-p-0-iso10646-1" font-size="12.00">MatchesBuilder::matchAll</text>
<text text-anchor="middle" x="444.917" y="-493.1" font-family="-adobe-utopia-medium-i-normal--0-0-0-0-p-0-iso10646-1" font-size="12.00">Markers</text>
</a>
</g>
</g>
<!-- Node3&#45;&gt;Node11 -->
<g id="edge14" class="edge"><title>Node3&#45;&gt;Node11</title>
<path fill="none" stroke="midnightblue" d="M310.059,-523.664C327.128,-521.144 345.303,-518.461 362.576,-515.91"/>
<polygon fill="midnightblue" stroke="midnightblue" points="363.246,-519.349 372.627,-514.426 362.223,-512.424 363.246,-519.349"/>
</g>
<!-- Node5 -->
<g id="node5" class="node"><title>Node5</title>
<g id="a_node5"><a xlink:href="classMatchesBuilder.html#a24030d91efc506dab6732cdb9a89f0ab" target="_top" xlink:title="MatchesBuilder::readHaploid\lMarkerSet">
<polygon fill="white" stroke="black" points="578.881,-595.5 578.881,-632.3 737.501,-632.3 737.501,-595.5 578.881,-595.5"/>
<text text-anchor="start" x="586.881" y="-617.5" font-family="-adobe-utopia-medium-i-normal--0-0-0-0-p-0-iso10646-1" font-size="12.00">MatchesBuilder::readHaploid</text>
<text text-anchor="middle" x="658.191" y="-603.1" font-family="-adobe-utopia-medium-i-normal--0-0-0-0-p-0-iso10646-1" font-size="12.00">MarkerSet</text>
</a>
</g>
</g>
<!-- Node4&#45;&gt;Node5 -->
<g id="edge4" class="edge"><title>Node4&#45;&gt;Node5</title>
<path fill="none" stroke="midnightblue" d="M494.387,-576.142C516.435,-581.255 543.237,-587.471 568.678,-593.372"/>
<polygon fill="midnightblue" stroke="midnightblue" points="568.191,-596.851 578.723,-595.701 569.772,-590.032 568.191,-596.851"/>
</g>
<!-- Node10 -->
<g id="node10" class="node"><title>Node10</title>
<g id="a_node10"><a xlink:href="classMatchesBuilder.html#a0ce39fec7c735700c83a21f4b53f5bbf" target="_top" xlink:title="MatchesBuilder::readMarkerSet">
<polygon fill="white" stroke="black" points="572.889,-553.7 572.889,-576.1 743.492,-576.1 743.492,-553.7 572.889,-553.7"/>
<text text-anchor="middle" x="658.191" y="-561.3" font-family="-adobe-utopia-medium-i-normal--0-0-0-0-p-0-iso10646-1" font-size="12.00">MatchesBuilder::readMarkerSet</text>
</a>
</g>
</g>
<!-- Node4&#45;&gt;Node10 -->
<g id="edge9" class="edge"><title>Node4&#45;&gt;Node10</title>
<path fill="none" stroke="midnightblue" d="M532.764,-564.9C542.563,-564.9 552.584,-564.9 562.477,-564.9"/>
<polygon fill="midnightblue" stroke="midnightblue" points="562.724,-568.4 572.724,-564.9 562.724,-561.4 562.724,-568.4"/>
</g>
<!-- Node6 -->
<g id="node6" class="node"><title>Node6</title>
<g id="a_node6"><a xlink:href="classIndividuals.html#ac1f8fff7b6e6a737ababc975495b5f65" target="_top" xlink:title="Individuals::begin">
<polygon fill="white" stroke="black" points="820.484,-602.7 820.484,-625.1 923.808,-625.1 923.808,-602.7 820.484,-602.7"/>
<text text-anchor="middle" x="872.146" y="-610.3" font-family="-adobe-utopia-medium-i-normal--0-0-0-0-p-0-iso10646-1" font-size="12.00">Individuals::begin</text>
</a>
</g>
</g>
<!-- Node5&#45;&gt;Node6 -->
<g id="edge5" class="edge"><title>Node5&#45;&gt;Node6</title>
<path fill="none" stroke="midnightblue" d="M737.513,-613.9C761.545,-613.9 787.617,-613.9 810.298,-613.9"/>
<polygon fill="midnightblue" stroke="midnightblue" points="810.461,-617.4 820.461,-613.9 810.461,-610.4 810.461,-617.4"/>
</g>
<!-- Node7 -->
<g id="node7" class="node"><title>Node7</title>
<g id="a_node7"><a xlink:href="classIndividuals.html#ac9d09bbae9d26e39364b099c4366daf1" target="_top" xlink:title="Individuals::more">
<polygon fill="white" stroke="black" points="821.487,-561.7 821.487,-584.1 922.806,-584.1 922.806,-561.7 821.487,-561.7"/>
<text text-anchor="middle" x="872.146" y="-569.3" font-family="-adobe-utopia-medium-i-normal--0-0-0-0-p-0-iso10646-1" font-size="12.00">Individuals::more</text>
</a>
</g>
</g>
<!-- Node5&#45;&gt;Node7 -->
<g id="edge6" class="edge"><title>Node5&#45;&gt;Node7</title>
<path fill="none" stroke="midnightblue" d="M737.513,-598.75C761.961,-594.02 788.521,-588.883 811.474,-584.443"/>
<polygon fill="midnightblue" stroke="midnightblue" points="812.255,-587.857 821.408,-582.521 810.925,-580.984 812.255,-587.857"/>
</g>
<!-- Node8 -->
<g id="node8" class="node"><title>Node8</title>
<g id="a_node8"><a xlink:href="classIndividuals.html#a1bd919e3eef3e84c8849623789051f08" target="_top" xlink:title="Individuals::next">
<polygon fill="white" stroke="black" points="823.484,-520.7 823.484,-543.1 920.808,-543.1 920.808,-520.7 823.484,-520.7"/>
<text text-anchor="middle" x="872.146" y="-528.3" font-family="-adobe-utopia-medium-i-normal--0-0-0-0-p-0-iso10646-1" font-size="12.00">Individuals::next</text>
</a>
</g>
</g>
<!-- Node5&#45;&gt;Node8 -->
<g id="edge7" class="edge"><title>Node5&#45;&gt;Node8</title>
<path fill="none" stroke="midnightblue" d="M728.743,-595.308C735.374,-592.542 741.847,-589.417 747.83,-585.9 766.803,-574.748 764.422,-562.277 783.83,-551.9 792.975,-547.01 803.282,-543.31 813.523,-540.513"/>
<polygon fill="midnightblue" stroke="midnightblue" points="814.416,-543.898 823.282,-538.098 812.734,-537.103 814.416,-543.898"/>
</g>
<!-- Node9 -->
<g id="node9" class="node"><title>Node9</title>
<g id="a_node9"><a xlink:href="classPolymorphicIndividualsExtractor.html#af99fabbecd263daa88696353f9fcfeff" target="_top" xlink:title="PolymorphicIndividualsExtractor\l::getCompleteMarkerSet">
<polygon fill="white" stroke="black" points="783.83,-644.5 783.83,-681.3 960.463,-681.3 960.463,-644.5 783.83,-644.5"/>
<text text-anchor="start" x="791.83" y="-666.5" font-family="-adobe-utopia-medium-i-normal--0-0-0-0-p-0-iso10646-1" font-size="12.00">PolymorphicIndividualsExtractor</text>
<text text-anchor="middle" x="872.146" y="-652.1" font-family="-adobe-utopia-medium-i-normal--0-0-0-0-p-0-iso10646-1" font-size="12.00">::getCompleteMarkerSet</text>
</a>
</g>
</g>
<!-- Node5&#45;&gt;Node9 -->
<g id="edge8" class="edge"><title>Node5&#45;&gt;Node9</title>
<path fill="none" stroke="midnightblue" d="M737.513,-632.007C751.789,-635.307 766.786,-638.774 781.363,-642.144"/>
<polygon fill="midnightblue" stroke="midnightblue" points="780.843,-645.616 791.375,-644.458 782.42,-638.796 780.843,-645.616"/>
</g>
<!-- Node10&#45;&gt;Node6 -->
<g id="edge10" class="edge"><title>Node10&#45;&gt;Node6</title>
<path fill="none" stroke="midnightblue" d="M707.42,-576.162C730.532,-581.549 758.61,-588.078 783.83,-593.9 792.843,-595.981 802.383,-598.175 811.716,-600.316"/>
<polygon fill="midnightblue" stroke="midnightblue" points="811.2,-603.789 821.729,-602.612 812.765,-596.966 811.2,-603.789"/>
</g>
<!-- Node10&#45;&gt;Node7 -->
<g id="edge11" class="edge"><title>Node10&#45;&gt;Node7</title>
<path fill="none" stroke="midnightblue" d="M743.57,-568.085C766.19,-568.939 790.181,-569.844 811.181,-570.637"/>
<polygon fill="midnightblue" stroke="midnightblue" points="811.105,-574.136 821.23,-571.016 811.369,-567.141 811.105,-574.136"/>
</g>
<!-- Node10&#45;&gt;Node8 -->
<g id="edge12" class="edge"><title>Node10&#45;&gt;Node8</title>
<path fill="none" stroke="midnightblue" d="M731.245,-553.682C757.931,-549.527 787.826,-544.872 813.108,-540.936"/>
<polygon fill="midnightblue" stroke="midnightblue" points="813.933,-544.35 823.275,-539.353 812.856,-537.433 813.933,-544.35"/>
</g>
<!-- Node10&#45;&gt;Node9 -->
<g id="edge13" class="edge"><title>Node10&#45;&gt;Node9</title>
<path fill="none" stroke="midnightblue" d="M728.483,-576.174C735.31,-578.774 741.896,-581.971 747.83,-585.9 770.361,-600.82 761.895,-619.116 783.83,-634.9 786.192,-636.6 788.662,-638.2 791.213,-639.705"/>
<polygon fill="midnightblue" stroke="midnightblue" points="789.683,-642.856 800.155,-644.468 792.974,-636.678 789.683,-642.856"/>
</g>
<!-- Node12 -->
<g id="node12" class="node"><title>Node12</title>
<g id="a_node12"><a xlink:href="classMatchesBuilder.html#af44853a4e7540f4f54a802a5d0c45faf" target="_top" xlink:title="MatchesBuilder::matchMarkerSet">
<polygon fill="white" stroke="black" points="568.552,-486.7 568.552,-509.1 747.83,-509.1 747.83,-486.7 568.552,-486.7"/>
<text text-anchor="middle" x="658.191" y="-494.3" font-family="-adobe-utopia-medium-i-normal--0-0-0-0-p-0-iso10646-1" font-size="12.00">MatchesBuilder::matchMarkerSet</text>
</a>
</g>
</g>
<!-- Node11&#45;&gt;Node12 -->
<g id="edge15" class="edge"><title>Node11&#45;&gt;Node12</title>
<path fill="none" stroke="midnightblue" d="M517.15,-501.877C530.356,-501.502 544.368,-501.104 558.226,-500.711"/>
<polygon fill="midnightblue" stroke="midnightblue" points="558.379,-504.208 568.276,-500.425 558.181,-497.21 558.379,-504.208"/>
</g>
<!-- Node12&#45;&gt;Node6 -->
<g id="edge16" class="edge"><title>Node12&#45;&gt;Node6</title>
<path fill="none" stroke="midnightblue" d="M688.832,-509.11C707.14,-516.995 730.384,-528.822 747.83,-543.9 768.547,-561.806 761.015,-578.757 783.83,-593.9 791.812,-599.198 801.008,-603.104 810.372,-605.982"/>
<polygon fill="midnightblue" stroke="midnightblue" points="809.581,-609.393 820.148,-608.623 811.407,-602.636 809.581,-609.393"/>
</g>
<!-- Node12&#45;&gt;Node7 -->
<g id="edge17" class="edge"><title>Node12&#45;&gt;Node7</title>
<path fill="none" stroke="midnightblue" d="M681.201,-509.15C705.719,-521.315 746.79,-540.61 783.83,-552.9 792.61,-555.813 802.024,-558.452 811.303,-560.788"/>
<polygon fill="midnightblue" stroke="midnightblue" points="810.741,-564.253 821.283,-563.201 812.386,-557.449 810.741,-564.253"/>
</g>
<!-- Node12&#45;&gt;Node8 -->
<g id="edge29" class="edge"><title>Node12&#45;&gt;Node8</title>
<path fill="none" stroke="midnightblue" d="M729.18,-509.127C756.432,-513.499 787.286,-518.448 813.252,-522.613"/>
<polygon fill="midnightblue" stroke="midnightblue" points="812.887,-526.099 823.315,-524.227 813.996,-519.188 812.887,-526.099"/>
</g>
<!-- Node13 -->
<g id="node13" class="node"><title>Node13</title>
<g id="a_node13"><a xlink:href="classMatchFactory.html#aa1f3b5e8f0e2fbd5ac2dcbc24a9e6812" target="_top" xlink:title="MatchFactory::hash">
<polygon fill="white" stroke="black" points="816.16,-421.7 816.16,-444.1 928.132,-444.1 928.132,-421.7 816.16,-421.7"/>
<text text-anchor="middle" x="872.146" y="-429.3" font-family="-adobe-utopia-medium-i-normal--0-0-0-0-p-0-iso10646-1" font-size="12.00">MatchFactory::hash</text>
</a>
</g>
</g>
<!-- Node12&#45;&gt;Node13 -->
<g id="edge18" class="edge"><title>Node12&#45;&gt;Node13</title>
<path fill="none" stroke="midnightblue" d="M696.11,-486.578C731.713,-475.66 785.734,-459.093 824.339,-447.254"/>
<polygon fill="midnightblue" stroke="midnightblue" points="825.76,-450.479 834.294,-444.201 823.708,-443.787 825.76,-450.479"/>
</g>
<!-- Node21 -->
<g id="node21" class="node"><title>Node21</title>
<g id="a_node21"><a xlink:href="classMatchFactory.html#a247e2d6028e27d243b97b2df0f035f1f" target="_top" xlink:title="MatchFactory::assertShares">
<polygon fill="white" stroke="black" points="797.505,-380.7 797.505,-403.1 946.787,-403.1 946.787,-380.7 797.505,-380.7"/>
<text text-anchor="middle" x="872.146" y="-388.3" font-family="-adobe-utopia-medium-i-normal--0-0-0-0-p-0-iso10646-1" font-size="12.00">MatchFactory::assertShares</text>
</a>
</g>
</g>
<!-- Node12&#45;&gt;Node21 -->
<g id="edge30" class="edge"><title>Node12&#45;&gt;Node21</title>
<path fill="none" stroke="midnightblue" d="M672.012,-486.544C693.557,-468.07 739.073,-431.597 783.83,-411.9 788.6,-409.801 793.618,-407.908 798.738,-406.204"/>
<polygon fill="midnightblue" stroke="midnightblue" points="800.135,-409.436 808.668,-403.155 798.081,-402.745 800.135,-409.436"/>
</g>
<!-- Node22 -->
<g id="node22" class="node"><title>Node22</title>
<g id="a_node22"><a xlink:href="classIndividual.html#a37fd25dcc27a8613ca4e5a8d9bcbaca6" target="_top" xlink:title="Individual::assertShares">
<polygon fill="white" stroke="black" points="1195.77,-482.7 1195.77,-505.1 1327.06,-505.1 1327.06,-482.7 1195.77,-482.7"/>
<text text-anchor="middle" x="1261.42" y="-490.3" font-family="-adobe-utopia-medium-i-normal--0-0-0-0-p-0-iso10646-1" font-size="12.00">Individual::assertShares</text>
</a>
</g>
</g>
<!-- Node12&#45;&gt;Node22 -->
<g id="edge31" class="edge"><title>Node12&#45;&gt;Node22</title>
<path fill="none" stroke="midnightblue" d="M747.903,-497.31C866.369,-496.522 1074.16,-495.139 1185.29,-494.4"/>
<polygon fill="midnightblue" stroke="midnightblue" points="1185.44,-497.899 1195.41,-494.332 1185.39,-490.899 1185.44,-497.899"/>
</g>
<!-- Node23 -->
<g id="node23" class="node"><title>Node23</title>
<g id="a_node23"><a xlink:href="classMatchFactory.html#af71633ad61d5812b60e3d64c37cd64d4" target="_top" xlink:title="MatchFactory::initialize">
<polygon fill="white" stroke="black" points="806.162,-339.7 806.162,-362.1 938.13,-362.1 938.13,-339.7 806.162,-339.7"/>
<text text-anchor="middle" x="872.146" y="-347.3" font-family="-adobe-utopia-medium-i-normal--0-0-0-0-p-0-iso10646-1" font-size="12.00">MatchFactory::initialize</text>
</a>
</g>
</g>
<!-- Node12&#45;&gt;Node23 -->
<g id="edge33" class="edge"><title>Node12&#45;&gt;Node23</title>
<path fill="none" stroke="midnightblue" d="M666.733,-486.657C684.164,-461.61 729.905,-401.061 783.83,-370.9 787.831,-368.662 792.07,-366.674 796.437,-364.908"/>
<polygon fill="midnightblue" stroke="midnightblue" points="797.951,-368.082 806.162,-361.387 795.567,-361.5 797.951,-368.082"/>
</g>
<!-- Node14 -->
<g id="node14" class="node"><title>Node14</title>
<g id="a_node14"><a xlink:href="classIndividual.html#a7c494813e7d0f7f4f235cd75185fd2be" target="_top" xlink:title="Individual::numHet">
<polygon fill="white" stroke="black" points="1022.79,-361.7 1022.79,-384.1 1133.44,-384.1 1133.44,-361.7 1022.79,-361.7"/>
<text text-anchor="middle" x="1078.11" y="-369.3" font-family="-adobe-utopia-medium-i-normal--0-0-0-0-p-0-iso10646-1" font-size="12.00">Individual::numHet</text>
</a>
</g>
</g>
<!-- Node13&#45;&gt;Node14 -->
<g id="edge19" class="edge"><title>Node13&#45;&gt;Node14</title>
<path fill="none" stroke="midnightblue" d="M928.35,-422.74C939.164,-420.059 950.298,-416.797 960.463,-412.9 977.553,-406.347 979.432,-399.605 996.463,-392.9 1001.88,-390.767 1007.59,-388.809 1013.38,-387.025"/>
<polygon fill="midnightblue" stroke="midnightblue" points="1014.51,-390.341 1023.13,-384.185 1012.55,-383.62 1014.51,-390.341"/>
</g>
<!-- Node15 -->
<g id="node15" class="node"><title>Node15</title>
<g id="a_node15"><a xlink:href="classIndividual.html#a6e75847d9fdd923bd0cf7a9ec5e2b1a4" target="_top" xlink:title="Individual::assertHomozygous">
<polygon fill="white" stroke="black" points="996.463,-402.7 996.463,-425.1 1159.77,-425.1 1159.77,-402.7 996.463,-402.7"/>
<text text-anchor="middle" x="1078.11" y="-410.3" font-family="-adobe-utopia-medium-i-normal--0-0-0-0-p-0-iso10646-1" font-size="12.00">Individual::assertHomozygous</text>
</a>
</g>
</g>
<!-- Node13&#45;&gt;Node15 -->
<g id="edge20" class="edge"><title>Node13&#45;&gt;Node15</title>
<path fill="none" stroke="midnightblue" d="M928.343,-427.758C946.126,-426.102 966.332,-424.22 985.993,-422.388"/>
<polygon fill="midnightblue" stroke="midnightblue" points="986.577,-425.849 996.209,-421.436 985.928,-418.879 986.577,-425.849"/>
</g>
<!-- Node18 -->
<g id="node18" class="node"><title>Node18</title>
<g id="a_node18"><a xlink:href="classIndividual.html#adab24d093d691c3e84bdce0b2d2f3a81" target="_top" xlink:title="Individual::getChromosome">
<polygon fill="white" stroke="black" points="1514.36,-422.7 1514.36,-445.1 1665.68,-445.1 1665.68,-422.7 1514.36,-422.7"/>
<text text-anchor="middle" x="1590.02" y="-430.3" font-family="-adobe-utopia-medium-i-normal--0-0-0-0-p-0-iso10646-1" font-size="12.00">Individual::getChromosome</text>
</a>
</g>
</g>
<!-- Node13&#45;&gt;Node18 -->
<g id="edge26" class="edge"><title>Node13&#45;&gt;Node18</title>
<path fill="none" stroke="midnightblue" d="M928.392,-433.987C949.668,-434.356 974.195,-434.719 996.463,-434.9 1210.34,-436.634 1263.82,-435.861 1477.7,-434.9 1486.27,-434.862 1495.21,-434.806 1504.13,-434.742"/>
<polygon fill="midnightblue" stroke="midnightblue" points="1504.2,-438.241 1514.17,-434.665 1504.15,-431.241 1504.2,-438.241"/>
</g>
<!-- Node19 -->
<g id="node19" class="node"><title>Node19</title>
<g id="a_node19"><a xlink:href="classChromosome.html#a6acf26d0b4a7e2651be613ea14c20a1b" target="_top" xlink:title="Chromosome::getMarkerSet">
<polygon fill="white" stroke="black" points="1513.7,-367.7 1513.7,-390.1 1666.34,-390.1 1666.34,-367.7 1513.7,-367.7"/>
<text text-anchor="middle" x="1590.02" y="-375.3" font-family="-adobe-utopia-medium-i-normal--0-0-0-0-p-0-iso10646-1" font-size="12.00">Chromosome::getMarkerSet</text>
</a>
</g>
</g>
<!-- Node13&#45;&gt;Node19 -->
<g id="edge27" class="edge"><title>Node13&#45;&gt;Node19</title>
<path fill="none" stroke="midnightblue" d="M928.251,-427.369C939.655,-424.352 951.048,-419.785 960.463,-412.9 985.874,-394.318 969.125,-367.51 996.463,-351.9 1082.95,-302.519 1376.98,-343.165 1515.59,-365.992"/>
<polygon fill="midnightblue" stroke="midnightblue" points="1515.26,-369.485 1525.7,-367.67 1516.4,-362.579 1515.26,-369.485"/>
</g>
<!-- Node20 -->
<g id="node20" class="node"><title>Node20</title>
<g id="a_node20"><a xlink:href="classMarkerSet.html#a4875bf7f161c77ff90c15936fee29ff0" target="_top" xlink:title="MarkerSet::getMarkerBits">
<polygon fill="white" stroke="black" points="1518.71,-298.7 1518.71,-321.1 1661.33,-321.1 1661.33,-298.7 1518.71,-298.7"/>
<text text-anchor="middle" x="1590.02" y="-306.3" font-family="-adobe-utopia-medium-i-normal--0-0-0-0-p-0-iso10646-1" font-size="12.00">MarkerSet::getMarkerBits</text>
</a>
</g>
</g>
<!-- Node13&#45;&gt;Node20 -->
<g id="edge28" class="edge"><title>Node13&#45;&gt;Node20</title>
<path fill="none" stroke="midnightblue" d="M928.149,-428.632C939.818,-425.572 951.349,-420.667 960.463,-412.9 992.938,-385.223 961.368,-348.169 996.463,-323.9 1167.62,-205.538 1438.13,-265.439 1544.23,-295.827"/>
<polygon fill="midnightblue" stroke="midnightblue" points="1543.39,-299.229 1553.97,-298.668 1545.35,-292.509 1543.39,-299.229"/>
</g>
<!-- Node16 -->
<g id="node16" class="node"><title>Node16</title>
<g id="a_node16"><a xlink:href="classMatch.html#afb81327901b29b02ff117406cdec0a4e" target="_top" xlink:title="Match::extendBack">
<polygon fill="white" stroke="black" points="1206.43,-402.7 1206.43,-425.1 1316.4,-425.1 1316.4,-402.7 1206.43,-402.7"/>
<text text-anchor="middle" x="1261.42" y="-410.3" font-family="-adobe-utopia-medium-i-normal--0-0-0-0-p-0-iso10646-1" font-size="12.00">Match::extendBack</text>
</a>
</g>
</g>
<!-- Node15&#45;&gt;Node16 -->
<g id="edge21" class="edge"><title>Node15&#45;&gt;Node16</title>
<path fill="none" stroke="midnightblue" d="M1159.96,-413.9C1172.08,-413.9 1184.44,-413.9 1196.16,-413.9"/>
<polygon fill="midnightblue" stroke="midnightblue" points="1196.26,-417.4 1206.26,-413.9 1196.26,-410.4 1196.26,-417.4"/>
</g>
<!-- Node17 -->
<g id="node17" class="node"><title>Node17</title>
<g id="a_node17"><a xlink:href="classMatch.html#a7c47a9c7017d308d2ae58fac5a204179" target="_top" xlink:title="Match::approxEqual">
<polygon fill="white" stroke="black" points="1363.06,-402.7 1363.06,-425.1 1477.7,-425.1 1477.7,-402.7 1363.06,-402.7"/>
<text text-anchor="middle" x="1420.38" y="-410.3" font-family="-adobe-utopia-medium-i-normal--0-0-0-0-p-0-iso10646-1" font-size="12.00">Match::approxEqual</text>
</a>
</g>
</g>
<!-- Node16&#45;&gt;Node17 -->
<g id="edge22" class="edge"><title>Node16&#45;&gt;Node17</title>
<path fill="none" stroke="midnightblue" d="M1316.44,-413.9C1328.14,-413.9 1340.66,-413.9 1352.79,-413.9"/>
<polygon fill="midnightblue" stroke="midnightblue" points="1352.86,-417.4 1362.86,-413.9 1352.86,-410.4 1352.86,-417.4"/>
</g>
<!-- Node17&#45;&gt;Node18 -->
<g id="edge23" class="edge"><title>Node17&#45;&gt;Node18</title>
<path fill="none" stroke="midnightblue" d="M1478.14,-420.671C1486.56,-421.676 1495.39,-422.729 1504.23,-423.784"/>
<polygon fill="midnightblue" stroke="midnightblue" points="1503.85,-427.264 1514.2,-424.973 1504.68,-420.313 1503.85,-427.264"/>
</g>
<!-- Node17&#45;&gt;Node19 -->
<g id="edge24" class="edge"><title>Node17&#45;&gt;Node19</title>
<path fill="none" stroke="midnightblue" d="M1475.35,-402.633C1491.2,-399.323 1508.69,-395.671 1525.1,-392.245"/>
<polygon fill="midnightblue" stroke="midnightblue" points="1526.08,-395.616 1535.16,-390.146 1524.65,-388.763 1526.08,-395.616"/>
</g>
<!-- Node17&#45;&gt;Node20 -->
<g id="edge25" class="edge"><title>Node17&#45;&gt;Node20</title>
<path fill="none" stroke="midnightblue" d="M1439.64,-402.572C1469.24,-384.208 1527.85,-347.851 1562.2,-326.542"/>
<polygon fill="midnightblue" stroke="midnightblue" points="1564.13,-329.46 1570.78,-321.214 1560.44,-323.512 1564.13,-329.46"/>
</g>
<!-- Node22&#45;&gt;Node17 -->
<g id="edge32" class="edge"><title>Node22&#45;&gt;Node17</title>
<path fill="none" stroke="midnightblue" d="M1284.57,-482.608C1311.68,-468.79 1357.75,-445.313 1388.37,-429.706"/>
<polygon fill="midnightblue" stroke="midnightblue" points="1390.02,-432.794 1397.34,-425.135 1386.84,-426.557 1390.02,-432.794"/>
</g>
</g>
</svg>
