<?xml version="1.0" encoding="UTF-8" standalone="no"?>
<!DOCTYPE svg PUBLIC "-//W3C//DTD SVG 1.1//EN"
 "http://www.w3.org/Graphics/SVG/1.1/DTD/svg11.dtd">
<!-- Generated by graphviz version 2.38.0 (20140413.2041)
 -->
<!-- Title: MatchesBuilder::readMarkerSet Pages: 1 -->
<svg width="811pt" height="31pt"
 viewBox="0.00 0.00 811.15 31.40" xmlns="http://www.w3.org/2000/svg" xmlns:xlink="http://www.w3.org/1999/xlink">
<g id="graph0" class="graph" transform="scale(1 1) rotate(0) translate(4 27.4)">
<title>MatchesBuilder::readMarkerSet</title>
<polygon fill="white" stroke="none" points="-4,4 -4,-27.4 807.149,-27.4 807.149,4 -4,4"/>
<!-- Node1 -->
<g id="node1" class="node"><title>Node1</title>
<polygon fill="#bfbfbf" stroke="black" points="1.42109e-14,-0.5 1.42109e-14,-22.9 170.603,-22.9 170.603,-0.5 1.42109e-14,-0.5"/>
<text text-anchor="middle" x="85.3016" y="-8.1" font-family="-adobe-utopia-medium-i-normal--0-0-0-0-p-0-iso10646-1" font-size="12.00">MatchesBuilder::readMarkerSet</text>
</g>
<!-- Node2 -->
<g id="node2" class="node"><title>Node2</title>
<g id="a_node2"><a xlink:href="classMatchesBuilder.html#ad627b36445ae9df99c732b23c8b06547" target="_top" xlink:title="MatchesBuilder::readAllMarkers">
<polygon fill="white" stroke="black" points="206.603,-0.5 206.603,-22.9 381.873,-22.9 381.873,-0.5 206.603,-0.5"/>
<text text-anchor="middle" x="294.238" y="-8.1" font-family="-adobe-utopia-medium-i-normal--0-0-0-0-p-0-iso10646-1" font-size="12.00">MatchesBuilder::readAllMarkers</text>
</a>
</g>
</g>
<!-- Node1&#45;&gt;Node2 -->
<g id="edge1" class="edge"><title>Node1&#45;&gt;Node2</title>
<path fill="none" stroke="midnightblue" d="M181.015,-11.7C189.458,-11.7 197.981,-11.7 206.354,-11.7"/>
<polygon fill="midnightblue" stroke="midnightblue" points="180.769,-8.2001 170.769,-11.7 180.769,-15.2001 180.769,-8.2001"/>
</g>
<!-- Node3 -->
<g id="node3" class="node"><title>Node3</title>
<g id="a_node3"><a xlink:href="classMatchesBuilder.html#a31faf645700f38ac0d7d164b57cfebd1" target="_top" xlink:title="MatchesBuilder::buildMatches">
<polygon fill="white" stroke="black" points="417.873,-0.5 417.873,-22.9 582.504,-22.9 582.504,-0.5 417.873,-0.5"/>
<text text-anchor="middle" x="500.189" y="-8.1" font-family="-adobe-utopia-medium-i-normal--0-0-0-0-p-0-iso10646-1" font-size="12.00">MatchesBuilder::buildMatches</text>
</a>
</g>
</g>
<!-- Node2&#45;&gt;Node3 -->
<g id="edge2" class="edge"><title>Node2&#45;&gt;Node3</title>
<path fill="none" stroke="midnightblue" d="M392.05,-11.7C400.619,-11.7 409.237,-11.7 417.661,-11.7"/>
<polygon fill="midnightblue" stroke="midnightblue" points="392.027,-8.2001 382.027,-11.7 392.027,-15.2001 392.027,-8.2001"/>
</g>
<!-- Node4 -->
<g id="node4" class="node"><title>Node4</title>
<g id="a_node4"><a xlink:href="classGERMLINE.html#a7912aa3108f42f42e06c615b460d0565" target="_top" xlink:title="GERMLINE::mine">
<polygon fill="white" stroke="black" points="618.504,-0.5 618.504,-22.9 727.152,-22.9 727.152,-0.5 618.504,-0.5"/>
<text text-anchor="middle" x="672.828" y="-8.1" font-family="-adobe-utopia-medium-i-normal--0-0-0-0-p-0-iso10646-1" font-size="12.00">GERMLINE::mine</text>
</a>
</g>
</g>
<!-- Node3&#45;&gt;Node4 -->
<g id="edge3" class="edge"><title>Node3&#45;&gt;Node4</title>
<path fill="none" stroke="midnightblue" d="M592.513,-11.7C601.359,-11.7 610.118,-11.7 618.407,-11.7"/>
<polygon fill="midnightblue" stroke="midnightblue" points="592.51,-8.2001 582.51,-11.7 592.51,-15.2001 592.51,-8.2001"/>
</g>
<!-- Node5 -->
<g id="node5" class="node"><title>Node5</title>
<g id="a_node5"><a xlink:href="GERMLINE__0001_8cpp.html#a0ddf1224851353fc92bfbff6f499fa97" target="_top" xlink:title="main">
<polygon fill="white" stroke="black" points="763.152,-0.5 763.152,-22.9 803.149,-22.9 803.149,-0.5 763.152,-0.5"/>
<text text-anchor="middle" x="783.151" y="-8.1" font-family="-adobe-utopia-medium-i-normal--0-0-0-0-p-0-iso10646-1" font-size="12.00">main</text>
</a>
</g>
</g>
<!-- Node4&#45;&gt;Node5 -->
<g id="edge4" class="edge"><title>Node4&#45;&gt;Node5</title>
<path fill="none" stroke="midnightblue" d="M737.505,-11.7C746.77,-11.7 755.651,-11.7 763.019,-11.7"/>
<polygon fill="midnightblue" stroke="midnightblue" points="737.355,-8.2001 727.355,-11.7 737.355,-15.2001 737.355,-8.2001"/>
</g>
</g>
</svg>
