<?xml version="1.0" encoding="UTF-8" standalone="no"?>
<!DOCTYPE svg PUBLIC "-//W3C//DTD SVG 1.1//EN"
 "http://www.w3.org/Graphics/SVG/1.1/DTD/svg11.dtd">
<!-- Generated by graphviz version 2.38.0 (20140413.2041)
 -->
<!-- Title: SNPs::nextChromosome Pages: 1 -->
<svg width="363pt" height="31pt"
 viewBox="0.00 0.00 363.31 31.40" xmlns="http://www.w3.org/2000/svg" xmlns:xlink="http://www.w3.org/1999/xlink">
<g id="graph0" class="graph" transform="scale(1 1) rotate(0) translate(4 27.4)">
<title>SNPs::nextChromosome</title>
<polygon fill="white" stroke="none" points="-4,4 -4,-27.4 359.308,-27.4 359.308,4 -4,4"/>
<!-- Node1 -->
<g id="node1" class="node"><title>Node1</title>
<polygon fill="#bfbfbf" stroke="black" points="-2.84217e-14,-0.5 -2.84217e-14,-22.9 134.663,-22.9 134.663,-0.5 -2.84217e-14,-0.5"/>
<text text-anchor="middle" x="67.3316" y="-8.1" font-family="-adobe-utopia-medium-i-normal--0-0-0-0-p-0-iso10646-1" font-size="12.00">SNPs::nextChromosome</text>
</g>
<!-- Node2 -->
<g id="node2" class="node"><title>Node2</title>
<g id="a_node2"><a xlink:href="classGERMLINE.html#a7912aa3108f42f42e06c615b460d0565" target="_top" xlink:title="GERMLINE::mine">
<polygon fill="white" stroke="black" points="170.663,-0.5 170.663,-22.9 279.312,-22.9 279.312,-0.5 170.663,-0.5"/>
<text text-anchor="middle" x="224.987" y="-8.1" font-family="-adobe-utopia-medium-i-normal--0-0-0-0-p-0-iso10646-1" font-size="12.00">GERMLINE::mine</text>
</a>
</g>
</g>
<!-- Node1&#45;&gt;Node2 -->
<g id="edge1" class="edge"><title>Node1&#45;&gt;Node2</title>
<path fill="none" stroke="midnightblue" d="M144.895,-11.7C153.529,-11.7 162.183,-11.7 170.433,-11.7"/>
<polygon fill="midnightblue" stroke="midnightblue" points="144.795,-8.2001 134.795,-11.7 144.795,-15.2001 144.795,-8.2001"/>
</g>
<!-- Node3 -->
<g id="node3" class="node"><title>Node3</title>
<g id="a_node3"><a xlink:href="GERMLINE__0001_8cpp.html#a0ddf1224851353fc92bfbff6f499fa97" target="_top" xlink:title="main">
<polygon fill="white" stroke="black" points="315.312,-0.5 315.312,-22.9 355.308,-22.9 355.308,-0.5 315.312,-0.5"/>
<text text-anchor="middle" x="335.31" y="-8.1" font-family="-adobe-utopia-medium-i-normal--0-0-0-0-p-0-iso10646-1" font-size="12.00">main</text>
</a>
</g>
</g>
<!-- Node2&#45;&gt;Node3 -->
<g id="edge2" class="edge"><title>Node2&#45;&gt;Node3</title>
<path fill="none" stroke="midnightblue" d="M289.664,-11.7C298.929,-11.7 307.811,-11.7 315.178,-11.7"/>
<polygon fill="midnightblue" stroke="midnightblue" points="289.514,-8.2001 279.514,-11.7 289.514,-15.2001 289.514,-8.2001"/>
</g>
</g>
</svg>
