<?xml version="1.0" encoding="UTF-8" standalone="no"?>
<!DOCTYPE svg PUBLIC "-//W3C//DTD SVG 1.1//EN"
 "http://www.w3.org/Graphics/SVG/1.1/DTD/svg11.dtd">
<!-- Generated by graphviz version 2.38.0 (20140413.2041)
 -->
<!-- Title: SNP::setCentimorgan Pages: 1 -->
<svg width="478pt" height="102pt"
 viewBox="0.00 0.00 477.93 101.80" xmlns="http://www.w3.org/2000/svg" xmlns:xlink="http://www.w3.org/1999/xlink">
<g id="graph0" class="graph" transform="scale(1 1) rotate(0) translate(4 97.8)">
<title>SNP::setCentimorgan</title>
<polygon fill="white" stroke="none" points="-4,4 -4,-97.8 473.933,-97.8 473.933,4 -4,4"/>
<!-- Node1 -->
<g id="node1" class="node"><title>Node1</title>
<polygon fill="#bfbfbf" stroke="black" points="1.42109e-14,-36.7 1.42109e-14,-59.1 120.658,-59.1 120.658,-36.7 1.42109e-14,-36.7"/>
<text text-anchor="middle" x="60.329" y="-44.3" font-family="-adobe-utopia-medium-i-normal--0-0-0-0-p-0-iso10646-1" font-size="12.00">SNP::setCentimorgan</text>
</g>
<!-- Node2 -->
<g id="node2" class="node"><title>Node2</title>
<g id="a_node2"><a xlink:href="classSNPs.html#a5ebf04c1e5d71710bd68af7a556864f9" target="_top" xlink:title="SNPs::processLegendFile">
<polygon fill="white" stroke="black" points="156.658,-59.7 156.658,-82.1 296.632,-82.1 296.632,-59.7 156.658,-59.7"/>
<text text-anchor="middle" x="226.645" y="-67.3" font-family="-adobe-utopia-medium-i-normal--0-0-0-0-p-0-iso10646-1" font-size="12.00">SNPs::processLegendFile</text>
</a>
</g>
</g>
<!-- Node1&#45;&gt;Node2 -->
<g id="edge1" class="edge"><title>Node1&#45;&gt;Node2</title>
<path fill="none" stroke="midnightblue" d="M131.196,-57.6796C139.551,-58.8491 148.079,-60.0428 156.424,-61.2109"/>
<polygon fill="midnightblue" stroke="midnightblue" points="131.504,-54.1887 121.116,-56.2686 130.534,-61.1211 131.504,-54.1887"/>
</g>
<!-- Node4 -->
<g id="node4" class="node"><title>Node4</title>
<g id="a_node4"><a xlink:href="classSNPs.html#a0f26b6fbd02cc5afd8d423b411d304e8" target="_top" xlink:title="SNPs::processMAPFile">
<polygon fill="white" stroke="black" points="161.65,-14.7 161.65,-37.1 291.64,-37.1 291.64,-14.7 161.65,-14.7"/>
<text text-anchor="middle" x="226.645" y="-22.3" font-family="-adobe-utopia-medium-i-normal--0-0-0-0-p-0-iso10646-1" font-size="12.00">SNPs::processMAPFile</text>
</a>
</g>
</g>
<!-- Node1&#45;&gt;Node4 -->
<g id="edge3" class="edge"><title>Node1&#45;&gt;Node4</title>
<path fill="none" stroke="midnightblue" d="M131.089,-38.56C141.169,-37.2103 151.505,-35.8264 161.47,-34.4923"/>
<polygon fill="midnightblue" stroke="midnightblue" points="130.563,-35.0991 121.116,-39.8953 131.492,-42.0372 130.563,-35.0991"/>
</g>
<!-- Node3 -->
<g id="node3" class="node"><title>Node3</title>
<g id="a_node3"><a xlink:href="classHMIndividualsExtractor.html#af7aaa5ed222fd00cc2c36e69a01a3bb3" target="_top" xlink:title="HMIndividualsExtractor\l::loadInput">
<polygon fill="white" stroke="black" points="334.3,-56.5 334.3,-93.3 468.266,-93.3 468.266,-56.5 334.3,-56.5"/>
<text text-anchor="start" x="342.3" y="-78.5" font-family="-adobe-utopia-medium-i-normal--0-0-0-0-p-0-iso10646-1" font-size="12.00">HMIndividualsExtractor</text>
<text text-anchor="middle" x="401.283" y="-64.1" font-family="-adobe-utopia-medium-i-normal--0-0-0-0-p-0-iso10646-1" font-size="12.00">::loadInput</text>
</a>
</g>
</g>
<!-- Node2&#45;&gt;Node3 -->
<g id="edge2" class="edge"><title>Node2&#45;&gt;Node3</title>
<path fill="none" stroke="midnightblue" d="M307.036,-72.7395C316.099,-72.9495 325.264,-73.1618 334.129,-73.3672"/>
<polygon fill="midnightblue" stroke="midnightblue" points="306.947,-69.2366 296.869,-72.5039 306.785,-76.2347 306.947,-69.2366"/>
</g>
<!-- Node5 -->
<g id="node5" class="node"><title>Node5</title>
<g id="a_node5"><a xlink:href="classPEDIndividualsExtractor.html#aaaae7102f9e3db6f900b3d56f559dc91" target="_top" xlink:title="PEDIndividualsExtractor\l::loadInput">
<polygon fill="white" stroke="black" points="332.632,-0.5 332.632,-37.3 469.933,-37.3 469.933,-0.5 332.632,-0.5"/>
<text text-anchor="start" x="340.632" y="-22.5" font-family="-adobe-utopia-medium-i-normal--0-0-0-0-p-0-iso10646-1" font-size="12.00">PEDIndividualsExtractor</text>
<text text-anchor="middle" x="401.283" y="-8.1" font-family="-adobe-utopia-medium-i-normal--0-0-0-0-p-0-iso10646-1" font-size="12.00">::loadInput</text>
</a>
</g>
</g>
<!-- Node4&#45;&gt;Node5 -->
<g id="edge4" class="edge"><title>Node4&#45;&gt;Node5</title>
<path fill="none" stroke="midnightblue" d="M301.969,-22.8864C312.105,-22.4754 322.466,-22.0553 332.478,-21.6493"/>
<polygon fill="midnightblue" stroke="midnightblue" points="301.779,-19.3911 291.929,-23.2935 302.063,-26.3853 301.779,-19.3911"/>
</g>
</g>
</svg>
