<?xml version="1.0" encoding="UTF-8" standalone="no"?>
<!DOCTYPE svg PUBLIC "-//W3C//DTD SVG 1.1//EN"
 "http://www.w3.org/Graphics/SVG/1.1/DTD/svg11.dtd">
<!-- Generated by graphviz version 2.38.0 (20140413.2041)
 -->
<!-- Title: Individual Pages: 1 -->
<svg width="289pt" height="258pt"
 viewBox="0.00 0.00 289.49 258.20" xmlns="http://www.w3.org/2000/svg" xmlns:xlink="http://www.w3.org/1999/xlink">
<g id="graph0" class="graph" transform="scale(1 1) rotate(0) translate(4 254.2)">
<title>Individual</title>
<polygon fill="white" stroke="none" points="-4,4 -4,-254.2 285.487,-254.2 285.487,4 -4,4"/>
<!-- Node1 -->
<g id="node1" class="node"><title>Node1</title>
<polygon fill="#bfbfbf" stroke="black" points="73.837,-77 73.837,-99.4 139.163,-99.4 139.163,-77 73.837,-77"/>
<text text-anchor="middle" x="106.5" y="-84.6" font-family="-adobe-utopia-medium-i-normal--0-0-0-0-p-0-iso10646-1" font-size="12.00">Individual</text>
</g>
<!-- Node7 -->
<g id="node7" class="node"><title>Node7</title>
<g id="a_node7"><a xlink:href="classMatch.html" target="_top" xlink:title="Match">
<polygon fill="white" stroke="black" points="1.1724,-0.5 1.1724,-22.9 47.8276,-22.9 47.8276,-0.5 1.1724,-0.5"/>
<text text-anchor="middle" x="24.5" y="-8.1" font-family="-adobe-utopia-medium-i-normal--0-0-0-0-p-0-iso10646-1" font-size="12.00">Match</text>
</a>
</g>
</g>
<!-- Node1&#45;&gt;Node7 -->
<g id="edge7" class="edge"><title>Node1&#45;&gt;Node7</title>
<path fill="none" stroke="#9a32cd" stroke-dasharray="5,2" d="M100.847,-67.3286C97.5346,-58.5164 92.578,-48.5481 85.5,-41.4 75.2062,-31.0043 60.4214,-23.918 47.9856,-19.3879"/>
<polygon fill="#9a32cd" stroke="#9a32cd" points="97.5504,-68.5063 104.01,-76.9042 104.197,-66.311 97.5504,-68.5063"/>
<text text-anchor="middle" x="108.663" y="-45" font-family="-adobe-utopia-medium-i-normal--0-0-0-0-p-0-iso10646-1" font-size="12.00"> node</text>
</g>
<!-- Node2 -->
<g id="node2" class="node"><title>Node2</title>
<polygon fill="white" stroke="#bfbfbf" points="59.8344,-153.5 59.8344,-175.9 103.166,-175.9 103.166,-153.5 59.8344,-153.5"/>
<text text-anchor="middle" x="81.5" y="-161.1" font-family="-adobe-utopia-medium-i-normal--0-0-0-0-p-0-iso10646-1" font-size="12.00">string</text>
</g>
<!-- Node2&#45;&gt;Node1 -->
<g id="edge1" class="edge"><title>Node2&#45;&gt;Node1</title>
<path fill="none" stroke="#9a32cd" stroke-dasharray="5,2" d="M88.2894,-143.468C93.066,-129.233 99.2597,-110.776 103.053,-99.4709"/>
<polygon fill="#9a32cd" stroke="#9a32cd" points="84.8394,-142.747 84.9761,-153.341 91.4757,-144.974 84.8394,-142.747"/>
<text text-anchor="middle" x="103.329" y="-124.2" font-family="-adobe-utopia-medium-i-normal--0-0-0-0-p-0-iso10646-1" font-size="12.00"> ID</text>
</g>
<!-- Node3 -->
<g id="node3" class="node"><title>Node3</title>
<g id="a_node3"><a xlink:href="classChromosome.html" target="_top" xlink:title="Chromosome">
<polygon fill="white" stroke="black" points="121.17,-153.5 121.17,-175.9 201.83,-175.9 201.83,-153.5 121.17,-153.5"/>
<text text-anchor="middle" x="161.5" y="-161.1" font-family="-adobe-utopia-medium-i-normal--0-0-0-0-p-0-iso10646-1" font-size="12.00">Chromosome</text>
</a>
</g>
</g>
<!-- Node3&#45;&gt;Node1 -->
<g id="edge2" class="edge"><title>Node3&#45;&gt;Node1</title>
<path fill="none" stroke="#9a32cd" stroke-dasharray="5,2" d="M147.785,-145.122C137.132,-130.692 122.756,-111.22 114.083,-99.4709"/>
<polygon fill="#9a32cd" stroke="#9a32cd" points="145.097,-147.375 153.852,-153.341 150.729,-143.217 145.097,-147.375"/>
<text text-anchor="middle" x="144" y="-124.2" font-family="-adobe-utopia-medium-i-normal--0-0-0-0-p-0-iso10646-1" font-size="12.00"> h</text>
</g>
<!-- Node4 -->
<g id="node4" class="node"><title>Node4</title>
<polygon fill="white" stroke="#bfbfbf" points="98.9204,-227.3 98.9204,-249.7 224.08,-249.7 224.08,-227.3 98.9204,-227.3"/>
<text text-anchor="middle" x="161.5" y="-234.9" font-family="-adobe-utopia-medium-i-normal--0-0-0-0-p-0-iso10646-1" font-size="12.00">vector&lt; MarkerSet * &gt;</text>
</g>
<!-- Node4&#45;&gt;Node3 -->
<g id="edge3" class="edge"><title>Node4&#45;&gt;Node3</title>
<path fill="none" stroke="#9a32cd" stroke-dasharray="5,2" d="M161.5,-216.992C161.5,-203.577 161.5,-186.624 161.5,-175.968"/>
<polygon fill="#9a32cd" stroke="#9a32cd" points="158,-217.213 161.5,-227.213 165,-217.213 158,-217.213"/>
<text text-anchor="middle" x="193.992" y="-198" font-family="-adobe-utopia-medium-i-normal--0-0-0-0-p-0-iso10646-1" font-size="12.00"> chromosome</text>
</g>
<!-- Node5 -->
<g id="node5" class="node"><title>Node5</title>
<polygon fill="white" stroke="#bfbfbf" points="0,-153.5 0,-175.9 29,-175.9 29,-153.5 0,-153.5"/>
<text text-anchor="middle" x="14.3348" y="-161.1" font-family="-adobe-utopia-medium-i-normal--0-0-0-0-p-0-iso10646-1" font-size="12.00">int</text>
</g>
<!-- Node5&#45;&gt;Node1 -->
<g id="edge4" class="edge"><title>Node5&#45;&gt;Node1</title>
<path fill="none" stroke="#9a32cd" stroke-dasharray="5,2" d="M18.5095,-143.465C20.9479,-135.521 24.8047,-126.832 30.8472,-120.6 42.33,-108.757 58.9397,-101.199 73.6724,-96.4755"/>
<polygon fill="#9a32cd" stroke="#9a32cd" points="15.1032,-142.659 16.0563,-153.211 21.8914,-144.368 15.1032,-142.659"/>
<text text-anchor="middle" x="60.3264" y="-124.2" font-family="-adobe-utopia-medium-i-normal--0-0-0-0-p-0-iso10646-1" font-size="12.00"> numeric_id</text>
</g>
<!-- Node5&#45;&gt;Node7 -->
<g id="edge8" class="edge"><title>Node5&#45;&gt;Node7</title>
<path fill="none" stroke="#9a32cd" stroke-dasharray="5,2" d="M13.2544,-143.319C12.1275,-118.94 11.3403,-76.9587 16.5,-41.4 17.4062,-35.1548 19.2656,-28.344 20.9638,-22.925"/>
<polygon fill="#9a32cd" stroke="#9a32cd" points="9.76863,-143.682 13.7931,-153.483 16.7588,-143.311 9.76863,-143.682"/>
<text text-anchor="middle" x="33.8298" y="-91.8" font-family="-adobe-utopia-medium-i-normal--0-0-0-0-p-0-iso10646-1" font-size="12.00"> end_ms</text>
<text text-anchor="middle" x="33.8298" y="-77.4" font-family="-adobe-utopia-medium-i-normal--0-0-0-0-p-0-iso10646-1" font-size="12.00">start_ms</text>
</g>
<!-- Node6 -->
<g id="node6" class="node"><title>Node6</title>
<polygon fill="white" stroke="#bfbfbf" points="219.513,-153.5 219.513,-175.9 281.487,-175.9 281.487,-153.5 219.513,-153.5"/>
<text text-anchor="middle" x="250.5" y="-161.1" font-family="-adobe-utopia-medium-i-normal--0-0-0-0-p-0-iso10646-1" font-size="12.00">streamoff</text>
</g>
<!-- Node6&#45;&gt;Node1 -->
<g id="edge5" class="edge"><title>Node6&#45;&gt;Node1</title>
<path fill="none" stroke="#9a32cd" stroke-dasharray="5,2" d="M221.791,-148.847C193.554,-134.238 151.188,-112.32 126.445,-99.5185"/>
<polygon fill="#9a32cd" stroke="#9a32cd" points="220.289,-152.011 230.779,-153.497 223.506,-145.794 220.289,-152.011"/>
<text text-anchor="middle" x="206.659" y="-124.2" font-family="-adobe-utopia-medium-i-normal--0-0-0-0-p-0-iso10646-1" font-size="12.00"> offset</text>
</g>
<!-- Node7&#45;&gt;Node1 -->
<g id="edge6" class="edge"><title>Node7&#45;&gt;Node1</title>
<path fill="none" stroke="#9a32cd" stroke-dasharray="5,2" d="M20.257,-33.0433C19.75,-40.7814 20.647,-49.2921 25.1868,-55.8 36.1825,-71.5625 56.2803,-79.4134 73.7431,-83.3233"/>
<polygon fill="#9a32cd" stroke="#9a32cd" points="23.7555,-33.2972 21.675,-22.9087 16.823,-32.3272 23.7555,-33.2972"/>
<text text-anchor="middle" x="55.6566" y="-45" font-family="-adobe-utopia-medium-i-normal--0-0-0-0-p-0-iso10646-1" font-size="12.00"> all_matches</text>
</g>
</g>
</svg>
