<?xml version="1.0" encoding="UTF-8" standalone="no"?>
<!DOCTYPE svg PUBLIC "-//W3C//DTD SVG 1.1//EN"
 "http://www.w3.org/Graphics/SVG/1.1/DTD/svg11.dtd">
<!-- Generated by graphviz version 2.38.0 (20140413.2041)
 -->
<!-- Title: Match::approxEqual Pages: 1 -->
<svg width="1452pt" height="113pt"
 viewBox="0.00 0.00 1451.73 113.40" xmlns="http://www.w3.org/2000/svg" xmlns:xlink="http://www.w3.org/1999/xlink">
<g id="graph0" class="graph" transform="scale(1 1) rotate(0) translate(4 109.4)">
<title>Match::approxEqual</title>
<polygon fill="white" stroke="none" points="-4,4 -4,-109.4 1447.73,-109.4 1447.73,4 -4,4"/>
<!-- Node1 -->
<g id="node1" class="node"><title>Node1</title>
<polygon fill="#bfbfbf" stroke="black" points="8.52651e-14,-61.5 8.52651e-14,-83.9 114.639,-83.9 114.639,-61.5 8.52651e-14,-61.5"/>
<text text-anchor="middle" x="57.3194" y="-69.1" font-family="-adobe-utopia-medium-i-normal--0-0-0-0-p-0-iso10646-1" font-size="12.00">Match::approxEqual</text>
</g>
<!-- Node2 -->
<g id="node2" class="node"><title>Node2</title>
<g id="a_node2"><a xlink:href="classIndividual.html#a37fd25dcc27a8613ca4e5a8d9bcbaca6" target="_top" xlink:title="Individual::assertShares">
<polygon fill="white" stroke="black" points="495.912,-82.5 495.912,-104.9 627.21,-104.9 627.21,-82.5 495.912,-82.5"/>
<text text-anchor="middle" x="561.561" y="-90.1" font-family="-adobe-utopia-medium-i-normal--0-0-0-0-p-0-iso10646-1" font-size="12.00">Individual::assertShares</text>
</a>
</g>
</g>
<!-- Node1&#45;&gt;Node2 -->
<g id="edge1" class="edge"><title>Node1&#45;&gt;Node2</title>
<path fill="none" stroke="midnightblue" d="M125.213,-75.497C222.07,-79.5468 400.207,-86.9952 495.835,-90.9936"/>
<polygon fill="midnightblue" stroke="midnightblue" points="125.094,-71.9891 114.957,-75.0681 124.802,-78.9829 125.094,-71.9891"/>
</g>
<!-- Node8 -->
<g id="node8" class="node"><title>Node8</title>
<g id="a_node8"><a xlink:href="classMatch.html#afb81327901b29b02ff117406cdec0a4e" target="_top" xlink:title="Match::extendBack">
<polygon fill="white" stroke="black" points="150.639,-41.5 150.639,-63.9 260.608,-63.9 260.608,-41.5 150.639,-41.5"/>
<text text-anchor="middle" x="205.624" y="-49.1" font-family="-adobe-utopia-medium-i-normal--0-0-0-0-p-0-iso10646-1" font-size="12.00">Match::extendBack</text>
</a>
</g>
</g>
<!-- Node1&#45;&gt;Node8 -->
<g id="edge7" class="edge"><title>Node1&#45;&gt;Node8</title>
<path fill="none" stroke="midnightblue" d="M124.904,-63.5978C133.511,-62.4211 142.241,-61.2278 150.611,-60.0836"/>
<polygon fill="midnightblue" stroke="midnightblue" points="124.318,-60.1452 114.884,-64.9675 125.266,-67.0807 124.318,-60.1452"/>
</g>
<!-- Node3 -->
<g id="node3" class="node"><title>Node3</title>
<g id="a_node3"><a xlink:href="classMatchesBuilder.html#af44853a4e7540f4f54a802a5d0c45faf" target="_top" xlink:title="MatchesBuilder::matchMarkerSet">
<polygon fill="white" stroke="black" points="663.21,-61.5 663.21,-83.9 842.488,-83.9 842.488,-61.5 663.21,-61.5"/>
<text text-anchor="middle" x="752.849" y="-69.1" font-family="-adobe-utopia-medium-i-normal--0-0-0-0-p-0-iso10646-1" font-size="12.00">MatchesBuilder::matchMarkerSet</text>
</a>
</g>
</g>
<!-- Node2&#45;&gt;Node3 -->
<g id="edge2" class="edge"><title>Node2&#45;&gt;Node3</title>
<path fill="none" stroke="midnightblue" d="M637.513,-85.3847C645.874,-84.4571 654.45,-83.5057 662.964,-82.5611"/>
<polygon fill="midnightblue" stroke="midnightblue" points="636.992,-81.921 627.439,-86.5024 637.764,-88.8783 636.992,-81.921"/>
</g>
<!-- Node4 -->
<g id="node4" class="node"><title>Node4</title>
<g id="a_node4"><a xlink:href="classMatchesBuilder.html#ae8d8a0ff7f0726406e83d4fa55a96bf4" target="_top" xlink:title="MatchesBuilder::matchAll\lMarkers">
<polygon fill="white" stroke="black" points="878.488,-54.3 878.488,-91.1 1022.46,-91.1 1022.46,-54.3 878.488,-54.3"/>
<text text-anchor="start" x="886.488" y="-76.3" font-family="-adobe-utopia-medium-i-normal--0-0-0-0-p-0-iso10646-1" font-size="12.00">MatchesBuilder::matchAll</text>
<text text-anchor="middle" x="950.472" y="-61.9" font-family="-adobe-utopia-medium-i-normal--0-0-0-0-p-0-iso10646-1" font-size="12.00">Markers</text>
</a>
</g>
</g>
<!-- Node3&#45;&gt;Node4 -->
<g id="edge3" class="edge"><title>Node3&#45;&gt;Node4</title>
<path fill="none" stroke="midnightblue" d="M852.681,-72.7C861.361,-72.7 870.031,-72.7 878.416,-72.7"/>
<polygon fill="midnightblue" stroke="midnightblue" points="852.503,-69.2001 842.503,-72.7 852.503,-76.2001 852.503,-69.2001"/>
</g>
<!-- Node5 -->
<g id="node5" class="node"><title>Node5</title>
<g id="a_node5"><a xlink:href="classMatchesBuilder.html#a31faf645700f38ac0d7d164b57cfebd1" target="_top" xlink:title="MatchesBuilder::buildMatches">
<polygon fill="white" stroke="black" points="1058.46,-61.5 1058.46,-83.9 1223.09,-83.9 1223.09,-61.5 1058.46,-61.5"/>
<text text-anchor="middle" x="1140.77" y="-69.1" font-family="-adobe-utopia-medium-i-normal--0-0-0-0-p-0-iso10646-1" font-size="12.00">MatchesBuilder::buildMatches</text>
</a>
</g>
</g>
<!-- Node4&#45;&gt;Node5 -->
<g id="edge4" class="edge"><title>Node4&#45;&gt;Node5</title>
<path fill="none" stroke="midnightblue" d="M1032.88,-72.7C1041.33,-72.7 1049.93,-72.7 1058.38,-72.7"/>
<polygon fill="midnightblue" stroke="midnightblue" points="1032.66,-69.2001 1022.66,-72.7 1032.66,-76.2001 1032.66,-69.2001"/>
</g>
<!-- Node6 -->
<g id="node6" class="node"><title>Node6</title>
<g id="a_node6"><a xlink:href="classGERMLINE.html#a7912aa3108f42f42e06c615b460d0565" target="_top" xlink:title="GERMLINE::mine">
<polygon fill="white" stroke="black" points="1259.09,-61.5 1259.09,-83.9 1367.74,-83.9 1367.74,-61.5 1259.09,-61.5"/>
<text text-anchor="middle" x="1313.41" y="-69.1" font-family="-adobe-utopia-medium-i-normal--0-0-0-0-p-0-iso10646-1" font-size="12.00">GERMLINE::mine</text>
</a>
</g>
</g>
<!-- Node5&#45;&gt;Node6 -->
<g id="edge5" class="edge"><title>Node5&#45;&gt;Node6</title>
<path fill="none" stroke="midnightblue" d="M1233.1,-72.7C1241.94,-72.7 1250.7,-72.7 1258.99,-72.7"/>
<polygon fill="midnightblue" stroke="midnightblue" points="1233.09,-69.2001 1223.09,-72.7 1233.09,-76.2001 1233.09,-69.2001"/>
</g>
<!-- Node7 -->
<g id="node7" class="node"><title>Node7</title>
<g id="a_node7"><a xlink:href="GERMLINE__0001_8cpp.html#a0ddf1224851353fc92bfbff6f499fa97" target="_top" xlink:title="main">
<polygon fill="white" stroke="black" points="1403.74,-61.5 1403.74,-83.9 1443.73,-83.9 1443.73,-61.5 1403.74,-61.5"/>
<text text-anchor="middle" x="1423.73" y="-69.1" font-family="-adobe-utopia-medium-i-normal--0-0-0-0-p-0-iso10646-1" font-size="12.00">main</text>
</a>
</g>
</g>
<!-- Node6&#45;&gt;Node7 -->
<g id="edge6" class="edge"><title>Node6&#45;&gt;Node7</title>
<path fill="none" stroke="midnightblue" d="M1378.09,-72.7C1387.35,-72.7 1396.23,-72.7 1403.6,-72.7"/>
<polygon fill="midnightblue" stroke="midnightblue" points="1377.94,-69.2001 1367.94,-72.7 1377.94,-76.2001 1377.94,-69.2001"/>
</g>
<!-- Node9 -->
<g id="node9" class="node"><title>Node9</title>
<g id="a_node9"><a xlink:href="classIndividual.html#a6e75847d9fdd923bd0cf7a9ec5e2b1a4" target="_top" xlink:title="Individual::assertHomozygous">
<polygon fill="white" stroke="black" points="296.608,-41.5 296.608,-63.9 459.912,-63.9 459.912,-41.5 296.608,-41.5"/>
<text text-anchor="middle" x="378.26" y="-49.1" font-family="-adobe-utopia-medium-i-normal--0-0-0-0-p-0-iso10646-1" font-size="12.00">Individual::assertHomozygous</text>
</a>
</g>
</g>
<!-- Node8&#45;&gt;Node9 -->
<g id="edge8" class="edge"><title>Node8&#45;&gt;Node9</title>
<path fill="none" stroke="midnightblue" d="M270.715,-52.7C279.135,-52.7 287.85,-52.7 296.502,-52.7"/>
<polygon fill="midnightblue" stroke="midnightblue" points="270.614,-49.2001 260.614,-52.7 270.614,-56.2001 270.614,-49.2001"/>
</g>
<!-- Node11 -->
<g id="node11" class="node"><title>Node11</title>
<g id="a_node11"><a xlink:href="classShare.html#aef9bc1c8649dbe3039e1a35ea3050715" target="_top" xlink:title="Share::assertMatches">
<polygon fill="white" stroke="black" points="319.283,-0.5 319.283,-22.9 437.237,-22.9 437.237,-0.5 319.283,-0.5"/>
<text text-anchor="middle" x="378.26" y="-8.1" font-family="-adobe-utopia-medium-i-normal--0-0-0-0-p-0-iso10646-1" font-size="12.00">Share::assertMatches</text>
</a>
</g>
</g>
<!-- Node8&#45;&gt;Node11 -->
<g id="edge11" class="edge"><title>Node8&#45;&gt;Node11</title>
<path fill="none" stroke="midnightblue" d="M263.054,-39.141C284.882,-33.8964 309.57,-27.9645 330.393,-22.9611"/>
<polygon fill="midnightblue" stroke="midnightblue" points="262.156,-35.7571 253.251,-41.4966 263.792,-42.5634 262.156,-35.7571"/>
</g>
<!-- Node10 -->
<g id="node10" class="node"><title>Node10</title>
<g id="a_node10"><a xlink:href="classMatchFactory.html#aa1f3b5e8f0e2fbd5ac2dcbc24a9e6812" target="_top" xlink:title="MatchFactory::hash">
<polygon fill="white" stroke="black" points="505.575,-41.5 505.575,-63.9 617.547,-63.9 617.547,-41.5 505.575,-41.5"/>
<text text-anchor="middle" x="561.561" y="-49.1" font-family="-adobe-utopia-medium-i-normal--0-0-0-0-p-0-iso10646-1" font-size="12.00">MatchFactory::hash</text>
</a>
</g>
</g>
<!-- Node9&#45;&gt;Node10 -->
<g id="edge9" class="edge"><title>Node9&#45;&gt;Node10</title>
<path fill="none" stroke="midnightblue" d="M470.176,-52.7C482.19,-52.7 494.197,-52.7 505.354,-52.7"/>
<polygon fill="midnightblue" stroke="midnightblue" points="470.101,-49.2001 460.101,-52.7 470.101,-56.2001 470.101,-49.2001"/>
</g>
<!-- Node10&#45;&gt;Node3 -->
<g id="edge10" class="edge"><title>Node10&#45;&gt;Node3</title>
<path fill="none" stroke="midnightblue" d="M627.841,-59.5974C639.247,-60.8025 651.284,-62.0743 663.194,-63.3328"/>
<polygon fill="midnightblue" stroke="midnightblue" points="627.878,-56.0819 617.565,-58.5117 627.142,-63.0431 627.878,-56.0819"/>
</g>
</g>
</svg>
