<?xml version="1.0" encoding="UTF-8" standalone="no"?>
<!DOCTYPE svg PUBLIC "-//W3C//DTD SVG 1.1//EN"
 "http://www.w3.org/Graphics/SVG/1.1/DTD/svg11.dtd">
<!-- Generated by graphviz version 2.38.0 (20140413.2041)
 -->
<!-- Title: Match::extendBack Pages: 1 -->
<svg width="1282pt" height="80pt"
 viewBox="0.00 0.00 1281.77 79.60" xmlns="http://www.w3.org/2000/svg" xmlns:xlink="http://www.w3.org/1999/xlink">
<g id="graph0" class="graph" transform="scale(1 1) rotate(0) translate(4 75.6)">
<title>Match::extendBack</title>
<polygon fill="white" stroke="none" points="-4,4 -4,-75.6 1277.77,-75.6 1277.77,4 -4,4"/>
<!-- Node1 -->
<g id="node1" class="node"><title>Node1</title>
<polygon fill="#bfbfbf" stroke="black" points="-4.9738e-14,-20.5 -4.9738e-14,-42.9 109.97,-42.9 109.97,-20.5 -4.9738e-14,-20.5"/>
<text text-anchor="middle" x="54.9848" y="-28.1" font-family="-adobe-utopia-medium-i-normal--0-0-0-0-p-0-iso10646-1" font-size="12.00">Match::extendBack</text>
</g>
<!-- Node2 -->
<g id="node2" class="node"><title>Node2</title>
<g id="a_node2"><a xlink:href="classIndividual.html#a6e75847d9fdd923bd0cf7a9ec5e2b1a4" target="_top" xlink:title="Individual::assertHomozygous">
<polygon fill="white" stroke="black" points="145.97,-41.5 145.97,-63.9 309.273,-63.9 309.273,-41.5 145.97,-41.5"/>
<text text-anchor="middle" x="227.621" y="-49.1" font-family="-adobe-utopia-medium-i-normal--0-0-0-0-p-0-iso10646-1" font-size="12.00">Individual::assertHomozygous</text>
</a>
</g>
</g>
<!-- Node1&#45;&gt;Node2 -->
<g id="edge1" class="edge"><title>Node1&#45;&gt;Node2</title>
<path fill="none" stroke="midnightblue" d="M120.076,-39.5876C128.496,-40.6239 137.211,-41.6964 145.863,-42.7612"/>
<polygon fill="midnightblue" stroke="midnightblue" points="120.328,-36.0923 109.975,-38.3445 119.473,-43.0399 120.328,-36.0923"/>
</g>
<!-- Node9 -->
<g id="node9" class="node"><title>Node9</title>
<g id="a_node9"><a xlink:href="classShare.html#aef9bc1c8649dbe3039e1a35ea3050715" target="_top" xlink:title="Share::assertMatches">
<polygon fill="white" stroke="black" points="168.644,-0.5 168.644,-22.9 286.599,-22.9 286.599,-0.5 168.644,-0.5"/>
<text text-anchor="middle" x="227.621" y="-8.1" font-family="-adobe-utopia-medium-i-normal--0-0-0-0-p-0-iso10646-1" font-size="12.00">Share::assertMatches</text>
</a>
</g>
</g>
<!-- Node1&#45;&gt;Node9 -->
<g id="edge8" class="edge"><title>Node1&#45;&gt;Node9</title>
<path fill="none" stroke="midnightblue" d="M120.228,-24.1702C136.095,-22.3104 153,-20.3291 168.554,-18.506"/>
<polygon fill="midnightblue" stroke="midnightblue" points="119.5,-20.7315 109.975,-25.3719 120.315,-27.6839 119.5,-20.7315"/>
</g>
<!-- Node3 -->
<g id="node3" class="node"><title>Node3</title>
<g id="a_node3"><a xlink:href="classMatchFactory.html#aa1f3b5e8f0e2fbd5ac2dcbc24a9e6812" target="_top" xlink:title="MatchFactory::hash">
<polygon fill="white" stroke="black" points="345.273,-41.5 345.273,-63.9 457.246,-63.9 457.246,-41.5 345.273,-41.5"/>
<text text-anchor="middle" x="401.259" y="-49.1" font-family="-adobe-utopia-medium-i-normal--0-0-0-0-p-0-iso10646-1" font-size="12.00">MatchFactory::hash</text>
</a>
</g>
</g>
<!-- Node2&#45;&gt;Node3 -->
<g id="edge2" class="edge"><title>Node2&#45;&gt;Node3</title>
<path fill="none" stroke="midnightblue" d="M319.549,-52.7C328.173,-52.7 336.727,-52.7 344.863,-52.7"/>
<polygon fill="midnightblue" stroke="midnightblue" points="319.415,-49.2001 309.415,-52.7 319.414,-56.2001 319.415,-49.2001"/>
</g>
<!-- Node4 -->
<g id="node4" class="node"><title>Node4</title>
<g id="a_node4"><a xlink:href="classMatchesBuilder.html#af44853a4e7540f4f54a802a5d0c45faf" target="_top" xlink:title="MatchesBuilder::matchMarkerSet">
<polygon fill="white" stroke="black" points="493.246,-41.5 493.246,-63.9 672.524,-63.9 672.524,-41.5 493.246,-41.5"/>
<text text-anchor="middle" x="582.885" y="-49.1" font-family="-adobe-utopia-medium-i-normal--0-0-0-0-p-0-iso10646-1" font-size="12.00">MatchesBuilder::matchMarkerSet</text>
</a>
</g>
</g>
<!-- Node3&#45;&gt;Node4 -->
<g id="edge3" class="edge"><title>Node3&#45;&gt;Node4</title>
<path fill="none" stroke="midnightblue" d="M467.827,-52.7C476.027,-52.7 484.519,-52.7 493,-52.7"/>
<polygon fill="midnightblue" stroke="midnightblue" points="467.619,-49.2001 457.619,-52.7 467.619,-56.2001 467.619,-49.2001"/>
</g>
<!-- Node5 -->
<g id="node5" class="node"><title>Node5</title>
<g id="a_node5"><a xlink:href="classMatchesBuilder.html#ae8d8a0ff7f0726406e83d4fa55a96bf4" target="_top" xlink:title="MatchesBuilder::matchAll\lMarkers">
<polygon fill="white" stroke="black" points="708.524,-34.3 708.524,-71.1 852.492,-71.1 852.492,-34.3 708.524,-34.3"/>
<text text-anchor="start" x="716.524" y="-56.3" font-family="-adobe-utopia-medium-i-normal--0-0-0-0-p-0-iso10646-1" font-size="12.00">MatchesBuilder::matchAll</text>
<text text-anchor="middle" x="780.508" y="-41.9" font-family="-adobe-utopia-medium-i-normal--0-0-0-0-p-0-iso10646-1" font-size="12.00">Markers</text>
</a>
</g>
</g>
<!-- Node4&#45;&gt;Node5 -->
<g id="edge4" class="edge"><title>Node4&#45;&gt;Node5</title>
<path fill="none" stroke="midnightblue" d="M682.716,-52.7C691.396,-52.7 700.066,-52.7 708.451,-52.7"/>
<polygon fill="midnightblue" stroke="midnightblue" points="682.538,-49.2001 672.538,-52.7 682.538,-56.2001 682.538,-49.2001"/>
</g>
<!-- Node6 -->
<g id="node6" class="node"><title>Node6</title>
<g id="a_node6"><a xlink:href="classMatchesBuilder.html#a31faf645700f38ac0d7d164b57cfebd1" target="_top" xlink:title="MatchesBuilder::buildMatches">
<polygon fill="white" stroke="black" points="888.492,-41.5 888.492,-63.9 1053.12,-63.9 1053.12,-41.5 888.492,-41.5"/>
<text text-anchor="middle" x="970.807" y="-49.1" font-family="-adobe-utopia-medium-i-normal--0-0-0-0-p-0-iso10646-1" font-size="12.00">MatchesBuilder::buildMatches</text>
</a>
</g>
</g>
<!-- Node5&#45;&gt;Node6 -->
<g id="edge5" class="edge"><title>Node5&#45;&gt;Node6</title>
<path fill="none" stroke="midnightblue" d="M862.918,-52.7C871.37,-52.7 879.962,-52.7 888.414,-52.7"/>
<polygon fill="midnightblue" stroke="midnightblue" points="862.696,-49.2001 852.696,-52.7 862.695,-56.2001 862.696,-49.2001"/>
</g>
<!-- Node7 -->
<g id="node7" class="node"><title>Node7</title>
<g id="a_node7"><a xlink:href="classGERMLINE.html#a7912aa3108f42f42e06c615b460d0565" target="_top" xlink:title="GERMLINE::mine">
<polygon fill="white" stroke="black" points="1089.12,-41.5 1089.12,-63.9 1197.77,-63.9 1197.77,-41.5 1089.12,-41.5"/>
<text text-anchor="middle" x="1143.45" y="-49.1" font-family="-adobe-utopia-medium-i-normal--0-0-0-0-p-0-iso10646-1" font-size="12.00">GERMLINE::mine</text>
</a>
</g>
</g>
<!-- Node6&#45;&gt;Node7 -->
<g id="edge6" class="edge"><title>Node6&#45;&gt;Node7</title>
<path fill="none" stroke="midnightblue" d="M1063.13,-52.7C1071.98,-52.7 1080.74,-52.7 1089.03,-52.7"/>
<polygon fill="midnightblue" stroke="midnightblue" points="1063.13,-49.2001 1053.13,-52.7 1063.13,-56.2001 1063.13,-49.2001"/>
</g>
<!-- Node8 -->
<g id="node8" class="node"><title>Node8</title>
<g id="a_node8"><a xlink:href="GERMLINE__0001_8cpp.html#a0ddf1224851353fc92bfbff6f499fa97" target="_top" xlink:title="main">
<polygon fill="white" stroke="black" points="1233.77,-41.5 1233.77,-63.9 1273.77,-63.9 1273.77,-41.5 1233.77,-41.5"/>
<text text-anchor="middle" x="1253.77" y="-49.1" font-family="-adobe-utopia-medium-i-normal--0-0-0-0-p-0-iso10646-1" font-size="12.00">main</text>
</a>
</g>
</g>
<!-- Node7&#45;&gt;Node8 -->
<g id="edge7" class="edge"><title>Node7&#45;&gt;Node8</title>
<path fill="none" stroke="midnightblue" d="M1208.12,-52.7C1217.39,-52.7 1226.27,-52.7 1233.64,-52.7"/>
<polygon fill="midnightblue" stroke="midnightblue" points="1207.97,-49.2001 1197.97,-52.7 1207.97,-56.2001 1207.97,-49.2001"/>
</g>
</g>
</svg>
