<?xml version="1.0" encoding="UTF-8" standalone="no"?>
<!DOCTYPE svg PUBLIC "-//W3C//DTD SVG 1.1//EN"
 "http://www.w3.org/Graphics/SVG/1.1/DTD/svg11.dtd">
<!-- Generated by graphviz version 2.38.0 (20140413.2041)
 -->
<!-- Title: PolymorphicIndividualsExtractor Pages: 1 -->
<svg width="290pt" height="193pt"
 viewBox="0.00 0.00 290.17 193.40" xmlns="http://www.w3.org/2000/svg" xmlns:xlink="http://www.w3.org/1999/xlink">
<g id="graph0" class="graph" transform="scale(1 1) rotate(0) translate(4 189.4)">
<title>PolymorphicIndividualsExtractor</title>
<polygon fill="white" stroke="none" points="-4,4 -4,-189.4 286.167,-189.4 286.167,4 -4,4"/>
<!-- Node1 -->
<g id="node1" class="node"><title>Node1</title>
<polygon fill="#bfbfbf" stroke="black" points="41.1834,-0.5 41.1834,-22.9 217.817,-22.9 217.817,-0.5 41.1834,-0.5"/>
<text text-anchor="middle" x="129.5" y="-8.1" font-family="-adobe-utopia-medium-i-normal--0-0-0-0-p-0-iso10646-1" font-size="12.00">PolymorphicIndividualsExtractor</text>
</g>
<!-- Node2 -->
<g id="node2" class="node"><title>Node2</title>
<polygon fill="white" stroke="#bfbfbf" points="0,-88.7 0,-111.1 29,-111.1 29,-88.7 0,-88.7"/>
<text text-anchor="middle" x="14.3348" y="-96.3" font-family="-adobe-utopia-medium-i-normal--0-0-0-0-p-0-iso10646-1" font-size="12.00">int</text>
</g>
<!-- Node2&#45;&gt;Node1 -->
<g id="edge1" class="edge"><title>Node2&#45;&gt;Node1</title>
<path fill="none" stroke="#9a32cd" stroke-dasharray="5,2" d="M16.4498,-78.2205C18.6474,-65.9899 23.313,-51.0528 33.2092,-41.4 41.7006,-33.1175 52.4749,-27.2101 63.7201,-23.0004"/>
<polygon fill="#9a32cd" stroke="#9a32cd" points="12.9364,-78.0799 15.0462,-88.4626 19.8716,-79.0304 12.9364,-78.0799"/>
<text text-anchor="middle" x="79.6454" y="-52.2" font-family="-adobe-utopia-medium-i-normal--0-0-0-0-p-0-iso10646-1" font-size="12.00"> numberOfMarkers</text>
</g>
<!-- Node3 -->
<g id="node3" class="node"><title>Node3</title>
<polygon fill="white" stroke="#bfbfbf" points="110.833,-88.7 110.833,-111.1 148.167,-111.1 148.167,-88.7 110.833,-88.7"/>
<text text-anchor="middle" x="129.5" y="-96.3" font-family="-adobe-utopia-medium-i-normal--0-0-0-0-p-0-iso10646-1" font-size="12.00">bool</text>
</g>
<!-- Node3&#45;&gt;Node1 -->
<g id="edge2" class="edge"><title>Node3&#45;&gt;Node1</title>
<path fill="none" stroke="#9a32cd" stroke-dasharray="5,2" d="M129.5,-78.3662C129.5,-60.8886 129.5,-36.5154 129.5,-22.9135"/>
<polygon fill="#9a32cd" stroke="#9a32cd" points="126,-78.6732 129.5,-88.6732 133,-78.6733 126,-78.6732"/>
<text text-anchor="middle" x="155.326" y="-59.4" font-family="-adobe-utopia-medium-i-normal--0-0-0-0-p-0-iso10646-1" font-size="12.00"> valid_flag</text>
<text text-anchor="middle" x="155.326" y="-45" font-family="-adobe-utopia-medium-i-normal--0-0-0-0-p-0-iso10646-1" font-size="12.00">phased</text>
</g>
<!-- Node4 -->
<g id="node4" class="node"><title>Node4</title>
<g id="a_node4"><a xlink:href="classIndividuals.html" target="_top" xlink:title="Individuals">
<polygon fill="white" stroke="black" points="169.504,-88.7 169.504,-111.1 239.496,-111.1 239.496,-88.7 169.504,-88.7"/>
<text text-anchor="middle" x="204.5" y="-96.3" font-family="-adobe-utopia-medium-i-normal--0-0-0-0-p-0-iso10646-1" font-size="12.00">Individuals</text>
</a>
</g>
</g>
<!-- Node4&#45;&gt;Node1 -->
<g id="edge3" class="edge"><title>Node4&#45;&gt;Node1</title>
<path fill="none" stroke="#9a32cd" stroke-dasharray="5,2" d="M200.428,-78.4587C197.205,-66.5464 191.673,-51.8592 182.5,-41.4 175.601,-33.5329 166.004,-27.4327 156.871,-22.9195"/>
<polygon fill="#9a32cd" stroke="#9a32cd" points="197.074,-79.4879 202.776,-88.4176 203.887,-77.8813 197.074,-79.4879"/>
<text text-anchor="middle" x="230.002" y="-52.2" font-family="-adobe-utopia-medium-i-normal--0-0-0-0-p-0-iso10646-1" font-size="12.00"> individualsP</text>
</g>
<!-- Node5 -->
<g id="node5" class="node"><title>Node5</title>
<polygon fill="white" stroke="#bfbfbf" points="40.5786,-162.5 40.5786,-184.9 164.421,-184.9 164.421,-162.5 40.5786,-162.5"/>
<text text-anchor="middle" x="102.5" y="-170.1" font-family="-adobe-utopia-medium-i-normal--0-0-0-0-p-0-iso10646-1" font-size="12.00">vector&lt; Individual * &gt;</text>
</g>
<!-- Node5&#45;&gt;Node4 -->
<g id="edge4" class="edge"><title>Node5&#45;&gt;Node4</title>
<path fill="none" stroke="#9a32cd" stroke-dasharray="5,2" d="M122.191,-155.792C132.13,-147.546 144.525,-137.688 156.19,-129.6 165.65,-123.041 176.653,-116.431 185.767,-111.21"/>
<polygon fill="#9a32cd" stroke="#9a32cd" points="119.893,-153.151 114.491,-162.265 124.398,-158.51 119.893,-153.151"/>
<text text-anchor="middle" x="178.655" y="-133.2" font-family="-adobe-utopia-medium-i-normal--0-0-0-0-p-0-iso10646-1" font-size="12.00"> pedigree</text>
</g>
<!-- Node6 -->
<g id="node6" class="node"><title>Node6</title>
<polygon fill="white" stroke="#bfbfbf" points="182.505,-162.5 182.505,-184.9 226.495,-184.9 226.495,-162.5 182.505,-162.5"/>
<text text-anchor="middle" x="204.5" y="-170.1" font-family="-adobe-utopia-medium-i-normal--0-0-0-0-p-0-iso10646-1" font-size="12.00">size_t</text>
</g>
<!-- Node6&#45;&gt;Node4 -->
<g id="edge5" class="edge"><title>Node6&#45;&gt;Node4</title>
<path fill="none" stroke="#9a32cd" stroke-dasharray="5,2" d="M204.5,-152.192C204.5,-138.777 204.5,-121.824 204.5,-111.168"/>
<polygon fill="#9a32cd" stroke="#9a32cd" points="201,-152.413 204.5,-162.413 208,-152.413 201,-152.413"/>
<text text-anchor="middle" x="213.996" y="-133.2" font-family="-adobe-utopia-medium-i-normal--0-0-0-0-p-0-iso10646-1" font-size="12.00"> iter</text>
</g>
<!-- Node7 -->
<g id="node7" class="node"><title>Node7</title>
<polygon fill="white" stroke="#bfbfbf" points="244.833,-162.5 244.833,-184.9 282.167,-184.9 282.167,-162.5 244.833,-162.5"/>
<text text-anchor="middle" x="263.5" y="-170.1" font-family="-adobe-utopia-medium-i-normal--0-0-0-0-p-0-iso10646-1" font-size="12.00">long</text>
</g>
<!-- Node7&#45;&gt;Node4 -->
<g id="edge6" class="edge"><title>Node7&#45;&gt;Node4</title>
<path fill="none" stroke="#9a32cd" stroke-dasharray="5,2" d="M248.599,-154.566C237.314,-140.834 222.219,-122.463 212.938,-111.168"/>
<polygon fill="#9a32cd" stroke="#9a32cd" points="245.994,-156.909 255.047,-162.413 251.402,-152.465 245.994,-156.909"/>
<text text-anchor="middle" x="249.998" y="-133.2" font-family="-adobe-utopia-medium-i-normal--0-0-0-0-p-0-iso10646-1" font-size="12.00"> sets</text>
</g>
</g>
</svg>
