<?xml version="1.0" encoding="UTF-8" standalone="no"?>
<!DOCTYPE svg PUBLIC "-//W3C//DTD SVG 1.1//EN"
 "http://www.w3.org/Graphics/SVG/1.1/DTD/svg11.dtd">
<!-- Generated by graphviz version 2.38.0 (20140413.2041)
 -->
<!-- Title: MatchesBuilder::readHaploidMarkerSet Pages: 1 -->
<svg width="379pt" height="170pt"
 viewBox="0.00 0.00 379.25 170.40" xmlns="http://www.w3.org/2000/svg" xmlns:xlink="http://www.w3.org/1999/xlink">
<g id="graph0" class="graph" transform="scale(1 1) rotate(0) translate(4 166.4)">
<title>MatchesBuilder::readHaploidMarkerSet</title>
<polygon fill="white" stroke="none" points="-4,4 -4,-166.4 375.253,-166.4 375.253,4 -4,4"/>
<!-- Node1 -->
<g id="node1" class="node"><title>Node1</title>
<polygon fill="#bfbfbf" stroke="black" points="0,-58.3 0,-95.1 158.62,-95.1 158.62,-58.3 0,-58.3"/>
<text text-anchor="start" x="8" y="-80.3" font-family="-adobe-utopia-medium-i-normal--0-0-0-0-p-0-iso10646-1" font-size="12.00">MatchesBuilder::readHaploid</text>
<text text-anchor="middle" x="79.31" y="-65.9" font-family="-adobe-utopia-medium-i-normal--0-0-0-0-p-0-iso10646-1" font-size="12.00">MarkerSet</text>
</g>
<!-- Node2 -->
<g id="node2" class="node"><title>Node2</title>
<g id="a_node2"><a xlink:href="classIndividuals.html#ac1f8fff7b6e6a737ababc975495b5f65" target="_top" xlink:title="Individuals::begin">
<polygon fill="white" stroke="black" points="231.275,-139.5 231.275,-161.9 334.599,-161.9 334.599,-139.5 231.275,-139.5"/>
<text text-anchor="middle" x="282.937" y="-147.1" font-family="-adobe-utopia-medium-i-normal--0-0-0-0-p-0-iso10646-1" font-size="12.00">Individuals::begin</text>
</a>
</g>
</g>
<!-- Node1&#45;&gt;Node2 -->
<g id="edge1" class="edge"><title>Node1&#45;&gt;Node2</title>
<path fill="none" stroke="midnightblue" d="M115.341,-95.1483C137.588,-106.306 167.248,-120.169 194.62,-129.7 203.162,-132.675 212.317,-135.379 221.369,-137.784"/>
<polygon fill="midnightblue" stroke="midnightblue" points="220.56,-141.19 231.115,-140.274 222.293,-134.408 220.56,-141.19"/>
</g>
<!-- Node3 -->
<g id="node3" class="node"><title>Node3</title>
<g id="a_node3"><a xlink:href="classPolymorphicIndividualsExtractor.html#af99fabbecd263daa88696353f9fcfeff" target="_top" xlink:title="PolymorphicIndividualsExtractor\l::getCompleteMarkerSet">
<polygon fill="white" stroke="black" points="194.62,-83.3 194.62,-120.1 371.253,-120.1 371.253,-83.3 194.62,-83.3"/>
<text text-anchor="start" x="202.62" y="-105.3" font-family="-adobe-utopia-medium-i-normal--0-0-0-0-p-0-iso10646-1" font-size="12.00">PolymorphicIndividualsExtractor</text>
<text text-anchor="middle" x="282.937" y="-90.9" font-family="-adobe-utopia-medium-i-normal--0-0-0-0-p-0-iso10646-1" font-size="12.00">::getCompleteMarkerSet</text>
</a>
</g>
</g>
<!-- Node1&#45;&gt;Node3 -->
<g id="edge2" class="edge"><title>Node1&#45;&gt;Node3</title>
<path fill="none" stroke="midnightblue" d="M158.841,-86.4372C167.266,-87.4818 175.909,-88.5534 184.518,-89.6209"/>
<polygon fill="midnightblue" stroke="midnightblue" points="184.24,-93.1132 194.595,-90.8704 185.102,-86.1664 184.24,-93.1132"/>
</g>
<!-- Node4 -->
<g id="node4" class="node"><title>Node4</title>
<g id="a_node4"><a xlink:href="classIndividuals.html#ac9d09bbae9d26e39364b099c4366daf1" target="_top" xlink:title="Individuals::more">
<polygon fill="white" stroke="black" points="232.277,-41.5 232.277,-63.9 333.596,-63.9 333.596,-41.5 232.277,-41.5"/>
<text text-anchor="middle" x="282.937" y="-49.1" font-family="-adobe-utopia-medium-i-normal--0-0-0-0-p-0-iso10646-1" font-size="12.00">Individuals::more</text>
</a>
</g>
</g>
<!-- Node1&#45;&gt;Node4 -->
<g id="edge3" class="edge"><title>Node1&#45;&gt;Node4</title>
<path fill="none" stroke="midnightblue" d="M158.841,-67.3523C179.839,-64.8529 202.194,-62.1919 222.011,-59.833"/>
<polygon fill="midnightblue" stroke="midnightblue" points="222.606,-63.287 232.123,-58.6295 221.779,-56.3361 222.606,-63.287"/>
</g>
<!-- Node5 -->
<g id="node5" class="node"><title>Node5</title>
<g id="a_node5"><a xlink:href="classIndividuals.html#a1bd919e3eef3e84c8849623789051f08" target="_top" xlink:title="Individuals::next">
<polygon fill="white" stroke="black" points="234.275,-0.5 234.275,-22.9 331.599,-22.9 331.599,-0.5 234.275,-0.5"/>
<text text-anchor="middle" x="282.937" y="-8.1" font-family="-adobe-utopia-medium-i-normal--0-0-0-0-p-0-iso10646-1" font-size="12.00">Individuals::next</text>
</a>
</g>
</g>
<!-- Node1&#45;&gt;Node5 -->
<g id="edge4" class="edge"><title>Node1&#45;&gt;Node5</title>
<path fill="none" stroke="midnightblue" d="M122.652,-58.2771C143.969,-49.4539 170.374,-39.2028 194.62,-31.7 204.091,-28.7692 214.26,-26.0578 224.192,-23.6383"/>
<polygon fill="midnightblue" stroke="midnightblue" points="225.082,-27.0243 234.01,-21.3188 223.473,-20.2119 225.082,-27.0243"/>
</g>
</g>
</svg>
