<?xml version="1.0" encoding="UTF-8" standalone="no"?>
<!DOCTYPE svg PUBLIC "-//W3C//DTD SVG 1.1//EN"
 "http://www.w3.org/Graphics/SVG/1.1/DTD/svg11.dtd">
<!-- Generated by graphviz version 2.38.0 (20140413.2041)
 -->
<!-- Title: Individuals::begin Pages: 1 -->
<svg width="959pt" height="170pt"
 viewBox="0.00 0.00 959.15 170.40" xmlns="http://www.w3.org/2000/svg" xmlns:xlink="http://www.w3.org/1999/xlink">
<g id="graph0" class="graph" transform="scale(1 1) rotate(0) translate(4 166.4)">
<title>Individuals::begin</title>
<polygon fill="white" stroke="none" points="-4,4 -4,-166.4 955.148,-166.4 955.148,4 -4,4"/>
<!-- Node1 -->
<g id="node1" class="node"><title>Node1</title>
<polygon fill="#bfbfbf" stroke="black" points="4.26326e-14,-73.5 4.26326e-14,-95.9 103.324,-95.9 103.324,-73.5 4.26326e-14,-73.5"/>
<text text-anchor="middle" x="51.662" y="-81.1" font-family="-adobe-utopia-medium-i-normal--0-0-0-0-p-0-iso10646-1" font-size="12.00">Individuals::begin</text>
</g>
<!-- Node2 -->
<g id="node2" class="node"><title>Node2</title>
<g id="a_node2"><a xlink:href="classMatchesBuilder.html#af44853a4e7540f4f54a802a5d0c45faf" target="_top" xlink:title="MatchesBuilder::matchMarkerSet">
<polygon fill="white" stroke="black" points="139.324,-139.5 139.324,-161.9 318.602,-161.9 318.602,-139.5 139.324,-139.5"/>
<text text-anchor="middle" x="228.963" y="-147.1" font-family="-adobe-utopia-medium-i-normal--0-0-0-0-p-0-iso10646-1" font-size="12.00">MatchesBuilder::matchMarkerSet</text>
</a>
</g>
</g>
<!-- Node1&#45;&gt;Node2 -->
<g id="edge1" class="edge"><title>Node1&#45;&gt;Node2</title>
<path fill="none" stroke="midnightblue" d="M79.266,-101.205C95.9864,-110.968 118.301,-122.908 139.324,-130.7 148.347,-134.044 158.103,-136.931 167.73,-139.387"/>
<polygon fill="midnightblue" stroke="midnightblue" points="80.9795,-98.1523 70.5961,-96.046 77.3997,-104.168 80.9795,-98.1523"/>
</g>
<!-- Node7 -->
<g id="node7" class="node"><title>Node7</title>
<g id="a_node7"><a xlink:href="classMatchesBuilder.html#a4d8d324cb0d0bab5c991c3d68d3783e7" target="_top" xlink:title="MatchesBuilder::printHaplotypes">
<polygon fill="white" stroke="black" points="140.648,-98.5 140.648,-120.9 317.278,-120.9 317.278,-98.5 140.648,-98.5"/>
<text text-anchor="middle" x="228.963" y="-106.1" font-family="-adobe-utopia-medium-i-normal--0-0-0-0-p-0-iso10646-1" font-size="12.00">MatchesBuilder::printHaplotypes</text>
</a>
</g>
</g>
<!-- Node1&#45;&gt;Node7 -->
<g id="edge6" class="edge"><title>Node1&#45;&gt;Node7</title>
<path fill="none" stroke="midnightblue" d="M113.352,-93.3551C124.946,-95.0085 137.237,-96.7613 149.298,-98.4815"/>
<polygon fill="midnightblue" stroke="midnightblue" points="113.76,-89.878 103.366,-91.931 112.772,-96.8079 113.76,-89.878"/>
</g>
<!-- Node8 -->
<g id="node8" class="node"><title>Node8</title>
<g id="a_node8"><a xlink:href="classMatchesBuilder.html#a24030d91efc506dab6732cdb9a89f0ab" target="_top" xlink:title="MatchesBuilder::readHaploid\lMarkerSet">
<polygon fill="white" stroke="black" points="149.653,-42.3 149.653,-79.1 308.273,-79.1 308.273,-42.3 149.653,-42.3"/>
<text text-anchor="start" x="157.653" y="-64.3" font-family="-adobe-utopia-medium-i-normal--0-0-0-0-p-0-iso10646-1" font-size="12.00">MatchesBuilder::readHaploid</text>
<text text-anchor="middle" x="228.963" y="-49.9" font-family="-adobe-utopia-medium-i-normal--0-0-0-0-p-0-iso10646-1" font-size="12.00">MarkerSet</text>
</a>
</g>
</g>
<!-- Node1&#45;&gt;Node8 -->
<g id="edge7" class="edge"><title>Node1&#45;&gt;Node8</title>
<path fill="none" stroke="midnightblue" d="M113.424,-76.3813C125.102,-74.7824 137.485,-73.0871 149.627,-71.4247"/>
<polygon fill="midnightblue" stroke="midnightblue" points="112.799,-72.934 103.366,-77.7582 113.749,-79.8694 112.799,-72.934"/>
</g>
<!-- Node10 -->
<g id="node10" class="node"><title>Node10</title>
<g id="a_node10"><a xlink:href="classMatchesBuilder.html#a0ce39fec7c735700c83a21f4b53f5bbf" target="_top" xlink:title="MatchesBuilder::readMarkerSet">
<polygon fill="white" stroke="black" points="143.661,-0.5 143.661,-22.9 314.265,-22.9 314.265,-0.5 143.661,-0.5"/>
<text text-anchor="middle" x="228.963" y="-8.1" font-family="-adobe-utopia-medium-i-normal--0-0-0-0-p-0-iso10646-1" font-size="12.00">MatchesBuilder::readMarkerSet</text>
</a>
</g>
</g>
<!-- Node1&#45;&gt;Node10 -->
<g id="edge10" class="edge"><title>Node1&#45;&gt;Node10</title>
<path fill="none" stroke="midnightblue" d="M76.8024,-67.4432C93.6251,-56.1278 116.973,-41.7971 139.324,-32.7 148.699,-28.8844 158.926,-25.6641 168.994,-22.98"/>
<polygon fill="midnightblue" stroke="midnightblue" points="74.4379,-64.8211 68.1755,-73.367 78.4004,-70.5916 74.4379,-64.8211"/>
</g>
<!-- Node3 -->
<g id="node3" class="node"><title>Node3</title>
<g id="a_node3"><a xlink:href="classMatchesBuilder.html#ae8d8a0ff7f0726406e83d4fa55a96bf4" target="_top" xlink:title="MatchesBuilder::matchAll\lMarkers">
<polygon fill="white" stroke="black" points="370.253,-111.3 370.253,-148.1 514.221,-148.1 514.221,-111.3 370.253,-111.3"/>
<text text-anchor="start" x="378.253" y="-133.3" font-family="-adobe-utopia-medium-i-normal--0-0-0-0-p-0-iso10646-1" font-size="12.00">MatchesBuilder::matchAll</text>
<text text-anchor="middle" x="442.237" y="-118.9" font-family="-adobe-utopia-medium-i-normal--0-0-0-0-p-0-iso10646-1" font-size="12.00">Markers</text>
</a>
</g>
</g>
<!-- Node2&#45;&gt;Node3 -->
<g id="edge2" class="edge"><title>Node2&#45;&gt;Node3</title>
<path fill="none" stroke="midnightblue" d="M328.757,-140.88C342.705,-139.494 356.812,-138.092 370.1,-136.771"/>
<polygon fill="midnightblue" stroke="midnightblue" points="328.249,-137.413 318.644,-141.885 328.941,-144.379 328.249,-137.413"/>
</g>
<!-- Node4 -->
<g id="node4" class="node"><title>Node4</title>
<g id="a_node4"><a xlink:href="classMatchesBuilder.html#a31faf645700f38ac0d7d164b57cfebd1" target="_top" xlink:title="MatchesBuilder::buildMatches">
<polygon fill="white" stroke="black" points="565.872,-83.5 565.872,-105.9 730.503,-105.9 730.503,-83.5 565.872,-83.5"/>
<text text-anchor="middle" x="648.187" y="-91.1" font-family="-adobe-utopia-medium-i-normal--0-0-0-0-p-0-iso10646-1" font-size="12.00">MatchesBuilder::buildMatches</text>
</a>
</g>
</g>
<!-- Node3&#45;&gt;Node4 -->
<g id="edge3" class="edge"><title>Node3&#45;&gt;Node4</title>
<path fill="none" stroke="midnightblue" d="M524.185,-115.808C543.331,-112.523 563.51,-109.06 581.862,-105.91"/>
<polygon fill="midnightblue" stroke="midnightblue" points="523.547,-112.367 514.283,-117.508 524.731,-119.266 523.547,-112.367"/>
</g>
<!-- Node5 -->
<g id="node5" class="node"><title>Node5</title>
<g id="a_node5"><a xlink:href="classGERMLINE.html#a7912aa3108f42f42e06c615b460d0565" target="_top" xlink:title="GERMLINE::mine">
<polygon fill="white" stroke="black" points="766.503,-83.5 766.503,-105.9 875.151,-105.9 875.151,-83.5 766.503,-83.5"/>
<text text-anchor="middle" x="820.827" y="-91.1" font-family="-adobe-utopia-medium-i-normal--0-0-0-0-p-0-iso10646-1" font-size="12.00">GERMLINE::mine</text>
</a>
</g>
</g>
<!-- Node4&#45;&gt;Node5 -->
<g id="edge4" class="edge"><title>Node4&#45;&gt;Node5</title>
<path fill="none" stroke="midnightblue" d="M740.512,-94.7C749.358,-94.7 758.116,-94.7 766.406,-94.7"/>
<polygon fill="midnightblue" stroke="midnightblue" points="740.509,-91.2001 730.509,-94.7 740.509,-98.2001 740.509,-91.2001"/>
</g>
<!-- Node6 -->
<g id="node6" class="node"><title>Node6</title>
<g id="a_node6"><a xlink:href="GERMLINE__0001_8cpp.html#a0ddf1224851353fc92bfbff6f499fa97" target="_top" xlink:title="main">
<polygon fill="white" stroke="black" points="911.151,-83.5 911.151,-105.9 951.148,-105.9 951.148,-83.5 911.151,-83.5"/>
<text text-anchor="middle" x="931.149" y="-91.1" font-family="-adobe-utopia-medium-i-normal--0-0-0-0-p-0-iso10646-1" font-size="12.00">main</text>
</a>
</g>
</g>
<!-- Node5&#45;&gt;Node6 -->
<g id="edge5" class="edge"><title>Node5&#45;&gt;Node6</title>
<path fill="none" stroke="midnightblue" d="M885.504,-94.7C894.769,-94.7 903.65,-94.7 911.017,-94.7"/>
<polygon fill="midnightblue" stroke="midnightblue" points="885.354,-91.2001 875.354,-94.7 885.353,-98.2001 885.354,-91.2001"/>
</g>
<!-- Node9 -->
<g id="node9" class="node"><title>Node9</title>
<g id="a_node9"><a xlink:href="classMatchesBuilder.html#ad627b36445ae9df99c732b23c8b06547" target="_top" xlink:title="MatchesBuilder::readAllMarkers">
<polygon fill="white" stroke="black" points="354.602,-49.5 354.602,-71.9 529.872,-71.9 529.872,-49.5 354.602,-49.5"/>
<text text-anchor="middle" x="442.237" y="-57.1" font-family="-adobe-utopia-medium-i-normal--0-0-0-0-p-0-iso10646-1" font-size="12.00">MatchesBuilder::readAllMarkers</text>
</a>
</g>
</g>
<!-- Node8&#45;&gt;Node9 -->
<g id="edge8" class="edge"><title>Node8&#45;&gt;Node9</title>
<path fill="none" stroke="midnightblue" d="M318.656,-60.7C330.507,-60.7 342.649,-60.7 354.465,-60.7"/>
<polygon fill="midnightblue" stroke="midnightblue" points="318.333,-57.2001 308.333,-60.7 318.333,-64.2001 318.333,-57.2001"/>
</g>
<!-- Node9&#45;&gt;Node4 -->
<g id="edge9" class="edge"><title>Node9&#45;&gt;Node4</title>
<path fill="none" stroke="midnightblue" d="M520.653,-73.6057C540.162,-76.858 560.946,-80.3229 579.912,-83.4847"/>
<polygon fill="midnightblue" stroke="midnightblue" points="521.023,-70.1192 510.583,-71.9271 519.872,-77.0239 521.023,-70.1192"/>
</g>
<!-- Node10&#45;&gt;Node9 -->
<g id="edge11" class="edge"><title>Node10&#45;&gt;Node9</title>
<path fill="none" stroke="midnightblue" d="M288.345,-25.2403C321.134,-32.845 361.574,-42.2242 392.627,-49.426"/>
<polygon fill="midnightblue" stroke="midnightblue" points="288.966,-21.7915 278.434,-22.9416 287.384,-28.6105 288.966,-21.7915"/>
</g>
</g>
</svg>
