<?xml version="1.0" encoding="UTF-8" standalone="no"?>
<!DOCTYPE svg PUBLIC "-//W3C//DTD SVG 1.1//EN"
 "http://www.w3.org/Graphics/SVG/1.1/DTD/svg11.dtd">
<!-- Generated by graphviz version 2.38.0 (20140413.2041)
 -->
<!-- Title: SNPs::getROIStart Pages: 1 -->
<svg width="365pt" height="185pt"
 viewBox="0.00 0.00 364.62 184.60" xmlns="http://www.w3.org/2000/svg" xmlns:xlink="http://www.w3.org/1999/xlink">
<g id="graph0" class="graph" transform="scale(1 1) rotate(0) translate(4 180.6)">
<title>SNPs::getROIStart</title>
<polygon fill="white" stroke="none" points="-4,4 -4,-180.6 360.622,-180.6 360.622,4 -4,4"/>
<!-- Node1 -->
<g id="node1" class="node"><title>Node1</title>
<polygon fill="#bfbfbf" stroke="black" points="-7.10543e-15,-65.5 -7.10543e-15,-87.9 107.325,-87.9 107.325,-65.5 -7.10543e-15,-65.5"/>
<text text-anchor="middle" x="53.6624" y="-73.1" font-family="-adobe-utopia-medium-i-normal--0-0-0-0-p-0-iso10646-1" font-size="12.00">SNPs::getROIStart</text>
</g>
<!-- Node2 -->
<g id="node2" class="node"><title>Node2</title>
<g id="a_node2"><a xlink:href="classPEDIndividualsExtractor.html#af11b156fe02d076d45f490b1d240f81c" target="_top" xlink:title="PEDIndividualsExtractor\l::getCompleteMarkerSet">
<polygon fill="white" stroke="black" points="143.325,-139.3 143.325,-176.1 280.626,-176.1 280.626,-139.3 143.325,-139.3"/>
<text text-anchor="start" x="151.325" y="-161.3" font-family="-adobe-utopia-medium-i-normal--0-0-0-0-p-0-iso10646-1" font-size="12.00">PEDIndividualsExtractor</text>
<text text-anchor="middle" x="211.975" y="-146.9" font-family="-adobe-utopia-medium-i-normal--0-0-0-0-p-0-iso10646-1" font-size="12.00">::getCompleteMarkerSet</text>
</a>
</g>
</g>
<!-- Node1&#45;&gt;Node2 -->
<g id="edge1" class="edge"><title>Node1&#45;&gt;Node2</title>
<path fill="none" stroke="midnightblue" d="M80.3816,-93.4404C97.7839,-104.424 121.492,-118.73 143.325,-129.7 149.799,-132.953 156.744,-136.145 163.629,-139.143"/>
<polygon fill="midnightblue" stroke="midnightblue" points="82.2135,-90.4576 71.8993,-88.0349 78.4514,-96.3608 82.2135,-90.4576"/>
</g>
<!-- Node3 -->
<g id="node3" class="node"><title>Node3</title>
<g id="a_node3"><a xlink:href="classHMIndividualsExtractor.html#acb7f7caa772630162d0edce43977f330" target="_top" xlink:title="HMIndividualsExtractor\l::loadMarkerSet">
<polygon fill="white" stroke="black" points="144.992,-83.3 144.992,-120.1 278.958,-120.1 278.958,-83.3 144.992,-83.3"/>
<text text-anchor="start" x="152.992" y="-105.3" font-family="-adobe-utopia-medium-i-normal--0-0-0-0-p-0-iso10646-1" font-size="12.00">HMIndividualsExtractor</text>
<text text-anchor="middle" x="211.975" y="-90.9" font-family="-adobe-utopia-medium-i-normal--0-0-0-0-p-0-iso10646-1" font-size="12.00">::loadMarkerSet</text>
</a>
</g>
</g>
<!-- Node1&#45;&gt;Node3 -->
<g id="edge2" class="edge"><title>Node1&#45;&gt;Node3</title>
<path fill="none" stroke="midnightblue" d="M117.563,-86.76C126.53,-88.1943 135.777,-89.6731 144.805,-91.117"/>
<polygon fill="midnightblue" stroke="midnightblue" points="118.01,-83.2872 107.583,-85.1639 116.905,-90.1993 118.01,-83.2872"/>
</g>
<!-- Node4 -->
<g id="node4" class="node"><title>Node4</title>
<g id="a_node4"><a xlink:href="classGERMLINE.html#a7912aa3108f42f42e06c615b460d0565" target="_top" xlink:title="GERMLINE::mine">
<polygon fill="white" stroke="black" points="157.651,-41.5 157.651,-63.9 266.299,-63.9 266.299,-41.5 157.651,-41.5"/>
<text text-anchor="middle" x="211.975" y="-49.1" font-family="-adobe-utopia-medium-i-normal--0-0-0-0-p-0-iso10646-1" font-size="12.00">GERMLINE::mine</text>
</a>
</g>
</g>
<!-- Node1&#45;&gt;Node4 -->
<g id="edge3" class="edge"><title>Node1&#45;&gt;Node4</title>
<path fill="none" stroke="midnightblue" d="M117.578,-67.0401C130.838,-65.0041 144.707,-62.8747 157.577,-60.8986"/>
<polygon fill="midnightblue" stroke="midnightblue" points="116.936,-63.5976 107.583,-68.5747 117.998,-70.5165 116.936,-63.5976"/>
</g>
<!-- Node6 -->
<g id="node6" class="node"><title>Node6</title>
<g id="a_node6"><a xlink:href="classMatch.html#a989ae28b68842fc096ee6edb8c1595fd" target="_top" xlink:title="Match::print">
<polygon fill="white" stroke="black" points="173.981,-0.5 173.981,-22.9 249.97,-22.9 249.97,-0.5 173.981,-0.5"/>
<text text-anchor="middle" x="211.975" y="-8.1" font-family="-adobe-utopia-medium-i-normal--0-0-0-0-p-0-iso10646-1" font-size="12.00">Match::print</text>
</a>
</g>
</g>
<!-- Node1&#45;&gt;Node6 -->
<g id="edge5" class="edge"><title>Node1&#45;&gt;Node6</title>
<path fill="none" stroke="midnightblue" d="M83.16,-60.5601C100.249,-51.3084 122.619,-39.9357 143.325,-31.7 152.998,-27.8526 163.706,-24.3552 173.694,-21.3995"/>
<polygon fill="midnightblue" stroke="midnightblue" points="81.3357,-57.5687 74.2531,-65.4483 84.7036,-63.7053 81.3357,-57.5687"/>
</g>
<!-- Node5 -->
<g id="node5" class="node"><title>Node5</title>
<g id="a_node5"><a xlink:href="GERMLINE__0001_8cpp.html#a0ddf1224851353fc92bfbff6f499fa97" target="_top" xlink:title="main">
<polygon fill="white" stroke="black" points="316.626,-41.5 316.626,-63.9 356.622,-63.9 356.622,-41.5 316.626,-41.5"/>
<text text-anchor="middle" x="336.624" y="-49.1" font-family="-adobe-utopia-medium-i-normal--0-0-0-0-p-0-iso10646-1" font-size="12.00">main</text>
</a>
</g>
</g>
<!-- Node4&#45;&gt;Node5 -->
<g id="edge4" class="edge"><title>Node4&#45;&gt;Node5</title>
<path fill="none" stroke="midnightblue" d="M276.49,-52.7C291.066,-52.7 305.476,-52.7 316.422,-52.7"/>
<polygon fill="midnightblue" stroke="midnightblue" points="276.414,-49.2001 266.414,-52.7 276.414,-56.2001 276.414,-49.2001"/>
</g>
</g>
</svg>
