<?xml version="1.0" encoding="UTF-8" standalone="no"?>
<!DOCTYPE svg PUBLIC "-//W3C//DTD SVG 1.1//EN"
 "http://www.w3.org/Graphics/SVG/1.1/DTD/svg11.dtd">
<!-- Generated by graphviz version 2.38.0 (20140413.2041)
 -->
<!-- Title: Individual::setID Pages: 1 -->
<svg width="279pt" height="102pt"
 viewBox="0.00 0.00 279.28 101.80" xmlns="http://www.w3.org/2000/svg" xmlns:xlink="http://www.w3.org/1999/xlink">
<g id="graph0" class="graph" transform="scale(1 1) rotate(0) translate(4 97.8)">
<title>Individual::setID</title>
<polygon fill="white" stroke="none" points="-4,4 -4,-97.8 275.282,-97.8 275.282,4 -4,4"/>
<!-- Node1 -->
<g id="node1" class="node"><title>Node1</title>
<polygon fill="#bfbfbf" stroke="black" points="-1.42109e-14,-35.7 -1.42109e-14,-58.1 97.9816,-58.1 97.9816,-35.7 -1.42109e-14,-35.7"/>
<text text-anchor="middle" x="48.9908" y="-43.3" font-family="-adobe-utopia-medium-i-normal--0-0-0-0-p-0-iso10646-1" font-size="12.00">Individual::setID</text>
</g>
<!-- Node2 -->
<g id="node2" class="node"><title>Node2</title>
<g id="a_node2"><a xlink:href="classHMIndividualsExtractor.html#a72325936b8729435c174bbe05a4fc68f" target="_top" xlink:title="HMIndividualsExtractor\l::getIndividuals">
<polygon fill="white" stroke="black" points="135.649,-56.5 135.649,-93.3 269.615,-93.3 269.615,-56.5 135.649,-56.5"/>
<text text-anchor="start" x="143.649" y="-78.5" font-family="-adobe-utopia-medium-i-normal--0-0-0-0-p-0-iso10646-1" font-size="12.00">HMIndividualsExtractor</text>
<text text-anchor="middle" x="202.632" y="-64.1" font-family="-adobe-utopia-medium-i-normal--0-0-0-0-p-0-iso10646-1" font-size="12.00">::getIndividuals</text>
</a>
</g>
</g>
<!-- Node1&#45;&gt;Node2 -->
<g id="edge1" class="edge"><title>Node1&#45;&gt;Node2</title>
<path fill="none" stroke="midnightblue" d="M108.259,-57.659C117.155,-59.3017 126.393,-61.0073 135.444,-62.6786"/>
<polygon fill="midnightblue" stroke="midnightblue" points="108.857,-54.2104 98.388,-55.8364 107.586,-61.094 108.857,-54.2104"/>
</g>
<!-- Node3 -->
<g id="node3" class="node"><title>Node3</title>
<g id="a_node3"><a xlink:href="classPEDIndividualsExtractor.html#a558e967ecc958974aa8096bca6f23273" target="_top" xlink:title="PEDIndividualsExtractor\l::getIndividuals">
<polygon fill="white" stroke="black" points="133.982,-0.5 133.982,-37.3 271.282,-37.3 271.282,-0.5 133.982,-0.5"/>
<text text-anchor="start" x="141.982" y="-22.5" font-family="-adobe-utopia-medium-i-normal--0-0-0-0-p-0-iso10646-1" font-size="12.00">PEDIndividualsExtractor</text>
<text text-anchor="middle" x="202.632" y="-8.1" font-family="-adobe-utopia-medium-i-normal--0-0-0-0-p-0-iso10646-1" font-size="12.00">::getIndividuals</text>
</a>
</g>
</g>
<!-- Node1&#45;&gt;Node3 -->
<g id="edge2" class="edge"><title>Node1&#45;&gt;Node3</title>
<path fill="none" stroke="midnightblue" d="M108.365,-36.1215C116.688,-34.5846 125.308,-32.9929 133.793,-31.4262"/>
<polygon fill="midnightblue" stroke="midnightblue" points="107.586,-32.706 98.388,-37.9636 108.857,-39.5896 107.586,-32.706"/>
</g>
</g>
</svg>
