<?xml version="1.0" encoding="UTF-8" standalone="no"?>
<!DOCTYPE svg PUBLIC "-//W3C//DTD SVG 1.1//EN"
 "http://www.w3.org/Graphics/SVG/1.1/DTD/svg11.dtd">
<!-- Generated by graphviz version 2.38.0 (20140413.2041)
 -->
<!-- Title: GERMLINE Pages: 1 -->
<svg width="313pt" height="341pt"
 viewBox="0.00 0.00 313.16 341.00" xmlns="http://www.w3.org/2000/svg" xmlns:xlink="http://www.w3.org/1999/xlink">
<g id="graph0" class="graph" transform="scale(1 1) rotate(0) translate(4 337)">
<title>GERMLINE</title>
<polygon fill="white" stroke="none" points="-4,4 -4,-337 309.165,-337 309.165,4 -4,4"/>
<!-- Node1 -->
<g id="node1" class="node"><title>Node1</title>
<polygon fill="#bfbfbf" stroke="black" points="195.509,-0.5 195.509,-22.9 273.491,-22.9 273.491,-0.5 195.509,-0.5"/>
<text text-anchor="middle" x="234.5" y="-8.1" font-family="-adobe-utopia-medium-i-normal--0-0-0-0-p-0-iso10646-1" font-size="12.00">GERMLINE</text>
</g>
<!-- Node2 -->
<g id="node2" class="node"><title>Node2</title>
<g id="a_node2"><a xlink:href="classInputManager.html" target="_top" xlink:title="InputManager">
<polygon fill="white" stroke="black" points="192.514,-74.3 192.514,-96.7 276.486,-96.7 276.486,-74.3 192.514,-74.3"/>
<text text-anchor="middle" x="234.5" y="-81.9" font-family="-adobe-utopia-medium-i-normal--0-0-0-0-p-0-iso10646-1" font-size="12.00">InputManager</text>
</a>
</g>
</g>
<!-- Node2&#45;&gt;Node1 -->
<g id="edge1" class="edge"><title>Node2&#45;&gt;Node1</title>
<path fill="none" stroke="#9a32cd" stroke-dasharray="5,2" d="M234.5,-63.9918C234.5,-50.5766 234.5,-33.624 234.5,-22.9681"/>
<polygon fill="#9a32cd" stroke="#9a32cd" points="231,-64.2128 234.5,-74.2128 238,-64.2128 231,-64.2128"/>
<text text-anchor="middle" x="269.656" y="-45" font-family="-adobe-utopia-medium-i-normal--0-0-0-0-p-0-iso10646-1" font-size="12.00"> inputManager</text>
</g>
<!-- Node3 -->
<g id="node3" class="node"><title>Node3</title>
<g id="a_node3"><a xlink:href="classPolymorphicIndividualsExtractor.html" target="_top" xlink:title="PolymorphicIndividualsExtractor">
<polygon fill="white" stroke="black" points="41.1834,-148.1 41.1834,-170.5 217.817,-170.5 217.817,-148.1 41.1834,-148.1"/>
<text text-anchor="middle" x="129.5" y="-155.7" font-family="-adobe-utopia-medium-i-normal--0-0-0-0-p-0-iso10646-1" font-size="12.00">PolymorphicIndividualsExtractor</text>
</a>
</g>
</g>
<!-- Node3&#45;&gt;Node2 -->
<g id="edge2" class="edge"><title>Node3&#45;&gt;Node2</title>
<path fill="none" stroke="#9a32cd" stroke-dasharray="5,2" d="M152.95,-142.265C173.286,-128.359 202.109,-108.649 219.484,-96.7681"/>
<polygon fill="#9a32cd" stroke="#9a32cd" points="150.823,-139.479 144.544,-148.013 154.774,-145.257 150.823,-139.479"/>
<text text-anchor="middle" x="200.331" y="-118.8" font-family="-adobe-utopia-medium-i-normal--0-0-0-0-p-0-iso10646-1" font-size="12.00"> pie</text>
</g>
<!-- Node4 -->
<g id="node4" class="node"><title>Node4</title>
<polygon fill="white" stroke="#bfbfbf" points="0,-236.3 0,-258.7 29,-258.7 29,-236.3 0,-236.3"/>
<text text-anchor="middle" x="14.3348" y="-243.9" font-family="-adobe-utopia-medium-i-normal--0-0-0-0-p-0-iso10646-1" font-size="12.00">int</text>
</g>
<!-- Node4&#45;&gt;Node3 -->
<g id="edge3" class="edge"><title>Node4&#45;&gt;Node3</title>
<path fill="none" stroke="#9a32cd" stroke-dasharray="5,2" d="M16.4498,-225.82C18.6474,-213.59 23.313,-198.653 33.2092,-189 41.7006,-180.717 52.4749,-174.81 63.7201,-170.6"/>
<polygon fill="#9a32cd" stroke="#9a32cd" points="12.9364,-225.68 15.0462,-236.063 19.8716,-226.63 12.9364,-225.68"/>
<text text-anchor="middle" x="79.6454" y="-199.8" font-family="-adobe-utopia-medium-i-normal--0-0-0-0-p-0-iso10646-1" font-size="12.00"> numberOfMarkers</text>
</g>
<!-- Node5 -->
<g id="node5" class="node"><title>Node5</title>
<polygon fill="white" stroke="#bfbfbf" points="110.833,-236.3 110.833,-258.7 148.167,-258.7 148.167,-236.3 110.833,-236.3"/>
<text text-anchor="middle" x="129.5" y="-243.9" font-family="-adobe-utopia-medium-i-normal--0-0-0-0-p-0-iso10646-1" font-size="12.00">bool</text>
</g>
<!-- Node5&#45;&gt;Node3 -->
<g id="edge4" class="edge"><title>Node5&#45;&gt;Node3</title>
<path fill="none" stroke="#9a32cd" stroke-dasharray="5,2" d="M129.5,-225.966C129.5,-208.489 129.5,-184.115 129.5,-170.513"/>
<polygon fill="#9a32cd" stroke="#9a32cd" points="126,-226.273 129.5,-236.273 133,-226.273 126,-226.273"/>
<text text-anchor="middle" x="155.326" y="-207" font-family="-adobe-utopia-medium-i-normal--0-0-0-0-p-0-iso10646-1" font-size="12.00"> valid_flag</text>
<text text-anchor="middle" x="155.326" y="-192.6" font-family="-adobe-utopia-medium-i-normal--0-0-0-0-p-0-iso10646-1" font-size="12.00">phased</text>
</g>
<!-- Node6 -->
<g id="node6" class="node"><title>Node6</title>
<g id="a_node6"><a xlink:href="classIndividuals.html" target="_top" xlink:title="Individuals">
<polygon fill="white" stroke="black" points="169.504,-236.3 169.504,-258.7 239.496,-258.7 239.496,-236.3 169.504,-236.3"/>
<text text-anchor="middle" x="204.5" y="-243.9" font-family="-adobe-utopia-medium-i-normal--0-0-0-0-p-0-iso10646-1" font-size="12.00">Individuals</text>
</a>
</g>
</g>
<!-- Node6&#45;&gt;Node3 -->
<g id="edge5" class="edge"><title>Node6&#45;&gt;Node3</title>
<path fill="none" stroke="#9a32cd" stroke-dasharray="5,2" d="M200.428,-226.059C197.205,-214.146 191.673,-199.459 182.5,-189 175.601,-181.133 166.004,-175.033 156.871,-170.519"/>
<polygon fill="#9a32cd" stroke="#9a32cd" points="197.074,-227.088 202.776,-236.018 203.887,-225.481 197.074,-227.088"/>
<text text-anchor="middle" x="230.002" y="-199.8" font-family="-adobe-utopia-medium-i-normal--0-0-0-0-p-0-iso10646-1" font-size="12.00"> individualsP</text>
</g>
<!-- Node7 -->
<g id="node7" class="node"><title>Node7</title>
<polygon fill="white" stroke="#bfbfbf" points="40.5786,-310.1 40.5786,-332.5 164.421,-332.5 164.421,-310.1 40.5786,-310.1"/>
<text text-anchor="middle" x="102.5" y="-317.7" font-family="-adobe-utopia-medium-i-normal--0-0-0-0-p-0-iso10646-1" font-size="12.00">vector&lt; Individual * &gt;</text>
</g>
<!-- Node7&#45;&gt;Node6 -->
<g id="edge6" class="edge"><title>Node7&#45;&gt;Node6</title>
<path fill="none" stroke="#9a32cd" stroke-dasharray="5,2" d="M122.191,-303.392C132.13,-295.146 144.525,-285.288 156.19,-277.2 165.65,-270.641 176.653,-264.031 185.767,-258.81"/>
<polygon fill="#9a32cd" stroke="#9a32cd" points="119.893,-300.751 114.491,-309.865 124.398,-306.11 119.893,-300.751"/>
<text text-anchor="middle" x="178.655" y="-280.8" font-family="-adobe-utopia-medium-i-normal--0-0-0-0-p-0-iso10646-1" font-size="12.00"> pedigree</text>
</g>
<!-- Node8 -->
<g id="node8" class="node"><title>Node8</title>
<polygon fill="white" stroke="#bfbfbf" points="182.505,-310.1 182.505,-332.5 226.495,-332.5 226.495,-310.1 182.505,-310.1"/>
<text text-anchor="middle" x="204.5" y="-317.7" font-family="-adobe-utopia-medium-i-normal--0-0-0-0-p-0-iso10646-1" font-size="12.00">size_t</text>
</g>
<!-- Node8&#45;&gt;Node6 -->
<g id="edge7" class="edge"><title>Node8&#45;&gt;Node6</title>
<path fill="none" stroke="#9a32cd" stroke-dasharray="5,2" d="M204.5,-299.792C204.5,-286.377 204.5,-269.424 204.5,-258.768"/>
<polygon fill="#9a32cd" stroke="#9a32cd" points="201,-300.013 204.5,-310.013 208,-300.013 201,-300.013"/>
<text text-anchor="middle" x="213.996" y="-280.8" font-family="-adobe-utopia-medium-i-normal--0-0-0-0-p-0-iso10646-1" font-size="12.00"> iter</text>
</g>
<!-- Node9 -->
<g id="node9" class="node"><title>Node9</title>
<polygon fill="white" stroke="#bfbfbf" points="244.833,-310.1 244.833,-332.5 282.167,-332.5 282.167,-310.1 244.833,-310.1"/>
<text text-anchor="middle" x="263.5" y="-317.7" font-family="-adobe-utopia-medium-i-normal--0-0-0-0-p-0-iso10646-1" font-size="12.00">long</text>
</g>
<!-- Node9&#45;&gt;Node6 -->
<g id="edge8" class="edge"><title>Node9&#45;&gt;Node6</title>
<path fill="none" stroke="#9a32cd" stroke-dasharray="5,2" d="M248.599,-302.166C237.314,-288.434 222.219,-270.063 212.938,-258.768"/>
<polygon fill="#9a32cd" stroke="#9a32cd" points="245.994,-304.509 255.047,-310.013 251.402,-300.065 245.994,-304.509"/>
<text text-anchor="middle" x="249.998" y="-280.8" font-family="-adobe-utopia-medium-i-normal--0-0-0-0-p-0-iso10646-1" font-size="12.00"> sets</text>
</g>
<!-- Node10 -->
<g id="node10" class="node"><title>Node10</title>
<polygon fill="white" stroke="#bfbfbf" points="235.835,-148.1 235.835,-170.5 305.165,-170.5 305.165,-148.1 235.835,-148.1"/>
<text text-anchor="middle" x="270.5" y="-155.7" font-family="-adobe-utopia-medium-i-normal--0-0-0-0-p-0-iso10646-1" font-size="12.00">FileFormat</text>
</g>
<!-- Node10&#45;&gt;Node2 -->
<g id="edge9" class="edge"><title>Node10&#45;&gt;Node2</title>
<path fill="none" stroke="#9a32cd" stroke-dasharray="5,2" d="M260.818,-138.989C254.004,-125.399 245.151,-107.744 239.648,-96.7681"/>
<polygon fill="#9a32cd" stroke="#9a32cd" points="257.731,-140.642 265.342,-148.013 263.989,-137.505 257.731,-140.642"/>
<text text-anchor="middle" x="273.993" y="-118.8" font-family="-adobe-utopia-medium-i-normal--0-0-0-0-p-0-iso10646-1" font-size="12.00"> format</text>
</g>
</g>
</svg>
