<?xml version="1.0" encoding="UTF-8" standalone="no"?>
<!DOCTYPE svg PUBLIC "-//W3C//DTD SVG 1.1//EN"
 "http://www.w3.org/Graphics/SVG/1.1/DTD/svg11.dtd">
<!-- Generated by graphviz version 2.38.0 (20140413.2041)
 -->
<!-- Title: Individual::print Pages: 1 -->
<svg width="315pt" height="31pt"
 viewBox="0.00 0.00 315.29 31.40" xmlns="http://www.w3.org/2000/svg" xmlns:xlink="http://www.w3.org/1999/xlink">
<g id="graph0" class="graph" transform="scale(1 1) rotate(0) translate(4 27.4)">
<title>Individual::print</title>
<polygon fill="white" stroke="none" points="-4,4 -4,-27.4 311.29,-27.4 311.29,4 -4,4"/>
<!-- Node1 -->
<g id="node1" class="node"><title>Node1</title>
<polygon fill="#bfbfbf" stroke="black" points="-1.42109e-14,-0.5 -1.42109e-14,-22.9 94.66,-22.9 94.66,-0.5 -1.42109e-14,-0.5"/>
<text text-anchor="middle" x="47.33" y="-8.1" font-family="-adobe-utopia-medium-i-normal--0-0-0-0-p-0-iso10646-1" font-size="12.00">Individual::print</text>
</g>
<!-- Node2 -->
<g id="node2" class="node"><title>Node2</title>
<g id="a_node2"><a xlink:href="classMatchesBuilder.html#a4d8d324cb0d0bab5c991c3d68d3783e7" target="_top" xlink:title="MatchesBuilder::printHaplotypes">
<polygon fill="white" stroke="black" points="130.66,-0.5 130.66,-22.9 307.29,-22.9 307.29,-0.5 130.66,-0.5"/>
<text text-anchor="middle" x="218.975" y="-8.1" font-family="-adobe-utopia-medium-i-normal--0-0-0-0-p-0-iso10646-1" font-size="12.00">MatchesBuilder::printHaplotypes</text>
</a>
</g>
</g>
<!-- Node1&#45;&gt;Node2 -->
<g id="edge1" class="edge"><title>Node1&#45;&gt;Node2</title>
<path fill="none" stroke="midnightblue" d="M104.918,-11.7C113.189,-11.7 121.864,-11.7 130.575,-11.7"/>
<polygon fill="midnightblue" stroke="midnightblue" points="104.686,-8.2001 94.6862,-11.7 104.686,-15.2001 104.686,-8.2001"/>
</g>
</g>
</svg>
