<?xml version="1.0" encoding="UTF-8" standalone="no"?>
<!DOCTYPE svg PUBLIC "-//W3C//DTD SVG 1.1//EN"
 "http://www.w3.org/Graphics/SVG/1.1/DTD/svg11.dtd">
<!-- Generated by graphviz version 2.38.0 (20140413.2041)
 -->
<!-- Title: MarkerSet::print Pages: 1 -->
<svg width="244pt" height="113pt"
 viewBox="0.00 0.00 243.95 113.40" xmlns="http://www.w3.org/2000/svg" xmlns:xlink="http://www.w3.org/1999/xlink">
<g id="graph0" class="graph" transform="scale(1 1) rotate(0) translate(4 109.4)">
<title>MarkerSet::print</title>
<polygon fill="white" stroke="none" points="-4,4 -4,-109.4 239.954,-109.4 239.954,4 -4,4"/>
<!-- Node1 -->
<g id="node1" class="node"><title>Node1</title>
<polygon fill="#bfbfbf" stroke="black" points="7.10543e-15,-41.5 7.10543e-15,-63.9 95.9764,-63.9 95.9764,-41.5 7.10543e-15,-41.5"/>
<text text-anchor="middle" x="47.9882" y="-49.1" font-family="-adobe-utopia-medium-i-normal--0-0-0-0-p-0-iso10646-1" font-size="12.00">MarkerSet::print</text>
</g>
<!-- Node2 -->
<g id="node2" class="node"><title>Node2</title>
<g id="a_node2"><a xlink:href="classSNPs.html#ab60d36a9d490c8d5d155134170ffd2dc" target="_top" xlink:title="SNPs::currentSize">
<polygon fill="white" stroke="black" points="131.976,-82.5 131.976,-104.9 235.954,-104.9 235.954,-82.5 131.976,-82.5"/>
<text text-anchor="middle" x="183.965" y="-90.1" font-family="-adobe-utopia-medium-i-normal--0-0-0-0-p-0-iso10646-1" font-size="12.00">SNPs::currentSize</text>
</a>
</g>
</g>
<!-- Node1&#45;&gt;Node2 -->
<g id="edge1" class="edge"><title>Node1&#45;&gt;Node2</title>
<path fill="none" stroke="midnightblue" d="M85.5981,-63.9034C101.125,-68.655 119.414,-74.2519 135.925,-79.3045"/>
<polygon fill="midnightblue" stroke="midnightblue" points="135.348,-82.7881 145.934,-82.3677 137.396,-76.0945 135.348,-82.7881"/>
</g>
<!-- Node3 -->
<g id="node3" class="node"><title>Node3</title>
<g id="a_node3"><a xlink:href="classSNPs.html#ae8dc84adaeb8544c18c2743bc58b1615" target="_top" xlink:title="SNPs::getSNP">
<polygon fill="white" stroke="black" points="140.962,-41.5 140.962,-63.9 226.969,-63.9 226.969,-41.5 140.962,-41.5"/>
<text text-anchor="middle" x="183.965" y="-49.1" font-family="-adobe-utopia-medium-i-normal--0-0-0-0-p-0-iso10646-1" font-size="12.00">SNPs::getSNP</text>
</a>
</g>
</g>
<!-- Node1&#45;&gt;Node3 -->
<g id="edge2" class="edge"><title>Node1&#45;&gt;Node3</title>
<path fill="none" stroke="midnightblue" d="M96.2235,-52.7C107.298,-52.7 119.164,-52.7 130.453,-52.7"/>
<polygon fill="midnightblue" stroke="midnightblue" points="130.62,-56.2001 140.62,-52.7 130.62,-49.2001 130.62,-56.2001"/>
</g>
<!-- Node4 -->
<g id="node4" class="node"><title>Node4</title>
<g id="a_node4"><a xlink:href="classSNP.html#a9d5b79a5087b525060cbbb4c9667fab8" target="_top" xlink:title="SNP::getVariant">
<polygon fill="white" stroke="black" points="136.307,-0.5 136.307,-22.9 231.624,-22.9 231.624,-0.5 136.307,-0.5"/>
<text text-anchor="middle" x="183.965" y="-8.1" font-family="-adobe-utopia-medium-i-normal--0-0-0-0-p-0-iso10646-1" font-size="12.00">SNP::getVariant</text>
</a>
</g>
</g>
<!-- Node1&#45;&gt;Node4 -->
<g id="edge3" class="edge"><title>Node1&#45;&gt;Node4</title>
<path fill="none" stroke="midnightblue" d="M85.5981,-41.4966C101.125,-36.745 119.414,-31.1481 135.925,-26.0955"/>
<polygon fill="midnightblue" stroke="midnightblue" points="137.396,-29.3055 145.934,-23.0323 135.348,-22.6119 137.396,-29.3055"/>
</g>
</g>
</svg>
