<?xml version="1.0" encoding="UTF-8" standalone="no"?>
<!DOCTYPE svg PUBLIC "-//W3C//DTD SVG 1.1//EN"
 "http://www.w3.org/Graphics/SVG/1.1/DTD/svg11.dtd">
<!-- Generated by graphviz version 2.38.0 (20140413.2041)
 -->
<!-- Title: SNPs::getDistance Pages: 1 -->
<svg width="265pt" height="113pt"
 viewBox="0.00 0.00 264.62 113.40" xmlns="http://www.w3.org/2000/svg" xmlns:xlink="http://www.w3.org/1999/xlink">
<g id="graph0" class="graph" transform="scale(1 1) rotate(0) translate(4 109.4)">
<title>SNPs::getDistance</title>
<polygon fill="white" stroke="none" points="-4,4 -4,-109.4 260.616,-109.4 260.616,4 -4,4"/>
<!-- Node1 -->
<g id="node1" class="node"><title>Node1</title>
<polygon fill="#bfbfbf" stroke="black" points="-1.42109e-14,-41.5 -1.42109e-14,-63.9 105.982,-63.9 105.982,-41.5 -1.42109e-14,-41.5"/>
<text text-anchor="middle" x="52.991" y="-49.1" font-family="-adobe-utopia-medium-i-normal--0-0-0-0-p-0-iso10646-1" font-size="12.00">SNPs::getDistance</text>
</g>
<!-- Node2 -->
<g id="node2" class="node"><title>Node2</title>
<g id="a_node2"><a xlink:href="classMatch.html#a627ea4949c3fb7db98ac9d4928f17ab2" target="_top" xlink:title="Match::assertLength">
<polygon fill="white" stroke="black" points="141.982,-82.5 141.982,-104.9 256.616,-104.9 256.616,-82.5 141.982,-82.5"/>
<text text-anchor="middle" x="199.299" y="-90.1" font-family="-adobe-utopia-medium-i-normal--0-0-0-0-p-0-iso10646-1" font-size="12.00">Match::assertLength</text>
</a>
</g>
</g>
<!-- Node1&#45;&gt;Node2 -->
<g id="edge1" class="edge"><title>Node1&#45;&gt;Node2</title>
<path fill="none" stroke="midnightblue" d="M103.217,-66.6857C121.3,-71.8236 141.529,-77.5708 158.663,-82.4389"/>
<polygon fill="midnightblue" stroke="midnightblue" points="104,-63.2697 93.4238,-63.9034 102.087,-70.0032 104,-63.2697"/>
</g>
<!-- Node3 -->
<g id="node3" class="node"><title>Node3</title>
<g id="a_node3"><a xlink:href="classMatch.html#a06ab75d8736135e06ce44c095ca64e1b" target="_top" xlink:title="Match::length">
<polygon fill="white" stroke="black" points="157.638,-41.5 157.638,-63.9 240.96,-63.9 240.96,-41.5 157.638,-41.5"/>
<text text-anchor="middle" x="199.299" y="-49.1" font-family="-adobe-utopia-medium-i-normal--0-0-0-0-p-0-iso10646-1" font-size="12.00">Match::length</text>
</a>
</g>
</g>
<!-- Node1&#45;&gt;Node3 -->
<g id="edge2" class="edge"><title>Node1&#45;&gt;Node3</title>
<path fill="none" stroke="midnightblue" d="M116.176,-52.7C130.195,-52.7 144.726,-52.7 157.597,-52.7"/>
<polygon fill="midnightblue" stroke="midnightblue" points="116.09,-49.2001 106.089,-52.7 116.089,-56.2001 116.09,-49.2001"/>
</g>
<!-- Node4 -->
<g id="node4" class="node"><title>Node4</title>
<g id="a_node4"><a xlink:href="classMatch.html#a989ae28b68842fc096ee6edb8c1595fd" target="_top" xlink:title="Match::print">
<polygon fill="white" stroke="black" points="161.304,-0.5 161.304,-22.9 237.294,-22.9 237.294,-0.5 161.304,-0.5"/>
<text text-anchor="middle" x="199.299" y="-8.1" font-family="-adobe-utopia-medium-i-normal--0-0-0-0-p-0-iso10646-1" font-size="12.00">Match::print</text>
</a>
</g>
</g>
<!-- Node1&#45;&gt;Node4 -->
<g id="edge3" class="edge"><title>Node1&#45;&gt;Node4</title>
<path fill="none" stroke="midnightblue" d="M103.068,-38.7566C121.983,-33.3826 143.263,-27.3366 160.901,-22.3252"/>
<polygon fill="midnightblue" stroke="midnightblue" points="102.087,-35.3968 93.4238,-41.4966 104,-42.1303 102.087,-35.3968"/>
</g>
</g>
</svg>
