<?xml version="1.0" encoding="UTF-8" standalone="no"?>
<!DOCTYPE svg PUBLIC "-//W3C//DTD SVG 1.1//EN"
 "http://www.w3.org/Graphics/SVG/1.1/DTD/svg11.dtd">
<!-- Generated by graphviz version 2.38.0 (20140413.2041)
 -->
<!-- Title: SNP::getMarkerNumber Pages: 1 -->
<svg width="315pt" height="144pt"
 viewBox="0.00 0.00 315.27 143.60" xmlns="http://www.w3.org/2000/svg" xmlns:xlink="http://www.w3.org/1999/xlink">
<g id="graph0" class="graph" transform="scale(1 1) rotate(0) translate(4 139.6)">
<title>SNP::getMarkerNumber</title>
<polygon fill="white" stroke="none" points="-4,4 -4,-139.6 311.266,-139.6 311.266,4 -4,4"/>
<!-- Node1 -->
<g id="node1" class="node"><title>Node1</title>
<polygon fill="#bfbfbf" stroke="black" points="-1.42109e-14,-49.5 -1.42109e-14,-71.9 133.965,-71.9 133.965,-49.5 -1.42109e-14,-49.5"/>
<text text-anchor="middle" x="66.9824" y="-57.1" font-family="-adobe-utopia-medium-i-normal--0-0-0-0-p-0-iso10646-1" font-size="12.00">SNP::getMarkerNumber</text>
</g>
<!-- Node2 -->
<g id="node2" class="node"><title>Node2</title>
<g id="a_node2"><a xlink:href="classPEDIndividualsExtractor.html#af11b156fe02d076d45f490b1d240f81c" target="_top" xlink:title="PEDIndividualsExtractor\l::getCompleteMarkerSet">
<polygon fill="white" stroke="black" points="169.965,-98.3 169.965,-135.1 307.266,-135.1 307.266,-98.3 169.965,-98.3"/>
<text text-anchor="start" x="177.965" y="-120.3" font-family="-adobe-utopia-medium-i-normal--0-0-0-0-p-0-iso10646-1" font-size="12.00">PEDIndividualsExtractor</text>
<text text-anchor="middle" x="238.615" y="-105.9" font-family="-adobe-utopia-medium-i-normal--0-0-0-0-p-0-iso10646-1" font-size="12.00">::getCompleteMarkerSet</text>
</a>
</g>
</g>
<!-- Node1&#45;&gt;Node2 -->
<g id="edge1" class="edge"><title>Node1&#45;&gt;Node2</title>
<path fill="none" stroke="midnightblue" d="M112.039,-75.244C133.287,-82.2587 159.014,-90.7517 181.634,-98.2192"/>
<polygon fill="midnightblue" stroke="midnightblue" points="112.903,-71.8438 102.31,-72.0324 110.709,-78.4909 112.903,-71.8438"/>
</g>
<!-- Node3 -->
<g id="node3" class="node"><title>Node3</title>
<g id="a_node3"><a xlink:href="classHMIndividualsExtractor.html#acb7f7caa772630162d0edce43977f330" target="_top" xlink:title="HMIndividualsExtractor\l::loadMarkerSet">
<polygon fill="white" stroke="black" points="171.632,-42.3 171.632,-79.1 305.598,-79.1 305.598,-42.3 171.632,-42.3"/>
<text text-anchor="start" x="179.632" y="-64.3" font-family="-adobe-utopia-medium-i-normal--0-0-0-0-p-0-iso10646-1" font-size="12.00">HMIndividualsExtractor</text>
<text text-anchor="middle" x="238.615" y="-49.9" font-family="-adobe-utopia-medium-i-normal--0-0-0-0-p-0-iso10646-1" font-size="12.00">::loadMarkerSet</text>
</a>
</g>
</g>
<!-- Node1&#45;&gt;Node3 -->
<g id="edge2" class="edge"><title>Node1&#45;&gt;Node3</title>
<path fill="none" stroke="midnightblue" d="M144.227,-60.7C153.308,-60.7 162.522,-60.7 171.446,-60.7"/>
<polygon fill="midnightblue" stroke="midnightblue" points="144.053,-57.2001 134.053,-60.7 144.053,-64.2001 144.053,-57.2001"/>
</g>
<!-- Node4 -->
<g id="node4" class="node"><title>Node4</title>
<g id="a_node4"><a xlink:href="classMatch.html#a989ae28b68842fc096ee6edb8c1595fd" target="_top" xlink:title="Match::print">
<polygon fill="white" stroke="black" points="200.621,-0.5 200.621,-22.9 276.61,-22.9 276.61,-0.5 200.621,-0.5"/>
<text text-anchor="middle" x="238.615" y="-8.1" font-family="-adobe-utopia-medium-i-normal--0-0-0-0-p-0-iso10646-1" font-size="12.00">Match::print</text>
</a>
</g>
</g>
<!-- Node1&#45;&gt;Node4 -->
<g id="edge3" class="edge"><title>Node1&#45;&gt;Node4</title>
<path fill="none" stroke="midnightblue" d="M116.781,-46.604C143.38,-38.9208 175.782,-29.561 200.335,-22.4686"/>
<polygon fill="midnightblue" stroke="midnightblue" points="115.535,-43.3207 106.9,-49.4584 117.478,-50.0457 115.535,-43.3207"/>
</g>
</g>
</svg>
