<?xml version="1.0" encoding="UTF-8" standalone="no"?>
<!DOCTYPE svg PUBLIC "-//W3C//DTD SVG 1.1//EN"
 "http://www.w3.org/Graphics/SVG/1.1/DTD/svg11.dtd">
<!-- Generated by graphviz version 2.38.0 (20140413.2041)
 -->
<!-- Title: Individual::setOffset Pages: 1 -->
<svg width="297pt" height="102pt"
 viewBox="0.00 0.00 296.61 101.80" xmlns="http://www.w3.org/2000/svg" xmlns:xlink="http://www.w3.org/1999/xlink">
<g id="graph0" class="graph" transform="scale(1 1) rotate(0) translate(4 97.8)">
<title>Individual::setOffset</title>
<polygon fill="white" stroke="none" points="-4,4 -4,-97.8 292.606,-97.8 292.606,4 -4,4"/>
<!-- Node1 -->
<g id="node1" class="node"><title>Node1</title>
<polygon fill="#bfbfbf" stroke="black" points="0,-35.7 0,-58.1 115.305,-58.1 115.305,-35.7 0,-35.7"/>
<text text-anchor="middle" x="57.6524" y="-43.3" font-family="-adobe-utopia-medium-i-normal--0-0-0-0-p-0-iso10646-1" font-size="12.00">Individual::setOffset</text>
</g>
<!-- Node2 -->
<g id="node2" class="node"><title>Node2</title>
<g id="a_node2"><a xlink:href="classHMIndividualsExtractor.html#a72325936b8729435c174bbe05a4fc68f" target="_top" xlink:title="HMIndividualsExtractor\l::getIndividuals">
<polygon fill="white" stroke="black" points="152.972,-56.5 152.972,-93.3 286.938,-93.3 286.938,-56.5 152.972,-56.5"/>
<text text-anchor="start" x="160.972" y="-78.5" font-family="-adobe-utopia-medium-i-normal--0-0-0-0-p-0-iso10646-1" font-size="12.00">HMIndividualsExtractor</text>
<text text-anchor="middle" x="219.955" y="-64.1" font-family="-adobe-utopia-medium-i-normal--0-0-0-0-p-0-iso10646-1" font-size="12.00">::getIndividuals</text>
</a>
</g>
</g>
<!-- Node1&#45;&gt;Node2 -->
<g id="edge1" class="edge"><title>Node1&#45;&gt;Node2</title>
<path fill="none" stroke="midnightblue" d="M125.659,-58.6041C134.659,-60.1759 143.885,-61.7875 152.868,-63.3566"/>
<polygon fill="midnightblue" stroke="midnightblue" points="126.074,-55.1235 115.621,-56.8506 124.869,-62.0191 126.074,-55.1235"/>
</g>
<!-- Node3 -->
<g id="node3" class="node"><title>Node3</title>
<g id="a_node3"><a xlink:href="classPEDIndividualsExtractor.html#a558e967ecc958974aa8096bca6f23273" target="_top" xlink:title="PEDIndividualsExtractor\l::getIndividuals">
<polygon fill="white" stroke="black" points="151.305,-0.5 151.305,-37.3 288.606,-37.3 288.606,-0.5 151.305,-0.5"/>
<text text-anchor="start" x="159.305" y="-22.5" font-family="-adobe-utopia-medium-i-normal--0-0-0-0-p-0-iso10646-1" font-size="12.00">PEDIndividualsExtractor</text>
<text text-anchor="middle" x="219.955" y="-8.1" font-family="-adobe-utopia-medium-i-normal--0-0-0-0-p-0-iso10646-1" font-size="12.00">::getIndividuals</text>
</a>
</g>
</g>
<!-- Node1&#45;&gt;Node3 -->
<g id="edge2" class="edge"><title>Node1&#45;&gt;Node3</title>
<path fill="none" stroke="midnightblue" d="M125.482,-35.227C133.983,-33.7421 142.689,-32.2213 151.205,-30.7339"/>
<polygon fill="midnightblue" stroke="midnightblue" points="124.869,-31.7809 115.621,-36.9494 126.074,-38.6765 124.869,-31.7809"/>
</g>
</g>
</svg>
