<?xml version="1.0" encoding="UTF-8" standalone="no"?>
<!DOCTYPE svg PUBLIC "-//W3C//DTD SVG 1.1//EN"
 "http://www.w3.org/Graphics/SVG/1.1/DTD/svg11.dtd">
<!-- Generated by graphviz version 2.38.0 (20140413.2041)
 -->
<!-- Title: Individual::addMarkerSet Pages: 1 -->
<svg width="321pt" height="102pt"
 viewBox="0.00 0.00 321.27 101.80" xmlns="http://www.w3.org/2000/svg" xmlns:xlink="http://www.w3.org/1999/xlink">
<g id="graph0" class="graph" transform="scale(1 1) rotate(0) translate(4 97.8)">
<title>Individual::addMarkerSet</title>
<polygon fill="white" stroke="none" points="-4,4 -4,-97.8 317.266,-97.8 317.266,4 -4,4"/>
<!-- Node1 -->
<g id="node1" class="node"><title>Node1</title>
<polygon fill="#bfbfbf" stroke="black" points="-1.42109e-14,-35.7 -1.42109e-14,-58.1 139.965,-58.1 139.965,-35.7 -1.42109e-14,-35.7"/>
<text text-anchor="middle" x="69.9824" y="-43.3" font-family="-adobe-utopia-medium-i-normal--0-0-0-0-p-0-iso10646-1" font-size="12.00">Individual::addMarkerSet</text>
</g>
<!-- Node2 -->
<g id="node2" class="node"><title>Node2</title>
<g id="a_node2"><a xlink:href="classPEDIndividualsExtractor.html#af11b156fe02d076d45f490b1d240f81c" target="_top" xlink:title="PEDIndividualsExtractor\l::getCompleteMarkerSet">
<polygon fill="white" stroke="black" points="175.965,-56.5 175.965,-93.3 313.266,-93.3 313.266,-56.5 175.965,-56.5"/>
<text text-anchor="start" x="183.965" y="-78.5" font-family="-adobe-utopia-medium-i-normal--0-0-0-0-p-0-iso10646-1" font-size="12.00">PEDIndividualsExtractor</text>
<text text-anchor="middle" x="244.615" y="-64.1" font-family="-adobe-utopia-medium-i-normal--0-0-0-0-p-0-iso10646-1" font-size="12.00">::getCompleteMarkerSet</text>
</a>
</g>
</g>
<!-- Node1&#45;&gt;Node2 -->
<g id="edge1" class="edge"><title>Node1&#45;&gt;Node2</title>
<path fill="none" stroke="midnightblue" d="M150.181,-59.7456C158.734,-61.1328 167.381,-62.5353 175.783,-63.898"/>
<polygon fill="midnightblue" stroke="midnightblue" points="150.635,-56.2736 140.204,-58.1273 149.515,-63.1833 150.635,-56.2736"/>
</g>
<!-- Node3 -->
<g id="node3" class="node"><title>Node3</title>
<g id="a_node3"><a xlink:href="classHMIndividualsExtractor.html#ad6b05cde2b0c840b526d3f14f531090b" target="_top" xlink:title="HMIndividualsExtractor\l::getCompleteMarkerSet">
<polygon fill="white" stroke="black" points="177.298,-0.5 177.298,-37.3 311.932,-37.3 311.932,-0.5 177.298,-0.5"/>
<text text-anchor="start" x="185.298" y="-22.5" font-family="-adobe-utopia-medium-i-normal--0-0-0-0-p-0-iso10646-1" font-size="12.00">HMIndividualsExtractor</text>
<text text-anchor="middle" x="244.615" y="-8.1" font-family="-adobe-utopia-medium-i-normal--0-0-0-0-p-0-iso10646-1" font-size="12.00">::getCompleteMarkerSet</text>
</a>
</g>
</g>
<!-- Node1&#45;&gt;Node3 -->
<g id="edge2" class="edge"><title>Node1&#45;&gt;Node3</title>
<path fill="none" stroke="midnightblue" d="M150.293,-34.0363C159.286,-32.5778 168.38,-31.1026 177.183,-29.6748"/>
<polygon fill="midnightblue" stroke="midnightblue" points="149.515,-30.6167 140.204,-35.6727 150.635,-37.5264 149.515,-30.6167"/>
</g>
</g>
</svg>
