<?xml version="1.0" encoding="UTF-8" standalone="no"?>
<!DOCTYPE svg PUBLIC "-//W3C//DTD SVG 1.1//EN"
 "http://www.w3.org/Graphics/SVG/1.1/DTD/svg11.dtd">
<!-- Generated by graphviz version 2.38.0 (20140413.2041)
 -->
<!-- Title: SNPs::mapNucleotideToBinary Pages: 1 -->
<svg width="350pt" height="46pt"
 viewBox="0.00 0.00 349.94 45.80" xmlns="http://www.w3.org/2000/svg" xmlns:xlink="http://www.w3.org/1999/xlink">
<g id="graph0" class="graph" transform="scale(1 1) rotate(0) translate(4 41.8)">
<title>SNPs::mapNucleotideToBinary</title>
<polygon fill="white" stroke="none" points="-4,4 -4,-41.8 345.941,-41.8 345.941,4 -4,4"/>
<!-- Node1 -->
<g id="node1" class="node"><title>Node1</title>
<polygon fill="#bfbfbf" stroke="black" points="-1.42109e-14,-7.7 -1.42109e-14,-30.1 168.64,-30.1 168.64,-7.7 -1.42109e-14,-7.7"/>
<text text-anchor="middle" x="84.32" y="-15.3" font-family="-adobe-utopia-medium-i-normal--0-0-0-0-p-0-iso10646-1" font-size="12.00">SNPs::mapNucleotideToBinary</text>
</g>
<!-- Node2 -->
<g id="node2" class="node"><title>Node2</title>
<g id="a_node2"><a xlink:href="classPEDIndividualsExtractor.html#a4e1408fd9de04869faaaf570bf42b48b" target="_top" xlink:title="PEDIndividualsExtractor\l::readMarkerSet">
<polygon fill="white" stroke="black" points="204.64,-0.5 204.64,-37.3 341.941,-37.3 341.941,-0.5 204.64,-0.5"/>
<text text-anchor="start" x="212.64" y="-22.5" font-family="-adobe-utopia-medium-i-normal--0-0-0-0-p-0-iso10646-1" font-size="12.00">PEDIndividualsExtractor</text>
<text text-anchor="middle" x="273.29" y="-8.1" font-family="-adobe-utopia-medium-i-normal--0-0-0-0-p-0-iso10646-1" font-size="12.00">::readMarkerSet</text>
</a>
</g>
</g>
<!-- Node1&#45;&gt;Node2 -->
<g id="edge1" class="edge"><title>Node1&#45;&gt;Node2</title>
<path fill="none" stroke="midnightblue" d="M178.831,-18.9C187.485,-18.9 196.139,-18.9 204.496,-18.9"/>
<polygon fill="midnightblue" stroke="midnightblue" points="178.689,-15.4001 168.689,-18.9 178.689,-22.4001 178.689,-15.4001"/>
</g>
</g>
</svg>
