<?xml version="1.0" encoding="UTF-8" standalone="no"?>
<!DOCTYPE svg PUBLIC "-//W3C//DTD SVG 1.1//EN"
 "http://www.w3.org/Graphics/SVG/1.1/DTD/svg11.dtd">
<!-- Generated by graphviz version 2.38.0 (20140413.2041)
 -->
<!-- Title: Individual::assertHomozygous Pages: 1 -->
<svg width="1136pt" height="46pt"
 viewBox="0.00 0.00 1135.80 45.80" xmlns="http://www.w3.org/2000/svg" xmlns:xlink="http://www.w3.org/1999/xlink">
<g id="graph0" class="graph" transform="scale(1 1) rotate(0) translate(4 41.8)">
<title>Individual::assertHomozygous</title>
<polygon fill="white" stroke="none" points="-4,4 -4,-41.8 1131.8,-41.8 1131.8,4 -4,4"/>
<!-- Node1 -->
<g id="node1" class="node"><title>Node1</title>
<polygon fill="#bfbfbf" stroke="black" points="9.9476e-14,-7.7 9.9476e-14,-30.1 163.304,-30.1 163.304,-7.7 9.9476e-14,-7.7"/>
<text text-anchor="middle" x="81.6518" y="-15.3" font-family="-adobe-utopia-medium-i-normal--0-0-0-0-p-0-iso10646-1" font-size="12.00">Individual::assertHomozygous</text>
</g>
<!-- Node2 -->
<g id="node2" class="node"><title>Node2</title>
<g id="a_node2"><a xlink:href="classMatchFactory.html#aa1f3b5e8f0e2fbd5ac2dcbc24a9e6812" target="_top" xlink:title="MatchFactory::hash">
<polygon fill="white" stroke="black" points="199.304,-7.7 199.304,-30.1 311.276,-30.1 311.276,-7.7 199.304,-7.7"/>
<text text-anchor="middle" x="255.29" y="-15.3" font-family="-adobe-utopia-medium-i-normal--0-0-0-0-p-0-iso10646-1" font-size="12.00">MatchFactory::hash</text>
</a>
</g>
</g>
<!-- Node1&#45;&gt;Node2 -->
<g id="edge1" class="edge"><title>Node1&#45;&gt;Node2</title>
<path fill="none" stroke="midnightblue" d="M173.579,-18.9C182.203,-18.9 190.758,-18.9 198.893,-18.9"/>
<polygon fill="midnightblue" stroke="midnightblue" points="173.445,-15.4001 163.445,-18.9 173.445,-22.4001 173.445,-15.4001"/>
</g>
<!-- Node3 -->
<g id="node3" class="node"><title>Node3</title>
<g id="a_node3"><a xlink:href="classMatchesBuilder.html#af44853a4e7540f4f54a802a5d0c45faf" target="_top" xlink:title="MatchesBuilder::matchMarkerSet">
<polygon fill="white" stroke="black" points="347.276,-7.7 347.276,-30.1 526.554,-30.1 526.554,-7.7 347.276,-7.7"/>
<text text-anchor="middle" x="436.915" y="-15.3" font-family="-adobe-utopia-medium-i-normal--0-0-0-0-p-0-iso10646-1" font-size="12.00">MatchesBuilder::matchMarkerSet</text>
</a>
</g>
</g>
<!-- Node2&#45;&gt;Node3 -->
<g id="edge2" class="edge"><title>Node2&#45;&gt;Node3</title>
<path fill="none" stroke="midnightblue" d="M321.857,-18.9C330.058,-18.9 338.55,-18.9 347.031,-18.9"/>
<polygon fill="midnightblue" stroke="midnightblue" points="321.649,-15.4001 311.649,-18.9 321.649,-22.4001 321.649,-15.4001"/>
</g>
<!-- Node4 -->
<g id="node4" class="node"><title>Node4</title>
<g id="a_node4"><a xlink:href="classMatchesBuilder.html#ae8d8a0ff7f0726406e83d4fa55a96bf4" target="_top" xlink:title="MatchesBuilder::matchAll\lMarkers">
<polygon fill="white" stroke="black" points="562.554,-0.5 562.554,-37.3 706.522,-37.3 706.522,-0.5 562.554,-0.5"/>
<text text-anchor="start" x="570.554" y="-22.5" font-family="-adobe-utopia-medium-i-normal--0-0-0-0-p-0-iso10646-1" font-size="12.00">MatchesBuilder::matchAll</text>
<text text-anchor="middle" x="634.538" y="-8.1" font-family="-adobe-utopia-medium-i-normal--0-0-0-0-p-0-iso10646-1" font-size="12.00">Markers</text>
</a>
</g>
</g>
<!-- Node3&#45;&gt;Node4 -->
<g id="edge3" class="edge"><title>Node3&#45;&gt;Node4</title>
<path fill="none" stroke="midnightblue" d="M536.747,-18.9C545.427,-18.9 554.096,-18.9 562.481,-18.9"/>
<polygon fill="midnightblue" stroke="midnightblue" points="536.569,-15.4001 526.569,-18.9 536.569,-22.4001 536.569,-15.4001"/>
</g>
<!-- Node5 -->
<g id="node5" class="node"><title>Node5</title>
<g id="a_node5"><a xlink:href="classMatchesBuilder.html#a31faf645700f38ac0d7d164b57cfebd1" target="_top" xlink:title="MatchesBuilder::buildMatches">
<polygon fill="white" stroke="black" points="742.522,-7.7 742.522,-30.1 907.153,-30.1 907.153,-7.7 742.522,-7.7"/>
<text text-anchor="middle" x="824.837" y="-15.3" font-family="-adobe-utopia-medium-i-normal--0-0-0-0-p-0-iso10646-1" font-size="12.00">MatchesBuilder::buildMatches</text>
</a>
</g>
</g>
<!-- Node4&#45;&gt;Node5 -->
<g id="edge4" class="edge"><title>Node4&#45;&gt;Node5</title>
<path fill="none" stroke="midnightblue" d="M716.948,-18.9C725.4,-18.9 733.992,-18.9 742.444,-18.9"/>
<polygon fill="midnightblue" stroke="midnightblue" points="716.726,-15.4001 706.726,-18.9 716.726,-22.4001 716.726,-15.4001"/>
</g>
<!-- Node6 -->
<g id="node6" class="node"><title>Node6</title>
<g id="a_node6"><a xlink:href="classGERMLINE.html#a7912aa3108f42f42e06c615b460d0565" target="_top" xlink:title="GERMLINE::mine">
<polygon fill="white" stroke="black" points="943.153,-7.7 943.153,-30.1 1051.8,-30.1 1051.8,-7.7 943.153,-7.7"/>
<text text-anchor="middle" x="997.477" y="-15.3" font-family="-adobe-utopia-medium-i-normal--0-0-0-0-p-0-iso10646-1" font-size="12.00">GERMLINE::mine</text>
</a>
</g>
</g>
<!-- Node5&#45;&gt;Node6 -->
<g id="edge5" class="edge"><title>Node5&#45;&gt;Node6</title>
<path fill="none" stroke="midnightblue" d="M917.162,-18.9C926.008,-18.9 934.766,-18.9 943.056,-18.9"/>
<polygon fill="midnightblue" stroke="midnightblue" points="917.159,-15.4001 907.159,-18.9 917.159,-22.4001 917.159,-15.4001"/>
</g>
<!-- Node7 -->
<g id="node7" class="node"><title>Node7</title>
<g id="a_node7"><a xlink:href="GERMLINE__0001_8cpp.html#a0ddf1224851353fc92bfbff6f499fa97" target="_top" xlink:title="main">
<polygon fill="white" stroke="black" points="1087.8,-7.7 1087.8,-30.1 1127.8,-30.1 1127.8,-7.7 1087.8,-7.7"/>
<text text-anchor="middle" x="1107.8" y="-15.3" font-family="-adobe-utopia-medium-i-normal--0-0-0-0-p-0-iso10646-1" font-size="12.00">main</text>
</a>
</g>
</g>
<!-- Node6&#45;&gt;Node7 -->
<g id="edge6" class="edge"><title>Node6&#45;&gt;Node7</title>
<path fill="none" stroke="midnightblue" d="M1062.15,-18.9C1071.42,-18.9 1080.3,-18.9 1087.67,-18.9"/>
<polygon fill="midnightblue" stroke="midnightblue" points="1062,-15.4001 1052,-18.9 1062,-22.4001 1062,-15.4001"/>
</g>
</g>
</svg>
