<?xml version="1.0" encoding="UTF-8" standalone="no"?>
<!DOCTYPE svg PUBLIC "-//W3C//DTD SVG 1.1//EN"
 "http://www.w3.org/Graphics/SVG/1.1/DTD/svg11.dtd">
<!-- Generated by graphviz version 2.38.0 (20140413.2041)
 -->
<!-- Title: Chromosome::getMarkerSet Pages: 1 -->
<svg width="1640pt" height="356pt"
 viewBox="0.00 0.00 1640.37 356.40" xmlns="http://www.w3.org/2000/svg" xmlns:xlink="http://www.w3.org/1999/xlink">
<g id="graph0" class="graph" transform="scale(1 1) rotate(0) translate(4 352.4)">
<title>Chromosome::getMarkerSet</title>
<polygon fill="white" stroke="none" points="-4,4 -4,-352.4 1636.37,-352.4 1636.37,4 -4,4"/>
<!-- Node1 -->
<g id="node1" class="node"><title>Node1</title>
<polygon fill="#bfbfbf" stroke="black" points="-2.84217e-14,-123.5 -2.84217e-14,-145.9 152.634,-145.9 152.634,-123.5 -2.84217e-14,-123.5"/>
<text text-anchor="middle" x="76.3172" y="-131.1" font-family="-adobe-utopia-medium-i-normal--0-0-0-0-p-0-iso10646-1" font-size="12.00">Chromosome::getMarkerSet</text>
</g>
<!-- Node2 -->
<g id="node2" class="node"><title>Node2</title>
<g id="a_node2"><a xlink:href="classMatch.html#a7c47a9c7017d308d2ae58fac5a204179" target="_top" xlink:title="Match::approxEqual">
<polygon fill="white" stroke="black" points="188.634,-264.5 188.634,-286.9 303.273,-286.9 303.273,-264.5 188.634,-264.5"/>
<text text-anchor="middle" x="245.954" y="-272.1" font-family="-adobe-utopia-medium-i-normal--0-0-0-0-p-0-iso10646-1" font-size="12.00">Match::approxEqual</text>
</a>
</g>
</g>
<!-- Node1&#45;&gt;Node2 -->
<g id="edge1" class="edge"><title>Node1&#45;&gt;Node2</title>
<path fill="none" stroke="midnightblue" d="M98.0659,-152.639C120.338,-171.842 156.814,-203.133 188.634,-229.7 202.977,-241.675 219.559,-255.178 230.998,-264.441"/>
<polygon fill="midnightblue" stroke="midnightblue" points="100.122,-149.791 90.2645,-145.907 95.5485,-155.09 100.122,-149.791"/>
</g>
<!-- Node11 -->
<g id="node11" class="node"><title>Node11</title>
<g id="a_node11"><a xlink:href="classMatchFactory.html#aa1f3b5e8f0e2fbd5ac2dcbc24a9e6812" target="_top" xlink:title="MatchFactory::hash">
<polygon fill="white" stroke="black" points="694.209,-284.5 694.209,-306.9 806.182,-306.9 806.182,-284.5 694.209,-284.5"/>
<text text-anchor="middle" x="750.196" y="-292.1" font-family="-adobe-utopia-medium-i-normal--0-0-0-0-p-0-iso10646-1" font-size="12.00">MatchFactory::hash</text>
</a>
</g>
</g>
<!-- Node1&#45;&gt;Node11 -->
<g id="edge15" class="edge"><title>Node1&#45;&gt;Node11</title>
<path fill="none" stroke="midnightblue" d="M100.809,-151.718C122.463,-166.414 156.083,-186.798 188.634,-196.7 384.858,-256.391 453.451,-171.419 648.546,-234.7 682.365,-245.669 716.709,-269.908 735.24,-284.31"/>
<polygon fill="midnightblue" stroke="midnightblue" points="102.787,-148.83 92.5743,-146.009 98.7989,-154.583 102.787,-148.83"/>
</g>
<!-- Node13 -->
<g id="node13" class="node"><title>Node13</title>
<g id="a_node13"><a xlink:href="classMatch.html#ad096e35ab1b57725ca15372b1c0eebe6" target="_top" xlink:title="Match::diff">
<polygon fill="white" stroke="black" points="210.629,-164.5 210.629,-186.9 281.278,-186.9 281.278,-164.5 210.629,-164.5"/>
<text text-anchor="middle" x="245.954" y="-172.1" font-family="-adobe-utopia-medium-i-normal--0-0-0-0-p-0-iso10646-1" font-size="12.00">Match::diff</text>
</a>
</g>
</g>
<!-- Node1&#45;&gt;Node13 -->
<g id="edge13" class="edge"><title>Node1&#45;&gt;Node13</title>
<path fill="none" stroke="midnightblue" d="M133.064,-148.334C158.609,-154.582 188.087,-161.792 210.372,-167.242"/>
<polygon fill="midnightblue" stroke="midnightblue" points="133.67,-144.879 123.125,-145.903 132.007,-151.679 133.67,-144.879"/>
</g>
<!-- Node15 -->
<g id="node15" class="node"><title>Node15</title>
<g id="a_node15"><a xlink:href="classMatch.html#ad3c0caeb0a6c2e878ab32d82ad6fe9d8" target="_top" xlink:title="Match::isHom">
<polygon fill="white" stroke="black" points="203.292,-123.5 203.292,-145.9 288.616,-145.9 288.616,-123.5 203.292,-123.5"/>
<text text-anchor="middle" x="245.954" y="-131.1" font-family="-adobe-utopia-medium-i-normal--0-0-0-0-p-0-iso10646-1" font-size="12.00">Match::isHom</text>
</a>
</g>
</g>
<!-- Node1&#45;&gt;Node15 -->
<g id="edge16" class="edge"><title>Node1&#45;&gt;Node15</title>
<path fill="none" stroke="midnightblue" d="M162.913,-134.7C176.818,-134.7 190.658,-134.7 202.9,-134.7"/>
<polygon fill="midnightblue" stroke="midnightblue" points="162.799,-131.2 152.799,-134.7 162.799,-138.2 162.799,-131.2"/>
</g>
<!-- Node16 -->
<g id="node16" class="node"><title>Node16</title>
<g id="a_node16"><a xlink:href="Chromosome_8h.html#ae8d12f0e35afe596fb82ea2aaec523f0" target="_top" xlink:title="operator\&lt;\&lt;">
<polygon fill="white" stroke="black" points="211.198,-82.5 211.198,-104.9 280.71,-104.9 280.71,-82.5 211.198,-82.5"/>
<text text-anchor="middle" x="245.954" y="-90.1" font-family="-adobe-utopia-medium-i-normal--0-0-0-0-p-0-iso10646-1" font-size="12.00">operator&lt;&lt;</text>
</a>
</g>
</g>
<!-- Node1&#45;&gt;Node16 -->
<g id="edge18" class="edge"><title>Node1&#45;&gt;Node16</title>
<path fill="none" stroke="midnightblue" d="M133.171,-121.039C158.997,-114.723 188.824,-107.428 211.169,-101.963"/>
<polygon fill="midnightblue" stroke="midnightblue" points="132.007,-117.721 123.125,-123.497 133.67,-124.521 132.007,-117.721"/>
</g>
<!-- Node17 -->
<g id="node17" class="node"><title>Node17</title>
<g id="a_node17"><a xlink:href="classMatch.html#ad8dfa0cc3b9bc5cacc26457f6098904b" target="_top" xlink:title="Match::scanLeft">
<polygon fill="white" stroke="black" points="198.638,-41.5 198.638,-63.9 293.27,-63.9 293.27,-41.5 198.638,-41.5"/>
<text text-anchor="middle" x="245.954" y="-49.1" font-family="-adobe-utopia-medium-i-normal--0-0-0-0-p-0-iso10646-1" font-size="12.00">Match::scanLeft</text>
</a>
</g>
</g>
<!-- Node1&#45;&gt;Node17 -->
<g id="edge19" class="edge"><title>Node1&#45;&gt;Node17</title>
<path fill="none" stroke="midnightblue" d="M104.165,-118.076C126.314,-104.773 158.829,-86.1789 188.634,-72.7 195.536,-69.579 203.081,-66.6116 210.341,-63.9641"/>
<polygon fill="midnightblue" stroke="midnightblue" points="102.083,-115.245 95.3457,-123.422 105.711,-121.231 102.083,-115.245"/>
</g>
<!-- Node18 -->
<g id="node18" class="node"><title>Node18</title>
<g id="a_node18"><a xlink:href="classMatch.html#a5ddbdc8424b9fdfe8327ddd7c15637e8" target="_top" xlink:title="Match::scanRight">
<polygon fill="white" stroke="black" points="195.295,-0.5 195.295,-22.9 296.613,-22.9 296.613,-0.5 195.295,-0.5"/>
<text text-anchor="middle" x="245.954" y="-8.1" font-family="-adobe-utopia-medium-i-normal--0-0-0-0-p-0-iso10646-1" font-size="12.00">Match::scanRight</text>
</a>
</g>
</g>
<!-- Node1&#45;&gt;Node18 -->
<g id="edge21" class="edge"><title>Node1&#45;&gt;Node18</title>
<path fill="none" stroke="midnightblue" d="M93.5582,-115.524C113.765,-92.7323 150.309,-54.8781 188.634,-31.7 194.139,-28.3709 200.281,-25.4813 206.428,-23.0135"/>
<polygon fill="midnightblue" stroke="midnightblue" points="90.813,-113.347 86.8796,-123.185 96.0893,-117.947 90.813,-113.347"/>
</g>
<!-- Node3 -->
<g id="node3" class="node"><title>Node3</title>
<g id="a_node3"><a xlink:href="classIndividual.html#a37fd25dcc27a8613ca4e5a8d9bcbaca6" target="_top" xlink:title="Individual::assertShares">
<polygon fill="white" stroke="black" points="684.546,-325.5 684.546,-347.9 815.845,-347.9 815.845,-325.5 684.546,-325.5"/>
<text text-anchor="middle" x="750.196" y="-333.1" font-family="-adobe-utopia-medium-i-normal--0-0-0-0-p-0-iso10646-1" font-size="12.00">Individual::assertShares</text>
</a>
</g>
</g>
<!-- Node2&#45;&gt;Node3 -->
<g id="edge2" class="edge"><title>Node2&#45;&gt;Node3</title>
<path fill="none" stroke="midnightblue" d="M302.732,-289.151C314.748,-291.834 327.404,-294.5 339.273,-296.7 460.026,-319.082 603.261,-329.436 684.461,-333.827"/>
<polygon fill="midnightblue" stroke="midnightblue" points="303.348,-285.701 292.822,-286.902 301.799,-292.528 303.348,-285.701"/>
</g>
<!-- Node9 -->
<g id="node9" class="node"><title>Node9</title>
<g id="a_node9"><a xlink:href="classMatch.html#afb81327901b29b02ff117406cdec0a4e" target="_top" xlink:title="Match::extendBack">
<polygon fill="white" stroke="black" points="339.273,-264.5 339.273,-286.9 449.243,-286.9 449.243,-264.5 339.273,-264.5"/>
<text text-anchor="middle" x="394.258" y="-272.1" font-family="-adobe-utopia-medium-i-normal--0-0-0-0-p-0-iso10646-1" font-size="12.00">Match::extendBack</text>
</a>
</g>
</g>
<!-- Node2&#45;&gt;Node9 -->
<g id="edge8" class="edge"><title>Node2&#45;&gt;Node9</title>
<path fill="none" stroke="midnightblue" d="M313.538,-275.7C322.146,-275.7 330.876,-275.7 339.246,-275.7"/>
<polygon fill="midnightblue" stroke="midnightblue" points="313.519,-272.2 303.519,-275.7 313.519,-279.2 313.519,-272.2"/>
</g>
<!-- Node4 -->
<g id="node4" class="node"><title>Node4</title>
<g id="a_node4"><a xlink:href="classMatchesBuilder.html#af44853a4e7540f4f54a802a5d0c45faf" target="_top" xlink:title="MatchesBuilder::matchMarkerSet">
<polygon fill="white" stroke="black" points="851.845,-304.5 851.845,-326.9 1031.12,-326.9 1031.12,-304.5 851.845,-304.5"/>
<text text-anchor="middle" x="941.484" y="-312.1" font-family="-adobe-utopia-medium-i-normal--0-0-0-0-p-0-iso10646-1" font-size="12.00">MatchesBuilder::matchMarkerSet</text>
</a>
</g>
</g>
<!-- Node3&#45;&gt;Node4 -->
<g id="edge3" class="edge"><title>Node3&#45;&gt;Node4</title>
<path fill="none" stroke="midnightblue" d="M826.147,-328.385C834.509,-327.457 843.085,-326.506 851.598,-325.561"/>
<polygon fill="midnightblue" stroke="midnightblue" points="825.626,-324.921 816.073,-329.502 826.398,-331.878 825.626,-324.921"/>
</g>
<!-- Node5 -->
<g id="node5" class="node"><title>Node5</title>
<g id="a_node5"><a xlink:href="classMatchesBuilder.html#ae8d8a0ff7f0726406e83d4fa55a96bf4" target="_top" xlink:title="MatchesBuilder::matchAll\lMarkers">
<polygon fill="white" stroke="black" points="1067.12,-297.3 1067.12,-334.1 1211.09,-334.1 1211.09,-297.3 1067.12,-297.3"/>
<text text-anchor="start" x="1075.12" y="-319.3" font-family="-adobe-utopia-medium-i-normal--0-0-0-0-p-0-iso10646-1" font-size="12.00">MatchesBuilder::matchAll</text>
<text text-anchor="middle" x="1139.11" y="-304.9" font-family="-adobe-utopia-medium-i-normal--0-0-0-0-p-0-iso10646-1" font-size="12.00">Markers</text>
</a>
</g>
</g>
<!-- Node4&#45;&gt;Node5 -->
<g id="edge4" class="edge"><title>Node4&#45;&gt;Node5</title>
<path fill="none" stroke="midnightblue" d="M1041.32,-315.7C1050,-315.7 1058.66,-315.7 1067.05,-315.7"/>
<polygon fill="midnightblue" stroke="midnightblue" points="1041.14,-312.2 1031.14,-315.7 1041.14,-319.2 1041.14,-312.2"/>
</g>
<!-- Node6 -->
<g id="node6" class="node"><title>Node6</title>
<g id="a_node6"><a xlink:href="classMatchesBuilder.html#a31faf645700f38ac0d7d164b57cfebd1" target="_top" xlink:title="MatchesBuilder::buildMatches">
<polygon fill="white" stroke="black" points="1247.09,-304.5 1247.09,-326.9 1411.72,-326.9 1411.72,-304.5 1247.09,-304.5"/>
<text text-anchor="middle" x="1329.41" y="-312.1" font-family="-adobe-utopia-medium-i-normal--0-0-0-0-p-0-iso10646-1" font-size="12.00">MatchesBuilder::buildMatches</text>
</a>
</g>
</g>
<!-- Node5&#45;&gt;Node6 -->
<g id="edge5" class="edge"><title>Node5&#45;&gt;Node6</title>
<path fill="none" stroke="midnightblue" d="M1221.52,-315.7C1229.97,-315.7 1238.56,-315.7 1247.01,-315.7"/>
<polygon fill="midnightblue" stroke="midnightblue" points="1221.29,-312.2 1211.29,-315.7 1221.29,-319.2 1221.29,-312.2"/>
</g>
<!-- Node7 -->
<g id="node7" class="node"><title>Node7</title>
<g id="a_node7"><a xlink:href="classGERMLINE.html#a7912aa3108f42f42e06c615b460d0565" target="_top" xlink:title="GERMLINE::mine">
<polygon fill="white" stroke="black" points="1447.72,-304.5 1447.72,-326.9 1556.37,-326.9 1556.37,-304.5 1447.72,-304.5"/>
<text text-anchor="middle" x="1502.05" y="-312.1" font-family="-adobe-utopia-medium-i-normal--0-0-0-0-p-0-iso10646-1" font-size="12.00">GERMLINE::mine</text>
</a>
</g>
</g>
<!-- Node6&#45;&gt;Node7 -->
<g id="edge6" class="edge"><title>Node6&#45;&gt;Node7</title>
<path fill="none" stroke="midnightblue" d="M1421.73,-315.7C1430.58,-315.7 1439.34,-315.7 1447.62,-315.7"/>
<polygon fill="midnightblue" stroke="midnightblue" points="1421.73,-312.2 1411.73,-315.7 1421.73,-319.2 1421.73,-312.2"/>
</g>
<!-- Node8 -->
<g id="node8" class="node"><title>Node8</title>
<g id="a_node8"><a xlink:href="GERMLINE__0001_8cpp.html#a0ddf1224851353fc92bfbff6f499fa97" target="_top" xlink:title="main">
<polygon fill="white" stroke="black" points="1592.37,-304.5 1592.37,-326.9 1632.37,-326.9 1632.37,-304.5 1592.37,-304.5"/>
<text text-anchor="middle" x="1612.37" y="-312.1" font-family="-adobe-utopia-medium-i-normal--0-0-0-0-p-0-iso10646-1" font-size="12.00">main</text>
</a>
</g>
</g>
<!-- Node7&#45;&gt;Node8 -->
<g id="edge7" class="edge"><title>Node7&#45;&gt;Node8</title>
<path fill="none" stroke="midnightblue" d="M1566.72,-315.7C1575.99,-315.7 1584.87,-315.7 1592.24,-315.7"/>
<polygon fill="midnightblue" stroke="midnightblue" points="1566.57,-312.2 1556.57,-315.7 1566.57,-319.2 1566.57,-312.2"/>
</g>
<!-- Node10 -->
<g id="node10" class="node"><title>Node10</title>
<g id="a_node10"><a xlink:href="classIndividual.html#a6e75847d9fdd923bd0cf7a9ec5e2b1a4" target="_top" xlink:title="Individual::assertHomozygous">
<polygon fill="white" stroke="black" points="485.243,-285.5 485.243,-307.9 648.546,-307.9 648.546,-285.5 485.243,-285.5"/>
<text text-anchor="middle" x="566.895" y="-293.1" font-family="-adobe-utopia-medium-i-normal--0-0-0-0-p-0-iso10646-1" font-size="12.00">Individual::assertHomozygous</text>
</a>
</g>
</g>
<!-- Node9&#45;&gt;Node10 -->
<g id="edge9" class="edge"><title>Node9&#45;&gt;Node10</title>
<path fill="none" stroke="midnightblue" d="M459.349,-283.588C467.769,-284.624 476.484,-285.696 485.136,-286.761"/>
<polygon fill="midnightblue" stroke="midnightblue" points="459.601,-280.092 449.248,-282.345 458.746,-287.04 459.601,-280.092"/>
</g>
<!-- Node12 -->
<g id="node12" class="node"><title>Node12</title>
<g id="a_node12"><a xlink:href="classShare.html#aef9bc1c8649dbe3039e1a35ea3050715" target="_top" xlink:title="Share::assertMatches">
<polygon fill="white" stroke="black" points="507.917,-244.5 507.917,-266.9 625.872,-266.9 625.872,-244.5 507.917,-244.5"/>
<text text-anchor="middle" x="566.895" y="-252.1" font-family="-adobe-utopia-medium-i-normal--0-0-0-0-p-0-iso10646-1" font-size="12.00">Share::assertMatches</text>
</a>
</g>
</g>
<!-- Node9&#45;&gt;Node12 -->
<g id="edge12" class="edge"><title>Node9&#45;&gt;Node12</title>
<path fill="none" stroke="midnightblue" d="M459.501,-268.17C475.368,-266.31 492.273,-264.329 507.827,-262.506"/>
<polygon fill="midnightblue" stroke="midnightblue" points="458.773,-264.731 449.248,-269.372 459.588,-271.684 458.773,-264.731"/>
</g>
<!-- Node10&#45;&gt;Node11 -->
<g id="edge10" class="edge"><title>Node10&#45;&gt;Node11</title>
<path fill="none" stroke="midnightblue" d="M658.81,-296.199C670.824,-296.132 682.831,-296.066 693.989,-296.005"/>
<polygon fill="midnightblue" stroke="midnightblue" points="658.716,-292.699 648.736,-296.254 658.755,-299.699 658.716,-292.699"/>
</g>
<!-- Node11&#45;&gt;Node4 -->
<g id="edge11" class="edge"><title>Node11&#45;&gt;Node4</title>
<path fill="none" stroke="midnightblue" d="M816.475,-302.597C827.881,-303.802 839.918,-305.074 851.828,-306.333"/>
<polygon fill="midnightblue" stroke="midnightblue" points="816.512,-299.082 806.2,-301.512 815.777,-306.043 816.512,-299.082"/>
</g>
<!-- Node14 -->
<g id="node14" class="node"><title>Node14</title>
<g id="a_node14"><a xlink:href="classMatch.html#a989ae28b68842fc096ee6edb8c1595fd" target="_top" xlink:title="Match::print">
<polygon fill="white" stroke="black" points="356.263,-82.5 356.263,-104.9 432.253,-104.9 432.253,-82.5 356.263,-82.5"/>
<text text-anchor="middle" x="394.258" y="-90.1" font-family="-adobe-utopia-medium-i-normal--0-0-0-0-p-0-iso10646-1" font-size="12.00">Match::print</text>
</a>
</g>
</g>
<!-- Node13&#45;&gt;Node14 -->
<g id="edge14" class="edge"><title>Node13&#45;&gt;Node14</title>
<path fill="none" stroke="midnightblue" d="M290.854,-161.391C295.115,-159.622 299.32,-157.719 303.273,-155.7 331.995,-141.029 362.252,-118.502 379.34,-105.023"/>
<polygon fill="midnightblue" stroke="midnightblue" points="289.548,-158.144 281.508,-165.043 292.096,-164.663 289.548,-158.144"/>
</g>
<!-- Node15&#45;&gt;Node14 -->
<g id="edge17" class="edge"><title>Node15&#45;&gt;Node14</title>
<path fill="none" stroke="midnightblue" d="M296.789,-120.734C316.125,-115.316 337.887,-109.217 355.842,-104.185"/>
<polygon fill="midnightblue" stroke="midnightblue" points="295.617,-117.428 286.932,-123.497 297.506,-124.168 295.617,-117.428"/>
</g>
<!-- Node17&#45;&gt;Node14 -->
<g id="edge20" class="edge"><title>Node17&#45;&gt;Node14</title>
<path fill="none" stroke="midnightblue" d="M296.789,-66.6657C316.125,-72.0843 337.887,-78.183 355.842,-83.2147"/>
<polygon fill="midnightblue" stroke="midnightblue" points="297.506,-63.2318 286.932,-63.9034 295.617,-69.9721 297.506,-63.2318"/>
</g>
<!-- Node18&#45;&gt;Node14 -->
<g id="edge22" class="edge"><title>Node18&#45;&gt;Node14</title>
<path fill="none" stroke="midnightblue" d="M292.359,-26.6403C296.104,-28.2284 299.786,-29.9189 303.273,-31.7 331.995,-46.3715 362.252,-68.8981 379.34,-82.3774"/>
<polygon fill="midnightblue" stroke="midnightblue" points="293.584,-23.3607 282.998,-22.911 290.993,-29.8636 293.584,-23.3607"/>
</g>
</g>
</svg>
