<?xml version="1.0" encoding="UTF-8" standalone="no"?>
<!DOCTYPE svg PUBLIC "-//W3C//DTD SVG 1.1//EN"
 "http://www.w3.org/Graphics/SVG/1.1/DTD/svg11.dtd">
<!-- Generated by graphviz version 2.38.0 (20140413.2041)
 -->
<!-- Title: Individual::assertShares Pages: 1 -->
<svg width="956pt" height="46pt"
 viewBox="0.00 0.00 955.82 45.80" xmlns="http://www.w3.org/2000/svg" xmlns:xlink="http://www.w3.org/1999/xlink">
<g id="graph0" class="graph" transform="scale(1 1) rotate(0) translate(4 41.8)">
<title>Individual::assertShares</title>
<polygon fill="white" stroke="none" points="-4,4 -4,-41.8 951.82,-41.8 951.82,4 -4,4"/>
<!-- Node1 -->
<g id="node1" class="node"><title>Node1</title>
<polygon fill="#bfbfbf" stroke="black" points="-4.26326e-14,-7.7 -4.26326e-14,-30.1 131.298,-30.1 131.298,-7.7 -4.26326e-14,-7.7"/>
<text text-anchor="middle" x="65.6492" y="-15.3" font-family="-adobe-utopia-medium-i-normal--0-0-0-0-p-0-iso10646-1" font-size="12.00">Individual::assertShares</text>
</g>
<!-- Node2 -->
<g id="node2" class="node"><title>Node2</title>
<g id="a_node2"><a xlink:href="classMatchesBuilder.html#af44853a4e7540f4f54a802a5d0c45faf" target="_top" xlink:title="MatchesBuilder::matchMarkerSet">
<polygon fill="white" stroke="black" points="167.298,-7.7 167.298,-30.1 346.576,-30.1 346.576,-7.7 167.298,-7.7"/>
<text text-anchor="middle" x="256.937" y="-15.3" font-family="-adobe-utopia-medium-i-normal--0-0-0-0-p-0-iso10646-1" font-size="12.00">MatchesBuilder::matchMarkerSet</text>
</a>
</g>
</g>
<!-- Node1&#45;&gt;Node2 -->
<g id="edge1" class="edge"><title>Node1&#45;&gt;Node2</title>
<path fill="none" stroke="midnightblue" d="M141.601,-18.9C149.962,-18.9 158.538,-18.9 167.052,-18.9"/>
<polygon fill="midnightblue" stroke="midnightblue" points="141.527,-15.4001 131.527,-18.9 141.527,-22.4001 141.527,-15.4001"/>
</g>
<!-- Node3 -->
<g id="node3" class="node"><title>Node3</title>
<g id="a_node3"><a xlink:href="classMatchesBuilder.html#ae8d8a0ff7f0726406e83d4fa55a96bf4" target="_top" xlink:title="MatchesBuilder::matchAll\lMarkers">
<polygon fill="white" stroke="black" points="382.576,-0.5 382.576,-37.3 526.544,-37.3 526.544,-0.5 382.576,-0.5"/>
<text text-anchor="start" x="390.576" y="-22.5" font-family="-adobe-utopia-medium-i-normal--0-0-0-0-p-0-iso10646-1" font-size="12.00">MatchesBuilder::matchAll</text>
<text text-anchor="middle" x="454.56" y="-8.1" font-family="-adobe-utopia-medium-i-normal--0-0-0-0-p-0-iso10646-1" font-size="12.00">Markers</text>
</a>
</g>
</g>
<!-- Node2&#45;&gt;Node3 -->
<g id="edge2" class="edge"><title>Node2&#45;&gt;Node3</title>
<path fill="none" stroke="midnightblue" d="M356.769,-18.9C365.449,-18.9 374.119,-18.9 382.504,-18.9"/>
<polygon fill="midnightblue" stroke="midnightblue" points="356.591,-15.4001 346.591,-18.9 356.591,-22.4001 356.591,-15.4001"/>
</g>
<!-- Node4 -->
<g id="node4" class="node"><title>Node4</title>
<g id="a_node4"><a xlink:href="classMatchesBuilder.html#a31faf645700f38ac0d7d164b57cfebd1" target="_top" xlink:title="MatchesBuilder::buildMatches">
<polygon fill="white" stroke="black" points="562.544,-7.7 562.544,-30.1 727.175,-30.1 727.175,-7.7 562.544,-7.7"/>
<text text-anchor="middle" x="644.86" y="-15.3" font-family="-adobe-utopia-medium-i-normal--0-0-0-0-p-0-iso10646-1" font-size="12.00">MatchesBuilder::buildMatches</text>
</a>
</g>
</g>
<!-- Node3&#45;&gt;Node4 -->
<g id="edge3" class="edge"><title>Node3&#45;&gt;Node4</title>
<path fill="none" stroke="midnightblue" d="M536.97,-18.9C545.423,-18.9 554.015,-18.9 562.467,-18.9"/>
<polygon fill="midnightblue" stroke="midnightblue" points="536.748,-15.4001 526.748,-18.9 536.748,-22.4001 536.748,-15.4001"/>
</g>
<!-- Node5 -->
<g id="node5" class="node"><title>Node5</title>
<g id="a_node5"><a xlink:href="classGERMLINE.html#a7912aa3108f42f42e06c615b460d0565" target="_top" xlink:title="GERMLINE::mine">
<polygon fill="white" stroke="black" points="763.175,-7.7 763.175,-30.1 871.824,-30.1 871.824,-7.7 763.175,-7.7"/>
<text text-anchor="middle" x="817.499" y="-15.3" font-family="-adobe-utopia-medium-i-normal--0-0-0-0-p-0-iso10646-1" font-size="12.00">GERMLINE::mine</text>
</a>
</g>
</g>
<!-- Node4&#45;&gt;Node5 -->
<g id="edge4" class="edge"><title>Node4&#45;&gt;Node5</title>
<path fill="none" stroke="midnightblue" d="M737.185,-18.9C746.03,-18.9 754.789,-18.9 763.078,-18.9"/>
<polygon fill="midnightblue" stroke="midnightblue" points="737.182,-15.4001 727.182,-18.9 737.182,-22.4001 737.182,-15.4001"/>
</g>
<!-- Node6 -->
<g id="node6" class="node"><title>Node6</title>
<g id="a_node6"><a xlink:href="GERMLINE__0001_8cpp.html#a0ddf1224851353fc92bfbff6f499fa97" target="_top" xlink:title="main">
<polygon fill="white" stroke="black" points="907.824,-7.7 907.824,-30.1 947.82,-30.1 947.82,-7.7 907.824,-7.7"/>
<text text-anchor="middle" x="927.822" y="-15.3" font-family="-adobe-utopia-medium-i-normal--0-0-0-0-p-0-iso10646-1" font-size="12.00">main</text>
</a>
</g>
</g>
<!-- Node5&#45;&gt;Node6 -->
<g id="edge5" class="edge"><title>Node5&#45;&gt;Node6</title>
<path fill="none" stroke="midnightblue" d="M882.176,-18.9C891.441,-18.9 900.323,-18.9 907.69,-18.9"/>
<polygon fill="midnightblue" stroke="midnightblue" points="882.026,-15.4001 872.026,-18.9 882.026,-22.4001 882.026,-15.4001"/>
</g>
</g>
</svg>
