<?xml version="1.0" encoding="UTF-8" standalone="no"?>
<!DOCTYPE svg PUBLIC "-//W3C//DTD SVG 1.1//EN"
 "http://www.w3.org/Graphics/SVG/1.1/DTD/svg11.dtd">
<!-- Generated by graphviz version 2.38.0 (20140413.2041)
 -->
<!-- Title: SNP::getChr Pages: 1 -->
<svg width="614pt" height="170pt"
 viewBox="0.00 0.00 613.90 169.60" xmlns="http://www.w3.org/2000/svg" xmlns:xlink="http://www.w3.org/1999/xlink">
<g id="graph0" class="graph" transform="scale(1 1) rotate(0) translate(4 165.6)">
<title>SNP::getChr</title>
<polygon fill="white" stroke="none" points="-4,4 -4,-165.6 609.903,-165.6 609.903,4 -4,4"/>
<!-- Node1 -->
<g id="node1" class="node"><title>Node1</title>
<polygon fill="#bfbfbf" stroke="black" points="1.42109e-14,-61.5 1.42109e-14,-83.9 77.3332,-83.9 77.3332,-61.5 1.42109e-14,-61.5"/>
<text text-anchor="middle" x="38.6666" y="-69.1" font-family="-adobe-utopia-medium-i-normal--0-0-0-0-p-0-iso10646-1" font-size="12.00">SNP::getChr</text>
</g>
<!-- Node2 -->
<g id="node2" class="node"><title>Node2</title>
<g id="a_node2"><a xlink:href="classSNPs.html#a79df6854d1863b8f2e14fd324ad5752b" target="_top" xlink:title="SNPs::addSNP">
<polygon fill="white" stroke="black" points="140.645,-123.5 140.645,-145.9 229.317,-145.9 229.317,-123.5 140.645,-123.5"/>
<text text-anchor="middle" x="184.981" y="-131.1" font-family="-adobe-utopia-medium-i-normal--0-0-0-0-p-0-iso10646-1" font-size="12.00">SNPs::addSNP</text>
</a>
</g>
</g>
<!-- Node1&#45;&gt;Node2 -->
<g id="edge1" class="edge"><title>Node1&#45;&gt;Node2</title>
<path fill="none" stroke="midnightblue" d="M65.119,-89.2504C78.962,-97.7213 96.6274,-107.695 113.333,-114.7 121.915,-118.298 131.347,-121.471 140.447,-124.167"/>
<polygon fill="midnightblue" stroke="midnightblue" points="66.959,-86.2731 56.6226,-83.9473 63.2526,-92.2114 66.959,-86.2731"/>
</g>
<!-- Node7 -->
<g id="node7" class="node"><title>Node7</title>
<g id="a_node7"><a xlink:href="classMatch.html#ac0f1cc64fb2cf592a1d9d8e896348855" target="_top" xlink:title="Match::chromosome">
<polygon fill="white" stroke="black" points="127.326,-41.5 127.326,-63.9 242.635,-63.9 242.635,-41.5 127.326,-41.5"/>
<text text-anchor="middle" x="184.981" y="-49.1" font-family="-adobe-utopia-medium-i-normal--0-0-0-0-p-0-iso10646-1" font-size="12.00">Match::chromosome</text>
</a>
</g>
</g>
<!-- Node1&#45;&gt;Node7 -->
<g id="edge6" class="edge"><title>Node1&#45;&gt;Node7</title>
<path fill="none" stroke="midnightblue" d="M87.5181,-66.0684C100.256,-64.3031 114.138,-62.3792 127.3,-60.5552"/>
<polygon fill="midnightblue" stroke="midnightblue" points="87.0082,-62.6055 77.5834,-67.4452 87.9692,-69.5393 87.0082,-62.6055"/>
</g>
<!-- Node8 -->
<g id="node8" class="node"><title>Node8</title>
<g id="a_node8"><a xlink:href="classSNPs.html#a966e05b1d44910967919ed5aabf7f3a2" target="_top" xlink:title="SNPs::getGeneticDistance">
<polygon fill="white" stroke="black" points="113.333,-82.5 113.333,-104.9 256.628,-104.9 256.628,-82.5 113.333,-82.5"/>
<text text-anchor="middle" x="184.981" y="-90.1" font-family="-adobe-utopia-medium-i-normal--0-0-0-0-p-0-iso10646-1" font-size="12.00">SNPs::getGeneticDistance</text>
</a>
</g>
</g>
<!-- Node1&#45;&gt;Node8 -->
<g id="edge7" class="edge"><title>Node1&#45;&gt;Node8</title>
<path fill="none" stroke="midnightblue" d="M87.6512,-79.6825C95.8263,-80.8721 104.47,-82.1299 113.089,-83.3841"/>
<polygon fill="midnightblue" stroke="midnightblue" points="87.9832,-76.1941 77.5834,-78.2175 86.9752,-83.1211 87.9832,-76.1941"/>
</g>
<!-- Node9 -->
<g id="node9" class="node"><title>Node9</title>
<g id="a_node9"><a xlink:href="classMatch.html#a989ae28b68842fc096ee6edb8c1595fd" target="_top" xlink:title="Match::print">
<polygon fill="white" stroke="black" points="146.986,-0.5 146.986,-22.9 222.975,-22.9 222.975,-0.5 146.986,-0.5"/>
<text text-anchor="middle" x="184.981" y="-8.1" font-family="-adobe-utopia-medium-i-normal--0-0-0-0-p-0-iso10646-1" font-size="12.00">Match::print</text>
</a>
</g>
</g>
<!-- Node1&#45;&gt;Node9 -->
<g id="edge10" class="edge"><title>Node1&#45;&gt;Node9</title>
<path fill="none" stroke="midnightblue" d="M66.1191,-56.011C79.8278,-47.8754 97.0667,-38.422 113.333,-31.7 123.936,-27.3184 135.815,-23.5457 146.763,-20.4953"/>
<polygon fill="midnightblue" stroke="midnightblue" points="63.9888,-53.2092 57.2478,-61.383 67.6147,-59.197 63.9888,-53.2092"/>
</g>
<!-- Node3 -->
<g id="node3" class="node"><title>Node3</title>
<g id="a_node3"><a xlink:href="classSNPs.html#a0f26b6fbd02cc5afd8d423b411d304e8" target="_top" xlink:title="SNPs::processMAPFile">
<polygon fill="white" stroke="black" points="297.62,-123.5 297.62,-145.9 427.61,-145.9 427.61,-123.5 297.62,-123.5"/>
<text text-anchor="middle" x="362.615" y="-131.1" font-family="-adobe-utopia-medium-i-normal--0-0-0-0-p-0-iso10646-1" font-size="12.00">SNPs::processMAPFile</text>
</a>
</g>
</g>
<!-- Node2&#45;&gt;Node3 -->
<g id="edge2" class="edge"><title>Node2&#45;&gt;Node3</title>
<path fill="none" stroke="midnightblue" d="M239.565,-134.7C257.836,-134.7 278.451,-134.7 297.465,-134.7"/>
<polygon fill="midnightblue" stroke="midnightblue" points="239.396,-131.2 229.396,-134.7 239.396,-138.2 239.396,-131.2"/>
</g>
<!-- Node5 -->
<g id="node5" class="node"><title>Node5</title>
<g id="a_node5"><a xlink:href="classSNPs.html#a5ebf04c1e5d71710bd68af7a556864f9" target="_top" xlink:title="SNPs::processLegendFile">
<polygon fill="white" stroke="black" points="292.628,-82.5 292.628,-104.9 432.602,-104.9 432.602,-82.5 292.628,-82.5"/>
<text text-anchor="middle" x="362.615" y="-90.1" font-family="-adobe-utopia-medium-i-normal--0-0-0-0-p-0-iso10646-1" font-size="12.00">SNPs::processLegendFile</text>
</a>
</g>
</g>
<!-- Node2&#45;&gt;Node5 -->
<g id="edge4" class="edge"><title>Node2&#45;&gt;Node5</title>
<path fill="none" stroke="midnightblue" d="M239.25,-122.265C262.868,-116.751 290.452,-110.312 313.446,-104.945"/>
<polygon fill="midnightblue" stroke="midnightblue" points="238.338,-118.883 229.396,-124.565 239.93,-125.7 238.338,-118.883"/>
</g>
<!-- Node4 -->
<g id="node4" class="node"><title>Node4</title>
<g id="a_node4"><a xlink:href="classPEDIndividualsExtractor.html#aaaae7102f9e3db6f900b3d56f559dc91" target="_top" xlink:title="PEDIndividualsExtractor\l::loadInput">
<polygon fill="white" stroke="black" points="468.602,-124.3 468.602,-161.1 605.903,-161.1 605.903,-124.3 468.602,-124.3"/>
<text text-anchor="start" x="476.602" y="-146.3" font-family="-adobe-utopia-medium-i-normal--0-0-0-0-p-0-iso10646-1" font-size="12.00">PEDIndividualsExtractor</text>
<text text-anchor="middle" x="537.253" y="-131.9" font-family="-adobe-utopia-medium-i-normal--0-0-0-0-p-0-iso10646-1" font-size="12.00">::loadInput</text>
</a>
</g>
</g>
<!-- Node3&#45;&gt;Node4 -->
<g id="edge3" class="edge"><title>Node3&#45;&gt;Node4</title>
<path fill="none" stroke="midnightblue" d="M437.939,-138.144C448.075,-138.614 458.436,-139.094 468.448,-139.558"/>
<polygon fill="midnightblue" stroke="midnightblue" points="438.05,-134.646 427.899,-137.679 437.726,-141.638 438.05,-134.646"/>
</g>
<!-- Node6 -->
<g id="node6" class="node"><title>Node6</title>
<g id="a_node6"><a xlink:href="classHMIndividualsExtractor.html#af7aaa5ed222fd00cc2c36e69a01a3bb3" target="_top" xlink:title="HMIndividualsExtractor\l::loadInput">
<polygon fill="white" stroke="black" points="470.27,-68.3 470.27,-105.1 604.236,-105.1 604.236,-68.3 470.27,-68.3"/>
<text text-anchor="start" x="478.27" y="-90.3" font-family="-adobe-utopia-medium-i-normal--0-0-0-0-p-0-iso10646-1" font-size="12.00">HMIndividualsExtractor</text>
<text text-anchor="middle" x="537.253" y="-75.9" font-family="-adobe-utopia-medium-i-normal--0-0-0-0-p-0-iso10646-1" font-size="12.00">::loadInput</text>
</a>
</g>
</g>
<!-- Node5&#45;&gt;Node6 -->
<g id="edge5" class="edge"><title>Node5&#45;&gt;Node6</title>
<path fill="none" stroke="midnightblue" d="M443.006,-90.4809C452.069,-90.1134 461.234,-89.7418 470.099,-89.3824"/>
<polygon fill="midnightblue" stroke="midnightblue" points="442.689,-86.9908 432.839,-90.8932 442.972,-93.9851 442.689,-86.9908"/>
</g>
<!-- Node8&#45;&gt;Node3 -->
<g id="edge8" class="edge"><title>Node8&#45;&gt;Node3</title>
<path fill="none" stroke="midnightblue" d="M243.761,-107.188C266.302,-112.45 291.845,-118.413 313.375,-123.439"/>
<polygon fill="midnightblue" stroke="midnightblue" points="244.507,-103.768 233.974,-104.903 242.916,-110.585 244.507,-103.768"/>
</g>
<!-- Node8&#45;&gt;Node5 -->
<g id="edge9" class="edge"><title>Node8&#45;&gt;Node5</title>
<path fill="none" stroke="midnightblue" d="M266.714,-93.7C275.332,-93.7 284.042,-93.7 292.509,-93.7"/>
<polygon fill="midnightblue" stroke="midnightblue" points="266.659,-90.2001 256.659,-93.7 266.659,-97.2001 266.659,-90.2001"/>
</g>
</g>
</svg>
