<?xml version="1.0" encoding="UTF-8" standalone="no"?>
<!DOCTYPE svg PUBLIC "-//W3C//DTD SVG 1.1//EN"
 "http://www.w3.org/Graphics/SVG/1.1/DTD/svg11.dtd">
<!-- Generated by graphviz version 2.38.0 (20140413.2041)
 -->
<!-- Title: SNPs::addSNP Pages: 1 -->
<svg width="210pt" height="31pt"
 viewBox="0.00 0.00 210.01 31.40" xmlns="http://www.w3.org/2000/svg" xmlns:xlink="http://www.w3.org/1999/xlink">
<g id="graph0" class="graph" transform="scale(1 1) rotate(0) translate(4 27.4)">
<title>SNPs::addSNP</title>
<polygon fill="white" stroke="none" points="-4,4 -4,-27.4 206.005,-27.4 206.005,4 -4,4"/>
<!-- Node1 -->
<g id="node1" class="node"><title>Node1</title>
<polygon fill="#bfbfbf" stroke="black" points="1.42109e-14,-0.5 1.42109e-14,-22.9 88.672,-22.9 88.672,-0.5 1.42109e-14,-0.5"/>
<text text-anchor="middle" x="44.336" y="-8.1" font-family="-adobe-utopia-medium-i-normal--0-0-0-0-p-0-iso10646-1" font-size="12.00">SNPs::addSNP</text>
</g>
<!-- Node2 -->
<g id="node2" class="node"><title>Node2</title>
<g id="a_node2"><a xlink:href="classSNP.html#a1cf02a7f908f653fb2645935b0bdcc3d" target="_top" xlink:title="SNP::getChr">
<polygon fill="white" stroke="black" points="124.672,-0.5 124.672,-22.9 202.005,-22.9 202.005,-0.5 124.672,-0.5"/>
<text text-anchor="middle" x="163.339" y="-8.1" font-family="-adobe-utopia-medium-i-normal--0-0-0-0-p-0-iso10646-1" font-size="12.00">SNP::getChr</text>
</a>
</g>
</g>
<!-- Node1&#45;&gt;Node2 -->
<g id="edge1" class="edge"><title>Node1&#45;&gt;Node2</title>
<path fill="none" stroke="midnightblue" d="M88.9034,-11.7C97.2178,-11.7 105.963,-11.7 114.405,-11.7"/>
<polygon fill="midnightblue" stroke="midnightblue" points="114.503,-15.2001 124.503,-11.7 114.503,-8.2001 114.503,-15.2001"/>
</g>
</g>
</svg>
