<?xml version="1.0" encoding="UTF-8" standalone="no"?>
<!DOCTYPE svg PUBLIC "-//W3C//DTD SVG 1.1//EN"
 "http://www.w3.org/Graphics/SVG/1.1/DTD/svg11.dtd">
<!-- Generated by graphviz version 2.38.0 (20140413.2041)
 -->
<!-- Title: MatchesBuilder::buildMatches Pages: 1 -->
<svg width="393pt" height="31pt"
 viewBox="0.00 0.00 393.28 31.40" xmlns="http://www.w3.org/2000/svg" xmlns:xlink="http://www.w3.org/1999/xlink">
<g id="graph0" class="graph" transform="scale(1 1) rotate(0) translate(4 27.4)">
<title>MatchesBuilder::buildMatches</title>
<polygon fill="white" stroke="none" points="-4,4 -4,-27.4 389.276,-27.4 389.276,4 -4,4"/>
<!-- Node1 -->
<g id="node1" class="node"><title>Node1</title>
<polygon fill="#bfbfbf" stroke="black" points="1.42109e-14,-0.5 1.42109e-14,-22.9 164.631,-22.9 164.631,-0.5 1.42109e-14,-0.5"/>
<text text-anchor="middle" x="82.3154" y="-8.1" font-family="-adobe-utopia-medium-i-normal--0-0-0-0-p-0-iso10646-1" font-size="12.00">MatchesBuilder::buildMatches</text>
</g>
<!-- Node2 -->
<g id="node2" class="node"><title>Node2</title>
<g id="a_node2"><a xlink:href="classGERMLINE.html#a7912aa3108f42f42e06c615b460d0565" target="_top" xlink:title="GERMLINE::mine">
<polygon fill="white" stroke="black" points="200.631,-0.5 200.631,-22.9 309.279,-22.9 309.279,-0.5 200.631,-0.5"/>
<text text-anchor="middle" x="254.955" y="-8.1" font-family="-adobe-utopia-medium-i-normal--0-0-0-0-p-0-iso10646-1" font-size="12.00">GERMLINE::mine</text>
</a>
</g>
</g>
<!-- Node1&#45;&gt;Node2 -->
<g id="edge1" class="edge"><title>Node1&#45;&gt;Node2</title>
<path fill="none" stroke="midnightblue" d="M174.64,-11.7C183.486,-11.7 192.244,-11.7 200.534,-11.7"/>
<polygon fill="midnightblue" stroke="midnightblue" points="174.637,-8.2001 164.637,-11.7 174.637,-15.2001 174.637,-8.2001"/>
</g>
<!-- Node3 -->
<g id="node3" class="node"><title>Node3</title>
<g id="a_node3"><a xlink:href="GERMLINE__0001_8cpp.html#a0ddf1224851353fc92bfbff6f499fa97" target="_top" xlink:title="main">
<polygon fill="white" stroke="black" points="345.279,-0.5 345.279,-22.9 385.276,-22.9 385.276,-0.5 345.279,-0.5"/>
<text text-anchor="middle" x="365.277" y="-8.1" font-family="-adobe-utopia-medium-i-normal--0-0-0-0-p-0-iso10646-1" font-size="12.00">main</text>
</a>
</g>
</g>
<!-- Node2&#45;&gt;Node3 -->
<g id="edge2" class="edge"><title>Node2&#45;&gt;Node3</title>
<path fill="none" stroke="midnightblue" d="M319.632,-11.7C328.897,-11.7 337.778,-11.7 345.145,-11.7"/>
<polygon fill="midnightblue" stroke="midnightblue" points="319.482,-8.2001 309.482,-11.7 319.481,-15.2001 319.482,-8.2001"/>
</g>
</g>
</svg>
