<?xml version="1.0" encoding="UTF-8" standalone="no"?>
<!DOCTYPE svg PUBLIC "-//W3C//DTD SVG 1.1//EN"
 "http://www.w3.org/Graphics/SVG/1.1/DTD/svg11.dtd">
<!-- Generated by graphviz version 2.38.0 (20140413.2041)
 -->
<!-- Title: PolymorphicIndividualsExtractor::getCompleteMarkerSet Pages: 1 -->
<svg width="1024pt" height="88pt"
 viewBox="0.00 0.00 1023.78 87.60" xmlns="http://www.w3.org/2000/svg" xmlns:xlink="http://www.w3.org/1999/xlink">
<g id="graph0" class="graph" transform="scale(1 1) rotate(0) translate(4 83.6)">
<title>PolymorphicIndividualsExtractor::getCompleteMarkerSet</title>
<polygon fill="white" stroke="none" points="-4,4 -4,-83.6 1019.78,-83.6 1019.78,4 -4,4"/>
<!-- Node1 -->
<g id="node1" class="node"><title>Node1</title>
<polygon fill="#bfbfbf" stroke="black" points="0,-17.3 0,-54.1 176.633,-54.1 176.633,-17.3 0,-17.3"/>
<text text-anchor="start" x="8" y="-39.3" font-family="-adobe-utopia-medium-i-normal--0-0-0-0-p-0-iso10646-1" font-size="12.00">PolymorphicIndividualsExtractor</text>
<text text-anchor="middle" x="88.3166" y="-24.9" font-family="-adobe-utopia-medium-i-normal--0-0-0-0-p-0-iso10646-1" font-size="12.00">::getCompleteMarkerSet</text>
</g>
<!-- Node2 -->
<g id="node2" class="node"><title>Node2</title>
<g id="a_node2"><a xlink:href="classMatchesBuilder.html#a24030d91efc506dab6732cdb9a89f0ab" target="_top" xlink:title="MatchesBuilder::readHaploid\lMarkerSet">
<polygon fill="white" stroke="black" points="218.625,-42.3 218.625,-79.1 377.245,-79.1 377.245,-42.3 218.625,-42.3"/>
<text text-anchor="start" x="226.625" y="-64.3" font-family="-adobe-utopia-medium-i-normal--0-0-0-0-p-0-iso10646-1" font-size="12.00">MatchesBuilder::readHaploid</text>
<text text-anchor="middle" x="297.935" y="-49.9" font-family="-adobe-utopia-medium-i-normal--0-0-0-0-p-0-iso10646-1" font-size="12.00">MarkerSet</text>
</a>
</g>
</g>
<!-- Node1&#45;&gt;Node2 -->
<g id="edge1" class="edge"><title>Node1&#45;&gt;Node2</title>
<path fill="none" stroke="midnightblue" d="M186.884,-47.4484C197.483,-48.7247 208.169,-50.0114 218.498,-51.2551"/>
<polygon fill="midnightblue" stroke="midnightblue" points="187.11,-43.9505 176.764,-46.2298 186.273,-50.9003 187.11,-43.9505"/>
</g>
<!-- Node7 -->
<g id="node7" class="node"><title>Node7</title>
<g id="a_node7"><a xlink:href="classMatchesBuilder.html#a0ce39fec7c735700c83a21f4b53f5bbf" target="_top" xlink:title="MatchesBuilder::readMarkerSet">
<polygon fill="white" stroke="black" points="212.633,-0.5 212.633,-22.9 383.236,-22.9 383.236,-0.5 212.633,-0.5"/>
<text text-anchor="middle" x="297.935" y="-8.1" font-family="-adobe-utopia-medium-i-normal--0-0-0-0-p-0-iso10646-1" font-size="12.00">MatchesBuilder::readMarkerSet</text>
</a>
</g>
</g>
<!-- Node1&#45;&gt;Node7 -->
<g id="edge6" class="edge"><title>Node1&#45;&gt;Node7</title>
<path fill="none" stroke="midnightblue" d="M186.824,-24.4285C195.428,-23.4338 204.091,-22.4324 212.574,-21.4519"/>
<polygon fill="midnightblue" stroke="midnightblue" points="186.296,-20.9661 176.764,-25.5914 187.099,-27.9198 186.296,-20.9661"/>
</g>
<!-- Node3 -->
<g id="node3" class="node"><title>Node3</title>
<g id="a_node3"><a xlink:href="classMatchesBuilder.html#ad627b36445ae9df99c732b23c8b06547" target="_top" xlink:title="MatchesBuilder::readAllMarkers">
<polygon fill="white" stroke="black" points="419.236,-24.5 419.236,-46.9 594.506,-46.9 594.506,-24.5 419.236,-24.5"/>
<text text-anchor="middle" x="506.871" y="-32.1" font-family="-adobe-utopia-medium-i-normal--0-0-0-0-p-0-iso10646-1" font-size="12.00">MatchesBuilder::readAllMarkers</text>
</a>
</g>
</g>
<!-- Node2&#45;&gt;Node3 -->
<g id="edge2" class="edge"><title>Node2&#45;&gt;Node3</title>
<path fill="none" stroke="midnightblue" d="M387.443,-50.0074C397.933,-48.7401 408.633,-47.4474 419.098,-46.1831"/>
<polygon fill="midnightblue" stroke="midnightblue" points="386.972,-46.5387 377.464,-51.2129 387.811,-53.4882 386.972,-46.5387"/>
</g>
<!-- Node4 -->
<g id="node4" class="node"><title>Node4</title>
<g id="a_node4"><a xlink:href="classMatchesBuilder.html#a31faf645700f38ac0d7d164b57cfebd1" target="_top" xlink:title="MatchesBuilder::buildMatches">
<polygon fill="white" stroke="black" points="630.506,-24.5 630.506,-46.9 795.137,-46.9 795.137,-24.5 630.506,-24.5"/>
<text text-anchor="middle" x="712.822" y="-32.1" font-family="-adobe-utopia-medium-i-normal--0-0-0-0-p-0-iso10646-1" font-size="12.00">MatchesBuilder::buildMatches</text>
</a>
</g>
</g>
<!-- Node3&#45;&gt;Node4 -->
<g id="edge3" class="edge"><title>Node3&#45;&gt;Node4</title>
<path fill="none" stroke="midnightblue" d="M604.683,-35.7C613.252,-35.7 621.87,-35.7 630.294,-35.7"/>
<polygon fill="midnightblue" stroke="midnightblue" points="604.66,-32.2001 594.66,-35.7 604.66,-39.2001 604.66,-32.2001"/>
</g>
<!-- Node5 -->
<g id="node5" class="node"><title>Node5</title>
<g id="a_node5"><a xlink:href="classGERMLINE.html#a7912aa3108f42f42e06c615b460d0565" target="_top" xlink:title="GERMLINE::mine">
<polygon fill="white" stroke="black" points="831.137,-24.5 831.137,-46.9 939.786,-46.9 939.786,-24.5 831.137,-24.5"/>
<text text-anchor="middle" x="885.461" y="-32.1" font-family="-adobe-utopia-medium-i-normal--0-0-0-0-p-0-iso10646-1" font-size="12.00">GERMLINE::mine</text>
</a>
</g>
</g>
<!-- Node4&#45;&gt;Node5 -->
<g id="edge4" class="edge"><title>Node4&#45;&gt;Node5</title>
<path fill="none" stroke="midnightblue" d="M805.147,-35.7C813.992,-35.7 822.751,-35.7 831.04,-35.7"/>
<polygon fill="midnightblue" stroke="midnightblue" points="805.144,-32.2001 795.144,-35.7 805.144,-39.2001 805.144,-32.2001"/>
</g>
<!-- Node6 -->
<g id="node6" class="node"><title>Node6</title>
<g id="a_node6"><a xlink:href="GERMLINE__0001_8cpp.html#a0ddf1224851353fc92bfbff6f499fa97" target="_top" xlink:title="main">
<polygon fill="white" stroke="black" points="975.786,-24.5 975.786,-46.9 1015.78,-46.9 1015.78,-24.5 975.786,-24.5"/>
<text text-anchor="middle" x="995.784" y="-32.1" font-family="-adobe-utopia-medium-i-normal--0-0-0-0-p-0-iso10646-1" font-size="12.00">main</text>
</a>
</g>
</g>
<!-- Node5&#45;&gt;Node6 -->
<g id="edge5" class="edge"><title>Node5&#45;&gt;Node6</title>
<path fill="none" stroke="midnightblue" d="M950.138,-35.7C959.403,-35.7 968.285,-35.7 975.652,-35.7"/>
<polygon fill="midnightblue" stroke="midnightblue" points="949.988,-32.2001 939.988,-35.7 949.988,-39.2001 949.988,-32.2001"/>
</g>
<!-- Node7&#45;&gt;Node3 -->
<g id="edge7" class="edge"><title>Node7&#45;&gt;Node3</title>
<path fill="none" stroke="midnightblue" d="M393.369,-22.6523C401.904,-23.6421 410.522,-24.6416 418.987,-25.6234"/>
<polygon fill="midnightblue" stroke="midnightblue" points="393.739,-19.1718 383.402,-21.4963 392.932,-26.1252 393.739,-19.1718"/>
</g>
</g>
</svg>
