<?xml version="1.0" encoding="UTF-8" standalone="no"?>
<!DOCTYPE svg PUBLIC "-//W3C//DTD SVG 1.1//EN"
 "http://www.w3.org/Graphics/SVG/1.1/DTD/svg11.dtd">
<!-- Generated by graphviz version 2.38.0 (20140413.2041)
 -->
<!-- Title: SNP::setSNPID Pages: 1 -->
<svg width="450pt" height="102pt"
 viewBox="0.00 0.00 449.94 101.80" xmlns="http://www.w3.org/2000/svg" xmlns:xlink="http://www.w3.org/1999/xlink">
<g id="graph0" class="graph" transform="scale(1 1) rotate(0) translate(4 97.8)">
<title>SNP::setSNPID</title>
<polygon fill="white" stroke="none" points="-4,4 -4,-97.8 445.94,-97.8 445.94,4 -4,4"/>
<!-- Node1 -->
<g id="node1" class="node"><title>Node1</title>
<polygon fill="#bfbfbf" stroke="black" points="0,-36.7 0,-59.1 92.6644,-59.1 92.6644,-36.7 0,-36.7"/>
<text text-anchor="middle" x="46.3322" y="-44.3" font-family="-adobe-utopia-medium-i-normal--0-0-0-0-p-0-iso10646-1" font-size="12.00">SNP::setSNPID</text>
</g>
<!-- Node2 -->
<g id="node2" class="node"><title>Node2</title>
<g id="a_node2"><a xlink:href="classSNPs.html#a5ebf04c1e5d71710bd68af7a556864f9" target="_top" xlink:title="SNPs::processLegendFile">
<polygon fill="white" stroke="black" points="128.664,-59.7 128.664,-82.1 268.639,-82.1 268.639,-59.7 128.664,-59.7"/>
<text text-anchor="middle" x="198.652" y="-67.3" font-family="-adobe-utopia-medium-i-normal--0-0-0-0-p-0-iso10646-1" font-size="12.00">SNPs::processLegendFile</text>
</a>
</g>
</g>
<!-- Node1&#45;&gt;Node2 -->
<g id="edge1" class="edge"><title>Node1&#45;&gt;Node2</title>
<path fill="none" stroke="midnightblue" d="M102.816,-56.3894C111.16,-57.6661 119.852,-58.9961 128.44,-60.3101"/>
<polygon fill="midnightblue" stroke="midnightblue" points="103.255,-52.916 92.8409,-54.8632 102.196,-59.8355 103.255,-52.916"/>
</g>
<!-- Node4 -->
<g id="node4" class="node"><title>Node4</title>
<g id="a_node4"><a xlink:href="classSNPs.html#a0f26b6fbd02cc5afd8d423b411d304e8" target="_top" xlink:title="SNPs::processMAPFile">
<polygon fill="white" stroke="black" points="133.656,-14.7 133.656,-37.1 263.647,-37.1 263.647,-14.7 133.656,-14.7"/>
<text text-anchor="middle" x="198.652" y="-22.3" font-family="-adobe-utopia-medium-i-normal--0-0-0-0-p-0-iso10646-1" font-size="12.00">SNPs::processMAPFile</text>
</a>
</g>
</g>
<!-- Node1&#45;&gt;Node4 -->
<g id="edge3" class="edge"><title>Node1&#45;&gt;Node4</title>
<path fill="none" stroke="midnightblue" d="M102.973,-39.7568C112.895,-38.3046 123.305,-36.7811 133.443,-35.2973"/>
<polygon fill="midnightblue" stroke="midnightblue" points="102.229,-36.3283 92.8409,-41.2396 103.242,-43.2545 102.229,-36.3283"/>
</g>
<!-- Node3 -->
<g id="node3" class="node"><title>Node3</title>
<g id="a_node3"><a xlink:href="classHMIndividualsExtractor.html#af7aaa5ed222fd00cc2c36e69a01a3bb3" target="_top" xlink:title="HMIndividualsExtractor\l::loadInput">
<polygon fill="white" stroke="black" points="306.306,-56.5 306.306,-93.3 440.272,-93.3 440.272,-56.5 306.306,-56.5"/>
<text text-anchor="start" x="314.306" y="-78.5" font-family="-adobe-utopia-medium-i-normal--0-0-0-0-p-0-iso10646-1" font-size="12.00">HMIndividualsExtractor</text>
<text text-anchor="middle" x="373.289" y="-64.1" font-family="-adobe-utopia-medium-i-normal--0-0-0-0-p-0-iso10646-1" font-size="12.00">::loadInput</text>
</a>
</g>
</g>
<!-- Node2&#45;&gt;Node3 -->
<g id="edge2" class="edge"><title>Node2&#45;&gt;Node3</title>
<path fill="none" stroke="midnightblue" d="M279.042,-72.7395C288.105,-72.9495 297.27,-73.1618 306.135,-73.3672"/>
<polygon fill="midnightblue" stroke="midnightblue" points="278.954,-69.2366 268.875,-72.5039 278.791,-76.2347 278.954,-69.2366"/>
</g>
<!-- Node5 -->
<g id="node5" class="node"><title>Node5</title>
<g id="a_node5"><a xlink:href="classPEDIndividualsExtractor.html#aaaae7102f9e3db6f900b3d56f559dc91" target="_top" xlink:title="PEDIndividualsExtractor\l::loadInput">
<polygon fill="white" stroke="black" points="304.639,-0.5 304.639,-37.3 441.94,-37.3 441.94,-0.5 304.639,-0.5"/>
<text text-anchor="start" x="312.639" y="-22.5" font-family="-adobe-utopia-medium-i-normal--0-0-0-0-p-0-iso10646-1" font-size="12.00">PEDIndividualsExtractor</text>
<text text-anchor="middle" x="373.289" y="-8.1" font-family="-adobe-utopia-medium-i-normal--0-0-0-0-p-0-iso10646-1" font-size="12.00">::loadInput</text>
</a>
</g>
</g>
<!-- Node4&#45;&gt;Node5 -->
<g id="edge4" class="edge"><title>Node4&#45;&gt;Node5</title>
<path fill="none" stroke="midnightblue" d="M273.975,-22.8864C284.111,-22.4754 294.472,-22.0553 304.484,-21.6493"/>
<polygon fill="midnightblue" stroke="midnightblue" points="273.785,-19.3911 263.935,-23.2935 274.069,-26.3853 273.785,-19.3911"/>
</g>
</g>
</svg>
