<?xml version="1.0" encoding="UTF-8" standalone="no"?>
<!DOCTYPE svg PUBLIC "-//W3C//DTD SVG 1.1//EN"
 "http://www.w3.org/Graphics/SVG/1.1/DTD/svg11.dtd">
<!-- Generated by graphviz version 2.38.0 (20140413.2041)
 -->
<!-- Title: SNPs::currentSize Pages: 1 -->
<svg width="361pt" height="185pt"
 viewBox="0.00 0.00 361.28 184.80" xmlns="http://www.w3.org/2000/svg" xmlns:xlink="http://www.w3.org/1999/xlink">
<g id="graph0" class="graph" transform="scale(1 1) rotate(0) translate(4 180.8)">
<title>SNPs::currentSize</title>
<polygon fill="white" stroke="none" points="-4,4 -4,-180.8 357.275,-180.8 357.275,4 -4,4"/>
<!-- Node1 -->
<g id="node1" class="node"><title>Node1</title>
<polygon fill="#bfbfbf" stroke="black" points="2.84217e-14,-76.7 2.84217e-14,-99.1 103.978,-99.1 103.978,-76.7 2.84217e-14,-76.7"/>
<text text-anchor="middle" x="51.989" y="-84.3" font-family="-adobe-utopia-medium-i-normal--0-0-0-0-p-0-iso10646-1" font-size="12.00">SNPs::currentSize</text>
</g>
<!-- Node2 -->
<g id="node2" class="node"><title>Node2</title>
<g id="a_node2"><a xlink:href="classHMIndividualsExtractor.html#acb7f7caa772630162d0edce43977f330" target="_top" xlink:title="HMIndividualsExtractor\l::loadMarkerSet">
<polygon fill="white" stroke="black" points="141.645,-139.5 141.645,-176.3 275.611,-176.3 275.611,-139.5 141.645,-139.5"/>
<text text-anchor="start" x="149.645" y="-161.5" font-family="-adobe-utopia-medium-i-normal--0-0-0-0-p-0-iso10646-1" font-size="12.00">HMIndividualsExtractor</text>
<text text-anchor="middle" x="208.628" y="-147.1" font-family="-adobe-utopia-medium-i-normal--0-0-0-0-p-0-iso10646-1" font-size="12.00">::loadMarkerSet</text>
</a>
</g>
</g>
<!-- Node1&#45;&gt;Node2 -->
<g id="edge1" class="edge"><title>Node1&#45;&gt;Node2</title>
<path fill="none" stroke="midnightblue" d="M84.5118,-103.658C100.941,-111.734 121.426,-121.59 139.978,-129.9 147.054,-133.07 154.599,-136.318 161.988,-139.429"/>
<polygon fill="midnightblue" stroke="midnightblue" points="85.8686,-100.425 75.3527,-99.1345 82.7687,-106.701 85.8686,-100.425"/>
</g>
<!-- Node3 -->
<g id="node3" class="node"><title>Node3</title>
<g id="a_node3"><a xlink:href="classGERMLINE.html#a7912aa3108f42f42e06c615b460d0565" target="_top" xlink:title="GERMLINE::mine">
<polygon fill="white" stroke="black" points="154.304,-97.7 154.304,-120.1 262.953,-120.1 262.953,-97.7 154.304,-97.7"/>
<text text-anchor="middle" x="208.628" y="-105.3" font-family="-adobe-utopia-medium-i-normal--0-0-0-0-p-0-iso10646-1" font-size="12.00">GERMLINE::mine</text>
</a>
</g>
</g>
<!-- Node1&#45;&gt;Node3 -->
<g id="edge2" class="edge"><title>Node1&#45;&gt;Node3</title>
<path fill="none" stroke="midnightblue" d="M114.049,-96.1919C127.328,-97.9952 141.277,-99.8894 154.232,-101.649"/>
<polygon fill="midnightblue" stroke="midnightblue" points="114.432,-92.712 104.052,-94.8344 113.49,-99.6483 114.432,-92.712"/>
</g>
<!-- Node5 -->
<g id="node5" class="node"><title>Node5</title>
<g id="a_node5"><a xlink:href="classMarkerSet.html#a828ddac806bf40c720bcba3da33f1a28" target="_top" xlink:title="MarkerSet::print">
<polygon fill="white" stroke="black" points="160.64,-56.7 160.64,-79.1 256.617,-79.1 256.617,-56.7 160.64,-56.7"/>
<text text-anchor="middle" x="208.628" y="-64.3" font-family="-adobe-utopia-medium-i-normal--0-0-0-0-p-0-iso10646-1" font-size="12.00">MarkerSet::print</text>
</a>
</g>
</g>
<!-- Node1&#45;&gt;Node5 -->
<g id="edge4" class="edge"><title>Node1&#45;&gt;Node5</title>
<path fill="none" stroke="midnightblue" d="M114.055,-80.0021C129.517,-78.0023 145.888,-75.885 160.54,-73.9901"/>
<polygon fill="midnightblue" stroke="midnightblue" points="113.521,-76.542 104.052,-81.2958 114.419,-83.4842 113.521,-76.542"/>
</g>
<!-- Node6 -->
<g id="node6" class="node"><title>Node6</title>
<g id="a_node6"><a xlink:href="classPEDIndividualsExtractor.html#a4e1408fd9de04869faaaf570bf42b48b" target="_top" xlink:title="PEDIndividualsExtractor\l::readMarkerSet">
<polygon fill="white" stroke="black" points="139.978,-0.5 139.978,-37.3 277.279,-37.3 277.279,-0.5 139.978,-0.5"/>
<text text-anchor="start" x="147.978" y="-22.5" font-family="-adobe-utopia-medium-i-normal--0-0-0-0-p-0-iso10646-1" font-size="12.00">PEDIndividualsExtractor</text>
<text text-anchor="middle" x="208.628" y="-8.1" font-family="-adobe-utopia-medium-i-normal--0-0-0-0-p-0-iso10646-1" font-size="12.00">::readMarkerSet</text>
</a>
</g>
</g>
<!-- Node1&#45;&gt;Node6 -->
<g id="edge5" class="edge"><title>Node1&#45;&gt;Node6</title>
<path fill="none" stroke="midnightblue" d="M85.2311,-72.252C101.552,-64.4463 121.726,-54.973 139.978,-46.9 147.069,-43.7636 154.622,-40.5321 162.014,-37.4289"/>
<polygon fill="midnightblue" stroke="midnightblue" points="83.6097,-69.1479 76.1104,-76.632 86.64,-75.458 83.6097,-69.1479"/>
</g>
<!-- Node4 -->
<g id="node4" class="node"><title>Node4</title>
<g id="a_node4"><a xlink:href="GERMLINE__0001_8cpp.html#a0ddf1224851353fc92bfbff6f499fa97" target="_top" xlink:title="main">
<polygon fill="white" stroke="black" points="313.279,-97.7 313.279,-120.1 353.275,-120.1 353.275,-97.7 313.279,-97.7"/>
<text text-anchor="middle" x="333.277" y="-105.3" font-family="-adobe-utopia-medium-i-normal--0-0-0-0-p-0-iso10646-1" font-size="12.00">main</text>
</a>
</g>
</g>
<!-- Node3&#45;&gt;Node4 -->
<g id="edge3" class="edge"><title>Node3&#45;&gt;Node4</title>
<path fill="none" stroke="midnightblue" d="M273.144,-108.9C287.719,-108.9 302.129,-108.9 313.075,-108.9"/>
<polygon fill="midnightblue" stroke="midnightblue" points="273.067,-105.4 263.067,-108.9 273.067,-112.4 273.067,-105.4"/>
</g>
</g>
</svg>
