<?xml version="1.0" encoding="UTF-8" standalone="no"?>
<!DOCTYPE svg PUBLIC "-//W3C//DTD SVG 1.1//EN"
 "http://www.w3.org/Graphics/SVG/1.1/DTD/svg11.dtd">
<!-- Generated by graphviz version 2.38.0 (20140413.2041)
 -->
<!-- Title: Individuals::print Pages: 1 -->
<svg width="357pt" height="72pt"
 viewBox="0.00 0.00 356.65 72.40" xmlns="http://www.w3.org/2000/svg" xmlns:xlink="http://www.w3.org/1999/xlink">
<g id="graph0" class="graph" transform="scale(1 1) rotate(0) translate(4 68.4)">
<title>Individuals::print</title>
<polygon fill="white" stroke="none" points="-4,4 -4,-68.4 352.652,-68.4 352.652,4 -4,4"/>
<!-- Node1 -->
<g id="node1" class="node"><title>Node1</title>
<polygon fill="#bfbfbf" stroke="black" points="2.84217e-14,-20.5 2.84217e-14,-42.9 99.3268,-42.9 99.3268,-20.5 2.84217e-14,-20.5"/>
<text text-anchor="middle" x="49.6634" y="-28.1" font-family="-adobe-utopia-medium-i-normal--0-0-0-0-p-0-iso10646-1" font-size="12.00">Individuals::print</text>
</g>
<!-- Node2 -->
<g id="node2" class="node"><title>Node2</title>
<g id="a_node2"><a xlink:href="classGERMLINE.html#a7912aa3108f42f42e06c615b460d0565" target="_top" xlink:title="GERMLINE::mine">
<polygon fill="white" stroke="black" points="149.667,-41.5 149.667,-63.9 258.315,-63.9 258.315,-41.5 149.667,-41.5"/>
<text text-anchor="middle" x="203.991" y="-49.1" font-family="-adobe-utopia-medium-i-normal--0-0-0-0-p-0-iso10646-1" font-size="12.00">GERMLINE::mine</text>
</a>
</g>
</g>
<!-- Node1&#45;&gt;Node2 -->
<g id="edge1" class="edge"><title>Node1&#45;&gt;Node2</title>
<path fill="none" stroke="midnightblue" d="M109.983,-39.8778C123.03,-41.6765 136.771,-43.5708 149.569,-45.3352"/>
<polygon fill="midnightblue" stroke="midnightblue" points="110.084,-36.3587 99.6993,-38.4601 109.128,-43.2931 110.084,-36.3587"/>
</g>
<!-- Node4 -->
<g id="node4" class="node"><title>Node4</title>
<g id="a_node4"><a xlink:href="classChromosome.html#a84889cfb991a10e56fbe51b287ab7b68" target="_top" xlink:title="Chromosome::print_snps">
<polygon fill="white" stroke="black" points="135.327,-0.5 135.327,-22.9 272.655,-22.9 272.655,-0.5 135.327,-0.5"/>
<text text-anchor="middle" x="203.991" y="-8.1" font-family="-adobe-utopia-medium-i-normal--0-0-0-0-p-0-iso10646-1" font-size="12.00">Chromosome::print_snps</text>
</a>
</g>
</g>
<!-- Node1&#45;&gt;Node4 -->
<g id="edge3" class="edge"><title>Node1&#45;&gt;Node4</title>
<path fill="none" stroke="midnightblue" d="M109.705,-23.948C118.05,-22.8525 126.683,-21.7189 135.176,-20.6038"/>
<polygon fill="midnightblue" stroke="midnightblue" points="109.159,-20.4897 99.6993,-25.2618 110.07,-27.4301 109.159,-20.4897"/>
</g>
<!-- Node3 -->
<g id="node3" class="node"><title>Node3</title>
<g id="a_node3"><a xlink:href="GERMLINE__0001_8cpp.html#a0ddf1224851353fc92bfbff6f499fa97" target="_top" xlink:title="main">
<polygon fill="white" stroke="black" points="308.655,-41.5 308.655,-63.9 348.652,-63.9 348.652,-41.5 308.655,-41.5"/>
<text text-anchor="middle" x="328.653" y="-49.1" font-family="-adobe-utopia-medium-i-normal--0-0-0-0-p-0-iso10646-1" font-size="12.00">main</text>
</a>
</g>
</g>
<!-- Node2&#45;&gt;Node3 -->
<g id="edge2" class="edge"><title>Node2&#45;&gt;Node3</title>
<path fill="none" stroke="midnightblue" d="M268.513,-52.7C283.091,-52.7 297.502,-52.7 308.449,-52.7"/>
<polygon fill="midnightblue" stroke="midnightblue" points="268.436,-49.2001 258.436,-52.7 268.436,-56.2001 268.436,-49.2001"/>
</g>
</g>
</svg>
