<?xml version="1.0" encoding="UTF-8" standalone="no"?>
<!DOCTYPE svg PUBLIC "-//W3C//DTD SVG 1.1//EN"
 "http://www.w3.org/Graphics/SVG/1.1/DTD/svg11.dtd">
<!-- Generated by graphviz version 2.38.0 (20140413.2041)
 -->
<!-- Title: SNPs::addSNP Pages: 1 -->
<svg width="446pt" height="102pt"
 viewBox="0.00 0.00 445.95 101.80" xmlns="http://www.w3.org/2000/svg" xmlns:xlink="http://www.w3.org/1999/xlink">
<g id="graph0" class="graph" transform="scale(1 1) rotate(0) translate(4 97.8)">
<title>SNPs::addSNP</title>
<polygon fill="white" stroke="none" points="-4,4 -4,-97.8 441.947,-97.8 441.947,4 -4,4"/>
<!-- Node1 -->
<g id="node1" class="node"><title>Node1</title>
<polygon fill="#bfbfbf" stroke="black" points="1.42109e-14,-36.7 1.42109e-14,-59.1 88.672,-59.1 88.672,-36.7 1.42109e-14,-36.7"/>
<text text-anchor="middle" x="44.336" y="-44.3" font-family="-adobe-utopia-medium-i-normal--0-0-0-0-p-0-iso10646-1" font-size="12.00">SNPs::addSNP</text>
</g>
<!-- Node2 -->
<g id="node2" class="node"><title>Node2</title>
<g id="a_node2"><a xlink:href="classSNPs.html#a5ebf04c1e5d71710bd68af7a556864f9" target="_top" xlink:title="SNPs::processLegendFile">
<polygon fill="white" stroke="black" points="124.672,-59.7 124.672,-82.1 264.646,-82.1 264.646,-59.7 124.672,-59.7"/>
<text text-anchor="middle" x="194.659" y="-67.3" font-family="-adobe-utopia-medium-i-normal--0-0-0-0-p-0-iso10646-1" font-size="12.00">SNPs::processLegendFile</text>
</a>
</g>
</g>
<!-- Node1&#45;&gt;Node2 -->
<g id="edge1" class="edge"><title>Node1&#45;&gt;Node2</title>
<path fill="none" stroke="midnightblue" d="M99.1878,-56.2506C107.38,-57.521 115.931,-58.847 124.397,-60.1597"/>
<polygon fill="midnightblue" stroke="midnightblue" points="99.4539,-52.7501 89.0356,-54.6764 98.3812,-59.6675 99.4539,-52.7501"/>
</g>
<!-- Node4 -->
<g id="node4" class="node"><title>Node4</title>
<g id="a_node4"><a xlink:href="classSNPs.html#a0f26b6fbd02cc5afd8d423b411d304e8" target="_top" xlink:title="SNPs::processMAPFile">
<polygon fill="white" stroke="black" points="129.664,-14.7 129.664,-37.1 259.654,-37.1 259.654,-14.7 129.664,-14.7"/>
<text text-anchor="middle" x="194.659" y="-22.3" font-family="-adobe-utopia-medium-i-normal--0-0-0-0-p-0-iso10646-1" font-size="12.00">SNPs::processMAPFile</text>
</a>
</g>
</g>
<!-- Node1&#45;&gt;Node4 -->
<g id="edge3" class="edge"><title>Node1&#45;&gt;Node4</title>
<path fill="none" stroke="midnightblue" d="M99.1395,-39.9196C109.049,-38.4497 119.485,-36.9019 129.66,-35.3926"/>
<polygon fill="midnightblue" stroke="midnightblue" points="98.4139,-36.4889 89.0356,-41.4183 99.441,-43.4131 98.4139,-36.4889"/>
</g>
<!-- Node3 -->
<g id="node3" class="node"><title>Node3</title>
<g id="a_node3"><a xlink:href="classHMIndividualsExtractor.html#af7aaa5ed222fd00cc2c36e69a01a3bb3" target="_top" xlink:title="HMIndividualsExtractor\l::loadInput">
<polygon fill="white" stroke="black" points="302.314,-56.5 302.314,-93.3 436.28,-93.3 436.28,-56.5 302.314,-56.5"/>
<text text-anchor="start" x="310.314" y="-78.5" font-family="-adobe-utopia-medium-i-normal--0-0-0-0-p-0-iso10646-1" font-size="12.00">HMIndividualsExtractor</text>
<text text-anchor="middle" x="369.297" y="-64.1" font-family="-adobe-utopia-medium-i-normal--0-0-0-0-p-0-iso10646-1" font-size="12.00">::loadInput</text>
</a>
</g>
</g>
<!-- Node2&#45;&gt;Node3 -->
<g id="edge2" class="edge"><title>Node2&#45;&gt;Node3</title>
<path fill="none" stroke="midnightblue" d="M275.05,-72.7395C284.113,-72.9495 293.278,-73.1618 302.143,-73.3672"/>
<polygon fill="midnightblue" stroke="midnightblue" points="274.961,-69.2366 264.883,-72.5039 274.799,-76.2347 274.961,-69.2366"/>
</g>
<!-- Node5 -->
<g id="node5" class="node"><title>Node5</title>
<g id="a_node5"><a xlink:href="classPEDIndividualsExtractor.html#aaaae7102f9e3db6f900b3d56f559dc91" target="_top" xlink:title="PEDIndividualsExtractor\l::loadInput">
<polygon fill="white" stroke="black" points="300.646,-0.5 300.646,-37.3 437.947,-37.3 437.947,-0.5 300.646,-0.5"/>
<text text-anchor="start" x="308.646" y="-22.5" font-family="-adobe-utopia-medium-i-normal--0-0-0-0-p-0-iso10646-1" font-size="12.00">PEDIndividualsExtractor</text>
<text text-anchor="middle" x="369.297" y="-8.1" font-family="-adobe-utopia-medium-i-normal--0-0-0-0-p-0-iso10646-1" font-size="12.00">::loadInput</text>
</a>
</g>
</g>
<!-- Node4&#45;&gt;Node5 -->
<g id="edge4" class="edge"><title>Node4&#45;&gt;Node5</title>
<path fill="none" stroke="midnightblue" d="M269.983,-22.8864C280.119,-22.4754 290.48,-22.0553 300.492,-21.6493"/>
<polygon fill="midnightblue" stroke="midnightblue" points="269.793,-19.3911 259.943,-23.2935 270.077,-26.3853 269.793,-19.3911"/>
</g>
</g>
</svg>
