<?xml version="1.0" encoding="UTF-8" standalone="no"?>
<!DOCTYPE svg PUBLIC "-//W3C//DTD SVG 1.1//EN"
 "http://www.w3.org/Graphics/SVG/1.1/DTD/svg11.dtd">
<!-- Generated by graphviz version 2.38.0 (20140413.2041)
 -->
<!-- Title: SNP::setMarkerNumber Pages: 1 -->
<svg width="490pt" height="102pt"
 viewBox="0.00 0.00 489.91 101.80" xmlns="http://www.w3.org/2000/svg" xmlns:xlink="http://www.w3.org/1999/xlink">
<g id="graph0" class="graph" transform="scale(1 1) rotate(0) translate(4 97.8)">
<title>SNP::setMarkerNumber</title>
<polygon fill="white" stroke="none" points="-4,4 -4,-97.8 485.907,-97.8 485.907,4 -4,4"/>
<!-- Node1 -->
<g id="node1" class="node"><title>Node1</title>
<polygon fill="#bfbfbf" stroke="black" points="-2.84217e-14,-36.7 -2.84217e-14,-59.1 132.632,-59.1 132.632,-36.7 -2.84217e-14,-36.7"/>
<text text-anchor="middle" x="66.3158" y="-44.3" font-family="-adobe-utopia-medium-i-normal--0-0-0-0-p-0-iso10646-1" font-size="12.00">SNP::setMarkerNumber</text>
</g>
<!-- Node2 -->
<g id="node2" class="node"><title>Node2</title>
<g id="a_node2"><a xlink:href="classSNPs.html#a5ebf04c1e5d71710bd68af7a556864f9" target="_top" xlink:title="SNPs::processLegendFile">
<polygon fill="white" stroke="black" points="168.632,-59.7 168.632,-82.1 308.606,-82.1 308.606,-59.7 168.632,-59.7"/>
<text text-anchor="middle" x="238.619" y="-67.3" font-family="-adobe-utopia-medium-i-normal--0-0-0-0-p-0-iso10646-1" font-size="12.00">SNPs::processLegendFile</text>
</a>
</g>
</g>
<!-- Node1&#45;&gt;Node2 -->
<g id="edge1" class="edge"><title>Node1&#45;&gt;Node2</title>
<path fill="none" stroke="midnightblue" d="M142.67,-58.0768C151.257,-59.2366 159.979,-60.4145 168.48,-61.5626"/>
<polygon fill="midnightblue" stroke="midnightblue" points="143.051,-54.5966 132.672,-56.7266 142.114,-61.5336 143.051,-54.5966"/>
</g>
<!-- Node4 -->
<g id="node4" class="node"><title>Node4</title>
<g id="a_node4"><a xlink:href="classSNPs.html#a0f26b6fbd02cc5afd8d423b411d304e8" target="_top" xlink:title="SNPs::processMAPFile">
<polygon fill="white" stroke="black" points="173.624,-14.7 173.624,-37.1 303.614,-37.1 303.614,-14.7 173.624,-14.7"/>
<text text-anchor="middle" x="238.619" y="-22.3" font-family="-adobe-utopia-medium-i-normal--0-0-0-0-p-0-iso10646-1" font-size="12.00">SNPs::processMAPFile</text>
</a>
</g>
</g>
<!-- Node1&#45;&gt;Node4 -->
<g id="edge3" class="edge"><title>Node1&#45;&gt;Node4</title>
<path fill="none" stroke="midnightblue" d="M142.84,-38.1436C153.093,-36.8191 163.535,-35.4702 173.561,-34.1751"/>
<polygon fill="midnightblue" stroke="midnightblue" points="142.141,-34.7047 132.672,-39.4571 143.038,-41.647 142.141,-34.7047"/>
</g>
<!-- Node3 -->
<g id="node3" class="node"><title>Node3</title>
<g id="a_node3"><a xlink:href="classHMIndividualsExtractor.html#af7aaa5ed222fd00cc2c36e69a01a3bb3" target="_top" xlink:title="HMIndividualsExtractor\l::loadInput">
<polygon fill="white" stroke="black" points="346.273,-56.5 346.273,-93.3 480.239,-93.3 480.239,-56.5 346.273,-56.5"/>
<text text-anchor="start" x="354.273" y="-78.5" font-family="-adobe-utopia-medium-i-normal--0-0-0-0-p-0-iso10646-1" font-size="12.00">HMIndividualsExtractor</text>
<text text-anchor="middle" x="413.256" y="-64.1" font-family="-adobe-utopia-medium-i-normal--0-0-0-0-p-0-iso10646-1" font-size="12.00">::loadInput</text>
</a>
</g>
</g>
<!-- Node2&#45;&gt;Node3 -->
<g id="edge2" class="edge"><title>Node2&#45;&gt;Node3</title>
<path fill="none" stroke="midnightblue" d="M319.009,-72.7395C328.072,-72.9495 337.238,-73.1618 346.102,-73.3672"/>
<polygon fill="midnightblue" stroke="midnightblue" points="318.921,-69.2366 308.842,-72.5039 318.759,-76.2347 318.921,-69.2366"/>
</g>
<!-- Node5 -->
<g id="node5" class="node"><title>Node5</title>
<g id="a_node5"><a xlink:href="classPEDIndividualsExtractor.html#aaaae7102f9e3db6f900b3d56f559dc91" target="_top" xlink:title="PEDIndividualsExtractor\l::loadInput">
<polygon fill="white" stroke="black" points="344.606,-0.5 344.606,-37.3 481.907,-37.3 481.907,-0.5 344.606,-0.5"/>
<text text-anchor="start" x="352.606" y="-22.5" font-family="-adobe-utopia-medium-i-normal--0-0-0-0-p-0-iso10646-1" font-size="12.00">PEDIndividualsExtractor</text>
<text text-anchor="middle" x="413.256" y="-8.1" font-family="-adobe-utopia-medium-i-normal--0-0-0-0-p-0-iso10646-1" font-size="12.00">::loadInput</text>
</a>
</g>
</g>
<!-- Node4&#45;&gt;Node5 -->
<g id="edge4" class="edge"><title>Node4&#45;&gt;Node5</title>
<path fill="none" stroke="midnightblue" d="M313.942,-22.8864C324.078,-22.4754 334.439,-22.0553 344.451,-21.6493"/>
<polygon fill="midnightblue" stroke="midnightblue" points="313.753,-19.3911 303.903,-23.2935 314.036,-26.3853 313.753,-19.3911"/>
</g>
</g>
</svg>
