<?xml version="1.0" encoding="UTF-8" standalone="no"?>
<!DOCTYPE svg PUBLIC "-//W3C//DTD SVG 1.1//EN"
 "http://www.w3.org/Graphics/SVG/1.1/DTD/svg11.dtd">
<!-- Generated by graphviz version 2.38.0 (20140413.2041)
 -->
<!-- Title: HMIndividualsExtractor::getInput Pages: 1 -->
<svg width="259pt" height="46pt"
 viewBox="0.00 0.00 259.30 45.80" xmlns="http://www.w3.org/2000/svg" xmlns:xlink="http://www.w3.org/1999/xlink">
<g id="graph0" class="graph" transform="scale(1 1) rotate(0) translate(4 41.8)">
<title>HMIndividualsExtractor::getInput</title>
<polygon fill="white" stroke="none" points="-4,4 -4,-41.8 255.302,-41.8 255.302,4 -4,4"/>
<!-- Node1 -->
<g id="node1" class="node"><title>Node1</title>
<polygon fill="#bfbfbf" stroke="black" points="1.42109e-14,-0.5 1.42109e-14,-37.3 133.966,-37.3 133.966,-0.5 1.42109e-14,-0.5"/>
<text text-anchor="start" x="8" y="-22.5" font-family="-adobe-utopia-medium-i-normal--0-0-0-0-p-0-iso10646-1" font-size="12.00">HMIndividualsExtractor</text>
<text text-anchor="middle" x="66.983" y="-8.1" font-family="-adobe-utopia-medium-i-normal--0-0-0-0-p-0-iso10646-1" font-size="12.00">::getInput</text>
</g>
<!-- Node2 -->
<g id="node2" class="node"><title>Node2</title>
<g id="a_node2"><a xlink:href="classSNPs.html#a628bbcf8c75f1005e552f2b0a5a03535" target="_top" xlink:title="SNPs::setFile">
<polygon fill="white" stroke="black" points="169.966,-7.7 169.966,-30.1 251.302,-30.1 251.302,-7.7 169.966,-7.7"/>
<text text-anchor="middle" x="210.634" y="-15.3" font-family="-adobe-utopia-medium-i-normal--0-0-0-0-p-0-iso10646-1" font-size="12.00">SNPs::setFile</text>
</a>
</g>
</g>
<!-- Node1&#45;&gt;Node2 -->
<g id="edge1" class="edge"><title>Node1&#45;&gt;Node2</title>
<path fill="none" stroke="midnightblue" d="M134.246,-18.9C142.752,-18.9 151.346,-18.9 159.534,-18.9"/>
<polygon fill="midnightblue" stroke="midnightblue" points="159.652,-22.4001 169.652,-18.9 159.652,-15.4001 159.652,-22.4001"/>
</g>
</g>
</svg>
