<?xml version="1.0" encoding="UTF-8" standalone="no"?>
<!DOCTYPE svg PUBLIC "-//W3C//DTD SVG 1.1//EN"
 "http://www.w3.org/Graphics/SVG/1.1/DTD/svg11.dtd">
<!-- Generated by graphviz version 2.38.0 (20140413.2041)
 -->
<!-- Title: HMIndividualsExtractor::getIndividuals Pages: 1 -->
<svg width="293pt" height="72pt"
 viewBox="0.00 0.00 293.27 72.40" xmlns="http://www.w3.org/2000/svg" xmlns:xlink="http://www.w3.org/1999/xlink">
<g id="graph0" class="graph" transform="scale(1 1) rotate(0) translate(4 68.4)">
<title>HMIndividualsExtractor::getIndividuals</title>
<polygon fill="white" stroke="none" points="-4,4 -4,-68.4 289.271,-68.4 289.271,4 -4,4"/>
<!-- Node1 -->
<g id="node1" class="node"><title>Node1</title>
<polygon fill="#bfbfbf" stroke="black" points="1.42109e-14,-13.3 1.42109e-14,-50.1 133.966,-50.1 133.966,-13.3 1.42109e-14,-13.3"/>
<text text-anchor="start" x="8" y="-35.3" font-family="-adobe-utopia-medium-i-normal--0-0-0-0-p-0-iso10646-1" font-size="12.00">HMIndividualsExtractor</text>
<text text-anchor="middle" x="66.983" y="-20.9" font-family="-adobe-utopia-medium-i-normal--0-0-0-0-p-0-iso10646-1" font-size="12.00">::getIndividuals</text>
</g>
<!-- Node2 -->
<g id="node2" class="node"><title>Node2</title>
<g id="a_node2"><a xlink:href="classIndividual.html#a959becb7f3282af81a3a6cb695bc6414" target="_top" xlink:title="Individual::setID">
<polygon fill="white" stroke="black" points="178.628,-41.5 178.628,-63.9 276.609,-63.9 276.609,-41.5 178.628,-41.5"/>
<text text-anchor="middle" x="227.618" y="-49.1" font-family="-adobe-utopia-medium-i-normal--0-0-0-0-p-0-iso10646-1" font-size="12.00">Individual::setID</text>
</a>
</g>
</g>
<!-- Node1&#45;&gt;Node2 -->
<g id="edge1" class="edge"><title>Node1&#45;&gt;Node2</title>
<path fill="none" stroke="midnightblue" d="M134.34,-40.4842C145.65,-41.9815 157.322,-43.5266 168.402,-44.9934"/>
<polygon fill="midnightblue" stroke="midnightblue" points="168.01,-48.472 178.383,-46.3147 168.929,-41.5325 168.01,-48.472"/>
</g>
<!-- Node3 -->
<g id="node3" class="node"><title>Node3</title>
<g id="a_node3"><a xlink:href="classIndividual.html#a87bc5ec4228b8de951d8b1b269df2a62" target="_top" xlink:title="Individual::setOffset">
<polygon fill="white" stroke="black" points="169.966,-0.5 169.966,-22.9 285.271,-22.9 285.271,-0.5 169.966,-0.5"/>
<text text-anchor="middle" x="227.618" y="-8.1" font-family="-adobe-utopia-medium-i-normal--0-0-0-0-p-0-iso10646-1" font-size="12.00">Individual::setOffset</text>
</a>
</g>
</g>
<!-- Node1&#45;&gt;Node3 -->
<g id="edge2" class="edge"><title>Node1&#45;&gt;Node3</title>
<path fill="none" stroke="midnightblue" d="M134.34,-23.3341C142.669,-22.2839 151.195,-21.209 159.536,-20.1574"/>
<polygon fill="midnightblue" stroke="midnightblue" points="160.109,-23.613 169.593,-18.8896 159.233,-16.668 160.109,-23.613"/>
</g>
</g>
</svg>
