<?xml version="1.0" encoding="UTF-8" standalone="no"?>
<!DOCTYPE svg PUBLIC "-//W3C//DTD SVG 1.1//EN"
 "http://www.w3.org/Graphics/SVG/1.1/DTD/svg11.dtd">
<!-- Generated by graphviz version 2.38.0 (20140413.2041)
 -->
<!-- Title: main Pages: 1 -->
<svg width="1813pt" height="619pt"
 viewBox="0.00 0.00 1812.97 618.71" xmlns="http://www.w3.org/2000/svg" xmlns:xlink="http://www.w3.org/1999/xlink">
<g id="graph0" class="graph" transform="scale(1 1) rotate(0) translate(4 614.712)">
<title>main</title>
<polygon fill="white" stroke="none" points="-4,4 -4,-614.712 1808.97,-614.712 1808.97,4 -4,4"/>
<!-- Node1 -->
<g id="node1" class="node"><title>Node1</title>
<polygon fill="#bfbfbf" stroke="black" points="-3.55271e-15,-290.612 -3.55271e-15,-313.012 39.9964,-313.012 39.9964,-290.612 -3.55271e-15,-290.612"/>
<text text-anchor="middle" x="19.9982" y="-298.212" font-family="-adobe-utopia-medium-i-normal--0-0-0-0-p-0-iso10646-1" font-size="12.00">main</text>
</g>
<!-- Node2 -->
<g id="node2" class="node"><title>Node2</title>
<g id="a_node2"><a xlink:href="classSNPs.html#a5902881203329a56f24f922a64bd7d2b" target="_top" xlink:title="SNPs::loadGeneticDistanceMap">
<polygon fill="white" stroke="black" points="75.9964,-331.612 75.9964,-354.012 247.285,-354.012 247.285,-331.612 75.9964,-331.612"/>
<text text-anchor="middle" x="161.641" y="-339.212" font-family="-adobe-utopia-medium-i-normal--0-0-0-0-p-0-iso10646-1" font-size="12.00">SNPs::loadGeneticDistanceMap</text>
</a>
</g>
</g>
<!-- Node1&#45;&gt;Node2 -->
<g id="edge1" class="edge"><title>Node1&#45;&gt;Node2</title>
<path fill="none" stroke="midnightblue" d="M40.124,-309.833C50.6006,-314.043 63.8828,-319.087 75.9964,-322.812 83.1214,-325.004 90.6461,-327.094 98.1514,-329.04"/>
<polygon fill="midnightblue" stroke="midnightblue" points="97.4196,-332.465 107.971,-331.512 99.1284,-325.677 97.4196,-332.465"/>
</g>
<!-- Node3 -->
<g id="node3" class="node"><title>Node3</title>
<g id="a_node3"><a xlink:href="classGERMLINE.html#a7912aa3108f42f42e06c615b460d0565" target="_top" xlink:title="GERMLINE::mine">
<polygon fill="white" stroke="black" points="107.316,-290.612 107.316,-313.012 215.965,-313.012 215.965,-290.612 107.316,-290.612"/>
<text text-anchor="middle" x="161.641" y="-298.212" font-family="-adobe-utopia-medium-i-normal--0-0-0-0-p-0-iso10646-1" font-size="12.00">GERMLINE::mine</text>
</a>
</g>
</g>
<!-- Node1&#45;&gt;Node3 -->
<g id="edge2" class="edge"><title>Node1&#45;&gt;Node3</title>
<path fill="none" stroke="midnightblue" d="M40.1221,-301.812C54.9505,-301.812 76.3979,-301.812 97.1024,-301.812"/>
<polygon fill="midnightblue" stroke="midnightblue" points="97.1745,-305.312 107.174,-301.812 97.1745,-298.312 97.1745,-305.312"/>
</g>
<!-- Node38 -->
<g id="node38" class="node"><title>Node38</title>
<g id="a_node38"><a xlink:href="classSNPs.html#a5ac0ac6f0ce0dd8ecd03264398774e1a" target="_top" xlink:title="SNPs::setROI">
<polygon fill="white" stroke="black" points="119.976,-249.612 119.976,-272.012 203.305,-272.012 203.305,-249.612 119.976,-249.612"/>
<text text-anchor="middle" x="161.641" y="-257.212" font-family="-adobe-utopia-medium-i-normal--0-0-0-0-p-0-iso10646-1" font-size="12.00">SNPs::setROI</text>
</a>
</g>
</g>
<!-- Node1&#45;&gt;Node38 -->
<g id="edge48" class="edge"><title>Node1&#45;&gt;Node38</title>
<path fill="none" stroke="midnightblue" d="M40.124,-293.792C50.6006,-289.581 63.8828,-284.538 75.9964,-280.812 86.9358,-277.448 98.8176,-274.322 110.125,-271.589"/>
<polygon fill="midnightblue" stroke="midnightblue" points="110.944,-274.992 119.875,-269.292 109.339,-268.178 110.944,-274.992"/>
</g>
<!-- Node4 -->
<g id="node4" class="node"><title>Node4</title>
<g id="a_node4"><a xlink:href="classPolymorphicIndividualsExtractor.html#a0afa2852fe48f802e0ee7b5221f70d98" target="_top" xlink:title="PolymorphicIndividualsExtractor\l::valid">
<polygon fill="white" stroke="black" points="283.285,-573.412 283.285,-610.212 459.918,-610.212 459.918,-573.412 283.285,-573.412"/>
<text text-anchor="start" x="291.285" y="-595.412" font-family="-adobe-utopia-medium-i-normal--0-0-0-0-p-0-iso10646-1" font-size="12.00">PolymorphicIndividualsExtractor</text>
<text text-anchor="middle" x="371.601" y="-581.012" font-family="-adobe-utopia-medium-i-normal--0-0-0-0-p-0-iso10646-1" font-size="12.00">::valid</text>
</a>
</g>
</g>
<!-- Node3&#45;&gt;Node4 -->
<g id="edge3" class="edge"><title>Node3&#45;&gt;Node4</title>
<path fill="none" stroke="midnightblue" d="M216.062,-304.562C227.78,-307.63 239.111,-312.918 247.285,-321.812 320.865,-401.876 212.894,-480.931 283.285,-563.812 284.154,-564.836 285.061,-565.823 286.002,-566.774"/>
<polygon fill="midnightblue" stroke="midnightblue" points="283.932,-569.606 293.829,-573.387 288.45,-564.259 283.932,-569.606"/>
</g>
<!-- Node5 -->
<g id="node5" class="node"><title>Node5</title>
<g id="a_node5"><a xlink:href="classPolymorphicIndividualsExtractor.html#a7da0f3eb8ff6eb7c0fd70f82683fa531" target="_top" xlink:title="PolymorphicIndividualsExtractor\l::loadInput">
<polygon fill="white" stroke="black" points="283.285,-517.412 283.285,-554.212 459.918,-554.212 459.918,-517.412 283.285,-517.412"/>
<text text-anchor="start" x="291.285" y="-539.412" font-family="-adobe-utopia-medium-i-normal--0-0-0-0-p-0-iso10646-1" font-size="12.00">PolymorphicIndividualsExtractor</text>
<text text-anchor="middle" x="371.601" y="-525.012" font-family="-adobe-utopia-medium-i-normal--0-0-0-0-p-0-iso10646-1" font-size="12.00">::loadInput</text>
</a>
</g>
</g>
<!-- Node3&#45;&gt;Node5 -->
<g id="edge4" class="edge"><title>Node3&#45;&gt;Node5</title>
<path fill="none" stroke="midnightblue" d="M216.23,-304.933C227.801,-308.008 239.024,-313.207 247.285,-321.812 305.596,-382.555 227.396,-444.835 283.285,-507.812 284.176,-508.817 285.104,-509.786 286.064,-510.72"/>
<polygon fill="midnightblue" stroke="midnightblue" points="284.058,-513.601 294.013,-517.227 288.492,-508.184 284.058,-513.601"/>
</g>
<!-- Node6 -->
<g id="node6" class="node"><title>Node6</title>
<g id="a_node6"><a xlink:href="classSNPs.html#ae27666e68ba06ba960eeced83704ef9d" target="_top" xlink:title="SNPs::getROIStart">
<polygon fill="white" stroke="black" points="317.939,-475.612 317.939,-498.012 425.264,-498.012 425.264,-475.612 317.939,-475.612"/>
<text text-anchor="middle" x="371.601" y="-483.212" font-family="-adobe-utopia-medium-i-normal--0-0-0-0-p-0-iso10646-1" font-size="12.00">SNPs::getROIStart</text>
</a>
</g>
</g>
<!-- Node3&#45;&gt;Node6 -->
<g id="edge5" class="edge"><title>Node3&#45;&gt;Node6</title>
<path fill="none" stroke="midnightblue" d="M216.352,-305.363C227.78,-308.44 238.91,-313.531 247.285,-321.812 294.503,-368.498 235.907,-420.289 283.285,-466.812 290.12,-473.525 298.722,-478.165 307.844,-481.341"/>
<polygon fill="midnightblue" stroke="midnightblue" points="306.907,-484.713 317.487,-484.147 308.863,-477.992 306.907,-484.713"/>
</g>
<!-- Node7 -->
<g id="node7" class="node"><title>Node7</title>
<g id="a_node7"><a xlink:href="classSNP.html#acb364c2ba0b3daf71f3a83a9f9f4fa1b" target="_top" xlink:title="SNP::getSNPID">
<polygon fill="white" stroke="black" points="324.603,-434.612 324.603,-457.012 418.6,-457.012 418.6,-434.612 324.603,-434.612"/>
<text text-anchor="middle" x="371.601" y="-442.212" font-family="-adobe-utopia-medium-i-normal--0-0-0-0-p-0-iso10646-1" font-size="12.00">SNP::getSNPID</text>
</a>
</g>
</g>
<!-- Node3&#45;&gt;Node7 -->
<g id="edge6" class="edge"><title>Node3&#45;&gt;Node7</title>
<path fill="none" stroke="midnightblue" d="M216.265,-306.039C227.563,-309.102 238.658,-314.017 247.285,-321.812 283.577,-354.605 246.88,-393.144 283.285,-425.812 291.968,-433.605 303.062,-438.548 314.406,-441.642"/>
<polygon fill="midnightblue" stroke="midnightblue" points="313.859,-445.107 324.386,-443.91 315.411,-438.281 313.859,-445.107"/>
</g>
<!-- Node8 -->
<g id="node8" class="node"><title>Node8</title>
<g id="a_node8"><a xlink:href="classSNPs.html#aa3fc87bb408f1b480251a686ac3b80ad" target="_top" xlink:title="SNPs::getROIEnd">
<polygon fill="white" stroke="black" points="319.605,-393.612 319.605,-416.012 423.598,-416.012 423.598,-393.612 319.605,-393.612"/>
<text text-anchor="middle" x="371.601" y="-401.212" font-family="-adobe-utopia-medium-i-normal--0-0-0-0-p-0-iso10646-1" font-size="12.00">SNPs::getROIEnd</text>
</a>
</g>
</g>
<!-- Node3&#45;&gt;Node8 -->
<g id="edge7" class="edge"><title>Node3&#45;&gt;Node8</title>
<path fill="none" stroke="midnightblue" d="M216.143,-307.501C227.193,-310.509 238.214,-315.032 247.285,-321.812 273.116,-341.119 257.387,-365.594 283.285,-384.812 291.071,-390.59 300.243,-394.74 309.664,-397.712"/>
<polygon fill="midnightblue" stroke="midnightblue" points="308.957,-401.147 319.525,-400.402 310.799,-394.393 308.957,-401.147"/>
</g>
<!-- Node9 -->
<g id="node9" class="node"><title>Node9</title>
<g id="a_node9"><a xlink:href="classSNPs.html#a7e4f810a6d54fdd7d84c0a1b8bc38647" target="_top" xlink:title="SNPs::beginChromosome">
<polygon fill="white" stroke="black" points="301.27,-352.612 301.27,-375.012 441.933,-375.012 441.933,-352.612 301.27,-352.612"/>
<text text-anchor="middle" x="371.601" y="-360.212" font-family="-adobe-utopia-medium-i-normal--0-0-0-0-p-0-iso10646-1" font-size="12.00">SNPs::beginChromosome</text>
</a>
</g>
</g>
<!-- Node3&#45;&gt;Node9 -->
<g id="edge8" class="edge"><title>Node3&#45;&gt;Node9</title>
<path fill="none" stroke="midnightblue" d="M216.279,-311.775C226.752,-314.473 237.51,-317.791 247.285,-321.812 264.626,-328.946 265.919,-336.738 283.285,-343.812 288.636,-345.992 294.274,-347.961 300.001,-349.733"/>
<polygon fill="midnightblue" stroke="midnightblue" points="299.112,-353.12 309.691,-352.534 301.056,-346.395 299.112,-353.12"/>
</g>
<!-- Node10 -->
<g id="node10" class="node"><title>Node10</title>
<g id="a_node10"><a xlink:href="classSNPs.html#ab60d36a9d490c8d5d155134170ffd2dc" target="_top" xlink:title="SNPs::currentSize">
<polygon fill="white" stroke="black" points="319.612,-311.612 319.612,-334.012 423.59,-334.012 423.59,-311.612 319.612,-311.612"/>
<text text-anchor="middle" x="371.601" y="-319.212" font-family="-adobe-utopia-medium-i-normal--0-0-0-0-p-0-iso10646-1" font-size="12.00">SNPs::currentSize</text>
</a>
</g>
</g>
<!-- Node3&#45;&gt;Node10 -->
<g id="edge9" class="edge"><title>Node3&#45;&gt;Node10</title>
<path fill="none" stroke="midnightblue" d="M216.196,-307.22C244.616,-310.09 279.668,-313.63 309.188,-316.611"/>
<polygon fill="midnightblue" stroke="midnightblue" points="309.078,-320.117 319.379,-317.64 309.781,-313.153 309.078,-320.117"/>
</g>
<!-- Node11 -->
<g id="node11" class="node"><title>Node11</title>
<g id="a_node11"><a xlink:href="classMatchesBuilder.html#a31faf645700f38ac0d7d164b57cfebd1" target="_top" xlink:title="MatchesBuilder::buildMatches">
<polygon fill="white" stroke="black" points="289.286,-270.612 289.286,-293.012 453.917,-293.012 453.917,-270.612 289.286,-270.612"/>
<text text-anchor="middle" x="371.601" y="-278.212" font-family="-adobe-utopia-medium-i-normal--0-0-0-0-p-0-iso10646-1" font-size="12.00">MatchesBuilder::buildMatches</text>
</a>
</g>
</g>
<!-- Node3&#45;&gt;Node11 -->
<g id="edge10" class="edge"><title>Node3&#45;&gt;Node11</title>
<path fill="none" stroke="midnightblue" d="M216.196,-296.662C235.312,-294.823 257.428,-292.696 278.844,-290.637"/>
<polygon fill="midnightblue" stroke="midnightblue" points="279.332,-294.106 288.951,-289.665 278.662,-287.138 279.332,-294.106"/>
</g>
<!-- Node32 -->
<g id="node32" class="node"><title>Node32</title>
<g id="a_node32"><a xlink:href="classIndividuals.html#a97881cfe8e71575f6df1bf511e0da82f" target="_top" xlink:title="Individuals::freeMatches">
<polygon fill="white" stroke="black" points="303.624,-229.612 303.624,-252.012 439.579,-252.012 439.579,-229.612 303.624,-229.612"/>
<text text-anchor="middle" x="371.601" y="-237.212" font-family="-adobe-utopia-medium-i-normal--0-0-0-0-p-0-iso10646-1" font-size="12.00">Individuals::freeMatches</text>
</a>
</g>
</g>
<!-- Node3&#45;&gt;Node32 -->
<g id="edge42" class="edge"><title>Node3&#45;&gt;Node32</title>
<path fill="none" stroke="midnightblue" d="M216.215,-291.69C226.693,-289.005 237.469,-285.733 247.285,-281.812 264.486,-274.941 266.06,-267.625 283.285,-260.812 288.751,-258.65 294.506,-256.691 300.346,-254.921"/>
<polygon fill="midnightblue" stroke="midnightblue" points="301.554,-258.217 310.219,-252.12 299.643,-251.483 301.554,-258.217"/>
</g>
<!-- Node33 -->
<g id="node33" class="node"><title>Node33</title>
<g id="a_node33"><a xlink:href="classIndividuals.html#a735f9e2036c83e12adc0ecc52a17a49e" target="_top" xlink:title="Individuals::freeMarkers">
<polygon fill="white" stroke="black" points="303.96,-188.612 303.96,-211.012 439.243,-211.012 439.243,-188.612 303.96,-188.612"/>
<text text-anchor="middle" x="371.601" y="-196.212" font-family="-adobe-utopia-medium-i-normal--0-0-0-0-p-0-iso10646-1" font-size="12.00">Individuals::freeMarkers</text>
</a>
</g>
</g>
<!-- Node3&#45;&gt;Node33 -->
<g id="edge43" class="edge"><title>Node3&#45;&gt;Node33</title>
<path fill="none" stroke="midnightblue" d="M216.108,-296.077C227.159,-293.072 238.19,-288.561 247.285,-281.812 272.874,-262.825 257.631,-238.712 283.285,-219.812 286.736,-217.27 290.456,-215.043 294.347,-213.093"/>
<polygon fill="midnightblue" stroke="midnightblue" points="295.917,-216.227 303.691,-209.029 293.125,-209.808 295.917,-216.227"/>
</g>
<!-- Node34 -->
<g id="node34" class="node"><title>Node34</title>
<g id="a_node34"><a xlink:href="classSNPs.html#a448a7eacaf61bffa6966ff05c63cd5fc" target="_top" xlink:title="SNPs::moreChromosome">
<polygon fill="white" stroke="black" points="302.272,-147.612 302.272,-170.012 440.93,-170.012 440.93,-147.612 302.272,-147.612"/>
<text text-anchor="middle" x="371.601" y="-155.212" font-family="-adobe-utopia-medium-i-normal--0-0-0-0-p-0-iso10646-1" font-size="12.00">SNPs::moreChromosome</text>
</a>
</g>
</g>
<!-- Node3&#45;&gt;Node34 -->
<g id="edge44" class="edge"><title>Node3&#45;&gt;Node34</title>
<path fill="none" stroke="midnightblue" d="M216.248,-297.566C227.547,-294.504 238.646,-289.594 247.285,-281.812 283.314,-249.355 247.144,-211.146 283.285,-178.812 286.264,-176.147 289.525,-173.815 292.981,-171.777"/>
<polygon fill="midnightblue" stroke="midnightblue" points="294.555,-174.903 301.926,-167.292 291.418,-168.646 294.555,-174.903"/>
</g>
<!-- Node35 -->
<g id="node35" class="node"><title>Node35</title>
<g id="a_node35"><a xlink:href="classSNPs.html#ab2669ca68bf35e52fa9a999a66f4b0bf" target="_top" xlink:title="SNPs::nextChromosome">
<polygon fill="white" stroke="black" points="304.27,-106.612 304.27,-129.012 438.933,-129.012 438.933,-106.612 304.27,-106.612"/>
<text text-anchor="middle" x="371.601" y="-114.212" font-family="-adobe-utopia-medium-i-normal--0-0-0-0-p-0-iso10646-1" font-size="12.00">SNPs::nextChromosome</text>
</a>
</g>
</g>
<!-- Node3&#45;&gt;Node35 -->
<g id="edge45" class="edge"><title>Node3&#45;&gt;Node35</title>
<path fill="none" stroke="midnightblue" d="M216.342,-298.252C227.771,-295.175 238.903,-290.086 247.285,-281.812 294.234,-235.468 236.177,-183.996 283.285,-137.812 286.779,-134.386 290.734,-131.5 294.983,-129.073"/>
<polygon fill="midnightblue" stroke="midnightblue" points="296.567,-132.195 304.066,-124.711 293.536,-125.886 296.567,-132.195"/>
</g>
<!-- Node36 -->
<g id="node36" class="node"><title>Node36</title>
<g id="a_node36"><a xlink:href="classSNPs.html#a87100cf7482a6dbf0e559231e3c865b5" target="_top" xlink:title="SNPs::print">
<polygon fill="white" stroke="black" points="335.599,-65.6123 335.599,-88.0123 407.604,-88.0123 407.604,-65.6123 335.599,-65.6123"/>
<text text-anchor="middle" x="371.601" y="-73.2123" font-family="-adobe-utopia-medium-i-normal--0-0-0-0-p-0-iso10646-1" font-size="12.00">SNPs::print</text>
</a>
</g>
</g>
<!-- Node3&#45;&gt;Node36 -->
<g id="edge46" class="edge"><title>Node3&#45;&gt;Node36</title>
<path fill="none" stroke="midnightblue" d="M216.224,-298.686C227.795,-295.611 239.019,-290.414 247.285,-281.812 305.324,-221.414 225.039,-157.011 283.285,-96.8123 294.18,-85.5519 310.023,-80.057 325.233,-77.5335"/>
<polygon fill="midnightblue" stroke="midnightblue" points="326.109,-80.9508 335.593,-76.2269 325.233,-74.0059 326.109,-80.9508"/>
</g>
<!-- Node37 -->
<g id="node37" class="node"><title>Node37</title>
<g id="a_node37"><a xlink:href="classIndividuals.html#a8c3626441a9fe6306e771062a150c85b" target="_top" xlink:title="Individuals::print">
<polygon fill="white" stroke="black" points="321.938,-24.6123 321.938,-47.0123 421.265,-47.0123 421.265,-24.6123 321.938,-24.6123"/>
<text text-anchor="middle" x="371.601" y="-32.2123" font-family="-adobe-utopia-medium-i-normal--0-0-0-0-p-0-iso10646-1" font-size="12.00">Individuals::print</text>
</a>
</g>
</g>
<!-- Node3&#45;&gt;Node37 -->
<g id="edge47" class="edge"><title>Node3&#45;&gt;Node37</title>
<path fill="none" stroke="midnightblue" d="M215.998,-299.003C227.717,-295.937 239.065,-290.664 247.285,-281.812 316.493,-207.278 213.821,-130.108 283.285,-55.8123 290.847,-47.7236 300.958,-42.5873 311.614,-39.3867"/>
<polygon fill="midnightblue" stroke="midnightblue" points="312.618,-42.7443 321.496,-36.9624 310.95,-35.9458 312.618,-42.7443"/>
</g>
<!-- Node12 -->
<g id="node12" class="node"><title>Node12</title>
<g id="a_node12"><a xlink:href="classMatchesBuilder.html#ad627b36445ae9df99c732b23c8b06547" target="_top" xlink:title="MatchesBuilder::readAllMarkers">
<polygon fill="white" stroke="black" points="495.918,-300.612 495.918,-323.012 671.188,-323.012 671.188,-300.612 495.918,-300.612"/>
<text text-anchor="middle" x="583.553" y="-308.212" font-family="-adobe-utopia-medium-i-normal--0-0-0-0-p-0-iso10646-1" font-size="12.00">MatchesBuilder::readAllMarkers</text>
</a>
</g>
</g>
<!-- Node11&#45;&gt;Node12 -->
<g id="edge11" class="edge"><title>Node11&#45;&gt;Node12</title>
<path fill="none" stroke="midnightblue" d="M451.078,-293.026C464.949,-295.008 479.481,-297.084 493.615,-299.104"/>
<polygon fill="midnightblue" stroke="midnightblue" points="493.427,-302.613 503.822,-300.562 494.417,-295.683 493.427,-302.613"/>
</g>
<!-- Node19 -->
<g id="node19" class="node"><title>Node19</title>
<g id="a_node19"><a xlink:href="classMatchesBuilder.html#ae8d8a0ff7f0726406e83d4fa55a96bf4" target="_top" xlink:title="MatchesBuilder::matchAll\lMarkers">
<polygon fill="white" stroke="black" points="511.569,-232.412 511.569,-269.212 655.537,-269.212 655.537,-232.412 511.569,-232.412"/>
<text text-anchor="start" x="519.569" y="-254.412" font-family="-adobe-utopia-medium-i-normal--0-0-0-0-p-0-iso10646-1" font-size="12.00">MatchesBuilder::matchAll</text>
<text text-anchor="middle" x="583.553" y="-240.012" font-family="-adobe-utopia-medium-i-normal--0-0-0-0-p-0-iso10646-1" font-size="12.00">Markers</text>
</a>
</g>
</g>
<!-- Node11&#45;&gt;Node19 -->
<g id="edge22" class="edge"><title>Node11&#45;&gt;Node19</title>
<path fill="none" stroke="midnightblue" d="M448.696,-270.577C465.765,-268.056 483.939,-265.373 501.212,-262.822"/>
<polygon fill="midnightblue" stroke="midnightblue" points="501.882,-266.262 511.264,-261.338 500.86,-259.337 501.882,-266.262"/>
</g>
<!-- Node13 -->
<g id="node13" class="node"><title>Node13</title>
<g id="a_node13"><a xlink:href="classMatchesBuilder.html#a24030d91efc506dab6732cdb9a89f0ab" target="_top" xlink:title="MatchesBuilder::readHaploid\lMarkerSet">
<polygon fill="white" stroke="black" points="717.517,-342.412 717.517,-379.212 876.137,-379.212 876.137,-342.412 717.517,-342.412"/>
<text text-anchor="start" x="725.517" y="-364.412" font-family="-adobe-utopia-medium-i-normal--0-0-0-0-p-0-iso10646-1" font-size="12.00">MatchesBuilder::readHaploid</text>
<text text-anchor="middle" x="796.827" y="-350.012" font-family="-adobe-utopia-medium-i-normal--0-0-0-0-p-0-iso10646-1" font-size="12.00">MarkerSet</text>
</a>
</g>
</g>
<!-- Node12&#45;&gt;Node13 -->
<g id="edge12" class="edge"><title>Node12&#45;&gt;Node13</title>
<path fill="none" stroke="midnightblue" d="M633.024,-323.054C655.071,-328.167 681.873,-334.383 707.314,-340.284"/>
<polygon fill="midnightblue" stroke="midnightblue" points="706.827,-343.764 717.359,-342.614 708.409,-336.945 706.827,-343.764"/>
</g>
<!-- Node18 -->
<g id="node18" class="node"><title>Node18</title>
<g id="a_node18"><a xlink:href="classMatchesBuilder.html#a0ce39fec7c735700c83a21f4b53f5bbf" target="_top" xlink:title="MatchesBuilder::readMarkerSet">
<polygon fill="white" stroke="black" points="711.525,-300.612 711.525,-323.012 882.129,-323.012 882.129,-300.612 711.525,-300.612"/>
<text text-anchor="middle" x="796.827" y="-308.212" font-family="-adobe-utopia-medium-i-normal--0-0-0-0-p-0-iso10646-1" font-size="12.00">MatchesBuilder::readMarkerSet</text>
</a>
</g>
</g>
<!-- Node12&#45;&gt;Node18 -->
<g id="edge17" class="edge"><title>Node12&#45;&gt;Node18</title>
<path fill="none" stroke="midnightblue" d="M671.401,-311.812C681.199,-311.812 691.221,-311.812 701.113,-311.812"/>
<polygon fill="midnightblue" stroke="midnightblue" points="701.361,-315.312 711.36,-311.812 701.36,-308.312 701.361,-315.312"/>
</g>
<!-- Node14 -->
<g id="node14" class="node"><title>Node14</title>
<g id="a_node14"><a xlink:href="classIndividuals.html#ac1f8fff7b6e6a737ababc975495b5f65" target="_top" xlink:title="Individuals::begin">
<polygon fill="white" stroke="black" points="959.121,-349.612 959.121,-372.012 1062.44,-372.012 1062.44,-349.612 959.121,-349.612"/>
<text text-anchor="middle" x="1010.78" y="-357.212" font-family="-adobe-utopia-medium-i-normal--0-0-0-0-p-0-iso10646-1" font-size="12.00">Individuals::begin</text>
</a>
</g>
</g>
<!-- Node13&#45;&gt;Node14 -->
<g id="edge13" class="edge"><title>Node13&#45;&gt;Node14</title>
<path fill="none" stroke="midnightblue" d="M876.149,-360.812C900.181,-360.812 926.253,-360.812 948.934,-360.812"/>
<polygon fill="midnightblue" stroke="midnightblue" points="949.097,-364.312 959.097,-360.812 949.097,-357.312 949.097,-364.312"/>
</g>
<!-- Node15 -->
<g id="node15" class="node"><title>Node15</title>
<g id="a_node15"><a xlink:href="classIndividuals.html#ac9d09bbae9d26e39364b099c4366daf1" target="_top" xlink:title="Individuals::more">
<polygon fill="white" stroke="black" points="960.123,-308.612 960.123,-331.012 1061.44,-331.012 1061.44,-308.612 960.123,-308.612"/>
<text text-anchor="middle" x="1010.78" y="-316.212" font-family="-adobe-utopia-medium-i-normal--0-0-0-0-p-0-iso10646-1" font-size="12.00">Individuals::more</text>
</a>
</g>
</g>
<!-- Node13&#45;&gt;Node15 -->
<g id="edge14" class="edge"><title>Node13&#45;&gt;Node15</title>
<path fill="none" stroke="midnightblue" d="M876.149,-345.662C900.598,-340.933 927.158,-335.795 950.11,-331.355"/>
<polygon fill="midnightblue" stroke="midnightblue" points="950.891,-334.769 960.044,-329.433 949.562,-327.896 950.891,-334.769"/>
</g>
<!-- Node16 -->
<g id="node16" class="node"><title>Node16</title>
<g id="a_node16"><a xlink:href="classIndividuals.html#a1bd919e3eef3e84c8849623789051f08" target="_top" xlink:title="Individuals::next">
<polygon fill="white" stroke="black" points="962.121,-267.612 962.121,-290.012 1059.44,-290.012 1059.44,-267.612 962.121,-267.612"/>
<text text-anchor="middle" x="1010.78" y="-275.212" font-family="-adobe-utopia-medium-i-normal--0-0-0-0-p-0-iso10646-1" font-size="12.00">Individuals::next</text>
</a>
</g>
</g>
<!-- Node13&#45;&gt;Node16 -->
<g id="edge15" class="edge"><title>Node13&#45;&gt;Node16</title>
<path fill="none" stroke="midnightblue" d="M867.379,-342.22C874.01,-339.454 880.484,-336.329 886.466,-332.812 905.439,-321.66 903.058,-309.189 922.466,-298.812 931.612,-293.922 941.918,-290.223 952.159,-287.425"/>
<polygon fill="midnightblue" stroke="midnightblue" points="953.052,-290.81 961.918,-285.01 951.37,-284.015 953.052,-290.81"/>
</g>
<!-- Node17 -->
<g id="node17" class="node"><title>Node17</title>
<g id="a_node17"><a xlink:href="classPolymorphicIndividualsExtractor.html#af99fabbecd263daa88696353f9fcfeff" target="_top" xlink:title="PolymorphicIndividualsExtractor\l::getCompleteMarkerSet">
<polygon fill="white" stroke="black" points="922.466,-391.412 922.466,-428.212 1099.1,-428.212 1099.1,-391.412 922.466,-391.412"/>
<text text-anchor="start" x="930.466" y="-413.412" font-family="-adobe-utopia-medium-i-normal--0-0-0-0-p-0-iso10646-1" font-size="12.00">PolymorphicIndividualsExtractor</text>
<text text-anchor="middle" x="1010.78" y="-399.012" font-family="-adobe-utopia-medium-i-normal--0-0-0-0-p-0-iso10646-1" font-size="12.00">::getCompleteMarkerSet</text>
</a>
</g>
</g>
<!-- Node13&#45;&gt;Node17 -->
<g id="edge16" class="edge"><title>Node13&#45;&gt;Node17</title>
<path fill="none" stroke="midnightblue" d="M876.149,-378.919C890.426,-382.219 905.422,-385.686 920,-389.056"/>
<polygon fill="midnightblue" stroke="midnightblue" points="919.48,-392.528 930.011,-391.371 921.056,-385.708 919.48,-392.528"/>
</g>
<!-- Node18&#45;&gt;Node14 -->
<g id="edge18" class="edge"><title>Node18&#45;&gt;Node14</title>
<path fill="none" stroke="midnightblue" d="M846.057,-323.075C869.169,-328.461 897.247,-334.99 922.466,-340.812 931.48,-342.893 941.019,-345.087 950.353,-347.229"/>
<polygon fill="midnightblue" stroke="midnightblue" points="949.837,-350.701 960.366,-349.524 951.401,-343.878 949.837,-350.701"/>
</g>
<!-- Node18&#45;&gt;Node15 -->
<g id="edge19" class="edge"><title>Node18&#45;&gt;Node15</title>
<path fill="none" stroke="midnightblue" d="M882.206,-314.997C904.826,-315.851 928.817,-316.756 949.817,-317.549"/>
<polygon fill="midnightblue" stroke="midnightblue" points="949.742,-321.049 959.867,-317.928 950.006,-314.053 949.742,-321.049"/>
</g>
<!-- Node18&#45;&gt;Node16 -->
<g id="edge20" class="edge"><title>Node18&#45;&gt;Node16</title>
<path fill="none" stroke="midnightblue" d="M869.881,-300.594C896.568,-296.439 926.462,-291.785 951.745,-287.848"/>
<polygon fill="midnightblue" stroke="midnightblue" points="952.569,-291.262 961.912,-286.265 951.492,-284.346 952.569,-291.262"/>
</g>
<!-- Node18&#45;&gt;Node17 -->
<g id="edge21" class="edge"><title>Node18&#45;&gt;Node17</title>
<path fill="none" stroke="midnightblue" d="M867.12,-323.086C873.946,-325.686 880.532,-328.883 886.466,-332.812 908.997,-347.732 900.531,-366.029 922.466,-381.812 924.828,-383.512 927.298,-385.112 929.849,-386.617"/>
<polygon fill="midnightblue" stroke="midnightblue" points="928.32,-389.768 938.791,-391.38 931.611,-383.59 928.32,-389.768"/>
</g>
<!-- Node20 -->
<g id="node20" class="node"><title>Node20</title>
<g id="a_node20"><a xlink:href="classMatchesBuilder.html#af44853a4e7540f4f54a802a5d0c45faf" target="_top" xlink:title="MatchesBuilder::matchMarkerSet">
<polygon fill="white" stroke="black" points="707.188,-233.612 707.188,-256.012 886.466,-256.012 886.466,-233.612 707.188,-233.612"/>
<text text-anchor="middle" x="796.827" y="-241.212" font-family="-adobe-utopia-medium-i-normal--0-0-0-0-p-0-iso10646-1" font-size="12.00">MatchesBuilder::matchMarkerSet</text>
</a>
</g>
</g>
<!-- Node19&#45;&gt;Node20 -->
<g id="edge23" class="edge"><title>Node19&#45;&gt;Node20</title>
<path fill="none" stroke="midnightblue" d="M655.786,-248.789C668.993,-248.414 683.004,-248.016 696.863,-247.623"/>
<polygon fill="midnightblue" stroke="midnightblue" points="697.016,-251.12 706.912,-247.337 696.817,-244.123 697.016,-251.12"/>
</g>
<!-- Node20&#45;&gt;Node14 -->
<g id="edge24" class="edge"><title>Node20&#45;&gt;Node14</title>
<path fill="none" stroke="midnightblue" d="M827.469,-256.023C845.777,-263.907 869.02,-275.734 886.466,-290.812 907.183,-308.718 899.651,-325.669 922.466,-340.812 930.448,-346.11 939.644,-350.016 949.009,-352.894"/>
<polygon fill="midnightblue" stroke="midnightblue" points="948.217,-356.306 958.784,-355.536 950.043,-349.548 948.217,-356.306"/>
</g>
<!-- Node20&#45;&gt;Node15 -->
<g id="edge25" class="edge"><title>Node20&#45;&gt;Node15</title>
<path fill="none" stroke="midnightblue" d="M819.837,-256.062C844.355,-268.227 885.426,-287.522 922.466,-299.812 931.246,-302.726 940.66,-305.365 949.94,-307.7"/>
<polygon fill="midnightblue" stroke="midnightblue" points="949.377,-311.165 959.92,-310.113 951.023,-304.361 949.377,-311.165"/>
</g>
<!-- Node20&#45;&gt;Node16 -->
<g id="edge37" class="edge"><title>Node20&#45;&gt;Node16</title>
<path fill="none" stroke="midnightblue" d="M867.817,-256.039C895.068,-260.411 925.922,-265.36 951.889,-269.525"/>
<polygon fill="midnightblue" stroke="midnightblue" points="951.523,-273.012 961.951,-271.14 952.632,-266.1 951.523,-273.012"/>
</g>
<!-- Node21 -->
<g id="node21" class="node"><title>Node21</title>
<g id="a_node21"><a xlink:href="classMatchFactory.html#aa1f3b5e8f0e2fbd5ac2dcbc24a9e6812" target="_top" xlink:title="MatchFactory::hash">
<polygon fill="white" stroke="black" points="954.796,-168.612 954.796,-191.012 1066.77,-191.012 1066.77,-168.612 954.796,-168.612"/>
<text text-anchor="middle" x="1010.78" y="-176.212" font-family="-adobe-utopia-medium-i-normal--0-0-0-0-p-0-iso10646-1" font-size="12.00">MatchFactory::hash</text>
</a>
</g>
</g>
<!-- Node20&#45;&gt;Node21 -->
<g id="edge26" class="edge"><title>Node20&#45;&gt;Node21</title>
<path fill="none" stroke="midnightblue" d="M834.747,-233.49C870.35,-222.572 924.37,-206.006 962.975,-194.167"/>
<polygon fill="midnightblue" stroke="midnightblue" points="964.397,-197.392 972.931,-191.114 962.344,-190.699 964.397,-197.392"/>
</g>
<!-- Node29 -->
<g id="node29" class="node"><title>Node29</title>
<g id="a_node29"><a xlink:href="classMatchFactory.html#a247e2d6028e27d243b97b2df0f035f1f" target="_top" xlink:title="MatchFactory::assertShares">
<polygon fill="white" stroke="black" points="936.142,-127.612 936.142,-150.012 1085.42,-150.012 1085.42,-127.612 936.142,-127.612"/>
<text text-anchor="middle" x="1010.78" y="-135.212" font-family="-adobe-utopia-medium-i-normal--0-0-0-0-p-0-iso10646-1" font-size="12.00">MatchFactory::assertShares</text>
</a>
</g>
</g>
<!-- Node20&#45;&gt;Node29 -->
<g id="edge38" class="edge"><title>Node20&#45;&gt;Node29</title>
<path fill="none" stroke="midnightblue" d="M810.649,-233.457C832.194,-214.983 877.709,-178.509 922.466,-158.812 927.237,-156.713 932.255,-154.82 937.374,-153.116"/>
<polygon fill="midnightblue" stroke="midnightblue" points="938.772,-156.349 947.304,-150.068 936.717,-149.657 938.772,-156.349"/>
</g>
<!-- Node30 -->
<g id="node30" class="node"><title>Node30</title>
<g id="a_node30"><a xlink:href="classIndividual.html#a37fd25dcc27a8613ca4e5a8d9bcbaca6" target="_top" xlink:title="Individual::assertShares">
<polygon fill="white" stroke="black" points="1334.4,-229.612 1334.4,-252.012 1465.7,-252.012 1465.7,-229.612 1334.4,-229.612"/>
<text text-anchor="middle" x="1400.05" y="-237.212" font-family="-adobe-utopia-medium-i-normal--0-0-0-0-p-0-iso10646-1" font-size="12.00">Individual::assertShares</text>
</a>
</g>
</g>
<!-- Node20&#45;&gt;Node30 -->
<g id="edge39" class="edge"><title>Node20&#45;&gt;Node30</title>
<path fill="none" stroke="midnightblue" d="M886.54,-244.222C1005.01,-243.434 1212.8,-242.051 1323.93,-241.312"/>
<polygon fill="midnightblue" stroke="midnightblue" points="1324.07,-244.811 1334.05,-241.245 1324.03,-237.811 1324.07,-244.811"/>
</g>
<!-- Node31 -->
<g id="node31" class="node"><title>Node31</title>
<g id="a_node31"><a xlink:href="classMatchFactory.html#af71633ad61d5812b60e3d64c37cd64d4" target="_top" xlink:title="MatchFactory::initialize">
<polygon fill="white" stroke="black" points="944.799,-86.6123 944.799,-109.012 1076.77,-109.012 1076.77,-86.6123 944.799,-86.6123"/>
<text text-anchor="middle" x="1010.78" y="-94.2123" font-family="-adobe-utopia-medium-i-normal--0-0-0-0-p-0-iso10646-1" font-size="12.00">MatchFactory::initialize</text>
</a>
</g>
</g>
<!-- Node20&#45;&gt;Node31 -->
<g id="edge41" class="edge"><title>Node20&#45;&gt;Node31</title>
<path fill="none" stroke="midnightblue" d="M805.369,-233.569C822.801,-208.522 868.542,-147.973 922.466,-117.812 926.468,-115.574 930.706,-113.586 935.073,-111.82"/>
<polygon fill="midnightblue" stroke="midnightblue" points="936.587,-114.995 944.798,-108.299 934.204,-108.413 936.587,-114.995"/>
</g>
<!-- Node22 -->
<g id="node22" class="node"><title>Node22</title>
<g id="a_node22"><a xlink:href="classIndividual.html#a7c494813e7d0f7f4f235cd75185fd2be" target="_top" xlink:title="Individual::numHet">
<polygon fill="white" stroke="black" points="1161.42,-108.612 1161.42,-131.012 1272.08,-131.012 1272.08,-108.612 1161.42,-108.612"/>
<text text-anchor="middle" x="1216.75" y="-116.212" font-family="-adobe-utopia-medium-i-normal--0-0-0-0-p-0-iso10646-1" font-size="12.00">Individual::numHet</text>
</a>
</g>
</g>
<!-- Node21&#45;&gt;Node22 -->
<g id="edge27" class="edge"><title>Node21&#45;&gt;Node22</title>
<path fill="none" stroke="midnightblue" d="M1066.99,-169.653C1077.8,-166.971 1088.93,-163.71 1099.1,-159.812 1116.19,-153.26 1118.07,-146.518 1135.1,-139.812 1140.52,-137.679 1146.23,-135.722 1152.01,-133.937"/>
<polygon fill="midnightblue" stroke="midnightblue" points="1153.14,-137.253 1161.77,-131.097 1151.19,-130.532 1153.14,-137.253"/>
</g>
<!-- Node23 -->
<g id="node23" class="node"><title>Node23</title>
<g id="a_node23"><a xlink:href="classIndividual.html#a6e75847d9fdd923bd0cf7a9ec5e2b1a4" target="_top" xlink:title="Individual::assertHomozygous">
<polygon fill="white" stroke="black" points="1135.1,-149.612 1135.1,-172.012 1298.4,-172.012 1298.4,-149.612 1135.1,-149.612"/>
<text text-anchor="middle" x="1216.75" y="-157.212" font-family="-adobe-utopia-medium-i-normal--0-0-0-0-p-0-iso10646-1" font-size="12.00">Individual::assertHomozygous</text>
</a>
</g>
</g>
<!-- Node21&#45;&gt;Node23 -->
<g id="edge28" class="edge"><title>Node21&#45;&gt;Node23</title>
<path fill="none" stroke="midnightblue" d="M1066.98,-174.671C1084.76,-173.014 1104.97,-171.132 1124.63,-169.3"/>
<polygon fill="midnightblue" stroke="midnightblue" points="1125.21,-172.761 1134.85,-168.349 1124.56,-165.791 1125.21,-172.761"/>
</g>
<!-- Node26 -->
<g id="node26" class="node"><title>Node26</title>
<g id="a_node26"><a xlink:href="classIndividual.html#adab24d093d691c3e84bdce0b2d2f3a81" target="_top" xlink:title="Individual::getChromosome">
<polygon fill="white" stroke="black" points="1653,-169.612 1653,-192.012 1804.32,-192.012 1804.32,-169.612 1653,-169.612"/>
<text text-anchor="middle" x="1728.66" y="-177.212" font-family="-adobe-utopia-medium-i-normal--0-0-0-0-p-0-iso10646-1" font-size="12.00">Individual::getChromosome</text>
</a>
</g>
</g>
<!-- Node21&#45;&gt;Node26 -->
<g id="edge34" class="edge"><title>Node21&#45;&gt;Node26</title>
<path fill="none" stroke="midnightblue" d="M1067.03,-180.899C1088.3,-181.268 1112.83,-181.632 1135.1,-181.812 1348.98,-183.547 1402.46,-182.773 1616.34,-181.812 1624.91,-181.774 1633.84,-181.719 1642.76,-181.654"/>
<polygon fill="midnightblue" stroke="midnightblue" points="1642.84,-185.153 1652.81,-181.577 1642.78,-178.154 1642.84,-185.153"/>
</g>
<!-- Node27 -->
<g id="node27" class="node"><title>Node27</title>
<g id="a_node27"><a xlink:href="classChromosome.html#a6acf26d0b4a7e2651be613ea14c20a1b" target="_top" xlink:title="Chromosome::getMarkerSet">
<polygon fill="white" stroke="black" points="1652.34,-114.612 1652.34,-137.012 1804.97,-137.012 1804.97,-114.612 1652.34,-114.612"/>
<text text-anchor="middle" x="1728.66" y="-122.212" font-family="-adobe-utopia-medium-i-normal--0-0-0-0-p-0-iso10646-1" font-size="12.00">Chromosome::getMarkerSet</text>
</a>
</g>
</g>
<!-- Node21&#45;&gt;Node27 -->
<g id="edge35" class="edge"><title>Node21&#45;&gt;Node27</title>
<path fill="none" stroke="midnightblue" d="M1066.89,-174.281C1078.29,-171.265 1089.68,-166.697 1099.1,-159.812 1124.51,-141.23 1107.76,-114.422 1135.1,-98.8123 1221.58,-49.4309 1515.62,-90.0769 1654.22,-112.904"/>
<polygon fill="midnightblue" stroke="midnightblue" points="1653.89,-116.397 1664.33,-114.583 1655.04,-109.492 1653.89,-116.397"/>
</g>
<!-- Node28 -->
<g id="node28" class="node"><title>Node28</title>
<g id="a_node28"><a xlink:href="classMarkerSet.html#a4875bf7f161c77ff90c15936fee29ff0" target="_top" xlink:title="MarkerSet::getMarkerBits">
<polygon fill="white" stroke="black" points="1657.35,-45.6123 1657.35,-68.0123 1799.97,-68.0123 1799.97,-45.6123 1657.35,-45.6123"/>
<text text-anchor="middle" x="1728.66" y="-53.2123" font-family="-adobe-utopia-medium-i-normal--0-0-0-0-p-0-iso10646-1" font-size="12.00">MarkerSet::getMarkerBits</text>
</a>
</g>
</g>
<!-- Node21&#45;&gt;Node28 -->
<g id="edge36" class="edge"><title>Node21&#45;&gt;Node28</title>
<path fill="none" stroke="midnightblue" d="M1066.79,-175.544C1078.45,-172.484 1089.99,-167.58 1099.1,-159.812 1131.57,-132.136 1100,-95.0815 1135.1,-70.8123 1306.26,47.5497 1576.77,-12.3516 1682.86,-42.7388"/>
<polygon fill="midnightblue" stroke="midnightblue" points="1682.03,-46.141 1692.61,-45.5804 1683.99,-39.4208 1682.03,-46.141"/>
</g>
<!-- Node24 -->
<g id="node24" class="node"><title>Node24</title>
<g id="a_node24"><a xlink:href="classMatch.html#afb81327901b29b02ff117406cdec0a4e" target="_top" xlink:title="Match::extendBack">
<polygon fill="white" stroke="black" points="1345.07,-149.612 1345.07,-172.012 1455.04,-172.012 1455.04,-149.612 1345.07,-149.612"/>
<text text-anchor="middle" x="1400.05" y="-157.212" font-family="-adobe-utopia-medium-i-normal--0-0-0-0-p-0-iso10646-1" font-size="12.00">Match::extendBack</text>
</a>
</g>
</g>
<!-- Node23&#45;&gt;Node24 -->
<g id="edge29" class="edge"><title>Node23&#45;&gt;Node24</title>
<path fill="none" stroke="midnightblue" d="M1298.59,-160.812C1310.72,-160.812 1323.08,-160.812 1334.79,-160.812"/>
<polygon fill="midnightblue" stroke="midnightblue" points="1334.9,-164.312 1344.9,-160.812 1334.9,-157.312 1334.9,-164.312"/>
</g>
<!-- Node25 -->
<g id="node25" class="node"><title>Node25</title>
<g id="a_node25"><a xlink:href="classMatch.html#a7c47a9c7017d308d2ae58fac5a204179" target="_top" xlink:title="Match::approxEqual">
<polygon fill="white" stroke="black" points="1501.7,-149.612 1501.7,-172.012 1616.34,-172.012 1616.34,-149.612 1501.7,-149.612"/>
<text text-anchor="middle" x="1559.02" y="-157.212" font-family="-adobe-utopia-medium-i-normal--0-0-0-0-p-0-iso10646-1" font-size="12.00">Match::approxEqual</text>
</a>
</g>
</g>
<!-- Node24&#45;&gt;Node25 -->
<g id="edge30" class="edge"><title>Node24&#45;&gt;Node25</title>
<path fill="none" stroke="midnightblue" d="M1455.07,-160.812C1466.78,-160.812 1479.3,-160.812 1491.42,-160.812"/>
<polygon fill="midnightblue" stroke="midnightblue" points="1491.5,-164.312 1501.5,-160.812 1491.5,-157.312 1491.5,-164.312"/>
</g>
<!-- Node25&#45;&gt;Node26 -->
<g id="edge31" class="edge"><title>Node25&#45;&gt;Node26</title>
<path fill="none" stroke="midnightblue" d="M1616.77,-167.583C1625.19,-168.588 1634.02,-169.641 1642.86,-170.696"/>
<polygon fill="midnightblue" stroke="midnightblue" points="1642.49,-174.176 1652.83,-171.885 1643.32,-167.225 1642.49,-174.176"/>
</g>
<!-- Node25&#45;&gt;Node27 -->
<g id="edge32" class="edge"><title>Node25&#45;&gt;Node27</title>
<path fill="none" stroke="midnightblue" d="M1613.98,-149.545C1629.84,-146.236 1647.33,-142.584 1663.74,-139.157"/>
<polygon fill="midnightblue" stroke="midnightblue" points="1664.72,-142.528 1673.79,-137.058 1663.29,-135.676 1664.72,-142.528"/>
</g>
<!-- Node25&#45;&gt;Node28 -->
<g id="edge33" class="edge"><title>Node25&#45;&gt;Node28</title>
<path fill="none" stroke="midnightblue" d="M1578.28,-149.484C1607.88,-131.12 1666.48,-94.763 1700.83,-73.4545"/>
<polygon fill="midnightblue" stroke="midnightblue" points="1702.77,-76.3721 1709.42,-68.1261 1699.08,-70.4238 1702.77,-76.3721"/>
</g>
<!-- Node30&#45;&gt;Node25 -->
<g id="edge40" class="edge"><title>Node30&#45;&gt;Node25</title>
<path fill="none" stroke="midnightblue" d="M1423.21,-229.52C1450.32,-215.702 1496.39,-192.225 1527.01,-176.619"/>
<polygon fill="midnightblue" stroke="midnightblue" points="1528.66,-179.706 1535.98,-172.047 1525.48,-173.47 1528.66,-179.706"/>
</g>
</g>
</svg>
