<?xml version="1.0" encoding="UTF-8" standalone="no"?>
<!DOCTYPE svg PUBLIC "-//W3C//DTD SVG 1.1//EN"
 "http://www.w3.org/Graphics/SVG/1.1/DTD/svg11.dtd">
<!-- Generated by graphviz version 2.38.0 (20140413.2041)
 -->
<!-- Title: Individual.h Pages: 1 -->
<svg width="984pt" height="328pt"
 viewBox="0.00 0.00 983.96 328.40" xmlns="http://www.w3.org/2000/svg" xmlns:xlink="http://www.w3.org/1999/xlink">
<g id="graph0" class="graph" transform="scale(1 1) rotate(0) translate(4 324.4)">
<title>Individual.h</title>
<polygon fill="white" stroke="none" points="-4,4 -4,-324.4 979.964,-324.4 979.964,4 -4,4"/>
<!-- Node1 -->
<g id="node1" class="node"><title>Node1</title>
<polygon fill="#bfbfbf" stroke="black" points="363.655,-297.5 363.655,-319.9 437.981,-319.9 437.981,-297.5 363.655,-297.5"/>
<text text-anchor="middle" x="400.818" y="-305.1" font-family="-adobe-utopia-medium-i-normal--0-0-0-0-p-0-iso10646-1" font-size="12.00">Individual.h</text>
</g>
<!-- Node2 -->
<g id="node2" class="node"><title>Node2</title>
<g id="a_node2"><a xlink:href="Individuals_8h.html" target="_top" xlink:title="Individuals.h">
<polygon fill="white" stroke="black" points="276.322,-238.1 276.322,-260.5 355.314,-260.5 355.314,-238.1 276.322,-238.1"/>
<text text-anchor="middle" x="315.818" y="-245.7" font-family="-adobe-utopia-medium-i-normal--0-0-0-0-p-0-iso10646-1" font-size="12.00">Individuals.h</text>
</a>
</g>
</g>
<!-- Node1&#45;&gt;Node2 -->
<g id="edge1" class="edge"><title>Node1&#45;&gt;Node2</title>
<path fill="none" stroke="midnightblue" d="M371.416,-291.962C355.698,-282.069 337.439,-269.575 326.088,-260.861"/>
<polygon fill="midnightblue" stroke="midnightblue" points="369.956,-295.173 380.306,-297.438 373.627,-289.213 369.956,-295.173"/>
</g>
<!-- Node17 -->
<g id="node17" class="node"><title>Node17</title>
<g id="a_node17"><a xlink:href="Match_8h.html" target="_top" xlink:title="Match.h">
<polygon fill="white" stroke="black" points="372.99,-238.1 372.99,-260.5 428.646,-260.5 428.646,-238.1 372.99,-238.1"/>
<text text-anchor="middle" x="400.818" y="-245.7" font-family="-adobe-utopia-medium-i-normal--0-0-0-0-p-0-iso10646-1" font-size="12.00">Match.h</text>
</a>
</g>
</g>
<!-- Node1&#45;&gt;Node17 -->
<g id="edge23" class="edge"><title>Node1&#45;&gt;Node17</title>
<path fill="none" stroke="midnightblue" d="M394.33,-287.371C393.754,-278.417 394.127,-268.272 395.448,-260.861"/>
<polygon fill="midnightblue" stroke="midnightblue" points="390.869,-287.91 395.502,-297.438 397.822,-287.1 390.869,-287.91"/>
</g>
<!-- Node19 -->
<g id="node19" class="node"><title>Node19</title>
<g id="a_node19"><a xlink:href="MatchFactory_8h.html" target="_top" xlink:title="MatchFactory.h">
<polygon fill="white" stroke="black" points="85.6634,-238.1 85.6634,-260.5 177.973,-260.5 177.973,-238.1 85.6634,-238.1"/>
<text text-anchor="middle" x="131.818" y="-245.7" font-family="-adobe-utopia-medium-i-normal--0-0-0-0-p-0-iso10646-1" font-size="12.00">MatchFactory.h</text>
</a>
</g>
</g>
<!-- Node1&#45;&gt;Node19 -->
<g id="edge26" class="edge"><title>Node1&#45;&gt;Node19</title>
<path fill="none" stroke="midnightblue" d="M353.635,-297.632C304.328,-287.111 227.449,-270.706 178.377,-260.235"/>
<polygon fill="midnightblue" stroke="midnightblue" points="352.904,-301.055 363.415,-299.719 354.365,-294.209 352.904,-301.055"/>
</g>
<!-- Node21 -->
<g id="node21" class="node"><title>Node21</title>
<g id="a_node21"><a xlink:href="Share_8cpp.html" target="_top" xlink:title="Share.cpp">
<polygon fill="white" stroke="black" points="446.995,-238.1 446.995,-260.5 510.641,-260.5 510.641,-238.1 446.995,-238.1"/>
<text text-anchor="middle" x="478.818" y="-245.7" font-family="-adobe-utopia-medium-i-normal--0-0-0-0-p-0-iso10646-1" font-size="12.00">Share.cpp</text>
</a>
</g>
</g>
<!-- Node1&#45;&gt;Node21 -->
<g id="edge29" class="edge"><title>Node1&#45;&gt;Node21</title>
<path fill="none" stroke="midnightblue" d="M423.016,-291.364C436.427,-281.495 453.115,-269.215 464.731,-260.667"/>
<polygon fill="midnightblue" stroke="midnightblue" points="420.743,-288.692 414.763,-297.438 424.892,-294.33 420.743,-288.692"/>
</g>
<!-- Node22 -->
<g id="node22" class="node"><title>Node22</title>
<g id="a_node22"><a xlink:href="Individual_8cpp.html" target="_top" xlink:title="Individual.cpp">
<polygon fill="white" stroke="black" points="528.992,-238.1 528.992,-260.5 614.644,-260.5 614.644,-238.1 528.992,-238.1"/>
<text text-anchor="middle" x="571.818" y="-245.7" font-family="-adobe-utopia-medium-i-normal--0-0-0-0-p-0-iso10646-1" font-size="12.00">Individual.cpp</text>
</a>
</g>
</g>
<!-- Node1&#45;&gt;Node22 -->
<g id="edge30" class="edge"><title>Node1&#45;&gt;Node22</title>
<path fill="none" stroke="midnightblue" d="M440.928,-294.236C471.589,-283.944 513.217,-269.971 541.224,-260.57"/>
<polygon fill="midnightblue" stroke="midnightblue" points="439.756,-290.938 431.389,-297.438 441.983,-297.574 439.756,-290.938"/>
</g>
<!-- Node2&#45;&gt;Node1 -->
<g id="edge18" class="edge"><title>Node2&#45;&gt;Node1</title>
<path fill="none" stroke="midnightblue" d="M345.025,-265.915C360.968,-275.941 379.572,-288.677 390.938,-297.438"/>
<polygon fill="midnightblue" stroke="midnightblue" points="346.854,-262.931 336.504,-260.667 343.183,-268.891 346.854,-262.931"/>
</g>
<!-- Node3 -->
<g id="node3" class="node"><title>Node3</title>
<g id="a_node3"><a xlink:href="PolymorphicIndividualsExtractor_8h.html" target="_top" xlink:title="PolymorphicIndividualsExtractor.h">
<polygon fill="white" stroke="black" points="382.001,-178.7 382.001,-201.1 567.635,-201.1 567.635,-178.7 382.001,-178.7"/>
<text text-anchor="middle" x="474.818" y="-186.3" font-family="-adobe-utopia-medium-i-normal--0-0-0-0-p-0-iso10646-1" font-size="12.00">PolymorphicIndividualsExtractor.h</text>
</a>
</g>
</g>
<!-- Node2&#45;&gt;Node3 -->
<g id="edge2" class="edge"><title>Node2&#45;&gt;Node3</title>
<path fill="none" stroke="midnightblue" d="M353.856,-234.568C382.292,-224.303 420.555,-210.489 446.37,-201.17"/>
<polygon fill="midnightblue" stroke="midnightblue" points="352.461,-231.35 344.244,-238.038 354.838,-237.934 352.461,-231.35"/>
</g>
<!-- Node4 -->
<g id="node4" class="node"><title>Node4</title>
<g id="a_node4"><a xlink:href="InputManager_8h.html" target="_top" xlink:title="InputManager.h">
<polygon fill="white" stroke="black" points="336.332,-119.3 336.332,-141.7 429.304,-141.7 429.304,-119.3 336.332,-119.3"/>
<text text-anchor="middle" x="382.818" y="-126.9" font-family="-adobe-utopia-medium-i-normal--0-0-0-0-p-0-iso10646-1" font-size="12.00">InputManager.h</text>
</a>
</g>
</g>
<!-- Node2&#45;&gt;Node4 -->
<g id="edge19" class="edge"><title>Node2&#45;&gt;Node4</title>
<path fill="none" stroke="midnightblue" d="M326.865,-229.043C341.15,-204.14 365.528,-161.641 376.789,-142.01"/>
<polygon fill="midnightblue" stroke="midnightblue" points="323.704,-227.519 321.764,-237.935 329.776,-231.002 323.704,-227.519"/>
</g>
<!-- Node5 -->
<g id="node5" class="node"><title>Node5</title>
<g id="a_node5"><a xlink:href="GERMLINE_8h.html" target="_top" xlink:title="GERMLINE.h">
<polygon fill="white" stroke="black" points="265.327,-59.9 265.327,-82.3 352.309,-82.3 352.309,-59.9 265.327,-59.9"/>
<text text-anchor="middle" x="308.818" y="-67.5" font-family="-adobe-utopia-medium-i-normal--0-0-0-0-p-0-iso10646-1" font-size="12.00">GERMLINE.h</text>
</a>
</g>
</g>
<!-- Node2&#45;&gt;Node5 -->
<g id="edge20" class="edge"><title>Node2&#45;&gt;Node5</title>
<path fill="none" stroke="midnightblue" d="M315.002,-227.768C313.5,-189.961 310.348,-110.62 309.226,-82.3631"/>
<polygon fill="midnightblue" stroke="midnightblue" points="311.517,-228.212 315.411,-238.065 318.512,-227.934 311.517,-228.212"/>
</g>
<!-- Node9 -->
<g id="node9" class="node"><title>Node9</title>
<g id="a_node9"><a xlink:href="MatchesBuilder_8h.html" target="_top" xlink:title="MatchesBuilder.h">
<polygon fill="white" stroke="black" points="125.997,-119.3 125.997,-141.7 227.639,-141.7 227.639,-119.3 125.997,-119.3"/>
<text text-anchor="middle" x="176.818" y="-126.9" font-family="-adobe-utopia-medium-i-normal--0-0-0-0-p-0-iso10646-1" font-size="12.00">MatchesBuilder.h</text>
</a>
</g>
</g>
<!-- Node2&#45;&gt;Node9 -->
<g id="edge21" class="edge"><title>Node2&#45;&gt;Node9</title>
<path fill="none" stroke="midnightblue" d="M266.265,-242.181C239.426,-236.251 207.937,-224.578 188.818,-201.6 174.603,-184.516 174.445,-156.8 175.604,-141.849"/>
<polygon fill="midnightblue" stroke="midnightblue" points="265.796,-245.656 276.288,-244.184 267.168,-238.792 265.796,-245.656"/>
</g>
<!-- Node16 -->
<g id="node16" class="node"><title>Node16</title>
<g id="a_node16"><a xlink:href="Individuals_8cpp.html" target="_top" xlink:title="Individuals.cpp">
<polygon fill="white" stroke="black" points="197.658,-178.7 197.658,-201.1 287.978,-201.1 287.978,-178.7 197.658,-178.7"/>
<text text-anchor="middle" x="242.818" y="-186.3" font-family="-adobe-utopia-medium-i-normal--0-0-0-0-p-0-iso10646-1" font-size="12.00">Individuals.cpp</text>
</a>
</g>
</g>
<!-- Node2&#45;&gt;Node16 -->
<g id="edge22" class="edge"><title>Node2&#45;&gt;Node16</title>
<path fill="none" stroke="midnightblue" d="M294.737,-231.724C282.334,-221.972 267.021,-209.931 256.25,-201.461"/>
<polygon fill="midnightblue" stroke="midnightblue" points="292.743,-234.608 302.767,-238.038 297.069,-229.106 292.743,-234.608"/>
</g>
<!-- Node3&#45;&gt;Node4 -->
<g id="edge3" class="edge"><title>Node3&#45;&gt;Node4</title>
<path fill="none" stroke="midnightblue" d="M449.535,-173.126C433.57,-163.165 413.396,-150.578 399.434,-141.867"/>
<polygon fill="midnightblue" stroke="midnightblue" points="448.033,-176.314 458.37,-178.638 451.739,-170.375 448.033,-176.314"/>
</g>
<!-- Node3&#45;&gt;Node9 -->
<g id="edge8" class="edge"><title>Node3&#45;&gt;Node9</title>
<path fill="none" stroke="midnightblue" d="M411.592,-176.722C356.777,-166.163 278.476,-151.081 227.644,-141.29"/>
<polygon fill="midnightblue" stroke="midnightblue" points="411.06,-180.183 421.542,-178.638 412.384,-173.31 411.06,-180.183"/>
</g>
<!-- Node11 -->
<g id="node11" class="node"><title>Node11</title>
<g id="a_node11"><a xlink:href="HMIndividualsExtractor_8h.html" target="_top" xlink:title="HMIndividualsExtractor.h">
<polygon fill="white" stroke="black" points="827.335,-119.3 827.335,-141.7 970.301,-141.7 970.301,-119.3 827.335,-119.3"/>
<text text-anchor="middle" x="898.818" y="-126.9" font-family="-adobe-utopia-medium-i-normal--0-0-0-0-p-0-iso10646-1" font-size="12.00">HMIndividualsExtractor.h</text>
</a>
</g>
</g>
<!-- Node3&#45;&gt;Node11 -->
<g id="edge11" class="edge"><title>Node3&#45;&gt;Node11</title>
<path fill="none" stroke="midnightblue" d="M560.954,-177.239C639.341,-166.627 753.714,-151.144 827.203,-141.195"/>
<polygon fill="midnightblue" stroke="midnightblue" points="560.061,-173.828 550.621,-178.638 561,-180.765 560.061,-173.828"/>
</g>
<!-- Node13 -->
<g id="node13" class="node"><title>Node13</title>
<g id="a_node13"><a xlink:href="PEDIndividualsExtractor_8h.html" target="_top" xlink:title="PEDIndividualsExtractor.h">
<polygon fill="white" stroke="black" points="662.668,-119.3 662.668,-141.7 808.968,-141.7 808.968,-119.3 662.668,-119.3"/>
<text text-anchor="middle" x="735.818" y="-126.9" font-family="-adobe-utopia-medium-i-normal--0-0-0-0-p-0-iso10646-1" font-size="12.00">PEDIndividualsExtractor.h</text>
</a>
</g>
</g>
<!-- Node3&#45;&gt;Node13 -->
<g id="edge14" class="edge"><title>Node3&#45;&gt;Node13</title>
<path fill="none" stroke="midnightblue" d="M531.534,-176.427C578.689,-166.056 644.986,-151.476 689.121,-141.77"/>
<polygon fill="midnightblue" stroke="midnightblue" points="530.494,-173.072 521.48,-178.638 531.998,-179.908 530.494,-173.072"/>
</g>
<!-- Node15 -->
<g id="node15" class="node"><title>Node15</title>
<g id="a_node15"><a xlink:href="PolymorphicIndividualsExtractor_8cpp.html" target="_top" xlink:title="PolymorphicIndividualsExtractor.cpp">
<polygon fill="white" stroke="black" points="447.338,-119.3 447.338,-141.7 644.298,-141.7 644.298,-119.3 447.338,-119.3"/>
<text text-anchor="middle" x="545.818" y="-126.9" font-family="-adobe-utopia-medium-i-normal--0-0-0-0-p-0-iso10646-1" font-size="12.00">PolymorphicIndividualsExtractor.cpp</text>
</a>
</g>
</g>
<!-- Node3&#45;&gt;Node15 -->
<g id="edge17" class="edge"><title>Node3&#45;&gt;Node15</title>
<path fill="none" stroke="midnightblue" d="M495.321,-172.324C507.384,-162.572 522.278,-150.531 532.754,-142.061"/>
<polygon fill="midnightblue" stroke="midnightblue" points="493.087,-169.629 487.511,-178.638 497.488,-175.073 493.087,-169.629"/>
</g>
<!-- Node4&#45;&gt;Node5 -->
<g id="edge4" class="edge"><title>Node4&#45;&gt;Node5</title>
<path fill="none" stroke="midnightblue" d="M361.448,-112.924C348.876,-103.172 333.353,-91.131 322.434,-82.6615"/>
<polygon fill="midnightblue" stroke="midnightblue" points="359.542,-115.874 369.588,-119.238 363.832,-110.343 359.542,-115.874"/>
</g>
<!-- Node8 -->
<g id="node8" class="node"><title>Node8</title>
<g id="a_node8"><a xlink:href="InputManager_8cpp.html" target="_top" xlink:title="InputManager.cpp">
<polygon fill="white" stroke="black" points="691.669,-59.9 691.669,-82.3 795.967,-82.3 795.967,-59.9 691.669,-59.9"/>
<text text-anchor="middle" x="743.818" y="-67.5" font-family="-adobe-utopia-medium-i-normal--0-0-0-0-p-0-iso10646-1" font-size="12.00">InputManager.cpp</text>
</a>
</g>
</g>
<!-- Node4&#45;&gt;Node8 -->
<g id="edge7" class="edge"><title>Node4&#45;&gt;Node8</title>
<path fill="none" stroke="midnightblue" d="M439.63,-118.719C548.592,-100.481 577.771,-99.7593 682.818,-82.8 685.684,-82.3373 688.624,-81.8532 691.59,-81.3573"/>
<polygon fill="midnightblue" stroke="midnightblue" points="438.821,-115.306 429.542,-120.419 439.985,-122.209 438.821,-115.306"/>
</g>
<!-- Node6 -->
<g id="node6" class="node"><title>Node6</title>
<g id="a_node6"><a xlink:href="GERMLINE__0001_8cpp.html" target="_top" xlink:title="GERMLINE_0001.cpp">
<polygon fill="white" stroke="black" points="179.663,-0.5 179.663,-22.9 307.973,-22.9 307.973,-0.5 179.663,-0.5"/>
<text text-anchor="middle" x="243.818" y="-8.1" font-family="-adobe-utopia-medium-i-normal--0-0-0-0-p-0-iso10646-1" font-size="12.00">GERMLINE_0001.cpp</text>
</a>
</g>
</g>
<!-- Node5&#45;&gt;Node6 -->
<g id="edge5" class="edge"><title>Node5&#45;&gt;Node6</title>
<path fill="none" stroke="midnightblue" d="M289.407,-52.9589C278.481,-43.3099 265.184,-31.5682 255.778,-23.2615"/>
<polygon fill="midnightblue" stroke="midnightblue" points="287.385,-55.8422 297.197,-59.838 292.018,-50.5952 287.385,-55.8422"/>
</g>
<!-- Node7 -->
<g id="node7" class="node"><title>Node7</title>
<g id="a_node7"><a xlink:href="GERMLINE_8cpp.html" target="_top" xlink:title="GERMLINE.cpp">
<polygon fill="white" stroke="black" points="325.663,-0.5 325.663,-22.9 423.973,-22.9 423.973,-0.5 325.663,-0.5"/>
<text text-anchor="middle" x="374.818" y="-8.1" font-family="-adobe-utopia-medium-i-normal--0-0-0-0-p-0-iso10646-1" font-size="12.00">GERMLINE.cpp</text>
</a>
</g>
</g>
<!-- Node5&#45;&gt;Node7 -->
<g id="edge6" class="edge"><title>Node5&#45;&gt;Node7</title>
<path fill="none" stroke="midnightblue" d="M328.202,-53.2421C339.357,-43.5405 353.029,-31.6496 362.674,-23.2615"/>
<polygon fill="midnightblue" stroke="midnightblue" points="325.866,-50.6347 320.617,-59.838 330.46,-55.9166 325.866,-50.6347"/>
</g>
<!-- Node9&#45;&gt;Node5 -->
<g id="edge9" class="edge"><title>Node9&#45;&gt;Node5</title>
<path fill="none" stroke="midnightblue" d="M209.611,-115.24C233.001,-105.069 263.916,-91.6255 284.978,-82.4667"/>
<polygon fill="midnightblue" stroke="midnightblue" points="208.192,-112.041 200.417,-119.238 210.983,-118.46 208.192,-112.041"/>
</g>
<!-- Node10 -->
<g id="node10" class="node"><title>Node10</title>
<g id="a_node10"><a xlink:href="MatchesBuilder_8cpp.html" target="_top" xlink:title="MatchesBuilder.cpp">
<polygon fill="white" stroke="black" points="120.333,-59.9 120.333,-82.3 233.303,-82.3 233.303,-59.9 120.333,-59.9"/>
<text text-anchor="middle" x="176.818" y="-67.5" font-family="-adobe-utopia-medium-i-normal--0-0-0-0-p-0-iso10646-1" font-size="12.00">MatchesBuilder.cpp</text>
</a>
</g>
</g>
<!-- Node9&#45;&gt;Node10 -->
<g id="edge10" class="edge"><title>Node9&#45;&gt;Node10</title>
<path fill="none" stroke="midnightblue" d="M176.818,-109.171C176.818,-100.217 176.818,-90.0723 176.818,-82.6615"/>
<polygon fill="midnightblue" stroke="midnightblue" points="173.318,-109.238 176.818,-119.238 180.318,-109.238 173.318,-109.238"/>
</g>
<!-- Node11&#45;&gt;Node8 -->
<g id="edge13" class="edge"><title>Node11&#45;&gt;Node8</title>
<path fill="none" stroke="midnightblue" d="M861.373,-115.633C833.691,-105.382 796.606,-91.6487 771.55,-82.3697"/>
<polygon fill="midnightblue" stroke="midnightblue" points="860.514,-119.047 871.107,-119.238 862.945,-112.483 860.514,-119.047"/>
</g>
<!-- Node12 -->
<g id="node12" class="node"><title>Node12</title>
<g id="a_node12"><a xlink:href="HMIndividualsExtractor_8cpp.html" target="_top" xlink:title="HMIndividualsExtractor.cpp">
<polygon fill="white" stroke="black" points="821.672,-59.9 821.672,-82.3 975.964,-82.3 975.964,-59.9 821.672,-59.9"/>
<text text-anchor="middle" x="898.818" y="-67.5" font-family="-adobe-utopia-medium-i-normal--0-0-0-0-p-0-iso10646-1" font-size="12.00">HMIndividualsExtractor.cpp</text>
</a>
</g>
</g>
<!-- Node11&#45;&gt;Node12 -->
<g id="edge12" class="edge"><title>Node11&#45;&gt;Node12</title>
<path fill="none" stroke="midnightblue" d="M898.818,-109.171C898.818,-100.217 898.818,-90.0723 898.818,-82.6615"/>
<polygon fill="midnightblue" stroke="midnightblue" points="895.318,-109.238 898.818,-119.238 902.318,-109.238 895.318,-109.238"/>
</g>
<!-- Node13&#45;&gt;Node8 -->
<g id="edge15" class="edge"><title>Node13&#45;&gt;Node8</title>
<path fill="none" stroke="midnightblue" d="M738.651,-109.171C739.899,-100.217 741.313,-90.0723 742.346,-82.6615"/>
<polygon fill="midnightblue" stroke="midnightblue" points="735.162,-108.851 737.248,-119.238 742.095,-109.817 735.162,-108.851"/>
</g>
<!-- Node14 -->
<g id="node14" class="node"><title>Node14</title>
<g id="a_node14"><a xlink:href="PEDIndividualsExtractor_8cpp.html" target="_top" xlink:title="PEDIndividualsExtractor.cpp">
<polygon fill="white" stroke="black" points="516.004,-59.9 516.004,-82.3 673.632,-82.3 673.632,-59.9 516.004,-59.9"/>
<text text-anchor="middle" x="594.818" y="-67.5" font-family="-adobe-utopia-medium-i-normal--0-0-0-0-p-0-iso10646-1" font-size="12.00">PEDIndividualsExtractor.cpp</text>
</a>
</g>
</g>
<!-- Node13&#45;&gt;Node14 -->
<g id="edge16" class="edge"><title>Node13&#45;&gt;Node14</title>
<path fill="none" stroke="midnightblue" d="M701.122,-115.375C676.098,-105.188 642.881,-91.6662 620.283,-82.4667"/>
<polygon fill="midnightblue" stroke="midnightblue" points="700.028,-118.709 710.61,-119.238 702.668,-112.226 700.028,-118.709"/>
</g>
<!-- Node17&#45;&gt;Node1 -->
<g id="edge24" class="edge"><title>Node17&#45;&gt;Node1</title>
<path fill="none" stroke="midnightblue" d="M407.329,-270.993C407.879,-279.979 407.48,-290.102 406.134,-297.438"/>
<polygon fill="midnightblue" stroke="midnightblue" points="410.785,-270.407 406.188,-260.861 403.829,-271.19 410.785,-270.407"/>
</g>
<!-- Node18 -->
<g id="node18" class="node"><title>Node18</title>
<g id="a_node18"><a xlink:href="Match_8cpp.html" target="_top" xlink:title="Match.cpp">
<polygon fill="white" stroke="black" points="585.327,-178.7 585.327,-201.1 652.309,-201.1 652.309,-178.7 585.327,-178.7"/>
<text text-anchor="middle" x="618.818" y="-186.3" font-family="-adobe-utopia-medium-i-normal--0-0-0-0-p-0-iso10646-1" font-size="12.00">Match.cpp</text>
</a>
</g>
</g>
<!-- Node17&#45;&gt;Node18 -->
<g id="edge25" class="edge"><title>Node17&#45;&gt;Node18</title>
<path fill="none" stroke="midnightblue" d="M438.395,-237.525C470.058,-229.081 541.888,-210.628 584.962,-199.579"/>
<polygon fill="midnightblue" stroke="midnightblue" points="437.415,-234.164 428.674,-240.151 439.241,-240.922 437.415,-234.164"/>
</g>
<!-- Node19&#45;&gt;Node9 -->
<g id="edge27" class="edge"><title>Node19&#45;&gt;Node9</title>
<path fill="none" stroke="midnightblue" d="M138.192,-228.073C142.77,-213.972 149.265,-194.789 155.818,-178.2 160.848,-165.467 167.426,-151.154 171.869,-141.769"/>
<polygon fill="midnightblue" stroke="midnightblue" points="134.814,-227.147 135.096,-237.738 141.48,-229.283 134.814,-227.147"/>
</g>
<!-- Node20 -->
<g id="node20" class="node"><title>Node20</title>
<g id="a_node20"><a xlink:href="MatchFactory_8cpp.html" target="_top" xlink:title="MatchFactory.cpp">
<polygon fill="white" stroke="black" points="-1.42109e-14,-178.7 -1.42109e-14,-201.1 103.636,-201.1 103.636,-178.7 -1.42109e-14,-178.7"/>
<text text-anchor="middle" x="51.818" y="-186.3" font-family="-adobe-utopia-medium-i-normal--0-0-0-0-p-0-iso10646-1" font-size="12.00">MatchFactory.cpp</text>
</a>
</g>
</g>
<!-- Node19&#45;&gt;Node20 -->
<g id="edge28" class="edge"><title>Node19&#45;&gt;Node20</title>
<path fill="none" stroke="midnightblue" d="M109.051,-231.964C95.296,-222.095 78.1803,-209.815 66.2663,-201.267"/>
<polygon fill="midnightblue" stroke="midnightblue" points="107.35,-235.052 117.516,-238.038 111.431,-229.365 107.35,-235.052"/>
</g>
</g>
</svg>
