<?xml version="1.0" encoding="UTF-8" standalone="no"?>
<!DOCTYPE svg PUBLIC "-//W3C//DTD SVG 1.1//EN"
 "http://www.w3.org/Graphics/SVG/1.1/DTD/svg11.dtd">
<!-- Generated by graphviz version 2.38.0 (20140413.2041)
 -->
<!-- Title: Individual.cpp Pages: 1 -->
<svg width="1022pt" height="507pt"
 viewBox="0.00 0.00 1021.66 506.60" xmlns="http://www.w3.org/2000/svg" xmlns:xlink="http://www.w3.org/1999/xlink">
<g id="graph0" class="graph" transform="scale(1 1) rotate(0) translate(4 502.6)">
<title>Individual.cpp</title>
<polygon fill="white" stroke="none" points="-4,4 -4,-502.6 1017.66,-502.6 1017.66,4 -4,4"/>
<!-- Node1 -->
<g id="node1" class="node"><title>Node1</title>
<polygon fill="#bfbfbf" stroke="black" points="347.174,-475.7 347.174,-498.1 432.826,-498.1 432.826,-475.7 347.174,-475.7"/>
<text text-anchor="middle" x="390" y="-483.3" font-family="-adobe-utopia-medium-i-normal--0-0-0-0-p-0-iso10646-1" font-size="12.00">Individual.cpp</text>
</g>
<!-- Node2 -->
<g id="node2" class="node"><title>Node2</title>
<g id="a_node2"><a xlink:href="Individual_8h.html" target="_top" xlink:title="Individual.h">
<polygon fill="white" stroke="black" points="352.837,-416.3 352.837,-438.7 427.163,-438.7 427.163,-416.3 352.837,-416.3"/>
<text text-anchor="middle" x="390" y="-423.9" font-family="-adobe-utopia-medium-i-normal--0-0-0-0-p-0-iso10646-1" font-size="12.00">Individual.h</text>
</a>
</g>
</g>
<!-- Node1&#45;&gt;Node2 -->
<g id="edge1" class="edge"><title>Node1&#45;&gt;Node2</title>
<path fill="none" stroke="midnightblue" d="M390,-475.638C390,-468.302 390,-458.179 390,-449.193"/>
<polygon fill="midnightblue" stroke="midnightblue" points="393.5,-449.061 390,-439.061 386.5,-449.062 393.5,-449.061"/>
</g>
<!-- Node3 -->
<g id="node3" class="node"><title>Node3</title>
<g id="a_node3"><a xlink:href="BasicDefinitions_8h.html" target="_top" xlink:title="BasicDefinitions.h">
<polygon fill="white" stroke="black" points="713.176,-59.9 713.176,-82.3 818.824,-82.3 818.824,-59.9 713.176,-59.9"/>
<text text-anchor="middle" x="766" y="-67.5" font-family="-adobe-utopia-medium-i-normal--0-0-0-0-p-0-iso10646-1" font-size="12.00">BasicDefinitions.h</text>
</a>
</g>
</g>
<!-- Node2&#45;&gt;Node3 -->
<g id="edge2" class="edge"><title>Node2&#45;&gt;Node3</title>
<path fill="none" stroke="midnightblue" d="M427.549,-426.218C548.176,-424.313 918,-410.272 918,-309.7 918,-309.7 918,-309.7 918,-188.9 918,-134.796 856.701,-102.306 811.959,-85.7969"/>
<polygon fill="midnightblue" stroke="midnightblue" points="813.003,-82.4537 802.408,-82.4187 810.668,-89.053 813.003,-82.4537"/>
</g>
<!-- Node6 -->
<g id="node6" class="node"><title>Node6</title>
<polygon fill="white" stroke="#bfbfbf" points="868.34,-0.5 868.34,-22.9 925.66,-22.9 925.66,-0.5 868.34,-0.5"/>
<text text-anchor="middle" x="897" y="-8.1" font-family="-adobe-utopia-medium-i-normal--0-0-0-0-p-0-iso10646-1" font-size="12.00">iostream</text>
</g>
<!-- Node2&#45;&gt;Node6 -->
<g id="edge48" class="edge"><title>Node2&#45;&gt;Node6</title>
<path fill="none" stroke="midnightblue" d="M427.387,-425.853C526.762,-423.671 795.362,-414.624 876,-379.8 919.4,-361.057 956,-356.974 956,-309.7 956,-309.7 956,-309.7 956,-129.5 956,-91.1935 930.404,-52.6772 912.93,-30.8461"/>
<polygon fill="midnightblue" stroke="midnightblue" points="915.559,-28.5337 906.479,-23.0738 910.173,-33.0042 915.559,-28.5337"/>
</g>
<!-- Node8 -->
<g id="node8" class="node"><title>Node8</title>
<g id="a_node8"><a xlink:href="Chromosome_8h.html" target="_top" xlink:title="Chromosome.h">
<polygon fill="white" stroke="black" points="200.17,-297.5 200.17,-319.9 289.83,-319.9 289.83,-297.5 200.17,-297.5"/>
<text text-anchor="middle" x="245" y="-305.1" font-family="-adobe-utopia-medium-i-normal--0-0-0-0-p-0-iso10646-1" font-size="12.00">Chromosome.h</text>
</a>
</g>
</g>
<!-- Node2&#45;&gt;Node8 -->
<g id="edge7" class="edge"><title>Node2&#45;&gt;Node8</title>
<path fill="none" stroke="midnightblue" d="M352.751,-419.158C327.982,-412.574 296.222,-400.631 275,-379.8 261.316,-366.369 253.513,-345.695 249.317,-330.275"/>
<polygon fill="midnightblue" stroke="midnightblue" points="252.621,-329.049 246.866,-320.153 245.818,-330.696 252.621,-329.049"/>
</g>
<!-- Node13 -->
<g id="node13" class="node"><title>Node13</title>
<polygon fill="white" stroke="#bfbfbf" points="295.334,-59.9 295.334,-82.3 338.666,-82.3 338.666,-59.9 295.334,-59.9"/>
<text text-anchor="middle" x="317" y="-67.5" font-family="-adobe-utopia-medium-i-normal--0-0-0-0-p-0-iso10646-1" font-size="12.00">string</text>
</g>
<!-- Node2&#45;&gt;Node13 -->
<g id="edge44" class="edge"><title>Node2&#45;&gt;Node13</title>
<path fill="none" stroke="midnightblue" d="M390.824,-415.998C392.153,-392.914 392.72,-336.662 371,-297 324.687,-212.429 248.206,-234.092 219,-142.2 215.85,-132.289 213.449,-127.595 219,-118.8 233.394,-95.9956 262.313,-84.0941 285.023,-78.0318"/>
<polygon fill="midnightblue" stroke="midnightblue" points="286.046,-81.3857 294.947,-75.6391 284.405,-74.5808 286.046,-81.3857"/>
</g>
<!-- Node15 -->
<g id="node15" class="node"><title>Node15</title>
<polygon fill="white" stroke="#bfbfbf" points="11.6692,-59.9 11.6692,-82.3 48.3308,-82.3 48.3308,-59.9 11.6692,-59.9"/>
<text text-anchor="middle" x="30" y="-67.5" font-family="-adobe-utopia-medium-i-normal--0-0-0-0-p-0-iso10646-1" font-size="12.00">map</text>
</g>
<!-- Node2&#45;&gt;Node15 -->
<g id="edge46" class="edge"><title>Node2&#45;&gt;Node15</title>
<path fill="none" stroke="midnightblue" d="M352.605,-423.341C254.991,-414.071 0,-382.853 0,-309.7 0,-309.7 0,-309.7 0,-188.9 0,-153.86 12.8228,-114.713 21.7018,-91.8069"/>
<polygon fill="midnightblue" stroke="midnightblue" points="24.9614,-93.082 25.4436,-82.4981 18.4665,-90.4712 24.9614,-93.082"/>
</g>
<!-- Node17 -->
<g id="node17" class="node"><title>Node17</title>
<polygon fill="white" stroke="#bfbfbf" points="103.664,-119.3 103.664,-141.7 134.336,-141.7 134.336,-119.3 103.664,-119.3"/>
<text text-anchor="middle" x="119" y="-126.9" font-family="-adobe-utopia-medium-i-normal--0-0-0-0-p-0-iso10646-1" font-size="12.00">list</text>
</g>
<!-- Node2&#45;&gt;Node17 -->
<g id="edge45" class="edge"><title>Node2&#45;&gt;Node17</title>
<path fill="none" stroke="midnightblue" d="M352.673,-418.059C324.507,-410.658 285.62,-398.179 255,-379.8 221.726,-359.828 212.701,-352.573 191,-320.4 153.828,-265.289 132.248,-188.323 123.535,-152.01"/>
<polygon fill="midnightblue" stroke="midnightblue" points="126.91,-151.066 121.242,-142.114 120.09,-152.646 126.91,-151.066"/>
</g>
<!-- Node19 -->
<g id="node19" class="node"><title>Node19</title>
<g id="a_node19"><a xlink:href="Match_8h.html" target="_top" xlink:title="Match.h">
<polygon fill="white" stroke="black" points="648.172,-297.5 648.172,-319.9 703.828,-319.9 703.828,-297.5 648.172,-297.5"/>
<text text-anchor="middle" x="676" y="-305.1" font-family="-adobe-utopia-medium-i-normal--0-0-0-0-p-0-iso10646-1" font-size="12.00">Match.h</text>
</a>
</g>
</g>
<!-- Node2&#45;&gt;Node19 -->
<g id="edge31" class="edge"><title>Node2&#45;&gt;Node19</title>
<path fill="none" stroke="midnightblue" d="M411.334,-416.135C459.692,-394.98 577.403,-346.845 638.31,-323.249"/>
<polygon fill="midnightblue" stroke="midnightblue" points="639.857,-326.404 647.932,-319.545 637.342,-319.871 639.857,-326.404"/>
</g>
<!-- Node21 -->
<g id="node21" class="node"><title>Node21</title>
<g id="a_node21"><a xlink:href="Individuals_8h.html" target="_top" xlink:title="Individuals.h">
<polygon fill="white" stroke="black" points="283.504,-356.9 283.504,-379.3 362.496,-379.3 362.496,-356.9 283.504,-356.9"/>
<text text-anchor="middle" x="323" y="-364.5" font-family="-adobe-utopia-medium-i-normal--0-0-0-0-p-0-iso10646-1" font-size="12.00">Individuals.h</text>
</a>
</g>
</g>
<!-- Node2&#45;&gt;Node21 -->
<g id="edge38" class="edge"><title>Node2&#45;&gt;Node21</title>
<path fill="none" stroke="midnightblue" d="M372.706,-416.238C361.707,-408.096 347.869,-396.52 337.455,-386.878"/>
<polygon fill="midnightblue" stroke="midnightblue" points="339.59,-384.074 329.958,-379.661 334.736,-389.118 339.59,-384.074"/>
</g>
<!-- Node23 -->
<g id="node23" class="node"><title>Node23</title>
<polygon fill="white" stroke="#bfbfbf" points="984.336,-356.9 984.336,-379.3 1013.66,-379.3 1013.66,-356.9 984.336,-356.9"/>
<text text-anchor="middle" x="999" y="-364.5" font-family="-adobe-utopia-medium-i-normal--0-0-0-0-p-0-iso10646-1" font-size="12.00">set</text>
</g>
<!-- Node2&#45;&gt;Node23 -->
<g id="edge47" class="edge"><title>Node2&#45;&gt;Node23</title>
<path fill="none" stroke="midnightblue" d="M427.501,-426.994C520.545,-427.464 768.994,-424.096 970,-379.8 971.474,-379.475 972.974,-379.093 974.477,-378.669"/>
<polygon fill="midnightblue" stroke="midnightblue" points="975.792,-381.92 984.182,-375.451 973.589,-375.276 975.792,-381.92"/>
</g>
<!-- Node4 -->
<g id="node4" class="node"><title>Node4</title>
<polygon fill="white" stroke="#bfbfbf" points="401.008,-0.5 401.008,-22.9 446.992,-22.9 446.992,-0.5 401.008,-0.5"/>
<text text-anchor="middle" x="424" y="-8.1" font-family="-adobe-utopia-medium-i-normal--0-0-0-0-p-0-iso10646-1" font-size="12.00">vector</text>
</g>
<!-- Node3&#45;&gt;Node4 -->
<g id="edge3" class="edge"><title>Node3&#45;&gt;Node4</title>
<path fill="none" stroke="midnightblue" d="M712.938,-61.1942C641.433,-49.1931 516.284,-28.1885 456.972,-18.234"/>
<polygon fill="midnightblue" stroke="midnightblue" points="457.468,-14.7683 447.027,-16.5648 456.31,-21.6718 457.468,-14.7683"/>
</g>
<!-- Node5 -->
<g id="node5" class="node"><title>Node5</title>
<polygon fill="white" stroke="#bfbfbf" points="575.01,-0.5 575.01,-22.9 626.99,-22.9 626.99,-0.5 575.01,-0.5"/>
<text text-anchor="middle" x="601" y="-8.1" font-family="-adobe-utopia-medium-i-normal--0-0-0-0-p-0-iso10646-1" font-size="12.00">fstream</text>
</g>
<!-- Node3&#45;&gt;Node5 -->
<g id="edge4" class="edge"><title>Node3&#45;&gt;Node5</title>
<path fill="none" stroke="midnightblue" d="M736.501,-59.838C708.602,-50.1326 666.68,-35.5486 636.862,-25.1756"/>
<polygon fill="midnightblue" stroke="midnightblue" points="637.846,-21.8124 627.252,-21.8324 635.546,-28.4238 637.846,-21.8124"/>
</g>
<!-- Node3&#45;&gt;Node6 -->
<g id="edge5" class="edge"><title>Node3&#45;&gt;Node6</title>
<path fill="none" stroke="midnightblue" d="M789.42,-59.838C810.155,-50.7525 840.647,-37.392 863.879,-27.2127"/>
<polygon fill="midnightblue" stroke="midnightblue" points="865.586,-30.2858 873.341,-23.0667 862.777,-23.8743 865.586,-30.2858"/>
</g>
<!-- Node7 -->
<g id="node7" class="node"><title>Node7</title>
<polygon fill="white" stroke="#bfbfbf" points="739.834,-0.5 739.834,-22.9 792.166,-22.9 792.166,-0.5 739.834,-0.5"/>
<text text-anchor="middle" x="766" y="-8.1" font-family="-adobe-utopia-medium-i-normal--0-0-0-0-p-0-iso10646-1" font-size="12.00">string.h</text>
</g>
<!-- Node3&#45;&gt;Node7 -->
<g id="edge6" class="edge"><title>Node3&#45;&gt;Node7</title>
<path fill="none" stroke="midnightblue" d="M766,-59.838C766,-52.5019 766,-42.3785 766,-33.3932"/>
<polygon fill="midnightblue" stroke="midnightblue" points="769.5,-33.2614 766,-23.2615 762.5,-33.2615 769.5,-33.2614"/>
</g>
<!-- Node8&#45;&gt;Node3 -->
<g id="edge8" class="edge"><title>Node8&#45;&gt;Node3</title>
<path fill="none" stroke="midnightblue" d="M290.071,-298.236C396.549,-275.71 657.483,-219.458 694,-201.6 731.886,-183.073 749.762,-180.227 768,-142.2 775.384,-126.804 774.077,-107.237 771.386,-92.691"/>
<polygon fill="midnightblue" stroke="midnightblue" points="774.753,-91.7079 769.179,-82.6981 767.918,-93.2177 774.753,-91.7079"/>
</g>
<!-- Node8&#45;&gt;Node4 -->
<g id="edge30" class="edge"><title>Node8&#45;&gt;Node4</title>
<path fill="none" stroke="midnightblue" d="M225.38,-297.492C174.166,-269.52 43.8472,-189.043 95,-118.8 164.585,-23.245 321.848,-11.921 390.681,-11.7799"/>
<polygon fill="midnightblue" stroke="midnightblue" points="390.921,-15.2813 400.942,-11.8421 390.964,-8.28143 390.921,-15.2813"/>
</g>
<!-- Node9 -->
<g id="node9" class="node"><title>Node9</title>
<g id="a_node9"><a xlink:href="MarkerSet_8h.html" target="_top" xlink:title="MarkerSet.h">
<polygon fill="white" stroke="black" points="359.179,-238.1 359.179,-260.5 434.821,-260.5 434.821,-238.1 359.179,-238.1"/>
<text text-anchor="middle" x="397" y="-245.7" font-family="-adobe-utopia-medium-i-normal--0-0-0-0-p-0-iso10646-1" font-size="12.00">MarkerSet.h</text>
</a>
</g>
</g>
<!-- Node8&#45;&gt;Node9 -->
<g id="edge9" class="edge"><title>Node8&#45;&gt;Node9</title>
<path fill="none" stroke="midnightblue" d="M272.175,-297.438C296.739,-288.162 333.106,-274.428 360.258,-264.175"/>
<polygon fill="midnightblue" stroke="midnightblue" points="361.686,-267.377 369.805,-260.57 359.213,-260.828 361.686,-267.377"/>
</g>
<!-- Node9&#45;&gt;Node3 -->
<g id="edge10" class="edge"><title>Node9&#45;&gt;Node3</title>
<path fill="none" stroke="midnightblue" d="M434.927,-248.152C506.46,-245.741 661.753,-230.013 747,-142.2 759.792,-129.023 764.179,-108.149 765.583,-92.6014"/>
<polygon fill="midnightblue" stroke="midnightblue" points="769.089,-92.589 766.157,-82.4082 762.1,-92.1958 769.089,-92.589"/>
</g>
<!-- Node10 -->
<g id="node10" class="node"><title>Node10</title>
<g id="a_node10"><a xlink:href="SNPs_8h.html" target="_top" xlink:title="SNPs.h">
<polygon fill="white" stroke="black" points="428.164,-178.7 428.164,-201.1 479.836,-201.1 479.836,-178.7 428.164,-178.7"/>
<text text-anchor="middle" x="454" y="-186.3" font-family="-adobe-utopia-medium-i-normal--0-0-0-0-p-0-iso10646-1" font-size="12.00">SNPs.h</text>
</a>
</g>
</g>
<!-- Node9&#45;&gt;Node10 -->
<g id="edge11" class="edge"><title>Node9&#45;&gt;Node10</title>
<path fill="none" stroke="midnightblue" d="M407.19,-238.038C415.276,-229.896 426.771,-218.32 436.346,-208.678"/>
<polygon fill="midnightblue" stroke="midnightblue" points="438.949,-211.023 443.512,-201.461 433.982,-206.091 438.949,-211.023"/>
</g>
<!-- Node9&#45;&gt;Node17 -->
<g id="edge29" class="edge"><title>Node9&#45;&gt;Node17</title>
<path fill="none" stroke="midnightblue" d="M363.3,-238.052C335.504,-229.285 295.222,-215.854 261,-201.6 218.773,-184.012 171.453,-159.675 143.497,-144.791"/>
<polygon fill="midnightblue" stroke="midnightblue" points="144.924,-141.585 134.456,-139.947 141.618,-147.755 144.924,-141.585"/>
</g>
<!-- Node18 -->
<g id="node18" class="node"><title>Node18</title>
<polygon fill="white" stroke="#bfbfbf" points="270.171,-178.7 270.171,-201.1 409.829,-201.1 409.829,-178.7 270.171,-178.7"/>
<text text-anchor="middle" x="340" y="-186.3" font-family="-adobe-utopia-medium-i-normal--0-0-0-0-p-0-iso10646-1" font-size="12.00">boost/dynamic_bitset.hpp</text>
</g>
<!-- Node9&#45;&gt;Node18 -->
<g id="edge28" class="edge"><title>Node9&#45;&gt;Node18</title>
<path fill="none" stroke="midnightblue" d="M386.81,-238.038C378.724,-229.896 367.229,-218.32 357.654,-208.678"/>
<polygon fill="midnightblue" stroke="midnightblue" points="360.018,-206.091 350.488,-201.461 355.051,-211.023 360.018,-206.091"/>
</g>
<!-- Node10&#45;&gt;Node3 -->
<g id="edge12" class="edge"><title>Node10&#45;&gt;Node3</title>
<path fill="none" stroke="midnightblue" d="M468.861,-178.428C493.862,-160.969 543.511,-127.013 563,-118.8 608.103,-99.7935 662.254,-87.831 703.281,-80.7768"/>
<polygon fill="midnightblue" stroke="midnightblue" points="703.861,-84.2285 713.149,-79.1308 702.709,-77.3239 703.861,-84.2285"/>
</g>
<!-- Node10&#45;&gt;Node4 -->
<g id="edge24" class="edge"><title>Node10&#45;&gt;Node4</title>
<path fill="none" stroke="midnightblue" d="M443.711,-178.455C435.783,-169.624 425.448,-156.203 421,-142.2 409.204,-105.067 414.748,-58.8829 419.565,-32.9055"/>
<polygon fill="midnightblue" stroke="midnightblue" points="422.998,-33.5877 421.532,-23.0948 416.134,-32.2116 422.998,-33.5877"/>
</g>
<!-- Node10&#45;&gt;Node5 -->
<g id="edge23" class="edge"><title>Node10&#45;&gt;Node5</title>
<path fill="none" stroke="midnightblue" d="M462.539,-178.665C486.592,-149.834 555.147,-67.661 585.831,-30.8825"/>
<polygon fill="midnightblue" stroke="midnightblue" points="588.719,-32.8839 592.438,-22.9631 583.344,-28.3996 588.719,-32.8839"/>
</g>
<!-- Node11 -->
<g id="node11" class="node"><title>Node11</title>
<g id="a_node11"><a xlink:href="NucleotideMap_8h.html" target="_top" xlink:title="NucleotideMap.h">
<polygon fill="white" stroke="black" points="572.179,-119.3 572.179,-141.7 671.821,-141.7 671.821,-119.3 572.179,-119.3"/>
<text text-anchor="middle" x="622" y="-126.9" font-family="-adobe-utopia-medium-i-normal--0-0-0-0-p-0-iso10646-1" font-size="12.00">NucleotideMap.h</text>
</a>
</g>
</g>
<!-- Node10&#45;&gt;Node11 -->
<g id="edge13" class="edge"><title>Node10&#45;&gt;Node11</title>
<path fill="none" stroke="midnightblue" d="M479.882,-180.057C507.206,-170.721 550.624,-155.887 582.286,-145.069"/>
<polygon fill="midnightblue" stroke="midnightblue" points="583.786,-148.255 592.117,-141.71 581.522,-141.631 583.786,-148.255"/>
</g>
<!-- Node12 -->
<g id="node12" class="node"><title>Node12</title>
<g id="a_node12"><a xlink:href="SNP_8h.html" target="_top" xlink:title="SNP.h">
<polygon fill="white" stroke="black" points="430.498,-119.3 430.498,-141.7 477.502,-141.7 477.502,-119.3 430.498,-119.3"/>
<text text-anchor="middle" x="454" y="-126.9" font-family="-adobe-utopia-medium-i-normal--0-0-0-0-p-0-iso10646-1" font-size="12.00">SNP.h</text>
</a>
</g>
</g>
<!-- Node10&#45;&gt;Node12 -->
<g id="edge15" class="edge"><title>Node10&#45;&gt;Node12</title>
<path fill="none" stroke="midnightblue" d="M454,-178.638C454,-171.302 454,-161.179 454,-152.193"/>
<polygon fill="midnightblue" stroke="midnightblue" points="457.5,-152.061 454,-142.061 450.5,-152.062 457.5,-152.061"/>
</g>
<!-- Node10&#45;&gt;Node13 -->
<g id="edge25" class="edge"><title>Node10&#45;&gt;Node13</title>
<path fill="none" stroke="midnightblue" d="M437.998,-178.646C424.29,-169.614 404.246,-155.812 388,-142.2 368.283,-125.68 347.55,-104.738 333.614,-90.0625"/>
<polygon fill="midnightblue" stroke="midnightblue" points="336.02,-87.5119 326.621,-82.6223 330.92,-92.306 336.02,-87.5119"/>
</g>
<!-- Node14 -->
<g id="node14" class="node"><title>Node14</title>
<g id="a_node14"><a xlink:href="SNPPositionMap_8h.html" target="_top" xlink:title="SNPPositionMap.h">
<polygon fill="white" stroke="black" points="227.83,-119.3 227.83,-141.7 336.17,-141.7 336.17,-119.3 227.83,-119.3"/>
<text text-anchor="middle" x="282" y="-126.9" font-family="-adobe-utopia-medium-i-normal--0-0-0-0-p-0-iso10646-1" font-size="12.00">SNPPositionMap.h</text>
</a>
</g>
</g>
<!-- Node10&#45;&gt;Node14 -->
<g id="edge19" class="edge"><title>Node10&#45;&gt;Node14</title>
<path fill="none" stroke="midnightblue" d="M427.877,-180.182C399.857,-170.831 355.002,-155.862 322.421,-144.989"/>
<polygon fill="midnightblue" stroke="midnightblue" points="323.33,-141.603 312.736,-141.757 321.114,-148.243 323.33,-141.603"/>
</g>
<!-- Node10&#45;&gt;Node15 -->
<g id="edge26" class="edge"><title>Node10&#45;&gt;Node15</title>
<path fill="none" stroke="midnightblue" d="M428.101,-180.608C425.048,-179.742 421.964,-178.917 419,-178.2 331.216,-156.96 306.126,-165.997 219,-142.2 160.368,-126.186 94.3044,-99.6373 57.8768,-84.218"/>
<polygon fill="midnightblue" stroke="midnightblue" points="58.9903,-80.8878 48.419,-80.1821 56.2429,-87.3262 58.9903,-80.8878"/>
</g>
<!-- Node16 -->
<g id="node16" class="node"><title>Node16</title>
<polygon fill="white" stroke="#bfbfbf" points="689.502,-119.3 689.502,-141.7 738.498,-141.7 738.498,-119.3 689.502,-119.3"/>
<text text-anchor="middle" x="714" y="-126.9" font-family="-adobe-utopia-medium-i-normal--0-0-0-0-p-0-iso10646-1" font-size="12.00">math.h</text>
</g>
<!-- Node10&#45;&gt;Node16 -->
<g id="edge22" class="edge"><title>Node10&#45;&gt;Node16</title>
<path fill="none" stroke="midnightblue" d="M480.09,-184.502C520.793,-177.434 602.011,-162.5 679.326,-142.459"/>
<polygon fill="midnightblue" stroke="midnightblue" points="680.438,-145.785 689.221,-139.86 678.66,-139.015 680.438,-145.785"/>
</g>
<!-- Node10&#45;&gt;Node17 -->
<g id="edge27" class="edge"><title>Node10&#45;&gt;Node17</title>
<path fill="none" stroke="midnightblue" d="M428.132,-180.472C425.073,-179.631 421.98,-178.849 419,-178.2 300.279,-152.351 265.94,-171.408 148,-142.2 146.74,-141.888 145.459,-141.539 144.173,-141.164"/>
<polygon fill="midnightblue" stroke="midnightblue" points="145.048,-137.766 134.454,-137.921 142.832,-144.406 145.048,-137.766"/>
</g>
<!-- Node11&#45;&gt;Node3 -->
<g id="edge14" class="edge"><title>Node11&#45;&gt;Node3</title>
<path fill="none" stroke="midnightblue" d="M647.744,-119.238C670.842,-110.031 704.955,-96.4333 730.614,-86.2054"/>
<polygon fill="midnightblue" stroke="midnightblue" points="732,-89.4207 739.993,-82.4667 729.408,-82.9183 732,-89.4207"/>
</g>
<!-- Node12&#45;&gt;Node3 -->
<g id="edge16" class="edge"><title>Node12&#45;&gt;Node3</title>
<path fill="none" stroke="midnightblue" d="M477.707,-125.139C525.214,-116.398 633.461,-96.4837 702.96,-83.6977"/>
<polygon fill="midnightblue" stroke="midnightblue" points="703.72,-87.1168 712.921,-81.8651 702.453,-80.2324 703.72,-87.1168"/>
</g>
<!-- Node12&#45;&gt;Node4 -->
<g id="edge18" class="edge"><title>Node12&#45;&gt;Node4</title>
<path fill="none" stroke="midnightblue" d="M451.338,-119.135C446.391,-99.8758 435.701,-58.2548 429.252,-33.1461"/>
<polygon fill="midnightblue" stroke="midnightblue" points="432.577,-32.0248 426.699,-23.2099 425.797,-33.7662 432.577,-32.0248"/>
</g>
<!-- Node12&#45;&gt;Node13 -->
<g id="edge17" class="edge"><title>Node12&#45;&gt;Node13</title>
<path fill="none" stroke="midnightblue" d="M430.449,-119.633C407.756,-110.125 373.279,-95.6796 348.289,-85.2092"/>
<polygon fill="midnightblue" stroke="midnightblue" points="349.464,-81.9068 338.888,-81.2706 346.759,-88.3631 349.464,-81.9068"/>
</g>
<!-- Node14&#45;&gt;Node13 -->
<g id="edge21" class="edge"><title>Node14&#45;&gt;Node13</title>
<path fill="none" stroke="midnightblue" d="M288.257,-119.238C292.976,-111.499 299.587,-100.658 305.279,-91.3231"/>
<polygon fill="midnightblue" stroke="midnightblue" points="308.342,-93.0216 310.56,-82.6615 302.366,-89.3773 308.342,-93.0216"/>
</g>
<!-- Node14&#45;&gt;Node15 -->
<g id="edge20" class="edge"><title>Node14&#45;&gt;Node15</title>
<path fill="none" stroke="midnightblue" d="M236.947,-119.238C185.156,-107.441 101.721,-88.4365 58.3047,-78.5472"/>
<polygon fill="midnightblue" stroke="midnightblue" points="58.9493,-75.1044 48.4217,-76.2961 57.3946,-81.9296 58.9493,-75.1044"/>
</g>
<!-- Node19&#45;&gt;Node2 -->
<g id="edge35" class="edge"><title>Node19&#45;&gt;Node2</title>
<path fill="none" stroke="midnightblue" d="M654.667,-320.065C606.614,-341.086 490.082,-388.748 428.851,-412.501"/>
<polygon fill="midnightblue" stroke="midnightblue" points="427.232,-409.374 419.16,-416.237 429.75,-415.906 427.232,-409.374"/>
</g>
<!-- Node19&#45;&gt;Node3 -->
<g id="edge32" class="edge"><title>Node19&#45;&gt;Node3</title>
<path fill="none" stroke="midnightblue" d="M704.096,-305.687C734.21,-301.958 781.161,-291.323 807,-261 848.113,-212.752 843.82,-176.692 818,-118.8 812.556,-106.593 802.168,-96.2442 792.1,-88.415"/>
<polygon fill="midnightblue" stroke="midnightblue" points="793.99,-85.4624 783.834,-82.4455 789.892,-91.1374 793.99,-85.4624"/>
</g>
<!-- Node19&#45;&gt;Node9 -->
<g id="edge34" class="edge"><title>Node19&#45;&gt;Node9</title>
<path fill="none" stroke="midnightblue" d="M647.971,-301.933C600.521,-292.171 503.831,-272.279 445.292,-260.235"/>
<polygon fill="midnightblue" stroke="midnightblue" points="445.679,-256.742 435.179,-258.155 444.269,-263.598 445.679,-256.742"/>
</g>
<!-- Node19&#45;&gt;Node10 -->
<g id="edge33" class="edge"><title>Node19&#45;&gt;Node10</title>
<path fill="none" stroke="midnightblue" d="M656.299,-297.335C616.968,-276.642 528.57,-230.133 482.754,-206.028"/>
<polygon fill="midnightblue" stroke="midnightblue" points="484.136,-202.801 473.657,-201.242 480.877,-208.996 484.136,-202.801"/>
</g>
<!-- Node19&#45;&gt;Node16 -->
<g id="edge36" class="edge"><title>Node19&#45;&gt;Node16</title>
<path fill="none" stroke="midnightblue" d="M678.207,-297.465C684.32,-269.121 701.552,-189.22 709.669,-151.583"/>
<polygon fill="midnightblue" stroke="midnightblue" points="713.1,-152.276 711.787,-141.763 706.257,-150.8 713.1,-152.276"/>
</g>
<!-- Node20 -->
<g id="node20" class="node"><title>Node20</title>
<polygon fill="white" stroke="#bfbfbf" points="742.334,-238.1 742.334,-260.5 797.666,-260.5 797.666,-238.1 742.334,-238.1"/>
<text text-anchor="middle" x="770" y="-245.7" font-family="-adobe-utopia-medium-i-normal--0-0-0-0-p-0-iso10646-1" font-size="12.00">iomanip</text>
</g>
<!-- Node19&#45;&gt;Node20 -->
<g id="edge37" class="edge"><title>Node19&#45;&gt;Node20</title>
<path fill="none" stroke="midnightblue" d="M692.805,-297.438C707.153,-288.677 728.01,-275.941 744.428,-265.915"/>
<polygon fill="midnightblue" stroke="midnightblue" points="746.313,-268.865 753.023,-260.667 742.665,-262.891 746.313,-268.865"/>
</g>
<!-- Node21&#45;&gt;Node2 -->
<g id="edge41" class="edge"><title>Node21&#45;&gt;Node2</title>
<path fill="none" stroke="midnightblue" d="M340.435,-379.467C351.527,-387.689 365.467,-399.365 375.872,-409.026"/>
<polygon fill="midnightblue" stroke="midnightblue" points="373.714,-411.807 383.338,-416.238 378.577,-406.773 373.714,-411.807"/>
</g>
<!-- Node21&#45;&gt;Node3 -->
<g id="edge39" class="edge"><title>Node21&#45;&gt;Node3</title>
<path fill="none" stroke="midnightblue" d="M362.612,-367.239C489.863,-366.633 880,-356.144 880,-250.3 880,-250.3 880,-250.3 880,-188.9 880,-141.373 831.062,-105.985 797.314,-87.2313"/>
<polygon fill="midnightblue" stroke="midnightblue" points="798.72,-84.0145 788.251,-82.3867 795.42,-90.1878 798.72,-84.0145"/>
</g>
<!-- Node21&#45;&gt;Node8 -->
<g id="edge40" class="edge"><title>Node21&#45;&gt;Node8</title>
<path fill="none" stroke="midnightblue" d="M309.055,-356.838C297.481,-348.32 280.8,-336.045 267.363,-326.157"/>
<polygon fill="midnightblue" stroke="midnightblue" points="269.216,-323.175 259.087,-320.067 265.067,-328.813 269.216,-323.175"/>
</g>
<!-- Node21&#45;&gt;Node15 -->
<g id="edge42" class="edge"><title>Node21&#45;&gt;Node15</title>
<path fill="none" stroke="midnightblue" d="M283.328,-358.155C255.94,-350.8 219.471,-338.596 191,-320.4 102.86,-264.069 53.0812,-140.282 36.3961,-91.9689"/>
<polygon fill="midnightblue" stroke="midnightblue" points="39.6733,-90.7328 33.1761,-82.364 33.0363,-92.9579 39.6733,-90.7328"/>
</g>
<!-- Node22 -->
<g id="node22" class="node"><title>Node22</title>
<polygon fill="white" stroke="#bfbfbf" points="308.008,-297.5 308.008,-319.9 361.992,-319.9 361.992,-297.5 308.008,-297.5"/>
<text text-anchor="middle" x="335" y="-305.1" font-family="-adobe-utopia-medium-i-normal--0-0-0-0-p-0-iso10646-1" font-size="12.00">ostream</text>
</g>
<!-- Node21&#45;&gt;Node22 -->
<g id="edge43" class="edge"><title>Node21&#45;&gt;Node22</title>
<path fill="none" stroke="midnightblue" d="M325.145,-356.838C326.696,-349.421 328.842,-339.156 330.736,-330.097"/>
<polygon fill="midnightblue" stroke="midnightblue" points="334.172,-330.766 332.792,-320.261 327.32,-329.334 334.172,-330.766"/>
</g>
</g>
</svg>
