<?xml version="1.0" encoding="UTF-8" standalone="no"?>
<!DOCTYPE svg PUBLIC "-//W3C//DTD SVG 1.1//EN"
 "http://www.w3.org/Graphics/SVG/1.1/DTD/svg11.dtd">
<!-- Generated by graphviz version 2.38.0 (20140413.2041)
 -->
<!-- Title: operator&lt;&lt; Pages: 1 -->
<svg width="265pt" height="72pt"
 viewBox="0.00 0.00 264.83 72.40" xmlns="http://www.w3.org/2000/svg" xmlns:xlink="http://www.w3.org/1999/xlink">
<g id="graph0" class="graph" transform="scale(1 1) rotate(0) translate(4 68.4)">
<title>operator&lt;&lt;</title>
<polygon fill="white" stroke="none" points="-4,4 -4,-68.4 260.83,-68.4 260.83,4 -4,4"/>
<!-- Node1 -->
<g id="node1" class="node"><title>Node1</title>
<polygon fill="#bfbfbf" stroke="black" points="2.13163e-14,-20.5 2.13163e-14,-42.9 69.5116,-42.9 69.5116,-20.5 2.13163e-14,-20.5"/>
<text text-anchor="middle" x="34.7558" y="-28.1" font-family="-adobe-utopia-medium-i-normal--0-0-0-0-p-0-iso10646-1" font-size="12.00">operator&lt;&lt;</text>
</g>
<!-- Node2 -->
<g id="node2" class="node"><title>Node2</title>
<g id="a_node2"><a xlink:href="classIndividual.html#adab24d093d691c3e84bdce0b2d2f3a81" target="_top" xlink:title="Individual::getChromosome">
<polygon fill="white" stroke="black" points="105.512,-41.5 105.512,-63.9 256.83,-63.9 256.83,-41.5 105.512,-41.5"/>
<text text-anchor="middle" x="181.171" y="-49.1" font-family="-adobe-utopia-medium-i-normal--0-0-0-0-p-0-iso10646-1" font-size="12.00">Individual::getChromosome</text>
</a>
</g>
</g>
<!-- Node1&#45;&gt;Node2 -->
<g id="edge1" class="edge"><title>Node1&#45;&gt;Node2</title>
<path fill="none" stroke="midnightblue" d="M69.6147,-36.6236C77.5737,-37.7809 86.4085,-39.0656 95.5157,-40.39"/>
<polygon fill="midnightblue" stroke="midnightblue" points="95.0767,-43.8629 105.476,-41.8384 96.0841,-36.9357 95.0767,-43.8629"/>
</g>
<!-- Node3 -->
<g id="node3" class="node"><title>Node3</title>
<g id="a_node3"><a xlink:href="classIndividual.html#aaec5e79df1d9dadee3a03e01bde156fc" target="_top" xlink:title="Individual::getID">
<polygon fill="white" stroke="black" points="131.513,-0.5 131.513,-22.9 230.828,-22.9 230.828,-0.5 131.513,-0.5"/>
<text text-anchor="middle" x="181.171" y="-8.1" font-family="-adobe-utopia-medium-i-normal--0-0-0-0-p-0-iso10646-1" font-size="12.00">Individual::getID</text>
</a>
</g>
</g>
<!-- Node1&#45;&gt;Node3 -->
<g id="edge2" class="edge"><title>Node1&#45;&gt;Node3</title>
<path fill="none" stroke="midnightblue" d="M69.6147,-27.0109C85.0163,-24.8779 103.697,-22.2908 121.286,-19.855"/>
<polygon fill="midnightblue" stroke="midnightblue" points="122.057,-23.2817 131.482,-18.4429 121.096,-16.3479 122.057,-23.2817"/>
</g>
</g>
</svg>
