<?xml version="1.0" encoding="UTF-8" standalone="no"?>
<!DOCTYPE svg PUBLIC "-//W3C//DTD SVG 1.1//EN"
 "http://www.w3.org/Graphics/SVG/1.1/DTD/svg11.dtd">
<!-- Generated by graphviz version 2.38.0 (20140413.2041)
 -->
<!-- Title: Individuals.cpp Pages: 1 -->
<svg width="1066pt" height="507pt"
 viewBox="0.00 0.00 1065.89 506.60" xmlns="http://www.w3.org/2000/svg" xmlns:xlink="http://www.w3.org/1999/xlink">
<g id="graph0" class="graph" transform="scale(1 1) rotate(0) translate(4 502.6)">
<title>Individuals.cpp</title>
<polygon fill="white" stroke="none" points="-4,4 -4,-502.6 1061.89,-502.6 1061.89,4 -4,4"/>
<!-- Node1 -->
<g id="node1" class="node"><title>Node1</title>
<polygon fill="#bfbfbf" stroke="black" points="755.73,-475.7 755.73,-498.1 846.049,-498.1 846.049,-475.7 755.73,-475.7"/>
<text text-anchor="middle" x="800.89" y="-483.3" font-family="-adobe-utopia-medium-i-normal--0-0-0-0-p-0-iso10646-1" font-size="12.00">Individuals.cpp</text>
</g>
<!-- Node2 -->
<g id="node2" class="node"><title>Node2</title>
<g id="a_node2"><a xlink:href="Individuals_8h.html" target="_top" xlink:title="Individuals.h">
<polygon fill="white" stroke="black" points="532.393,-416.3 532.393,-438.7 611.386,-438.7 611.386,-416.3 532.393,-416.3"/>
<text text-anchor="middle" x="571.89" y="-423.9" font-family="-adobe-utopia-medium-i-normal--0-0-0-0-p-0-iso10646-1" font-size="12.00">Individuals.h</text>
</a>
</g>
</g>
<!-- Node1&#45;&gt;Node2 -->
<g id="edge1" class="edge"><title>Node1&#45;&gt;Node2</title>
<path fill="none" stroke="midnightblue" d="M759.949,-475.638C721.204,-465.926 662.971,-451.33 621.583,-440.956"/>
<polygon fill="midnightblue" stroke="midnightblue" points="622.26,-437.517 611.709,-438.481 620.558,-444.307 622.26,-437.517"/>
</g>
<!-- Node6 -->
<g id="node6" class="node"><title>Node6</title>
<polygon fill="white" stroke="#bfbfbf" points="991.23,-0.5 991.23,-22.9 1048.55,-22.9 1048.55,-0.5 991.23,-0.5"/>
<text text-anchor="middle" x="1019.89" y="-8.1" font-family="-adobe-utopia-medium-i-normal--0-0-0-0-p-0-iso10646-1" font-size="12.00">iostream</text>
</g>
<!-- Node1&#45;&gt;Node6 -->
<g id="edge49" class="edge"><title>Node1&#45;&gt;Node6</title>
<path fill="none" stroke="midnightblue" d="M846.244,-485.026C920.024,-480.934 1057.89,-460.993 1057.89,-369.1 1057.89,-369.1 1057.89,-369.1 1057.89,-129.5 1057.89,-93.6499 1041.5,-54.5129 1030.25,-31.8677"/>
<polygon fill="midnightblue" stroke="midnightblue" points="1033.35,-30.2488 1025.66,-22.9621 1027.13,-33.4547 1033.35,-30.2488"/>
</g>
<!-- Node3 -->
<g id="node3" class="node"><title>Node3</title>
<g id="a_node3"><a xlink:href="BasicDefinitions_8h.html" target="_top" xlink:title="BasicDefinitions.h">
<polygon fill="white" stroke="black" points="287.065,-59.9 287.065,-82.3 392.714,-82.3 392.714,-59.9 287.065,-59.9"/>
<text text-anchor="middle" x="339.89" y="-67.5" font-family="-adobe-utopia-medium-i-normal--0-0-0-0-p-0-iso10646-1" font-size="12.00">BasicDefinitions.h</text>
</a>
</g>
</g>
<!-- Node2&#45;&gt;Node3 -->
<g id="edge2" class="edge"><title>Node2&#45;&gt;Node3</title>
<path fill="none" stroke="midnightblue" d="M532.369,-424.193C426.333,-417.083 139.855,-391.52 84.8895,-320.4 42.5653,-265.636 -111.887,-353.514 144.89,-118.8 164.12,-101.222 227.531,-88.2335 276.882,-80.4777"/>
<polygon fill="midnightblue" stroke="midnightblue" points="277.507,-83.9227 286.862,-78.9494 276.448,-77.0034 277.507,-83.9227"/>
</g>
<!-- Node8 -->
<g id="node8" class="node"><title>Node8</title>
<g id="a_node8"><a xlink:href="Chromosome_8h.html" target="_top" xlink:title="Chromosome.h">
<polygon fill="white" stroke="black" points="94.0591,-297.5 94.0591,-319.9 183.72,-319.9 183.72,-297.5 94.0591,-297.5"/>
<text text-anchor="middle" x="138.89" y="-305.1" font-family="-adobe-utopia-medium-i-normal--0-0-0-0-p-0-iso10646-1" font-size="12.00">Chromosome.h</text>
</a>
</g>
</g>
<!-- Node2&#45;&gt;Node8 -->
<g id="edge7" class="edge"><title>Node2&#45;&gt;Node8</title>
<path fill="none" stroke="midnightblue" d="M533.843,-416.237C454.936,-394.952 273.616,-346.042 186.853,-322.638"/>
<polygon fill="midnightblue" stroke="midnightblue" points="187.571,-319.207 177.004,-319.981 185.748,-325.965 187.571,-319.207"/>
</g>
<!-- Node15 -->
<g id="node15" class="node"><title>Node15</title>
<polygon fill="white" stroke="#bfbfbf" points="854.559,-59.9 854.559,-82.3 891.22,-82.3 891.22,-59.9 854.559,-59.9"/>
<text text-anchor="middle" x="872.89" y="-67.5" font-family="-adobe-utopia-medium-i-normal--0-0-0-0-p-0-iso10646-1" font-size="12.00">map</text>
</g>
<!-- Node2&#45;&gt;Node15 -->
<g id="edge47" class="edge"><title>Node2&#45;&gt;Node15</title>
<path fill="none" stroke="midnightblue" d="M611.655,-420.617C698.576,-406.944 901.37,-370.344 946.89,-320.4 1007.32,-254.097 990.473,-190.75 936.89,-118.8 927.171,-105.751 912.77,-94.7902 900.088,-86.774"/>
<polygon fill="midnightblue" stroke="midnightblue" points="901.624,-83.6142 891.249,-81.4696 898.022,-89.6163 901.624,-83.6142"/>
</g>
<!-- Node19 -->
<g id="node19" class="node"><title>Node19</title>
<g id="a_node19"><a xlink:href="Individual_8h.html" target="_top" xlink:title="Individual.h">
<polygon fill="white" stroke="black" points="534.727,-356.9 534.727,-379.3 609.053,-379.3 609.053,-356.9 534.727,-356.9"/>
<text text-anchor="middle" x="571.89" y="-364.5" font-family="-adobe-utopia-medium-i-normal--0-0-0-0-p-0-iso10646-1" font-size="12.00">Individual.h</text>
</a>
</g>
</g>
<!-- Node2&#45;&gt;Node19 -->
<g id="edge31" class="edge"><title>Node2&#45;&gt;Node19</title>
<path fill="none" stroke="midnightblue" d="M566.574,-416.238C565.227,-408.902 564.829,-398.779 565.379,-389.793"/>
<polygon fill="midnightblue" stroke="midnightblue" points="568.878,-389.99 566.519,-379.661 561.922,-389.207 568.878,-389.99"/>
</g>
<!-- Node23 -->
<g id="node23" class="node"><title>Node23</title>
<polygon fill="white" stroke="#bfbfbf" points="626.897,-356.9 626.897,-379.3 680.882,-379.3 680.882,-356.9 626.897,-356.9"/>
<text text-anchor="middle" x="653.89" y="-364.5" font-family="-adobe-utopia-medium-i-normal--0-0-0-0-p-0-iso10646-1" font-size="12.00">ostream</text>
</g>
<!-- Node2&#45;&gt;Node23 -->
<g id="edge48" class="edge"><title>Node2&#45;&gt;Node23</title>
<path fill="none" stroke="midnightblue" d="M586.549,-416.238C598.833,-407.639 616.588,-395.211 630.783,-385.275"/>
<polygon fill="midnightblue" stroke="midnightblue" points="632.895,-388.069 639.08,-379.467 628.881,-382.334 632.895,-388.069"/>
</g>
<!-- Node4 -->
<g id="node4" class="node"><title>Node4</title>
<polygon fill="white" stroke="#bfbfbf" points="414.898,-0.5 414.898,-22.9 460.881,-22.9 460.881,-0.5 414.898,-0.5"/>
<text text-anchor="middle" x="437.89" y="-8.1" font-family="-adobe-utopia-medium-i-normal--0-0-0-0-p-0-iso10646-1" font-size="12.00">vector</text>
</g>
<!-- Node3&#45;&gt;Node4 -->
<g id="edge3" class="edge"><title>Node3&#45;&gt;Node4</title>
<path fill="none" stroke="midnightblue" d="M357.41,-59.838C372.368,-51.077 394.112,-38.3408 411.229,-28.3152"/>
<polygon fill="midnightblue" stroke="midnightblue" points="413.33,-31.1408 420.19,-23.0667 409.793,-25.1006 413.33,-31.1408"/>
</g>
<!-- Node5 -->
<g id="node5" class="node"><title>Node5</title>
<polygon fill="white" stroke="#bfbfbf" points="510.9,-0.5 510.9,-22.9 562.879,-22.9 562.879,-0.5 510.9,-0.5"/>
<text text-anchor="middle" x="536.89" y="-8.1" font-family="-adobe-utopia-medium-i-normal--0-0-0-0-p-0-iso10646-1" font-size="12.00">fstream</text>
</g>
<!-- Node3&#45;&gt;Node5 -->
<g id="edge4" class="edge"><title>Node3&#45;&gt;Node5</title>
<path fill="none" stroke="midnightblue" d="M375.109,-59.838C410.566,-49.507 464.993,-33.6484 500.768,-23.2248"/>
<polygon fill="midnightblue" stroke="midnightblue" points="502.159,-26.4652 510.78,-20.3075 500.2,-19.7446 502.159,-26.4652"/>
</g>
<!-- Node3&#45;&gt;Node6 -->
<g id="edge5" class="edge"><title>Node3&#45;&gt;Node6</title>
<path fill="none" stroke="midnightblue" d="M392.965,-65.6198C524.969,-54.4771 865.74,-25.712 981.072,-15.9766"/>
<polygon fill="midnightblue" stroke="midnightblue" points="981.531,-19.4504 991.201,-15.1216 980.942,-12.4753 981.531,-19.4504"/>
</g>
<!-- Node7 -->
<g id="node7" class="node"><title>Node7</title>
<polygon fill="white" stroke="#bfbfbf" points="313.724,-0.5 313.724,-22.9 366.055,-22.9 366.055,-0.5 313.724,-0.5"/>
<text text-anchor="middle" x="339.89" y="-8.1" font-family="-adobe-utopia-medium-i-normal--0-0-0-0-p-0-iso10646-1" font-size="12.00">string.h</text>
</g>
<!-- Node3&#45;&gt;Node7 -->
<g id="edge6" class="edge"><title>Node3&#45;&gt;Node7</title>
<path fill="none" stroke="midnightblue" d="M339.89,-59.838C339.89,-52.5019 339.89,-42.3785 339.89,-33.3932"/>
<polygon fill="midnightblue" stroke="midnightblue" points="343.39,-33.2614 339.89,-23.2615 336.39,-33.2615 343.39,-33.2614"/>
</g>
<!-- Node8&#45;&gt;Node3 -->
<g id="edge8" class="edge"><title>Node8&#45;&gt;Node3</title>
<path fill="none" stroke="midnightblue" d="M136.662,-297.1C130.697,-265.551 117.785,-171.207 163.89,-118.8 178.903,-101.734 232.582,-89.1059 276.751,-81.3143"/>
<polygon fill="midnightblue" stroke="midnightblue" points="277.611,-84.7182 286.877,-79.5817 276.43,-77.8184 277.611,-84.7182"/>
</g>
<!-- Node8&#45;&gt;Node4 -->
<g id="edge30" class="edge"><title>Node8&#45;&gt;Node4</title>
<path fill="none" stroke="midnightblue" d="M135.212,-297.121C125.005,-265.633 99.9223,-171.441 144.89,-118.8 179.649,-78.108 335.68,-36.9423 404.778,-20.3388"/>
<polygon fill="midnightblue" stroke="midnightblue" points="405.785,-23.6972 414.704,-17.9794 404.166,-16.8869 405.785,-23.6972"/>
</g>
<!-- Node9 -->
<g id="node9" class="node"><title>Node9</title>
<g id="a_node9"><a xlink:href="MarkerSet_8h.html" target="_top" xlink:title="MarkerSet.h">
<polygon fill="white" stroke="black" points="341.068,-238.1 341.068,-260.5 416.711,-260.5 416.711,-238.1 341.068,-238.1"/>
<text text-anchor="middle" x="378.89" y="-245.7" font-family="-adobe-utopia-medium-i-normal--0-0-0-0-p-0-iso10646-1" font-size="12.00">MarkerSet.h</text>
</a>
</g>
</g>
<!-- Node8&#45;&gt;Node9 -->
<g id="edge9" class="edge"><title>Node8&#45;&gt;Node9</title>
<path fill="none" stroke="midnightblue" d="M181.797,-297.438C223.7,-287.416 287.354,-272.192 330.912,-261.775"/>
<polygon fill="midnightblue" stroke="midnightblue" points="331.794,-265.163 340.705,-259.432 330.166,-258.355 331.794,-265.163"/>
</g>
<!-- Node9&#45;&gt;Node3 -->
<g id="edge10" class="edge"><title>Node9&#45;&gt;Node3</title>
<path fill="none" stroke="midnightblue" d="M378.237,-237.932C376.717,-222.702 371.666,-194.345 354.89,-178.2 314.768,-139.59 268.128,-186.873 234.89,-142.2 215.695,-116.402 252.984,-97.1502 288.321,-85.4145"/>
<polygon fill="midnightblue" stroke="midnightblue" points="289.703,-88.6489 298.188,-82.3045 287.598,-81.9727 289.703,-88.6489"/>
</g>
<!-- Node10 -->
<g id="node10" class="node"><title>Node10</title>
<g id="a_node10"><a xlink:href="SNPs_8h.html" target="_top" xlink:title="SNPs.h">
<polygon fill="white" stroke="black" points="548.054,-178.7 548.054,-201.1 599.725,-201.1 599.725,-178.7 548.054,-178.7"/>
<text text-anchor="middle" x="573.89" y="-186.3" font-family="-adobe-utopia-medium-i-normal--0-0-0-0-p-0-iso10646-1" font-size="12.00">SNPs.h</text>
</a>
</g>
</g>
<!-- Node9&#45;&gt;Node10 -->
<g id="edge11" class="edge"><title>Node9&#45;&gt;Node10</title>
<path fill="none" stroke="midnightblue" d="M413.752,-238.038C448.848,-227.707 502.723,-211.848 538.134,-201.425"/>
<polygon fill="midnightblue" stroke="midnightblue" points="539.441,-204.689 548.045,-198.507 537.464,-197.974 539.441,-204.689"/>
</g>
<!-- Node17 -->
<g id="node17" class="node"><title>Node17</title>
<polygon fill="white" stroke="#bfbfbf" points="243.554,-119.3 243.554,-141.7 274.225,-141.7 274.225,-119.3 243.554,-119.3"/>
<text text-anchor="middle" x="258.89" y="-126.9" font-family="-adobe-utopia-medium-i-normal--0-0-0-0-p-0-iso10646-1" font-size="12.00">list</text>
</g>
<!-- Node9&#45;&gt;Node17 -->
<g id="edge29" class="edge"><title>Node9&#45;&gt;Node17</title>
<path fill="none" stroke="midnightblue" d="M384.385,-237.719C391.191,-222.979 400.448,-196.069 387.89,-178.2 360.728,-139.554 332.27,-158.376 287.89,-142.2 286.503,-141.695 285.08,-141.174 283.643,-140.648"/>
<polygon fill="midnightblue" stroke="midnightblue" points="284.826,-137.354 274.233,-137.187 282.41,-143.924 284.826,-137.354"/>
</g>
<!-- Node18 -->
<g id="node18" class="node"><title>Node18</title>
<polygon fill="white" stroke="#bfbfbf" points="206.061,-178.7 206.061,-201.1 345.718,-201.1 345.718,-178.7 206.061,-178.7"/>
<text text-anchor="middle" x="275.89" y="-186.3" font-family="-adobe-utopia-medium-i-normal--0-0-0-0-p-0-iso10646-1" font-size="12.00">boost/dynamic_bitset.hpp</text>
</g>
<!-- Node9&#45;&gt;Node18 -->
<g id="edge28" class="edge"><title>Node9&#45;&gt;Node18</title>
<path fill="none" stroke="midnightblue" d="M360.475,-238.038C344.609,-229.196 321.476,-216.305 303.411,-206.237"/>
<polygon fill="midnightblue" stroke="midnightblue" points="304.931,-203.077 294.492,-201.267 301.523,-209.192 304.931,-203.077"/>
</g>
<!-- Node10&#45;&gt;Node3 -->
<g id="edge12" class="edge"><title>Node10&#45;&gt;Node3</title>
<path fill="none" stroke="midnightblue" d="M547.892,-184.801C493.714,-176.038 372.594,-155.226 358.89,-142.2 345.504,-129.478 341.216,-108.37 339.996,-92.6343"/>
<polygon fill="midnightblue" stroke="midnightblue" points="343.48,-92.1675 339.565,-82.3227 336.486,-92.4603 343.48,-92.1675"/>
</g>
<!-- Node10&#45;&gt;Node4 -->
<g id="edge24" class="edge"><title>Node10&#45;&gt;Node4</title>
<path fill="none" stroke="midnightblue" d="M557.787,-178.571C545.112,-169.905 527.535,-156.652 514.89,-142.2 484.477,-107.444 459.388,-59.0294 446.746,-32.3296"/>
<polygon fill="midnightblue" stroke="midnightblue" points="449.768,-30.5272 442.386,-22.9276 443.418,-33.4721 449.768,-30.5272"/>
</g>
<!-- Node10&#45;&gt;Node5 -->
<g id="edge23" class="edge"><title>Node10&#45;&gt;Node5</title>
<path fill="none" stroke="midnightblue" d="M576.863,-178.355C580.318,-164.555 585.046,-139.672 580.89,-118.8 574.564,-87.0347 558.553,-52.8675 547.693,-32.1331"/>
<polygon fill="midnightblue" stroke="midnightblue" points="550.658,-30.2549 542.841,-23.1028 544.491,-33.5683 550.658,-30.2549"/>
</g>
<!-- Node11 -->
<g id="node11" class="node"><title>Node11</title>
<g id="a_node11"><a xlink:href="NucleotideMap_8h.html" target="_top" xlink:title="NucleotideMap.h">
<polygon fill="white" stroke="black" points="368.069,-119.3 368.069,-141.7 467.71,-141.7 467.71,-119.3 368.069,-119.3"/>
<text text-anchor="middle" x="417.89" y="-126.9" font-family="-adobe-utopia-medium-i-normal--0-0-0-0-p-0-iso10646-1" font-size="12.00">NucleotideMap.h</text>
</a>
</g>
</g>
<!-- Node10&#45;&gt;Node11 -->
<g id="edge13" class="edge"><title>Node10&#45;&gt;Node11</title>
<path fill="none" stroke="midnightblue" d="M547.779,-179.293C522.485,-169.986 483.867,-155.776 455.309,-145.268"/>
<polygon fill="midnightblue" stroke="midnightblue" points="456.259,-141.889 445.665,-141.72 453.842,-148.458 456.259,-141.889"/>
</g>
<!-- Node12 -->
<g id="node12" class="node"><title>Node12</title>
<g id="a_node12"><a xlink:href="SNP_8h.html" target="_top" xlink:title="SNP.h">
<polygon fill="white" stroke="black" points="524.387,-119.3 524.387,-141.7 571.392,-141.7 571.392,-119.3 524.387,-119.3"/>
<text text-anchor="middle" x="547.89" y="-126.9" font-family="-adobe-utopia-medium-i-normal--0-0-0-0-p-0-iso10646-1" font-size="12.00">SNP.h</text>
</a>
</g>
</g>
<!-- Node10&#45;&gt;Node12 -->
<g id="edge15" class="edge"><title>Node10&#45;&gt;Node12</title>
<path fill="none" stroke="midnightblue" d="M569.241,-178.638C565.809,-171.06 561.029,-160.508 556.862,-151.308"/>
<polygon fill="midnightblue" stroke="midnightblue" points="559.988,-149.726 552.673,-142.061 553.611,-152.615 559.988,-149.726"/>
</g>
<!-- Node13 -->
<g id="node13" class="node"><title>Node13</title>
<polygon fill="white" stroke="#bfbfbf" points="663.224,-59.9 663.224,-82.3 706.555,-82.3 706.555,-59.9 663.224,-59.9"/>
<text text-anchor="middle" x="684.89" y="-67.5" font-family="-adobe-utopia-medium-i-normal--0-0-0-0-p-0-iso10646-1" font-size="12.00">string</text>
</g>
<!-- Node10&#45;&gt;Node13 -->
<g id="edge25" class="edge"><title>Node10&#45;&gt;Node13</title>
<path fill="none" stroke="midnightblue" d="M583.74,-178.535C602.699,-158.585 644.462,-114.64 667.965,-89.9093"/>
<polygon fill="midnightblue" stroke="midnightblue" points="670.55,-92.2698 674.902,-82.6099 665.476,-87.4476 670.55,-92.2698"/>
</g>
<!-- Node14 -->
<g id="node14" class="node"><title>Node14</title>
<g id="a_node14"><a xlink:href="SNPPositionMap_8h.html" target="_top" xlink:title="SNPPositionMap.h">
<polygon fill="white" stroke="black" points="665.72,-119.3 665.72,-141.7 774.06,-141.7 774.06,-119.3 665.72,-119.3"/>
<text text-anchor="middle" x="719.89" y="-126.9" font-family="-adobe-utopia-medium-i-normal--0-0-0-0-p-0-iso10646-1" font-size="12.00">SNPPositionMap.h</text>
</a>
</g>
</g>
<!-- Node10&#45;&gt;Node14 -->
<g id="edge19" class="edge"><title>Node10&#45;&gt;Node14</title>
<path fill="none" stroke="midnightblue" d="M599.991,-178.638C623.41,-169.431 657.996,-155.833 684.012,-145.605"/>
<polygon fill="midnightblue" stroke="midnightblue" points="685.495,-148.783 693.521,-141.867 682.934,-142.268 685.495,-148.783"/>
</g>
<!-- Node10&#45;&gt;Node15 -->
<g id="edge26" class="edge"><title>Node10&#45;&gt;Node15</title>
<path fill="none" stroke="midnightblue" d="M599.836,-186.789C640.557,-182.681 721.186,-171.308 782.89,-142.2 810.906,-128.984 838.283,-105.75 855.344,-89.673"/>
<polygon fill="midnightblue" stroke="midnightblue" points="858.083,-91.8935 862.849,-82.4307 853.222,-86.8565 858.083,-91.8935"/>
</g>
<!-- Node16 -->
<g id="node16" class="node"><title>Node16</title>
<polygon fill="white" stroke="#bfbfbf" points="829.391,-119.3 829.391,-141.7 878.388,-141.7 878.388,-119.3 829.391,-119.3"/>
<text text-anchor="middle" x="853.89" y="-126.9" font-family="-adobe-utopia-medium-i-normal--0-0-0-0-p-0-iso10646-1" font-size="12.00">math.h</text>
</g>
<!-- Node10&#45;&gt;Node16 -->
<g id="edge22" class="edge"><title>Node10&#45;&gt;Node16</title>
<path fill="none" stroke="midnightblue" d="M599.828,-184.63C644.291,-177.147 737.82,-160.69 815.89,-142.2 816.957,-141.947 818.039,-141.684 819.13,-141.413"/>
<polygon fill="midnightblue" stroke="midnightblue" points="820.242,-144.74 829.03,-138.822 818.469,-137.968 820.242,-144.74"/>
</g>
<!-- Node10&#45;&gt;Node17 -->
<g id="edge27" class="edge"><title>Node10&#45;&gt;Node17</title>
<path fill="none" stroke="midnightblue" d="M547.844,-184.154C488.452,-173.331 343.588,-146.934 284.559,-136.178"/>
<polygon fill="midnightblue" stroke="midnightblue" points="285.042,-132.708 274.576,-134.358 283.787,-139.595 285.042,-132.708"/>
</g>
<!-- Node11&#45;&gt;Node3 -->
<g id="edge14" class="edge"><title>Node11&#45;&gt;Node3</title>
<path fill="none" stroke="midnightblue" d="M403.945,-119.238C392.37,-110.72 375.69,-98.4453 362.252,-88.5568"/>
<polygon fill="midnightblue" stroke="midnightblue" points="364.105,-85.5748 353.977,-82.4667 359.956,-91.2127 364.105,-85.5748"/>
</g>
<!-- Node12&#45;&gt;Node3 -->
<g id="edge16" class="edge"><title>Node12&#45;&gt;Node3</title>
<path fill="none" stroke="midnightblue" d="M524.029,-122.915C490.737,-113.728 429.646,-96.8692 386.995,-85.0994"/>
<polygon fill="midnightblue" stroke="midnightblue" points="387.688,-81.6597 377.117,-82.3734 385.826,-88.4075 387.688,-81.6597"/>
</g>
<!-- Node12&#45;&gt;Node4 -->
<g id="edge18" class="edge"><title>Node12&#45;&gt;Node4</title>
<path fill="none" stroke="midnightblue" d="M544.114,-118.982C538.453,-104.317 526.615,-77.4954 509.89,-59.4 498.11,-46.6551 482.143,-35.8396 468.238,-27.8366"/>
<polygon fill="midnightblue" stroke="midnightblue" points="469.91,-24.7613 459.464,-22.9915 466.526,-30.8892 469.91,-24.7613"/>
</g>
<!-- Node12&#45;&gt;Node13 -->
<g id="edge17" class="edge"><title>Node12&#45;&gt;Node13</title>
<path fill="none" stroke="midnightblue" d="M571.441,-119.633C594.134,-110.125 628.611,-95.6796 653.601,-85.2092"/>
<polygon fill="midnightblue" stroke="midnightblue" points="655.131,-88.3631 663.002,-81.2706 652.426,-81.9068 655.131,-88.3631"/>
</g>
<!-- Node14&#45;&gt;Node13 -->
<g id="edge21" class="edge"><title>Node14&#45;&gt;Node13</title>
<path fill="none" stroke="midnightblue" d="M713.632,-119.238C708.913,-111.499 702.303,-100.658 696.611,-91.3231"/>
<polygon fill="midnightblue" stroke="midnightblue" points="699.524,-89.3773 691.329,-82.6615 693.547,-93.0216 699.524,-89.3773"/>
</g>
<!-- Node14&#45;&gt;Node15 -->
<g id="edge20" class="edge"><title>Node14&#45;&gt;Node15</title>
<path fill="none" stroke="midnightblue" d="M747.243,-119.238C774.802,-108.899 817.117,-93.0237 844.9,-82.6005"/>
<polygon fill="midnightblue" stroke="midnightblue" points="846.291,-85.817 854.425,-79.0274 843.832,-79.263 846.291,-85.817"/>
</g>
<!-- Node19&#45;&gt;Node2 -->
<g id="edge41" class="edge"><title>Node19&#45;&gt;Node2</title>
<path fill="none" stroke="midnightblue" d="M577.26,-379.661C578.58,-387.072 578.953,-397.217 578.378,-406.171"/>
<polygon fill="midnightblue" stroke="midnightblue" points="574.886,-405.9 577.205,-416.238 581.839,-406.71 574.886,-405.9"/>
</g>
<!-- Node19&#45;&gt;Node3 -->
<g id="edge32" class="edge"><title>Node19&#45;&gt;Node3</title>
<path fill="none" stroke="midnightblue" d="M534.712,-363.642C456.077,-354.092 273.822,-319.645 196.89,-201.6 179.259,-174.547 219.315,-124.959 225.89,-118.8 242.397,-103.338 264.72,-92.6811 285.237,-85.4982"/>
<polygon fill="midnightblue" stroke="midnightblue" points="286.416,-88.795 294.818,-82.3416 284.225,-82.1464 286.416,-88.795"/>
</g>
<!-- Node19&#45;&gt;Node6 -->
<g id="edge46" class="edge"><title>Node19&#45;&gt;Node6</title>
<path fill="none" stroke="midnightblue" d="M609.22,-358.023C612.145,-357.432 615.061,-356.882 617.89,-356.4 690.392,-344.046 891.762,-369.085 946.89,-320.4 1032.55,-244.748 1027.17,-88.6835 1022.17,-32.9954"/>
<polygon fill="midnightblue" stroke="midnightblue" points="1025.64,-32.5777 1021.17,-22.9741 1018.68,-33.2719 1025.64,-32.5777"/>
</g>
<!-- Node19&#45;&gt;Node8 -->
<g id="edge33" class="edge"><title>Node19&#45;&gt;Node8</title>
<path fill="none" stroke="midnightblue" d="M534.637,-363.138C467.273,-355.819 320.786,-339.202 197.89,-320.4 196.616,-320.205 195.328,-320.004 194.029,-319.798"/>
<polygon fill="midnightblue" stroke="midnightblue" points="194.381,-316.309 183.945,-318.135 193.242,-323.216 194.381,-316.309"/>
</g>
<!-- Node19&#45;&gt;Node13 -->
<g id="edge42" class="edge"><title>Node19&#45;&gt;Node13</title>
<path fill="none" stroke="midnightblue" d="M601.191,-356.862C666.93,-332.095 825.228,-261.989 886.89,-142.2 920.444,-77.0133 781.99,-70.6854 716.965,-71.197"/>
<polygon fill="midnightblue" stroke="midnightblue" points="716.781,-67.6991 706.831,-71.3371 716.878,-74.6984 716.781,-67.6991"/>
</g>
<!-- Node19&#45;&gt;Node15 -->
<g id="edge44" class="edge"><title>Node19&#45;&gt;Node15</title>
<path fill="none" stroke="midnightblue" d="M609.224,-358.047C612.149,-357.451 615.062,-356.893 617.89,-356.4 685.558,-344.6 872.862,-365.248 924.89,-320.4 949.339,-299.324 943.89,-282.58 943.89,-250.3 943.89,-250.3 943.89,-250.3 943.89,-188.9 943.89,-148.744 912.867,-110.641 891.835,-89.4225"/>
<polygon fill="midnightblue" stroke="midnightblue" points="894.222,-86.8618 884.614,-82.3966 889.34,-91.8788 894.222,-86.8618"/>
</g>
<!-- Node19&#45;&gt;Node17 -->
<g id="edge43" class="edge"><title>Node19&#45;&gt;Node17</title>
<path fill="none" stroke="midnightblue" d="M563.319,-356.709C532.179,-319.046 425.809,-191.214 405.89,-178.2 367.588,-153.176 314.934,-140.753 284.145,-135.257"/>
<polygon fill="midnightblue" stroke="midnightblue" points="284.668,-131.796 274.227,-133.593 283.509,-138.699 284.668,-131.796"/>
</g>
<!-- Node20 -->
<g id="node20" class="node"><title>Node20</title>
<g id="a_node20"><a xlink:href="Match_8h.html" target="_top" xlink:title="Match.h">
<polygon fill="white" stroke="black" points="544.062,-297.5 544.062,-319.9 599.717,-319.9 599.717,-297.5 544.062,-297.5"/>
<text text-anchor="middle" x="571.89" y="-305.1" font-family="-adobe-utopia-medium-i-normal--0-0-0-0-p-0-iso10646-1" font-size="12.00">Match.h</text>
</a>
</g>
</g>
<!-- Node19&#45;&gt;Node20 -->
<g id="edge34" class="edge"><title>Node19&#45;&gt;Node20</title>
<path fill="none" stroke="midnightblue" d="M566.574,-356.838C565.227,-349.502 564.829,-339.379 565.379,-330.393"/>
<polygon fill="midnightblue" stroke="midnightblue" points="568.878,-330.59 566.519,-320.261 561.922,-329.807 568.878,-330.59"/>
</g>
<!-- Node22 -->
<g id="node22" class="node"><title>Node22</title>
<polygon fill="white" stroke="#bfbfbf" points="886.225,-297.5 886.225,-319.9 915.554,-319.9 915.554,-297.5 886.225,-297.5"/>
<text text-anchor="middle" x="900.89" y="-305.1" font-family="-adobe-utopia-medium-i-normal--0-0-0-0-p-0-iso10646-1" font-size="12.00">set</text>
</g>
<!-- Node19&#45;&gt;Node22 -->
<g id="edge45" class="edge"><title>Node19&#45;&gt;Node22</title>
<path fill="none" stroke="midnightblue" d="M609.238,-358.123C612.159,-357.51 615.069,-356.927 617.89,-356.4 729.968,-335.464 761.336,-348.291 871.89,-320.4 873.353,-320.031 874.845,-319.614 876.341,-319.163"/>
<polygon fill="midnightblue" stroke="midnightblue" points="877.687,-322.403 886.03,-315.872 875.435,-315.775 877.687,-322.403"/>
</g>
<!-- Node20&#45;&gt;Node3 -->
<g id="edge35" class="edge"><title>Node20&#45;&gt;Node3</title>
<path fill="none" stroke="midnightblue" d="M552.97,-297.393C538.913,-289.015 519.984,-276.13 506.89,-261 479.754,-229.645 495.887,-204.575 463.89,-178.2 420.266,-142.242 376.381,-186.993 341.89,-142.2 331.13,-128.228 331.906,-107.625 334.608,-92.3687"/>
<polygon fill="midnightblue" stroke="midnightblue" points="338.076,-92.8904 336.778,-82.3753 331.236,-91.4046 338.076,-92.8904"/>
</g>
<!-- Node20&#45;&gt;Node9 -->
<g id="edge37" class="edge"><title>Node20&#45;&gt;Node9</title>
<path fill="none" stroke="midnightblue" d="M543.826,-299.354C512.29,-289.975 460.665,-274.621 423.567,-263.588"/>
<polygon fill="midnightblue" stroke="midnightblue" points="424.1,-260.095 413.518,-260.599 422.105,-266.804 424.1,-260.095"/>
</g>
<!-- Node20&#45;&gt;Node10 -->
<g id="edge36" class="edge"><title>Node20&#45;&gt;Node10</title>
<path fill="none" stroke="midnightblue" d="M574.462,-297.395C576.67,-287.986 579.681,-273.658 580.89,-261 582.486,-244.284 580.356,-225.335 578.038,-211.356"/>
<polygon fill="midnightblue" stroke="midnightblue" points="581.45,-210.555 576.207,-201.349 574.564,-211.815 581.45,-210.555"/>
</g>
<!-- Node20&#45;&gt;Node16 -->
<g id="edge39" class="edge"><title>Node20&#45;&gt;Node16</title>
<path fill="none" stroke="midnightblue" d="M588.27,-297.465C635.483,-267.965 772.077,-182.618 828.768,-147.196"/>
<polygon fill="midnightblue" stroke="midnightblue" points="830.838,-150.03 837.464,-141.763 827.129,-144.094 830.838,-150.03"/>
</g>
<!-- Node20&#45;&gt;Node19 -->
<g id="edge38" class="edge"><title>Node20&#45;&gt;Node19</title>
<path fill="none" stroke="midnightblue" d="M577.26,-320.261C578.58,-327.672 578.953,-337.817 578.378,-346.771"/>
<polygon fill="midnightblue" stroke="midnightblue" points="574.886,-346.5 577.205,-356.838 581.839,-347.31 574.886,-346.5"/>
</g>
<!-- Node21 -->
<g id="node21" class="node"><title>Node21</title>
<polygon fill="white" stroke="#bfbfbf" points="516.224,-238.1 516.224,-260.5 571.555,-260.5 571.555,-238.1 516.224,-238.1"/>
<text text-anchor="middle" x="543.89" y="-245.7" font-family="-adobe-utopia-medium-i-normal--0-0-0-0-p-0-iso10646-1" font-size="12.00">iomanip</text>
</g>
<!-- Node20&#45;&gt;Node21 -->
<g id="edge40" class="edge"><title>Node20&#45;&gt;Node21</title>
<path fill="none" stroke="midnightblue" d="M566.884,-297.438C563.187,-289.86 558.04,-279.308 553.552,-270.108"/>
<polygon fill="midnightblue" stroke="midnightblue" points="556.571,-268.315 549.041,-260.861 550.28,-271.384 556.571,-268.315"/>
</g>
</g>
</svg>
