<?xml version="1.0" encoding="UTF-8" standalone="no"?>
<!DOCTYPE svg PUBLIC "-//W3C//DTD SVG 1.1//EN"
 "http://www.w3.org/Graphics/SVG/1.1/DTD/svg11.dtd">
<!-- Generated by graphviz version 2.38.0 (20140413.2041)
 -->
<!-- Title: Individuals.h Pages: 1 -->
<svg width="992pt" height="447pt"
 viewBox="0.00 0.00 992.01 447.20" xmlns="http://www.w3.org/2000/svg" xmlns:xlink="http://www.w3.org/1999/xlink">
<g id="graph0" class="graph" transform="scale(1 1) rotate(0) translate(4 443.2)">
<title>Individuals.h</title>
<polygon fill="white" stroke="none" points="-4,4 -4,-443.2 988.011,-443.2 988.011,4 -4,4"/>
<!-- Node1 -->
<g id="node1" class="node"><title>Node1</title>
<polygon fill="#bfbfbf" stroke="black" points="348.522,-416.3 348.522,-438.7 427.515,-438.7 427.515,-416.3 348.522,-416.3"/>
<text text-anchor="middle" x="388.018" y="-423.9" font-family="-adobe-utopia-medium-i-normal--0-0-0-0-p-0-iso10646-1" font-size="12.00">Individuals.h</text>
</g>
<!-- Node2 -->
<g id="node2" class="node"><title>Node2</title>
<g id="a_node2"><a xlink:href="BasicDefinitions_8h.html" target="_top" xlink:title="BasicDefinitions.h">
<polygon fill="white" stroke="black" points="131.194,-59.9 131.194,-82.3 236.843,-82.3 236.843,-59.9 131.194,-59.9"/>
<text text-anchor="middle" x="184.018" y="-67.5" font-family="-adobe-utopia-medium-i-normal--0-0-0-0-p-0-iso10646-1" font-size="12.00">BasicDefinitions.h</text>
</a>
</g>
</g>
<!-- Node1&#45;&gt;Node2 -->
<g id="edge1" class="edge"><title>Node1&#45;&gt;Node2</title>
<path fill="none" stroke="midnightblue" d="M348.256,-424.517C264.686,-417.833 73.9228,-388.624 18.0183,-261 -7.61472,-202.482 -9.81572,-159.99 39.0183,-118.8 62.0647,-99.3613 93.3393,-87.9744 120.944,-81.323"/>
<polygon fill="midnightblue" stroke="midnightblue" points="121.936,-84.6874 130.926,-79.0805 120.402,-77.8576 121.936,-84.6874"/>
</g>
<!-- Node7 -->
<g id="node7" class="node"><title>Node7</title>
<g id="a_node7"><a xlink:href="Chromosome_8h.html" target="_top" xlink:title="Chromosome.h">
<polygon fill="white" stroke="black" points="214.188,-297.5 214.188,-319.9 303.849,-319.9 303.849,-297.5 214.188,-297.5"/>
<text text-anchor="middle" x="259.018" y="-305.1" font-family="-adobe-utopia-medium-i-normal--0-0-0-0-p-0-iso10646-1" font-size="12.00">Chromosome.h</text>
</a>
</g>
</g>
<!-- Node1&#45;&gt;Node7 -->
<g id="edge6" class="edge"><title>Node1&#45;&gt;Node7</title>
<path fill="none" stroke="midnightblue" d="M376.57,-416.135C354.441,-396.099 305.581,-351.859 278.334,-327.189"/>
<polygon fill="midnightblue" stroke="midnightblue" points="280.388,-324.327 270.626,-320.21 275.69,-329.516 280.388,-324.327"/>
</g>
<!-- Node14 -->
<g id="node14" class="node"><title>Node14</title>
<polygon fill="white" stroke="#bfbfbf" points="774.688,-59.9 774.688,-82.3 811.349,-82.3 811.349,-59.9 774.688,-59.9"/>
<text text-anchor="middle" x="793.018" y="-67.5" font-family="-adobe-utopia-medium-i-normal--0-0-0-0-p-0-iso10646-1" font-size="12.00">map</text>
</g>
<!-- Node1&#45;&gt;Node14 -->
<g id="edge46" class="edge"><title>Node1&#45;&gt;Node14</title>
<path fill="none" stroke="midnightblue" d="M427.923,-425.941C548.69,-423.183 902.018,-406.816 902.018,-309.7 902.018,-309.7 902.018,-309.7 902.018,-188.9 902.018,-141.188 852.803,-104.859 820.513,-86.1582"/>
<polygon fill="midnightblue" stroke="midnightblue" points="821.948,-82.9513 811.509,-81.1415 818.541,-89.0662 821.948,-82.9513"/>
</g>
<!-- Node18 -->
<g id="node18" class="node"><title>Node18</title>
<g id="a_node18"><a xlink:href="Individual_8h.html" target="_top" xlink:title="Individual.h">
<polygon fill="white" stroke="black" points="350.855,-356.9 350.855,-379.3 425.181,-379.3 425.181,-356.9 350.855,-356.9"/>
<text text-anchor="middle" x="388.018" y="-364.5" font-family="-adobe-utopia-medium-i-normal--0-0-0-0-p-0-iso10646-1" font-size="12.00">Individual.h</text>
</a>
</g>
</g>
<!-- Node1&#45;&gt;Node18 -->
<g id="edge30" class="edge"><title>Node1&#45;&gt;Node18</title>
<path fill="none" stroke="midnightblue" d="M382.702,-416.238C381.356,-408.902 380.958,-398.779 381.507,-389.793"/>
<polygon fill="midnightblue" stroke="midnightblue" points="385.007,-389.99 382.648,-379.661 378.051,-389.207 385.007,-389.99"/>
</g>
<!-- Node22 -->
<g id="node22" class="node"><title>Node22</title>
<polygon fill="white" stroke="#bfbfbf" points="930.026,-356.9 930.026,-379.3 984.011,-379.3 984.011,-356.9 930.026,-356.9"/>
<text text-anchor="middle" x="957.018" y="-364.5" font-family="-adobe-utopia-medium-i-normal--0-0-0-0-p-0-iso10646-1" font-size="12.00">ostream</text>
</g>
<!-- Node1&#45;&gt;Node22 -->
<g id="edge47" class="edge"><title>Node1&#45;&gt;Node22</title>
<path fill="none" stroke="midnightblue" d="M427.721,-425.253C516.067,-421.984 735.357,-411.137 916.018,-379.8 917.282,-379.581 918.564,-379.342 919.856,-379.087"/>
<polygon fill="midnightblue" stroke="midnightblue" points="920.806,-382.461 929.81,-376.878 919.29,-375.627 920.806,-382.461"/>
</g>
<!-- Node3 -->
<g id="node3" class="node"><title>Node3</title>
<polygon fill="white" stroke="#bfbfbf" points="374.027,-0.5 374.027,-22.9 420.01,-22.9 420.01,-0.5 374.027,-0.5"/>
<text text-anchor="middle" x="397.018" y="-8.1" font-family="-adobe-utopia-medium-i-normal--0-0-0-0-p-0-iso10646-1" font-size="12.00">vector</text>
</g>
<!-- Node2&#45;&gt;Node3 -->
<g id="edge2" class="edge"><title>Node2&#45;&gt;Node3</title>
<path fill="none" stroke="midnightblue" d="M222.098,-59.838C262.349,-48.9911 325.212,-32.0506 363.602,-21.7052"/>
<polygon fill="midnightblue" stroke="midnightblue" points="364.997,-24.9542 373.742,-18.9726 363.175,-18.1953 364.997,-24.9542"/>
</g>
<!-- Node4 -->
<g id="node4" class="node"><title>Node4</title>
<polygon fill="white" stroke="#bfbfbf" points="475.029,-0.5 475.029,-22.9 527.008,-22.9 527.008,-0.5 475.029,-0.5"/>
<text text-anchor="middle" x="501.018" y="-8.1" font-family="-adobe-utopia-medium-i-normal--0-0-0-0-p-0-iso10646-1" font-size="12.00">fstream</text>
</g>
<!-- Node2&#45;&gt;Node4 -->
<g id="edge3" class="edge"><title>Node2&#45;&gt;Node4</title>
<path fill="none" stroke="midnightblue" d="M237.077,-60.4925C301.654,-48.7994 408.968,-29.3677 464.785,-19.2608"/>
<polygon fill="midnightblue" stroke="midnightblue" points="465.694,-22.6532 474.911,-17.4274 464.447,-15.7652 465.694,-22.6532"/>
</g>
<!-- Node5 -->
<g id="node5" class="node"><title>Node5</title>
<polygon fill="white" stroke="#bfbfbf" points="0.358516,-0.5 0.358516,-22.9 57.6781,-22.9 57.6781,-0.5 0.358516,-0.5"/>
<text text-anchor="middle" x="29.0183" y="-8.1" font-family="-adobe-utopia-medium-i-normal--0-0-0-0-p-0-iso10646-1" font-size="12.00">iostream</text>
</g>
<!-- Node2&#45;&gt;Node5 -->
<g id="edge4" class="edge"><title>Node2&#45;&gt;Node5</title>
<path fill="none" stroke="midnightblue" d="M156.307,-59.838C131.258,-50.5616 94.1735,-36.8284 66.486,-26.5751"/>
<polygon fill="midnightblue" stroke="midnightblue" points="67.3433,-23.1604 56.7502,-22.9697 64.9123,-29.7247 67.3433,-23.1604"/>
</g>
<!-- Node6 -->
<g id="node6" class="node"><title>Node6</title>
<polygon fill="white" stroke="#bfbfbf" points="157.853,-0.5 157.853,-22.9 210.184,-22.9 210.184,-0.5 157.853,-0.5"/>
<text text-anchor="middle" x="184.018" y="-8.1" font-family="-adobe-utopia-medium-i-normal--0-0-0-0-p-0-iso10646-1" font-size="12.00">string.h</text>
</g>
<!-- Node2&#45;&gt;Node6 -->
<g id="edge5" class="edge"><title>Node2&#45;&gt;Node6</title>
<path fill="none" stroke="midnightblue" d="M184.018,-59.838C184.018,-52.5019 184.018,-42.3785 184.018,-33.3932"/>
<polygon fill="midnightblue" stroke="midnightblue" points="187.518,-33.2614 184.018,-23.2615 180.518,-33.2615 187.518,-33.2614"/>
</g>
<!-- Node7&#45;&gt;Node2 -->
<g id="edge7" class="edge"><title>Node7&#45;&gt;Node2</title>
<path fill="none" stroke="midnightblue" d="M235.804,-297.494C203.713,-281.984 146.937,-249.167 122.018,-201.6 104.791,-168.716 93.1931,-151.364 111.018,-118.8 118.649,-104.86 132.41,-94.4737 145.944,-87.081"/>
<polygon fill="midnightblue" stroke="midnightblue" points="147.832,-90.0492 155.199,-82.4344 144.691,-83.7933 147.832,-90.0492"/>
</g>
<!-- Node7&#45;&gt;Node3 -->
<g id="edge29" class="edge"><title>Node7&#45;&gt;Node3</title>
<path fill="none" stroke="midnightblue" d="M264.567,-297.249C274.564,-278.325 296.128,-237.053 313.018,-201.6 342.117,-140.522 373.906,-66.9733 388.647,-32.4341"/>
<polygon fill="midnightblue" stroke="midnightblue" points="391.956,-33.5964 392.653,-23.0245 385.516,-30.8546 391.956,-33.5964"/>
</g>
<!-- Node8 -->
<g id="node8" class="node"><title>Node8</title>
<g id="a_node8"><a xlink:href="MarkerSet_8h.html" target="_top" xlink:title="MarkerSet.h">
<polygon fill="white" stroke="black" points="190.197,-238.1 190.197,-260.5 265.84,-260.5 265.84,-238.1 190.197,-238.1"/>
<text text-anchor="middle" x="228.018" y="-245.7" font-family="-adobe-utopia-medium-i-normal--0-0-0-0-p-0-iso10646-1" font-size="12.00">MarkerSet.h</text>
</a>
</g>
</g>
<!-- Node7&#45;&gt;Node8 -->
<g id="edge8" class="edge"><title>Node7&#45;&gt;Node8</title>
<path fill="none" stroke="midnightblue" d="M253.476,-297.438C249.34,-289.779 243.563,-279.083 238.558,-269.815"/>
<polygon fill="midnightblue" stroke="midnightblue" points="241.554,-267.997 233.722,-260.861 235.395,-271.323 241.554,-267.997"/>
</g>
<!-- Node8&#45;&gt;Node2 -->
<g id="edge9" class="edge"><title>Node8&#45;&gt;Node2</title>
<path fill="none" stroke="midnightblue" d="M197.608,-238.072C179.129,-230.515 156.241,-218.573 141.018,-201.6 122.008,-180.403 122.451,-170.15 117.018,-142.2 115.034,-131.991 112.206,-128.02 117.018,-118.8 124.092,-105.246 137.094,-94.8253 149.774,-87.3024"/>
<polygon fill="midnightblue" stroke="midnightblue" points="151.767,-90.202 158.862,-82.3335 148.409,-84.0602 151.767,-90.202"/>
</g>
<!-- Node9 -->
<g id="node9" class="node"><title>Node9</title>
<g id="a_node9"><a xlink:href="SNPs_8h.html" target="_top" xlink:title="SNPs.h">
<polygon fill="white" stroke="black" points="446.183,-178.7 446.183,-201.1 497.854,-201.1 497.854,-178.7 446.183,-178.7"/>
<text text-anchor="middle" x="472.018" y="-186.3" font-family="-adobe-utopia-medium-i-normal--0-0-0-0-p-0-iso10646-1" font-size="12.00">SNPs.h</text>
</a>
</g>
</g>
<!-- Node8&#45;&gt;Node9 -->
<g id="edge10" class="edge"><title>Node8&#45;&gt;Node9</title>
<path fill="none" stroke="midnightblue" d="M265.876,-239.394C312.418,-228.445 390.816,-210.002 436.338,-199.294"/>
<polygon fill="midnightblue" stroke="midnightblue" points="437.142,-202.7 446.075,-197.003 435.539,-195.886 437.142,-202.7"/>
</g>
<!-- Node16 -->
<g id="node16" class="node"><title>Node16</title>
<polygon fill="white" stroke="#bfbfbf" points="125.683,-119.3 125.683,-141.7 156.354,-141.7 156.354,-119.3 125.683,-119.3"/>
<text text-anchor="middle" x="141.018" y="-126.9" font-family="-adobe-utopia-medium-i-normal--0-0-0-0-p-0-iso10646-1" font-size="12.00">list</text>
</g>
<!-- Node8&#45;&gt;Node16 -->
<g id="edge28" class="edge"><title>Node8&#45;&gt;Node16</title>
<path fill="none" stroke="midnightblue" d="M201.832,-237.932C185.86,-230.261 166.392,-218.246 155.018,-201.6 145.087,-187.065 141.863,-167.116 140.963,-152.215"/>
<polygon fill="midnightblue" stroke="midnightblue" points="144.454,-151.868 140.655,-141.978 137.457,-152.079 144.454,-151.868"/>
</g>
<!-- Node17 -->
<g id="node17" class="node"><title>Node17</title>
<polygon fill="white" stroke="#bfbfbf" points="164.19,-178.7 164.19,-201.1 303.847,-201.1 303.847,-178.7 164.19,-178.7"/>
<text text-anchor="middle" x="234.018" y="-186.3" font-family="-adobe-utopia-medium-i-normal--0-0-0-0-p-0-iso10646-1" font-size="12.00">boost/dynamic_bitset.hpp</text>
</g>
<!-- Node8&#45;&gt;Node17 -->
<g id="edge27" class="edge"><title>Node8&#45;&gt;Node17</title>
<path fill="none" stroke="midnightblue" d="M229.091,-238.038C229.858,-230.702 230.916,-220.579 231.855,-211.593"/>
<polygon fill="midnightblue" stroke="midnightblue" points="235.356,-211.771 232.914,-201.461 228.394,-211.043 235.356,-211.771"/>
</g>
<!-- Node9&#45;&gt;Node2 -->
<g id="edge11" class="edge"><title>Node9&#45;&gt;Node2</title>
<path fill="none" stroke="midnightblue" d="M451.804,-178.678C423.116,-164.365 368.765,-137.958 321.018,-118.8 289.966,-106.341 254.155,-94.2087 226.935,-85.434"/>
<polygon fill="midnightblue" stroke="midnightblue" points="227.91,-82.0716 217.319,-82.3588 225.778,-88.7389 227.91,-82.0716"/>
</g>
<!-- Node9&#45;&gt;Node3 -->
<g id="edge23" class="edge"><title>Node9&#45;&gt;Node3</title>
<path fill="none" stroke="midnightblue" d="M471.981,-178.627C471.647,-164.702 470.018,-139.23 463.018,-118.8 451.504,-85.1918 427.712,-51.1634 412.063,-31.0059"/>
<polygon fill="midnightblue" stroke="midnightblue" points="414.677,-28.669 405.717,-23.0146 409.195,-33.0223 414.677,-28.669"/>
</g>
<!-- Node9&#45;&gt;Node4 -->
<g id="edge22" class="edge"><title>Node9&#45;&gt;Node4</title>
<path fill="none" stroke="midnightblue" d="M478.941,-178.676C484.7,-169.553 492.501,-155.602 496.018,-142.2 505.869,-104.665 504.716,-58.9246 502.915,-33.0733"/>
<polygon fill="midnightblue" stroke="midnightblue" points="506.395,-32.6825 502.106,-22.9944 499.417,-33.2423 506.395,-32.6825"/>
</g>
<!-- Node10 -->
<g id="node10" class="node"><title>Node10</title>
<g id="a_node10"><a xlink:href="NucleotideMap_8h.html" target="_top" xlink:title="NucleotideMap.h">
<polygon fill="white" stroke="black" points="212.198,-119.3 212.198,-141.7 311.839,-141.7 311.839,-119.3 212.198,-119.3"/>
<text text-anchor="middle" x="262.018" y="-126.9" font-family="-adobe-utopia-medium-i-normal--0-0-0-0-p-0-iso10646-1" font-size="12.00">NucleotideMap.h</text>
</a>
</g>
</g>
<!-- Node9&#45;&gt;Node10 -->
<g id="edge12" class="edge"><title>Node9&#45;&gt;Node10</title>
<path fill="none" stroke="midnightblue" d="M445.846,-181.746C411.747,-172.426 351.509,-155.961 309.309,-144.426"/>
<polygon fill="midnightblue" stroke="midnightblue" points="310.1,-141.014 299.531,-141.753 308.254,-147.766 310.1,-141.014"/>
</g>
<!-- Node11 -->
<g id="node11" class="node"><title>Node11</title>
<g id="a_node11"><a xlink:href="SNP_8h.html" target="_top" xlink:title="SNP.h">
<polygon fill="white" stroke="black" points="406.516,-119.3 406.516,-141.7 453.521,-141.7 453.521,-119.3 406.516,-119.3"/>
<text text-anchor="middle" x="430.018" y="-126.9" font-family="-adobe-utopia-medium-i-normal--0-0-0-0-p-0-iso10646-1" font-size="12.00">SNP.h</text>
</a>
</g>
</g>
<!-- Node9&#45;&gt;Node11 -->
<g id="edge14" class="edge"><title>Node9&#45;&gt;Node11</title>
<path fill="none" stroke="midnightblue" d="M464.51,-178.638C458.729,-170.738 450.583,-159.605 443.659,-150.142"/>
<polygon fill="midnightblue" stroke="midnightblue" points="446.476,-148.065 437.746,-142.061 440.827,-152.199 446.476,-148.065"/>
</g>
<!-- Node12 -->
<g id="node12" class="node"><title>Node12</title>
<polygon fill="white" stroke="#bfbfbf" points="583.353,-59.9 583.353,-82.3 626.684,-82.3 626.684,-59.9 583.353,-59.9"/>
<text text-anchor="middle" x="605.018" y="-67.5" font-family="-adobe-utopia-medium-i-normal--0-0-0-0-p-0-iso10646-1" font-size="12.00">string</text>
</g>
<!-- Node9&#45;&gt;Node12 -->
<g id="edge24" class="edge"><title>Node9&#45;&gt;Node12</title>
<path fill="none" stroke="midnightblue" d="M486.726,-178.668C499.565,-169.541 518.515,-155.587 534.018,-142.2 553.487,-125.388 574.26,-104.493 588.273,-89.9082"/>
<polygon fill="midnightblue" stroke="midnightblue" points="590.947,-92.1754 595.311,-82.5211 585.879,-87.3468 590.947,-92.1754"/>
</g>
<!-- Node13 -->
<g id="node13" class="node"><title>Node13</title>
<g id="a_node13"><a xlink:href="SNPPositionMap_8h.html" target="_top" xlink:title="SNPPositionMap.h">
<polygon fill="white" stroke="black" points="585.848,-119.3 585.848,-141.7 694.188,-141.7 694.188,-119.3 585.848,-119.3"/>
<text text-anchor="middle" x="640.018" y="-126.9" font-family="-adobe-utopia-medium-i-normal--0-0-0-0-p-0-iso10646-1" font-size="12.00">SNPPositionMap.h</text>
</a>
</g>
</g>
<!-- Node9&#45;&gt;Node13 -->
<g id="edge18" class="edge"><title>Node9&#45;&gt;Node13</title>
<path fill="none" stroke="midnightblue" d="M497.9,-180.057C525.225,-170.721 568.642,-155.887 600.304,-145.069"/>
<polygon fill="midnightblue" stroke="midnightblue" points="601.804,-148.255 610.135,-141.71 599.541,-141.631 601.804,-148.255"/>
</g>
<!-- Node9&#45;&gt;Node14 -->
<g id="edge25" class="edge"><title>Node9&#45;&gt;Node14</title>
<path fill="none" stroke="midnightblue" d="M498.164,-187.512C542.281,-184.335 633.491,-174.138 703.018,-142.2 718.099,-135.273 752.006,-107.373 773.626,-88.9286"/>
<polygon fill="midnightblue" stroke="midnightblue" points="775.939,-91.556 781.246,-82.3861 771.379,-86.245 775.939,-91.556"/>
</g>
<!-- Node15 -->
<g id="node15" class="node"><title>Node15</title>
<polygon fill="white" stroke="#bfbfbf" points="749.52,-119.3 749.52,-141.7 798.517,-141.7 798.517,-119.3 749.52,-119.3"/>
<text text-anchor="middle" x="774.018" y="-126.9" font-family="-adobe-utopia-medium-i-normal--0-0-0-0-p-0-iso10646-1" font-size="12.00">math.h</text>
</g>
<!-- Node9&#45;&gt;Node15 -->
<g id="edge21" class="edge"><title>Node9&#45;&gt;Node15</title>
<path fill="none" stroke="midnightblue" d="M498.046,-185.174C545.598,-178.173 649.581,-161.963 736.018,-142.2 737.087,-141.956 738.171,-141.7 739.264,-141.435"/>
<polygon fill="midnightblue" stroke="midnightblue" points="740.364,-144.766 749.172,-138.878 738.614,-137.988 740.364,-144.766"/>
</g>
<!-- Node9&#45;&gt;Node16 -->
<g id="edge26" class="edge"><title>Node9&#45;&gt;Node16</title>
<path fill="none" stroke="midnightblue" d="M446.045,-184.396C384.08,-173.65 228.174,-146.614 166.603,-135.937"/>
<polygon fill="midnightblue" stroke="midnightblue" points="167.025,-132.458 156.574,-134.198 165.829,-139.355 167.025,-132.458"/>
</g>
<!-- Node10&#45;&gt;Node2 -->
<g id="edge13" class="edge"><title>Node10&#45;&gt;Node2</title>
<path fill="none" stroke="midnightblue" d="M248.073,-119.238C236.499,-110.72 219.819,-98.4453 206.381,-88.5568"/>
<polygon fill="midnightblue" stroke="midnightblue" points="208.234,-85.5748 198.105,-82.4667 204.085,-91.2127 208.234,-85.5748"/>
</g>
<!-- Node11&#45;&gt;Node2 -->
<g id="edge15" class="edge"><title>Node11&#45;&gt;Node2</title>
<path fill="none" stroke="midnightblue" d="M406.431,-123.996C367.906,-115.007 290.518,-96.95 237.982,-84.6916"/>
<polygon fill="midnightblue" stroke="midnightblue" points="238.685,-81.2616 228.151,-82.3977 237.094,-88.0785 238.685,-81.2616"/>
</g>
<!-- Node11&#45;&gt;Node3 -->
<g id="edge17" class="edge"><title>Node11&#45;&gt;Node3</title>
<path fill="none" stroke="midnightblue" d="M427.09,-119.135C421.648,-99.8758 409.889,-58.2548 402.795,-33.1461"/>
<polygon fill="midnightblue" stroke="midnightblue" points="406.075,-31.8815 399.988,-23.2099 399.339,-33.7848 406.075,-31.8815"/>
</g>
<!-- Node11&#45;&gt;Node12 -->
<g id="edge16" class="edge"><title>Node11&#45;&gt;Node12</title>
<path fill="none" stroke="midnightblue" d="M453.62,-121.759C484.613,-111.593 539.125,-93.713 573.588,-82.4092"/>
<polygon fill="midnightblue" stroke="midnightblue" points="574.754,-85.7101 583.166,-79.2677 572.573,-79.0587 574.754,-85.7101"/>
</g>
<!-- Node13&#45;&gt;Node12 -->
<g id="edge20" class="edge"><title>Node13&#45;&gt;Node12</title>
<path fill="none" stroke="midnightblue" d="M633.761,-119.238C629.042,-111.499 622.432,-100.658 616.74,-91.3231"/>
<polygon fill="midnightblue" stroke="midnightblue" points="619.653,-89.3773 611.458,-82.6615 613.676,-93.0216 619.653,-89.3773"/>
</g>
<!-- Node13&#45;&gt;Node14 -->
<g id="edge19" class="edge"><title>Node13&#45;&gt;Node14</title>
<path fill="none" stroke="midnightblue" d="M667.372,-119.238C694.931,-108.899 737.246,-93.0237 765.029,-82.6005"/>
<polygon fill="midnightblue" stroke="midnightblue" points="766.42,-85.817 774.553,-79.0274 763.961,-79.263 766.42,-85.817"/>
</g>
<!-- Node18&#45;&gt;Node1 -->
<g id="edge40" class="edge"><title>Node18&#45;&gt;Node1</title>
<path fill="none" stroke="midnightblue" d="M393.388,-379.661C394.709,-387.072 395.082,-397.217 394.506,-406.171"/>
<polygon fill="midnightblue" stroke="midnightblue" points="391.014,-405.9 393.334,-416.238 397.967,-406.71 391.014,-405.9"/>
</g>
<!-- Node18&#45;&gt;Node2 -->
<g id="edge31" class="edge"><title>Node18&#45;&gt;Node2</title>
<path fill="none" stroke="midnightblue" d="M350.57,-363.219C257.289,-352.52 22.0183,-318.75 22.0183,-250.3 22.0183,-250.3 22.0183,-250.3 22.0183,-188.9 22.0183,-133.107 86.0247,-101.306 133.572,-85.3792"/>
<polygon fill="midnightblue" stroke="midnightblue" points="134.686,-88.6978 143.139,-82.3109 132.548,-82.0322 134.686,-88.6978"/>
</g>
<!-- Node18&#45;&gt;Node5 -->
<g id="edge45" class="edge"><title>Node18&#45;&gt;Node5</title>
<path fill="none" stroke="midnightblue" d="M350.613,-365.21C276.08,-360.884 112.081,-348.4 64.0183,-320.4 -33.9463,-263.329 5.73336,-91.496 22.7658,-32.6914"/>
<polygon fill="midnightblue" stroke="midnightblue" points="26.1282,-33.6636 25.6443,-23.0798 19.4225,-31.6553 26.1282,-33.6636"/>
</g>
<!-- Node18&#45;&gt;Node7 -->
<g id="edge32" class="edge"><title>Node18&#45;&gt;Node7</title>
<path fill="none" stroke="midnightblue" d="M364.956,-356.838C344.537,-347.753 314.511,-334.392 291.634,-324.213"/>
<polygon fill="midnightblue" stroke="midnightblue" points="292.875,-320.934 282.316,-320.067 290.03,-327.33 292.875,-320.934"/>
</g>
<!-- Node18&#45;&gt;Node12 -->
<g id="edge41" class="edge"><title>Node18&#45;&gt;Node12</title>
<path fill="none" stroke="midnightblue" d="M425.362,-365.146C531.283,-358.593 826.018,-332.934 826.018,-250.3 826.018,-250.3 826.018,-250.3 826.018,-188.9 826.018,-156.62 830.267,-141.193 807.018,-118.8 782.936,-95.6043 687.42,-81.4802 636.836,-75.4774"/>
<polygon fill="midnightblue" stroke="midnightblue" points="637.1,-71.9848 626.765,-74.3194 636.3,-78.939 637.1,-71.9848"/>
</g>
<!-- Node18&#45;&gt;Node14 -->
<g id="edge43" class="edge"><title>Node18&#45;&gt;Node14</title>
<path fill="none" stroke="midnightblue" d="M425.369,-365.928C537.582,-361.405 864.018,-340.496 864.018,-250.3 864.018,-250.3 864.018,-250.3 864.018,-188.9 864.018,-148.744 832.996,-110.641 811.963,-89.4225"/>
<polygon fill="midnightblue" stroke="midnightblue" points="814.35,-86.8618 804.743,-82.3966 809.469,-91.8788 814.35,-86.8618"/>
</g>
<!-- Node18&#45;&gt;Node16 -->
<g id="edge42" class="edge"><title>Node18&#45;&gt;Node16</title>
<path fill="none" stroke="midnightblue" d="M377.824,-356.842C369.49,-347.915 357.984,-334.264 351.018,-320.4 321.65,-261.945 359.183,-224.55 313.018,-178.2 307.764,-172.925 213.152,-149.176 166.543,-137.72"/>
<polygon fill="midnightblue" stroke="midnightblue" points="167.135,-134.262 156.59,-135.281 165.47,-141.061 167.135,-134.262"/>
</g>
<!-- Node19 -->
<g id="node19" class="node"><title>Node19</title>
<g id="a_node19"><a xlink:href="Match_8h.html" target="_top" xlink:title="Match.h">
<polygon fill="white" stroke="black" points="360.191,-297.5 360.191,-319.9 415.846,-319.9 415.846,-297.5 360.191,-297.5"/>
<text text-anchor="middle" x="388.018" y="-305.1" font-family="-adobe-utopia-medium-i-normal--0-0-0-0-p-0-iso10646-1" font-size="12.00">Match.h</text>
</a>
</g>
</g>
<!-- Node18&#45;&gt;Node19 -->
<g id="edge33" class="edge"><title>Node18&#45;&gt;Node19</title>
<path fill="none" stroke="midnightblue" d="M382.702,-356.838C381.356,-349.502 380.958,-339.379 381.507,-330.393"/>
<polygon fill="midnightblue" stroke="midnightblue" points="385.007,-330.59 382.648,-320.261 378.051,-329.807 385.007,-330.59"/>
</g>
<!-- Node21 -->
<g id="node21" class="node"><title>Node21</title>
<polygon fill="white" stroke="#bfbfbf" points="433.354,-297.5 433.354,-319.9 462.683,-319.9 462.683,-297.5 433.354,-297.5"/>
<text text-anchor="middle" x="448.018" y="-305.1" font-family="-adobe-utopia-medium-i-normal--0-0-0-0-p-0-iso10646-1" font-size="12.00">set</text>
</g>
<!-- Node18&#45;&gt;Node21 -->
<g id="edge44" class="edge"><title>Node18&#45;&gt;Node21</title>
<path fill="none" stroke="midnightblue" d="M398.745,-356.838C407.34,-348.615 419.596,-336.89 429.734,-327.192"/>
<polygon fill="midnightblue" stroke="midnightblue" points="432.172,-329.703 436.978,-320.261 427.333,-324.645 432.172,-329.703"/>
</g>
<!-- Node19&#45;&gt;Node2 -->
<g id="edge34" class="edge"><title>Node19&#45;&gt;Node2</title>
<path fill="none" stroke="midnightblue" d="M387.855,-297.198C386.88,-272.587 380.89,-210.81 346.018,-178.2 298.149,-133.435 249.778,-188.122 203.018,-142.2 189.915,-129.332 185.572,-108.415 184.262,-92.7736"/>
<polygon fill="midnightblue" stroke="midnightblue" points="187.744,-92.3251 183.762,-82.507 180.753,-92.6653 187.744,-92.3251"/>
</g>
<!-- Node19&#45;&gt;Node8 -->
<g id="edge36" class="edge"><title>Node19&#45;&gt;Node8</title>
<path fill="none" stroke="midnightblue" d="M360.148,-297.702C334.199,-288.392 295.289,-274.433 266.406,-264.072"/>
<polygon fill="midnightblue" stroke="midnightblue" points="267.241,-260.653 256.646,-260.57 264.877,-267.242 267.241,-260.653"/>
</g>
<!-- Node19&#45;&gt;Node9 -->
<g id="edge35" class="edge"><title>Node19&#45;&gt;Node9</title>
<path fill="none" stroke="midnightblue" d="M392.791,-297.213C399.469,-283.046 412.434,-257.3 427.018,-237.6 434.712,-227.208 444.559,-216.741 453.079,-208.358"/>
<polygon fill="midnightblue" stroke="midnightblue" points="455.636,-210.756 460.431,-201.308 450.791,-205.704 455.636,-210.756"/>
</g>
<!-- Node19&#45;&gt;Node15 -->
<g id="edge38" class="edge"><title>Node19&#45;&gt;Node15</title>
<path fill="none" stroke="midnightblue" d="M413.758,-297.498C436.765,-288.276 471.329,-274.166 501.018,-261 590.258,-221.425 694.016,-170.955 744.028,-146.343"/>
<polygon fill="midnightblue" stroke="midnightblue" points="745.872,-149.336 753.294,-141.776 742.777,-143.057 745.872,-149.336"/>
</g>
<!-- Node19&#45;&gt;Node18 -->
<g id="edge37" class="edge"><title>Node19&#45;&gt;Node18</title>
<path fill="none" stroke="midnightblue" d="M393.388,-320.261C394.709,-327.672 395.082,-337.817 394.506,-346.771"/>
<polygon fill="midnightblue" stroke="midnightblue" points="391.014,-346.5 393.334,-356.838 397.967,-347.31 391.014,-346.5"/>
</g>
<!-- Node20 -->
<g id="node20" class="node"><title>Node20</title>
<polygon fill="white" stroke="#bfbfbf" points="436.353,-238.1 436.353,-260.5 491.684,-260.5 491.684,-238.1 436.353,-238.1"/>
<text text-anchor="middle" x="464.018" y="-245.7" font-family="-adobe-utopia-medium-i-normal--0-0-0-0-p-0-iso10646-1" font-size="12.00">iomanip</text>
</g>
<!-- Node19&#45;&gt;Node20 -->
<g id="edge39" class="edge"><title>Node19&#45;&gt;Node20</title>
<path fill="none" stroke="midnightblue" d="M401.606,-297.438C412.883,-288.92 429.136,-276.645 442.229,-266.757"/>
<polygon fill="midnightblue" stroke="midnightblue" points="444.422,-269.486 450.292,-260.667 440.203,-263.901 444.422,-269.486"/>
</g>
</g>
</svg>
