<?xml version="1.0" encoding="UTF-8" standalone="no"?>
<!DOCTYPE svg PUBLIC "-//W3C//DTD SVG 1.1//EN"
 "http://www.w3.org/Graphics/SVG/1.1/DTD/svg11.dtd">
<!-- Generated by graphviz version 2.38.0 (20140413.2041)
 -->
<!-- Title: MarkerSet.h Pages: 1 -->
<svg width="620pt" height="269pt"
 viewBox="0.00 0.00 620.33 269.00" xmlns="http://www.w3.org/2000/svg" xmlns:xlink="http://www.w3.org/1999/xlink">
<g id="graph0" class="graph" transform="scale(1 1) rotate(0) translate(4 265)">
<title>MarkerSet.h</title>
<polygon fill="white" stroke="none" points="-4,4 -4,-265 616.325,-265 616.325,4 -4,4"/>
<!-- Node1 -->
<g id="node1" class="node"><title>Node1</title>
<polygon fill="#bfbfbf" stroke="black" points="315.169,-238.1 315.169,-260.5 390.811,-260.5 390.811,-238.1 315.169,-238.1"/>
<text text-anchor="middle" x="352.99" y="-245.7" font-family="-adobe-utopia-medium-i-normal--0-0-0-0-p-0-iso10646-1" font-size="12.00">MarkerSet.h</text>
</g>
<!-- Node2 -->
<g id="node2" class="node"><title>Node2</title>
<g id="a_node2"><a xlink:href="BasicDefinitions_8h.html" target="_top" xlink:title="BasicDefinitions.h">
<polygon fill="white" stroke="black" points="79.1656,-59.9 79.1656,-82.3 184.814,-82.3 184.814,-59.9 79.1656,-59.9"/>
<text text-anchor="middle" x="131.99" y="-67.5" font-family="-adobe-utopia-medium-i-normal--0-0-0-0-p-0-iso10646-1" font-size="12.00">BasicDefinitions.h</text>
</a>
</g>
</g>
<!-- Node1&#45;&gt;Node2 -->
<g id="edge1" class="edge"><title>Node1&#45;&gt;Node2</title>
<path fill="none" stroke="midnightblue" d="M315.105,-248.244C247.556,-245.838 107.548,-229.916 44.9898,-142.2 28.17,-118.616 60.5799,-98.6927 90.5068,-86.1846"/>
<polygon fill="midnightblue" stroke="midnightblue" points="92.067,-89.3311 100.071,-82.3889 89.4847,-82.8248 92.067,-89.3311"/>
</g>
<!-- Node7 -->
<g id="node7" class="node"><title>Node7</title>
<g id="a_node7"><a xlink:href="SNPs_8h.html" target="_top" xlink:title="SNPs.h">
<polygon fill="white" stroke="black" points="300.154,-178.7 300.154,-201.1 351.825,-201.1 351.825,-178.7 300.154,-178.7"/>
<text text-anchor="middle" x="325.99" y="-186.3" font-family="-adobe-utopia-medium-i-normal--0-0-0-0-p-0-iso10646-1" font-size="12.00">SNPs.h</text>
</a>
</g>
</g>
<!-- Node1&#45;&gt;Node7 -->
<g id="edge6" class="edge"><title>Node1&#45;&gt;Node7</title>
<path fill="none" stroke="midnightblue" d="M348.163,-238.038C344.598,-230.46 339.635,-219.908 335.307,-210.708"/>
<polygon fill="midnightblue" stroke="midnightblue" points="338.381,-209.021 330.958,-201.461 332.047,-212 338.381,-209.021"/>
</g>
<!-- Node14 -->
<g id="node14" class="node"><title>Node14</title>
<polygon fill="white" stroke="#bfbfbf" points="581.654,-119.3 581.654,-141.7 612.325,-141.7 612.325,-119.3 581.654,-119.3"/>
<text text-anchor="middle" x="596.99" y="-126.9" font-family="-adobe-utopia-medium-i-normal--0-0-0-0-p-0-iso10646-1" font-size="12.00">list</text>
</g>
<!-- Node1&#45;&gt;Node14 -->
<g id="edge24" class="edge"><title>Node1&#45;&gt;Node14</title>
<path fill="none" stroke="midnightblue" d="M356.817,-237.864C363.099,-222.279 377.124,-193.158 398.99,-178.2 462.374,-134.839 494.22,-163.547 567.99,-142.2 569.237,-141.839 570.507,-141.451 571.785,-141.044"/>
<polygon fill="midnightblue" stroke="midnightblue" points="573.168,-144.269 581.474,-137.692 570.879,-137.654 573.168,-144.269"/>
</g>
<!-- Node15 -->
<g id="node15" class="node"><title>Node15</title>
<polygon fill="white" stroke="#bfbfbf" points="408.161,-178.7 408.161,-201.1 547.819,-201.1 547.819,-178.7 408.161,-178.7"/>
<text text-anchor="middle" x="477.99" y="-186.3" font-family="-adobe-utopia-medium-i-normal--0-0-0-0-p-0-iso10646-1" font-size="12.00">boost/dynamic_bitset.hpp</text>
</g>
<!-- Node1&#45;&gt;Node15 -->
<g id="edge23" class="edge"><title>Node1&#45;&gt;Node15</title>
<path fill="none" stroke="midnightblue" d="M375.337,-238.038C395.034,-228.993 423.959,-215.711 446.088,-205.549"/>
<polygon fill="midnightblue" stroke="midnightblue" points="447.787,-208.62 455.414,-201.267 444.866,-202.259 447.787,-208.62"/>
</g>
<!-- Node3 -->
<g id="node3" class="node"><title>Node3</title>
<polygon fill="white" stroke="#bfbfbf" points="215.998,-0.5 215.998,-22.9 261.981,-22.9 261.981,-0.5 215.998,-0.5"/>
<text text-anchor="middle" x="238.99" y="-8.1" font-family="-adobe-utopia-medium-i-normal--0-0-0-0-p-0-iso10646-1" font-size="12.00">vector</text>
</g>
<!-- Node2&#45;&gt;Node3 -->
<g id="edge2" class="edge"><title>Node2&#45;&gt;Node3</title>
<path fill="none" stroke="midnightblue" d="M151.119,-59.838C167.678,-50.9553 191.853,-37.9863 210.657,-27.899"/>
<polygon fill="midnightblue" stroke="midnightblue" points="212.508,-30.8782 219.665,-23.0667 209.199,-24.7097 212.508,-30.8782"/>
</g>
<!-- Node4 -->
<g id="node4" class="node"><title>Node4</title>
<polygon fill="white" stroke="#bfbfbf" points="5.68434e-14,-0.5 5.68434e-14,-22.9 51.9796,-22.9 51.9796,-0.5 5.68434e-14,-0.5"/>
<text text-anchor="middle" x="25.9898" y="-8.1" font-family="-adobe-utopia-medium-i-normal--0-0-0-0-p-0-iso10646-1" font-size="12.00">fstream</text>
</g>
<!-- Node2&#45;&gt;Node4 -->
<g id="edge3" class="edge"><title>Node2&#45;&gt;Node4</title>
<path fill="none" stroke="midnightblue" d="M113.039,-59.838C96.6356,-50.9553 72.6857,-37.9863 54.0577,-27.899"/>
<polygon fill="midnightblue" stroke="midnightblue" points="55.5939,-24.7507 45.1338,-23.0667 52.2607,-30.9062 55.5939,-24.7507"/>
</g>
<!-- Node5 -->
<g id="node5" class="node"><title>Node5</title>
<polygon fill="white" stroke="#bfbfbf" points="70.33,-0.5 70.33,-22.9 127.65,-22.9 127.65,-0.5 70.33,-0.5"/>
<text text-anchor="middle" x="98.9898" y="-8.1" font-family="-adobe-utopia-medium-i-normal--0-0-0-0-p-0-iso10646-1" font-size="12.00">iostream</text>
</g>
<!-- Node2&#45;&gt;Node5 -->
<g id="edge4" class="edge"><title>Node2&#45;&gt;Node5</title>
<path fill="none" stroke="midnightblue" d="M126.09,-59.838C121.687,-52.1795 115.538,-41.4832 110.209,-32.2153"/>
<polygon fill="midnightblue" stroke="midnightblue" points="113.08,-30.1864 105.062,-23.2615 107.012,-33.6753 113.08,-30.1864"/>
</g>
<!-- Node6 -->
<g id="node6" class="node"><title>Node6</title>
<polygon fill="white" stroke="#bfbfbf" points="145.824,-0.5 145.824,-22.9 198.155,-22.9 198.155,-0.5 145.824,-0.5"/>
<text text-anchor="middle" x="171.99" y="-8.1" font-family="-adobe-utopia-medium-i-normal--0-0-0-0-p-0-iso10646-1" font-size="12.00">string.h</text>
</g>
<!-- Node2&#45;&gt;Node6 -->
<g id="edge5" class="edge"><title>Node2&#45;&gt;Node6</title>
<path fill="none" stroke="midnightblue" d="M139.141,-59.838C144.59,-52.0182 152.247,-41.0315 158.797,-31.6319"/>
<polygon fill="midnightblue" stroke="midnightblue" points="161.784,-33.467 164.63,-23.2615 156.041,-29.4648 161.784,-33.467"/>
</g>
<!-- Node7&#45;&gt;Node2 -->
<g id="edge7" class="edge"><title>Node7&#45;&gt;Node2</title>
<path fill="none" stroke="midnightblue" d="M300.052,-182.765C273.654,-175.735 232.281,-162.497 200.99,-142.2 179.231,-128.086 159.004,-106.046 146.15,-90.4525"/>
<polygon fill="midnightblue" stroke="midnightblue" points="148.793,-88.153 139.804,-82.5436 143.333,-92.5337 148.793,-88.153"/>
</g>
<!-- Node7&#45;&gt;Node3 -->
<g id="edge19" class="edge"><title>Node7&#45;&gt;Node3</title>
<path fill="none" stroke="midnightblue" d="M352.103,-182.85C403.153,-170.965 511.458,-145.437 513.99,-142.2 529.005,-122.999 513.425,-73.5799 497.99,-59.4 465.467,-29.5222 334.371,-18.1382 272.121,-14.3546"/>
<polygon fill="midnightblue" stroke="midnightblue" points="272.226,-10.8549 262.041,-13.7721 271.822,-17.8433 272.226,-10.8549"/>
</g>
<!-- Node7&#45;&gt;Node4 -->
<g id="edge18" class="edge"><title>Node7&#45;&gt;Node4</title>
<path fill="none" stroke="midnightblue" d="M299.829,-188.345C237.008,-186.442 80.2311,-178.118 44.9898,-142.2 16.61,-113.276 18.549,-61.8093 22.3381,-33.2416"/>
<polygon fill="midnightblue" stroke="midnightblue" points="25.8245,-33.5964 23.8782,-23.1818 18.9051,-32.5369 25.8245,-33.5964"/>
</g>
<!-- Node8 -->
<g id="node8" class="node"><title>Node8</title>
<g id="a_node8"><a xlink:href="NucleotideMap_8h.html" target="_top" xlink:title="NucleotideMap.h">
<polygon fill="white" stroke="black" points="54.1692,-119.3 54.1692,-141.7 153.81,-141.7 153.81,-119.3 54.1692,-119.3"/>
<text text-anchor="middle" x="103.99" y="-126.9" font-family="-adobe-utopia-medium-i-normal--0-0-0-0-p-0-iso10646-1" font-size="12.00">NucleotideMap.h</text>
</a>
</g>
</g>
<!-- Node7&#45;&gt;Node8 -->
<g id="edge8" class="edge"><title>Node7&#45;&gt;Node8</title>
<path fill="none" stroke="midnightblue" d="M300.089,-182.203C264.254,-172.938 198.846,-156.026 153.477,-144.295"/>
<polygon fill="midnightblue" stroke="midnightblue" points="154.106,-140.843 143.548,-141.728 152.353,-147.62 154.106,-140.843"/>
</g>
<!-- Node9 -->
<g id="node9" class="node"><title>Node9</title>
<g id="a_node9"><a xlink:href="SNP_8h.html" target="_top" xlink:title="SNP.h">
<polygon fill="white" stroke="black" points="210.488,-119.3 210.488,-141.7 257.492,-141.7 257.492,-119.3 210.488,-119.3"/>
<text text-anchor="middle" x="233.99" y="-126.9" font-family="-adobe-utopia-medium-i-normal--0-0-0-0-p-0-iso10646-1" font-size="12.00">SNP.h</text>
</a>
</g>
</g>
<!-- Node7&#45;&gt;Node9 -->
<g id="edge10" class="edge"><title>Node7&#45;&gt;Node9</title>
<path fill="none" stroke="midnightblue" d="M309.542,-178.638C295.63,-169.958 275.464,-157.376 259.465,-147.394"/>
<polygon fill="midnightblue" stroke="midnightblue" points="260.942,-144.191 250.605,-141.867 257.237,-150.13 260.942,-144.191"/>
</g>
<!-- Node10 -->
<g id="node10" class="node"><title>Node10</title>
<polygon fill="white" stroke="#bfbfbf" points="330.324,-59.9 330.324,-82.3 373.655,-82.3 373.655,-59.9 330.324,-59.9"/>
<text text-anchor="middle" x="351.99" y="-67.5" font-family="-adobe-utopia-medium-i-normal--0-0-0-0-p-0-iso10646-1" font-size="12.00">string</text>
</g>
<!-- Node7&#45;&gt;Node10 -->
<g id="edge20" class="edge"><title>Node7&#45;&gt;Node10</title>
<path fill="none" stroke="midnightblue" d="M328.297,-178.535C332.584,-159.276 341.849,-117.655 347.438,-92.5461"/>
<polygon fill="midnightblue" stroke="midnightblue" points="350.894,-93.1315 349.65,-82.6099 344.061,-91.6105 350.894,-93.1315"/>
</g>
<!-- Node11 -->
<g id="node11" class="node"><title>Node11</title>
<g id="a_node11"><a xlink:href="SNPPositionMap_8h.html" target="_top" xlink:title="SNPPositionMap.h">
<polygon fill="white" stroke="black" points="379.82,-119.3 379.82,-141.7 488.16,-141.7 488.16,-119.3 379.82,-119.3"/>
<text text-anchor="middle" x="433.99" y="-126.9" font-family="-adobe-utopia-medium-i-normal--0-0-0-0-p-0-iso10646-1" font-size="12.00">SNPPositionMap.h</text>
</a>
</g>
</g>
<!-- Node7&#45;&gt;Node11 -->
<g id="edge14" class="edge"><title>Node7&#45;&gt;Node11</title>
<path fill="none" stroke="midnightblue" d="M345.298,-178.638C362.087,-169.715 386.636,-156.668 405.652,-146.561"/>
<polygon fill="midnightblue" stroke="midnightblue" points="407.297,-149.65 414.485,-141.867 404.012,-143.469 407.297,-149.65"/>
</g>
<!-- Node12 -->
<g id="node12" class="node"><title>Node12</title>
<polygon fill="white" stroke="#bfbfbf" points="452.659,-59.9 452.659,-82.3 489.321,-82.3 489.321,-59.9 452.659,-59.9"/>
<text text-anchor="middle" x="470.99" y="-67.5" font-family="-adobe-utopia-medium-i-normal--0-0-0-0-p-0-iso10646-1" font-size="12.00">map</text>
</g>
<!-- Node7&#45;&gt;Node12 -->
<g id="edge21" class="edge"><title>Node7&#45;&gt;Node12</title>
<path fill="none" stroke="midnightblue" d="M351.859,-181.941C399.521,-169.106 496.427,-142.938 496.99,-142.2 508.711,-126.849 498.023,-105.661 487.016,-90.607"/>
<polygon fill="midnightblue" stroke="midnightblue" points="489.602,-88.2338 480.665,-82.543 484.102,-92.5648 489.602,-88.2338"/>
</g>
<!-- Node13 -->
<g id="node13" class="node"><title>Node13</title>
<polygon fill="white" stroke="#bfbfbf" points="275.492,-119.3 275.492,-141.7 324.488,-141.7 324.488,-119.3 275.492,-119.3"/>
<text text-anchor="middle" x="299.99" y="-126.9" font-family="-adobe-utopia-medium-i-normal--0-0-0-0-p-0-iso10646-1" font-size="12.00">math.h</text>
</g>
<!-- Node7&#45;&gt;Node13 -->
<g id="edge17" class="edge"><title>Node7&#45;&gt;Node13</title>
<path fill="none" stroke="midnightblue" d="M321.342,-178.638C317.909,-171.06 313.129,-160.508 308.962,-151.308"/>
<polygon fill="midnightblue" stroke="midnightblue" points="312.088,-149.726 304.774,-142.061 305.712,-152.615 312.088,-149.726"/>
</g>
<!-- Node7&#45;&gt;Node14 -->
<g id="edge22" class="edge"><title>Node7&#45;&gt;Node14</title>
<path fill="none" stroke="midnightblue" d="M352.161,-181.558C356.753,-180.367 361.499,-179.199 365.99,-178.2 455.007,-158.399 479.979,-166.077 567.99,-142.2 569.243,-141.86 570.517,-141.489 571.799,-141.095"/>
<polygon fill="midnightblue" stroke="midnightblue" points="573.165,-144.328 581.502,-137.79 570.907,-137.702 573.165,-144.328"/>
</g>
<!-- Node8&#45;&gt;Node2 -->
<g id="edge9" class="edge"><title>Node8&#45;&gt;Node2</title>
<path fill="none" stroke="midnightblue" d="M108.996,-119.238C112.692,-111.66 117.84,-101.108 122.327,-91.9084"/>
<polygon fill="midnightblue" stroke="midnightblue" points="125.599,-93.1837 126.838,-82.6615 119.308,-90.1147 125.599,-93.1837"/>
</g>
<!-- Node9&#45;&gt;Node2 -->
<g id="edge11" class="edge"><title>Node9&#45;&gt;Node2</title>
<path fill="none" stroke="midnightblue" d="M215.754,-119.238C200.042,-110.396 177.134,-97.5046 159.244,-87.4374"/>
<polygon fill="midnightblue" stroke="midnightblue" points="160.843,-84.3207 150.411,-82.4667 157.41,-90.4211 160.843,-84.3207"/>
</g>
<!-- Node9&#45;&gt;Node3 -->
<g id="edge13" class="edge"><title>Node9&#45;&gt;Node3</title>
<path fill="none" stroke="midnightblue" d="M234.434,-119.135C235.254,-99.9622 237.024,-58.6276 238.1,-33.4848"/>
<polygon fill="midnightblue" stroke="midnightblue" points="241.609,-33.3505 238.54,-23.2099 234.615,-33.051 241.609,-33.3505"/>
</g>
<!-- Node9&#45;&gt;Node10 -->
<g id="edge12" class="edge"><title>Node9&#45;&gt;Node10</title>
<path fill="none" stroke="midnightblue" d="M255.086,-119.238C273.597,-110.234 300.74,-97.0302 321.593,-86.8861"/>
<polygon fill="midnightblue" stroke="midnightblue" points="323.217,-89.9884 330.679,-82.4667 320.155,-83.6937 323.217,-89.9884"/>
</g>
<!-- Node11&#45;&gt;Node10 -->
<g id="edge16" class="edge"><title>Node11&#45;&gt;Node10</title>
<path fill="none" stroke="midnightblue" d="M419.33,-119.238C407.046,-110.639 389.291,-98.2112 375.097,-88.2749"/>
<polygon fill="midnightblue" stroke="midnightblue" points="376.999,-85.334 366.799,-82.4667 372.985,-91.0686 376.999,-85.334"/>
</g>
<!-- Node11&#45;&gt;Node12 -->
<g id="edge15" class="edge"><title>Node11&#45;&gt;Node12</title>
<path fill="none" stroke="midnightblue" d="M440.605,-119.238C445.593,-111.499 452.582,-100.658 458.599,-91.3231"/>
<polygon fill="midnightblue" stroke="midnightblue" points="461.706,-92.9629 464.182,-82.6615 455.822,-89.1703 461.706,-92.9629"/>
</g>
</g>
</svg>
