<?xml version="1.0" encoding="UTF-8" standalone="no"?>
<!DOCTYPE svg PUBLIC "-//W3C//DTD SVG 1.1//EN"
 "http://www.w3.org/Graphics/SVG/1.1/DTD/svg11.dtd">
<!-- Generated by graphviz version 2.38.0 (20140413.2041)
 -->
<!-- Title: MarkerSet.cpp Pages: 1 -->
<svg width="625pt" height="328pt"
 viewBox="0.00 0.00 625.35 328.40" xmlns="http://www.w3.org/2000/svg" xmlns:xlink="http://www.w3.org/1999/xlink">
<g id="graph0" class="graph" transform="scale(1 1) rotate(0) translate(4 324.4)">
<title>MarkerSet.cpp</title>
<polygon fill="white" stroke="none" points="-4,4 -4,-324.4 621.348,-324.4 621.348,4 -4,4"/>
<!-- Node1 -->
<g id="node1" class="node"><title>Node1</title>
<polygon fill="#bfbfbf" stroke="black" points="530.379,-297.5 530.379,-319.9 617.348,-319.9 617.348,-297.5 530.379,-297.5"/>
<text text-anchor="middle" x="573.864" y="-305.1" font-family="-adobe-utopia-medium-i-normal--0-0-0-0-p-0-iso10646-1" font-size="12.00">MarkerSet.cpp</text>
</g>
<!-- Node2 -->
<g id="node2" class="node"><title>Node2</title>
<g id="a_node2"><a xlink:href="MarkerSet_8h.html" target="_top" xlink:title="MarkerSet.h">
<polygon fill="white" stroke="black" points="496.042,-238.1 496.042,-260.5 571.685,-260.5 571.685,-238.1 496.042,-238.1"/>
<text text-anchor="middle" x="533.864" y="-245.7" font-family="-adobe-utopia-medium-i-normal--0-0-0-0-p-0-iso10646-1" font-size="12.00">MarkerSet.h</text>
</a>
</g>
</g>
<!-- Node1&#45;&gt;Node2 -->
<g id="edge1" class="edge"><title>Node1&#45;&gt;Node2</title>
<path fill="none" stroke="midnightblue" d="M566.712,-297.438C561.263,-289.618 553.607,-278.631 547.057,-269.232"/>
<polygon fill="midnightblue" stroke="midnightblue" points="549.813,-267.065 541.224,-260.861 544.069,-271.067 549.813,-267.065"/>
</g>
<!-- Node6 -->
<g id="node6" class="node"><title>Node6</title>
<polygon fill="white" stroke="#bfbfbf" points="523.204,-0.5 523.204,-22.9 580.523,-22.9 580.523,-0.5 523.204,-0.5"/>
<text text-anchor="middle" x="551.864" y="-8.1" font-family="-adobe-utopia-medium-i-normal--0-0-0-0-p-0-iso10646-1" font-size="12.00">iostream</text>
</g>
<!-- Node1&#45;&gt;Node6 -->
<g id="edge26" class="edge"><title>Node1&#45;&gt;Node6</title>
<path fill="none" stroke="midnightblue" d="M580.091,-297.496C591.56,-277.701 614.864,-232.377 614.864,-190.9 614.864,-190.9 614.864,-190.9 614.864,-129.5 614.864,-90.6515 587.532,-52.3071 568.873,-30.6566"/>
<polygon fill="midnightblue" stroke="midnightblue" points="571.261,-28.0758 561.986,-22.9551 566.043,-32.7422 571.261,-28.0758"/>
</g>
<!-- Node3 -->
<g id="node3" class="node"><title>Node3</title>
<g id="a_node3"><a xlink:href="BasicDefinitions_8h.html" target="_top" xlink:title="BasicDefinitions.h">
<polygon fill="white" stroke="black" points="363.039,-59.9 363.039,-82.3 468.688,-82.3 468.688,-59.9 363.039,-59.9"/>
<text text-anchor="middle" x="415.864" y="-67.5" font-family="-adobe-utopia-medium-i-normal--0-0-0-0-p-0-iso10646-1" font-size="12.00">BasicDefinitions.h</text>
</a>
</g>
</g>
<!-- Node2&#45;&gt;Node3 -->
<g id="edge2" class="edge"><title>Node2&#45;&gt;Node3</title>
<path fill="none" stroke="midnightblue" d="M540.443,-238.092C554.648,-214.63 584.812,-156.03 557.864,-118.8 539.76,-93.7888 507.814,-81.9386 478.802,-76.4185"/>
<polygon fill="midnightblue" stroke="midnightblue" points="479.132,-72.9249 468.69,-74.7188 477.971,-79.8281 479.132,-72.9249"/>
</g>
<!-- Node8 -->
<g id="node8" class="node"><title>Node8</title>
<g id="a_node8"><a xlink:href="SNPs_8h.html" target="_top" xlink:title="SNPs.h">
<polygon fill="white" stroke="black" points="283.028,-178.7 283.028,-201.1 334.699,-201.1 334.699,-178.7 283.028,-178.7"/>
<text text-anchor="middle" x="308.864" y="-186.3" font-family="-adobe-utopia-medium-i-normal--0-0-0-0-p-0-iso10646-1" font-size="12.00">SNPs.h</text>
</a>
</g>
</g>
<!-- Node2&#45;&gt;Node8 -->
<g id="edge7" class="edge"><title>Node2&#45;&gt;Node8</title>
<path fill="none" stroke="midnightblue" d="M495.95,-238.628C453.808,-227.877 386.254,-210.643 344.89,-200.091"/>
<polygon fill="midnightblue" stroke="midnightblue" points="345.524,-196.64 334.969,-197.56 343.794,-203.423 345.524,-196.64"/>
</g>
<!-- Node15 -->
<g id="node15" class="node"><title>Node15</title>
<polygon fill="white" stroke="#bfbfbf" points="518.528,-119.3 518.528,-141.7 549.199,-141.7 549.199,-119.3 518.528,-119.3"/>
<text text-anchor="middle" x="533.864" y="-126.9" font-family="-adobe-utopia-medium-i-normal--0-0-0-0-p-0-iso10646-1" font-size="12.00">list</text>
</g>
<!-- Node2&#45;&gt;Node15 -->
<g id="edge25" class="edge"><title>Node2&#45;&gt;Node15</title>
<path fill="none" stroke="midnightblue" d="M533.864,-237.935C533.864,-218.762 533.864,-177.428 533.864,-152.285"/>
<polygon fill="midnightblue" stroke="midnightblue" points="537.364,-152.01 533.864,-142.01 530.364,-152.01 537.364,-152.01"/>
</g>
<!-- Node16 -->
<g id="node16" class="node"><title>Node16</title>
<polygon fill="white" stroke="#bfbfbf" points="125.035,-178.7 125.035,-201.1 264.692,-201.1 264.692,-178.7 125.035,-178.7"/>
<text text-anchor="middle" x="194.864" y="-186.3" font-family="-adobe-utopia-medium-i-normal--0-0-0-0-p-0-iso10646-1" font-size="12.00">boost/dynamic_bitset.hpp</text>
</g>
<!-- Node2&#45;&gt;Node16 -->
<g id="edge24" class="edge"><title>Node2&#45;&gt;Node16</title>
<path fill="none" stroke="midnightblue" d="M495.963,-241.883C440.302,-232.458 335.479,-214.709 265.397,-202.843"/>
<polygon fill="midnightblue" stroke="midnightblue" points="265.763,-199.355 255.319,-201.136 264.594,-206.257 265.763,-199.355"/>
</g>
<!-- Node4 -->
<g id="node4" class="node"><title>Node4</title>
<polygon fill="white" stroke="#bfbfbf" points="311.872,-0.5 311.872,-22.9 357.855,-22.9 357.855,-0.5 311.872,-0.5"/>
<text text-anchor="middle" x="334.864" y="-8.1" font-family="-adobe-utopia-medium-i-normal--0-0-0-0-p-0-iso10646-1" font-size="12.00">vector</text>
</g>
<!-- Node3&#45;&gt;Node4 -->
<g id="edge3" class="edge"><title>Node3&#45;&gt;Node4</title>
<path fill="none" stroke="midnightblue" d="M401.383,-59.838C389.248,-51.2393 371.71,-38.8112 357.689,-28.8749"/>
<polygon fill="midnightblue" stroke="midnightblue" points="359.675,-25.9929 349.493,-23.0667 355.628,-31.7042 359.675,-25.9929"/>
</g>
<!-- Node5 -->
<g id="node5" class="node"><title>Node5</title>
<polygon fill="white" stroke="#bfbfbf" points="88.8739,-0.5 88.8739,-22.9 140.853,-22.9 140.853,-0.5 88.8739,-0.5"/>
<text text-anchor="middle" x="114.864" y="-8.1" font-family="-adobe-utopia-medium-i-normal--0-0-0-0-p-0-iso10646-1" font-size="12.00">fstream</text>
</g>
<!-- Node3&#45;&gt;Node5 -->
<g id="edge4" class="edge"><title>Node3&#45;&gt;Node5</title>
<path fill="none" stroke="midnightblue" d="M362.744,-59.9702C301.828,-48.3536 203.611,-29.6239 150.957,-19.5829"/>
<polygon fill="midnightblue" stroke="midnightblue" points="151.537,-16.1305 141.058,-17.6952 150.225,-23.0066 151.537,-16.1305"/>
</g>
<!-- Node3&#45;&gt;Node6 -->
<g id="edge5" class="edge"><title>Node3&#45;&gt;Node6</title>
<path fill="none" stroke="midnightblue" d="M440.178,-59.838C461.8,-50.712 493.643,-37.2726 517.801,-27.0766"/>
<polygon fill="midnightblue" stroke="midnightblue" points="519.45,-30.1797 527.302,-23.0667 516.728,-23.7306 519.45,-30.1797"/>
</g>
<!-- Node7 -->
<g id="node7" class="node"><title>Node7</title>
<polygon fill="white" stroke="#bfbfbf" points="389.698,-0.5 389.698,-22.9 442.029,-22.9 442.029,-0.5 389.698,-0.5"/>
<text text-anchor="middle" x="415.864" y="-8.1" font-family="-adobe-utopia-medium-i-normal--0-0-0-0-p-0-iso10646-1" font-size="12.00">string.h</text>
</g>
<!-- Node3&#45;&gt;Node7 -->
<g id="edge6" class="edge"><title>Node3&#45;&gt;Node7</title>
<path fill="none" stroke="midnightblue" d="M415.864,-59.838C415.864,-52.5019 415.864,-42.3785 415.864,-33.3932"/>
<polygon fill="midnightblue" stroke="midnightblue" points="419.364,-33.2614 415.864,-23.2615 412.364,-33.2615 419.364,-33.2614"/>
</g>
<!-- Node8&#45;&gt;Node3 -->
<g id="edge8" class="edge"><title>Node8&#45;&gt;Node3</title>
<path fill="none" stroke="midnightblue" d="M318.359,-178.535C336.556,-158.671 376.545,-115.02 399.253,-90.2316"/>
<polygon fill="midnightblue" stroke="midnightblue" points="402.061,-92.3478 406.236,-82.6099 396.9,-87.6193 402.061,-92.3478"/>
</g>
<!-- Node8&#45;&gt;Node4 -->
<g id="edge20" class="edge"><title>Node8&#45;&gt;Node4</title>
<path fill="none" stroke="midnightblue" d="M310.43,-178.514C311.855,-169.052 314.012,-154.689 315.864,-142.2 321.584,-103.627 328.173,-58.5773 331.896,-33.0664"/>
<polygon fill="midnightblue" stroke="midnightblue" points="335.368,-33.5094 333.348,-23.1089 328.441,-32.4991 335.368,-33.5094"/>
</g>
<!-- Node8&#45;&gt;Node5 -->
<g id="edge19" class="edge"><title>Node8&#45;&gt;Node5</title>
<path fill="none" stroke="midnightblue" d="M282.993,-180.483C279.935,-179.639 276.843,-178.854 273.864,-178.2 216.031,-165.504 48.8002,-186.806 9.86369,-142.2 -25.2471,-101.976 44.7589,-52.4819 86.6247,-27.9619"/>
<polygon fill="midnightblue" stroke="midnightblue" points="88.3903,-30.9841 95.3333,-22.9813 84.915,-24.9077 88.3903,-30.9841"/>
</g>
<!-- Node9 -->
<g id="node9" class="node"><title>Node9</title>
<g id="a_node9"><a xlink:href="NucleotideMap_8h.html" target="_top" xlink:title="NucleotideMap.h">
<polygon fill="white" stroke="black" points="401.043,-119.3 401.043,-141.7 500.684,-141.7 500.684,-119.3 401.043,-119.3"/>
<text text-anchor="middle" x="450.864" y="-126.9" font-family="-adobe-utopia-medium-i-normal--0-0-0-0-p-0-iso10646-1" font-size="12.00">NucleotideMap.h</text>
</a>
</g>
</g>
<!-- Node8&#45;&gt;Node9 -->
<g id="edge9" class="edge"><title>Node8&#45;&gt;Node9</title>
<path fill="none" stroke="midnightblue" d="M334.25,-178.638C356.927,-169.471 390.37,-155.953 415.634,-145.741"/>
<polygon fill="midnightblue" stroke="midnightblue" points="417.258,-148.859 425.218,-141.867 414.635,-142.369 417.258,-148.859"/>
</g>
<!-- Node10 -->
<g id="node10" class="node"><title>Node10</title>
<g id="a_node10"><a xlink:href="SNP_8h.html" target="_top" xlink:title="SNP.h">
<polygon fill="white" stroke="black" points="259.361,-119.3 259.361,-141.7 306.366,-141.7 306.366,-119.3 259.361,-119.3"/>
<text text-anchor="middle" x="282.864" y="-126.9" font-family="-adobe-utopia-medium-i-normal--0-0-0-0-p-0-iso10646-1" font-size="12.00">SNP.h</text>
</a>
</g>
</g>
<!-- Node8&#45;&gt;Node10 -->
<g id="edge11" class="edge"><title>Node8&#45;&gt;Node10</title>
<path fill="none" stroke="midnightblue" d="M304.215,-178.638C300.783,-171.06 296.003,-160.508 291.836,-151.308"/>
<polygon fill="midnightblue" stroke="midnightblue" points="294.962,-149.726 287.648,-142.061 288.586,-152.615 294.962,-149.726"/>
</g>
<!-- Node11 -->
<g id="node11" class="node"><title>Node11</title>
<polygon fill="white" stroke="#bfbfbf" points="209.198,-59.9 209.198,-82.3 252.529,-82.3 252.529,-59.9 209.198,-59.9"/>
<text text-anchor="middle" x="230.864" y="-67.5" font-family="-adobe-utopia-medium-i-normal--0-0-0-0-p-0-iso10646-1" font-size="12.00">string</text>
</g>
<!-- Node8&#45;&gt;Node11 -->
<g id="edge21" class="edge"><title>Node8&#45;&gt;Node11</title>
<path fill="none" stroke="midnightblue" d="M290.259,-178.579C277.112,-170.361 260.076,-157.686 249.864,-142.2 240.018,-127.269 235.25,-107.363 232.955,-92.5788"/>
<polygon fill="midnightblue" stroke="midnightblue" points="236.397,-91.9055 231.639,-82.439 229.455,-92.8063 236.397,-91.9055"/>
</g>
<!-- Node12 -->
<g id="node12" class="node"><title>Node12</title>
<g id="a_node12"><a xlink:href="SNPPositionMap_8h.html" target="_top" xlink:title="SNPPositionMap.h">
<polygon fill="white" stroke="black" points="94.6937,-119.3 94.6937,-141.7 203.034,-141.7 203.034,-119.3 94.6937,-119.3"/>
<text text-anchor="middle" x="148.864" y="-126.9" font-family="-adobe-utopia-medium-i-normal--0-0-0-0-p-0-iso10646-1" font-size="12.00">SNPPositionMap.h</text>
</a>
</g>
</g>
<!-- Node8&#45;&gt;Node12 -->
<g id="edge15" class="edge"><title>Node8&#45;&gt;Node12</title>
<path fill="none" stroke="midnightblue" d="M282.801,-179.55C256.786,-170.217 216.526,-155.774 186.936,-145.158"/>
<polygon fill="midnightblue" stroke="midnightblue" points="187.94,-141.8 177.345,-141.718 185.576,-148.389 187.94,-141.8"/>
</g>
<!-- Node13 -->
<g id="node13" class="node"><title>Node13</title>
<polygon fill="white" stroke="#bfbfbf" points="60.5329,-59.9 60.5329,-82.3 97.1945,-82.3 97.1945,-59.9 60.5329,-59.9"/>
<text text-anchor="middle" x="78.8637" y="-67.5" font-family="-adobe-utopia-medium-i-normal--0-0-0-0-p-0-iso10646-1" font-size="12.00">map</text>
</g>
<!-- Node8&#45;&gt;Node13 -->
<g id="edge22" class="edge"><title>Node8&#45;&gt;Node13</title>
<path fill="none" stroke="midnightblue" d="M282.99,-180.497C279.932,-179.65 276.841,-178.861 273.864,-178.2 217.995,-165.796 56.3956,-185.403 18.8637,-142.2 2.35471,-123.197 28.7204,-101.11 51.5457,-86.8858"/>
<polygon fill="midnightblue" stroke="midnightblue" points="53.5293,-89.7785 60.3396,-81.6624 49.9545,-83.76 53.5293,-89.7785"/>
</g>
<!-- Node14 -->
<g id="node14" class="node"><title>Node14</title>
<polygon fill="white" stroke="#bfbfbf" points="27.3655,-119.3 27.3655,-141.7 76.3619,-141.7 76.3619,-119.3 27.3655,-119.3"/>
<text text-anchor="middle" x="51.8637" y="-126.9" font-family="-adobe-utopia-medium-i-normal--0-0-0-0-p-0-iso10646-1" font-size="12.00">math.h</text>
</g>
<!-- Node8&#45;&gt;Node14 -->
<g id="edge18" class="edge"><title>Node8&#45;&gt;Node14</title>
<path fill="none" stroke="midnightblue" d="M282.957,-180.641C279.905,-179.768 276.824,-178.934 273.864,-178.2 194.353,-158.494 170.139,-162.648 86.5829,-142.148"/>
<polygon fill="midnightblue" stroke="midnightblue" points="87.2017,-138.695 76.6513,-139.665 85.5039,-145.486 87.2017,-138.695"/>
</g>
<!-- Node8&#45;&gt;Node15 -->
<g id="edge23" class="edge"><title>Node8&#45;&gt;Node15</title>
<path fill="none" stroke="midnightblue" d="M335.004,-184.479C371.962,-177.878 441.629,-164.145 508.45,-142.25"/>
<polygon fill="midnightblue" stroke="midnightblue" points="509.911,-145.452 518.285,-138.96 507.691,-138.814 509.911,-145.452"/>
</g>
<!-- Node9&#45;&gt;Node3 -->
<g id="edge10" class="edge"><title>Node9&#45;&gt;Node3</title>
<path fill="none" stroke="midnightblue" d="M444.606,-119.238C439.887,-111.499 433.277,-100.658 427.585,-91.3231"/>
<polygon fill="midnightblue" stroke="midnightblue" points="430.498,-89.3773 422.304,-82.6615 424.521,-93.0216 430.498,-89.3773"/>
</g>
<!-- Node10&#45;&gt;Node3 -->
<g id="edge12" class="edge"><title>Node10&#45;&gt;Node3</title>
<path fill="none" stroke="midnightblue" d="M306.641,-119.238C327.787,-110.112 358.927,-96.6726 382.552,-86.4766"/>
<polygon fill="midnightblue" stroke="midnightblue" points="384.049,-89.6427 391.843,-82.4667 381.275,-83.2157 384.049,-89.6427"/>
</g>
<!-- Node10&#45;&gt;Node4 -->
<g id="edge14" class="edge"><title>Node10&#45;&gt;Node4</title>
<path fill="none" stroke="midnightblue" d="M287.478,-119.135C296.129,-99.7031 314.916,-57.5064 326.06,-32.4745"/>
<polygon fill="midnightblue" stroke="midnightblue" points="329.315,-33.769 330.185,-23.2099 322.92,-30.9219 329.315,-33.769"/>
</g>
<!-- Node10&#45;&gt;Node11 -->
<g id="edge13" class="edge"><title>Node10&#45;&gt;Node11</title>
<path fill="none" stroke="midnightblue" d="M273.567,-119.238C266.264,-111.176 255.911,-99.7488 247.229,-90.1645"/>
<polygon fill="midnightblue" stroke="midnightblue" points="249.739,-87.7227 240.432,-82.6615 244.552,-92.4224 249.739,-87.7227"/>
</g>
<!-- Node12&#45;&gt;Node11 -->
<g id="edge17" class="edge"><title>Node12&#45;&gt;Node11</title>
<path fill="none" stroke="midnightblue" d="M163.524,-119.238C175.808,-110.639 193.562,-98.2112 207.757,-88.2749"/>
<polygon fill="midnightblue" stroke="midnightblue" points="209.869,-91.0686 216.054,-82.4667 205.855,-85.334 209.869,-91.0686"/>
</g>
<!-- Node12&#45;&gt;Node13 -->
<g id="edge16" class="edge"><title>Node12&#45;&gt;Node13</title>
<path fill="none" stroke="midnightblue" d="M136.349,-119.238C126.125,-110.854 111.46,-98.8293 99.5021,-89.0235"/>
<polygon fill="midnightblue" stroke="midnightblue" points="101.696,-86.2959 91.7435,-82.6615 97.2569,-91.7087 101.696,-86.2959"/>
</g>
</g>
</svg>
