<?xml version="1.0" encoding="UTF-8" standalone="no"?>
<!DOCTYPE svg PUBLIC "-//W3C//DTD SVG 1.1//EN"
 "http://www.w3.org/Graphics/SVG/1.1/DTD/svg11.dtd">
<!-- Generated by graphviz version 2.38.0 (20140413.2041)
 -->
<!-- Title: operator&lt;&lt; Pages: 1 -->
<svg width="237pt" height="31pt"
 viewBox="0.00 0.00 236.80 31.40" xmlns="http://www.w3.org/2000/svg" xmlns:xlink="http://www.w3.org/1999/xlink">
<g id="graph0" class="graph" transform="scale(1 1) rotate(0) translate(4 27.4)">
<title>operator&lt;&lt;</title>
<polygon fill="white" stroke="none" points="-4,4 -4,-27.4 232.795,-27.4 232.795,4 -4,4"/>
<!-- Node1 -->
<g id="node1" class="node"><title>Node1</title>
<polygon fill="#bfbfbf" stroke="black" points="-7.10543e-15,-0.5 -7.10543e-15,-22.9 69.5116,-22.9 69.5116,-0.5 -7.10543e-15,-0.5"/>
<text text-anchor="middle" x="34.7558" y="-8.1" font-family="-adobe-utopia-medium-i-normal--0-0-0-0-p-0-iso10646-1" font-size="12.00">operator&lt;&lt;</text>
</g>
<!-- Node2 -->
<g id="node2" class="node"><title>Node2</title>
<g id="a_node2"><a xlink:href="classMarkerSet.html#a4af01261ba1010545aff639b094047af" target="_top" xlink:title="MarkerSet::getMarker">
<polygon fill="white" stroke="black" points="105.512,-0.5 105.512,-22.9 228.795,-22.9 228.795,-0.5 105.512,-0.5"/>
<text text-anchor="middle" x="167.153" y="-8.1" font-family="-adobe-utopia-medium-i-normal--0-0-0-0-p-0-iso10646-1" font-size="12.00">MarkerSet::getMarker</text>
</a>
</g>
</g>
<!-- Node1&#45;&gt;Node2 -->
<g id="edge1" class="edge"><title>Node1&#45;&gt;Node2</title>
<path fill="none" stroke="midnightblue" d="M69.6758,-11.7C77.6258,-11.7 86.3889,-11.7 95.2939,-11.7"/>
<polygon fill="midnightblue" stroke="midnightblue" points="95.3725,-15.2001 105.372,-11.7 95.3724,-8.2001 95.3725,-15.2001"/>
</g>
</g>
</svg>
