<?xml version="1.0" encoding="UTF-8" standalone="no"?>
<!DOCTYPE svg PUBLIC "-//W3C//DTD SVG 1.1//EN"
 "http://www.w3.org/Graphics/SVG/1.1/DTD/svg11.dtd">
<!-- Generated by graphviz version 2.38.0 (20140413.2041)
 -->
<!-- Title: Match.h Pages: 1 -->
<svg width="1080pt" height="388pt"
 viewBox="0.00 0.00 1079.97 387.80" xmlns="http://www.w3.org/2000/svg" xmlns:xlink="http://www.w3.org/1999/xlink">
<g id="graph0" class="graph" transform="scale(1 1) rotate(0) translate(4 383.8)">
<title>Match.h</title>
<polygon fill="white" stroke="none" points="-4,4 -4,-383.8 1075.97,-383.8 1075.97,4 -4,4"/>
<!-- Node1 -->
<g id="node1" class="node"><title>Node1</title>
<polygon fill="#bfbfbf" stroke="black" points="812.319,-356.9 812.319,-379.3 867.974,-379.3 867.974,-356.9 812.319,-356.9"/>
<text text-anchor="middle" x="840.146" y="-364.5" font-family="-adobe-utopia-medium-i-normal--0-0-0-0-p-0-iso10646-1" font-size="12.00">Match.h</text>
</g>
<!-- Node2 -->
<g id="node2" class="node"><title>Node2</title>
<g id="a_node2"><a xlink:href="Individual_8h.html" target="_top" xlink:title="Individual.h">
<polygon fill="white" stroke="black" points="802.983,-297.5 802.983,-319.9 877.309,-319.9 877.309,-297.5 802.983,-297.5"/>
<text text-anchor="middle" x="840.146" y="-305.1" font-family="-adobe-utopia-medium-i-normal--0-0-0-0-p-0-iso10646-1" font-size="12.00">Individual.h</text>
</a>
</g>
</g>
<!-- Node1&#45;&gt;Node2 -->
<g id="edge1" class="edge"><title>Node1&#45;&gt;Node2</title>
<path fill="none" stroke="midnightblue" d="M833.658,-346.771C833.083,-337.817 833.456,-327.672 834.776,-320.261"/>
<polygon fill="midnightblue" stroke="midnightblue" points="830.197,-347.31 834.831,-356.838 837.15,-346.5 830.197,-347.31"/>
</g>
<!-- Node22 -->
<g id="node22" class="node"><title>Node22</title>
<g id="a_node22"><a xlink:href="Match_8cpp.html" target="_top" xlink:title="Match.cpp">
<polygon fill="white" stroke="black" points="895.655,-297.5 895.655,-319.9 962.637,-319.9 962.637,-297.5 895.655,-297.5"/>
<text text-anchor="middle" x="929.146" y="-305.1" font-family="-adobe-utopia-medium-i-normal--0-0-0-0-p-0-iso10646-1" font-size="12.00">Match.cpp</text>
</a>
</g>
</g>
<!-- Node1&#45;&gt;Node22 -->
<g id="edge30" class="edge"><title>Node1&#45;&gt;Node22</title>
<path fill="none" stroke="midnightblue" d="M864.605,-351.326C880.05,-341.365 899.566,-328.778 913.073,-320.067"/>
<polygon fill="midnightblue" stroke="midnightblue" points="862.565,-348.477 856.058,-356.838 866.359,-354.359 862.565,-348.477"/>
</g>
<!-- Node2&#45;&gt;Node1 -->
<g id="edge24" class="edge"><title>Node2&#45;&gt;Node1</title>
<path fill="none" stroke="midnightblue" d="M846.657,-330.393C847.207,-339.379 846.809,-349.502 845.462,-356.838"/>
<polygon fill="midnightblue" stroke="midnightblue" points="850.113,-329.807 845.516,-320.261 843.157,-330.59 850.113,-329.807"/>
</g>
<!-- Node3 -->
<g id="node3" class="node"><title>Node3</title>
<g id="a_node3"><a xlink:href="Individuals_8h.html" target="_top" xlink:title="Individuals.h">
<polygon fill="white" stroke="black" points="693.65,-238.1 693.65,-260.5 772.643,-260.5 772.643,-238.1 693.65,-238.1"/>
<text text-anchor="middle" x="733.146" y="-245.7" font-family="-adobe-utopia-medium-i-normal--0-0-0-0-p-0-iso10646-1" font-size="12.00">Individuals.h</text>
</a>
</g>
</g>
<!-- Node2&#45;&gt;Node3 -->
<g id="edge2" class="edge"><title>Node2&#45;&gt;Node3</title>
<path fill="none" stroke="midnightblue" d="M806.556,-292.895C786.528,-282.792 762.271,-269.663 747.136,-260.667"/>
<polygon fill="midnightblue" stroke="midnightblue" points="805.188,-296.123 815.701,-297.438 808.303,-289.854 805.188,-296.123"/>
</g>
<!-- Node18 -->
<g id="node18" class="node"><title>Node18</title>
<g id="a_node18"><a xlink:href="MatchFactory_8h.html" target="_top" xlink:title="MatchFactory.h">
<polygon fill="white" stroke="black" points="793.992,-238.1 793.992,-260.5 886.301,-260.5 886.301,-238.1 793.992,-238.1"/>
<text text-anchor="middle" x="840.146" y="-245.7" font-family="-adobe-utopia-medium-i-normal--0-0-0-0-p-0-iso10646-1" font-size="12.00">MatchFactory.h</text>
</a>
</g>
</g>
<!-- Node2&#45;&gt;Node18 -->
<g id="edge25" class="edge"><title>Node2&#45;&gt;Node18</title>
<path fill="none" stroke="midnightblue" d="M840.146,-287.371C840.146,-278.417 840.146,-268.272 840.146,-260.861"/>
<polygon fill="midnightblue" stroke="midnightblue" points="836.646,-287.438 840.146,-297.438 843.646,-287.438 836.646,-287.438"/>
</g>
<!-- Node20 -->
<g id="node20" class="node"><title>Node20</title>
<g id="a_node20"><a xlink:href="Share_8cpp.html" target="_top" xlink:title="Share.cpp">
<polygon fill="white" stroke="black" points="904.323,-238.1 904.323,-260.5 967.969,-260.5 967.969,-238.1 904.323,-238.1"/>
<text text-anchor="middle" x="936.146" y="-245.7" font-family="-adobe-utopia-medium-i-normal--0-0-0-0-p-0-iso10646-1" font-size="12.00">Share.cpp</text>
</a>
</g>
</g>
<!-- Node2&#45;&gt;Node20 -->
<g id="edge28" class="edge"><title>Node2&#45;&gt;Node20</title>
<path fill="none" stroke="midnightblue" d="M866.063,-292.204C882.794,-282.2 904.103,-269.459 918.808,-260.667"/>
<polygon fill="midnightblue" stroke="midnightblue" points="864.096,-289.302 857.309,-297.438 867.688,-295.31 864.096,-289.302"/>
</g>
<!-- Node21 -->
<g id="node21" class="node"><title>Node21</title>
<g id="a_node21"><a xlink:href="Individual_8cpp.html" target="_top" xlink:title="Individual.cpp">
<polygon fill="white" stroke="black" points="986.32,-238.1 986.32,-260.5 1071.97,-260.5 1071.97,-238.1 986.32,-238.1"/>
<text text-anchor="middle" x="1029.15" y="-245.7" font-family="-adobe-utopia-medium-i-normal--0-0-0-0-p-0-iso10646-1" font-size="12.00">Individual.cpp</text>
</a>
</g>
</g>
<!-- Node2&#45;&gt;Node21 -->
<g id="edge29" class="edge"><title>Node2&#45;&gt;Node21</title>
<path fill="none" stroke="midnightblue" d="M883.601,-294.503C917.569,-284.187 964.109,-270.052 995.331,-260.57"/>
<polygon fill="midnightblue" stroke="midnightblue" points="882.487,-291.183 873.936,-297.438 884.521,-297.881 882.487,-291.183"/>
</g>
<!-- Node3&#45;&gt;Node2 -->
<g id="edge19" class="edge"><title>Node3&#45;&gt;Node2</title>
<path fill="none" stroke="midnightblue" d="M766.97,-265.223C787.031,-275.349 811.269,-288.474 826.333,-297.438"/>
<polygon fill="midnightblue" stroke="midnightblue" points="768.318,-261.985 757.806,-260.667 765.202,-268.253 768.318,-261.985"/>
</g>
<!-- Node4 -->
<g id="node4" class="node"><title>Node4</title>
<g id="a_node4"><a xlink:href="PolymorphicIndividualsExtractor_8h.html" target="_top" xlink:title="PolymorphicIndividualsExtractor.h">
<polygon fill="white" stroke="black" points="370.33,-178.7 370.33,-201.1 555.963,-201.1 555.963,-178.7 370.33,-178.7"/>
<text text-anchor="middle" x="463.146" y="-186.3" font-family="-adobe-utopia-medium-i-normal--0-0-0-0-p-0-iso10646-1" font-size="12.00">PolymorphicIndividualsExtractor.h</text>
</a>
</g>
</g>
<!-- Node3&#45;&gt;Node4 -->
<g id="edge3" class="edge"><title>Node3&#45;&gt;Node4</title>
<path fill="none" stroke="midnightblue" d="M683.544,-237.755C634.532,-227.335 560.044,-211.5 511.479,-201.175"/>
<polygon fill="midnightblue" stroke="midnightblue" points="683.088,-241.236 693.597,-239.892 684.543,-234.389 683.088,-241.236"/>
</g>
<!-- Node5 -->
<g id="node5" class="node"><title>Node5</title>
<g id="a_node5"><a xlink:href="InputManager_8h.html" target="_top" xlink:title="InputManager.h">
<polygon fill="white" stroke="black" points="546.661,-119.3 546.661,-141.7 639.632,-141.7 639.632,-119.3 546.661,-119.3"/>
<text text-anchor="middle" x="593.146" y="-126.9" font-family="-adobe-utopia-medium-i-normal--0-0-0-0-p-0-iso10646-1" font-size="12.00">InputManager.h</text>
</a>
</g>
</g>
<!-- Node3&#45;&gt;Node5 -->
<g id="edge20" class="edge"><title>Node3&#45;&gt;Node5</title>
<path fill="none" stroke="midnightblue" d="M697.898,-233.661C681.153,-225.68 661.495,-214.74 646.146,-201.6 625.516,-183.938 607.952,-156.947 599.163,-142.139"/>
<polygon fill="midnightblue" stroke="midnightblue" points="696.818,-237.016 707.366,-238.011 699.741,-230.656 696.818,-237.016"/>
</g>
<!-- Node6 -->
<g id="node6" class="node"><title>Node6</title>
<g id="a_node6"><a xlink:href="GERMLINE_8h.html" target="_top" xlink:title="GERMLINE.h">
<polygon fill="white" stroke="black" points="623.655,-59.9 623.655,-82.3 710.638,-82.3 710.638,-59.9 623.655,-59.9"/>
<text text-anchor="middle" x="667.146" y="-67.5" font-family="-adobe-utopia-medium-i-normal--0-0-0-0-p-0-iso10646-1" font-size="12.00">GERMLINE.h</text>
</a>
</g>
</g>
<!-- Node3&#45;&gt;Node6 -->
<g id="edge21" class="edge"><title>Node3&#45;&gt;Node6</title>
<path fill="none" stroke="midnightblue" d="M707.151,-232.322C696.635,-224.435 685.499,-213.95 679.146,-201.6 658.594,-161.644 662.743,-105.555 665.609,-82.5587"/>
<polygon fill="midnightblue" stroke="midnightblue" points="705.152,-235.196 715.348,-238.077 709.174,-229.466 705.152,-235.196"/>
</g>
<!-- Node10 -->
<g id="node10" class="node"><title>Node10</title>
<g id="a_node10"><a xlink:href="MatchesBuilder_8h.html" target="_top" xlink:title="MatchesBuilder.h">
<polygon fill="white" stroke="black" points="741.325,-119.3 741.325,-141.7 842.968,-141.7 842.968,-119.3 741.325,-119.3"/>
<text text-anchor="middle" x="792.146" y="-126.9" font-family="-adobe-utopia-medium-i-normal--0-0-0-0-p-0-iso10646-1" font-size="12.00">MatchesBuilder.h</text>
</a>
</g>
</g>
<!-- Node3&#45;&gt;Node10 -->
<g id="edge22" class="edge"><title>Node3&#45;&gt;Node10</title>
<path fill="none" stroke="midnightblue" d="M759.8,-231.985C770.179,-224.155 781.03,-213.807 787.146,-201.6 796.766,-182.401 795.522,-156.468 793.805,-142.134"/>
<polygon fill="midnightblue" stroke="midnightblue" points="757.476,-229.34 751.308,-237.954 761.502,-235.067 757.476,-229.34"/>
</g>
<!-- Node17 -->
<g id="node17" class="node"><title>Node17</title>
<g id="a_node17"><a xlink:href="Individuals_8cpp.html" target="_top" xlink:title="Individuals.cpp">
<polygon fill="white" stroke="black" points="687.987,-178.7 687.987,-201.1 778.306,-201.1 778.306,-178.7 687.987,-178.7"/>
<text text-anchor="middle" x="733.146" y="-186.3" font-family="-adobe-utopia-medium-i-normal--0-0-0-0-p-0-iso10646-1" font-size="12.00">Individuals.cpp</text>
</a>
</g>
</g>
<!-- Node3&#45;&gt;Node17 -->
<g id="edge23" class="edge"><title>Node3&#45;&gt;Node17</title>
<path fill="none" stroke="midnightblue" d="M733.146,-227.971C733.146,-219.017 733.146,-208.872 733.146,-201.461"/>
<polygon fill="midnightblue" stroke="midnightblue" points="729.646,-228.038 733.146,-238.038 736.646,-228.038 729.646,-228.038"/>
</g>
<!-- Node4&#45;&gt;Node5 -->
<g id="edge4" class="edge"><title>Node4&#45;&gt;Node5</title>
<path fill="none" stroke="midnightblue" d="M495.75,-174.504C518.749,-164.349 549.017,-150.985 569.668,-141.867"/>
<polygon fill="midnightblue" stroke="midnightblue" points="494.122,-171.397 486.388,-178.638 496.949,-177.801 494.122,-171.397"/>
</g>
<!-- Node4&#45;&gt;Node10 -->
<g id="edge9" class="edge"><title>Node4&#45;&gt;Node10</title>
<path fill="none" stroke="midnightblue" d="M532.116,-176.867C594.525,-165.979 685.008,-150.192 741.125,-140.402"/>
<polygon fill="midnightblue" stroke="midnightblue" points="531.215,-173.471 521.965,-178.638 532.418,-180.367 531.215,-173.471"/>
</g>
<!-- Node12 -->
<g id="node12" class="node"><title>Node12</title>
<g id="a_node12"><a xlink:href="HMIndividualsExtractor_8h.html" target="_top" xlink:title="HMIndividualsExtractor.h">
<polygon fill="white" stroke="black" points="5.6634,-119.3 5.6634,-141.7 148.629,-141.7 148.629,-119.3 5.6634,-119.3"/>
<text text-anchor="middle" x="77.1464" y="-126.9" font-family="-adobe-utopia-medium-i-normal--0-0-0-0-p-0-iso10646-1" font-size="12.00">HMIndividualsExtractor.h</text>
</a>
</g>
</g>
<!-- Node4&#45;&gt;Node12 -->
<g id="edge12" class="edge"><title>Node4&#45;&gt;Node12</title>
<path fill="none" stroke="midnightblue" d="M384.03,-177.135C313.94,-166.712 212.651,-151.65 145.883,-141.721"/>
<polygon fill="midnightblue" stroke="midnightblue" points="383.731,-180.629 394.137,-178.638 384.761,-173.705 383.731,-180.629"/>
</g>
<!-- Node14 -->
<g id="node14" class="node"><title>Node14</title>
<g id="a_node14"><a xlink:href="PEDIndividualsExtractor_8h.html" target="_top" xlink:title="PEDIndividualsExtractor.h">
<polygon fill="white" stroke="black" points="166.996,-119.3 166.996,-141.7 313.297,-141.7 313.297,-119.3 166.996,-119.3"/>
<text text-anchor="middle" x="240.146" y="-126.9" font-family="-adobe-utopia-medium-i-normal--0-0-0-0-p-0-iso10646-1" font-size="12.00">PEDIndividualsExtractor.h</text>
</a>
</g>
</g>
<!-- Node4&#45;&gt;Node14 -->
<g id="edge15" class="edge"><title>Node4&#45;&gt;Node14</title>
<path fill="none" stroke="midnightblue" d="M413.416,-176.099C373.213,-165.751 317.358,-151.374 280.044,-141.77"/>
<polygon fill="midnightblue" stroke="midnightblue" points="412.722,-179.535 423.278,-178.638 414.467,-172.756 412.722,-179.535"/>
</g>
<!-- Node16 -->
<g id="node16" class="node"><title>Node16</title>
<g id="a_node16"><a xlink:href="PolymorphicIndividualsExtractor_8cpp.html" target="_top" xlink:title="PolymorphicIndividualsExtractor.cpp">
<polygon fill="white" stroke="black" points="331.666,-119.3 331.666,-141.7 528.626,-141.7 528.626,-119.3 331.666,-119.3"/>
<text text-anchor="middle" x="430.146" y="-126.9" font-family="-adobe-utopia-medium-i-normal--0-0-0-0-p-0-iso10646-1" font-size="12.00">PolymorphicIndividualsExtractor.cpp</text>
</a>
</g>
</g>
<!-- Node4&#45;&gt;Node16 -->
<g id="edge18" class="edge"><title>Node4&#45;&gt;Node16</title>
<path fill="none" stroke="midnightblue" d="M452.134,-169.745C446.827,-160.514 440.666,-149.798 436.218,-142.061"/>
<polygon fill="midnightblue" stroke="midnightblue" points="449.228,-171.713 457.247,-178.638 455.297,-168.224 449.228,-171.713"/>
</g>
<!-- Node5&#45;&gt;Node6 -->
<g id="edge5" class="edge"><title>Node5&#45;&gt;Node6</title>
<path fill="none" stroke="midnightblue" d="M614.516,-112.924C627.089,-103.172 642.612,-91.131 653.531,-82.6615"/>
<polygon fill="midnightblue" stroke="midnightblue" points="612.133,-110.343 606.376,-119.238 616.423,-115.874 612.133,-110.343"/>
</g>
<!-- Node9 -->
<g id="node9" class="node"><title>Node9</title>
<g id="a_node9"><a xlink:href="InputManager_8cpp.html" target="_top" xlink:title="InputManager.cpp">
<polygon fill="white" stroke="black" points="179.997,-59.9 179.997,-82.3 284.296,-82.3 284.296,-59.9 179.997,-59.9"/>
<text text-anchor="middle" x="232.146" y="-67.5" font-family="-adobe-utopia-medium-i-normal--0-0-0-0-p-0-iso10646-1" font-size="12.00">InputManager.cpp</text>
</a>
</g>
</g>
<!-- Node5&#45;&gt;Node9 -->
<g id="edge8" class="edge"><title>Node5&#45;&gt;Node9</title>
<path fill="none" stroke="midnightblue" d="M536.334,-118.719C427.372,-100.481 398.193,-99.7593 293.146,-82.8 290.28,-82.3373 287.341,-81.8532 284.374,-81.3573"/>
<polygon fill="midnightblue" stroke="midnightblue" points="535.98,-122.209 546.422,-120.419 537.143,-115.306 535.98,-122.209"/>
</g>
<!-- Node7 -->
<g id="node7" class="node"><title>Node7</title>
<g id="a_node7"><a xlink:href="GERMLINE__0001_8cpp.html" target="_top" xlink:title="GERMLINE_0001.cpp">
<polygon fill="white" stroke="black" points="537.992,-0.5 537.992,-22.9 666.301,-22.9 666.301,-0.5 537.992,-0.5"/>
<text text-anchor="middle" x="602.146" y="-8.1" font-family="-adobe-utopia-medium-i-normal--0-0-0-0-p-0-iso10646-1" font-size="12.00">GERMLINE_0001.cpp</text>
</a>
</g>
</g>
<!-- Node6&#45;&gt;Node7 -->
<g id="edge6" class="edge"><title>Node6&#45;&gt;Node7</title>
<path fill="none" stroke="midnightblue" d="M647.736,-52.9589C636.809,-43.3099 623.513,-31.5682 614.106,-23.2615"/>
<polygon fill="midnightblue" stroke="midnightblue" points="645.713,-55.8422 655.526,-59.838 650.347,-50.5952 645.713,-55.8422"/>
</g>
<!-- Node8 -->
<g id="node8" class="node"><title>Node8</title>
<g id="a_node8"><a xlink:href="GERMLINE_8cpp.html" target="_top" xlink:title="GERMLINE.cpp">
<polygon fill="white" stroke="black" points="683.992,-0.5 683.992,-22.9 782.301,-22.9 782.301,-0.5 683.992,-0.5"/>
<text text-anchor="middle" x="733.146" y="-8.1" font-family="-adobe-utopia-medium-i-normal--0-0-0-0-p-0-iso10646-1" font-size="12.00">GERMLINE.cpp</text>
</a>
</g>
</g>
<!-- Node6&#45;&gt;Node8 -->
<g id="edge7" class="edge"><title>Node6&#45;&gt;Node8</title>
<path fill="none" stroke="midnightblue" d="M686.53,-53.2421C697.685,-43.5405 711.358,-31.6496 721.003,-23.2615"/>
<polygon fill="midnightblue" stroke="midnightblue" points="684.195,-50.6347 678.946,-59.838 688.788,-55.9166 684.195,-50.6347"/>
</g>
<!-- Node10&#45;&gt;Node6 -->
<g id="edge10" class="edge"><title>Node10&#45;&gt;Node6</title>
<path fill="none" stroke="midnightblue" d="M760.5,-114.968C738.423,-104.83 709.49,-91.5441 689.722,-82.4667"/>
<polygon fill="midnightblue" stroke="midnightblue" points="759.251,-118.246 769.799,-119.238 762.172,-111.884 759.251,-118.246"/>
</g>
<!-- Node11 -->
<g id="node11" class="node"><title>Node11</title>
<g id="a_node11"><a xlink:href="MatchesBuilder_8cpp.html" target="_top" xlink:title="MatchesBuilder.cpp">
<polygon fill="white" stroke="black" points="735.662,-59.9 735.662,-82.3 848.631,-82.3 848.631,-59.9 735.662,-59.9"/>
<text text-anchor="middle" x="792.146" y="-67.5" font-family="-adobe-utopia-medium-i-normal--0-0-0-0-p-0-iso10646-1" font-size="12.00">MatchesBuilder.cpp</text>
</a>
</g>
</g>
<!-- Node10&#45;&gt;Node11 -->
<g id="edge11" class="edge"><title>Node10&#45;&gt;Node11</title>
<path fill="none" stroke="midnightblue" d="M792.146,-109.171C792.146,-100.217 792.146,-90.0723 792.146,-82.6615"/>
<polygon fill="midnightblue" stroke="midnightblue" points="788.646,-109.238 792.146,-119.238 795.646,-109.238 788.646,-109.238"/>
</g>
<!-- Node12&#45;&gt;Node9 -->
<g id="edge14" class="edge"><title>Node12&#45;&gt;Node9</title>
<path fill="none" stroke="midnightblue" d="M114.591,-115.633C142.273,-105.382 179.358,-91.6487 204.415,-82.3697"/>
<polygon fill="midnightblue" stroke="midnightblue" points="113.019,-112.483 104.857,-119.238 115.45,-119.047 113.019,-112.483"/>
</g>
<!-- Node13 -->
<g id="node13" class="node"><title>Node13</title>
<g id="a_node13"><a xlink:href="HMIndividualsExtractor_8cpp.html" target="_top" xlink:title="HMIndividualsExtractor.cpp">
<polygon fill="white" stroke="black" points="9.9476e-14,-59.9 9.9476e-14,-82.3 154.293,-82.3 154.293,-59.9 9.9476e-14,-59.9"/>
<text text-anchor="middle" x="77.1464" y="-67.5" font-family="-adobe-utopia-medium-i-normal--0-0-0-0-p-0-iso10646-1" font-size="12.00">HMIndividualsExtractor.cpp</text>
</a>
</g>
</g>
<!-- Node12&#45;&gt;Node13 -->
<g id="edge13" class="edge"><title>Node12&#45;&gt;Node13</title>
<path fill="none" stroke="midnightblue" d="M77.1464,-109.171C77.1464,-100.217 77.1464,-90.0723 77.1464,-82.6615"/>
<polygon fill="midnightblue" stroke="midnightblue" points="73.6465,-109.238 77.1464,-119.238 80.6465,-109.238 73.6465,-109.238"/>
</g>
<!-- Node14&#45;&gt;Node9 -->
<g id="edge16" class="edge"><title>Node14&#45;&gt;Node9</title>
<path fill="none" stroke="midnightblue" d="M237.313,-109.171C236.065,-100.217 234.651,-90.0723 233.618,-82.6615"/>
<polygon fill="midnightblue" stroke="midnightblue" points="233.869,-109.817 238.716,-119.238 240.802,-108.851 233.869,-109.817"/>
</g>
<!-- Node15 -->
<g id="node15" class="node"><title>Node15</title>
<g id="a_node15"><a xlink:href="PEDIndividualsExtractor_8cpp.html" target="_top" xlink:title="PEDIndividualsExtractor.cpp">
<polygon fill="white" stroke="black" points="302.333,-59.9 302.333,-82.3 459.96,-82.3 459.96,-59.9 302.333,-59.9"/>
<text text-anchor="middle" x="381.146" y="-67.5" font-family="-adobe-utopia-medium-i-normal--0-0-0-0-p-0-iso10646-1" font-size="12.00">PEDIndividualsExtractor.cpp</text>
</a>
</g>
</g>
<!-- Node14&#45;&gt;Node15 -->
<g id="edge17" class="edge"><title>Node14&#45;&gt;Node15</title>
<path fill="none" stroke="midnightblue" d="M274.843,-115.375C299.866,-105.188 333.083,-91.6662 355.681,-82.4667"/>
<polygon fill="midnightblue" stroke="midnightblue" points="273.297,-112.226 265.354,-119.238 275.936,-118.709 273.297,-112.226"/>
</g>
<!-- Node18&#45;&gt;Node10 -->
<g id="edge26" class="edge"><title>Node18&#45;&gt;Node10</title>
<path fill="none" stroke="midnightblue" d="M835.907,-228.254C832.533,-213.967 827.206,-194.486 820.146,-178.2 814.432,-165.016 805.632,-151.025 799.426,-141.832"/>
<polygon fill="midnightblue" stroke="midnightblue" points="832.496,-229.039 838.103,-238.029 839.326,-227.505 832.496,-229.039"/>
</g>
<!-- Node19 -->
<g id="node19" class="node"><title>Node19</title>
<g id="a_node19"><a xlink:href="MatchFactory_8cpp.html" target="_top" xlink:title="MatchFactory.cpp">
<polygon fill="white" stroke="black" points="872.328,-178.7 872.328,-201.1 975.964,-201.1 975.964,-178.7 872.328,-178.7"/>
<text text-anchor="middle" x="924.146" y="-186.3" font-family="-adobe-utopia-medium-i-normal--0-0-0-0-p-0-iso10646-1" font-size="12.00">MatchFactory.cpp</text>
</a>
</g>
</g>
<!-- Node18&#45;&gt;Node19 -->
<g id="edge27" class="edge"><title>Node18&#45;&gt;Node19</title>
<path fill="none" stroke="midnightblue" d="M863.64,-232.246C878.152,-222.33 896.347,-209.896 908.976,-201.267"/>
<polygon fill="midnightblue" stroke="midnightblue" points="861.446,-229.506 855.164,-238.038 865.395,-235.286 861.446,-229.506"/>
</g>
</g>
</svg>
