<?xml version="1.0" encoding="UTF-8" standalone="no"?>
<!DOCTYPE svg PUBLIC "-//W3C//DTD SVG 1.1//EN"
 "http://www.w3.org/Graphics/SVG/1.1/DTD/svg11.dtd">
<!-- Generated by graphviz version 2.38.0 (20140413.2041)
 -->
<!-- Title: NucleotideMap.h Pages: 1 -->
<svg width="1170pt" height="566pt"
 viewBox="0.00 0.00 1170.30 566.00" xmlns="http://www.w3.org/2000/svg" xmlns:xlink="http://www.w3.org/1999/xlink">
<g id="graph0" class="graph" transform="scale(1 1) rotate(0) translate(4 562)">
<title>NucleotideMap.h</title>
<polygon fill="white" stroke="none" points="-4,4 -4,-562 1166.3,-562 1166.3,4 -4,4"/>
<!-- Node1 -->
<g id="node1" class="node"><title>Node1</title>
<polygon fill="#bfbfbf" stroke="black" points="917.67,-535.1 917.67,-557.5 1017.31,-557.5 1017.31,-535.1 917.67,-535.1"/>
<text text-anchor="middle" x="967.491" y="-542.7" font-family="-adobe-utopia-medium-i-normal--0-0-0-0-p-0-iso10646-1" font-size="12.00">NucleotideMap.h</text>
</g>
<!-- Node2 -->
<g id="node2" class="node"><title>Node2</title>
<g id="a_node2"><a xlink:href="SNPs_8h.html" target="_top" xlink:title="SNPs.h">
<polygon fill="white" stroke="black" points="696.655,-475.7 696.655,-498.1 748.327,-498.1 748.327,-475.7 696.655,-475.7"/>
<text text-anchor="middle" x="722.491" y="-483.3" font-family="-adobe-utopia-medium-i-normal--0-0-0-0-p-0-iso10646-1" font-size="12.00">SNPs.h</text>
</a>
</g>
</g>
<!-- Node1&#45;&gt;Node2 -->
<g id="edge1" class="edge"><title>Node1&#45;&gt;Node2</title>
<path fill="none" stroke="midnightblue" d="M913.79,-532.719C862.623,-520.731 787.758,-503.191 748.583,-494.013"/>
<polygon fill="midnightblue" stroke="midnightblue" points="913.155,-536.165 923.69,-535.038 914.752,-529.349 913.155,-536.165"/>
</g>
<!-- Node14 -->
<g id="node14" class="node"><title>Node14</title>
<g id="a_node14"><a xlink:href="HMIndividualsExtractor_8h.html" target="_top" xlink:title="HMIndividualsExtractor.h">
<polygon fill="white" stroke="black" points="838.008,-178.7 838.008,-201.1 980.974,-201.1 980.974,-178.7 838.008,-178.7"/>
<text text-anchor="middle" x="909.491" y="-186.3" font-family="-adobe-utopia-medium-i-normal--0-0-0-0-p-0-iso10646-1" font-size="12.00">HMIndividualsExtractor.h</text>
</a>
</g>
</g>
<!-- Node1&#45;&gt;Node14 -->
<g id="edge45" class="edge"><title>Node1&#45;&gt;Node14</title>
<path fill="none" stroke="midnightblue" d="M962.17,-525.088C956.549,-501.928 948.491,-462.751 948.491,-428.5 948.491,-428.5 948.491,-428.5 948.491,-307.7 948.491,-266.44 926.324,-221.006 915.414,-201.143"/>
<polygon fill="midnightblue" stroke="midnightblue" points="958.85,-526.237 964.687,-535.079 965.638,-524.527 958.85,-526.237"/>
</g>
<!-- Node16 -->
<g id="node16" class="node"><title>Node16</title>
<g id="a_node16"><a xlink:href="PEDIndividualsExtractor_8h.html" target="_top" xlink:title="PEDIndividualsExtractor.h">
<polygon fill="white" stroke="black" points="999.341,-178.7 999.341,-201.1 1145.64,-201.1 1145.64,-178.7 999.341,-178.7"/>
<text text-anchor="middle" x="1072.49" y="-186.3" font-family="-adobe-utopia-medium-i-normal--0-0-0-0-p-0-iso10646-1" font-size="12.00">PEDIndividualsExtractor.h</text>
</a>
</g>
</g>
<!-- Node1&#45;&gt;Node16 -->
<g id="edge46" class="edge"><title>Node1&#45;&gt;Node16</title>
<path fill="none" stroke="midnightblue" d="M972.812,-525.088C978.433,-501.928 986.491,-462.751 986.491,-428.5 986.491,-428.5 986.491,-428.5 986.491,-307.7 986.491,-260.359 1032.87,-219.559 1057.51,-201.224"/>
<polygon fill="midnightblue" stroke="midnightblue" points="969.344,-524.527 970.295,-535.079 976.132,-526.237 969.344,-524.527"/>
</g>
<!-- Node32 -->
<g id="node32" class="node"><title>Node32</title>
<g id="a_node32"><a xlink:href="NucleotideMap_8cpp.html" target="_top" xlink:title="NucleotideMap.cpp">
<polygon fill="white" stroke="black" points="1014.01,-475.7 1014.01,-498.1 1124.97,-498.1 1124.97,-475.7 1014.01,-475.7"/>
<text text-anchor="middle" x="1069.49" y="-483.3" font-family="-adobe-utopia-medium-i-normal--0-0-0-0-p-0-iso10646-1" font-size="12.00">NucleotideMap.cpp</text>
</a>
</g>
</g>
<!-- Node1&#45;&gt;Node32 -->
<g id="edge47" class="edge"><title>Node1&#45;&gt;Node32</title>
<path fill="none" stroke="midnightblue" d="M994.534,-530.081C1012.38,-520.037 1035.3,-507.141 1051.07,-498.267"/>
<polygon fill="midnightblue" stroke="midnightblue" points="992.725,-527.084 985.727,-535.038 996.158,-533.184 992.725,-527.084"/>
</g>
<!-- Node3 -->
<g id="node3" class="node"><title>Node3</title>
<g id="a_node3"><a xlink:href="MarkerSet_8h.html" target="_top" xlink:title="MarkerSet.h">
<polygon fill="white" stroke="black" points="187.67,-416.3 187.67,-438.7 263.312,-438.7 263.312,-416.3 187.67,-416.3"/>
<text text-anchor="middle" x="225.491" y="-423.9" font-family="-adobe-utopia-medium-i-normal--0-0-0-0-p-0-iso10646-1" font-size="12.00">MarkerSet.h</text>
</a>
</g>
</g>
<!-- Node2&#45;&gt;Node3 -->
<g id="edge2" class="edge"><title>Node2&#45;&gt;Node3</title>
<path fill="none" stroke="midnightblue" d="M686.362,-481.727C595.277,-471.208 356.901,-443.677 263.66,-432.908"/>
<polygon fill="midnightblue" stroke="midnightblue" points="686.134,-485.224 696.47,-482.895 686.937,-478.27 686.134,-485.224"/>
</g>
<!-- Node6 -->
<g id="node6" class="node"><title>Node6</title>
<g id="a_node6"><a xlink:href="PolymorphicIndividualsExtractor_8h.html" target="_top" xlink:title="PolymorphicIndividualsExtractor.h">
<polygon fill="white" stroke="black" points="734.674,-238.1 734.674,-260.5 920.308,-260.5 920.308,-238.1 734.674,-238.1"/>
<text text-anchor="middle" x="827.491" y="-245.7" font-family="-adobe-utopia-medium-i-normal--0-0-0-0-p-0-iso10646-1" font-size="12.00">PolymorphicIndividualsExtractor.h</text>
</a>
</g>
</g>
<!-- Node2&#45;&gt;Node6 -->
<g id="edge43" class="edge"><title>Node2&#45;&gt;Node6</title>
<path fill="none" stroke="midnightblue" d="M726.787,-465.551C730.076,-451.357 735.127,-432.114 741.491,-415.8 765.381,-354.563 805.46,-286.378 821.031,-260.77"/>
<polygon fill="midnightblue" stroke="midnightblue" points="723.284,-465.178 724.535,-475.698 730.118,-466.694 723.284,-465.178"/>
</g>
<!-- Node20 -->
<g id="node20" class="node"><title>Node20</title>
<g id="a_node20"><a xlink:href="Match_8h.html" target="_top" xlink:title="Match.h">
<polygon fill="white" stroke="black" points="10.6634,-178.7 10.6634,-201.1 66.3186,-201.1 66.3186,-178.7 10.6634,-178.7"/>
<text text-anchor="middle" x="38.491" y="-186.3" font-family="-adobe-utopia-medium-i-normal--0-0-0-0-p-0-iso10646-1" font-size="12.00">Match.h</text>
</a>
</g>
</g>
<!-- Node2&#45;&gt;Node20 -->
<g id="edge42" class="edge"><title>Node2&#45;&gt;Node20</title>
<path fill="none" stroke="midnightblue" d="M686.524,-484.634C581.138,-480.636 274.472,-466.881 178.491,-439.2 113.152,-420.356 42.491,-437.101 42.491,-369.1 42.491,-369.1 42.491,-369.1 42.491,-307.7 42.491,-268.338 40.1939,-221.558 39.0812,-201.208"/>
<polygon fill="midnightblue" stroke="midnightblue" points="686.529,-488.136 696.653,-485.011 686.79,-481.141 686.529,-488.136"/>
</g>
<!-- Node31 -->
<g id="node31" class="node"><title>Node31</title>
<g id="a_node31"><a xlink:href="SNPs_8cpp.html" target="_top" xlink:title="SNPs.cpp">
<polygon fill="white" stroke="black" points="749.992,-416.3 749.992,-438.7 812.99,-438.7 812.99,-416.3 749.992,-416.3"/>
<text text-anchor="middle" x="781.491" y="-423.9" font-family="-adobe-utopia-medium-i-normal--0-0-0-0-p-0-iso10646-1" font-size="12.00">SNPs.cpp</text>
</a>
</g>
</g>
<!-- Node2&#45;&gt;Node31 -->
<g id="edge44" class="edge"><title>Node2&#45;&gt;Node31</title>
<path fill="none" stroke="midnightblue" d="M740.402,-468.475C750.264,-458.88 762.181,-447.287 770.635,-439.061"/>
<polygon fill="midnightblue" stroke="midnightblue" points="737.766,-466.156 733.039,-475.638 742.647,-471.173 737.766,-466.156"/>
</g>
<!-- Node4 -->
<g id="node4" class="node"><title>Node4</title>
<g id="a_node4"><a xlink:href="Chromosome_8h.html" target="_top" xlink:title="Chromosome.h">
<polygon fill="white" stroke="black" points="290.661,-356.9 290.661,-379.3 380.321,-379.3 380.321,-356.9 290.661,-356.9"/>
<text text-anchor="middle" x="335.491" y="-364.5" font-family="-adobe-utopia-medium-i-normal--0-0-0-0-p-0-iso10646-1" font-size="12.00">Chromosome.h</text>
</a>
</g>
</g>
<!-- Node3&#45;&gt;Node4 -->
<g id="edge3" class="edge"><title>Node3&#45;&gt;Node4</title>
<path fill="none" stroke="midnightblue" d="M254.127,-411.557C273.451,-401.474 298.463,-388.422 315.625,-379.467"/>
<polygon fill="midnightblue" stroke="midnightblue" points="252.403,-408.509 245.157,-416.238 255.642,-414.715 252.403,-408.509"/>
</g>
<!-- Node3&#45;&gt;Node20 -->
<g id="edge39" class="edge"><title>Node3&#45;&gt;Node20</title>
<path fill="none" stroke="midnightblue" d="M198.102,-410.912C185.157,-402.712 170.047,-391.862 158.491,-379.8 102.045,-320.886 57.456,-231.514 43.2546,-201.299"/>
<polygon fill="midnightblue" stroke="midnightblue" points="196.292,-413.908 206.648,-416.147 199.949,-407.939 196.292,-413.908"/>
</g>
<!-- Node22 -->
<g id="node22" class="node"><title>Node22</title>
<g id="a_node22"><a xlink:href="MatchFactory_8h.html" target="_top" xlink:title="MatchFactory.h">
<polygon fill="white" stroke="black" points="84.3364,-178.7 84.3364,-201.1 176.646,-201.1 176.646,-178.7 84.3364,-178.7"/>
<text text-anchor="middle" x="130.491" y="-186.3" font-family="-adobe-utopia-medium-i-normal--0-0-0-0-p-0-iso10646-1" font-size="12.00">MatchFactory.h</text>
</a>
</g>
</g>
<!-- Node3&#45;&gt;Node22 -->
<g id="edge40" class="edge"><title>Node3&#45;&gt;Node22</title>
<path fill="none" stroke="midnightblue" d="M201.312,-410.022C191.289,-402.012 180.409,-391.568 173.491,-379.8 137.697,-318.91 131.692,-230.804 130.69,-201.108"/>
<polygon fill="midnightblue" stroke="midnightblue" points="199.337,-412.917 209.425,-416.155 203.558,-407.333 199.337,-412.917"/>
</g>
<!-- Node30 -->
<g id="node30" class="node"><title>Node30</title>
<g id="a_node30"><a xlink:href="MarkerSet_8cpp.html" target="_top" xlink:title="MarkerSet.cpp">
<polygon fill="white" stroke="black" points="182.006,-356.9 182.006,-379.3 268.976,-379.3 268.976,-356.9 182.006,-356.9"/>
<text text-anchor="middle" x="225.491" y="-364.5" font-family="-adobe-utopia-medium-i-normal--0-0-0-0-p-0-iso10646-1" font-size="12.00">MarkerSet.cpp</text>
</a>
</g>
</g>
<!-- Node3&#45;&gt;Node30 -->
<g id="edge41" class="edge"><title>Node3&#45;&gt;Node30</title>
<path fill="none" stroke="midnightblue" d="M225.491,-406.171C225.491,-397.217 225.491,-387.072 225.491,-379.661"/>
<polygon fill="midnightblue" stroke="midnightblue" points="221.991,-406.238 225.491,-416.238 228.991,-406.238 221.991,-406.238"/>
</g>
<!-- Node5 -->
<g id="node5" class="node"><title>Node5</title>
<g id="a_node5"><a xlink:href="Individuals_8h.html" target="_top" xlink:title="Individuals.h">
<polygon fill="white" stroke="black" points="372.995,-297.5 372.995,-319.9 451.987,-319.9 451.987,-297.5 372.995,-297.5"/>
<text text-anchor="middle" x="412.491" y="-305.1" font-family="-adobe-utopia-medium-i-normal--0-0-0-0-p-0-iso10646-1" font-size="12.00">Individuals.h</text>
</a>
</g>
</g>
<!-- Node4&#45;&gt;Node5 -->
<g id="edge4" class="edge"><title>Node4&#45;&gt;Node5</title>
<path fill="none" stroke="midnightblue" d="M357.405,-350.764C370.643,-340.895 387.117,-328.615 398.585,-320.067"/>
<polygon fill="midnightblue" stroke="midnightblue" points="355.183,-348.055 349.257,-356.838 359.366,-353.667 355.183,-348.055"/>
</g>
<!-- Node19 -->
<g id="node19" class="node"><title>Node19</title>
<g id="a_node19"><a xlink:href="Individual_8h.html" target="_top" xlink:title="Individual.h">
<polygon fill="white" stroke="black" points="226.328,-238.1 226.328,-260.5 300.654,-260.5 300.654,-238.1 226.328,-238.1"/>
<text text-anchor="middle" x="263.491" y="-245.7" font-family="-adobe-utopia-medium-i-normal--0-0-0-0-p-0-iso10646-1" font-size="12.00">Individual.h</text>
</a>
</g>
</g>
<!-- Node4&#45;&gt;Node19 -->
<g id="edge35" class="edge"><title>Node4&#45;&gt;Node19</title>
<path fill="none" stroke="midnightblue" d="M333.163,-346.773C330.751,-332.064 325.94,-312.186 316.491,-297 307.161,-282.006 291.558,-269.104 279.691,-260.685"/>
<polygon fill="midnightblue" stroke="midnightblue" points="329.721,-347.433 334.577,-356.85 336.653,-346.461 329.721,-347.433"/>
</g>
<!-- Node27 -->
<g id="node27" class="node"><title>Node27</title>
<g id="a_node27"><a xlink:href="Chromosome_8cpp.html" target="_top" xlink:title="Chromosome.cpp">
<polygon fill="white" stroke="black" points="206.997,-297.5 206.997,-319.9 307.985,-319.9 307.985,-297.5 206.997,-297.5"/>
<text text-anchor="middle" x="257.491" y="-305.1" font-family="-adobe-utopia-medium-i-normal--0-0-0-0-p-0-iso10646-1" font-size="12.00">Chromosome.cpp</text>
</a>
</g>
</g>
<!-- Node4&#45;&gt;Node27 -->
<g id="edge36" class="edge"><title>Node4&#45;&gt;Node27</title>
<path fill="none" stroke="midnightblue" d="M313.293,-350.764C299.882,-340.895 283.194,-328.615 271.578,-320.067"/>
<polygon fill="midnightblue" stroke="midnightblue" points="311.417,-353.73 321.546,-356.838 315.566,-348.092 311.417,-353.73"/>
</g>
<!-- Node28 -->
<g id="node28" class="node"><title>Node28</title>
<g id="a_node28"><a xlink:href="ChromosomePair_8h.html" target="_top" xlink:title="ChromosomePair.h">
<polygon fill="white" stroke="black" points="522.997,-297.5 522.997,-319.9 631.985,-319.9 631.985,-297.5 522.997,-297.5"/>
<text text-anchor="middle" x="577.491" y="-305.1" font-family="-adobe-utopia-medium-i-normal--0-0-0-0-p-0-iso10646-1" font-size="12.00">ChromosomePair.h</text>
</a>
</g>
</g>
<!-- Node4&#45;&gt;Node28 -->
<g id="edge37" class="edge"><title>Node4&#45;&gt;Node28</title>
<path fill="none" stroke="midnightblue" d="M388.629,-354.496C432.315,-344.134 493.443,-329.635 534.194,-319.97"/>
<polygon fill="midnightblue" stroke="midnightblue" points="387.678,-351.125 378.756,-356.838 389.294,-357.936 387.678,-351.125"/>
</g>
<!-- Node5&#45;&gt;Node6 -->
<g id="edge5" class="edge"><title>Node5&#45;&gt;Node6</title>
<path fill="none" stroke="midnightblue" d="M462.503,-300.783C534.921,-290.766 669.476,-272.156 753.426,-260.544"/>
<polygon fill="midnightblue" stroke="midnightblue" points="461.709,-297.359 452.283,-302.196 462.668,-304.293 461.709,-297.359"/>
</g>
<!-- Node7 -->
<g id="node7" class="node"><title>Node7</title>
<g id="a_node7"><a xlink:href="InputManager_8h.html" target="_top" xlink:title="InputManager.h">
<polygon fill="white" stroke="black" points="512.005,-178.7 512.005,-201.1 604.977,-201.1 604.977,-178.7 512.005,-178.7"/>
<text text-anchor="middle" x="558.491" y="-186.3" font-family="-adobe-utopia-medium-i-normal--0-0-0-0-p-0-iso10646-1" font-size="12.00">InputManager.h</text>
</a>
</g>
</g>
<!-- Node5&#45;&gt;Node7 -->
<g id="edge31" class="edge"><title>Node5&#45;&gt;Node7</title>
<path fill="none" stroke="midnightblue" d="M462.445,-303.623C492.283,-298.448 528.373,-286.851 549.491,-261 563.464,-243.896 562.237,-216.188 560.277,-201.244"/>
<polygon fill="midnightblue" stroke="midnightblue" points="461.54,-300.221 452.187,-305.199 462.602,-307.14 461.54,-300.221"/>
</g>
<!-- Node8 -->
<g id="node8" class="node"><title>Node8</title>
<g id="a_node8"><a xlink:href="GERMLINE_8h.html" target="_top" xlink:title="GERMLINE.h">
<polygon fill="white" stroke="black" points="405,-59.9 405,-82.3 491.982,-82.3 491.982,-59.9 405,-59.9"/>
<text text-anchor="middle" x="448.491" y="-67.5" font-family="-adobe-utopia-medium-i-normal--0-0-0-0-p-0-iso10646-1" font-size="12.00">GERMLINE.h</text>
</a>
</g>
</g>
<!-- Node5&#45;&gt;Node8 -->
<g id="edge32" class="edge"><title>Node5&#45;&gt;Node8</title>
<path fill="none" stroke="midnightblue" d="M415.6,-287.354C422.993,-238.971 441.415,-118.406 446.916,-82.407"/>
<polygon fill="midnightblue" stroke="midnightblue" points="412.135,-286.859 414.084,-297.273 419.055,-287.916 412.135,-286.859"/>
</g>
<!-- Node12 -->
<g id="node12" class="node"><title>Node12</title>
<g id="a_node12"><a xlink:href="MatchesBuilder_8h.html" target="_top" xlink:title="MatchesBuilder.h">
<polygon fill="white" stroke="black" points="298.67,-119.3 298.67,-141.7 400.312,-141.7 400.312,-119.3 298.67,-119.3"/>
<text text-anchor="middle" x="349.491" y="-126.9" font-family="-adobe-utopia-medium-i-normal--0-0-0-0-p-0-iso10646-1" font-size="12.00">MatchesBuilder.h</text>
</a>
</g>
</g>
<!-- Node5&#45;&gt;Node12 -->
<g id="edge33" class="edge"><title>Node5&#45;&gt;Node12</title>
<path fill="none" stroke="midnightblue" d="M407.081,-287.779C399.905,-262.104 386.396,-216.241 371.491,-178.2 366.456,-165.349 359.517,-151.06 354.788,-141.713"/>
<polygon fill="midnightblue" stroke="midnightblue" points="403.72,-288.757 409.754,-297.465 410.467,-286.894 403.72,-288.757"/>
</g>
<!-- Node5&#45;&gt;Node19 -->
<g id="edge21" class="edge"><title>Node5&#45;&gt;Node19</title>
<path fill="none" stroke="midnightblue" d="M371.019,-293.979C343.115,-283.748 307.57,-269.988 285.066,-260.667"/>
<polygon fill="midnightblue" stroke="midnightblue" points="369.943,-297.312 380.537,-297.438 372.334,-290.733 369.943,-297.312"/>
</g>
<!-- Node26 -->
<g id="node26" class="node"><title>Node26</title>
<g id="a_node26"><a xlink:href="Individuals_8cpp.html" target="_top" xlink:title="Individuals.cpp">
<polygon fill="white" stroke="black" points="450.331,-238.1 450.331,-260.5 540.651,-260.5 540.651,-238.1 450.331,-238.1"/>
<text text-anchor="middle" x="495.491" y="-245.7" font-family="-adobe-utopia-medium-i-normal--0-0-0-0-p-0-iso10646-1" font-size="12.00">Individuals.cpp</text>
</a>
</g>
</g>
<!-- Node5&#45;&gt;Node26 -->
<g id="edge34" class="edge"><title>Node5&#45;&gt;Node26</title>
<path fill="none" stroke="midnightblue" d="M435.705,-291.646C450.044,-281.73 468.022,-269.296 480.501,-260.667"/>
<polygon fill="midnightblue" stroke="midnightblue" points="433.564,-288.871 427.33,-297.438 437.545,-294.629 433.564,-288.871"/>
</g>
<!-- Node6&#45;&gt;Node7 -->
<g id="edge6" class="edge"><title>Node6&#45;&gt;Node7</title>
<path fill="none" stroke="midnightblue" d="M769.553,-235.937C720.439,-225.457 650.902,-210.619 605.266,-200.881"/>
<polygon fill="midnightblue" stroke="midnightblue" points="768.889,-239.374 779.399,-238.038 770.35,-232.528 768.889,-239.374"/>
</g>
<!-- Node6&#45;&gt;Node12 -->
<g id="edge11" class="edge"><title>Node6&#45;&gt;Node12</title>
<path fill="none" stroke="midnightblue" d="M726.107,-236.864C647.05,-227.355 544.088,-213.501 503.491,-201.6 452.186,-186.56 395.994,-157.474 367.795,-141.916"/>
<polygon fill="midnightblue" stroke="midnightblue" points="725.768,-240.349 736.113,-238.06 726.599,-233.398 725.768,-240.349"/>
</g>
<!-- Node6&#45;&gt;Node14 -->
<g id="edge14" class="edge"><title>Node6&#45;&gt;Node14</title>
<path fill="none" stroke="midnightblue" d="M850.426,-232.246C864.591,-222.33 882.353,-209.896 894.681,-201.267"/>
<polygon fill="midnightblue" stroke="midnightblue" points="848.336,-229.436 842.151,-238.038 852.35,-235.171 848.336,-229.436"/>
</g>
<!-- Node6&#45;&gt;Node16 -->
<g id="edge17" class="edge"><title>Node6&#45;&gt;Node16</title>
<path fill="none" stroke="midnightblue" d="M881.288,-235.696C925.516,-225.334 987.401,-210.835 1028.66,-201.17"/>
<polygon fill="midnightblue" stroke="midnightblue" points="880.23,-232.349 871.292,-238.038 881.827,-239.165 880.23,-232.349"/>
</g>
<!-- Node18 -->
<g id="node18" class="node"><title>Node18</title>
<g id="a_node18"><a xlink:href="PolymorphicIndividualsExtractor_8cpp.html" target="_top" xlink:title="PolymorphicIndividualsExtractor.cpp">
<polygon fill="white" stroke="black" points="623.011,-178.7 623.011,-201.1 819.971,-201.1 819.971,-178.7 623.011,-178.7"/>
<text text-anchor="middle" x="721.491" y="-186.3" font-family="-adobe-utopia-medium-i-normal--0-0-0-0-p-0-iso10646-1" font-size="12.00">PolymorphicIndividualsExtractor.cpp</text>
</a>
</g>
</g>
<!-- Node6&#45;&gt;Node18 -->
<g id="edge20" class="edge"><title>Node6&#45;&gt;Node18</title>
<path fill="none" stroke="midnightblue" d="M799.642,-233.22C781.056,-223.155 757.098,-210.181 740.635,-201.267"/>
<polygon fill="midnightblue" stroke="midnightblue" points="798.08,-236.354 808.54,-238.038 801.413,-230.198 798.08,-236.354"/>
</g>
<!-- Node7&#45;&gt;Node8 -->
<g id="edge7" class="edge"><title>Node7&#45;&gt;Node8</title>
<path fill="none" stroke="midnightblue" d="M541.584,-170.948C518.325,-146.251 477.204,-102.588 458.389,-82.6099"/>
<polygon fill="midnightblue" stroke="midnightblue" points="539.325,-173.655 548.729,-178.535 544.421,-168.855 539.325,-173.655"/>
</g>
<!-- Node11 -->
<g id="node11" class="node"><title>Node11</title>
<g id="a_node11"><a xlink:href="InputManager_8cpp.html" target="_top" xlink:title="InputManager.cpp">
<polygon fill="white" stroke="black" points="710.342,-119.3 710.342,-141.7 814.64,-141.7 814.64,-119.3 710.342,-119.3"/>
<text text-anchor="middle" x="762.491" y="-126.9" font-family="-adobe-utopia-medium-i-normal--0-0-0-0-p-0-iso10646-1" font-size="12.00">InputManager.cpp</text>
</a>
</g>
</g>
<!-- Node7&#45;&gt;Node11 -->
<g id="edge10" class="edge"><title>Node7&#45;&gt;Node11</title>
<path fill="none" stroke="midnightblue" d="M604.923,-175.835C641.626,-165.508 692.147,-151.293 725.992,-141.77"/>
<polygon fill="midnightblue" stroke="midnightblue" points="603.64,-172.56 594.962,-178.638 605.536,-179.299 603.64,-172.56"/>
</g>
<!-- Node9 -->
<g id="node9" class="node"><title>Node9</title>
<g id="a_node9"><a xlink:href="GERMLINE__0001_8cpp.html" target="_top" xlink:title="GERMLINE_0001.cpp">
<polygon fill="white" stroke="black" points="319.336,-0.5 319.336,-22.9 447.646,-22.9 447.646,-0.5 319.336,-0.5"/>
<text text-anchor="middle" x="383.491" y="-8.1" font-family="-adobe-utopia-medium-i-normal--0-0-0-0-p-0-iso10646-1" font-size="12.00">GERMLINE_0001.cpp</text>
</a>
</g>
</g>
<!-- Node8&#45;&gt;Node9 -->
<g id="edge8" class="edge"><title>Node8&#45;&gt;Node9</title>
<path fill="none" stroke="midnightblue" d="M429.08,-52.9589C418.154,-43.3099 404.857,-31.5682 395.451,-23.2615"/>
<polygon fill="midnightblue" stroke="midnightblue" points="427.058,-55.8422 436.87,-59.838 431.691,-50.5952 427.058,-55.8422"/>
</g>
<!-- Node10 -->
<g id="node10" class="node"><title>Node10</title>
<g id="a_node10"><a xlink:href="GERMLINE_8cpp.html" target="_top" xlink:title="GERMLINE.cpp">
<polygon fill="white" stroke="black" points="465.336,-0.5 465.336,-22.9 563.646,-22.9 563.646,-0.5 465.336,-0.5"/>
<text text-anchor="middle" x="514.491" y="-8.1" font-family="-adobe-utopia-medium-i-normal--0-0-0-0-p-0-iso10646-1" font-size="12.00">GERMLINE.cpp</text>
</a>
</g>
</g>
<!-- Node8&#45;&gt;Node10 -->
<g id="edge9" class="edge"><title>Node8&#45;&gt;Node10</title>
<path fill="none" stroke="midnightblue" d="M467.875,-53.2421C479.03,-43.5405 492.702,-31.6496 502.347,-23.2615"/>
<polygon fill="midnightblue" stroke="midnightblue" points="465.539,-50.6347 460.29,-59.838 470.133,-55.9166 465.539,-50.6347"/>
</g>
<!-- Node12&#45;&gt;Node8 -->
<g id="edge12" class="edge"><title>Node12&#45;&gt;Node8</title>
<path fill="none" stroke="midnightblue" d="M376.217,-114.004C393.471,-104 415.446,-91.2592 430.611,-82.4667"/>
<polygon fill="midnightblue" stroke="midnightblue" points="374.086,-111.194 367.19,-119.238 377.597,-117.25 374.086,-111.194"/>
</g>
<!-- Node13 -->
<g id="node13" class="node"><title>Node13</title>
<g id="a_node13"><a xlink:href="MatchesBuilder_8cpp.html" target="_top" xlink:title="MatchesBuilder.cpp">
<polygon fill="white" stroke="black" points="274.006,-59.9 274.006,-82.3 386.976,-82.3 386.976,-59.9 274.006,-59.9"/>
<text text-anchor="middle" x="330.491" y="-67.5" font-family="-adobe-utopia-medium-i-normal--0-0-0-0-p-0-iso10646-1" font-size="12.00">MatchesBuilder.cpp</text>
</a>
</g>
</g>
<!-- Node12&#45;&gt;Node13 -->
<g id="edge13" class="edge"><title>Node12&#45;&gt;Node13</title>
<path fill="none" stroke="midnightblue" d="M342.859,-109.466C339.872,-100.441 336.467,-90.1538 333.987,-82.6615"/>
<polygon fill="midnightblue" stroke="midnightblue" points="339.629,-110.844 346.094,-119.238 346.274,-108.645 339.629,-110.844"/>
</g>
<!-- Node14&#45;&gt;Node11 -->
<g id="edge16" class="edge"><title>Node14&#45;&gt;Node11</title>
<path fill="none" stroke="midnightblue" d="M873.664,-174.911C847.536,-164.708 812.704,-151.107 789.04,-141.867"/>
<polygon fill="midnightblue" stroke="midnightblue" points="872.622,-178.261 883.21,-178.638 875.168,-171.74 872.622,-178.261"/>
</g>
<!-- Node15 -->
<g id="node15" class="node"><title>Node15</title>
<g id="a_node15"><a xlink:href="HMIndividualsExtractor_8cpp.html" target="_top" xlink:title="HMIndividualsExtractor.cpp">
<polygon fill="white" stroke="black" points="832.345,-119.3 832.345,-141.7 986.637,-141.7 986.637,-119.3 832.345,-119.3"/>
<text text-anchor="middle" x="909.491" y="-126.9" font-family="-adobe-utopia-medium-i-normal--0-0-0-0-p-0-iso10646-1" font-size="12.00">HMIndividualsExtractor.cpp</text>
</a>
</g>
</g>
<!-- Node14&#45;&gt;Node15 -->
<g id="edge15" class="edge"><title>Node14&#45;&gt;Node15</title>
<path fill="none" stroke="midnightblue" d="M909.491,-168.571C909.491,-159.617 909.491,-149.472 909.491,-142.061"/>
<polygon fill="midnightblue" stroke="midnightblue" points="905.991,-168.638 909.491,-178.638 912.991,-168.638 905.991,-168.638"/>
</g>
<!-- Node16&#45;&gt;Node11 -->
<g id="edge18" class="edge"><title>Node16&#45;&gt;Node11</title>
<path fill="none" stroke="midnightblue" d="M1007.04,-176.781C949.82,-166.186 867.814,-151.002 814.851,-141.195"/>
<polygon fill="midnightblue" stroke="midnightblue" points="1006.6,-180.259 1017.07,-178.638 1007.87,-173.376 1006.6,-180.259"/>
</g>
<!-- Node17 -->
<g id="node17" class="node"><title>Node17</title>
<g id="a_node17"><a xlink:href="PEDIndividualsExtractor_8cpp.html" target="_top" xlink:title="PEDIndividualsExtractor.cpp">
<polygon fill="white" stroke="black" points="1004.68,-119.3 1004.68,-141.7 1162.3,-141.7 1162.3,-119.3 1004.68,-119.3"/>
<text text-anchor="middle" x="1083.49" y="-126.9" font-family="-adobe-utopia-medium-i-normal--0-0-0-0-p-0-iso10646-1" font-size="12.00">PEDIndividualsExtractor.cpp</text>
</a>
</g>
</g>
<!-- Node16&#45;&gt;Node17 -->
<g id="edge19" class="edge"><title>Node16&#45;&gt;Node17</title>
<path fill="none" stroke="midnightblue" d="M1076.39,-168.571C1078.1,-159.617 1080.05,-149.472 1081.47,-142.061"/>
<polygon fill="midnightblue" stroke="midnightblue" points="1072.9,-168.158 1074.46,-178.638 1079.78,-169.476 1072.9,-168.158"/>
</g>
<!-- Node19&#45;&gt;Node5 -->
<g id="edge22" class="edge"><title>Node19&#45;&gt;Node5</title>
<path fill="none" stroke="midnightblue" d="M305.017,-264.04C333.018,-274.308 368.693,-288.121 391.169,-297.438"/>
<polygon fill="midnightblue" stroke="midnightblue" points="306.061,-260.696 295.467,-260.57 303.67,-267.275 306.061,-260.696"/>
</g>
<!-- Node19&#45;&gt;Node20 -->
<g id="edge23" class="edge"><title>Node19&#45;&gt;Node20</title>
<path fill="none" stroke="midnightblue" d="M216.272,-238.767C176.08,-229.625 117.242,-215.236 66.491,-201.6 65.9744,-201.461 65.4539,-201.321 64.9306,-201.178"/>
<polygon fill="midnightblue" stroke="midnightblue" points="215.547,-242.191 226.072,-240.974 217.086,-235.362 215.547,-242.191"/>
</g>
<!-- Node19&#45;&gt;Node22 -->
<g id="edge26" class="edge"><title>Node19&#45;&gt;Node22</title>
<path fill="none" stroke="midnightblue" d="M230.45,-234.04C206.882,-223.869 175.733,-210.426 154.511,-201.267"/>
<polygon fill="midnightblue" stroke="midnightblue" points="229.145,-237.289 239.713,-238.038 231.919,-230.862 229.145,-237.289"/>
</g>
<!-- Node24 -->
<g id="node24" class="node"><title>Node24</title>
<g id="a_node24"><a xlink:href="Share_8cpp.html" target="_top" xlink:title="Share.cpp">
<polygon fill="white" stroke="black" points="194.668,-178.7 194.668,-201.1 258.314,-201.1 258.314,-178.7 194.668,-178.7"/>
<text text-anchor="middle" x="226.491" y="-186.3" font-family="-adobe-utopia-medium-i-normal--0-0-0-0-p-0-iso10646-1" font-size="12.00">Share.cpp</text>
</a>
</g>
</g>
<!-- Node19&#45;&gt;Node24 -->
<g id="edge29" class="edge"><title>Node19&#45;&gt;Node24</title>
<path fill="none" stroke="midnightblue" d="M251.331,-229.436C245.339,-220.14 238.338,-209.28 233.299,-201.461"/>
<polygon fill="midnightblue" stroke="midnightblue" points="248.516,-231.529 256.876,-238.038 254.4,-227.737 248.516,-231.529"/>
</g>
<!-- Node25 -->
<g id="node25" class="node"><title>Node25</title>
<g id="a_node25"><a xlink:href="Individual_8cpp.html" target="_top" xlink:title="Individual.cpp">
<polygon fill="white" stroke="black" points="276.665,-178.7 276.665,-201.1 362.317,-201.1 362.317,-178.7 276.665,-178.7"/>
<text text-anchor="middle" x="319.491" y="-186.3" font-family="-adobe-utopia-medium-i-normal--0-0-0-0-p-0-iso10646-1" font-size="12.00">Individual.cpp</text>
</a>
</g>
</g>
<!-- Node19&#45;&gt;Node25 -->
<g id="edge30" class="edge"><title>Node19&#45;&gt;Node25</title>
<path fill="none" stroke="midnightblue" d="M280.491,-230.875C289.852,-221.28 301.162,-209.687 309.187,-201.461"/>
<polygon fill="midnightblue" stroke="midnightblue" points="277.981,-228.436 273.503,-238.038 282.991,-233.324 277.981,-228.436"/>
</g>
<!-- Node20&#45;&gt;Node19 -->
<g id="edge24" class="edge"><title>Node20&#45;&gt;Node19</title>
<path fill="none" stroke="midnightblue" d="M76.5376,-199.423C79.2454,-200.172 81.916,-200.908 84.491,-201.6 134.021,-214.908 191.255,-228.933 227.535,-238.098"/>
<polygon fill="midnightblue" stroke="midnightblue" points="77.2434,-195.987 66.6728,-196.703 75.3831,-202.735 77.2434,-195.987"/>
</g>
<!-- Node21 -->
<g id="node21" class="node"><title>Node21</title>
<g id="a_node21"><a xlink:href="Match_8cpp.html" target="_top" xlink:title="Match.cpp">
<polygon fill="white" stroke="black" points="-1.42109e-14,-119.3 -1.42109e-14,-141.7 66.982,-141.7 66.982,-119.3 -1.42109e-14,-119.3"/>
<text text-anchor="middle" x="33.491" y="-126.9" font-family="-adobe-utopia-medium-i-normal--0-0-0-0-p-0-iso10646-1" font-size="12.00">Match.cpp</text>
</a>
</g>
</g>
<!-- Node20&#45;&gt;Node21 -->
<g id="edge25" class="edge"><title>Node20&#45;&gt;Node21</title>
<path fill="none" stroke="midnightblue" d="M36.7202,-168.571C35.9402,-159.617 35.0565,-149.472 34.411,-142.061"/>
<polygon fill="midnightblue" stroke="midnightblue" points="33.2424,-168.98 37.5971,-178.638 40.216,-168.372 33.2424,-168.98"/>
</g>
<!-- Node22&#45;&gt;Node12 -->
<g id="edge27" class="edge"><title>Node22&#45;&gt;Node12</title>
<path fill="none" stroke="midnightblue" d="M179.33,-176.099C218.811,-165.751 273.664,-151.374 310.309,-141.77"/>
<polygon fill="midnightblue" stroke="midnightblue" points="178.43,-172.717 169.644,-178.638 180.204,-179.488 178.43,-172.717"/>
</g>
<!-- Node23 -->
<g id="node23" class="node"><title>Node23</title>
<g id="a_node23"><a xlink:href="MatchFactory_8cpp.html" target="_top" xlink:title="MatchFactory.cpp">
<polygon fill="white" stroke="black" points="84.673,-119.3 84.673,-141.7 188.309,-141.7 188.309,-119.3 84.673,-119.3"/>
<text text-anchor="middle" x="136.491" y="-126.9" font-family="-adobe-utopia-medium-i-normal--0-0-0-0-p-0-iso10646-1" font-size="12.00">MatchFactory.cpp</text>
</a>
</g>
</g>
<!-- Node22&#45;&gt;Node23 -->
<g id="edge28" class="edge"><title>Node22&#45;&gt;Node23</title>
<path fill="none" stroke="midnightblue" d="M132.616,-168.571C133.552,-159.617 134.612,-149.472 135.387,-142.061"/>
<polygon fill="midnightblue" stroke="midnightblue" points="129.122,-168.328 131.564,-178.638 136.084,-169.056 129.122,-168.328"/>
</g>
<!-- Node29 -->
<g id="node29" class="node"><title>Node29</title>
<g id="a_node29"><a xlink:href="ChromosomePair_8cpp.html" target="_top" xlink:title="ChromosomePair.cpp">
<polygon fill="white" stroke="black" points="596.334,-238.1 596.334,-260.5 716.648,-260.5 716.648,-238.1 596.334,-238.1"/>
<text text-anchor="middle" x="656.491" y="-245.7" font-family="-adobe-utopia-medium-i-normal--0-0-0-0-p-0-iso10646-1" font-size="12.00">ChromosomePair.cpp</text>
</a>
</g>
</g>
<!-- Node28&#45;&gt;Node29 -->
<g id="edge38" class="edge"><title>Node28&#45;&gt;Node29</title>
<path fill="none" stroke="midnightblue" d="M599.974,-291.364C613.556,-281.495 630.458,-269.215 642.223,-260.667"/>
<polygon fill="midnightblue" stroke="midnightblue" points="597.647,-288.728 591.615,-297.438 601.762,-294.391 597.647,-288.728"/>
</g>
</g>
</svg>
