<?xml version="1.0" encoding="UTF-8" standalone="no"?>
<!DOCTYPE svg PUBLIC "-//W3C//DTD SVG 1.1//EN"
 "http://www.w3.org/Graphics/SVG/1.1/DTD/svg11.dtd">
<!-- Generated by graphviz version 2.38.0 (20140413.2041)
 -->
<!-- Title: PEDIndividualsExtractor.h Pages: 1 -->
<svg width="288pt" height="91pt"
 viewBox="0.00 0.00 287.96 90.80" xmlns="http://www.w3.org/2000/svg" xmlns:xlink="http://www.w3.org/1999/xlink">
<g id="graph0" class="graph" transform="scale(1 1) rotate(0) translate(4 86.8)">
<title>PEDIndividualsExtractor.h</title>
<polygon fill="white" stroke="none" points="-4,4 -4,-86.8 283.963,-86.8 283.963,4 -4,4"/>
<!-- Node1 -->
<g id="node1" class="node"><title>Node1</title>
<polygon fill="#bfbfbf" stroke="black" points="52.9988,-59.9 52.9988,-82.3 199.3,-82.3 199.3,-59.9 52.9988,-59.9"/>
<text text-anchor="middle" x="126.149" y="-67.5" font-family="-adobe-utopia-medium-i-normal--0-0-0-0-p-0-iso10646-1" font-size="12.00">PEDIndividualsExtractor.h</text>
</g>
<!-- Node2 -->
<g id="node2" class="node"><title>Node2</title>
<g id="a_node2"><a xlink:href="InputManager_8cpp.html" target="_top" xlink:title="InputManager.cpp">
<polygon fill="white" stroke="black" points="0,-0.5 0,-22.9 104.298,-22.9 104.298,-0.5 0,-0.5"/>
<text text-anchor="middle" x="52.1492" y="-8.1" font-family="-adobe-utopia-medium-i-normal--0-0-0-0-p-0-iso10646-1" font-size="12.00">InputManager.cpp</text>
</a>
</g>
</g>
<!-- Node1&#45;&gt;Node2 -->
<g id="edge1" class="edge"><title>Node1&#45;&gt;Node2</title>
<path fill="none" stroke="midnightblue" d="M104.779,-53.524C92.2068,-43.7717 76.684,-31.731 65.765,-23.2615"/>
<polygon fill="midnightblue" stroke="midnightblue" points="102.873,-56.4745 112.919,-59.838 107.163,-50.9434 102.873,-56.4745"/>
</g>
<!-- Node3 -->
<g id="node3" class="node"><title>Node3</title>
<g id="a_node3"><a xlink:href="PEDIndividualsExtractor_8cpp.html" target="_top" xlink:title="PEDIndividualsExtractor.cpp">
<polygon fill="white" stroke="black" points="122.335,-0.5 122.335,-22.9 279.963,-22.9 279.963,-0.5 122.335,-0.5"/>
<text text-anchor="middle" x="201.149" y="-8.1" font-family="-adobe-utopia-medium-i-normal--0-0-0-0-p-0-iso10646-1" font-size="12.00">PEDIndividualsExtractor.cpp</text>
</a>
</g>
</g>
<!-- Node1&#45;&gt;Node3 -->
<g id="edge2" class="edge"><title>Node1&#45;&gt;Node3</title>
<path fill="none" stroke="midnightblue" d="M147.863,-53.4818C160.694,-43.6619 176.541,-31.5335 187.604,-23.0667"/>
<polygon fill="midnightblue" stroke="midnightblue" points="145.372,-50.9809 139.558,-59.838 149.626,-56.5398 145.372,-50.9809"/>
</g>
</g>
</svg>
