<?xml version="1.0" encoding="UTF-8" standalone="no"?>
<!DOCTYPE svg PUBLIC "-//W3C//DTD SVG 1.1//EN"
 "http://www.w3.org/Graphics/SVG/1.1/DTD/svg11.dtd">
<!-- Generated by graphviz version 2.38.0 (20140413.2041)
 -->
<!-- Title: PEDIndividualsExtractor.cpp Pages: 1 -->
<svg width="1274pt" height="625pt"
 viewBox="0.00 0.00 1273.62 625.40" xmlns="http://www.w3.org/2000/svg" xmlns:xlink="http://www.w3.org/1999/xlink">
<g id="graph0" class="graph" transform="scale(1 1) rotate(0) translate(4 621.4)">
<title>PEDIndividualsExtractor.cpp</title>
<polygon fill="white" stroke="none" points="-4,4 -4,-621.4 1269.62,-621.4 1269.62,4 -4,4"/>
<!-- Node1 -->
<g id="node1" class="node"><title>Node1</title>
<polygon fill="#bfbfbf" stroke="black" points="1107.99,-594.5 1107.99,-616.9 1265.62,-616.9 1265.62,-594.5 1107.99,-594.5"/>
<text text-anchor="middle" x="1186.8" y="-602.1" font-family="-adobe-utopia-medium-i-normal--0-0-0-0-p-0-iso10646-1" font-size="12.00">PEDIndividualsExtractor.cpp</text>
</g>
<!-- Node2 -->
<g id="node2" class="node"><title>Node2</title>
<g id="a_node2"><a xlink:href="PEDIndividualsExtractor_8h.html" target="_top" xlink:title="PEDIndividualsExtractor.h">
<polygon fill="white" stroke="black" points="980.653,-535.1 980.653,-557.5 1126.95,-557.5 1126.95,-535.1 980.653,-535.1"/>
<text text-anchor="middle" x="1053.8" y="-542.7" font-family="-adobe-utopia-medium-i-normal--0-0-0-0-p-0-iso10646-1" font-size="12.00">PEDIndividualsExtractor.h</text>
</a>
</g>
</g>
<!-- Node1&#45;&gt;Node2 -->
<g id="edge1" class="edge"><title>Node1&#45;&gt;Node2</title>
<path fill="none" stroke="midnightblue" d="M1163.03,-594.438C1141.88,-585.312 1110.74,-571.873 1087.12,-561.677"/>
<polygon fill="midnightblue" stroke="midnightblue" points="1088.39,-558.416 1077.82,-557.667 1085.62,-564.843 1088.39,-558.416"/>
</g>
<!-- Node6 -->
<g id="node6" class="node"><title>Node6</title>
<polygon fill="white" stroke="#bfbfbf" points="1120.14,-0.5 1120.14,-22.9 1177.46,-22.9 1177.46,-0.5 1120.14,-0.5"/>
<text text-anchor="middle" x="1148.8" y="-8.1" font-family="-adobe-utopia-medium-i-normal--0-0-0-0-p-0-iso10646-1" font-size="12.00">iostream</text>
</g>
<!-- Node1&#45;&gt;Node6 -->
<g id="edge59" class="edge"><title>Node1&#45;&gt;Node6</title>
<path fill="none" stroke="midnightblue" d="M1186.8,-594.388C1186.8,-574.031 1186.8,-527.239 1186.8,-487.9 1186.8,-487.9 1186.8,-487.9 1186.8,-129.5 1186.8,-93.6499 1170.41,-54.5129 1159.16,-31.8677"/>
<polygon fill="midnightblue" stroke="midnightblue" points="1162.27,-30.2488 1154.58,-22.9621 1156.04,-33.4547 1162.27,-30.2488"/>
</g>
<!-- Node26 -->
<g id="node26" class="node"><title>Node26</title>
<polygon fill="white" stroke="#bfbfbf" points="1215.15,-535.1 1215.15,-557.5 1262.46,-557.5 1262.46,-535.1 1215.15,-535.1"/>
<text text-anchor="middle" x="1238.8" y="-542.7" font-family="-adobe-utopia-medium-i-normal--0-0-0-0-p-0-iso10646-1" font-size="12.00">cctype</text>
</g>
<!-- Node1&#45;&gt;Node26 -->
<g id="edge58" class="edge"><title>Node1&#45;&gt;Node26</title>
<path fill="none" stroke="midnightblue" d="M1196.1,-594.438C1203.4,-586.376 1213.76,-574.949 1222.44,-565.364"/>
<polygon fill="midnightblue" stroke="midnightblue" points="1225.12,-567.622 1229.24,-557.861 1219.93,-562.923 1225.12,-567.622"/>
</g>
<!-- Node3 -->
<g id="node3" class="node"><title>Node3</title>
<g id="a_node3"><a xlink:href="BasicDefinitions_8h.html" target="_top" xlink:title="BasicDefinitions.h">
<polygon fill="white" stroke="black" points="829.979,-59.9 829.979,-82.3 935.628,-82.3 935.628,-59.9 829.979,-59.9"/>
<text text-anchor="middle" x="882.804" y="-67.5" font-family="-adobe-utopia-medium-i-normal--0-0-0-0-p-0-iso10646-1" font-size="12.00">BasicDefinitions.h</text>
</a>
</g>
</g>
<!-- Node2&#45;&gt;Node3 -->
<g id="edge2" class="edge"><title>Node2&#45;&gt;Node3</title>
<path fill="none" stroke="midnightblue" d="M1070.79,-535.071C1098.11,-517.171 1148.8,-477.379 1148.8,-428.5 1148.8,-428.5 1148.8,-428.5 1148.8,-248.3 1148.8,-151.221 1024.14,-104.482 945.499,-84.6562"/>
<polygon fill="midnightblue" stroke="midnightblue" points="946.22,-81.2293 935.675,-82.2581 944.56,-88.0296 946.22,-81.2293"/>
</g>
<!-- Node8 -->
<g id="node8" class="node"><title>Node8</title>
<g id="a_node8"><a xlink:href="NucleotideMap_8h.html" target="_top" xlink:title="NucleotideMap.h">
<polygon fill="white" stroke="black" points="868.983,-119.3 868.983,-141.7 968.624,-141.7 968.624,-119.3 868.983,-119.3"/>
<text text-anchor="middle" x="918.804" y="-126.9" font-family="-adobe-utopia-medium-i-normal--0-0-0-0-p-0-iso10646-1" font-size="12.00">NucleotideMap.h</text>
</a>
</g>
</g>
<!-- Node2&#45;&gt;Node8 -->
<g id="edge7" class="edge"><title>Node2&#45;&gt;Node8</title>
<path fill="none" stroke="midnightblue" d="M1053.8,-534.988C1053.8,-514.631 1053.8,-467.839 1053.8,-428.5 1053.8,-428.5 1053.8,-428.5 1053.8,-367.1 1053.8,-274.676 974.625,-185.634 937.544,-149.002"/>
<polygon fill="midnightblue" stroke="midnightblue" points="939.932,-146.442 930.314,-141.998 935.061,-151.47 939.932,-146.442"/>
</g>
<!-- Node9 -->
<g id="node9" class="node"><title>Node9</title>
<g id="a_node9"><a xlink:href="PolymorphicIndividualsExtractor_8h.html" target="_top" xlink:title="PolymorphicIndividualsExtractor.h">
<polygon fill="white" stroke="black" points="134.987,-475.7 134.987,-498.1 320.62,-498.1 320.62,-475.7 134.987,-475.7"/>
<text text-anchor="middle" x="227.804" y="-483.3" font-family="-adobe-utopia-medium-i-normal--0-0-0-0-p-0-iso10646-1" font-size="12.00">PolymorphicIndividualsExtractor.h</text>
</a>
</g>
</g>
<!-- Node2&#45;&gt;Node9 -->
<g id="edge9" class="edge"><title>Node2&#45;&gt;Node9</title>
<path fill="none" stroke="midnightblue" d="M980.502,-540.206C833.083,-529.962 500.391,-506.842 331.041,-495.074"/>
<polygon fill="midnightblue" stroke="midnightblue" points="331.088,-491.569 320.87,-494.367 330.603,-498.552 331.088,-491.569"/>
</g>
<!-- Node15 -->
<g id="node15" class="node"><title>Node15</title>
<polygon fill="white" stroke="#bfbfbf" points="170.138,-59.9 170.138,-82.3 213.469,-82.3 213.469,-59.9 170.138,-59.9"/>
<text text-anchor="middle" x="191.804" y="-67.5" font-family="-adobe-utopia-medium-i-normal--0-0-0-0-p-0-iso10646-1" font-size="12.00">string</text>
</g>
<!-- Node2&#45;&gt;Node15 -->
<g id="edge57" class="edge"><title>Node2&#45;&gt;Node15</title>
<path fill="none" stroke="midnightblue" d="M980.385,-545.947C790.26,-546.931 285.57,-544.958 125.804,-498.6 65.0034,-480.958 1.80368,-491.808 1.80368,-428.5 1.80368,-428.5 1.80368,-428.5 1.80368,-367.1 1.80368,-243.549 46.5427,-212.73 126.804,-118.8 137.263,-106.559 151.571,-95.8315 164.101,-87.7554"/>
<polygon fill="midnightblue" stroke="midnightblue" points="166.164,-90.5949 172.83,-82.3596 162.483,-84.6407 166.164,-90.5949"/>
</g>
<!-- Node4 -->
<g id="node4" class="node"><title>Node4</title>
<polygon fill="white" stroke="#bfbfbf" points="550.812,-0.5 550.812,-22.9 596.795,-22.9 596.795,-0.5 550.812,-0.5"/>
<text text-anchor="middle" x="573.804" y="-8.1" font-family="-adobe-utopia-medium-i-normal--0-0-0-0-p-0-iso10646-1" font-size="12.00">vector</text>
</g>
<!-- Node3&#45;&gt;Node4 -->
<g id="edge3" class="edge"><title>Node3&#45;&gt;Node4</title>
<path fill="none" stroke="midnightblue" d="M829.685,-60.2326C765.786,-48.3627 660.464,-28.798 607.065,-18.8786"/>
<polygon fill="midnightblue" stroke="midnightblue" points="607.576,-15.4138 597.105,-17.0285 606.298,-22.2961 607.576,-15.4138"/>
</g>
<!-- Node5 -->
<g id="node5" class="node"><title>Node5</title>
<polygon fill="white" stroke="#bfbfbf" points="443.814,-0.5 443.814,-22.9 495.793,-22.9 495.793,-0.5 443.814,-0.5"/>
<text text-anchor="middle" x="469.804" y="-8.1" font-family="-adobe-utopia-medium-i-normal--0-0-0-0-p-0-iso10646-1" font-size="12.00">fstream</text>
</g>
<!-- Node3&#45;&gt;Node5 -->
<g id="edge4" class="edge"><title>Node3&#45;&gt;Node5</title>
<path fill="none" stroke="midnightblue" d="M829.911,-63.0469C762.853,-54.0611 643.697,-37.9479 541.804,-23.4 530.214,-21.7453 517.584,-19.8869 506.183,-18.1891"/>
<polygon fill="midnightblue" stroke="midnightblue" points="506.533,-14.7024 496.125,-16.6853 505.498,-21.6255 506.533,-14.7024"/>
</g>
<!-- Node3&#45;&gt;Node6 -->
<g id="edge5" class="edge"><title>Node3&#45;&gt;Node6</title>
<path fill="none" stroke="midnightblue" d="M930.359,-59.838C981.731,-48.7524 1062.6,-31.3023 1110.19,-21.0321"/>
<polygon fill="midnightblue" stroke="midnightblue" points="1111.07,-24.4233 1120.11,-18.8926 1109.59,-17.5808 1111.07,-24.4233"/>
</g>
<!-- Node7 -->
<g id="node7" class="node"><title>Node7</title>
<polygon fill="white" stroke="#bfbfbf" points="856.638,-0.5 856.638,-22.9 908.969,-22.9 908.969,-0.5 856.638,-0.5"/>
<text text-anchor="middle" x="882.804" y="-8.1" font-family="-adobe-utopia-medium-i-normal--0-0-0-0-p-0-iso10646-1" font-size="12.00">string.h</text>
</g>
<!-- Node3&#45;&gt;Node7 -->
<g id="edge6" class="edge"><title>Node3&#45;&gt;Node7</title>
<path fill="none" stroke="midnightblue" d="M882.804,-59.838C882.804,-52.5019 882.804,-42.3785 882.804,-33.3932"/>
<polygon fill="midnightblue" stroke="midnightblue" points="886.304,-33.2614 882.804,-23.2615 879.304,-33.2615 886.304,-33.2614"/>
</g>
<!-- Node8&#45;&gt;Node3 -->
<g id="edge8" class="edge"><title>Node8&#45;&gt;Node3</title>
<path fill="none" stroke="midnightblue" d="M912.368,-119.238C907.514,-111.499 900.714,-100.658 894.86,-91.3231"/>
<polygon fill="midnightblue" stroke="midnightblue" points="897.706,-89.2735 889.428,-82.6615 891.776,-92.9928 897.706,-89.2735"/>
</g>
<!-- Node9&#45;&gt;Node4 -->
<g id="edge56" class="edge"><title>Node9&#45;&gt;Node4</title>
<path fill="none" stroke="midnightblue" d="M192.635,-475.698C148.3,-460.422 77.8037,-427.024 77.8037,-369.1 77.8037,-369.1 77.8037,-369.1 77.8037,-307.7 77.8037,-191.342 63.3219,-122.933 160.804,-59.4 225.197,-17.4324 428.581,-33.2922 504.804,-23.4 516.493,-21.883 529.257,-19.9747 540.592,-18.1913"/>
<polygon fill="midnightblue" stroke="midnightblue" points="541.207,-21.6375 550.53,-16.6033 540.102,-14.7252 541.207,-21.6375"/>
</g>
<!-- Node9&#45;&gt;Node5 -->
<g id="edge54" class="edge"><title>Node9&#45;&gt;Node5</title>
<path fill="none" stroke="midnightblue" d="M134.588,-476.833C108.677,-470.055 82.5388,-458.558 63.8037,-439.2 -15.2989,-357.466 1.80368,-304.644 1.80368,-190.9 1.80368,-190.9 1.80368,-190.9 1.80368,-129.5 1.80368,-96.5691 0.0504106,-79.9235 25.8037,-59.4 57.458,-34.1738 333.074,-19.022 433.444,-14.2996"/>
<polygon fill="midnightblue" stroke="midnightblue" points="433.87,-17.7837 443.697,-13.825 433.546,-10.7912 433.87,-17.7837"/>
</g>
<!-- Node10 -->
<g id="node10" class="node"><title>Node10</title>
<g id="a_node10"><a xlink:href="Individuals_8h.html" target="_top" xlink:title="Individuals.h">
<polygon fill="white" stroke="black" points="451.307,-416.3 451.307,-438.7 530.3,-438.7 530.3,-416.3 451.307,-416.3"/>
<text text-anchor="middle" x="490.804" y="-423.9" font-family="-adobe-utopia-medium-i-normal--0-0-0-0-p-0-iso10646-1" font-size="12.00">Individuals.h</text>
</a>
</g>
</g>
<!-- Node9&#45;&gt;Node10 -->
<g id="edge10" class="edge"><title>Node9&#45;&gt;Node10</title>
<path fill="none" stroke="midnightblue" d="M274.823,-475.638C321.722,-465.402 393.483,-449.74 441.253,-439.314"/>
<polygon fill="midnightblue" stroke="midnightblue" points="442.041,-442.725 451.065,-437.173 440.549,-435.886 442.041,-442.725"/>
</g>
<!-- Node13 -->
<g id="node13" class="node"><title>Node13</title>
<g id="a_node13"><a xlink:href="SNPs_8h.html" target="_top" xlink:title="SNPs.h">
<polygon fill="white" stroke="black" points="428.968,-178.7 428.968,-201.1 480.639,-201.1 480.639,-178.7 428.968,-178.7"/>
<text text-anchor="middle" x="454.804" y="-186.3" font-family="-adobe-utopia-medium-i-normal--0-0-0-0-p-0-iso10646-1" font-size="12.00">SNPs.h</text>
</a>
</g>
</g>
<!-- Node9&#45;&gt;Node13 -->
<g id="edge53" class="edge"><title>Node9&#45;&gt;Node13</title>
<path fill="none" stroke="midnightblue" d="M247.553,-475.571C277.969,-458.077 332.804,-419.544 332.804,-369.1 332.804,-369.1 332.804,-369.1 332.804,-307.7 332.804,-258.711 384.765,-223.918 420.865,-205.657"/>
<polygon fill="midnightblue" stroke="midnightblue" points="422.653,-208.679 430.115,-201.159 419.591,-202.384 422.653,-208.679"/>
</g>
<!-- Node9&#45;&gt;Node15 -->
<g id="edge55" class="edge"><title>Node9&#45;&gt;Node15</title>
<path fill="none" stroke="midnightblue" d="M206.209,-475.647C173.663,-458.516 115.804,-420.793 115.804,-369.1 115.804,-369.1 115.804,-369.1 115.804,-188.9 115.804,-147.998 148.951,-110.179 171.464,-89.2095"/>
<polygon fill="midnightblue" stroke="midnightblue" points="173.812,-91.8047 178.911,-82.5177 169.134,-86.5977 173.812,-91.8047"/>
</g>
<!-- Node10&#45;&gt;Node3 -->
<g id="edge11" class="edge"><title>Node10&#45;&gt;Node3</title>
<path fill="none" stroke="midnightblue" d="M530.307,-421.075C616.933,-407.523 826.922,-365.46 965.804,-261 1019.58,-220.55 1056.84,-173.612 1017.8,-118.8 1001.35,-95.6933 972.644,-83.9121 945.924,-77.9487"/>
<polygon fill="midnightblue" stroke="midnightblue" points="946.301,-74.4552 935.81,-75.9366 944.935,-81.3206 946.301,-74.4552"/>
</g>
<!-- Node11 -->
<g id="node11" class="node"><title>Node11</title>
<g id="a_node11"><a xlink:href="Chromosome_8h.html" target="_top" xlink:title="Chromosome.h">
<polygon fill="white" stroke="black" points="574.973,-297.5 574.973,-319.9 664.634,-319.9 664.634,-297.5 574.973,-297.5"/>
<text text-anchor="middle" x="619.804" y="-305.1" font-family="-adobe-utopia-medium-i-normal--0-0-0-0-p-0-iso10646-1" font-size="12.00">Chromosome.h</text>
</a>
</g>
</g>
<!-- Node10&#45;&gt;Node11 -->
<g id="edge12" class="edge"><title>Node10&#45;&gt;Node11</title>
<path fill="none" stroke="midnightblue" d="M502.252,-416.135C524.381,-396.099 573.241,-351.859 600.488,-327.189"/>
<polygon fill="midnightblue" stroke="midnightblue" points="603.132,-329.516 608.196,-320.21 598.434,-324.327 603.132,-329.516"/>
</g>
<!-- Node17 -->
<g id="node17" class="node"><title>Node17</title>
<polygon fill="white" stroke="#bfbfbf" points="300.473,-59.9 300.473,-82.3 337.134,-82.3 337.134,-59.9 300.473,-59.9"/>
<text text-anchor="middle" x="318.804" y="-67.5" font-family="-adobe-utopia-medium-i-normal--0-0-0-0-p-0-iso10646-1" font-size="12.00">map</text>
</g>
<!-- Node10&#45;&gt;Node17 -->
<g id="edge51" class="edge"><title>Node10&#45;&gt;Node17</title>
<path fill="none" stroke="midnightblue" d="M451.099,-419.611C369.765,-404.37 191.804,-364.733 191.804,-309.7 191.804,-309.7 191.804,-309.7 191.804,-188.9 191.804,-135.416 253.58,-99.7216 290.961,-83.0182"/>
<polygon fill="midnightblue" stroke="midnightblue" points="292.527,-86.1552 300.337,-78.9961 289.767,-79.7222 292.527,-86.1552"/>
</g>
<!-- Node21 -->
<g id="node21" class="node"><title>Node21</title>
<g id="a_node21"><a xlink:href="Individual_8h.html" target="_top" xlink:title="Individual.h">
<polygon fill="white" stroke="black" points="453.641,-356.9 453.641,-379.3 527.967,-379.3 527.967,-356.9 453.641,-356.9"/>
<text text-anchor="middle" x="490.804" y="-364.5" font-family="-adobe-utopia-medium-i-normal--0-0-0-0-p-0-iso10646-1" font-size="12.00">Individual.h</text>
</a>
</g>
</g>
<!-- Node10&#45;&gt;Node21 -->
<g id="edge35" class="edge"><title>Node10&#45;&gt;Node21</title>
<path fill="none" stroke="midnightblue" d="M485.488,-416.238C484.141,-408.902 483.743,-398.779 484.293,-389.793"/>
<polygon fill="midnightblue" stroke="midnightblue" points="487.793,-389.99 485.434,-379.661 480.837,-389.207 487.793,-389.99"/>
</g>
<!-- Node25 -->
<g id="node25" class="node"><title>Node25</title>
<polygon fill="white" stroke="#bfbfbf" points="583.811,-356.9 583.811,-379.3 637.796,-379.3 637.796,-356.9 583.811,-356.9"/>
<text text-anchor="middle" x="610.804" y="-364.5" font-family="-adobe-utopia-medium-i-normal--0-0-0-0-p-0-iso10646-1" font-size="12.00">ostream</text>
</g>
<!-- Node10&#45;&gt;Node25 -->
<g id="edge52" class="edge"><title>Node10&#45;&gt;Node25</title>
<path fill="none" stroke="midnightblue" d="M512.257,-416.238C531.082,-407.234 558.685,-394.03 579.892,-383.886"/>
<polygon fill="midnightblue" stroke="midnightblue" points="581.62,-386.939 589.131,-379.467 578.6,-380.624 581.62,-386.939"/>
</g>
<!-- Node11&#45;&gt;Node3 -->
<g id="edge13" class="edge"><title>Node11&#45;&gt;Node3</title>
<path fill="none" stroke="midnightblue" d="M664.893,-307.859C717.524,-306.191 805.65,-297.511 870.804,-261 939.802,-222.334 1019.61,-185.94 977.804,-118.8 968.302,-103.542 952.194,-93.1261 935.915,-86.0796"/>
<polygon fill="midnightblue" stroke="midnightblue" points="936.946,-82.7237 926.359,-82.309 934.376,-89.2351 936.946,-82.7237"/>
</g>
<!-- Node11&#45;&gt;Node4 -->
<g id="edge34" class="edge"><title>Node11&#45;&gt;Node4</title>
<path fill="none" stroke="midnightblue" d="M614.033,-297.312C601.652,-273.474 575.841,-214.136 603.804,-178.2 645.815,-124.209 779.142,-178.537 745.804,-118.8 716.107,-65.5895 647.538,-35.7436 606.509,-22.051"/>
<polygon fill="midnightblue" stroke="midnightblue" points="607.551,-18.7095 596.96,-18.9895 605.414,-25.3753 607.551,-18.7095"/>
</g>
<!-- Node12 -->
<g id="node12" class="node"><title>Node12</title>
<g id="a_node12"><a xlink:href="MarkerSet_8h.html" target="_top" xlink:title="MarkerSet.h">
<polygon fill="white" stroke="black" points="628.982,-238.1 628.982,-260.5 704.625,-260.5 704.625,-238.1 628.982,-238.1"/>
<text text-anchor="middle" x="666.804" y="-245.7" font-family="-adobe-utopia-medium-i-normal--0-0-0-0-p-0-iso10646-1" font-size="12.00">MarkerSet.h</text>
</a>
</g>
</g>
<!-- Node11&#45;&gt;Node12 -->
<g id="edge14" class="edge"><title>Node11&#45;&gt;Node12</title>
<path fill="none" stroke="midnightblue" d="M628.206,-297.438C634.741,-289.457 643.978,-278.177 651.776,-268.653"/>
<polygon fill="midnightblue" stroke="midnightblue" points="654.528,-270.816 658.156,-260.861 649.112,-266.381 654.528,-270.816"/>
</g>
<!-- Node12&#45;&gt;Node3 -->
<g id="edge15" class="edge"><title>Node12&#45;&gt;Node3</title>
<path fill="none" stroke="midnightblue" d="M704.804,-238.895C727.927,-231.681 756.929,-219.811 777.804,-201.6 810.027,-173.49 799.092,-151.366 826.804,-118.8 836.384,-107.541 848.877,-96.836 859.632,-88.5226"/>
<polygon fill="midnightblue" stroke="midnightblue" points="861.893,-91.2018 867.796,-82.4032 857.695,-85.6007 861.893,-91.2018"/>
</g>
<!-- Node12&#45;&gt;Node13 -->
<g id="edge16" class="edge"><title>Node12&#45;&gt;Node13</title>
<path fill="none" stroke="midnightblue" d="M628.902,-238.038C589.653,-227.411 528.802,-210.935 490.418,-200.543"/>
<polygon fill="midnightblue" stroke="midnightblue" points="491.265,-197.146 480.698,-197.911 489.436,-203.903 491.265,-197.146"/>
</g>
<!-- Node19 -->
<g id="node19" class="node"><title>Node19</title>
<polygon fill="white" stroke="#bfbfbf" points="706.468,-119.3 706.468,-141.7 737.139,-141.7 737.139,-119.3 706.468,-119.3"/>
<text text-anchor="middle" x="721.804" y="-126.9" font-family="-adobe-utopia-medium-i-normal--0-0-0-0-p-0-iso10646-1" font-size="12.00">list</text>
</g>
<!-- Node12&#45;&gt;Node19 -->
<g id="edge33" class="edge"><title>Node12&#45;&gt;Node19</title>
<path fill="none" stroke="midnightblue" d="M704.978,-239.927C725.619,-233.244 749.369,-221.569 761.804,-201.6 772.842,-183.875 757.474,-163.031 742.703,-148.707"/>
<polygon fill="midnightblue" stroke="midnightblue" points="744.929,-146 735.176,-141.861 740.219,-151.179 744.929,-146"/>
</g>
<!-- Node20 -->
<g id="node20" class="node"><title>Node20</title>
<polygon fill="white" stroke="#bfbfbf" points="612.975,-178.7 612.975,-201.1 752.632,-201.1 752.632,-178.7 612.975,-178.7"/>
<text text-anchor="middle" x="682.804" y="-186.3" font-family="-adobe-utopia-medium-i-normal--0-0-0-0-p-0-iso10646-1" font-size="12.00">boost/dynamic_bitset.hpp</text>
</g>
<!-- Node12&#45;&gt;Node20 -->
<g id="edge32" class="edge"><title>Node12&#45;&gt;Node20</title>
<path fill="none" stroke="midnightblue" d="M669.664,-238.038C671.732,-230.621 674.593,-220.356 677.118,-211.297"/>
<polygon fill="midnightblue" stroke="midnightblue" points="680.546,-212.034 679.86,-201.461 673.803,-210.154 680.546,-212.034"/>
</g>
<!-- Node13&#45;&gt;Node3 -->
<g id="edge17" class="edge"><title>Node13&#45;&gt;Node3</title>
<path fill="none" stroke="midnightblue" d="M480.776,-181.144C507.936,-172.72 551.572,-158.294 587.804,-142.2 607.688,-133.367 610.297,-126.072 630.804,-118.8 693.118,-96.7009 767.995,-84.5224 819.856,-78.1934"/>
<polygon fill="midnightblue" stroke="midnightblue" points="820.391,-81.6546 829.911,-77.0043 819.569,-74.703 820.391,-81.6546"/>
</g>
<!-- Node13&#45;&gt;Node4 -->
<g id="edge28" class="edge"><title>Node13&#45;&gt;Node4</title>
<path fill="none" stroke="midnightblue" d="M481.116,-179.848C507.489,-170.235 545.48,-154.728 554.804,-142.2 578.77,-109.996 578.707,-60.5698 576.366,-33.0263"/>
<polygon fill="midnightblue" stroke="midnightblue" points="579.838,-32.5759 575.325,-22.9901 572.875,-33.2978 579.838,-32.5759"/>
</g>
<!-- Node13&#45;&gt;Node5 -->
<g id="edge27" class="edge"><title>Node13&#45;&gt;Node5</title>
<path fill="none" stroke="midnightblue" d="M455.675,-178.665C458.078,-150.443 464.832,-71.1045 468.053,-33.2699"/>
<polygon fill="midnightblue" stroke="midnightblue" points="471.569,-33.224 468.93,-22.9631 464.594,-32.6302 471.569,-33.224"/>
</g>
<!-- Node13&#45;&gt;Node8 -->
<g id="edge18" class="edge"><title>Node13&#45;&gt;Node8</title>
<path fill="none" stroke="midnightblue" d="M480.745,-185.691C552.705,-176.789 756.249,-151.609 858.547,-138.954"/>
<polygon fill="midnightblue" stroke="midnightblue" points="859.224,-142.397 868.719,-137.696 858.365,-135.45 859.224,-142.397"/>
</g>
<!-- Node14 -->
<g id="node14" class="node"><title>Node14</title>
<g id="a_node14"><a xlink:href="SNP_8h.html" target="_top" xlink:title="SNP.h">
<polygon fill="white" stroke="black" points="498.301,-119.3 498.301,-141.7 545.306,-141.7 545.306,-119.3 498.301,-119.3"/>
<text text-anchor="middle" x="521.804" y="-126.9" font-family="-adobe-utopia-medium-i-normal--0-0-0-0-p-0-iso10646-1" font-size="12.00">SNP.h</text>
</a>
</g>
</g>
<!-- Node13&#45;&gt;Node14 -->
<g id="edge19" class="edge"><title>Node13&#45;&gt;Node14</title>
<path fill="none" stroke="midnightblue" d="M466.782,-178.638C476.474,-170.335 490.334,-158.46 501.719,-148.707"/>
<polygon fill="midnightblue" stroke="midnightblue" points="504.159,-151.226 509.476,-142.061 499.605,-145.91 504.159,-151.226"/>
</g>
<!-- Node13&#45;&gt;Node15 -->
<g id="edge29" class="edge"><title>Node13&#45;&gt;Node15</title>
<path fill="none" stroke="midnightblue" d="M428.71,-184.697C394.75,-178.556 334.155,-165.274 286.804,-142.2 257.882,-128.107 228.713,-104.943 210.472,-89.1297"/>
<polygon fill="midnightblue" stroke="midnightblue" points="212.712,-86.4382 202.9,-82.4402 208.077,-91.6841 212.712,-86.4382"/>
</g>
<!-- Node16 -->
<g id="node16" class="node"><title>Node16</title>
<g id="a_node16"><a xlink:href="SNPPositionMap_8h.html" target="_top" xlink:title="SNPPositionMap.h">
<polygon fill="white" stroke="black" points="295.634,-119.3 295.634,-141.7 403.974,-141.7 403.974,-119.3 295.634,-119.3"/>
<text text-anchor="middle" x="349.804" y="-126.9" font-family="-adobe-utopia-medium-i-normal--0-0-0-0-p-0-iso10646-1" font-size="12.00">SNPPositionMap.h</text>
</a>
</g>
</g>
<!-- Node13&#45;&gt;Node16 -->
<g id="edge23" class="edge"><title>Node13&#45;&gt;Node16</title>
<path fill="none" stroke="midnightblue" d="M436.032,-178.638C419.783,-169.755 396.059,-156.786 377.607,-146.699"/>
<polygon fill="midnightblue" stroke="midnightblue" points="379.22,-143.592 368.767,-141.867 375.863,-149.734 379.22,-143.592"/>
</g>
<!-- Node13&#45;&gt;Node17 -->
<g id="edge30" class="edge"><title>Node13&#45;&gt;Node17</title>
<path fill="none" stroke="midnightblue" d="M450.855,-178.617C444.703,-163.748 431.558,-136.133 412.804,-118.8 393.8,-101.236 366.955,-88.788 346.815,-81.1847"/>
<polygon fill="midnightblue" stroke="midnightblue" points="347.846,-77.8361 337.252,-77.7446 345.477,-84.4229 347.846,-77.8361"/>
</g>
<!-- Node18 -->
<g id="node18" class="node"><title>Node18</title>
<polygon fill="white" stroke="#bfbfbf" points="639.305,-119.3 639.305,-141.7 688.302,-141.7 688.302,-119.3 639.305,-119.3"/>
<text text-anchor="middle" x="663.804" y="-126.9" font-family="-adobe-utopia-medium-i-normal--0-0-0-0-p-0-iso10646-1" font-size="12.00">math.h</text>
</g>
<!-- Node13&#45;&gt;Node18 -->
<g id="edge26" class="edge"><title>Node13&#45;&gt;Node18</title>
<path fill="none" stroke="midnightblue" d="M480.895,-181.843C514.444,-172.753 574.5,-156.428 625.804,-142.2 627.03,-141.86 628.278,-141.513 629.538,-141.162"/>
<polygon fill="midnightblue" stroke="midnightblue" points="630.595,-144.501 639.282,-138.435 628.709,-137.76 630.595,-144.501"/>
</g>
<!-- Node13&#45;&gt;Node19 -->
<g id="edge31" class="edge"><title>Node13&#45;&gt;Node19</title>
<path fill="none" stroke="midnightblue" d="M480.678,-185.757C525.433,-179.914 619.894,-165.782 696.804,-142.2 696.902,-142.17 697.001,-142.139 697.1,-142.108"/>
<polygon fill="midnightblue" stroke="midnightblue" points="698.208,-145.43 706.393,-138.703 695.799,-138.858 698.208,-145.43"/>
</g>
<!-- Node14&#45;&gt;Node3 -->
<g id="edge20" class="edge"><title>Node14&#45;&gt;Node3</title>
<path fill="none" stroke="midnightblue" d="M545.49,-125.734C600.471,-116.992 738.259,-95.083 819.709,-82.1322"/>
<polygon fill="midnightblue" stroke="midnightblue" points="820.514,-85.5484 829.84,-80.5214 819.414,-78.6352 820.514,-85.5484"/>
</g>
<!-- Node14&#45;&gt;Node4 -->
<g id="edge22" class="edge"><title>Node14&#45;&gt;Node4</title>
<path fill="none" stroke="midnightblue" d="M526.418,-119.135C535.069,-99.7031 553.856,-57.5064 565,-32.4745"/>
<polygon fill="midnightblue" stroke="midnightblue" points="568.255,-33.769 569.125,-23.2099 561.86,-30.9219 568.255,-33.769"/>
</g>
<!-- Node14&#45;&gt;Node15 -->
<g id="edge21" class="edge"><title>Node14&#45;&gt;Node15</title>
<path fill="none" stroke="midnightblue" d="M498.071,-125.372C439.834,-115.242 289.819,-89.1488 223.798,-77.6651"/>
<polygon fill="midnightblue" stroke="midnightblue" points="224.035,-74.1539 213.584,-75.8884 222.836,-81.0503 224.035,-74.1539"/>
</g>
<!-- Node16&#45;&gt;Node15 -->
<g id="edge25" class="edge"><title>Node16&#45;&gt;Node15</title>
<path fill="none" stroke="midnightblue" d="M321.556,-119.238C293.925,-109.2 251.928,-93.9427 223.249,-83.5238"/>
<polygon fill="midnightblue" stroke="midnightblue" points="224.3,-80.1817 213.705,-80.0567 221.909,-86.761 224.3,-80.1817"/>
</g>
<!-- Node16&#45;&gt;Node17 -->
<g id="edge24" class="edge"><title>Node16&#45;&gt;Node17</title>
<path fill="none" stroke="midnightblue" d="M344.262,-119.238C340.125,-111.579 334.349,-100.883 329.343,-91.6153"/>
<polygon fill="midnightblue" stroke="midnightblue" points="332.339,-89.7971 324.508,-82.6615 326.18,-93.1235 332.339,-89.7971"/>
</g>
<!-- Node21&#45;&gt;Node3 -->
<g id="edge36" class="edge"><title>Node21&#45;&gt;Node3</title>
<path fill="none" stroke="midnightblue" d="M528.307,-357.539C565.3,-348.105 623.452,-333.271 673.804,-320.4 818.768,-283.345 910.596,-329.159 988.804,-201.6 1008.15,-170.042 1018.48,-149.507 997.804,-118.8 985.807,-100.981 965.716,-89.9576 945.653,-83.1401"/>
<polygon fill="midnightblue" stroke="midnightblue" points="946.428,-79.717 935.841,-80.1198 944.369,-86.4071 946.428,-79.717"/>
</g>
<!-- Node21&#45;&gt;Node6 -->
<g id="edge50" class="edge"><title>Node21&#45;&gt;Node6</title>
<path fill="none" stroke="midnightblue" d="M528.143,-362.526C627.266,-349.804 894.333,-311.584 965.804,-261 1054.39,-198.301 1117.41,-79.2514 1139.82,-32.373"/>
<polygon fill="midnightblue" stroke="midnightblue" points="1143.13,-33.5707 1144.2,-23.0308 1136.79,-30.5984 1143.13,-33.5707"/>
</g>
<!-- Node21&#45;&gt;Node10 -->
<g id="edge45" class="edge"><title>Node21&#45;&gt;Node10</title>
<path fill="none" stroke="midnightblue" d="M496.174,-379.661C497.495,-387.072 497.867,-397.217 497.292,-406.171"/>
<polygon fill="midnightblue" stroke="midnightblue" points="493.8,-405.9 496.12,-416.238 500.753,-406.71 493.8,-405.9"/>
</g>
<!-- Node21&#45;&gt;Node11 -->
<g id="edge37" class="edge"><title>Node21&#45;&gt;Node11</title>
<path fill="none" stroke="midnightblue" d="M513.866,-356.838C534.285,-347.753 564.311,-334.392 587.188,-324.213"/>
<polygon fill="midnightblue" stroke="midnightblue" points="588.792,-327.33 596.506,-320.067 585.947,-320.934 588.792,-327.33"/>
</g>
<!-- Node21&#45;&gt;Node15 -->
<g id="edge46" class="edge"><title>Node21&#45;&gt;Node15</title>
<path fill="none" stroke="midnightblue" d="M453.501,-362.97C400.956,-356.453 308.755,-342.236 283.804,-320.4 213.985,-259.297 197.072,-140.215 193.04,-92.5469"/>
<polygon fill="midnightblue" stroke="midnightblue" points="196.527,-92.2402 192.298,-82.526 189.546,-92.7571 196.527,-92.2402"/>
</g>
<!-- Node21&#45;&gt;Node17 -->
<g id="edge48" class="edge"><title>Node21&#45;&gt;Node17</title>
<path fill="none" stroke="midnightblue" d="M453.478,-364.316C389.996,-357.328 267.804,-333.12 267.804,-250.3 267.804,-250.3 267.804,-250.3 267.804,-188.9 267.804,-156.62 273.268,-148.105 286.804,-118.8 291.344,-108.971 297.902,-98.9543 303.9,-90.7309"/>
<polygon fill="midnightblue" stroke="midnightblue" points="306.81,-92.6869 310.068,-82.6055 301.234,-88.4546 306.81,-92.6869"/>
</g>
<!-- Node21&#45;&gt;Node19 -->
<g id="edge47" class="edge"><title>Node21&#45;&gt;Node19</title>
<path fill="none" stroke="midnightblue" d="M500.883,-356.783C509.146,-347.819 520.614,-334.149 527.804,-320.4 558.401,-261.891 523.759,-224.528 570.804,-178.2 612.301,-137.335 641.923,-161.697 696.804,-142.2 696.901,-142.165 696.998,-142.131 697.096,-142.096"/>
<polygon fill="midnightblue" stroke="midnightblue" points="698.284,-145.389 706.321,-138.485 695.733,-138.871 698.284,-145.389"/>
</g>
<!-- Node22 -->
<g id="node22" class="node"><title>Node22</title>
<g id="a_node22"><a xlink:href="Match_8h.html" target="_top" xlink:title="Match.h">
<polygon fill="white" stroke="black" points="462.976,-297.5 462.976,-319.9 518.631,-319.9 518.631,-297.5 462.976,-297.5"/>
<text text-anchor="middle" x="490.804" y="-305.1" font-family="-adobe-utopia-medium-i-normal--0-0-0-0-p-0-iso10646-1" font-size="12.00">Match.h</text>
</a>
</g>
</g>
<!-- Node21&#45;&gt;Node22 -->
<g id="edge38" class="edge"><title>Node21&#45;&gt;Node22</title>
<path fill="none" stroke="midnightblue" d="M485.488,-356.838C484.141,-349.502 483.743,-339.379 484.293,-330.393"/>
<polygon fill="midnightblue" stroke="midnightblue" points="487.793,-330.59 485.434,-320.261 480.837,-329.807 487.793,-330.59"/>
</g>
<!-- Node24 -->
<g id="node24" class="node"><title>Node24</title>
<polygon fill="white" stroke="#bfbfbf" points="416.139,-297.5 416.139,-319.9 445.468,-319.9 445.468,-297.5 416.139,-297.5"/>
<text text-anchor="middle" x="430.804" y="-305.1" font-family="-adobe-utopia-medium-i-normal--0-0-0-0-p-0-iso10646-1" font-size="12.00">set</text>
</g>
<!-- Node21&#45;&gt;Node24 -->
<g id="edge49" class="edge"><title>Node21&#45;&gt;Node24</title>
<path fill="none" stroke="midnightblue" d="M480.077,-356.838C471.482,-348.615 459.226,-336.89 449.088,-327.192"/>
<polygon fill="midnightblue" stroke="midnightblue" points="451.489,-324.645 441.844,-320.261 446.65,-329.703 451.489,-324.645"/>
</g>
<!-- Node22&#45;&gt;Node3 -->
<g id="edge39" class="edge"><title>Node22&#45;&gt;Node3</title>
<path fill="none" stroke="midnightblue" d="M518.686,-303.243C570.316,-294.762 678.739,-275.829 713.804,-261 757.264,-242.62 769.023,-235.542 801.804,-201.6 819.009,-183.786 854.228,-123.027 872.015,-91.4738"/>
<polygon fill="midnightblue" stroke="midnightblue" points="875.295,-92.7813 877.133,-82.3471 869.189,-89.3577 875.295,-92.7813"/>
</g>
<!-- Node22&#45;&gt;Node12 -->
<g id="edge41" class="edge"><title>Node22&#45;&gt;Node12</title>
<path fill="none" stroke="midnightblue" d="M518.691,-298.605C547.503,-289.208 592.783,-274.441 625.698,-263.706"/>
<polygon fill="midnightblue" stroke="midnightblue" points="627.062,-266.943 635.484,-260.514 624.892,-260.288 627.062,-266.943"/>
</g>
<!-- Node22&#45;&gt;Node13 -->
<g id="edge40" class="edge"><title>Node22&#45;&gt;Node13</title>
<path fill="none" stroke="midnightblue" d="M487.609,-297.335C481.646,-277.989 468.729,-236.081 461.002,-211.009"/>
<polygon fill="midnightblue" stroke="midnightblue" points="464.333,-209.935 458.043,-201.41 457.644,-211.997 464.333,-209.935"/>
</g>
<!-- Node22&#45;&gt;Node18 -->
<g id="edge43" class="edge"><title>Node22&#45;&gt;Node18</title>
<path fill="none" stroke="midnightblue" d="M491.181,-297.416C492.618,-273.275 499.534,-212.443 532.804,-178.2 539.801,-170.998 593.025,-153.435 629.44,-142.019"/>
<polygon fill="midnightblue" stroke="midnightblue" points="630.706,-145.29 639.213,-138.975 628.624,-138.607 630.706,-145.29"/>
</g>
<!-- Node22&#45;&gt;Node21 -->
<g id="edge42" class="edge"><title>Node22&#45;&gt;Node21</title>
<path fill="none" stroke="midnightblue" d="M496.174,-320.261C497.495,-327.672 497.867,-337.817 497.292,-346.771"/>
<polygon fill="midnightblue" stroke="midnightblue" points="493.8,-346.5 496.12,-356.838 500.753,-347.31 493.8,-346.5"/>
</g>
<!-- Node23 -->
<g id="node23" class="node"><title>Node23</title>
<polygon fill="white" stroke="#bfbfbf" points="387.138,-238.1 387.138,-260.5 442.469,-260.5 442.469,-238.1 387.138,-238.1"/>
<text text-anchor="middle" x="414.804" y="-245.7" font-family="-adobe-utopia-medium-i-normal--0-0-0-0-p-0-iso10646-1" font-size="12.00">iomanip</text>
</g>
<!-- Node22&#45;&gt;Node23 -->
<g id="edge44" class="edge"><title>Node22&#45;&gt;Node23</title>
<path fill="none" stroke="midnightblue" d="M477.216,-297.438C465.939,-288.92 449.686,-276.645 436.593,-266.757"/>
<polygon fill="midnightblue" stroke="midnightblue" points="438.619,-263.901 428.53,-260.667 434.4,-269.486 438.619,-263.901"/>
</g>
</g>
</svg>
