<?xml version="1.0" encoding="UTF-8" standalone="no"?>
<!DOCTYPE svg PUBLIC "-//W3C//DTD SVG 1.1//EN"
 "http://www.w3.org/Graphics/SVG/1.1/DTD/svg11.dtd">
<!-- Generated by graphviz version 2.38.0 (20140413.2041)
 -->
<!-- Title: SharedSegmentPointer.h Pages: 1 -->
<svg width="305pt" height="150pt"
 viewBox="0.00 0.00 305.15 150.20" xmlns="http://www.w3.org/2000/svg" xmlns:xlink="http://www.w3.org/1999/xlink">
<g id="graph0" class="graph" transform="scale(1 1) rotate(0) translate(4 146.2)">
<title>SharedSegmentPointer.h</title>
<polygon fill="white" stroke="none" points="-4,4 -4,-146.2 301.148,-146.2 301.148,4 -4,4"/>
<!-- Node1 -->
<g id="node1" class="node"><title>Node1</title>
<polygon fill="#bfbfbf" stroke="black" points="118.504,-119.3 118.504,-141.7 253.479,-141.7 253.479,-119.3 118.504,-119.3"/>
<text text-anchor="middle" x="185.992" y="-126.9" font-family="-adobe-utopia-medium-i-normal--0-0-0-0-p-0-iso10646-1" font-size="12.00">SharedSegmentPointer.h</text>
</g>
<!-- Node2 -->
<g id="node2" class="node"><title>Node2</title>
<g id="a_node2"><a xlink:href="BasicDefinitions_8h.html" target="_top" xlink:title="BasicDefinitions.h">
<polygon fill="white" stroke="black" points="73.1674,-59.9 73.1674,-82.3 178.816,-82.3 178.816,-59.9 73.1674,-59.9"/>
<text text-anchor="middle" x="125.992" y="-67.5" font-family="-adobe-utopia-medium-i-normal--0-0-0-0-p-0-iso10646-1" font-size="12.00">BasicDefinitions.h</text>
</a>
</g>
</g>
<!-- Node1&#45;&gt;Node2 -->
<g id="edge1" class="edge"><title>Node1&#45;&gt;Node2</title>
<path fill="none" stroke="midnightblue" d="M175.265,-119.238C166.669,-111.015 154.414,-99.2904 144.276,-89.5917"/>
<polygon fill="midnightblue" stroke="midnightblue" points="146.677,-87.0452 137.031,-82.6615 141.838,-92.1033 146.677,-87.0452"/>
</g>
<!-- Node7 -->
<g id="node7" class="node"><title>Node7</title>
<polygon fill="white" stroke="#bfbfbf" points="196.835,-59.9 196.835,-82.3 297.148,-82.3 297.148,-59.9 196.835,-59.9"/>
<text text-anchor="middle" x="246.992" y="-67.5" font-family="-adobe-utopia-medium-i-normal--0-0-0-0-p-0-iso10646-1" font-size="12.00">SharedSegment.h</text>
</g>
<!-- Node1&#45;&gt;Node7 -->
<g id="edge6" class="edge"><title>Node1&#45;&gt;Node7</title>
<path fill="none" stroke="midnightblue" d="M196.897,-119.238C205.636,-111.015 218.096,-99.2904 228.403,-89.5917"/>
<polygon fill="midnightblue" stroke="midnightblue" points="230.884,-92.0634 235.768,-82.6615 226.086,-86.9655 230.884,-92.0634"/>
</g>
<!-- Node3 -->
<g id="node3" class="node"><title>Node3</title>
<polygon fill="white" stroke="#bfbfbf" points="3.55271e-15,-0.5 3.55271e-15,-22.9 45.9832,-22.9 45.9832,-0.5 3.55271e-15,-0.5"/>
<text text-anchor="middle" x="22.9916" y="-8.1" font-family="-adobe-utopia-medium-i-normal--0-0-0-0-p-0-iso10646-1" font-size="12.00">vector</text>
</g>
<!-- Node2&#45;&gt;Node3 -->
<g id="edge2" class="edge"><title>Node2&#45;&gt;Node3</title>
<path fill="none" stroke="midnightblue" d="M107.577,-59.838C91.7107,-50.9959 68.5783,-38.1046 50.5134,-28.0374"/>
<polygon fill="midnightblue" stroke="midnightblue" points="52.0328,-24.8773 41.5938,-23.0667 48.6252,-30.992 52.0328,-24.8773"/>
</g>
<!-- Node4 -->
<g id="node4" class="node"><title>Node4</title>
<polygon fill="white" stroke="#bfbfbf" points="64.0018,-0.5 64.0018,-22.9 115.981,-22.9 115.981,-0.5 64.0018,-0.5"/>
<text text-anchor="middle" x="89.9916" y="-8.1" font-family="-adobe-utopia-medium-i-normal--0-0-0-0-p-0-iso10646-1" font-size="12.00">fstream</text>
</g>
<!-- Node2&#45;&gt;Node4 -->
<g id="edge3" class="edge"><title>Node2&#45;&gt;Node4</title>
<path fill="none" stroke="midnightblue" d="M119.556,-59.838C114.702,-52.0988 107.902,-41.2577 102.048,-31.9231"/>
<polygon fill="midnightblue" stroke="midnightblue" points="104.894,-29.8735 96.6155,-23.2615 98.9637,-33.5928 104.894,-29.8735"/>
</g>
<!-- Node5 -->
<g id="node5" class="node"><title>Node5</title>
<polygon fill="white" stroke="#bfbfbf" points="134.332,-0.5 134.332,-22.9 191.651,-22.9 191.651,-0.5 134.332,-0.5"/>
<text text-anchor="middle" x="162.992" y="-8.1" font-family="-adobe-utopia-medium-i-normal--0-0-0-0-p-0-iso10646-1" font-size="12.00">iostream</text>
</g>
<!-- Node2&#45;&gt;Node5 -->
<g id="edge4" class="edge"><title>Node2&#45;&gt;Node5</title>
<path fill="none" stroke="midnightblue" d="M132.606,-59.838C137.595,-52.0988 144.583,-41.2577 150.6,-31.9231"/>
<polygon fill="midnightblue" stroke="midnightblue" points="153.708,-33.5629 156.184,-23.2615 147.824,-29.7703 153.708,-33.5629"/>
</g>
<!-- Node6 -->
<g id="node6" class="node"><title>Node6</title>
<polygon fill="white" stroke="#bfbfbf" points="209.826,-0.5 209.826,-22.9 262.157,-22.9 262.157,-0.5 209.826,-0.5"/>
<text text-anchor="middle" x="235.992" y="-8.1" font-family="-adobe-utopia-medium-i-normal--0-0-0-0-p-0-iso10646-1" font-size="12.00">string.h</text>
</g>
<!-- Node2&#45;&gt;Node6 -->
<g id="edge5" class="edge"><title>Node2&#45;&gt;Node6</title>
<path fill="none" stroke="midnightblue" d="M145.657,-59.838C162.758,-50.9148 187.761,-37.8678 207.129,-27.761"/>
<polygon fill="midnightblue" stroke="midnightblue" points="208.879,-30.7959 216.125,-23.0667 205.64,-24.59 208.879,-30.7959"/>
</g>
</g>
</svg>
