<?xml version="1.0" encoding="UTF-8" standalone="no"?>
<!DOCTYPE svg PUBLIC "-//W3C//DTD SVG 1.1//EN"
 "http://www.w3.org/Graphics/SVG/1.1/DTD/svg11.dtd">
<!-- Generated by graphviz version 2.38.0 (20140413.2041)
 -->
<!-- Title: SNP.cpp Pages: 1 -->
<svg width="275pt" height="210pt"
 viewBox="0.00 0.00 274.65 209.60" xmlns="http://www.w3.org/2000/svg" xmlns:xlink="http://www.w3.org/1999/xlink">
<g id="graph0" class="graph" transform="scale(1 1) rotate(0) translate(4 205.6)">
<title>SNP.cpp</title>
<polygon fill="white" stroke="none" points="-4,4 -4,-205.6 270.651,-205.6 270.651,4 -4,4"/>
<!-- Node1 -->
<g id="node1" class="node"><title>Node1</title>
<polygon fill="#bfbfbf" stroke="black" points="174.826,-178.7 174.826,-201.1 233.157,-201.1 233.157,-178.7 174.826,-178.7"/>
<text text-anchor="middle" x="203.992" y="-186.3" font-family="-adobe-utopia-medium-i-normal--0-0-0-0-p-0-iso10646-1" font-size="12.00">SNP.cpp</text>
</g>
<!-- Node2 -->
<g id="node2" class="node"><title>Node2</title>
<g id="a_node2"><a xlink:href="SNP_8h.html" target="_top" xlink:title="SNP.h">
<polygon fill="white" stroke="black" points="109.489,-119.3 109.489,-141.7 156.494,-141.7 156.494,-119.3 109.489,-119.3"/>
<text text-anchor="middle" x="132.992" y="-126.9" font-family="-adobe-utopia-medium-i-normal--0-0-0-0-p-0-iso10646-1" font-size="12.00">SNP.h</text>
</a>
</g>
</g>
<!-- Node1&#45;&gt;Node2 -->
<g id="edge1" class="edge"><title>Node1&#45;&gt;Node2</title>
<path fill="none" stroke="midnightblue" d="M191.298,-178.638C180.928,-170.254 166.054,-158.229 153.925,-148.424"/>
<polygon fill="midnightblue" stroke="midnightblue" points="156.032,-145.627 146.055,-142.061 151.632,-151.07 156.032,-145.627"/>
</g>
<!-- Node6 -->
<g id="node6" class="node"><title>Node6</title>
<polygon fill="white" stroke="#bfbfbf" points="209.332,-0.5 209.332,-22.9 266.651,-22.9 266.651,-0.5 209.332,-0.5"/>
<text text-anchor="middle" x="237.992" y="-8.1" font-family="-adobe-utopia-medium-i-normal--0-0-0-0-p-0-iso10646-1" font-size="12.00">iostream</text>
</g>
<!-- Node1&#45;&gt;Node6 -->
<g id="edge9" class="edge"><title>Node1&#45;&gt;Node6</title>
<path fill="none" stroke="midnightblue" d="M205.967,-178.665C211.436,-150.321 226.854,-70.4196 234.116,-32.783"/>
<polygon fill="midnightblue" stroke="midnightblue" points="237.553,-33.4451 236.011,-22.9631 230.68,-32.1188 237.553,-33.4451"/>
</g>
<!-- Node3 -->
<g id="node3" class="node"><title>Node3</title>
<g id="a_node3"><a xlink:href="BasicDefinitions_8h.html" target="_top" xlink:title="BasicDefinitions.h">
<polygon fill="white" stroke="black" points="45.1674,-59.9 45.1674,-82.3 150.816,-82.3 150.816,-59.9 45.1674,-59.9"/>
<text text-anchor="middle" x="97.9916" y="-67.5" font-family="-adobe-utopia-medium-i-normal--0-0-0-0-p-0-iso10646-1" font-size="12.00">BasicDefinitions.h</text>
</a>
</g>
</g>
<!-- Node2&#45;&gt;Node3 -->
<g id="edge2" class="edge"><title>Node2&#45;&gt;Node3</title>
<path fill="none" stroke="midnightblue" d="M126.734,-119.238C122.015,-111.499 115.405,-100.658 109.713,-91.3231"/>
<polygon fill="midnightblue" stroke="midnightblue" points="112.626,-89.3773 104.432,-82.6615 106.649,-93.0216 112.626,-89.3773"/>
</g>
<!-- Node4 -->
<g id="node4" class="node"><title>Node4</title>
<polygon fill="white" stroke="#bfbfbf" points="3.55271e-15,-0.5 3.55271e-15,-22.9 45.9832,-22.9 45.9832,-0.5 3.55271e-15,-0.5"/>
<text text-anchor="middle" x="22.9916" y="-8.1" font-family="-adobe-utopia-medium-i-normal--0-0-0-0-p-0-iso10646-1" font-size="12.00">vector</text>
</g>
<!-- Node2&#45;&gt;Node4 -->
<g id="edge8" class="edge"><title>Node2&#45;&gt;Node4</title>
<path fill="none" stroke="midnightblue" d="M109.115,-124.523C86.673,-118.551 53.9274,-106.26 35.9916,-82.8 25.3282,-68.8523 22.4905,-48.84 22.08,-33.7656"/>
<polygon fill="midnightblue" stroke="midnightblue" points="25.5825,-33.4062 22.1499,-23.3828 18.5826,-33.359 25.5825,-33.4062"/>
</g>
<!-- Node8 -->
<g id="node8" class="node"><title>Node8</title>
<polygon fill="white" stroke="#bfbfbf" points="168.326,-59.9 168.326,-82.3 211.657,-82.3 211.657,-59.9 168.326,-59.9"/>
<text text-anchor="middle" x="189.992" y="-67.5" font-family="-adobe-utopia-medium-i-normal--0-0-0-0-p-0-iso10646-1" font-size="12.00">string</text>
</g>
<!-- Node2&#45;&gt;Node8 -->
<g id="edge7" class="edge"><title>Node2&#45;&gt;Node8</title>
<path fill="none" stroke="midnightblue" d="M143.182,-119.238C151.268,-111.096 162.763,-99.52 172.338,-89.8775"/>
<polygon fill="midnightblue" stroke="midnightblue" points="174.941,-92.2235 179.504,-82.6615 169.974,-87.291 174.941,-92.2235"/>
</g>
<!-- Node3&#45;&gt;Node4 -->
<g id="edge3" class="edge"><title>Node3&#45;&gt;Node4</title>
<path fill="none" stroke="midnightblue" d="M84.5831,-59.838C73.4538,-51.3204 57.415,-39.0453 44.4943,-29.1568"/>
<polygon fill="midnightblue" stroke="midnightblue" points="46.6053,-26.3649 36.5369,-23.0667 42.3509,-31.9238 46.6053,-26.3649"/>
</g>
<!-- Node5 -->
<g id="node5" class="node"><title>Node5</title>
<polygon fill="white" stroke="#bfbfbf" points="67.0018,-0.5 67.0018,-22.9 118.981,-22.9 118.981,-0.5 67.0018,-0.5"/>
<text text-anchor="middle" x="92.9916" y="-8.1" font-family="-adobe-utopia-medium-i-normal--0-0-0-0-p-0-iso10646-1" font-size="12.00">fstream</text>
</g>
<!-- Node3&#45;&gt;Node5 -->
<g id="edge4" class="edge"><title>Node3&#45;&gt;Node5</title>
<path fill="none" stroke="midnightblue" d="M97.0977,-59.838C96.4587,-52.5019 95.5768,-42.3785 94.7941,-33.3932"/>
<polygon fill="midnightblue" stroke="midnightblue" points="98.2663,-32.92 93.9116,-23.2615 91.2927,-33.5275 98.2663,-32.92"/>
</g>
<!-- Node3&#45;&gt;Node6 -->
<g id="edge5" class="edge"><title>Node3&#45;&gt;Node6</title>
<path fill="none" stroke="midnightblue" d="M123.021,-59.838C145.378,-50.6714 178.35,-37.153 203.258,-26.9408"/>
<polygon fill="midnightblue" stroke="midnightblue" points="204.782,-30.0986 212.707,-23.0667 202.127,-23.6219 204.782,-30.0986"/>
</g>
<!-- Node7 -->
<g id="node7" class="node"><title>Node7</title>
<polygon fill="white" stroke="#bfbfbf" points="136.826,-0.5 136.826,-22.9 189.157,-22.9 189.157,-0.5 136.826,-0.5"/>
<text text-anchor="middle" x="162.992" y="-8.1" font-family="-adobe-utopia-medium-i-normal--0-0-0-0-p-0-iso10646-1" font-size="12.00">string.h</text>
</g>
<!-- Node3&#45;&gt;Node7 -->
<g id="edge6" class="edge"><title>Node3&#45;&gt;Node7</title>
<path fill="none" stroke="midnightblue" d="M109.612,-59.838C119.015,-51.5345 132.462,-39.6602 143.506,-29.907"/>
<polygon fill="midnightblue" stroke="midnightblue" points="145.853,-32.5043 151.032,-23.2615 141.219,-27.2573 145.853,-32.5043"/>
</g>
</g>
</svg>
