<?xml version="1.0" encoding="UTF-8" standalone="no"?>
<!DOCTYPE svg PUBLIC "-//W3C//DTD SVG 1.1//EN"
 "http://www.w3.org/Graphics/SVG/1.1/DTD/svg11.dtd">
<!-- Generated by graphviz version 2.38.0 (20140413.2041)
 -->
<!-- Title: SNPs.h Pages: 1 -->
<svg width="560pt" height="210pt"
 viewBox="0.00 0.00 560.25 209.60" xmlns="http://www.w3.org/2000/svg" xmlns:xlink="http://www.w3.org/1999/xlink">
<g id="graph0" class="graph" transform="scale(1 1) rotate(0) translate(4 205.6)">
<title>SNPs.h</title>
<polygon fill="white" stroke="none" points="-4,4 -4,-205.6 556.255,-205.6 556.255,4 -4,4"/>
<!-- Node1 -->
<g id="node1" class="node"><title>Node1</title>
<polygon fill="#bfbfbf" stroke="black" points="240.084,-178.7 240.084,-201.1 291.755,-201.1 291.755,-178.7 240.084,-178.7"/>
<text text-anchor="middle" x="265.919" y="-186.3" font-family="-adobe-utopia-medium-i-normal--0-0-0-0-p-0-iso10646-1" font-size="12.00">SNPs.h</text>
</g>
<!-- Node2 -->
<g id="node2" class="node"><title>Node2</title>
<g id="a_node2"><a xlink:href="BasicDefinitions_8h.html" target="_top" xlink:title="BasicDefinitions.h">
<polygon fill="white" stroke="black" points="56.0949,-59.9 56.0949,-82.3 161.743,-82.3 161.743,-59.9 56.0949,-59.9"/>
<text text-anchor="middle" x="108.919" y="-67.5" font-family="-adobe-utopia-medium-i-normal--0-0-0-0-p-0-iso10646-1" font-size="12.00">BasicDefinitions.h</text>
</a>
</g>
</g>
<!-- Node1&#45;&gt;Node2 -->
<g id="edge1" class="edge"><title>Node1&#45;&gt;Node2</title>
<path fill="none" stroke="midnightblue" d="M240.05,-187.928C183.205,-185.193 50.2798,-175.32 22.9191,-142.2 4.18544,-119.523 38.4004,-98.9576 69.0623,-86.053"/>
<polygon fill="midnightblue" stroke="midnightblue" points="70.4275,-89.2765 78.4014,-82.3003 67.8175,-82.7813 70.4275,-89.2765"/>
</g>
<!-- Node3 -->
<g id="node3" class="node"><title>Node3</title>
<polygon fill="white" stroke="#bfbfbf" points="4.92751,-0.5 4.92751,-22.9 50.9107,-22.9 50.9107,-0.5 4.92751,-0.5"/>
<text text-anchor="middle" x="27.9191" y="-8.1" font-family="-adobe-utopia-medium-i-normal--0-0-0-0-p-0-iso10646-1" font-size="12.00">vector</text>
</g>
<!-- Node1&#45;&gt;Node3 -->
<g id="edge17" class="edge"><title>Node1&#45;&gt;Node3</title>
<path fill="none" stroke="midnightblue" d="M239.981,-188.12C181.556,-185.762 42.5135,-176.58 13.9191,-142.2 -11.9669,-111.076 5.19608,-60.1563 17.8596,-32.3457"/>
<polygon fill="midnightblue" stroke="midnightblue" points="21.0653,-33.755 22.2334,-23.2248 14.7535,-30.7282 21.0653,-33.755"/>
</g>
<!-- Node4 -->
<g id="node4" class="node"><title>Node4</title>
<polygon fill="white" stroke="#bfbfbf" points="309.929,-0.5 309.929,-22.9 361.909,-22.9 361.909,-0.5 309.929,-0.5"/>
<text text-anchor="middle" x="335.919" y="-8.1" font-family="-adobe-utopia-medium-i-normal--0-0-0-0-p-0-iso10646-1" font-size="12.00">fstream</text>
</g>
<!-- Node1&#45;&gt;Node4 -->
<g id="edge16" class="edge"><title>Node1&#45;&gt;Node4</title>
<path fill="none" stroke="midnightblue" d="M291.961,-187.033C320.466,-183.437 364.907,-172.924 385.919,-142.2 410.349,-106.479 375.907,-57.1547 353.162,-30.8858"/>
<polygon fill="midnightblue" stroke="midnightblue" points="355.562,-28.3192 346.278,-23.2136 350.352,-32.9941 355.562,-28.3192"/>
</g>
<!-- Node7 -->
<g id="node7" class="node"><title>Node7</title>
<g id="a_node7"><a xlink:href="NucleotideMap_8h.html" target="_top" xlink:title="NucleotideMap.h">
<polygon fill="white" stroke="black" points="32.0985,-119.3 32.0985,-141.7 131.74,-141.7 131.74,-119.3 32.0985,-119.3"/>
<text text-anchor="middle" x="81.9191" y="-126.9" font-family="-adobe-utopia-medium-i-normal--0-0-0-0-p-0-iso10646-1" font-size="12.00">NucleotideMap.h</text>
</a>
</g>
</g>
<!-- Node1&#45;&gt;Node7 -->
<g id="edge6" class="edge"><title>Node1&#45;&gt;Node7</title>
<path fill="none" stroke="midnightblue" d="M239.947,-180.798C209.975,-171.448 160.243,-155.934 124.571,-144.805"/>
<polygon fill="midnightblue" stroke="midnightblue" points="125.499,-141.429 114.91,-141.792 123.414,-148.111 125.499,-141.429"/>
</g>
<!-- Node8 -->
<g id="node8" class="node"><title>Node8</title>
<g id="a_node8"><a xlink:href="SNP_8h.html" target="_top" xlink:title="SNP.h">
<polygon fill="white" stroke="black" points="149.417,-119.3 149.417,-141.7 196.421,-141.7 196.421,-119.3 149.417,-119.3"/>
<text text-anchor="middle" x="172.919" y="-126.9" font-family="-adobe-utopia-medium-i-normal--0-0-0-0-p-0-iso10646-1" font-size="12.00">SNP.h</text>
</a>
</g>
</g>
<!-- Node1&#45;&gt;Node8 -->
<g id="edge8" class="edge"><title>Node1&#45;&gt;Node8</title>
<path fill="none" stroke="midnightblue" d="M249.293,-178.638C235.229,-169.958 214.844,-157.376 198.671,-147.394"/>
<polygon fill="midnightblue" stroke="midnightblue" points="200.063,-144.141 189.715,-141.867 196.387,-150.097 200.063,-144.141"/>
</g>
<!-- Node9 -->
<g id="node9" class="node"><title>Node9</title>
<polygon fill="white" stroke="#bfbfbf" points="203.254,-59.9 203.254,-82.3 246.585,-82.3 246.585,-59.9 203.254,-59.9"/>
<text text-anchor="middle" x="224.919" y="-67.5" font-family="-adobe-utopia-medium-i-normal--0-0-0-0-p-0-iso10646-1" font-size="12.00">string</text>
</g>
<!-- Node1&#45;&gt;Node9 -->
<g id="edge18" class="edge"><title>Node1&#45;&gt;Node9</title>
<path fill="none" stroke="midnightblue" d="M260.305,-178.37C255.496,-169.052 248.622,-154.985 243.919,-142.2 237.943,-125.952 232.912,-106.969 229.531,-92.8581"/>
<polygon fill="midnightblue" stroke="midnightblue" points="232.852,-91.6844 227.187,-82.7313 226.032,-93.263 232.852,-91.6844"/>
</g>
<!-- Node10 -->
<g id="node10" class="node"><title>Node10</title>
<g id="a_node10"><a xlink:href="SNPPositionMap_8h.html" target="_top" xlink:title="SNPPositionMap.h">
<polygon fill="white" stroke="black" points="252.749,-119.3 252.749,-141.7 361.089,-141.7 361.089,-119.3 252.749,-119.3"/>
<text text-anchor="middle" x="306.919" y="-126.9" font-family="-adobe-utopia-medium-i-normal--0-0-0-0-p-0-iso10646-1" font-size="12.00">SNPPositionMap.h</text>
</a>
</g>
</g>
<!-- Node1&#45;&gt;Node10 -->
<g id="edge12" class="edge"><title>Node1&#45;&gt;Node10</title>
<path fill="none" stroke="midnightblue" d="M273.249,-178.638C278.835,-170.818 286.682,-159.831 293.396,-150.432"/>
<polygon fill="midnightblue" stroke="midnightblue" points="296.411,-152.233 299.375,-142.061 290.715,-148.164 296.411,-152.233"/>
</g>
<!-- Node11 -->
<g id="node11" class="node"><title>Node11</title>
<polygon fill="white" stroke="#bfbfbf" points="325.588,-59.9 325.588,-82.3 362.25,-82.3 362.25,-59.9 325.588,-59.9"/>
<text text-anchor="middle" x="343.919" y="-67.5" font-family="-adobe-utopia-medium-i-normal--0-0-0-0-p-0-iso10646-1" font-size="12.00">map</text>
</g>
<!-- Node1&#45;&gt;Node11 -->
<g id="edge19" class="edge"><title>Node1&#45;&gt;Node11</title>
<path fill="none" stroke="midnightblue" d="M292.034,-185.246C316.843,-180.236 352.821,-168.62 369.919,-142.2 380.198,-126.317 370.345,-105.797 359.952,-91.0686"/>
<polygon fill="midnightblue" stroke="midnightblue" points="362.439,-88.5594 353.586,-82.7396 356.877,-92.8101 362.439,-88.5594"/>
</g>
<!-- Node12 -->
<g id="node12" class="node"><title>Node12</title>
<polygon fill="white" stroke="#bfbfbf" points="454.421,-119.3 454.421,-141.7 503.417,-141.7 503.417,-119.3 454.421,-119.3"/>
<text text-anchor="middle" x="478.919" y="-126.9" font-family="-adobe-utopia-medium-i-normal--0-0-0-0-p-0-iso10646-1" font-size="12.00">math.h</text>
</g>
<!-- Node1&#45;&gt;Node12 -->
<g id="edge15" class="edge"><title>Node1&#45;&gt;Node12</title>
<path fill="none" stroke="midnightblue" d="M292.04,-182.049C326.27,-173.043 388.152,-156.669 440.919,-142.2 442.146,-141.864 443.395,-141.52 444.656,-141.171"/>
<polygon fill="midnightblue" stroke="midnightblue" points="445.709,-144.511 454.403,-138.456 443.831,-137.768 445.709,-144.511"/>
</g>
<!-- Node13 -->
<g id="node13" class="node"><title>Node13</title>
<polygon fill="white" stroke="#bfbfbf" points="521.584,-119.3 521.584,-141.7 552.255,-141.7 552.255,-119.3 521.584,-119.3"/>
<text text-anchor="middle" x="536.919" y="-126.9" font-family="-adobe-utopia-medium-i-normal--0-0-0-0-p-0-iso10646-1" font-size="12.00">list</text>
</g>
<!-- Node1&#45;&gt;Node13 -->
<g id="edge20" class="edge"><title>Node1&#45;&gt;Node13</title>
<path fill="none" stroke="midnightblue" d="M291.861,-185.857C337.21,-180.125 433.54,-166.103 511.919,-142.2 512.018,-142.17 512.117,-142.139 512.216,-142.109"/>
<polygon fill="midnightblue" stroke="midnightblue" points="513.32,-145.432 521.511,-138.711 510.917,-138.857 513.32,-145.432"/>
</g>
<!-- Node2&#45;&gt;Node3 -->
<g id="edge2" class="edge"><title>Node2&#45;&gt;Node3</title>
<path fill="none" stroke="midnightblue" d="M94.4379,-59.838C82.3038,-51.2393 64.7659,-38.8112 50.7443,-28.8749"/>
<polygon fill="midnightblue" stroke="midnightblue" points="52.7308,-25.9929 42.548,-23.0667 48.6834,-31.7042 52.7308,-25.9929"/>
</g>
<!-- Node2&#45;&gt;Node4 -->
<g id="edge3" class="edge"><title>Node2&#45;&gt;Node4</title>
<path fill="none" stroke="midnightblue" d="M149.502,-59.838C192.295,-49.0173 259.07,-32.1324 300.009,-21.7803"/>
<polygon fill="midnightblue" stroke="midnightblue" points="300.994,-25.1415 309.831,-19.2968 299.278,-18.3551 300.994,-25.1415"/>
</g>
<!-- Node5 -->
<g id="node5" class="node"><title>Node5</title>
<polygon fill="white" stroke="#bfbfbf" points="74.2593,-0.5 74.2593,-22.9 131.579,-22.9 131.579,-0.5 74.2593,-0.5"/>
<text text-anchor="middle" x="102.919" y="-8.1" font-family="-adobe-utopia-medium-i-normal--0-0-0-0-p-0-iso10646-1" font-size="12.00">iostream</text>
</g>
<!-- Node2&#45;&gt;Node5 -->
<g id="edge4" class="edge"><title>Node2&#45;&gt;Node5</title>
<path fill="none" stroke="midnightblue" d="M107.846,-59.838C107.08,-52.5019 106.021,-42.3785 105.082,-33.3932"/>
<polygon fill="midnightblue" stroke="midnightblue" points="108.544,-32.8434 104.023,-23.2615 101.582,-33.5712 108.544,-32.8434"/>
</g>
<!-- Node6 -->
<g id="node6" class="node"><title>Node6</title>
<polygon fill="white" stroke="#bfbfbf" points="149.754,-0.5 149.754,-22.9 202.085,-22.9 202.085,-0.5 149.754,-0.5"/>
<text text-anchor="middle" x="175.919" y="-8.1" font-family="-adobe-utopia-medium-i-normal--0-0-0-0-p-0-iso10646-1" font-size="12.00">string.h</text>
</g>
<!-- Node2&#45;&gt;Node6 -->
<g id="edge5" class="edge"><title>Node2&#45;&gt;Node6</title>
<path fill="none" stroke="midnightblue" d="M120.897,-59.838C130.59,-51.5345 144.45,-39.6602 155.834,-29.907"/>
<polygon fill="midnightblue" stroke="midnightblue" points="158.274,-32.4255 163.591,-23.2615 153.72,-27.1096 158.274,-32.4255"/>
</g>
<!-- Node7&#45;&gt;Node2 -->
<g id="edge7" class="edge"><title>Node7&#45;&gt;Node2</title>
<path fill="none" stroke="midnightblue" d="M86.7462,-119.238C90.3107,-111.66 95.2742,-101.108 99.6016,-91.9084"/>
<polygon fill="midnightblue" stroke="midnightblue" points="102.862,-93.2002 103.951,-82.6615 96.5275,-90.2206 102.862,-93.2002"/>
</g>
<!-- Node8&#45;&gt;Node2 -->
<g id="edge9" class="edge"><title>Node8&#45;&gt;Node2</title>
<path fill="none" stroke="midnightblue" d="M161.477,-119.238C152.309,-111.015 139.236,-99.2904 128.422,-89.5917"/>
<polygon fill="midnightblue" stroke="midnightblue" points="130.476,-86.7327 120.695,-82.6615 125.803,-91.9439 130.476,-86.7327"/>
</g>
<!-- Node8&#45;&gt;Node3 -->
<g id="edge11" class="edge"><title>Node8&#45;&gt;Node3</title>
<path fill="none" stroke="midnightblue" d="M149.194,-121.335C113.702,-109.032 50.5284,-86.7507 46.9191,-82.8 34.6005,-69.3162 30.1391,-48.6498 28.5873,-33.245"/>
<polygon fill="midnightblue" stroke="midnightblue" points="32.0704,-32.8758 27.9009,-23.1359 25.0865,-33.3501 32.0704,-32.8758"/>
</g>
<!-- Node8&#45;&gt;Node9 -->
<g id="edge10" class="edge"><title>Node8&#45;&gt;Node9</title>
<path fill="none" stroke="midnightblue" d="M182.216,-119.238C189.519,-111.176 199.871,-99.7488 208.554,-90.1645"/>
<polygon fill="midnightblue" stroke="midnightblue" points="211.231,-92.4224 215.351,-82.6615 206.043,-87.7227 211.231,-92.4224"/>
</g>
<!-- Node10&#45;&gt;Node9 -->
<g id="edge14" class="edge"><title>Node10&#45;&gt;Node9</title>
<path fill="none" stroke="midnightblue" d="M292.259,-119.238C279.975,-110.639 262.221,-98.2112 248.026,-88.2749"/>
<polygon fill="midnightblue" stroke="midnightblue" points="249.928,-85.334 239.729,-82.4667 245.914,-91.0686 249.928,-85.334"/>
</g>
<!-- Node10&#45;&gt;Node11 -->
<g id="edge13" class="edge"><title>Node10&#45;&gt;Node11</title>
<path fill="none" stroke="midnightblue" d="M313.534,-119.238C318.523,-111.499 325.511,-100.658 331.528,-91.3231"/>
<polygon fill="midnightblue" stroke="midnightblue" points="334.635,-92.9629 337.111,-82.6615 328.751,-89.1703 334.635,-92.9629"/>
</g>
</g>
</svg>
