<?xml version="1.0" encoding="UTF-8" standalone="no"?>
<!DOCTYPE svg PUBLIC "-//W3C//DTD SVG 1.1//EN"
 "http://www.w3.org/Graphics/SVG/1.1/DTD/svg11.dtd">
<!-- Generated by graphviz version 2.38.0 (20140413.2041)
 -->
<!-- Title: Chromosome.cpp Pages: 1 -->
<svg width="760pt" height="388pt"
 viewBox="0.00 0.00 759.66 387.80" xmlns="http://www.w3.org/2000/svg" xmlns:xlink="http://www.w3.org/1999/xlink">
<g id="graph0" class="graph" transform="scale(1 1) rotate(0) translate(4 383.8)">
<title>Chromosome.cpp</title>
<polygon fill="white" stroke="none" points="-4,4 -4,-383.8 755.66,-383.8 755.66,4 -4,4"/>
<!-- Node1 -->
<g id="node1" class="node"><title>Node1</title>
<polygon fill="#bfbfbf" stroke="black" points="580.506,-356.9 580.506,-379.3 681.494,-379.3 681.494,-356.9 580.506,-356.9"/>
<text text-anchor="middle" x="631" y="-364.5" font-family="-adobe-utopia-medium-i-normal--0-0-0-0-p-0-iso10646-1" font-size="12.00">Chromosome.cpp</text>
</g>
<!-- Node2 -->
<g id="node2" class="node"><title>Node2</title>
<g id="a_node2"><a xlink:href="Chromosome_8h.html" target="_top" xlink:title="Chromosome.h">
<polygon fill="white" stroke="black" points="392.17,-297.5 392.17,-319.9 481.83,-319.9 481.83,-297.5 392.17,-297.5"/>
<text text-anchor="middle" x="437" y="-305.1" font-family="-adobe-utopia-medium-i-normal--0-0-0-0-p-0-iso10646-1" font-size="12.00">Chromosome.h</text>
</a>
</g>
</g>
<!-- Node1&#45;&gt;Node2 -->
<g id="edge1" class="edge"><title>Node1&#45;&gt;Node2</title>
<path fill="none" stroke="midnightblue" d="M596.317,-356.838C564.277,-347.358 516.506,-333.224 481.632,-322.906"/>
<polygon fill="midnightblue" stroke="midnightblue" points="482.292,-319.451 471.71,-319.97 480.306,-326.163 482.292,-319.451"/>
</g>
<!-- Node6 -->
<g id="node6" class="node"><title>Node6</title>
<polygon fill="white" stroke="#bfbfbf" points="694.34,-0.5 694.34,-22.9 751.66,-22.9 751.66,-0.5 694.34,-0.5"/>
<text text-anchor="middle" x="723" y="-8.1" font-family="-adobe-utopia-medium-i-normal--0-0-0-0-p-0-iso10646-1" font-size="12.00">iostream</text>
</g>
<!-- Node1&#45;&gt;Node6 -->
<g id="edge29" class="edge"><title>Node1&#45;&gt;Node6</title>
<path fill="none" stroke="midnightblue" d="M648.791,-356.674C676.794,-338.77 728,-299.327 728,-250.3 728,-250.3 728,-250.3 728,-129.5 728,-95.6622 725.879,-56.3606 724.4,-33.063"/>
<polygon fill="midnightblue" stroke="midnightblue" points="727.888,-32.754 723.738,-23.0057 720.903,-33.2141 727.888,-32.754"/>
</g>
<!-- Node3 -->
<g id="node3" class="node"><title>Node3</title>
<g id="a_node3"><a xlink:href="BasicDefinitions_8h.html" target="_top" xlink:title="BasicDefinitions.h">
<polygon fill="white" stroke="black" points="518.176,-59.9 518.176,-82.3 623.824,-82.3 623.824,-59.9 518.176,-59.9"/>
<text text-anchor="middle" x="571" y="-67.5" font-family="-adobe-utopia-medium-i-normal--0-0-0-0-p-0-iso10646-1" font-size="12.00">BasicDefinitions.h</text>
</a>
</g>
</g>
<!-- Node2&#45;&gt;Node3 -->
<g id="edge2" class="edge"><title>Node2&#45;&gt;Node3</title>
<path fill="none" stroke="midnightblue" d="M453.458,-297.415C488.15,-274.605 567.894,-215.915 596,-142.2 602.57,-124.967 594.042,-105.159 585.21,-91.0046"/>
<polygon fill="midnightblue" stroke="midnightblue" points="588.024,-88.9185 579.517,-82.6032 582.229,-92.8451 588.024,-88.9185"/>
</g>
<!-- Node4 -->
<g id="node4" class="node"><title>Node4</title>
<polygon fill="white" stroke="#bfbfbf" points="185.008,-0.5 185.008,-22.9 230.992,-22.9 230.992,-0.5 185.008,-0.5"/>
<text text-anchor="middle" x="208" y="-8.1" font-family="-adobe-utopia-medium-i-normal--0-0-0-0-p-0-iso10646-1" font-size="12.00">vector</text>
</g>
<!-- Node2&#45;&gt;Node4 -->
<g id="edge28" class="edge"><title>Node2&#45;&gt;Node4</title>
<path fill="none" stroke="midnightblue" d="M391.879,-305.224C280.227,-297.87 0,-271.394 0,-190.9 0,-190.9 0,-190.9 0,-129.5 0,-50.3537 115.912,-24.2845 174.679,-16.1536"/>
<polygon fill="midnightblue" stroke="midnightblue" points="175.473,-19.5805 184.946,-14.8354 174.581,-12.6374 175.473,-19.5805"/>
</g>
<!-- Node8 -->
<g id="node8" class="node"><title>Node8</title>
<g id="a_node8"><a xlink:href="MarkerSet_8h.html" target="_top" xlink:title="MarkerSet.h">
<polygon fill="white" stroke="black" points="302.179,-238.1 302.179,-260.5 377.821,-260.5 377.821,-238.1 302.179,-238.1"/>
<text text-anchor="middle" x="340" y="-245.7" font-family="-adobe-utopia-medium-i-normal--0-0-0-0-p-0-iso10646-1" font-size="12.00">MarkerSet.h</text>
</a>
</g>
</g>
<!-- Node2&#45;&gt;Node8 -->
<g id="edge7" class="edge"><title>Node2&#45;&gt;Node8</title>
<path fill="none" stroke="midnightblue" d="M419.658,-297.438C404.853,-288.677 383.33,-275.941 366.388,-265.915"/>
<polygon fill="midnightblue" stroke="midnightblue" points="367.907,-262.747 357.519,-260.667 364.342,-268.772 367.907,-262.747"/>
</g>
<!-- Node3&#45;&gt;Node4 -->
<g id="edge3" class="edge"><title>Node3&#45;&gt;Node4</title>
<path fill="none" stroke="midnightblue" d="M517.828,-61.6921C441.876,-49.682 304.539,-27.9654 241.399,-17.9812"/>
<polygon fill="midnightblue" stroke="midnightblue" points="241.636,-14.4753 231.212,-16.3704 240.542,-21.3894 241.636,-14.4753"/>
</g>
<!-- Node5 -->
<g id="node5" class="node"><title>Node5</title>
<polygon fill="white" stroke="#bfbfbf" points="620.01,-0.5 620.01,-22.9 671.99,-22.9 671.99,-0.5 620.01,-0.5"/>
<text text-anchor="middle" x="646" y="-8.1" font-family="-adobe-utopia-medium-i-normal--0-0-0-0-p-0-iso10646-1" font-size="12.00">fstream</text>
</g>
<!-- Node3&#45;&gt;Node5 -->
<g id="edge4" class="edge"><title>Node3&#45;&gt;Node5</title>
<path fill="none" stroke="midnightblue" d="M584.408,-59.838C595.538,-51.3204 611.577,-39.0453 624.497,-29.1568"/>
<polygon fill="midnightblue" stroke="midnightblue" points="626.641,-31.9238 632.455,-23.0667 622.386,-26.3649 626.641,-31.9238"/>
</g>
<!-- Node3&#45;&gt;Node6 -->
<g id="edge5" class="edge"><title>Node3&#45;&gt;Node6</title>
<path fill="none" stroke="midnightblue" d="M598.175,-59.838C622.739,-50.5616 659.106,-36.8284 686.258,-26.5751"/>
<polygon fill="midnightblue" stroke="midnightblue" points="687.686,-29.7769 695.805,-22.9697 685.213,-23.2283 687.686,-29.7769"/>
</g>
<!-- Node7 -->
<g id="node7" class="node"><title>Node7</title>
<polygon fill="white" stroke="#bfbfbf" points="544.834,-0.5 544.834,-22.9 597.166,-22.9 597.166,-0.5 544.834,-0.5"/>
<text text-anchor="middle" x="571" y="-8.1" font-family="-adobe-utopia-medium-i-normal--0-0-0-0-p-0-iso10646-1" font-size="12.00">string.h</text>
</g>
<!-- Node3&#45;&gt;Node7 -->
<g id="edge6" class="edge"><title>Node3&#45;&gt;Node7</title>
<path fill="none" stroke="midnightblue" d="M571,-59.838C571,-52.5019 571,-42.3785 571,-33.3932"/>
<polygon fill="midnightblue" stroke="midnightblue" points="574.5,-33.2614 571,-23.2615 567.5,-33.2615 574.5,-33.2614"/>
</g>
<!-- Node8&#45;&gt;Node3 -->
<g id="edge8" class="edge"><title>Node8&#45;&gt;Node3</title>
<path fill="none" stroke="midnightblue" d="M377.835,-244.002C432.904,-235.483 533.42,-210.884 578,-142.2 587.538,-127.505 584.211,-107.31 579.43,-92.3685"/>
<polygon fill="midnightblue" stroke="midnightblue" points="582.571,-90.7656 575.855,-82.5717 575.995,-93.1656 582.571,-90.7656"/>
</g>
<!-- Node9 -->
<g id="node9" class="node"><title>Node9</title>
<g id="a_node9"><a xlink:href="SNPs_8h.html" target="_top" xlink:title="SNPs.h">
<polygon fill="white" stroke="black" points="314.164,-178.7 314.164,-201.1 365.836,-201.1 365.836,-178.7 314.164,-178.7"/>
<text text-anchor="middle" x="340" y="-186.3" font-family="-adobe-utopia-medium-i-normal--0-0-0-0-p-0-iso10646-1" font-size="12.00">SNPs.h</text>
</a>
</g>
</g>
<!-- Node8&#45;&gt;Node9 -->
<g id="edge9" class="edge"><title>Node8&#45;&gt;Node9</title>
<path fill="none" stroke="midnightblue" d="M340,-238.038C340,-230.702 340,-220.579 340,-211.593"/>
<polygon fill="midnightblue" stroke="midnightblue" points="343.5,-211.461 340,-201.461 336.5,-211.462 343.5,-211.461"/>
</g>
<!-- Node16 -->
<g id="node16" class="node"><title>Node16</title>
<polygon fill="white" stroke="#bfbfbf" points="27.6644,-119.3 27.6644,-141.7 58.3356,-141.7 58.3356,-119.3 27.6644,-119.3"/>
<text text-anchor="middle" x="43" y="-126.9" font-family="-adobe-utopia-medium-i-normal--0-0-0-0-p-0-iso10646-1" font-size="12.00">list</text>
</g>
<!-- Node8&#45;&gt;Node16 -->
<g id="edge27" class="edge"><title>Node8&#45;&gt;Node16</title>
<path fill="none" stroke="midnightblue" d="M302.083,-243.206C262.208,-236.925 198.259,-224.199 147,-201.6 115.446,-187.688 83.1297,-164.16 63.0713,-148.239"/>
<polygon fill="midnightblue" stroke="midnightblue" points="65.2415,-145.492 55.2632,-141.931 60.8426,-150.938 65.2415,-145.492"/>
</g>
<!-- Node17 -->
<g id="node17" class="node"><title>Node17</title>
<polygon fill="white" stroke="#bfbfbf" points="156.171,-178.7 156.171,-201.1 295.829,-201.1 295.829,-178.7 156.171,-178.7"/>
<text text-anchor="middle" x="226" y="-186.3" font-family="-adobe-utopia-medium-i-normal--0-0-0-0-p-0-iso10646-1" font-size="12.00">boost/dynamic_bitset.hpp</text>
</g>
<!-- Node8&#45;&gt;Node17 -->
<g id="edge26" class="edge"><title>Node8&#45;&gt;Node17</title>
<path fill="none" stroke="midnightblue" d="M319.619,-238.038C301.816,-229.074 275.749,-215.949 255.639,-205.823"/>
<polygon fill="midnightblue" stroke="midnightblue" points="257.095,-202.638 246.589,-201.267 253.947,-208.89 257.095,-202.638"/>
</g>
<!-- Node9&#45;&gt;Node3 -->
<g id="edge10" class="edge"><title>Node9&#45;&gt;Node3</title>
<path fill="none" stroke="midnightblue" d="M366.201,-186.804C417.951,-182.118 530.562,-169.033 557,-142.2 569.686,-129.324 572.469,-108.409 572.51,-92.7694"/>
<polygon fill="midnightblue" stroke="midnightblue" points="575.999,-92.3788 572.159,-82.5046 569.003,-92.6186 575.999,-92.3788"/>
</g>
<!-- Node9&#45;&gt;Node4 -->
<g id="edge22" class="edge"><title>Node9&#45;&gt;Node4</title>
<path fill="none" stroke="midnightblue" d="M314.078,-180.698C311.029,-179.815 307.953,-178.962 305,-178.2 230.221,-158.892 183.626,-202.201 135,-142.2 105.316,-105.572 155.167,-55.2772 186.159,-29.4712"/>
<polygon fill="midnightblue" stroke="midnightblue" points="188.376,-32.1796 193.945,-23.1668 183.971,-26.7392 188.376,-32.1796"/>
</g>
<!-- Node9&#45;&gt;Node5 -->
<g id="edge21" class="edge"><title>Node9&#45;&gt;Node5</title>
<path fill="none" stroke="midnightblue" d="M366.091,-188.944C411.896,-187.946 508.498,-180.967 578,-142.2 609.422,-124.674 616.861,-114.956 633,-82.8 640.711,-67.4369 643.881,-48.1128 645.168,-33.6463"/>
<polygon fill="midnightblue" stroke="midnightblue" points="648.688,-33.4615 645.848,-23.2544 641.703,-33.0048 648.688,-33.4615"/>
</g>
<!-- Node10 -->
<g id="node10" class="node"><title>Node10</title>
<g id="a_node10"><a xlink:href="NucleotideMap_8h.html" target="_top" xlink:title="NucleotideMap.h">
<polygon fill="white" stroke="black" points="448.179,-119.3 448.179,-141.7 547.821,-141.7 547.821,-119.3 448.179,-119.3"/>
<text text-anchor="middle" x="498" y="-126.9" font-family="-adobe-utopia-medium-i-normal--0-0-0-0-p-0-iso10646-1" font-size="12.00">NucleotideMap.h</text>
</a>
</g>
</g>
<!-- Node9&#45;&gt;Node10 -->
<g id="edge11" class="edge"><title>Node9&#45;&gt;Node10</title>
<path fill="none" stroke="midnightblue" d="M366.09,-179.422C391.762,-170.095 431.229,-155.757 460.308,-145.193"/>
<polygon fill="midnightblue" stroke="midnightblue" points="461.532,-148.472 469.736,-141.768 459.142,-141.893 461.532,-148.472"/>
</g>
<!-- Node11 -->
<g id="node11" class="node"><title>Node11</title>
<g id="a_node11"><a xlink:href="SNP_8h.html" target="_top" xlink:title="SNP.h">
<polygon fill="white" stroke="black" points="316.498,-119.3 316.498,-141.7 363.502,-141.7 363.502,-119.3 316.498,-119.3"/>
<text text-anchor="middle" x="340" y="-126.9" font-family="-adobe-utopia-medium-i-normal--0-0-0-0-p-0-iso10646-1" font-size="12.00">SNP.h</text>
</a>
</g>
</g>
<!-- Node9&#45;&gt;Node11 -->
<g id="edge13" class="edge"><title>Node9&#45;&gt;Node11</title>
<path fill="none" stroke="midnightblue" d="M340,-178.638C340,-171.302 340,-161.179 340,-152.193"/>
<polygon fill="midnightblue" stroke="midnightblue" points="343.5,-152.061 340,-142.061 336.5,-152.062 343.5,-152.061"/>
</g>
<!-- Node12 -->
<g id="node12" class="node"><title>Node12</title>
<polygon fill="white" stroke="#bfbfbf" points="184.334,-59.9 184.334,-82.3 227.666,-82.3 227.666,-59.9 184.334,-59.9"/>
<text text-anchor="middle" x="206" y="-67.5" font-family="-adobe-utopia-medium-i-normal--0-0-0-0-p-0-iso10646-1" font-size="12.00">string</text>
</g>
<!-- Node9&#45;&gt;Node12 -->
<g id="edge23" class="edge"><title>Node9&#45;&gt;Node12</title>
<path fill="none" stroke="midnightblue" d="M314.071,-180.727C311.023,-179.839 307.949,-178.977 305,-178.2 233.679,-159.404 189.151,-199.733 143,-142.2 127.363,-122.706 152.806,-101.522 175.88,-87.6029"/>
<polygon fill="midnightblue" stroke="midnightblue" points="177.907,-90.4751 184.841,-82.4647 174.425,-84.4025 177.907,-90.4751"/>
</g>
<!-- Node13 -->
<g id="node13" class="node"><title>Node13</title>
<g id="a_node13"><a xlink:href="SNPPositionMap_8h.html" target="_top" xlink:title="SNPPositionMap.h">
<polygon fill="white" stroke="black" points="151.83,-119.3 151.83,-141.7 260.17,-141.7 260.17,-119.3 151.83,-119.3"/>
<text text-anchor="middle" x="206" y="-126.9" font-family="-adobe-utopia-medium-i-normal--0-0-0-0-p-0-iso10646-1" font-size="12.00">SNPPositionMap.h</text>
</a>
</g>
</g>
<!-- Node9&#45;&gt;Node13 -->
<g id="edge17" class="edge"><title>Node9&#45;&gt;Node13</title>
<path fill="none" stroke="midnightblue" d="M316.043,-178.638C294.739,-169.512 263.365,-156.073 239.562,-145.877"/>
<polygon fill="midnightblue" stroke="midnightblue" points="240.771,-142.587 230.201,-141.867 238.015,-149.022 240.771,-142.587"/>
</g>
<!-- Node14 -->
<g id="node14" class="node"><title>Node14</title>
<polygon fill="white" stroke="#bfbfbf" points="257.669,-59.9 257.669,-82.3 294.331,-82.3 294.331,-59.9 257.669,-59.9"/>
<text text-anchor="middle" x="276" y="-67.5" font-family="-adobe-utopia-medium-i-normal--0-0-0-0-p-0-iso10646-1" font-size="12.00">map</text>
</g>
<!-- Node9&#45;&gt;Node14 -->
<g id="edge24" class="edge"><title>Node9&#45;&gt;Node14</title>
<path fill="none" stroke="midnightblue" d="M331.771,-178.54C324.681,-169.329 314.442,-155.327 307,-142.2 297.705,-125.806 289.207,-106.096 283.468,-91.7573"/>
<polygon fill="midnightblue" stroke="midnightblue" points="286.707,-90.4286 279.806,-82.3897 280.188,-92.9776 286.707,-90.4286"/>
</g>
<!-- Node15 -->
<g id="node15" class="node"><title>Node15</title>
<polygon fill="white" stroke="#bfbfbf" points="381.502,-119.3 381.502,-141.7 430.498,-141.7 430.498,-119.3 381.502,-119.3"/>
<text text-anchor="middle" x="406" y="-126.9" font-family="-adobe-utopia-medium-i-normal--0-0-0-0-p-0-iso10646-1" font-size="12.00">math.h</text>
</g>
<!-- Node9&#45;&gt;Node15 -->
<g id="edge20" class="edge"><title>Node9&#45;&gt;Node15</title>
<path fill="none" stroke="midnightblue" d="M351.799,-178.638C361.347,-170.335 375.001,-158.46 386.215,-148.707"/>
<polygon fill="midnightblue" stroke="midnightblue" points="388.607,-151.265 393.856,-142.061 384.014,-145.983 388.607,-151.265"/>
</g>
<!-- Node9&#45;&gt;Node16 -->
<g id="edge25" class="edge"><title>Node9&#45;&gt;Node16</title>
<path fill="none" stroke="midnightblue" d="M314.118,-180.535C311.062,-179.682 307.973,-178.88 305,-178.2 202.857,-154.823 173.439,-168.467 72,-142.2 70.7434,-141.875 69.4654,-141.515 68.1812,-141.131"/>
<polygon fill="midnightblue" stroke="midnightblue" points="69.0641,-137.735 58.4699,-137.858 66.8284,-144.369 69.0641,-137.735"/>
</g>
<!-- Node10&#45;&gt;Node3 -->
<g id="edge12" class="edge"><title>Node10&#45;&gt;Node3</title>
<path fill="none" stroke="midnightblue" d="M511.051,-119.238C521.714,-110.854 537.006,-98.8293 549.477,-89.0235"/>
<polygon fill="midnightblue" stroke="midnightblue" points="551.871,-91.5939 557.568,-82.6615 547.544,-86.0912 551.871,-91.5939"/>
</g>
<!-- Node11&#45;&gt;Node3 -->
<g id="edge14" class="edge"><title>Node11&#45;&gt;Node3</title>
<path fill="none" stroke="midnightblue" d="M363.722,-121.551C366.831,-120.585 369.984,-119.643 373,-118.8 419.623,-105.767 473.082,-93.3024 512.691,-84.5339"/>
<polygon fill="midnightblue" stroke="midnightblue" points="513.692,-87.8974 522.706,-82.3301 512.188,-81.061 513.692,-87.8974"/>
</g>
<!-- Node11&#45;&gt;Node4 -->
<g id="edge16" class="edge"><title>Node11&#45;&gt;Node4</title>
<path fill="none" stroke="midnightblue" d="M336.851,-119.198C331.84,-104.305 320.765,-76.6616 303,-59.4 285.523,-42.4182 260.663,-30.4994 240.759,-22.9546"/>
<polygon fill="midnightblue" stroke="midnightblue" points="241.748,-19.5911 231.153,-19.5018 239.38,-26.1784 241.748,-19.5911"/>
</g>
<!-- Node11&#45;&gt;Node12 -->
<g id="edge15" class="edge"><title>Node11&#45;&gt;Node12</title>
<path fill="none" stroke="midnightblue" d="M316.352,-119.37C294.428,-109.979 261.651,-95.9385 237.512,-85.5986"/>
<polygon fill="midnightblue" stroke="midnightblue" points="238.648,-82.2777 228.078,-81.5573 235.892,-88.7122 238.648,-82.2777"/>
</g>
<!-- Node13&#45;&gt;Node12 -->
<g id="edge19" class="edge"><title>Node13&#45;&gt;Node12</title>
<path fill="none" stroke="midnightblue" d="M206,-119.238C206,-111.902 206,-101.779 206,-92.7932"/>
<polygon fill="midnightblue" stroke="midnightblue" points="209.5,-92.6614 206,-82.6615 202.5,-92.6615 209.5,-92.6614"/>
</g>
<!-- Node13&#45;&gt;Node14 -->
<g id="edge18" class="edge"><title>Node13&#45;&gt;Node14</title>
<path fill="none" stroke="midnightblue" d="M218.515,-119.238C228.739,-110.854 243.403,-98.8293 255.362,-89.0235"/>
<polygon fill="midnightblue" stroke="midnightblue" points="257.607,-91.7087 263.12,-82.6615 253.168,-86.2959 257.607,-91.7087"/>
</g>
</g>
</svg>
