<?xml version="1.0" encoding="UTF-8" standalone="no"?>
<!DOCTYPE svg PUBLIC "-//W3C//DTD SVG 1.1//EN"
 "http://www.w3.org/Graphics/SVG/1.1/DTD/svg11.dtd">
<!-- Generated by graphviz version 2.38.0 (20140413.2041)
 -->
<!-- Title: MatchesBuilder::matchMarkerSet Pages: 1 -->
<svg width="789pt" height="46pt"
 viewBox="0.00 0.00 788.52 45.80" xmlns="http://www.w3.org/2000/svg" xmlns:xlink="http://www.w3.org/1999/xlink">
<g id="graph0" class="graph" transform="scale(1 1) rotate(0) translate(4 41.8)">
<title>MatchesBuilder::matchMarkerSet</title>
<polygon fill="white" stroke="none" points="-4,4 -4,-41.8 784.522,-41.8 784.522,4 -4,4"/>
<!-- Node1 -->
<g id="node1" class="node"><title>Node1</title>
<polygon fill="#bfbfbf" stroke="black" points="1.42109e-14,-7.7 1.42109e-14,-30.1 179.278,-30.1 179.278,-7.7 1.42109e-14,-7.7"/>
<text text-anchor="middle" x="89.639" y="-15.3" font-family="-adobe-utopia-medium-i-normal--0-0-0-0-p-0-iso10646-1" font-size="12.00">MatchesBuilder::matchMarkerSet</text>
</g>
<!-- Node2 -->
<g id="node2" class="node"><title>Node2</title>
<g id="a_node2"><a xlink:href="classMatchesBuilder.html#ae8d8a0ff7f0726406e83d4fa55a96bf4" target="_top" xlink:title="MatchesBuilder::matchAll\lMarkers">
<polygon fill="white" stroke="black" points="215.278,-0.5 215.278,-37.3 359.246,-37.3 359.246,-0.5 215.278,-0.5"/>
<text text-anchor="start" x="223.278" y="-22.5" font-family="-adobe-utopia-medium-i-normal--0-0-0-0-p-0-iso10646-1" font-size="12.00">MatchesBuilder::matchAll</text>
<text text-anchor="middle" x="287.262" y="-8.1" font-family="-adobe-utopia-medium-i-normal--0-0-0-0-p-0-iso10646-1" font-size="12.00">Markers</text>
</a>
</g>
</g>
<!-- Node1&#45;&gt;Node2 -->
<g id="edge1" class="edge"><title>Node1&#45;&gt;Node2</title>
<path fill="none" stroke="midnightblue" d="M189.471,-18.9C198.151,-18.9 206.82,-18.9 215.205,-18.9"/>
<polygon fill="midnightblue" stroke="midnightblue" points="189.293,-15.4001 179.293,-18.9 189.293,-22.4001 189.293,-15.4001"/>
</g>
<!-- Node3 -->
<g id="node3" class="node"><title>Node3</title>
<g id="a_node3"><a xlink:href="classMatchesBuilder.html#a31faf645700f38ac0d7d164b57cfebd1" target="_top" xlink:title="MatchesBuilder::buildMatches">
<polygon fill="white" stroke="black" points="395.246,-7.7 395.246,-30.1 559.877,-30.1 559.877,-7.7 395.246,-7.7"/>
<text text-anchor="middle" x="477.561" y="-15.3" font-family="-adobe-utopia-medium-i-normal--0-0-0-0-p-0-iso10646-1" font-size="12.00">MatchesBuilder::buildMatches</text>
</a>
</g>
</g>
<!-- Node2&#45;&gt;Node3 -->
<g id="edge2" class="edge"><title>Node2&#45;&gt;Node3</title>
<path fill="none" stroke="midnightblue" d="M369.672,-18.9C378.124,-18.9 386.716,-18.9 395.168,-18.9"/>
<polygon fill="midnightblue" stroke="midnightblue" points="369.45,-15.4001 359.45,-18.9 369.45,-22.4001 369.45,-15.4001"/>
</g>
<!-- Node4 -->
<g id="node4" class="node"><title>Node4</title>
<g id="a_node4"><a xlink:href="classGERMLINE.html#a7912aa3108f42f42e06c615b460d0565" target="_top" xlink:title="GERMLINE::mine">
<polygon fill="white" stroke="black" points="595.877,-7.7 595.877,-30.1 704.525,-30.1 704.525,-7.7 595.877,-7.7"/>
<text text-anchor="middle" x="650.201" y="-15.3" font-family="-adobe-utopia-medium-i-normal--0-0-0-0-p-0-iso10646-1" font-size="12.00">GERMLINE::mine</text>
</a>
</g>
</g>
<!-- Node3&#45;&gt;Node4 -->
<g id="edge3" class="edge"><title>Node3&#45;&gt;Node4</title>
<path fill="none" stroke="midnightblue" d="M569.886,-18.9C578.732,-18.9 587.49,-18.9 595.78,-18.9"/>
<polygon fill="midnightblue" stroke="midnightblue" points="569.883,-15.4001 559.883,-18.9 569.883,-22.4001 569.883,-15.4001"/>
</g>
<!-- Node5 -->
<g id="node5" class="node"><title>Node5</title>
<g id="a_node5"><a xlink:href="GERMLINE__0001_8cpp.html#a0ddf1224851353fc92bfbff6f499fa97" target="_top" xlink:title="main">
<polygon fill="white" stroke="black" points="740.525,-7.7 740.525,-30.1 780.522,-30.1 780.522,-7.7 740.525,-7.7"/>
<text text-anchor="middle" x="760.523" y="-15.3" font-family="-adobe-utopia-medium-i-normal--0-0-0-0-p-0-iso10646-1" font-size="12.00">main</text>
</a>
</g>
</g>
<!-- Node4&#45;&gt;Node5 -->
<g id="edge4" class="edge"><title>Node4&#45;&gt;Node5</title>
<path fill="none" stroke="midnightblue" d="M714.878,-18.9C724.143,-18.9 733.024,-18.9 740.391,-18.9"/>
<polygon fill="midnightblue" stroke="midnightblue" points="714.728,-15.4001 704.728,-18.9 714.727,-22.4001 714.728,-15.4001"/>
</g>
</g>
</svg>
