<?xml version="1.0" encoding="UTF-8" standalone="no"?>
<!DOCTYPE svg PUBLIC "-//W3C//DTD SVG 1.1//EN"
 "http://www.w3.org/Graphics/SVG/1.1/DTD/svg11.dtd">
<!-- Generated by graphviz version 2.38.0 (20140413.2041)
 -->
<!-- Title: SNPs::print Pages: 1 -->
<svg width="301pt" height="31pt"
 viewBox="0.00 0.00 300.65 31.40" xmlns="http://www.w3.org/2000/svg" xmlns:xlink="http://www.w3.org/1999/xlink">
<g id="graph0" class="graph" transform="scale(1 1) rotate(0) translate(4 27.4)">
<title>SNPs::print</title>
<polygon fill="white" stroke="none" points="-4,4 -4,-27.4 296.65,-27.4 296.65,4 -4,4"/>
<!-- Node1 -->
<g id="node1" class="node"><title>Node1</title>
<polygon fill="#bfbfbf" stroke="black" points="-2.13163e-14,-0.5 -2.13163e-14,-22.9 72.0052,-22.9 72.0052,-0.5 -2.13163e-14,-0.5"/>
<text text-anchor="middle" x="36.0026" y="-8.1" font-family="-adobe-utopia-medium-i-normal--0-0-0-0-p-0-iso10646-1" font-size="12.00">SNPs::print</text>
</g>
<!-- Node2 -->
<g id="node2" class="node"><title>Node2</title>
<g id="a_node2"><a xlink:href="classGERMLINE.html#a7912aa3108f42f42e06c615b460d0565" target="_top" xlink:title="GERMLINE::mine">
<polygon fill="white" stroke="black" points="108.005,-0.5 108.005,-22.9 216.654,-22.9 216.654,-0.5 108.005,-0.5"/>
<text text-anchor="middle" x="162.329" y="-8.1" font-family="-adobe-utopia-medium-i-normal--0-0-0-0-p-0-iso10646-1" font-size="12.00">GERMLINE::mine</text>
</a>
</g>
</g>
<!-- Node1&#45;&gt;Node2 -->
<g id="edge1" class="edge"><title>Node1&#45;&gt;Node2</title>
<path fill="none" stroke="midnightblue" d="M82.4665,-11.7C90.7119,-11.7 99.3806,-11.7 107.831,-11.7"/>
<polygon fill="midnightblue" stroke="midnightblue" points="82.2971,-8.2001 72.2971,-11.7 82.2971,-15.2001 82.2971,-8.2001"/>
</g>
<!-- Node3 -->
<g id="node3" class="node"><title>Node3</title>
<g id="a_node3"><a xlink:href="GERMLINE__0001_8cpp.html#a0ddf1224851353fc92bfbff6f499fa97" target="_top" xlink:title="main">
<polygon fill="white" stroke="black" points="252.654,-0.5 252.654,-22.9 292.65,-22.9 292.65,-0.5 252.654,-0.5"/>
<text text-anchor="middle" x="272.652" y="-8.1" font-family="-adobe-utopia-medium-i-normal--0-0-0-0-p-0-iso10646-1" font-size="12.00">main</text>
</a>
</g>
</g>
<!-- Node2&#45;&gt;Node3 -->
<g id="edge2" class="edge"><title>Node2&#45;&gt;Node3</title>
<path fill="none" stroke="midnightblue" d="M227.006,-11.7C236.271,-11.7 245.153,-11.7 252.52,-11.7"/>
<polygon fill="midnightblue" stroke="midnightblue" points="226.856,-8.2001 216.856,-11.7 226.856,-15.2001 226.856,-8.2001"/>
</g>
</g>
</svg>
