<?xml version="1.0" encoding="UTF-8" standalone="no"?>
<!DOCTYPE svg PUBLIC "-//W3C//DTD SVG 1.1//EN"
 "http://www.w3.org/Graphics/SVG/1.1/DTD/svg11.dtd">
<!-- Generated by graphviz version 2.38.0 (20140413.2041)
 -->
<!-- Title: PolymorphicIndividualsExtractor Pages: 1 -->
<svg width="298pt" height="91pt"
 viewBox="0.00 0.00 297.63 90.80" xmlns="http://www.w3.org/2000/svg" xmlns:xlink="http://www.w3.org/1999/xlink">
<g id="graph0" class="graph" transform="scale(1 1) rotate(0) translate(4 86.8)">
<title>PolymorphicIndividualsExtractor</title>
<polygon fill="white" stroke="none" points="-4,4 -4,-86.8 293.633,-86.8 293.633,4 -4,4"/>
<!-- Node1 -->
<g id="node1" class="node"><title>Node1</title>
<polygon fill="#bfbfbf" stroke="black" points="55.6664,-59.9 55.6664,-82.3 232.3,-82.3 232.3,-59.9 55.6664,-59.9"/>
<text text-anchor="middle" x="143.983" y="-67.5" font-family="-adobe-utopia-medium-i-normal--0-0-0-0-p-0-iso10646-1" font-size="12.00">PolymorphicIndividualsExtractor</text>
</g>
<!-- Node2 -->
<g id="node2" class="node"><title>Node2</title>
<g id="a_node2"><a xlink:href="classHMIndividualsExtractor.html" target="_top" xlink:title="HMIndividualsExtractor">
<polygon fill="white" stroke="black" points="1.42109e-14,-0.5 1.42109e-14,-22.9 133.966,-22.9 133.966,-0.5 1.42109e-14,-0.5"/>
<text text-anchor="middle" x="66.983" y="-8.1" font-family="-adobe-utopia-medium-i-normal--0-0-0-0-p-0-iso10646-1" font-size="12.00">HMIndividualsExtractor</text>
</a>
</g>
</g>
<!-- Node1&#45;&gt;Node2 -->
<g id="edge1" class="edge"><title>Node1&#45;&gt;Node2</title>
<path fill="none" stroke="midnightblue" d="M122.069,-53.7644C108.831,-43.8955 92.3567,-31.6149 80.8895,-23.0667"/>
<polygon fill="midnightblue" stroke="midnightblue" points="120.108,-56.6675 130.217,-59.838 124.291,-51.0552 120.108,-56.6675"/>
</g>
<!-- Node3 -->
<g id="node3" class="node"><title>Node3</title>
<g id="a_node3"><a xlink:href="classPEDIndividualsExtractor.html" target="_top" xlink:title="PEDIndividualsExtractor">
<polygon fill="white" stroke="black" points="152.333,-0.5 152.333,-22.9 289.633,-22.9 289.633,-0.5 152.333,-0.5"/>
<text text-anchor="middle" x="220.983" y="-8.1" font-family="-adobe-utopia-medium-i-normal--0-0-0-0-p-0-iso10646-1" font-size="12.00">PEDIndividualsExtractor</text>
</a>
</g>
</g>
<!-- Node1&#45;&gt;Node3 -->
<g id="edge2" class="edge"><title>Node1&#45;&gt;Node3</title>
<path fill="none" stroke="midnightblue" d="M165.897,-53.7644C179.135,-43.8955 195.609,-31.6149 207.077,-23.0667"/>
<polygon fill="midnightblue" stroke="midnightblue" points="163.675,-51.0552 157.749,-59.838 167.858,-56.6675 163.675,-51.0552"/>
</g>
</g>
</svg>
