<?xml version="1.0" encoding="UTF-8" standalone="no"?>
<!DOCTYPE svg PUBLIC "-//W3C//DTD SVG 1.1//EN"
 "http://www.w3.org/Graphics/SVG/1.1/DTD/svg11.dtd">
<!-- Generated by graphviz version 2.38.0 (20140413.2041)
 -->
<!-- Title: Match::physicalEnd Pages: 1 -->
<svg width="257pt" height="72pt"
 viewBox="0.00 0.00 256.66 72.40" xmlns="http://www.w3.org/2000/svg" xmlns:xlink="http://www.w3.org/1999/xlink">
<g id="graph0" class="graph" transform="scale(1 1) rotate(0) translate(4 68.4)">
<title>Match::physicalEnd</title>
<polygon fill="white" stroke="none" points="-4,4 -4,-68.4 252.656,-68.4 252.656,4 -4,4"/>
<!-- Node1 -->
<g id="node1" class="node"><title>Node1</title>
<polygon fill="#bfbfbf" stroke="black" points="7.10543e-15,-20.5 7.10543e-15,-42.9 112.646,-42.9 112.646,-20.5 7.10543e-15,-20.5"/>
<text text-anchor="middle" x="56.3228" y="-28.1" font-family="-adobe-utopia-medium-i-normal--0-0-0-0-p-0-iso10646-1" font-size="12.00">Match::physicalEnd</text>
</g>
<!-- Node2 -->
<g id="node2" class="node"><title>Node2</title>
<g id="a_node2"><a xlink:href="classSNP.html#a91d3e6dc0c3a15dc0c1b5deb7c5b7cfb" target="_top" xlink:title="SNP::getPhysPos">
<polygon fill="white" stroke="black" points="148.646,-41.5 148.646,-63.9 248.656,-63.9 248.656,-41.5 148.646,-41.5"/>
<text text-anchor="middle" x="198.651" y="-49.1" font-family="-adobe-utopia-medium-i-normal--0-0-0-0-p-0-iso10646-1" font-size="12.00">SNP::getPhysPos</text>
</a>
</g>
</g>
<!-- Node1&#45;&gt;Node2 -->
<g id="edge1" class="edge"><title>Node1&#45;&gt;Node2</title>
<path fill="none" stroke="midnightblue" d="M112.784,-39.9998C121.264,-41.2687 130.044,-42.5826 138.597,-43.8627"/>
<polygon fill="midnightblue" stroke="midnightblue" points="138.095,-47.3264 148.503,-45.3451 139.131,-40.4035 138.095,-47.3264"/>
</g>
<!-- Node3 -->
<g id="node3" class="node"><title>Node3</title>
<g id="a_node3"><a xlink:href="classSNPs.html#ae8dc84adaeb8544c18c2743bc58b1615" target="_top" xlink:title="SNPs::getSNP">
<polygon fill="white" stroke="black" points="155.648,-0.5 155.648,-22.9 241.654,-22.9 241.654,-0.5 155.648,-0.5"/>
<text text-anchor="middle" x="198.651" y="-8.1" font-family="-adobe-utopia-medium-i-normal--0-0-0-0-p-0-iso10646-1" font-size="12.00">SNPs::getSNP</text>
</a>
</g>
</g>
<!-- Node1&#45;&gt;Node3 -->
<g id="edge2" class="edge"><title>Node1&#45;&gt;Node3</title>
<path fill="none" stroke="midnightblue" d="M112.784,-23.7955C123.583,-22.2565 134.867,-20.6481 145.552,-19.1252"/>
<polygon fill="midnightblue" stroke="midnightblue" points="146.172,-22.5725 155.578,-17.6964 145.184,-15.6425 146.172,-22.5725"/>
</g>
</g>
</svg>
