<?xml version="1.0" encoding="UTF-8" standalone="no"?>
<!DOCTYPE svg PUBLIC "-//W3C//DTD SVG 1.1//EN"
 "http://www.w3.org/Graphics/SVG/1.1/DTD/svg11.dtd">
<!-- Generated by graphviz version 2.38.0 (20140413.2041)
 -->
<!-- Title: SNP::setVariant Pages: 1 -->
<svg width="448pt" height="46pt"
 viewBox="0.00 0.00 447.92 45.80" xmlns="http://www.w3.org/2000/svg" xmlns:xlink="http://www.w3.org/1999/xlink">
<g id="graph0" class="graph" transform="scale(1 1) rotate(0) translate(4 41.8)">
<title>SNP::setVariant</title>
<polygon fill="white" stroke="none" points="-4,4 -4,-41.8 443.924,-41.8 443.924,4 -4,4"/>
<!-- Node1 -->
<g id="node1" class="node"><title>Node1</title>
<polygon fill="#bfbfbf" stroke="black" points="1.42109e-14,-7.7 1.42109e-14,-30.1 93.9832,-30.1 93.9832,-7.7 1.42109e-14,-7.7"/>
<text text-anchor="middle" x="46.9916" y="-15.3" font-family="-adobe-utopia-medium-i-normal--0-0-0-0-p-0-iso10646-1" font-size="12.00">SNP::setVariant</text>
</g>
<!-- Node2 -->
<g id="node2" class="node"><title>Node2</title>
<g id="a_node2"><a xlink:href="classSNPs.html#a5ebf04c1e5d71710bd68af7a556864f9" target="_top" xlink:title="SNPs::processLegendFile">
<polygon fill="white" stroke="black" points="129.983,-7.7 129.983,-30.1 269.958,-30.1 269.958,-7.7 129.983,-7.7"/>
<text text-anchor="middle" x="199.97" y="-15.3" font-family="-adobe-utopia-medium-i-normal--0-0-0-0-p-0-iso10646-1" font-size="12.00">SNPs::processLegendFile</text>
</a>
</g>
</g>
<!-- Node1&#45;&gt;Node2 -->
<g id="edge1" class="edge"><title>Node1&#45;&gt;Node2</title>
<path fill="none" stroke="midnightblue" d="M104.116,-18.9C112.482,-18.9 121.188,-18.9 129.784,-18.9"/>
<polygon fill="midnightblue" stroke="midnightblue" points="104.111,-15.4001 94.1106,-18.9 104.111,-22.4001 104.111,-15.4001"/>
</g>
<!-- Node3 -->
<g id="node3" class="node"><title>Node3</title>
<g id="a_node3"><a xlink:href="classHMIndividualsExtractor.html#af7aaa5ed222fd00cc2c36e69a01a3bb3" target="_top" xlink:title="HMIndividualsExtractor\l::loadInput">
<polygon fill="white" stroke="black" points="305.958,-0.5 305.958,-37.3 439.924,-37.3 439.924,-0.5 305.958,-0.5"/>
<text text-anchor="start" x="313.958" y="-22.5" font-family="-adobe-utopia-medium-i-normal--0-0-0-0-p-0-iso10646-1" font-size="12.00">HMIndividualsExtractor</text>
<text text-anchor="middle" x="372.941" y="-8.1" font-family="-adobe-utopia-medium-i-normal--0-0-0-0-p-0-iso10646-1" font-size="12.00">::loadInput</text>
</a>
</g>
</g>
<!-- Node2&#45;&gt;Node3 -->
<g id="edge2" class="edge"><title>Node2&#45;&gt;Node3</title>
<path fill="none" stroke="midnightblue" d="M280.03,-18.9C288.611,-18.9 297.279,-18.9 305.685,-18.9"/>
<polygon fill="midnightblue" stroke="midnightblue" points="280.018,-15.4001 270.018,-18.9 280.018,-22.4001 280.018,-15.4001"/>
</g>
</g>
</svg>
