<?xml version="1.0" encoding="UTF-8" standalone="no"?>
<!DOCTYPE svg PUBLIC "-//W3C//DTD SVG 1.1//EN"
 "http://www.w3.org/Graphics/SVG/1.1/DTD/svg11.dtd">
<!-- Generated by graphviz version 2.38.0 (20140413.2041)
 -->
<!-- Title: Match::scanRight Pages: 1 -->
<svg width="221pt" height="31pt"
 viewBox="0.00 0.00 221.31 31.40" xmlns="http://www.w3.org/2000/svg" xmlns:xlink="http://www.w3.org/1999/xlink">
<g id="graph0" class="graph" transform="scale(1 1) rotate(0) translate(4 27.4)">
<title>Match::scanRight</title>
<polygon fill="white" stroke="none" points="-4,4 -4,-27.4 217.307,-27.4 217.307,4 -4,4"/>
<!-- Node1 -->
<g id="node1" class="node"><title>Node1</title>
<polygon fill="#bfbfbf" stroke="black" points="1.42109e-14,-0.5 1.42109e-14,-22.9 101.318,-22.9 101.318,-0.5 1.42109e-14,-0.5"/>
<text text-anchor="middle" x="50.6588" y="-8.1" font-family="-adobe-utopia-medium-i-normal--0-0-0-0-p-0-iso10646-1" font-size="12.00">Match::scanRight</text>
</g>
<!-- Node2 -->
<g id="node2" class="node"><title>Node2</title>
<g id="a_node2"><a xlink:href="classMatch.html#a989ae28b68842fc096ee6edb8c1595fd" target="_top" xlink:title="Match::print">
<polygon fill="white" stroke="black" points="137.318,-0.5 137.318,-22.9 213.307,-22.9 213.307,-0.5 137.318,-0.5"/>
<text text-anchor="middle" x="175.312" y="-8.1" font-family="-adobe-utopia-medium-i-normal--0-0-0-0-p-0-iso10646-1" font-size="12.00">Match::print</text>
</a>
</g>
</g>
<!-- Node1&#45;&gt;Node2 -->
<g id="edge1" class="edge"><title>Node1&#45;&gt;Node2</title>
<path fill="none" stroke="midnightblue" d="M111.719,-11.7C120.435,-11.7 129.184,-11.7 137.263,-11.7"/>
<polygon fill="midnightblue" stroke="midnightblue" points="111.547,-8.2001 101.547,-11.7 111.547,-15.2001 111.547,-8.2001"/>
</g>
</g>
</svg>
