<?xml version="1.0" encoding="UTF-8" standalone="no"?>
<!DOCTYPE svg PUBLIC "-//W3C//DTD SVG 1.1//EN"
 "http://www.w3.org/Graphics/SVG/1.1/DTD/svg11.dtd">
<!-- Generated by graphviz version 2.38.0 (20140413.2041)
 -->
<!-- Title: Match::print Pages: 1 -->
<svg width="450pt" height="523pt"
 viewBox="0.00 0.00 449.92 523.40" xmlns="http://www.w3.org/2000/svg" xmlns:xlink="http://www.w3.org/1999/xlink">
<g id="graph0" class="graph" transform="scale(1 1) rotate(0) translate(4 519.4)">
<title>Match::print</title>
<polygon fill="white" stroke="none" points="-4,4 -4,-519.4 445.919,-519.4 445.919,4 -4,4"/>
<!-- Node1 -->
<g id="node1" class="node"><title>Node1</title>
<polygon fill="#bfbfbf" stroke="black" points="-7.10543e-15,-246.5 -7.10543e-15,-268.9 75.9892,-268.9 75.9892,-246.5 -7.10543e-15,-246.5"/>
<text text-anchor="middle" x="37.9946" y="-254.1" font-family="-adobe-utopia-medium-i-normal--0-0-0-0-p-0-iso10646-1" font-size="12.00">Match::print</text>
</g>
<!-- Node2 -->
<g id="node2" class="node"><title>Node2</title>
<g id="a_node2"><a xlink:href="classMatch.html#ad096e35ab1b57725ca15372b1c0eebe6" target="_top" xlink:title="Match::diff">
<polygon fill="white" stroke="black" points="147.312,-451.5 147.312,-473.9 217.962,-473.9 217.962,-451.5 147.312,-451.5"/>
<text text-anchor="middle" x="182.637" y="-459.1" font-family="-adobe-utopia-medium-i-normal--0-0-0-0-p-0-iso10646-1" font-size="12.00">Match::diff</text>
</a>
</g>
</g>
<!-- Node1&#45;&gt;Node2 -->
<g id="edge1" class="edge"><title>Node1&#45;&gt;Node2</title>
<path fill="none" stroke="midnightblue" d="M40.0705,-269.212C43.7214,-301.58 58.5683,-394.185 111.989,-442.7 119.034,-449.097 127.996,-453.46 137.127,-456.433"/>
<polygon fill="midnightblue" stroke="midnightblue" points="136.45,-459.876 147.019,-459.143 138.299,-453.125 136.45,-459.876"/>
</g>
<!-- Node6 -->
<g id="node6" class="node"><title>Node6</title>
<g id="a_node6"><a xlink:href="classSNP.html#a1cf02a7f908f653fb2645935b0bdcc3d" target="_top" xlink:title="SNP::getChr">
<polygon fill="white" stroke="black" points="143.97,-328.5 143.97,-350.9 221.304,-350.9 221.304,-328.5 143.97,-328.5"/>
<text text-anchor="middle" x="182.637" y="-336.1" font-family="-adobe-utopia-medium-i-normal--0-0-0-0-p-0-iso10646-1" font-size="12.00">SNP::getChr</text>
</a>
</g>
</g>
<!-- Node1&#45;&gt;Node6 -->
<g id="edge5" class="edge"><title>Node1&#45;&gt;Node6</title>
<path fill="none" stroke="midnightblue" d="M49.2721,-268.983C62.4955,-282.848 86.7812,-306.193 111.989,-319.7 118.85,-323.376 126.464,-326.444 134.065,-328.982"/>
<polygon fill="midnightblue" stroke="midnightblue" points="133.041,-332.329 143.628,-331.92 135.097,-325.638 133.041,-332.329"/>
</g>
<!-- Node7 -->
<g id="node7" class="node"><title>Node7</title>
<g id="a_node7"><a xlink:href="classSNPs.html#ade6928b76d711b107ac9fa36b8b95794" target="_top" xlink:title="SNPs::getDistance">
<polygon fill="white" stroke="black" points="129.646,-287.5 129.646,-309.9 235.628,-309.9 235.628,-287.5 129.646,-287.5"/>
<text text-anchor="middle" x="182.637" y="-295.1" font-family="-adobe-utopia-medium-i-normal--0-0-0-0-p-0-iso10646-1" font-size="12.00">SNPs::getDistance</text>
</a>
</g>
</g>
<!-- Node1&#45;&gt;Node7 -->
<g id="edge6" class="edge"><title>Node1&#45;&gt;Node7</title>
<path fill="none" stroke="midnightblue" d="M76.1278,-268.387C87.6229,-271.694 100.33,-275.349 111.989,-278.7 118.65,-280.615 125.67,-282.631 132.586,-284.618"/>
<polygon fill="midnightblue" stroke="midnightblue" points="132.012,-288.094 142.59,-287.491 133.944,-281.366 132.012,-288.094"/>
</g>
<!-- Node8 -->
<g id="node8" class="node"><title>Node8</title>
<g id="a_node8"><a xlink:href="classIndividual.html#aaec5e79df1d9dadee3a03e01bde156fc" target="_top" xlink:title="Individual::getID">
<polygon fill="white" stroke="black" points="132.98,-246.5 132.98,-268.9 232.294,-268.9 232.294,-246.5 132.98,-246.5"/>
<text text-anchor="middle" x="182.637" y="-254.1" font-family="-adobe-utopia-medium-i-normal--0-0-0-0-p-0-iso10646-1" font-size="12.00">Individual::getID</text>
</a>
</g>
</g>
<!-- Node1&#45;&gt;Node8 -->
<g id="edge7" class="edge"><title>Node1&#45;&gt;Node8</title>
<path fill="none" stroke="midnightblue" d="M76.0998,-257.7C90.3199,-257.7 106.918,-257.7 122.685,-257.7"/>
<polygon fill="midnightblue" stroke="midnightblue" points="122.892,-261.2 132.892,-257.7 122.892,-254.2 122.892,-261.2"/>
</g>
<!-- Node9 -->
<g id="node9" class="node"><title>Node9</title>
<g id="a_node9"><a xlink:href="classSNP.html#a3891a5225af3d8916c14557accb17e6c" target="_top" xlink:title="SNP::getMarkerNumber">
<polygon fill="white" stroke="black" points="115.655,-205.5 115.655,-227.9 249.619,-227.9 249.619,-205.5 115.655,-205.5"/>
<text text-anchor="middle" x="182.637" y="-213.1" font-family="-adobe-utopia-medium-i-normal--0-0-0-0-p-0-iso10646-1" font-size="12.00">SNP::getMarkerNumber</text>
</a>
</g>
</g>
<!-- Node1&#45;&gt;Node9 -->
<g id="edge8" class="edge"><title>Node1&#45;&gt;Node9</title>
<path fill="none" stroke="midnightblue" d="M76.1278,-247.013C87.6229,-243.706 100.33,-240.051 111.989,-236.7 118.65,-234.785 125.67,-232.769 132.586,-230.782"/>
<polygon fill="midnightblue" stroke="midnightblue" points="133.944,-234.034 142.59,-227.909 132.012,-227.306 133.944,-234.034"/>
</g>
<!-- Node10 -->
<g id="node10" class="node"><title>Node10</title>
<g id="a_node10"><a xlink:href="classIndividual.html#af200ed365c5989bf913841e870d968b2" target="_top" xlink:title="Individual::getNumericID">
<polygon fill="white" stroke="black" points="111.989,-164.5 111.989,-186.9 253.285,-186.9 253.285,-164.5 111.989,-164.5"/>
<text text-anchor="middle" x="182.637" y="-172.1" font-family="-adobe-utopia-medium-i-normal--0-0-0-0-p-0-iso10646-1" font-size="12.00">Individual::getNumericID</text>
</a>
</g>
</g>
<!-- Node1&#45;&gt;Node10 -->
<g id="edge9" class="edge"><title>Node1&#45;&gt;Node10</title>
<path fill="none" stroke="midnightblue" d="M49.2721,-246.417C62.4955,-232.552 86.7812,-209.207 111.989,-195.7 115.506,-193.815 119.221,-192.091 123.031,-190.515"/>
<polygon fill="midnightblue" stroke="midnightblue" points="124.51,-193.699 132.637,-186.901 122.045,-187.147 124.51,-193.699"/>
</g>
<!-- Node11 -->
<g id="node11" class="node"><title>Node11</title>
<g id="a_node11"><a xlink:href="classSNP.html#a91d3e6dc0c3a15dc0c1b5deb7c5b7cfb" target="_top" xlink:title="SNP::getPhysPos">
<polygon fill="white" stroke="black" points="132.632,-123.5 132.632,-145.9 232.642,-145.9 232.642,-123.5 132.632,-123.5"/>
<text text-anchor="middle" x="182.637" y="-131.1" font-family="-adobe-utopia-medium-i-normal--0-0-0-0-p-0-iso10646-1" font-size="12.00">SNP::getPhysPos</text>
</a>
</g>
</g>
<!-- Node1&#45;&gt;Node11 -->
<g id="edge10" class="edge"><title>Node1&#45;&gt;Node11</title>
<path fill="none" stroke="midnightblue" d="M43.9644,-246.171C53.7682,-224.81 77.6661,-179.046 111.989,-154.7 115.452,-152.244 119.213,-150.087 123.132,-148.194"/>
<polygon fill="midnightblue" stroke="midnightblue" points="124.649,-151.353 132.5,-144.24 121.926,-144.905 124.649,-151.353"/>
</g>
<!-- Node12 -->
<g id="node12" class="node"><title>Node12</title>
<g id="a_node12"><a xlink:href="classSNPs.html#ae27666e68ba06ba960eeced83704ef9d" target="_top" xlink:title="SNPs::getROIStart">
<polygon fill="white" stroke="black" points="128.975,-82.5 128.975,-104.9 236.299,-104.9 236.299,-82.5 128.975,-82.5"/>
<text text-anchor="middle" x="182.637" y="-90.1" font-family="-adobe-utopia-medium-i-normal--0-0-0-0-p-0-iso10646-1" font-size="12.00">SNPs::getROIStart</text>
</a>
</g>
</g>
<!-- Node1&#45;&gt;Node12 -->
<g id="edge11" class="edge"><title>Node1&#45;&gt;Node12</title>
<path fill="none" stroke="midnightblue" d="M41.4455,-246.4C47.9298,-219.255 68.13,-149.946 111.989,-113.7 114.385,-111.72 116.967,-109.936 119.676,-108.329"/>
<polygon fill="midnightblue" stroke="midnightblue" points="121.348,-111.406 128.695,-103.772 118.191,-105.158 121.348,-111.406"/>
</g>
<!-- Node13 -->
<g id="node13" class="node"><title>Node13</title>
<g id="a_node13"><a xlink:href="classSNPs.html#ae8dc84adaeb8544c18c2743bc58b1615" target="_top" xlink:title="SNPs::getSNP">
<polygon fill="white" stroke="black" points="139.634,-41.5 139.634,-63.9 225.64,-63.9 225.64,-41.5 139.634,-41.5"/>
<text text-anchor="middle" x="182.637" y="-49.1" font-family="-adobe-utopia-medium-i-normal--0-0-0-0-p-0-iso10646-1" font-size="12.00">SNPs::getSNP</text>
</a>
</g>
</g>
<!-- Node1&#45;&gt;Node13 -->
<g id="edge12" class="edge"><title>Node1&#45;&gt;Node13</title>
<path fill="none" stroke="midnightblue" d="M40.0705,-246.188C43.7214,-213.82 58.5683,-121.215 111.989,-72.7 117.12,-68.0403 123.268,-64.46 129.758,-61.7102"/>
<polygon fill="midnightblue" stroke="midnightblue" points="131.198,-64.9125 139.433,-58.2467 128.838,-58.3221 131.198,-64.9125"/>
</g>
<!-- Node14 -->
<g id="node14" class="node"><title>Node14</title>
<g id="a_node14"><a xlink:href="classSNP.html#acb364c2ba0b3daf71f3a83a9f9f4fa1b" target="_top" xlink:title="SNP::getSNPID">
<polygon fill="white" stroke="black" points="135.638,-0.5 135.638,-22.9 229.636,-22.9 229.636,-0.5 135.638,-0.5"/>
<text text-anchor="middle" x="182.637" y="-8.1" font-family="-adobe-utopia-medium-i-normal--0-0-0-0-p-0-iso10646-1" font-size="12.00">SNP::getSNPID</text>
</a>
</g>
</g>
<!-- Node1&#45;&gt;Node14 -->
<g id="edge13" class="edge"><title>Node1&#45;&gt;Node14</title>
<path fill="none" stroke="midnightblue" d="M39.1242,-246.402C40.176,-209.761 48.5828,-93.0617 111.989,-31.7 116.057,-27.7631 120.847,-24.5923 125.98,-22.0399"/>
<polygon fill="midnightblue" stroke="midnightblue" points="127.614,-25.1509 135.506,-18.0815 124.928,-18.6867 127.614,-25.1509"/>
</g>
<!-- Node15 -->
<g id="node15" class="node"><title>Node15</title>
<g id="a_node15"><a xlink:href="classMatch.html#ad3c0caeb0a6c2e878ab32d82ad6fe9d8" target="_top" xlink:title="Match::isHom">
<polygon fill="white" stroke="black" points="139.975,-410.5 139.975,-432.9 225.299,-432.9 225.299,-410.5 139.975,-410.5"/>
<text text-anchor="middle" x="182.637" y="-418.1" font-family="-adobe-utopia-medium-i-normal--0-0-0-0-p-0-iso10646-1" font-size="12.00">Match::isHom</text>
</a>
</g>
</g>
<!-- Node1&#45;&gt;Node15 -->
<g id="edge14" class="edge"><title>Node1&#45;&gt;Node15</title>
<path fill="none" stroke="midnightblue" d="M41.4455,-269C47.9298,-296.145 68.13,-365.454 111.989,-401.7 117.332,-406.115 123.601,-409.556 130.15,-412.238"/>
<polygon fill="midnightblue" stroke="midnightblue" points="129.275,-415.64 139.87,-415.649 131.593,-409.035 129.275,-415.64"/>
</g>
<!-- Node16 -->
<g id="node16" class="node"><title>Node16</title>
<g id="a_node16"><a xlink:href="classMatch.html#ad8dfa0cc3b9bc5cacc26457f6098904b" target="_top" xlink:title="Match::scanLeft">
<polygon fill="white" stroke="black" points="135.321,-369.5 135.321,-391.9 229.953,-391.9 229.953,-369.5 135.321,-369.5"/>
<text text-anchor="middle" x="182.637" y="-377.1" font-family="-adobe-utopia-medium-i-normal--0-0-0-0-p-0-iso10646-1" font-size="12.00">Match::scanLeft</text>
</a>
</g>
</g>
<!-- Node1&#45;&gt;Node16 -->
<g id="edge18" class="edge"><title>Node1&#45;&gt;Node16</title>
<path fill="none" stroke="midnightblue" d="M43.9644,-269.229C53.7682,-290.59 77.6661,-336.354 111.989,-360.7 116.179,-363.672 120.803,-366.204 125.618,-368.362"/>
<polygon fill="midnightblue" stroke="midnightblue" points="124.458,-371.667 135.046,-372.067 127.019,-365.152 124.458,-371.667"/>
</g>
<!-- Node17 -->
<g id="node17" class="node"><title>Node17</title>
<g id="a_node17"><a xlink:href="classMatch.html#a5ddbdc8424b9fdfe8327ddd7c15637e8" target="_top" xlink:title="Match::scanRight">
<polygon fill="white" stroke="black" points="131.978,-492.5 131.978,-514.9 233.296,-514.9 233.296,-492.5 131.978,-492.5"/>
<text text-anchor="middle" x="182.637" y="-500.1" font-family="-adobe-utopia-medium-i-normal--0-0-0-0-p-0-iso10646-1" font-size="12.00">Match::scanRight</text>
</a>
</g>
</g>
<!-- Node1&#45;&gt;Node17 -->
<g id="edge22" class="edge"><title>Node1&#45;&gt;Node17</title>
<path fill="none" stroke="midnightblue" d="M39.1242,-268.998C40.176,-305.639 48.5828,-422.338 111.989,-483.7 115.142,-486.751 118.728,-489.342 122.572,-491.542"/>
<polygon fill="midnightblue" stroke="midnightblue" points="121.389,-494.855 131.922,-495.996 124.4,-488.536 121.389,-494.855"/>
</g>
<!-- Node3 -->
<g id="node3" class="node"><title>Node3</title>
<g id="a_node3"><a xlink:href="classIndividual.html#adab24d093d691c3e84bdce0b2d2f3a81" target="_top" xlink:title="Individual::getChromosome">
<polygon fill="white" stroke="black" points="289.943,-471.5 289.943,-493.9 441.261,-493.9 441.261,-471.5 289.943,-471.5"/>
<text text-anchor="middle" x="365.602" y="-479.1" font-family="-adobe-utopia-medium-i-normal--0-0-0-0-p-0-iso10646-1" font-size="12.00">Individual::getChromosome</text>
</a>
</g>
</g>
<!-- Node2&#45;&gt;Node3 -->
<g id="edge2" class="edge"><title>Node2&#45;&gt;Node3</title>
<path fill="none" stroke="midnightblue" d="M218.101,-466.509C235.709,-468.455 257.983,-470.917 279.814,-473.329"/>
<polygon fill="midnightblue" stroke="midnightblue" points="279.471,-476.813 289.795,-474.432 280.24,-469.855 279.471,-476.813"/>
</g>
<!-- Node4 -->
<g id="node4" class="node"><title>Node4</title>
<g id="a_node4"><a xlink:href="classMarkerSet.html#a4875bf7f161c77ff90c15936fee29ff0" target="_top" xlink:title="MarkerSet::getMarkerBits">
<polygon fill="white" stroke="black" points="294.291,-430.5 294.291,-452.9 436.913,-452.9 436.913,-430.5 294.291,-430.5"/>
<text text-anchor="middle" x="365.602" y="-438.1" font-family="-adobe-utopia-medium-i-normal--0-0-0-0-p-0-iso10646-1" font-size="12.00">MarkerSet::getMarkerBits</text>
</a>
</g>
</g>
<!-- Node2&#45;&gt;Node4 -->
<g id="edge3" class="edge"><title>Node2&#45;&gt;Node4</title>
<path fill="none" stroke="midnightblue" d="M218.101,-458.701C236.771,-456.534 260.687,-453.759 283.758,-451.082"/>
<polygon fill="midnightblue" stroke="midnightblue" points="284.395,-454.531 293.925,-449.902 283.588,-447.578 284.395,-454.531"/>
</g>
<!-- Node5 -->
<g id="node5" class="node"><title>Node5</title>
<g id="a_node5"><a xlink:href="classChromosome.html#a6acf26d0b4a7e2651be613ea14c20a1b" target="_top" xlink:title="Chromosome::getMarkerSet">
<polygon fill="white" stroke="black" points="289.285,-389.5 289.285,-411.9 441.919,-411.9 441.919,-389.5 289.285,-389.5"/>
<text text-anchor="middle" x="365.602" y="-397.1" font-family="-adobe-utopia-medium-i-normal--0-0-0-0-p-0-iso10646-1" font-size="12.00">Chromosome::getMarkerSet</text>
</a>
</g>
</g>
<!-- Node2&#45;&gt;Node5 -->
<g id="edge4" class="edge"><title>Node2&#45;&gt;Node5</title>
<path fill="none" stroke="midnightblue" d="M218.291,-454.723C229.67,-451.587 242.228,-447.559 253.285,-442.7 270.451,-435.155 272.044,-428.072 289.285,-420.7 294.06,-418.658 299.098,-416.779 304.21,-415.059"/>
<polygon fill="midnightblue" stroke="midnightblue" points="305.6,-418.291 314.087,-411.949 303.497,-411.614 305.6,-418.291"/>
</g>
<!-- Node15&#45;&gt;Node3 -->
<g id="edge15" class="edge"><title>Node15&#45;&gt;Node3</title>
<path fill="none" stroke="midnightblue" d="M225.475,-431.886C234.783,-434.654 244.493,-437.943 253.285,-441.7 270.318,-448.979 272.179,-455.592 289.285,-462.7 294.282,-464.777 299.557,-466.692 304.9,-468.447"/>
<polygon fill="midnightblue" stroke="midnightblue" points="303.958,-471.82 314.546,-471.432 306.027,-465.132 303.958,-471.82"/>
</g>
<!-- Node15&#45;&gt;Node4 -->
<g id="edge16" class="edge"><title>Node15&#45;&gt;Node4</title>
<path fill="none" stroke="midnightblue" d="M225.609,-426.339C243.026,-428.264 263.849,-430.565 284.009,-432.793"/>
<polygon fill="midnightblue" stroke="midnightblue" points="283.826,-436.294 294.15,-433.914 284.595,-429.336 283.826,-436.294"/>
</g>
<!-- Node15&#45;&gt;Node5 -->
<g id="edge17" class="edge"><title>Node15&#45;&gt;Node5</title>
<path fill="none" stroke="midnightblue" d="M225.609,-416.829C241.628,-414.97 260.528,-412.777 279.143,-410.617"/>
<polygon fill="midnightblue" stroke="midnightblue" points="279.604,-414.087 289.134,-409.458 278.797,-407.134 279.604,-414.087"/>
</g>
<!-- Node16&#45;&gt;Node3 -->
<g id="edge19" class="edge"><title>Node16&#45;&gt;Node3</title>
<path fill="none" stroke="midnightblue" d="M230.238,-388.706C238.462,-391.564 246.538,-395.44 253.285,-400.7 278.414,-420.291 263.96,-443.362 289.285,-462.7 291.119,-464.101 293.044,-465.404 295.039,-466.616"/>
<polygon fill="midnightblue" stroke="midnightblue" points="293.683,-469.856 304.169,-471.368 296.914,-463.646 293.683,-469.856"/>
</g>
<!-- Node16&#45;&gt;Node4 -->
<g id="edge21" class="edge"><title>Node16&#45;&gt;Node4</title>
<path fill="none" stroke="midnightblue" d="M229.167,-392.006C237.322,-394.527 245.65,-397.437 253.285,-400.7 270.318,-407.979 272.179,-414.592 289.285,-421.7 294.282,-423.777 299.557,-425.692 304.9,-427.447"/>
<polygon fill="midnightblue" stroke="midnightblue" points="303.958,-430.82 314.546,-430.432 306.027,-424.132 303.958,-430.82"/>
</g>
<!-- Node16&#45;&gt;Node5 -->
<g id="edge20" class="edge"><title>Node16&#45;&gt;Node5</title>
<path fill="none" stroke="midnightblue" d="M230.24,-385.85C245.07,-387.489 261.975,-389.358 278.672,-391.203"/>
<polygon fill="midnightblue" stroke="midnightblue" points="278.698,-394.727 289.022,-392.347 279.467,-387.77 278.698,-394.727"/>
</g>
<!-- Node17&#45;&gt;Node3 -->
<g id="edge23" class="edge"><title>Node17&#45;&gt;Node3</title>
<path fill="none" stroke="midnightblue" d="M233.566,-497.906C247.812,-496.253 263.749,-494.403 279.47,-492.579"/>
<polygon fill="midnightblue" stroke="midnightblue" points="280.22,-496.016 289.75,-491.386 279.413,-489.062 280.22,-496.016"/>
</g>
<!-- Node17&#45;&gt;Node4 -->
<g id="edge25" class="edge"><title>Node17&#45;&gt;Node4</title>
<path fill="none" stroke="midnightblue" d="M229.593,-492.408C237.624,-489.899 245.799,-486.99 253.285,-483.7 270.451,-476.155 272.044,-469.072 289.285,-461.7 294.06,-459.658 299.098,-457.779 304.21,-456.059"/>
<polygon fill="midnightblue" stroke="midnightblue" points="305.6,-459.291 314.087,-452.949 303.497,-452.614 305.6,-459.291"/>
</g>
<!-- Node17&#45;&gt;Node5 -->
<g id="edge24" class="edge"><title>Node17&#45;&gt;Node5</title>
<path fill="none" stroke="midnightblue" d="M233.521,-494.541C240.601,-491.817 247.447,-488.284 253.285,-483.7 278.649,-463.784 263.722,-440.36 289.285,-420.7 291.115,-419.293 293.035,-417.984 295.026,-416.767"/>
<polygon fill="midnightblue" stroke="midnightblue" points="296.904,-419.735 304.144,-412 293.66,-413.532 296.904,-419.735"/>
</g>
</g>
</svg>
