<?xml version="1.0" encoding="UTF-8" standalone="no"?>
<!DOCTYPE svg PUBLIC "-//W3C//DTD SVG 1.1//EN"
 "http://www.w3.org/Graphics/SVG/1.1/DTD/svg11.dtd">
<!-- Generated by graphviz version 2.38.0 (20140413.2041)
 -->
<!-- Title: Chromosome Pages: 1 -->
<svg width="136pt" height="105pt"
 viewBox="0.00 0.00 135.56 105.20" xmlns="http://www.w3.org/2000/svg" xmlns:xlink="http://www.w3.org/1999/xlink">
<g id="graph0" class="graph" transform="scale(1 1) rotate(0) translate(4 101.2)">
<title>Chromosome</title>
<polygon fill="white" stroke="none" points="-4,4 -4,-101.2 131.564,-101.2 131.564,4 -4,4"/>
<!-- Node1 -->
<g id="node1" class="node"><title>Node1</title>
<polygon fill="#bfbfbf" stroke="black" points="22.2492,-0.5 22.2492,-22.9 102.91,-22.9 102.91,-0.5 22.2492,-0.5"/>
<text text-anchor="middle" x="62.5796" y="-8.1" font-family="-adobe-utopia-medium-i-normal--0-0-0-0-p-0-iso10646-1" font-size="12.00">Chromosome</text>
</g>
<!-- Node2 -->
<g id="node2" class="node"><title>Node2</title>
<polygon fill="white" stroke="#bfbfbf" points="7.10543e-15,-74.3 7.10543e-15,-96.7 125.159,-96.7 125.159,-74.3 7.10543e-15,-74.3"/>
<text text-anchor="middle" x="62.5796" y="-81.9" font-family="-adobe-utopia-medium-i-normal--0-0-0-0-p-0-iso10646-1" font-size="12.00">vector&lt; MarkerSet * &gt;</text>
</g>
<!-- Node2&#45;&gt;Node1 -->
<g id="edge1" class="edge"><title>Node2&#45;&gt;Node1</title>
<path fill="none" stroke="#9a32cd" stroke-dasharray="5,2" d="M62.5796,-63.9918C62.5796,-50.5766 62.5796,-33.624 62.5796,-22.9681"/>
<polygon fill="#9a32cd" stroke="#9a32cd" points="59.0797,-64.2128 62.5796,-74.2128 66.0797,-64.2128 59.0797,-64.2128"/>
<text text-anchor="middle" x="95.072" y="-45" font-family="-adobe-utopia-medium-i-normal--0-0-0-0-p-0-iso10646-1" font-size="12.00"> chromosome</text>
</g>
</g>
</svg>
