<?xml version="1.0" encoding="UTF-8" standalone="no"?>
<!DOCTYPE svg PUBLIC "-//W3C//DTD SVG 1.1//EN"
 "http://www.w3.org/Graphics/SVG/1.1/DTD/svg11.dtd">
<!-- Generated by graphviz version 2.38.0 (20140413.2041)
 -->
<!-- Title: Match::chromosome Pages: 1 -->
<svg width="245pt" height="72pt"
 viewBox="0.00 0.00 245.32 72.40" xmlns="http://www.w3.org/2000/svg" xmlns:xlink="http://www.w3.org/1999/xlink">
<g id="graph0" class="graph" transform="scale(1 1) rotate(0) translate(4 68.4)">
<title>Match::chromosome</title>
<polygon fill="white" stroke="none" points="-4,4 -4,-68.4 241.316,-68.4 241.316,4 -4,4"/>
<!-- Node1 -->
<g id="node1" class="node"><title>Node1</title>
<polygon fill="#bfbfbf" stroke="black" points="-7.10543e-15,-20.5 -7.10543e-15,-42.9 115.31,-42.9 115.31,-20.5 -7.10543e-15,-20.5"/>
<text text-anchor="middle" x="57.6548" y="-28.1" font-family="-adobe-utopia-medium-i-normal--0-0-0-0-p-0-iso10646-1" font-size="12.00">Match::chromosome</text>
</g>
<!-- Node2 -->
<g id="node2" class="node"><title>Node2</title>
<g id="a_node2"><a xlink:href="classSNP.html#a1cf02a7f908f653fb2645935b0bdcc3d" target="_top" xlink:title="SNP::getChr">
<polygon fill="white" stroke="black" points="155.646,-41.5 155.646,-63.9 232.98,-63.9 232.98,-41.5 155.646,-41.5"/>
<text text-anchor="middle" x="194.313" y="-49.1" font-family="-adobe-utopia-medium-i-normal--0-0-0-0-p-0-iso10646-1" font-size="12.00">SNP::getChr</text>
</a>
</g>
</g>
<!-- Node1&#45;&gt;Node2 -->
<g id="edge1" class="edge"><title>Node1&#45;&gt;Node2</title>
<path fill="none" stroke="midnightblue" d="M115.372,-40.545C125.401,-42.1091 135.752,-43.7234 145.505,-45.2444"/>
<polygon fill="midnightblue" stroke="midnightblue" points="144.994,-48.7069 155.414,-46.7896 146.073,-41.7905 144.994,-48.7069"/>
</g>
<!-- Node3 -->
<g id="node3" class="node"><title>Node3</title>
<g id="a_node3"><a xlink:href="classSNPs.html#ae8dc84adaeb8544c18c2743bc58b1615" target="_top" xlink:title="SNPs::getSNP">
<polygon fill="white" stroke="black" points="151.31,-0.5 151.31,-22.9 237.316,-22.9 237.316,-0.5 151.31,-0.5"/>
<text text-anchor="middle" x="194.313" y="-8.1" font-family="-adobe-utopia-medium-i-normal--0-0-0-0-p-0-iso10646-1" font-size="12.00">SNPs::getSNP</text>
</a>
</g>
</g>
<!-- Node1&#45;&gt;Node3 -->
<g id="edge2" class="edge"><title>Node1&#45;&gt;Node3</title>
<path fill="none" stroke="midnightblue" d="M115.372,-23.2762C123.854,-22.0163 132.568,-20.7222 140.954,-19.4765"/>
<polygon fill="midnightblue" stroke="midnightblue" points="141.608,-22.918 150.985,-17.9867 140.579,-15.9939 141.608,-22.918"/>
</g>
</g>
</svg>
