<?xml version="1.0" encoding="UTF-8" standalone="no"?>
<!DOCTYPE svg PUBLIC "-//W3C//DTD SVG 1.1//EN"
 "http://www.w3.org/Graphics/SVG/1.1/DTD/svg11.dtd">
<!-- Generated by graphviz version 2.38.0 (20140413.2041)
 -->
<!-- Title: SNPs::processMAPFile Pages: 1 -->
<svg width="451pt" height="318pt"
 viewBox="0.00 0.00 450.62 318.40" xmlns="http://www.w3.org/2000/svg" xmlns:xlink="http://www.w3.org/1999/xlink">
<g id="graph0" class="graph" transform="scale(1 1) rotate(0) translate(4 314.4)">
<title>SNPs::processMAPFile</title>
<polygon fill="white" stroke="none" points="-4,4 -4,-314.4 446.616,-314.4 446.616,4 -4,4"/>
<!-- Node1 -->
<g id="node1" class="node"><title>Node1</title>
<polygon fill="#bfbfbf" stroke="black" points="1.42109e-14,-143.5 1.42109e-14,-165.9 129.99,-165.9 129.99,-143.5 1.42109e-14,-143.5"/>
<text text-anchor="middle" x="64.9952" y="-151.1" font-family="-adobe-utopia-medium-i-normal--0-0-0-0-p-0-iso10646-1" font-size="12.00">SNPs::processMAPFile</text>
</g>
<!-- Node2 -->
<g id="node2" class="node"><title>Node2</title>
<g id="a_node2"><a xlink:href="classSNPs.html#a79df6854d1863b8f2e14fd324ad5752b" target="_top" xlink:title="SNPs::addSNP">
<polygon fill="white" stroke="black" points="194.969,-287.5 194.969,-309.9 283.641,-309.9 283.641,-287.5 194.969,-287.5"/>
<text text-anchor="middle" x="239.305" y="-295.1" font-family="-adobe-utopia-medium-i-normal--0-0-0-0-p-0-iso10646-1" font-size="12.00">SNPs::addSNP</text>
</a>
</g>
</g>
<!-- Node1&#45;&gt;Node2 -->
<g id="edge1" class="edge"><title>Node1&#45;&gt;Node2</title>
<path fill="none" stroke="midnightblue" d="M71.8176,-165.912C85.0807,-190.32 119.986,-248.494 165.99,-278.7 171.77,-282.495 178.261,-285.576 184.921,-288.076"/>
<polygon fill="midnightblue" stroke="midnightblue" points="184.142,-291.505 194.736,-291.338 186.351,-284.862 184.142,-291.505"/>
</g>
<!-- Node4 -->
<g id="node4" class="node"><title>Node4</title>
<g id="a_node4"><a xlink:href="classSNPs.html#a966e05b1d44910967919ed5aabf7f3a2" target="_top" xlink:title="SNPs::getGeneticDistance">
<polygon fill="white" stroke="black" points="167.657,-246.5 167.657,-268.9 310.952,-268.9 310.952,-246.5 167.657,-246.5"/>
<text text-anchor="middle" x="239.305" y="-254.1" font-family="-adobe-utopia-medium-i-normal--0-0-0-0-p-0-iso10646-1" font-size="12.00">SNPs::getGeneticDistance</text>
</a>
</g>
</g>
<!-- Node1&#45;&gt;Node4 -->
<g id="edge3" class="edge"><title>Node1&#45;&gt;Node4</title>
<path fill="none" stroke="midnightblue" d="M76.5432,-166.143C93.6345,-184.012 129.194,-218.482 165.99,-237.7 169.692,-239.633 173.601,-241.396 177.607,-243.001"/>
<polygon fill="midnightblue" stroke="midnightblue" points="176.486,-246.317 187.079,-246.464 178.889,-239.743 176.486,-246.317"/>
</g>
<!-- Node6 -->
<g id="node6" class="node"><title>Node6</title>
<g id="a_node6"><a xlink:href="classSNP.html#af9eff18f0ff52b1d6184d5f929f90290" target="_top" xlink:title="SNP::setCentimorgan">
<polygon fill="white" stroke="black" points="178.976,-205.5 178.976,-227.9 299.634,-227.9 299.634,-205.5 178.976,-205.5"/>
<text text-anchor="middle" x="239.305" y="-213.1" font-family="-adobe-utopia-medium-i-normal--0-0-0-0-p-0-iso10646-1" font-size="12.00">SNP::setCentimorgan</text>
</a>
</g>
</g>
<!-- Node1&#45;&gt;Node6 -->
<g id="edge6" class="edge"><title>Node1&#45;&gt;Node6</title>
<path fill="none" stroke="midnightblue" d="M90.3115,-165.944C110.353,-174.96 139.66,-187.571 165.99,-196.7 171.886,-198.744 178.108,-200.724 184.327,-202.591"/>
<polygon fill="midnightblue" stroke="midnightblue" points="183.47,-205.987 194.05,-205.426 185.43,-199.267 183.47,-205.987"/>
</g>
<!-- Node7 -->
<g id="node7" class="node"><title>Node7</title>
<g id="a_node7"><a xlink:href="classSNP.html#a0845feb56b14b488595d93567369f7c5" target="_top" xlink:title="SNP::setChr">
<polygon fill="white" stroke="black" points="201.305,-164.5 201.305,-186.9 277.305,-186.9 277.305,-164.5 201.305,-164.5"/>
<text text-anchor="middle" x="239.305" y="-172.1" font-family="-adobe-utopia-medium-i-normal--0-0-0-0-p-0-iso10646-1" font-size="12.00">SNP::setChr</text>
</a>
</g>
</g>
<!-- Node1&#45;&gt;Node7 -->
<g id="edge7" class="edge"><title>Node1&#45;&gt;Node7</title>
<path fill="none" stroke="midnightblue" d="M130.157,-162.52C150.34,-164.979 172.249,-167.65 191.036,-169.939"/>
<polygon fill="midnightblue" stroke="midnightblue" points="190.772,-173.433 201.122,-171.168 191.618,-166.484 190.772,-173.433"/>
</g>
<!-- Node8 -->
<g id="node8" class="node"><title>Node8</title>
<g id="a_node8"><a xlink:href="classSNPs.html#aab7887e45f048314552ec8c9d657eec8" target="_top" xlink:title="SNPs::setGeneticDistances">
<polygon fill="white" stroke="black" points="165.99,-123.5 165.99,-145.9 312.619,-145.9 312.619,-123.5 165.99,-123.5"/>
<text text-anchor="middle" x="239.305" y="-131.1" font-family="-adobe-utopia-medium-i-normal--0-0-0-0-p-0-iso10646-1" font-size="12.00">SNPs::setGeneticDistances</text>
</a>
</g>
</g>
<!-- Node1&#45;&gt;Node8 -->
<g id="edge8" class="edge"><title>Node1&#45;&gt;Node8</title>
<path fill="none" stroke="midnightblue" d="M130.157,-147.253C138.547,-146.279 147.236,-145.27 155.874,-144.268"/>
<polygon fill="midnightblue" stroke="midnightblue" points="156.441,-147.725 165.971,-143.096 155.634,-140.772 156.441,-147.725"/>
</g>
<!-- Node9 -->
<g id="node9" class="node"><title>Node9</title>
<g id="a_node9"><a xlink:href="classSNP.html#a61968e34d753198196b179a2a3aafce4" target="_top" xlink:title="SNP::setMarkerNumber">
<polygon fill="white" stroke="black" points="172.989,-82.5 172.989,-104.9 305.62,-104.9 305.62,-82.5 172.989,-82.5"/>
<text text-anchor="middle" x="239.305" y="-90.1" font-family="-adobe-utopia-medium-i-normal--0-0-0-0-p-0-iso10646-1" font-size="12.00">SNP::setMarkerNumber</text>
</a>
</g>
</g>
<!-- Node1&#45;&gt;Node9 -->
<g id="edge9" class="edge"><title>Node1&#45;&gt;Node9</title>
<path fill="none" stroke="midnightblue" d="M91.1588,-143.405C111.191,-134.652 140.07,-122.563 165.99,-113.7 171.976,-111.653 178.293,-109.664 184.6,-107.783"/>
<polygon fill="midnightblue" stroke="midnightblue" points="185.825,-111.072 194.454,-104.924 183.875,-104.349 185.825,-111.072"/>
</g>
<!-- Node10 -->
<g id="node10" class="node"><title>Node10</title>
<g id="a_node10"><a xlink:href="classSNP.html#ad7a6b88dd8139d62c7fc24c1a1fe0f6e" target="_top" xlink:title="SNP::setPhysPos">
<polygon fill="white" stroke="black" points="189.966,-41.5 189.966,-63.9 288.643,-63.9 288.643,-41.5 189.966,-41.5"/>
<text text-anchor="middle" x="239.305" y="-49.1" font-family="-adobe-utopia-medium-i-normal--0-0-0-0-p-0-iso10646-1" font-size="12.00">SNP::setPhysPos</text>
</a>
</g>
</g>
<!-- Node1&#45;&gt;Node10 -->
<g id="edge10" class="edge"><title>Node1&#45;&gt;Node10</title>
<path fill="none" stroke="midnightblue" d="M76.5725,-143.402C93.704,-125.757 129.317,-91.7149 165.99,-72.7 170.5,-70.3616 175.314,-68.2716 180.235,-66.4084"/>
<polygon fill="midnightblue" stroke="midnightblue" points="181.477,-69.6824 189.778,-63.0995 179.184,-63.0687 181.477,-69.6824"/>
</g>
<!-- Node11 -->
<g id="node11" class="node"><title>Node11</title>
<g id="a_node11"><a xlink:href="classSNP.html#a4e0905f0c1d5165fea2185e752ed5089" target="_top" xlink:title="SNP::setSNPID">
<polygon fill="white" stroke="black" points="192.972,-0.5 192.972,-22.9 285.637,-22.9 285.637,-0.5 192.972,-0.5"/>
<text text-anchor="middle" x="239.305" y="-8.1" font-family="-adobe-utopia-medium-i-normal--0-0-0-0-p-0-iso10646-1" font-size="12.00">SNP::setSNPID</text>
</a>
</g>
</g>
<!-- Node1&#45;&gt;Node11 -->
<g id="edge11" class="edge"><title>Node1&#45;&gt;Node11</title>
<path fill="none" stroke="midnightblue" d="M72.0444,-143.211C85.5062,-118.79 120.382,-61.5171 165.99,-31.7 171.285,-28.2386 177.173,-25.3707 183.239,-22.9958"/>
<polygon fill="midnightblue" stroke="midnightblue" points="184.56,-26.2423 192.858,-19.655 182.263,-19.6298 184.56,-26.2423"/>
</g>
<!-- Node3 -->
<g id="node3" class="node"><title>Node3</title>
<g id="a_node3"><a xlink:href="classSNP.html#a1cf02a7f908f653fb2645935b0bdcc3d" target="_top" xlink:title="SNP::getChr">
<polygon fill="white" stroke="black" points="356.951,-287.5 356.951,-309.9 434.284,-309.9 434.284,-287.5 356.951,-287.5"/>
<text text-anchor="middle" x="395.618" y="-295.1" font-family="-adobe-utopia-medium-i-normal--0-0-0-0-p-0-iso10646-1" font-size="12.00">SNP::getChr</text>
</a>
</g>
</g>
<!-- Node2&#45;&gt;Node3 -->
<g id="edge2" class="edge"><title>Node2&#45;&gt;Node3</title>
<path fill="none" stroke="midnightblue" d="M283.7,-298.7C303.285,-298.7 326.486,-298.7 346.593,-298.7"/>
<polygon fill="midnightblue" stroke="midnightblue" points="346.79,-302.2 356.79,-298.7 346.79,-295.2 346.79,-302.2"/>
</g>
<!-- Node4&#45;&gt;Node3 -->
<g id="edge4" class="edge"><title>Node4&#45;&gt;Node3</title>
<path fill="none" stroke="midnightblue" d="M282.471,-268.903C302.41,-274.201 326.304,-280.55 346.904,-286.023"/>
<polygon fill="midnightblue" stroke="midnightblue" points="346.157,-289.446 356.72,-288.631 347.954,-282.68 346.157,-289.446"/>
</g>
<!-- Node5 -->
<g id="node5" class="node"><title>Node5</title>
<g id="a_node5"><a xlink:href="classSNP.html#acb364c2ba0b3daf71f3a83a9f9f4fa1b" target="_top" xlink:title="SNP::getSNPID">
<polygon fill="white" stroke="black" points="348.619,-246.5 348.619,-268.9 442.616,-268.9 442.616,-246.5 348.619,-246.5"/>
<text text-anchor="middle" x="395.618" y="-254.1" font-family="-adobe-utopia-medium-i-normal--0-0-0-0-p-0-iso10646-1" font-size="12.00">SNP::getSNPID</text>
</a>
</g>
</g>
<!-- Node4&#45;&gt;Node5 -->
<g id="edge5" class="edge"><title>Node4&#45;&gt;Node5</title>
<path fill="none" stroke="midnightblue" d="M311.138,-257.7C320.25,-257.7 329.48,-257.7 338.315,-257.7"/>
<polygon fill="midnightblue" stroke="midnightblue" points="338.475,-261.2 348.475,-257.7 338.475,-254.2 338.475,-261.2"/>
</g>
</g>
</svg>
