<?xml version="1.0" encoding="UTF-8" standalone="no"?>
<!DOCTYPE svg PUBLIC "-//W3C//DTD SVG 1.1//EN"
 "http://www.w3.org/Graphics/SVG/1.1/DTD/svg11.dtd">
<!-- Generated by graphviz version 2.38.0 (20140413.2041)
 -->
<!-- Title: MatchFactory::assertShares Pages: 1 -->
<svg width="974pt" height="46pt"
 viewBox="0.00 0.00 973.80 45.80" xmlns="http://www.w3.org/2000/svg" xmlns:xlink="http://www.w3.org/1999/xlink">
<g id="graph0" class="graph" transform="scale(1 1) rotate(0) translate(4 41.8)">
<title>MatchFactory::assertShares</title>
<polygon fill="white" stroke="none" points="-4,4 -4,-41.8 969.803,-41.8 969.803,4 -4,4"/>
<!-- Node1 -->
<g id="node1" class="node"><title>Node1</title>
<polygon fill="#bfbfbf" stroke="black" points="2.84217e-14,-7.7 2.84217e-14,-30.1 149.282,-30.1 149.282,-7.7 2.84217e-14,-7.7"/>
<text text-anchor="middle" x="74.6408" y="-15.3" font-family="-adobe-utopia-medium-i-normal--0-0-0-0-p-0-iso10646-1" font-size="12.00">MatchFactory::assertShares</text>
</g>
<!-- Node2 -->
<g id="node2" class="node"><title>Node2</title>
<g id="a_node2"><a xlink:href="classMatchesBuilder.html#af44853a4e7540f4f54a802a5d0c45faf" target="_top" xlink:title="MatchesBuilder::matchMarkerSet">
<polygon fill="white" stroke="black" points="185.282,-7.7 185.282,-30.1 364.56,-30.1 364.56,-7.7 185.282,-7.7"/>
<text text-anchor="middle" x="274.921" y="-15.3" font-family="-adobe-utopia-medium-i-normal--0-0-0-0-p-0-iso10646-1" font-size="12.00">MatchesBuilder::matchMarkerSet</text>
</a>
</g>
</g>
<!-- Node1&#45;&gt;Node2 -->
<g id="edge1" class="edge"><title>Node1&#45;&gt;Node2</title>
<path fill="none" stroke="midnightblue" d="M159.605,-18.9C167.986,-18.9 176.514,-18.9 184.944,-18.9"/>
<polygon fill="midnightblue" stroke="midnightblue" points="159.473,-15.4001 149.473,-18.9 159.473,-22.4001 159.473,-15.4001"/>
</g>
<!-- Node3 -->
<g id="node3" class="node"><title>Node3</title>
<g id="a_node3"><a xlink:href="classMatchesBuilder.html#ae8d8a0ff7f0726406e83d4fa55a96bf4" target="_top" xlink:title="MatchesBuilder::matchAll\lMarkers">
<polygon fill="white" stroke="black" points="400.56,-0.5 400.56,-37.3 544.528,-37.3 544.528,-0.5 400.56,-0.5"/>
<text text-anchor="start" x="408.56" y="-22.5" font-family="-adobe-utopia-medium-i-normal--0-0-0-0-p-0-iso10646-1" font-size="12.00">MatchesBuilder::matchAll</text>
<text text-anchor="middle" x="472.544" y="-8.1" font-family="-adobe-utopia-medium-i-normal--0-0-0-0-p-0-iso10646-1" font-size="12.00">Markers</text>
</a>
</g>
</g>
<!-- Node2&#45;&gt;Node3 -->
<g id="edge2" class="edge"><title>Node2&#45;&gt;Node3</title>
<path fill="none" stroke="midnightblue" d="M374.752,-18.9C383.432,-18.9 392.102,-18.9 400.487,-18.9"/>
<polygon fill="midnightblue" stroke="midnightblue" points="374.574,-15.4001 364.574,-18.9 374.574,-22.4001 374.574,-15.4001"/>
</g>
<!-- Node4 -->
<g id="node4" class="node"><title>Node4</title>
<g id="a_node4"><a xlink:href="classMatchesBuilder.html#a31faf645700f38ac0d7d164b57cfebd1" target="_top" xlink:title="MatchesBuilder::buildMatches">
<polygon fill="white" stroke="black" points="580.528,-7.7 580.528,-30.1 745.158,-30.1 745.158,-7.7 580.528,-7.7"/>
<text text-anchor="middle" x="662.843" y="-15.3" font-family="-adobe-utopia-medium-i-normal--0-0-0-0-p-0-iso10646-1" font-size="12.00">MatchesBuilder::buildMatches</text>
</a>
</g>
</g>
<!-- Node3&#45;&gt;Node4 -->
<g id="edge3" class="edge"><title>Node3&#45;&gt;Node4</title>
<path fill="none" stroke="midnightblue" d="M554.954,-18.9C563.406,-18.9 571.998,-18.9 580.45,-18.9"/>
<polygon fill="midnightblue" stroke="midnightblue" points="554.732,-15.4001 544.732,-18.9 554.731,-22.4001 554.732,-15.4001"/>
</g>
<!-- Node5 -->
<g id="node5" class="node"><title>Node5</title>
<g id="a_node5"><a xlink:href="classGERMLINE.html#a7912aa3108f42f42e06c615b460d0565" target="_top" xlink:title="GERMLINE::mine">
<polygon fill="white" stroke="black" points="781.158,-7.7 781.158,-30.1 889.807,-30.1 889.807,-7.7 781.158,-7.7"/>
<text text-anchor="middle" x="835.483" y="-15.3" font-family="-adobe-utopia-medium-i-normal--0-0-0-0-p-0-iso10646-1" font-size="12.00">GERMLINE::mine</text>
</a>
</g>
</g>
<!-- Node4&#45;&gt;Node5 -->
<g id="edge4" class="edge"><title>Node4&#45;&gt;Node5</title>
<path fill="none" stroke="midnightblue" d="M755.168,-18.9C764.013,-18.9 772.772,-18.9 781.062,-18.9"/>
<polygon fill="midnightblue" stroke="midnightblue" points="755.165,-15.4001 745.165,-18.9 755.165,-22.4001 755.165,-15.4001"/>
</g>
<!-- Node6 -->
<g id="node6" class="node"><title>Node6</title>
<g id="a_node6"><a xlink:href="GERMLINE__0001_8cpp.html#a0ddf1224851353fc92bfbff6f499fa97" target="_top" xlink:title="main">
<polygon fill="white" stroke="black" points="925.807,-7.7 925.807,-30.1 965.803,-30.1 965.803,-7.7 925.807,-7.7"/>
<text text-anchor="middle" x="945.805" y="-15.3" font-family="-adobe-utopia-medium-i-normal--0-0-0-0-p-0-iso10646-1" font-size="12.00">main</text>
</a>
</g>
</g>
<!-- Node5&#45;&gt;Node6 -->
<g id="edge5" class="edge"><title>Node5&#45;&gt;Node6</title>
<path fill="none" stroke="midnightblue" d="M900.16,-18.9C909.424,-18.9 918.306,-18.9 925.673,-18.9"/>
<polygon fill="midnightblue" stroke="midnightblue" points="900.009,-15.4001 890.009,-18.9 900.009,-22.4001 900.009,-15.4001"/>
</g>
</g>
</svg>
