<?xml version="1.0" encoding="UTF-8" standalone="no"?>
<!DOCTYPE svg PUBLIC "-//W3C//DTD SVG 1.1//EN"
 "http://www.w3.org/Graphics/SVG/1.1/DTD/svg11.dtd">
<!-- Generated by graphviz version 2.38.0 (20140413.2041)
 -->
<!-- Title: SNP::getCentimorgan Pages: 1 -->
<svg width="476pt" height="46pt"
 viewBox="0.00 0.00 475.93 45.80" xmlns="http://www.w3.org/2000/svg" xmlns:xlink="http://www.w3.org/1999/xlink">
<g id="graph0" class="graph" transform="scale(1 1) rotate(0) translate(4 41.8)">
<title>SNP::getCentimorgan</title>
<polygon fill="white" stroke="none" points="-4,4 -4,-41.8 471.932,-41.8 471.932,4 -4,4"/>
<!-- Node1 -->
<g id="node1" class="node"><title>Node1</title>
<polygon fill="#bfbfbf" stroke="black" points="2.84217e-14,-7.7 2.84217e-14,-30.1 121.991,-30.1 121.991,-7.7 2.84217e-14,-7.7"/>
<text text-anchor="middle" x="60.9956" y="-15.3" font-family="-adobe-utopia-medium-i-normal--0-0-0-0-p-0-iso10646-1" font-size="12.00">SNP::getCentimorgan</text>
</g>
<!-- Node2 -->
<g id="node2" class="node"><title>Node2</title>
<g id="a_node2"><a xlink:href="classSNPs.html#a5ebf04c1e5d71710bd68af7a556864f9" target="_top" xlink:title="SNPs::processLegendFile">
<polygon fill="white" stroke="black" points="157.991,-7.7 157.991,-30.1 297.966,-30.1 297.966,-7.7 157.991,-7.7"/>
<text text-anchor="middle" x="227.978" y="-15.3" font-family="-adobe-utopia-medium-i-normal--0-0-0-0-p-0-iso10646-1" font-size="12.00">SNPs::processLegendFile</text>
</a>
</g>
</g>
<!-- Node1&#45;&gt;Node2 -->
<g id="edge1" class="edge"><title>Node1&#45;&gt;Node2</title>
<path fill="none" stroke="midnightblue" d="M132.228,-18.9C140.685,-18.9 149.318,-18.9 157.76,-18.9"/>
<polygon fill="midnightblue" stroke="midnightblue" points="132.025,-15.4001 122.025,-18.9 132.025,-22.4001 132.025,-15.4001"/>
</g>
<!-- Node3 -->
<g id="node3" class="node"><title>Node3</title>
<g id="a_node3"><a xlink:href="classHMIndividualsExtractor.html#af7aaa5ed222fd00cc2c36e69a01a3bb3" target="_top" xlink:title="HMIndividualsExtractor\l::loadInput">
<polygon fill="white" stroke="black" points="333.966,-0.5 333.966,-37.3 467.932,-37.3 467.932,-0.5 333.966,-0.5"/>
<text text-anchor="start" x="341.966" y="-22.5" font-family="-adobe-utopia-medium-i-normal--0-0-0-0-p-0-iso10646-1" font-size="12.00">HMIndividualsExtractor</text>
<text text-anchor="middle" x="400.949" y="-8.1" font-family="-adobe-utopia-medium-i-normal--0-0-0-0-p-0-iso10646-1" font-size="12.00">::loadInput</text>
</a>
</g>
</g>
<!-- Node2&#45;&gt;Node3 -->
<g id="edge2" class="edge"><title>Node2&#45;&gt;Node3</title>
<path fill="none" stroke="midnightblue" d="M308.038,-18.9C316.619,-18.9 325.287,-18.9 333.693,-18.9"/>
<polygon fill="midnightblue" stroke="midnightblue" points="308.026,-15.4001 298.026,-18.9 308.026,-22.4001 308.026,-15.4001"/>
</g>
</g>
</svg>
