<?xml version="1.0" encoding="UTF-8" standalone="no"?>
<!DOCTYPE svg PUBLIC "-//W3C//DTD SVG 1.1//EN"
 "http://www.w3.org/Graphics/SVG/1.1/DTD/svg11.dtd">
<!-- Generated by graphviz version 2.38.0 (20140413.2041)
 -->
<!-- Title: SNPs::getSNP Pages: 1 -->
<svg width="246pt" height="195pt"
 viewBox="0.00 0.00 245.98 195.40" xmlns="http://www.w3.org/2000/svg" xmlns:xlink="http://www.w3.org/1999/xlink">
<g id="graph0" class="graph" transform="scale(1 1) rotate(0) translate(4 191.4)">
<title>SNPs::getSNP</title>
<polygon fill="white" stroke="none" points="-4,4 -4,-191.4 241.984,-191.4 241.984,4 -4,4"/>
<!-- Node1 -->
<g id="node1" class="node"><title>Node1</title>
<polygon fill="#bfbfbf" stroke="black" points="0,-82.5 0,-104.9 86.0068,-104.9 86.0068,-82.5 0,-82.5"/>
<text text-anchor="middle" x="43.0034" y="-90.1" font-family="-adobe-utopia-medium-i-normal--0-0-0-0-p-0-iso10646-1" font-size="12.00">SNPs::getSNP</text>
</g>
<!-- Node2 -->
<g id="node2" class="node"><title>Node2</title>
<g id="a_node2"><a xlink:href="classMatch.html#ac0f1cc64fb2cf592a1d9d8e896348855" target="_top" xlink:title="Match::chromosome">
<polygon fill="white" stroke="black" points="122.34,-164.5 122.34,-186.9 237.65,-186.9 237.65,-164.5 122.34,-164.5"/>
<text text-anchor="middle" x="179.995" y="-172.1" font-family="-adobe-utopia-medium-i-normal--0-0-0-0-p-0-iso10646-1" font-size="12.00">Match::chromosome</text>
</a>
</g>
</g>
<!-- Node1&#45;&gt;Node2 -->
<g id="edge1" class="edge"><title>Node1&#45;&gt;Node2</title>
<path fill="none" stroke="midnightblue" d="M63.1207,-111.924C78.1596,-125.475 100.158,-143.634 122.007,-155.7 127.973,-158.995 134.584,-161.906 141.126,-164.415"/>
<polygon fill="midnightblue" stroke="midnightblue" points="65.2558,-109.132 55.5268,-104.937 60.5163,-114.283 65.2558,-109.132"/>
</g>
<!-- Node3 -->
<g id="node3" class="node"><title>Node3</title>
<g id="a_node3"><a xlink:href="classMatch.html#ad30f24028e020b3fa6c8fb542daf588a" target="_top" xlink:title="Match::physicalEnd">
<polygon fill="white" stroke="black" points="123.672,-123.5 123.672,-145.9 236.318,-145.9 236.318,-123.5 123.672,-123.5"/>
<text text-anchor="middle" x="179.995" y="-131.1" font-family="-adobe-utopia-medium-i-normal--0-0-0-0-p-0-iso10646-1" font-size="12.00">Match::physicalEnd</text>
</a>
</g>
</g>
<!-- Node1&#45;&gt;Node3 -->
<g id="edge2" class="edge"><title>Node1&#45;&gt;Node3</title>
<path fill="none" stroke="midnightblue" d="M90.4808,-107.816C107.205,-112.896 125.841,-118.556 141.684,-123.368"/>
<polygon fill="midnightblue" stroke="midnightblue" points="91.4761,-104.461 80.8905,-104.903 89.4417,-111.159 91.4761,-104.461"/>
</g>
<!-- Node4 -->
<g id="node4" class="node"><title>Node4</title>
<g id="a_node4"><a xlink:href="classMatch.html#a5b5d63d426bda95b69d9c10df84684e4" target="_top" xlink:title="Match::physicalStart">
<polygon fill="white" stroke="black" points="122.007,-82.5 122.007,-104.9 237.984,-104.9 237.984,-82.5 122.007,-82.5"/>
<text text-anchor="middle" x="179.995" y="-90.1" font-family="-adobe-utopia-medium-i-normal--0-0-0-0-p-0-iso10646-1" font-size="12.00">Match::physicalStart</text>
</a>
</g>
</g>
<!-- Node1&#45;&gt;Node4 -->
<g id="edge3" class="edge"><title>Node1&#45;&gt;Node4</title>
<path fill="none" stroke="midnightblue" d="M96.3723,-93.7C104.757,-93.7 113.469,-93.7 121.956,-93.7"/>
<polygon fill="midnightblue" stroke="midnightblue" points="96.3453,-90.2001 86.3453,-93.7 96.3452,-97.2001 96.3453,-90.2001"/>
</g>
<!-- Node5 -->
<g id="node5" class="node"><title>Node5</title>
<g id="a_node5"><a xlink:href="classMarkerSet.html#a828ddac806bf40c720bcba3da33f1a28" target="_top" xlink:title="MarkerSet::print">
<polygon fill="white" stroke="black" points="132.007,-41.5 132.007,-63.9 227.983,-63.9 227.983,-41.5 132.007,-41.5"/>
<text text-anchor="middle" x="179.995" y="-49.1" font-family="-adobe-utopia-medium-i-normal--0-0-0-0-p-0-iso10646-1" font-size="12.00">MarkerSet::print</text>
</a>
</g>
</g>
<!-- Node1&#45;&gt;Node5 -->
<g id="edge4" class="edge"><title>Node1&#45;&gt;Node5</title>
<path fill="none" stroke="midnightblue" d="M90.4808,-79.5838C107.205,-74.5043 125.841,-68.844 141.684,-64.0323"/>
<polygon fill="midnightblue" stroke="midnightblue" points="89.4417,-76.2414 80.8905,-82.4966 91.4761,-82.9393 89.4417,-76.2414"/>
</g>
<!-- Node6 -->
<g id="node6" class="node"><title>Node6</title>
<g id="a_node6"><a xlink:href="classMatch.html#a989ae28b68842fc096ee6edb8c1595fd" target="_top" xlink:title="Match::print">
<polygon fill="white" stroke="black" points="142.001,-0.5 142.001,-22.9 217.99,-22.9 217.99,-0.5 142.001,-0.5"/>
<text text-anchor="middle" x="179.995" y="-8.1" font-family="-adobe-utopia-medium-i-normal--0-0-0-0-p-0-iso10646-1" font-size="12.00">Match::print</text>
</a>
</g>
</g>
<!-- Node1&#45;&gt;Node6 -->
<g id="edge5" class="edge"><title>Node1&#45;&gt;Node6</title>
<path fill="none" stroke="midnightblue" d="M63.1207,-75.4763C78.1596,-61.9248 100.158,-43.7656 122.007,-31.7 128.157,-28.3039 134.991,-25.3155 141.73,-22.754"/>
<polygon fill="midnightblue" stroke="midnightblue" points="60.5163,-73.1165 55.5268,-82.463 65.2558,-78.268 60.5163,-73.1165"/>
</g>
</g>
</svg>
