<?xml version="1.0" encoding="UTF-8" standalone="no"?>
<!DOCTYPE svg PUBLIC "-//W3C//DTD SVG 1.1//EN"
 "http://www.w3.org/Graphics/SVG/1.1/DTD/svg11.dtd">
<!-- Generated by graphviz version 2.38.0 (20140413.2041)
 -->
<!-- Title: Match::scanRight Pages: 1 -->
<svg width="298pt" height="113pt"
 viewBox="0.00 0.00 297.95 113.40" xmlns="http://www.w3.org/2000/svg" xmlns:xlink="http://www.w3.org/1999/xlink">
<g id="graph0" class="graph" transform="scale(1 1) rotate(0) translate(4 109.4)">
<title>Match::scanRight</title>
<polygon fill="white" stroke="none" points="-4,4 -4,-109.4 293.952,-109.4 293.952,4 -4,4"/>
<!-- Node1 -->
<g id="node1" class="node"><title>Node1</title>
<polygon fill="#bfbfbf" stroke="black" points="1.42109e-14,-41.5 1.42109e-14,-63.9 101.318,-63.9 101.318,-41.5 1.42109e-14,-41.5"/>
<text text-anchor="middle" x="50.6588" y="-49.1" font-family="-adobe-utopia-medium-i-normal--0-0-0-0-p-0-iso10646-1" font-size="12.00">Match::scanRight</text>
</g>
<!-- Node2 -->
<g id="node2" class="node"><title>Node2</title>
<g id="a_node2"><a xlink:href="classIndividual.html#adab24d093d691c3e84bdce0b2d2f3a81" target="_top" xlink:title="Individual::getChromosome">
<polygon fill="white" stroke="black" points="137.976,-82.5 137.976,-104.9 289.294,-104.9 289.294,-82.5 137.976,-82.5"/>
<text text-anchor="middle" x="213.635" y="-90.1" font-family="-adobe-utopia-medium-i-normal--0-0-0-0-p-0-iso10646-1" font-size="12.00">Individual::getChromosome</text>
</a>
</g>
</g>
<!-- Node1&#45;&gt;Node2 -->
<g id="edge1" class="edge"><title>Node1&#45;&gt;Node2</title>
<path fill="none" stroke="midnightblue" d="M95.6462,-63.9034C115.086,-68.8547 138.13,-74.7238 158.604,-79.9385"/>
<polygon fill="midnightblue" stroke="midnightblue" points="157.867,-83.3624 168.421,-82.4389 159.594,-76.579 157.867,-83.3624"/>
</g>
<!-- Node3 -->
<g id="node3" class="node"><title>Node3</title>
<g id="a_node3"><a xlink:href="classMarkerSet.html#a4875bf7f161c77ff90c15936fee29ff0" target="_top" xlink:title="MarkerSet::getMarkerBits">
<polygon fill="white" stroke="black" points="142.323,-41.5 142.323,-63.9 284.946,-63.9 284.946,-41.5 142.323,-41.5"/>
<text text-anchor="middle" x="213.635" y="-49.1" font-family="-adobe-utopia-medium-i-normal--0-0-0-0-p-0-iso10646-1" font-size="12.00">MarkerSet::getMarkerBits</text>
</a>
</g>
</g>
<!-- Node1&#45;&gt;Node3 -->
<g id="edge2" class="edge"><title>Node1&#45;&gt;Node3</title>
<path fill="none" stroke="midnightblue" d="M101.71,-52.7C111.332,-52.7 121.634,-52.7 131.941,-52.7"/>
<polygon fill="midnightblue" stroke="midnightblue" points="132.224,-56.2001 142.224,-52.7 132.224,-49.2001 132.224,-56.2001"/>
</g>
<!-- Node4 -->
<g id="node4" class="node"><title>Node4</title>
<g id="a_node4"><a xlink:href="classChromosome.html#a6acf26d0b4a7e2651be613ea14c20a1b" target="_top" xlink:title="Chromosome::getMarkerSet">
<polygon fill="white" stroke="black" points="137.318,-0.5 137.318,-22.9 289.952,-22.9 289.952,-0.5 137.318,-0.5"/>
<text text-anchor="middle" x="213.635" y="-8.1" font-family="-adobe-utopia-medium-i-normal--0-0-0-0-p-0-iso10646-1" font-size="12.00">Chromosome::getMarkerSet</text>
</a>
</g>
</g>
<!-- Node1&#45;&gt;Node4 -->
<g id="edge3" class="edge"><title>Node1&#45;&gt;Node4</title>
<path fill="none" stroke="midnightblue" d="M95.6462,-41.4966C115.086,-36.5453 138.13,-30.6762 158.604,-25.4615"/>
<polygon fill="midnightblue" stroke="midnightblue" points="159.594,-28.821 168.421,-22.9611 157.867,-22.0376 159.594,-28.821"/>
</g>
</g>
</svg>
