<?xml version="1.0" encoding="UTF-8" standalone="no"?>
<!DOCTYPE svg PUBLIC "-//W3C//DTD SVG 1.1//EN"
 "http://www.w3.org/Graphics/SVG/1.1/DTD/svg11.dtd">
<!-- Generated by graphviz version 2.38.0 (20140413.2041)
 -->
<!-- Title: Individuals::next Pages: 1 -->
<svg width="953pt" height="170pt"
 viewBox="0.00 0.00 953.15 170.40" xmlns="http://www.w3.org/2000/svg" xmlns:xlink="http://www.w3.org/1999/xlink">
<g id="graph0" class="graph" transform="scale(1 1) rotate(0) translate(4 166.4)">
<title>Individuals::next</title>
<polygon fill="white" stroke="none" points="-4,4 -4,-166.4 949.148,-166.4 949.148,4 -4,4"/>
<!-- Node1 -->
<g id="node1" class="node"><title>Node1</title>
<polygon fill="#bfbfbf" stroke="black" points="4.26326e-14,-73.5 4.26326e-14,-95.9 97.324,-95.9 97.324,-73.5 4.26326e-14,-73.5"/>
<text text-anchor="middle" x="48.662" y="-81.1" font-family="-adobe-utopia-medium-i-normal--0-0-0-0-p-0-iso10646-1" font-size="12.00">Individuals::next</text>
</g>
<!-- Node2 -->
<g id="node2" class="node"><title>Node2</title>
<g id="a_node2"><a xlink:href="classMatchesBuilder.html#af44853a4e7540f4f54a802a5d0c45faf" target="_top" xlink:title="MatchesBuilder::matchMarkerSet">
<polygon fill="white" stroke="black" points="133.324,-139.5 133.324,-161.9 312.602,-161.9 312.602,-139.5 133.324,-139.5"/>
<text text-anchor="middle" x="222.963" y="-147.1" font-family="-adobe-utopia-medium-i-normal--0-0-0-0-p-0-iso10646-1" font-size="12.00">MatchesBuilder::matchMarkerSet</text>
</a>
</g>
</g>
<!-- Node1&#45;&gt;Node2 -->
<g id="edge1" class="edge"><title>Node1&#45;&gt;Node2</title>
<path fill="none" stroke="midnightblue" d="M75.7191,-101.52C91.7827,-111.246 113.112,-123.039 133.324,-130.7 142.175,-134.055 151.746,-136.936 161.213,-139.381"/>
<polygon fill="midnightblue" stroke="midnightblue" points="77.2642,-98.3598 66.9179,-96.0781 73.583,-104.314 77.2642,-98.3598"/>
</g>
<!-- Node7 -->
<g id="node7" class="node"><title>Node7</title>
<g id="a_node7"><a xlink:href="classMatchesBuilder.html#a4d8d324cb0d0bab5c991c3d68d3783e7" target="_top" xlink:title="MatchesBuilder::printHaplotypes">
<polygon fill="white" stroke="black" points="134.648,-98.5 134.648,-120.9 311.278,-120.9 311.278,-98.5 134.648,-98.5"/>
<text text-anchor="middle" x="222.963" y="-106.1" font-family="-adobe-utopia-medium-i-normal--0-0-0-0-p-0-iso10646-1" font-size="12.00">MatchesBuilder::printHaplotypes</text>
</a>
</g>
</g>
<!-- Node1&#45;&gt;Node7 -->
<g id="edge6" class="edge"><title>Node1&#45;&gt;Node7</title>
<path fill="none" stroke="midnightblue" d="M107.793,-93.1345C119.585,-94.8455 132.164,-96.6707 144.503,-98.4609"/>
<polygon fill="midnightblue" stroke="midnightblue" points="108.056,-89.6362 97.6574,-91.6639 107.051,-96.5636 108.056,-89.6362"/>
</g>
<!-- Node8 -->
<g id="node8" class="node"><title>Node8</title>
<g id="a_node8"><a xlink:href="classMatchesBuilder.html#a24030d91efc506dab6732cdb9a89f0ab" target="_top" xlink:title="MatchesBuilder::readHaploid\lMarkerSet">
<polygon fill="white" stroke="black" points="143.653,-42.3 143.653,-79.1 302.273,-79.1 302.273,-42.3 143.653,-42.3"/>
<text text-anchor="start" x="151.653" y="-64.3" font-family="-adobe-utopia-medium-i-normal--0-0-0-0-p-0-iso10646-1" font-size="12.00">MatchesBuilder::readHaploid</text>
<text text-anchor="middle" x="222.963" y="-49.9" font-family="-adobe-utopia-medium-i-normal--0-0-0-0-p-0-iso10646-1" font-size="12.00">MarkerSet</text>
</a>
</g>
</g>
<!-- Node1&#45;&gt;Node8 -->
<g id="edge7" class="edge"><title>Node1&#45;&gt;Node8</title>
<path fill="none" stroke="midnightblue" d="M107.58,-76.6326C119.121,-75.025 131.422,-73.3115 143.519,-71.6265"/>
<polygon fill="midnightblue" stroke="midnightblue" points="107.079,-73.1685 97.6574,-78.0147 108.045,-80.1015 107.079,-73.1685"/>
</g>
<!-- Node10 -->
<g id="node10" class="node"><title>Node10</title>
<g id="a_node10"><a xlink:href="classMatchesBuilder.html#a0ce39fec7c735700c83a21f4b53f5bbf" target="_top" xlink:title="MatchesBuilder::readMarkerSet">
<polygon fill="white" stroke="black" points="137.661,-0.5 137.661,-22.9 308.265,-22.9 308.265,-0.5 137.661,-0.5"/>
<text text-anchor="middle" x="222.963" y="-8.1" font-family="-adobe-utopia-medium-i-normal--0-0-0-0-p-0-iso10646-1" font-size="12.00">MatchesBuilder::readMarkerSet</text>
</a>
</g>
</g>
<!-- Node1&#45;&gt;Node10 -->
<g id="edge10" class="edge"><title>Node1&#45;&gt;Node10</title>
<path fill="none" stroke="midnightblue" d="M72.8784,-67.4047C89.0799,-56.0722 111.609,-41.7371 133.324,-32.7 142.522,-28.8718 152.562,-25.6561 162.471,-22.9831"/>
<polygon fill="midnightblue" stroke="midnightblue" points="70.6753,-64.6772 64.574,-73.3388 74.7451,-70.3725 70.6753,-64.6772"/>
</g>
<!-- Node3 -->
<g id="node3" class="node"><title>Node3</title>
<g id="a_node3"><a xlink:href="classMatchesBuilder.html#ae8d8a0ff7f0726406e83d4fa55a96bf4" target="_top" xlink:title="MatchesBuilder::matchAll\lMarkers">
<polygon fill="white" stroke="black" points="364.253,-111.3 364.253,-148.1 508.221,-148.1 508.221,-111.3 364.253,-111.3"/>
<text text-anchor="start" x="372.253" y="-133.3" font-family="-adobe-utopia-medium-i-normal--0-0-0-0-p-0-iso10646-1" font-size="12.00">MatchesBuilder::matchAll</text>
<text text-anchor="middle" x="436.237" y="-118.9" font-family="-adobe-utopia-medium-i-normal--0-0-0-0-p-0-iso10646-1" font-size="12.00">Markers</text>
</a>
</g>
</g>
<!-- Node2&#45;&gt;Node3 -->
<g id="edge2" class="edge"><title>Node2&#45;&gt;Node3</title>
<path fill="none" stroke="midnightblue" d="M322.757,-140.88C336.705,-139.494 350.812,-138.092 364.1,-136.771"/>
<polygon fill="midnightblue" stroke="midnightblue" points="322.249,-137.413 312.644,-141.885 322.941,-144.379 322.249,-137.413"/>
</g>
<!-- Node4 -->
<g id="node4" class="node"><title>Node4</title>
<g id="a_node4"><a xlink:href="classMatchesBuilder.html#a31faf645700f38ac0d7d164b57cfebd1" target="_top" xlink:title="MatchesBuilder::buildMatches">
<polygon fill="white" stroke="black" points="559.872,-83.5 559.872,-105.9 724.503,-105.9 724.503,-83.5 559.872,-83.5"/>
<text text-anchor="middle" x="642.187" y="-91.1" font-family="-adobe-utopia-medium-i-normal--0-0-0-0-p-0-iso10646-1" font-size="12.00">MatchesBuilder::buildMatches</text>
</a>
</g>
</g>
<!-- Node3&#45;&gt;Node4 -->
<g id="edge3" class="edge"><title>Node3&#45;&gt;Node4</title>
<path fill="none" stroke="midnightblue" d="M518.185,-115.808C537.331,-112.523 557.51,-109.06 575.862,-105.91"/>
<polygon fill="midnightblue" stroke="midnightblue" points="517.547,-112.367 508.283,-117.508 518.731,-119.266 517.547,-112.367"/>
</g>
<!-- Node5 -->
<g id="node5" class="node"><title>Node5</title>
<g id="a_node5"><a xlink:href="classGERMLINE.html#a7912aa3108f42f42e06c615b460d0565" target="_top" xlink:title="GERMLINE::mine">
<polygon fill="white" stroke="black" points="760.503,-83.5 760.503,-105.9 869.151,-105.9 869.151,-83.5 760.503,-83.5"/>
<text text-anchor="middle" x="814.827" y="-91.1" font-family="-adobe-utopia-medium-i-normal--0-0-0-0-p-0-iso10646-1" font-size="12.00">GERMLINE::mine</text>
</a>
</g>
</g>
<!-- Node4&#45;&gt;Node5 -->
<g id="edge4" class="edge"><title>Node4&#45;&gt;Node5</title>
<path fill="none" stroke="midnightblue" d="M734.512,-94.7C743.358,-94.7 752.116,-94.7 760.406,-94.7"/>
<polygon fill="midnightblue" stroke="midnightblue" points="734.509,-91.2001 724.509,-94.7 734.509,-98.2001 734.509,-91.2001"/>
</g>
<!-- Node6 -->
<g id="node6" class="node"><title>Node6</title>
<g id="a_node6"><a xlink:href="GERMLINE__0001_8cpp.html#a0ddf1224851353fc92bfbff6f499fa97" target="_top" xlink:title="main">
<polygon fill="white" stroke="black" points="905.151,-83.5 905.151,-105.9 945.148,-105.9 945.148,-83.5 905.151,-83.5"/>
<text text-anchor="middle" x="925.149" y="-91.1" font-family="-adobe-utopia-medium-i-normal--0-0-0-0-p-0-iso10646-1" font-size="12.00">main</text>
</a>
</g>
</g>
<!-- Node5&#45;&gt;Node6 -->
<g id="edge5" class="edge"><title>Node5&#45;&gt;Node6</title>
<path fill="none" stroke="midnightblue" d="M879.504,-94.7C888.769,-94.7 897.65,-94.7 905.017,-94.7"/>
<polygon fill="midnightblue" stroke="midnightblue" points="879.354,-91.2001 869.354,-94.7 879.353,-98.2001 879.354,-91.2001"/>
</g>
<!-- Node9 -->
<g id="node9" class="node"><title>Node9</title>
<g id="a_node9"><a xlink:href="classMatchesBuilder.html#ad627b36445ae9df99c732b23c8b06547" target="_top" xlink:title="MatchesBuilder::readAllMarkers">
<polygon fill="white" stroke="black" points="348.602,-49.5 348.602,-71.9 523.872,-71.9 523.872,-49.5 348.602,-49.5"/>
<text text-anchor="middle" x="436.237" y="-57.1" font-family="-adobe-utopia-medium-i-normal--0-0-0-0-p-0-iso10646-1" font-size="12.00">MatchesBuilder::readAllMarkers</text>
</a>
</g>
</g>
<!-- Node8&#45;&gt;Node9 -->
<g id="edge8" class="edge"><title>Node8&#45;&gt;Node9</title>
<path fill="none" stroke="midnightblue" d="M312.656,-60.7C324.507,-60.7 336.649,-60.7 348.465,-60.7"/>
<polygon fill="midnightblue" stroke="midnightblue" points="312.333,-57.2001 302.333,-60.7 312.333,-64.2001 312.333,-57.2001"/>
</g>
<!-- Node9&#45;&gt;Node4 -->
<g id="edge9" class="edge"><title>Node9&#45;&gt;Node4</title>
<path fill="none" stroke="midnightblue" d="M514.653,-73.6057C534.162,-76.858 554.946,-80.3229 573.912,-83.4847"/>
<polygon fill="midnightblue" stroke="midnightblue" points="515.023,-70.1192 504.583,-71.9271 513.872,-77.0239 515.023,-70.1192"/>
</g>
<!-- Node10&#45;&gt;Node9 -->
<g id="edge11" class="edge"><title>Node10&#45;&gt;Node9</title>
<path fill="none" stroke="midnightblue" d="M282.345,-25.2403C315.134,-32.845 355.574,-42.2242 386.627,-49.426"/>
<polygon fill="midnightblue" stroke="midnightblue" points="282.966,-21.7915 272.434,-22.9416 281.384,-28.6105 282.966,-21.7915"/>
</g>
</g>
</svg>
