<?xml version="1.0" encoding="UTF-8" standalone="no"?>
<!DOCTYPE svg PUBLIC "-//W3C//DTD SVG 1.1//EN"
 "http://www.w3.org/Graphics/SVG/1.1/DTD/svg11.dtd">
<!-- Generated by graphviz version 2.38.0 (20140413.2041)
 -->
<!-- Title: SNPs::beginChromosome Pages: 1 -->
<svg width="398pt" height="144pt"
 viewBox="0.00 0.00 397.96 143.60" xmlns="http://www.w3.org/2000/svg" xmlns:xlink="http://www.w3.org/1999/xlink">
<g id="graph0" class="graph" transform="scale(1 1) rotate(0) translate(4 139.6)">
<title>SNPs::beginChromosome</title>
<polygon fill="white" stroke="none" points="-4,4 -4,-139.6 393.96,-139.6 393.96,4 -4,4"/>
<!-- Node1 -->
<g id="node1" class="node"><title>Node1</title>
<polygon fill="#bfbfbf" stroke="black" points="-1.42109e-14,-49.5 -1.42109e-14,-71.9 140.663,-71.9 140.663,-49.5 -1.42109e-14,-49.5"/>
<text text-anchor="middle" x="70.3316" y="-57.1" font-family="-adobe-utopia-medium-i-normal--0-0-0-0-p-0-iso10646-1" font-size="12.00">SNPs::beginChromosome</text>
</g>
<!-- Node2 -->
<g id="node2" class="node"><title>Node2</title>
<g id="a_node2"><a xlink:href="classPEDIndividualsExtractor.html#aaaae7102f9e3db6f900b3d56f559dc91" target="_top" xlink:title="PEDIndividualsExtractor\l::loadInput">
<polygon fill="white" stroke="black" points="176.663,-98.3 176.663,-135.1 313.964,-135.1 313.964,-98.3 176.663,-98.3"/>
<text text-anchor="start" x="184.663" y="-120.3" font-family="-adobe-utopia-medium-i-normal--0-0-0-0-p-0-iso10646-1" font-size="12.00">PEDIndividualsExtractor</text>
<text text-anchor="middle" x="245.314" y="-105.9" font-family="-adobe-utopia-medium-i-normal--0-0-0-0-p-0-iso10646-1" font-size="12.00">::loadInput</text>
</a>
</g>
</g>
<!-- Node1&#45;&gt;Node2 -->
<g id="edge1" class="edge"><title>Node1&#45;&gt;Node2</title>
<path fill="none" stroke="midnightblue" d="M115.964,-75.1489C137.688,-82.1819 164.056,-90.7179 187.227,-98.2192"/>
<polygon fill="midnightblue" stroke="midnightblue" points="116.929,-71.7826 106.337,-72.0324 114.773,-78.4423 116.929,-71.7826"/>
</g>
<!-- Node3 -->
<g id="node3" class="node"><title>Node3</title>
<g id="a_node3"><a xlink:href="classHMIndividualsExtractor.html#af7aaa5ed222fd00cc2c36e69a01a3bb3" target="_top" xlink:title="HMIndividualsExtractor\l::loadInput">
<polygon fill="white" stroke="black" points="178.331,-42.3 178.331,-79.1 312.297,-79.1 312.297,-42.3 178.331,-42.3"/>
<text text-anchor="start" x="186.331" y="-64.3" font-family="-adobe-utopia-medium-i-normal--0-0-0-0-p-0-iso10646-1" font-size="12.00">HMIndividualsExtractor</text>
<text text-anchor="middle" x="245.314" y="-49.9" font-family="-adobe-utopia-medium-i-normal--0-0-0-0-p-0-iso10646-1" font-size="12.00">::loadInput</text>
</a>
</g>
</g>
<!-- Node1&#45;&gt;Node3 -->
<g id="edge2" class="edge"><title>Node1&#45;&gt;Node3</title>
<path fill="none" stroke="midnightblue" d="M150.959,-60.7C160.11,-60.7 169.364,-60.7 178.307,-60.7"/>
<polygon fill="midnightblue" stroke="midnightblue" points="150.693,-57.2001 140.693,-60.7 150.693,-64.2001 150.693,-57.2001"/>
</g>
<!-- Node4 -->
<g id="node4" class="node"><title>Node4</title>
<g id="a_node4"><a xlink:href="classGERMLINE.html#a7912aa3108f42f42e06c615b460d0565" target="_top" xlink:title="GERMLINE::mine">
<polygon fill="white" stroke="black" points="190.989,-0.5 190.989,-22.9 299.638,-22.9 299.638,-0.5 190.989,-0.5"/>
<text text-anchor="middle" x="245.314" y="-8.1" font-family="-adobe-utopia-medium-i-normal--0-0-0-0-p-0-iso10646-1" font-size="12.00">GERMLINE::mine</text>
</a>
</g>
</g>
<!-- Node1&#45;&gt;Node4 -->
<g id="edge3" class="edge"><title>Node1&#45;&gt;Node4</title>
<path fill="none" stroke="midnightblue" d="M120.877,-46.6656C147.402,-39.1517 179.637,-30.0206 204.514,-22.974"/>
<polygon fill="midnightblue" stroke="midnightblue" points="119.685,-43.3654 111.017,-49.4584 121.593,-50.1004 119.685,-43.3654"/>
</g>
<!-- Node5 -->
<g id="node5" class="node"><title>Node5</title>
<g id="a_node5"><a xlink:href="GERMLINE__0001_8cpp.html#a0ddf1224851353fc92bfbff6f499fa97" target="_top" xlink:title="main">
<polygon fill="white" stroke="black" points="349.964,-0.5 349.964,-22.9 389.96,-22.9 389.96,-0.5 349.964,-0.5"/>
<text text-anchor="middle" x="369.962" y="-8.1" font-family="-adobe-utopia-medium-i-normal--0-0-0-0-p-0-iso10646-1" font-size="12.00">main</text>
</a>
</g>
</g>
<!-- Node4&#45;&gt;Node5 -->
<g id="edge4" class="edge"><title>Node4&#45;&gt;Node5</title>
<path fill="none" stroke="midnightblue" d="M309.829,-11.7C324.404,-11.7 338.815,-11.7 349.76,-11.7"/>
<polygon fill="midnightblue" stroke="midnightblue" points="309.752,-8.2001 299.752,-11.7 309.752,-15.2001 309.752,-8.2001"/>
</g>
</g>
</svg>
