<?xml version="1.0" encoding="UTF-8" standalone="no"?>
<!DOCTYPE svg PUBLIC "-//W3C//DTD SVG 1.1//EN"
 "http://www.w3.org/Graphics/SVG/1.1/DTD/svg11.dtd">
<!-- Generated by graphviz version 2.38.0 (20140413.2041)
 -->
<!-- Title: Match::physicalStart Pages: 1 -->
<svg width="260pt" height="72pt"
 viewBox="0.00 0.00 259.99 72.40" xmlns="http://www.w3.org/2000/svg" xmlns:xlink="http://www.w3.org/1999/xlink">
<g id="graph0" class="graph" transform="scale(1 1) rotate(0) translate(4 68.4)">
<title>Match::physicalStart</title>
<polygon fill="white" stroke="none" points="-4,4 -4,-68.4 255.988,-68.4 255.988,4 -4,4"/>
<!-- Node1 -->
<g id="node1" class="node"><title>Node1</title>
<polygon fill="#bfbfbf" stroke="black" points="1.42109e-14,-20.5 1.42109e-14,-42.9 115.977,-42.9 115.977,-20.5 1.42109e-14,-20.5"/>
<text text-anchor="middle" x="57.9884" y="-28.1" font-family="-adobe-utopia-medium-i-normal--0-0-0-0-p-0-iso10646-1" font-size="12.00">Match::physicalStart</text>
</g>
<!-- Node2 -->
<g id="node2" class="node"><title>Node2</title>
<g id="a_node2"><a xlink:href="classSNP.html#a91d3e6dc0c3a15dc0c1b5deb7c5b7cfb" target="_top" xlink:title="SNP::getPhysPos">
<polygon fill="white" stroke="black" points="151.977,-41.5 151.977,-63.9 251.988,-63.9 251.988,-41.5 151.977,-41.5"/>
<text text-anchor="middle" x="201.982" y="-49.1" font-family="-adobe-utopia-medium-i-normal--0-0-0-0-p-0-iso10646-1" font-size="12.00">SNP::getPhysPos</text>
</a>
</g>
</g>
<!-- Node1&#45;&gt;Node2 -->
<g id="edge1" class="edge"><title>Node1&#45;&gt;Node2</title>
<path fill="none" stroke="midnightblue" d="M116.333,-40.181C124.651,-41.4111 133.228,-42.6796 141.585,-43.9156"/>
<polygon fill="midnightblue" stroke="midnightblue" points="141.233,-47.4014 151.637,-45.4022 142.257,-40.4767 141.233,-47.4014"/>
</g>
<!-- Node3 -->
<g id="node3" class="node"><title>Node3</title>
<g id="a_node3"><a xlink:href="classSNPs.html#ae8dc84adaeb8544c18c2743bc58b1615" target="_top" xlink:title="SNPs::getSNP">
<polygon fill="white" stroke="black" points="158.979,-0.5 158.979,-22.9 244.986,-22.9 244.986,-0.5 158.979,-0.5"/>
<text text-anchor="middle" x="201.982" y="-8.1" font-family="-adobe-utopia-medium-i-normal--0-0-0-0-p-0-iso10646-1" font-size="12.00">SNPs::getSNP</text>
</a>
</g>
</g>
<!-- Node1&#45;&gt;Node3 -->
<g id="edge2" class="edge"><title>Node1&#45;&gt;Node3</title>
<path fill="none" stroke="midnightblue" d="M116.333,-23.6229C127.066,-22.1112 138.231,-20.5386 148.797,-19.0504"/>
<polygon fill="midnightblue" stroke="midnightblue" points="149.296,-22.5147 158.71,-17.6541 148.319,-15.5832 149.296,-22.5147"/>
</g>
</g>
</svg>
