<?xml version="1.0" encoding="UTF-8" standalone="no"?>
<!DOCTYPE svg PUBLIC "-//W3C//DTD SVG 1.1//EN"
 "http://www.w3.org/Graphics/SVG/1.1/DTD/svg11.dtd">
<!-- Generated by graphviz version 2.38.0 (20140413.2041)
 -->
<!-- Title: SNPs::getROIEnd Pages: 1 -->
<svg width="333pt" height="31pt"
 viewBox="0.00 0.00 332.64 31.40" xmlns="http://www.w3.org/2000/svg" xmlns:xlink="http://www.w3.org/1999/xlink">
<g id="graph0" class="graph" transform="scale(1 1) rotate(0) translate(4 27.4)">
<title>SNPs::getROIEnd</title>
<polygon fill="white" stroke="none" points="-4,4 -4,-27.4 328.638,-27.4 328.638,4 -4,4"/>
<!-- Node1 -->
<g id="node1" class="node"><title>Node1</title>
<polygon fill="#bfbfbf" stroke="black" points="7.10543e-15,-0.5 7.10543e-15,-22.9 103.994,-22.9 103.994,-0.5 7.10543e-15,-0.5"/>
<text text-anchor="middle" x="51.9968" y="-8.1" font-family="-adobe-utopia-medium-i-normal--0-0-0-0-p-0-iso10646-1" font-size="12.00">SNPs::getROIEnd</text>
</g>
<!-- Node2 -->
<g id="node2" class="node"><title>Node2</title>
<g id="a_node2"><a xlink:href="classGERMLINE.html#a7912aa3108f42f42e06c615b460d0565" target="_top" xlink:title="GERMLINE::mine">
<polygon fill="white" stroke="black" points="139.994,-0.5 139.994,-22.9 248.642,-22.9 248.642,-0.5 139.994,-0.5"/>
<text text-anchor="middle" x="194.318" y="-8.1" font-family="-adobe-utopia-medium-i-normal--0-0-0-0-p-0-iso10646-1" font-size="12.00">GERMLINE::mine</text>
</a>
</g>
</g>
<!-- Node1&#45;&gt;Node2 -->
<g id="edge1" class="edge"><title>Node1&#45;&gt;Node2</title>
<path fill="none" stroke="midnightblue" d="M114.265,-11.7C122.737,-11.7 131.384,-11.7 139.702,-11.7"/>
<polygon fill="midnightblue" stroke="midnightblue" points="114.053,-8.2001 104.053,-11.7 114.053,-15.2001 114.053,-8.2001"/>
</g>
<!-- Node3 -->
<g id="node3" class="node"><title>Node3</title>
<g id="a_node3"><a xlink:href="GERMLINE__0001_8cpp.html#a0ddf1224851353fc92bfbff6f499fa97" target="_top" xlink:title="main">
<polygon fill="white" stroke="black" points="284.642,-0.5 284.642,-22.9 324.638,-22.9 324.638,-0.5 284.642,-0.5"/>
<text text-anchor="middle" x="304.64" y="-8.1" font-family="-adobe-utopia-medium-i-normal--0-0-0-0-p-0-iso10646-1" font-size="12.00">main</text>
</a>
</g>
</g>
<!-- Node2&#45;&gt;Node3 -->
<g id="edge2" class="edge"><title>Node2&#45;&gt;Node3</title>
<path fill="none" stroke="midnightblue" d="M258.995,-11.7C268.26,-11.7 277.141,-11.7 284.508,-11.7"/>
<polygon fill="midnightblue" stroke="midnightblue" points="258.844,-8.2001 248.844,-11.7 258.844,-15.2001 258.844,-8.2001"/>
</g>
</g>
</svg>
