<?xml version="1.0" encoding="UTF-8" standalone="no"?>
<!DOCTYPE svg PUBLIC "-//W3C//DTD SVG 1.1//EN"
 "http://www.w3.org/Graphics/SVG/1.1/DTD/svg11.dtd">
<!-- Generated by graphviz version 2.38.0 (20140413.2041)
 -->
<!-- Title: GERMLINE::mine Pages: 1 -->
<svg width="193pt" height="31pt"
 viewBox="0.00 0.00 192.64 31.40" xmlns="http://www.w3.org/2000/svg" xmlns:xlink="http://www.w3.org/1999/xlink">
<g id="graph0" class="graph" transform="scale(1 1) rotate(0) translate(4 27.4)">
<title>GERMLINE::mine</title>
<polygon fill="white" stroke="none" points="-4,4 -4,-27.4 188.645,-27.4 188.645,4 -4,4"/>
<!-- Node1 -->
<g id="node1" class="node"><title>Node1</title>
<polygon fill="#bfbfbf" stroke="black" points="-7.10543e-15,-0.5 -7.10543e-15,-22.9 108.648,-22.9 108.648,-0.5 -7.10543e-15,-0.5"/>
<text text-anchor="middle" x="54.3242" y="-8.1" font-family="-adobe-utopia-medium-i-normal--0-0-0-0-p-0-iso10646-1" font-size="12.00">GERMLINE::mine</text>
</g>
<!-- Node2 -->
<g id="node2" class="node"><title>Node2</title>
<g id="a_node2"><a xlink:href="GERMLINE__0001_8cpp.html#a0ddf1224851353fc92bfbff6f499fa97" target="_top" xlink:title="main">
<polygon fill="white" stroke="black" points="144.648,-0.5 144.648,-22.9 184.645,-22.9 184.645,-0.5 144.648,-0.5"/>
<text text-anchor="middle" x="164.647" y="-8.1" font-family="-adobe-utopia-medium-i-normal--0-0-0-0-p-0-iso10646-1" font-size="12.00">main</text>
</a>
</g>
</g>
<!-- Node1&#45;&gt;Node2 -->
<g id="edge1" class="edge"><title>Node1&#45;&gt;Node2</title>
<path fill="none" stroke="midnightblue" d="M119.001,-11.7C128.266,-11.7 137.147,-11.7 144.515,-11.7"/>
<polygon fill="midnightblue" stroke="midnightblue" points="118.851,-8.2001 108.851,-11.7 118.851,-15.2001 118.851,-8.2001"/>
</g>
</g>
</svg>
