<?xml version="1.0" encoding="UTF-8" standalone="no"?>
<!DOCTYPE svg PUBLIC "-//W3C//DTD SVG 1.1//EN"
 "http://www.w3.org/Graphics/SVG/1.1/DTD/svg11.dtd">
<!-- Generated by graphviz version 2.38.0 (20140413.2041)
 -->
<!-- Title: PolymorphicIndividualsExtractor::valid Pages: 1 -->
<svg width="405pt" height="46pt"
 viewBox="0.00 0.00 405.28 45.80" xmlns="http://www.w3.org/2000/svg" xmlns:xlink="http://www.w3.org/1999/xlink">
<g id="graph0" class="graph" transform="scale(1 1) rotate(0) translate(4 41.8)">
<title>PolymorphicIndividualsExtractor::valid</title>
<polygon fill="white" stroke="none" points="-4,4 -4,-41.8 401.278,-41.8 401.278,4 -4,4"/>
<!-- Node1 -->
<g id="node1" class="node"><title>Node1</title>
<polygon fill="#bfbfbf" stroke="black" points="0,-0.5 0,-37.3 176.633,-37.3 176.633,-0.5 0,-0.5"/>
<text text-anchor="start" x="8" y="-22.5" font-family="-adobe-utopia-medium-i-normal--0-0-0-0-p-0-iso10646-1" font-size="12.00">PolymorphicIndividualsExtractor</text>
<text text-anchor="middle" x="88.3166" y="-8.1" font-family="-adobe-utopia-medium-i-normal--0-0-0-0-p-0-iso10646-1" font-size="12.00">::valid</text>
</g>
<!-- Node2 -->
<g id="node2" class="node"><title>Node2</title>
<g id="a_node2"><a xlink:href="classGERMLINE.html#a7912aa3108f42f42e06c615b460d0565" target="_top" xlink:title="GERMLINE::mine">
<polygon fill="white" stroke="black" points="212.633,-7.7 212.633,-30.1 321.282,-30.1 321.282,-7.7 212.633,-7.7"/>
<text text-anchor="middle" x="266.957" y="-15.3" font-family="-adobe-utopia-medium-i-normal--0-0-0-0-p-0-iso10646-1" font-size="12.00">GERMLINE::mine</text>
</a>
</g>
</g>
<!-- Node1&#45;&gt;Node2 -->
<g id="edge1" class="edge"><title>Node1&#45;&gt;Node2</title>
<path fill="none" stroke="midnightblue" d="M187.093,-18.9C195.778,-18.9 204.34,-18.9 212.437,-18.9"/>
<polygon fill="midnightblue" stroke="midnightblue" points="186.861,-15.4001 176.861,-18.9 186.861,-22.4001 186.861,-15.4001"/>
</g>
<!-- Node3 -->
<g id="node3" class="node"><title>Node3</title>
<g id="a_node3"><a xlink:href="GERMLINE__0001_8cpp.html#a0ddf1224851353fc92bfbff6f499fa97" target="_top" xlink:title="main">
<polygon fill="white" stroke="black" points="357.282,-7.7 357.282,-30.1 397.278,-30.1 397.278,-7.7 357.282,-7.7"/>
<text text-anchor="middle" x="377.28" y="-15.3" font-family="-adobe-utopia-medium-i-normal--0-0-0-0-p-0-iso10646-1" font-size="12.00">main</text>
</a>
</g>
</g>
<!-- Node2&#45;&gt;Node3 -->
<g id="edge2" class="edge"><title>Node2&#45;&gt;Node3</title>
<path fill="none" stroke="midnightblue" d="M331.634,-18.9C340.899,-18.9 349.781,-18.9 357.148,-18.9"/>
<polygon fill="midnightblue" stroke="midnightblue" points="331.484,-15.4001 321.484,-18.9 331.484,-22.4001 331.484,-15.4001"/>
</g>
</g>
</svg>
