<?xml version="1.0" encoding="UTF-8" standalone="no"?>
<!DOCTYPE svg PUBLIC "-//W3C//DTD SVG 1.1//EN"
 "http://www.w3.org/Graphics/SVG/1.1/DTD/svg11.dtd">
<!-- Generated by graphviz version 2.38.0 (20140413.2041)
 -->
<!-- Title: PEDIndividualsExtractor Pages: 1 -->
<svg width="469pt" height="282pt"
 viewBox="0.00 0.00 469.16 281.60" xmlns="http://www.w3.org/2000/svg" xmlns:xlink="http://www.w3.org/1999/xlink">
<g id="graph0" class="graph" transform="scale(1 1) rotate(0) translate(4 277.6)">
<title>PEDIndividualsExtractor</title>
<polygon fill="white" stroke="none" points="-4,4 -4,-277.6 465.157,-277.6 465.157,4 -4,4"/>
<!-- Node1 -->
<g id="node1" class="node"><title>Node1</title>
<polygon fill="#bfbfbf" stroke="black" points="230.85,-0.5 230.85,-22.9 368.15,-22.9 368.15,-0.5 230.85,-0.5"/>
<text text-anchor="middle" x="299.5" y="-8.1" font-family="-adobe-utopia-medium-i-normal--0-0-0-0-p-0-iso10646-1" font-size="12.00">PEDIndividualsExtractor</text>
</g>
<!-- Node2 -->
<g id="node2" class="node"><title>Node2</title>
<g id="a_node2"><a xlink:href="classPolymorphicIndividualsExtractor.html" target="_top" xlink:title="PolymorphicIndividualsExtractor">
<polygon fill="white" stroke="black" points="41.1834,-88.7 41.1834,-111.1 217.817,-111.1 217.817,-88.7 41.1834,-88.7"/>
<text text-anchor="middle" x="129.5" y="-96.3" font-family="-adobe-utopia-medium-i-normal--0-0-0-0-p-0-iso10646-1" font-size="12.00">PolymorphicIndividualsExtractor</text>
</a>
</g>
</g>
<!-- Node2&#45;&gt;Node1 -->
<g id="edge1" class="edge"><title>Node2&#45;&gt;Node1</title>
<path fill="none" stroke="midnightblue" d="M158.763,-84.062C193.2,-66.6004 249.467,-38.0699 279.357,-22.9135"/>
<polygon fill="midnightblue" stroke="midnightblue" points="157.005,-81.0291 149.669,-88.6732 160.171,-87.2724 157.005,-81.0291"/>
</g>
<!-- Node3 -->
<g id="node3" class="node"><title>Node3</title>
<polygon fill="white" stroke="#bfbfbf" points="0,-176.9 0,-199.3 29,-199.3 29,-176.9 0,-176.9"/>
<text text-anchor="middle" x="14.3348" y="-184.5" font-family="-adobe-utopia-medium-i-normal--0-0-0-0-p-0-iso10646-1" font-size="12.00">int</text>
</g>
<!-- Node3&#45;&gt;Node2 -->
<g id="edge2" class="edge"><title>Node3&#45;&gt;Node2</title>
<path fill="none" stroke="#9a32cd" stroke-dasharray="5,2" d="M16.4498,-166.42C18.6474,-154.19 23.313,-139.253 33.2092,-129.6 41.7006,-121.317 52.4749,-115.41 63.7201,-111.2"/>
<polygon fill="#9a32cd" stroke="#9a32cd" points="12.9364,-166.28 15.0462,-176.663 19.8716,-167.23 12.9364,-166.28"/>
<text text-anchor="middle" x="79.6454" y="-140.4" font-family="-adobe-utopia-medium-i-normal--0-0-0-0-p-0-iso10646-1" font-size="12.00"> numberOfMarkers</text>
</g>
<!-- Node4 -->
<g id="node4" class="node"><title>Node4</title>
<polygon fill="white" stroke="#bfbfbf" points="110.833,-176.9 110.833,-199.3 148.167,-199.3 148.167,-176.9 110.833,-176.9"/>
<text text-anchor="middle" x="129.5" y="-184.5" font-family="-adobe-utopia-medium-i-normal--0-0-0-0-p-0-iso10646-1" font-size="12.00">bool</text>
</g>
<!-- Node4&#45;&gt;Node2 -->
<g id="edge3" class="edge"><title>Node4&#45;&gt;Node2</title>
<path fill="none" stroke="#9a32cd" stroke-dasharray="5,2" d="M129.5,-166.566C129.5,-149.089 129.5,-124.715 129.5,-111.113"/>
<polygon fill="#9a32cd" stroke="#9a32cd" points="126,-166.873 129.5,-176.873 133,-166.873 126,-166.873"/>
<text text-anchor="middle" x="155.326" y="-147.6" font-family="-adobe-utopia-medium-i-normal--0-0-0-0-p-0-iso10646-1" font-size="12.00"> valid_flag</text>
<text text-anchor="middle" x="155.326" y="-133.2" font-family="-adobe-utopia-medium-i-normal--0-0-0-0-p-0-iso10646-1" font-size="12.00">phased</text>
</g>
<!-- Node5 -->
<g id="node5" class="node"><title>Node5</title>
<g id="a_node5"><a xlink:href="classIndividuals.html" target="_top" xlink:title="Individuals">
<polygon fill="white" stroke="black" points="169.504,-176.9 169.504,-199.3 239.496,-199.3 239.496,-176.9 169.504,-176.9"/>
<text text-anchor="middle" x="204.5" y="-184.5" font-family="-adobe-utopia-medium-i-normal--0-0-0-0-p-0-iso10646-1" font-size="12.00">Individuals</text>
</a>
</g>
</g>
<!-- Node5&#45;&gt;Node2 -->
<g id="edge4" class="edge"><title>Node5&#45;&gt;Node2</title>
<path fill="none" stroke="#9a32cd" stroke-dasharray="5,2" d="M200.428,-166.659C197.205,-154.746 191.673,-140.059 182.5,-129.6 175.601,-121.733 166.004,-115.633 156.871,-111.119"/>
<polygon fill="#9a32cd" stroke="#9a32cd" points="197.074,-167.688 202.776,-176.618 203.887,-166.081 197.074,-167.688"/>
<text text-anchor="middle" x="230.002" y="-140.4" font-family="-adobe-utopia-medium-i-normal--0-0-0-0-p-0-iso10646-1" font-size="12.00"> individualsP</text>
</g>
<!-- Node6 -->
<g id="node6" class="node"><title>Node6</title>
<polygon fill="white" stroke="#bfbfbf" points="40.5786,-250.7 40.5786,-273.1 164.421,-273.1 164.421,-250.7 40.5786,-250.7"/>
<text text-anchor="middle" x="102.5" y="-258.3" font-family="-adobe-utopia-medium-i-normal--0-0-0-0-p-0-iso10646-1" font-size="12.00">vector&lt; Individual * &gt;</text>
</g>
<!-- Node6&#45;&gt;Node5 -->
<g id="edge5" class="edge"><title>Node6&#45;&gt;Node5</title>
<path fill="none" stroke="#9a32cd" stroke-dasharray="5,2" d="M122.191,-243.992C132.13,-235.746 144.525,-225.888 156.19,-217.8 165.65,-211.241 176.653,-204.631 185.767,-199.41"/>
<polygon fill="#9a32cd" stroke="#9a32cd" points="119.893,-241.351 114.491,-250.465 124.398,-246.71 119.893,-241.351"/>
<text text-anchor="middle" x="178.655" y="-221.4" font-family="-adobe-utopia-medium-i-normal--0-0-0-0-p-0-iso10646-1" font-size="12.00"> pedigree</text>
</g>
<!-- Node7 -->
<g id="node7" class="node"><title>Node7</title>
<polygon fill="white" stroke="#bfbfbf" points="182.505,-250.7 182.505,-273.1 226.495,-273.1 226.495,-250.7 182.505,-250.7"/>
<text text-anchor="middle" x="204.5" y="-258.3" font-family="-adobe-utopia-medium-i-normal--0-0-0-0-p-0-iso10646-1" font-size="12.00">size_t</text>
</g>
<!-- Node7&#45;&gt;Node5 -->
<g id="edge6" class="edge"><title>Node7&#45;&gt;Node5</title>
<path fill="none" stroke="#9a32cd" stroke-dasharray="5,2" d="M204.5,-240.392C204.5,-226.977 204.5,-210.024 204.5,-199.368"/>
<polygon fill="#9a32cd" stroke="#9a32cd" points="201,-240.613 204.5,-250.613 208,-240.613 201,-240.613"/>
<text text-anchor="middle" x="213.996" y="-221.4" font-family="-adobe-utopia-medium-i-normal--0-0-0-0-p-0-iso10646-1" font-size="12.00"> iter</text>
</g>
<!-- Node8 -->
<g id="node8" class="node"><title>Node8</title>
<polygon fill="white" stroke="#bfbfbf" points="244.833,-250.7 244.833,-273.1 282.167,-273.1 282.167,-250.7 244.833,-250.7"/>
<text text-anchor="middle" x="263.5" y="-258.3" font-family="-adobe-utopia-medium-i-normal--0-0-0-0-p-0-iso10646-1" font-size="12.00">long</text>
</g>
<!-- Node8&#45;&gt;Node5 -->
<g id="edge7" class="edge"><title>Node8&#45;&gt;Node5</title>
<path fill="none" stroke="#9a32cd" stroke-dasharray="5,2" d="M248.599,-242.766C237.314,-229.034 222.219,-210.663 212.938,-199.368"/>
<polygon fill="#9a32cd" stroke="#9a32cd" points="245.994,-245.109 255.047,-250.613 251.402,-240.665 245.994,-245.109"/>
<text text-anchor="middle" x="249.998" y="-221.4" font-family="-adobe-utopia-medium-i-normal--0-0-0-0-p-0-iso10646-1" font-size="12.00"> sets</text>
</g>
<!-- Node9 -->
<g id="node9" class="node"><title>Node9</title>
<polygon fill="white" stroke="#bfbfbf" points="235.834,-88.7 235.834,-111.1 279.166,-111.1 279.166,-88.7 235.834,-88.7"/>
<text text-anchor="middle" x="257.5" y="-96.3" font-family="-adobe-utopia-medium-i-normal--0-0-0-0-p-0-iso10646-1" font-size="12.00">string</text>
</g>
<!-- Node9&#45;&gt;Node1 -->
<g id="edge8" class="edge"><title>Node9&#45;&gt;Node1</title>
<path fill="none" stroke="#9a32cd" stroke-dasharray="5,2" d="M263.042,-78.5132C266.518,-67.2195 271.54,-53.1332 277.847,-41.4 281.334,-34.9127 286.207,-28.3082 290.447,-23.0728"/>
<polygon fill="#9a32cd" stroke="#9a32cd" points="259.622,-77.7379 260.19,-88.3175 266.344,-79.6928 259.622,-77.7379"/>
<text text-anchor="middle" x="299.826" y="-59.4" font-family="-adobe-utopia-medium-i-normal--0-0-0-0-p-0-iso10646-1" font-size="12.00"> ped_file</text>
<text text-anchor="middle" x="299.826" y="-45" font-family="-adobe-utopia-medium-i-normal--0-0-0-0-p-0-iso10646-1" font-size="12.00">map_file</text>
</g>
<!-- Node10 -->
<g id="node10" class="node"><title>Node10</title>
<g id="a_node10"><a xlink:href="classNucleotideMap.html" target="_top" xlink:title="NucleotideMap">
<polygon fill="white" stroke="black" points="297.179,-88.7 297.179,-111.1 387.821,-111.1 387.821,-88.7 297.179,-88.7"/>
<text text-anchor="middle" x="342.5" y="-96.3" font-family="-adobe-utopia-medium-i-normal--0-0-0-0-p-0-iso10646-1" font-size="12.00">NucleotideMap</text>
</a>
</g>
</g>
<!-- Node10&#45;&gt;Node1 -->
<g id="edge9" class="edge"><title>Node10&#45;&gt;Node1</title>
<path fill="none" stroke="#9a32cd" stroke-dasharray="5,2" d="M336.205,-78.572C332.352,-67.2966 326.929,-53.2089 320.5,-41.4 317.016,-35.0015 312.283,-28.4039 308.191,-23.1502"/>
<polygon fill="#9a32cd" stroke="#9a32cd" points="332.969,-79.9353 339.4,-88.3546 339.623,-77.7621 332.969,-79.9353"/>
<text text-anchor="middle" x="342.667" y="-52.2" font-family="-adobe-utopia-medium-i-normal--0-0-0-0-p-0-iso10646-1" font-size="12.00"> inp</text>
</g>
<!-- Node11 -->
<g id="node11" class="node"><title>Node11</title>
<polygon fill="white" stroke="#bfbfbf" points="405.843,-88.7 405.843,-111.1 461.157,-111.1 461.157,-88.7 405.843,-88.7"/>
<text text-anchor="middle" x="433.5" y="-96.3" font-family="-adobe-utopia-medium-i-normal--0-0-0-0-p-0-iso10646-1" font-size="12.00">ifstream</text>
</g>
<!-- Node11&#45;&gt;Node1 -->
<g id="edge10" class="edge"><title>Node11&#45;&gt;Node1</title>
<path fill="none" stroke="#9a32cd" stroke-dasharray="5,2" d="M412.72,-82.1448C397.365,-70.1257 375.707,-53.9122 355.5,-41.4 344.633,-34.671 332.002,-28.0979 321.489,-22.9438"/>
<polygon fill="#9a32cd" stroke="#9a32cd" points="410.96,-85.2153 420.973,-88.6772 415.304,-79.7265 410.96,-85.2153"/>
<text text-anchor="middle" x="414.992" y="-52.2" font-family="-adobe-utopia-medium-i-normal--0-0-0-0-p-0-iso10646-1" font-size="12.00"> stream</text>
</g>
</g>
</svg>
