<?xml version="1.0" encoding="UTF-8" standalone="no"?>
<!DOCTYPE svg PUBLIC "-//W3C//DTD SVG 1.1//EN"
 "http://www.w3.org/Graphics/SVG/1.1/DTD/svg11.dtd">
<!-- Generated by graphviz version 2.38.0 (20140413.2041)
 -->
<!-- Title: Match::diff Pages: 1 -->
<svg width="267pt" height="113pt"
 viewBox="0.00 0.00 267.28 113.40" xmlns="http://www.w3.org/2000/svg" xmlns:xlink="http://www.w3.org/1999/xlink">
<g id="graph0" class="graph" transform="scale(1 1) rotate(0) translate(4 109.4)">
<title>Match::diff</title>
<polygon fill="white" stroke="none" points="-4,4 -4,-109.4 263.284,-109.4 263.284,4 -4,4"/>
<!-- Node1 -->
<g id="node1" class="node"><title>Node1</title>
<polygon fill="#bfbfbf" stroke="black" points="0,-41.5 0,-63.9 70.6492,-63.9 70.6492,-41.5 0,-41.5"/>
<text text-anchor="middle" x="35.3246" y="-49.1" font-family="-adobe-utopia-medium-i-normal--0-0-0-0-p-0-iso10646-1" font-size="12.00">Match::diff</text>
</g>
<!-- Node2 -->
<g id="node2" class="node"><title>Node2</title>
<g id="a_node2"><a xlink:href="classIndividual.html#adab24d093d691c3e84bdce0b2d2f3a81" target="_top" xlink:title="Individual::getChromosome">
<polygon fill="white" stroke="black" points="107.307,-82.5 107.307,-104.9 258.625,-104.9 258.625,-82.5 107.307,-82.5"/>
<text text-anchor="middle" x="182.966" y="-90.1" font-family="-adobe-utopia-medium-i-normal--0-0-0-0-p-0-iso10646-1" font-size="12.00">Individual::getChromosome</text>
</a>
</g>
</g>
<!-- Node1&#45;&gt;Node2 -->
<g id="edge1" class="edge"><title>Node1&#45;&gt;Node2</title>
<path fill="none" stroke="midnightblue" d="M70.9596,-63.2721C82.3108,-66.6755 94.9988,-70.4145 106.649,-73.7 113.802,-75.7171 121.352,-77.7893 128.801,-79.8002"/>
<polygon fill="midnightblue" stroke="midnightblue" points="127.927,-83.1894 138.492,-82.3986 129.74,-76.4282 127.927,-83.1894"/>
</g>
<!-- Node3 -->
<g id="node3" class="node"><title>Node3</title>
<g id="a_node3"><a xlink:href="classMarkerSet.html#a4875bf7f161c77ff90c15936fee29ff0" target="_top" xlink:title="MarkerSet::getMarkerBits">
<polygon fill="white" stroke="black" points="111.655,-41.5 111.655,-63.9 254.278,-63.9 254.278,-41.5 111.655,-41.5"/>
<text text-anchor="middle" x="182.966" y="-49.1" font-family="-adobe-utopia-medium-i-normal--0-0-0-0-p-0-iso10646-1" font-size="12.00">MarkerSet::getMarkerBits</text>
</a>
</g>
</g>
<!-- Node1&#45;&gt;Node3 -->
<g id="edge2" class="edge"><title>Node1&#45;&gt;Node3</title>
<path fill="none" stroke="midnightblue" d="M70.8397,-52.7C80.1465,-52.7 90.6203,-52.7 101.322,-52.7"/>
<polygon fill="midnightblue" stroke="midnightblue" points="101.622,-56.2001 111.622,-52.7 101.622,-49.2001 101.622,-56.2001"/>
</g>
<!-- Node4 -->
<g id="node4" class="node"><title>Node4</title>
<g id="a_node4"><a xlink:href="classChromosome.html#a6acf26d0b4a7e2651be613ea14c20a1b" target="_top" xlink:title="Chromosome::getMarkerSet">
<polygon fill="white" stroke="black" points="106.649,-0.5 106.649,-22.9 259.284,-22.9 259.284,-0.5 106.649,-0.5"/>
<text text-anchor="middle" x="182.966" y="-8.1" font-family="-adobe-utopia-medium-i-normal--0-0-0-0-p-0-iso10646-1" font-size="12.00">Chromosome::getMarkerSet</text>
</a>
</g>
</g>
<!-- Node1&#45;&gt;Node4 -->
<g id="edge3" class="edge"><title>Node1&#45;&gt;Node4</title>
<path fill="none" stroke="midnightblue" d="M70.9596,-42.1279C82.3108,-38.7245 94.9988,-34.9855 106.649,-31.7 113.802,-29.6829 121.352,-27.6107 128.801,-25.5998"/>
<polygon fill="midnightblue" stroke="midnightblue" points="129.74,-28.9718 138.492,-23.0014 127.927,-22.2106 129.74,-28.9718"/>
</g>
</g>
</svg>
