<?xml version="1.0" encoding="UTF-8" standalone="no"?>
<!DOCTYPE svg PUBLIC "-//W3C//DTD SVG 1.1//EN"
 "http://www.w3.org/Graphics/SVG/1.1/DTD/svg11.dtd">
<!-- Generated by graphviz version 2.38.0 (20140413.2041)
 -->
<!-- Title: SNPs::processLegendFile Pages: 1 -->
<svg width="461pt" height="400pt"
 viewBox="0.00 0.00 460.60 400.40" xmlns="http://www.w3.org/2000/svg" xmlns:xlink="http://www.w3.org/1999/xlink">
<g id="graph0" class="graph" transform="scale(1 1) rotate(0) translate(4 396.4)">
<title>SNPs::processLegendFile</title>
<polygon fill="white" stroke="none" points="-4,4 -4,-396.4 456.6,-396.4 456.6,4 -4,4"/>
<!-- Node1 -->
<g id="node1" class="node"><title>Node1</title>
<polygon fill="#bfbfbf" stroke="black" points="2.84217e-14,-184.5 2.84217e-14,-206.9 139.974,-206.9 139.974,-184.5 2.84217e-14,-184.5"/>
<text text-anchor="middle" x="69.9872" y="-192.1" font-family="-adobe-utopia-medium-i-normal--0-0-0-0-p-0-iso10646-1" font-size="12.00">SNPs::processLegendFile</text>
</g>
<!-- Node2 -->
<g id="node2" class="node"><title>Node2</title>
<g id="a_node2"><a xlink:href="classSNPs.html#a79df6854d1863b8f2e14fd324ad5752b" target="_top" xlink:title="SNPs::addSNP">
<polygon fill="white" stroke="black" points="204.953,-369.5 204.953,-391.9 293.625,-391.9 293.625,-369.5 204.953,-369.5"/>
<text text-anchor="middle" x="249.289" y="-377.1" font-family="-adobe-utopia-medium-i-normal--0-0-0-0-p-0-iso10646-1" font-size="12.00">SNPs::addSNP</text>
</a>
</g>
</g>
<!-- Node1&#45;&gt;Node2 -->
<g id="edge1" class="edge"><title>Node1&#45;&gt;Node2</title>
<path fill="none" stroke="midnightblue" d="M74.8439,-206.927C85.7023,-236.817 119.474,-318.898 175.974,-360.7 181.603,-364.864 188.056,-368.161 194.738,-370.772"/>
<polygon fill="midnightblue" stroke="midnightblue" points="194.031,-374.228 204.625,-374.127 196.28,-367.599 194.031,-374.228"/>
</g>
<!-- Node4 -->
<g id="node4" class="node"><title>Node4</title>
<g id="a_node4"><a xlink:href="classSNP.html#a1787003e80c13e350f4691cf572a4468" target="_top" xlink:title="SNP::getCentimorgan">
<polygon fill="white" stroke="black" points="188.293,-328.5 188.293,-350.9 310.284,-350.9 310.284,-328.5 188.293,-328.5"/>
<text text-anchor="middle" x="249.289" y="-336.1" font-family="-adobe-utopia-medium-i-normal--0-0-0-0-p-0-iso10646-1" font-size="12.00">SNP::getCentimorgan</text>
</a>
</g>
</g>
<!-- Node1&#45;&gt;Node4 -->
<g id="edge3" class="edge"><title>Node1&#45;&gt;Node4</title>
<path fill="none" stroke="midnightblue" d="M77.2509,-206.906C91.4767,-231.303 128.687,-289.455 175.974,-319.7 178.579,-321.366 181.322,-322.895 184.156,-324.298"/>
<polygon fill="midnightblue" stroke="midnightblue" points="182.89,-327.564 193.455,-328.363 185.694,-321.15 182.89,-327.564"/>
</g>
<!-- Node5 -->
<g id="node5" class="node"><title>Node5</title>
<g id="a_node5"><a xlink:href="classSNPs.html#a966e05b1d44910967919ed5aabf7f3a2" target="_top" xlink:title="SNPs::getGeneticDistance">
<polygon fill="white" stroke="black" points="177.641,-287.5 177.641,-309.9 320.936,-309.9 320.936,-287.5 177.641,-287.5"/>
<text text-anchor="middle" x="249.289" y="-295.1" font-family="-adobe-utopia-medium-i-normal--0-0-0-0-p-0-iso10646-1" font-size="12.00">SNPs::getGeneticDistance</text>
</a>
</g>
</g>
<!-- Node1&#45;&gt;Node5 -->
<g id="edge4" class="edge"><title>Node1&#45;&gt;Node5</title>
<path fill="none" stroke="midnightblue" d="M82.1818,-207.114C100.291,-224.944 137.846,-259.361 175.974,-278.7 179.764,-280.622 183.763,-282.38 187.855,-283.982"/>
<polygon fill="midnightblue" stroke="midnightblue" points="186.926,-287.367 197.52,-287.448 189.288,-280.778 186.926,-287.367"/>
</g>
<!-- Node7 -->
<g id="node7" class="node"><title>Node7</title>
<g id="a_node7"><a xlink:href="classSNP.html#af9eff18f0ff52b1d6184d5f929f90290" target="_top" xlink:title="SNP::setCentimorgan">
<polygon fill="white" stroke="black" points="188.96,-246.5 188.96,-268.9 309.618,-268.9 309.618,-246.5 188.96,-246.5"/>
<text text-anchor="middle" x="249.289" y="-254.1" font-family="-adobe-utopia-medium-i-normal--0-0-0-0-p-0-iso10646-1" font-size="12.00">SNP::setCentimorgan</text>
</a>
</g>
</g>
<!-- Node1&#45;&gt;Node7 -->
<g id="edge7" class="edge"><title>Node1&#45;&gt;Node7</title>
<path fill="none" stroke="midnightblue" d="M97.0062,-207.044C118.071,-216 148.629,-228.48 175.974,-237.7 181.969,-239.721 188.291,-241.695 194.601,-243.567"/>
<polygon fill="midnightblue" stroke="midnightblue" points="193.879,-247.002 204.458,-246.417 195.824,-240.277 193.879,-247.002"/>
</g>
<!-- Node8 -->
<g id="node8" class="node"><title>Node8</title>
<g id="a_node8"><a xlink:href="classSNP.html#a0845feb56b14b488595d93567369f7c5" target="_top" xlink:title="SNP::setChr">
<polygon fill="white" stroke="black" points="211.289,-205.5 211.289,-227.9 287.289,-227.9 287.289,-205.5 211.289,-205.5"/>
<text text-anchor="middle" x="249.289" y="-213.1" font-family="-adobe-utopia-medium-i-normal--0-0-0-0-p-0-iso10646-1" font-size="12.00">SNP::setChr</text>
</a>
</g>
</g>
<!-- Node1&#45;&gt;Node8 -->
<g id="edge8" class="edge"><title>Node1&#45;&gt;Node8</title>
<path fill="none" stroke="midnightblue" d="M140.044,-203.879C160.39,-206.289 182.186,-208.871 200.847,-211.081"/>
<polygon fill="midnightblue" stroke="midnightblue" points="200.521,-214.567 210.864,-212.267 201.345,-207.615 200.521,-214.567"/>
</g>
<!-- Node9 -->
<g id="node9" class="node"><title>Node9</title>
<g id="a_node9"><a xlink:href="classSNPs.html#aab7887e45f048314552ec8c9d657eec8" target="_top" xlink:title="SNPs::setGeneticDistances">
<polygon fill="white" stroke="black" points="175.974,-164.5 175.974,-186.9 322.603,-186.9 322.603,-164.5 175.974,-164.5"/>
<text text-anchor="middle" x="249.289" y="-172.1" font-family="-adobe-utopia-medium-i-normal--0-0-0-0-p-0-iso10646-1" font-size="12.00">SNPs::setGeneticDistances</text>
</a>
</g>
</g>
<!-- Node1&#45;&gt;Node9 -->
<g id="edge9" class="edge"><title>Node1&#45;&gt;Node9</title>
<path fill="none" stroke="midnightblue" d="M140.044,-187.91C148.5,-186.956 157.207,-185.974 165.835,-185.001"/>
<polygon fill="midnightblue" stroke="midnightblue" points="166.363,-188.464 175.908,-183.865 165.578,-181.508 166.363,-188.464"/>
</g>
<!-- Node10 -->
<g id="node10" class="node"><title>Node10</title>
<g id="a_node10"><a xlink:href="classSNP.html#a61968e34d753198196b179a2a3aafce4" target="_top" xlink:title="SNP::setMarkerNumber">
<polygon fill="white" stroke="black" points="182.973,-123.5 182.973,-145.9 315.604,-145.9 315.604,-123.5 182.973,-123.5"/>
<text text-anchor="middle" x="249.289" y="-131.1" font-family="-adobe-utopia-medium-i-normal--0-0-0-0-p-0-iso10646-1" font-size="12.00">SNP::setMarkerNumber</text>
</a>
</g>
</g>
<!-- Node1&#45;&gt;Node10 -->
<g id="edge10" class="edge"><title>Node1&#45;&gt;Node10</title>
<path fill="none" stroke="midnightblue" d="M97.4656,-184.489C118.53,-175.783 148.866,-163.716 175.974,-154.7 182.058,-152.677 188.475,-150.692 194.873,-148.806"/>
<polygon fill="midnightblue" stroke="midnightblue" points="196.218,-152.061 204.86,-145.932 194.282,-145.334 196.218,-152.061"/>
</g>
<!-- Node11 -->
<g id="node11" class="node"><title>Node11</title>
<g id="a_node11"><a xlink:href="classSNP.html#ad7a6b88dd8139d62c7fc24c1a1fe0f6e" target="_top" xlink:title="SNP::setPhysPos">
<polygon fill="white" stroke="black" points="199.95,-82.5 199.95,-104.9 298.627,-104.9 298.627,-82.5 199.95,-82.5"/>
<text text-anchor="middle" x="249.289" y="-90.1" font-family="-adobe-utopia-medium-i-normal--0-0-0-0-p-0-iso10646-1" font-size="12.00">SNP::setPhysPos</text>
</a>
</g>
</g>
<!-- Node1&#45;&gt;Node11 -->
<g id="edge11" class="edge"><title>Node1&#45;&gt;Node11</title>
<path fill="none" stroke="midnightblue" d="M82.2101,-184.431C100.358,-166.826 137.966,-132.838 175.974,-113.7 180.512,-111.415 185.345,-109.363 190.279,-107.524"/>
<polygon fill="midnightblue" stroke="midnightblue" points="191.513,-110.801 199.839,-104.248 189.244,-104.179 191.513,-110.801"/>
</g>
<!-- Node12 -->
<g id="node12" class="node"><title>Node12</title>
<g id="a_node12"><a xlink:href="classSNP.html#a4e0905f0c1d5165fea2185e752ed5089" target="_top" xlink:title="SNP::setSNPID">
<polygon fill="white" stroke="black" points="202.956,-41.5 202.956,-63.9 295.621,-63.9 295.621,-41.5 202.956,-41.5"/>
<text text-anchor="middle" x="249.289" y="-49.1" font-family="-adobe-utopia-medium-i-normal--0-0-0-0-p-0-iso10646-1" font-size="12.00">SNP::setSNPID</text>
</a>
</g>
</g>
<!-- Node1&#45;&gt;Node12 -->
<g id="edge12" class="edge"><title>Node1&#45;&gt;Node12</title>
<path fill="none" stroke="midnightblue" d="M77.4919,-184.218C91.9238,-159.809 129.085,-102.559 175.974,-72.7 181.31,-69.3023 187.224,-66.4739 193.304,-64.1212"/>
<polygon fill="midnightblue" stroke="midnightblue" points="194.622,-67.3689 202.937,-60.8021 192.342,-60.7508 194.622,-67.3689"/>
</g>
<!-- Node13 -->
<g id="node13" class="node"><title>Node13</title>
<g id="a_node13"><a xlink:href="classSNP.html#a48dda4a0e2279f6da968f910d6905877" target="_top" xlink:title="SNP::setVariant">
<polygon fill="white" stroke="black" points="202.297,-0.5 202.297,-22.9 296.28,-22.9 296.28,-0.5 202.297,-0.5"/>
<text text-anchor="middle" x="249.289" y="-8.1" font-family="-adobe-utopia-medium-i-normal--0-0-0-0-p-0-iso10646-1" font-size="12.00">SNP::setVariant</text>
</a>
</g>
</g>
<!-- Node1&#45;&gt;Node13 -->
<g id="edge13" class="edge"><title>Node1&#45;&gt;Node13</title>
<path fill="none" stroke="midnightblue" d="M75.0241,-184.107C86.1015,-154.043 119.932,-73.0433 175.974,-31.7 180.996,-27.9955 186.671,-24.977 192.578,-22.5176"/>
<polygon fill="midnightblue" stroke="midnightblue" points="193.79,-25.8012 201.992,-19.0948 191.398,-19.2226 193.79,-25.8012"/>
</g>
<!-- Node3 -->
<g id="node3" class="node"><title>Node3</title>
<g id="a_node3"><a xlink:href="classSNP.html#a1cf02a7f908f653fb2645935b0bdcc3d" target="_top" xlink:title="SNP::getChr">
<polygon fill="white" stroke="black" points="366.935,-348.5 366.935,-370.9 444.268,-370.9 444.268,-348.5 366.935,-348.5"/>
<text text-anchor="middle" x="405.602" y="-356.1" font-family="-adobe-utopia-medium-i-normal--0-0-0-0-p-0-iso10646-1" font-size="12.00">SNP::getChr</text>
</a>
</g>
</g>
<!-- Node2&#45;&gt;Node3 -->
<g id="edge2" class="edge"><title>Node2&#45;&gt;Node3</title>
<path fill="none" stroke="midnightblue" d="M293.684,-374.794C313.359,-372.117 336.683,-368.943 356.853,-366.198"/>
<polygon fill="midnightblue" stroke="midnightblue" points="357.337,-369.664 366.774,-364.848 356.393,-362.728 357.337,-369.664"/>
</g>
<!-- Node5&#45;&gt;Node3 -->
<g id="edge5" class="edge"><title>Node5&#45;&gt;Node3</title>
<path fill="none" stroke="midnightblue" d="M296.244,-309.965C305.092,-312.539 314.213,-315.477 322.603,-318.7 340.813,-325.695 360.382,-335.39 375.834,-343.596"/>
<polygon fill="midnightblue" stroke="midnightblue" points="374.412,-346.806 384.874,-348.476 377.737,-340.646 374.412,-346.806"/>
</g>
<!-- Node6 -->
<g id="node6" class="node"><title>Node6</title>
<g id="a_node6"><a xlink:href="classSNP.html#acb364c2ba0b3daf71f3a83a9f9f4fa1b" target="_top" xlink:title="SNP::getSNPID">
<polygon fill="white" stroke="black" points="358.603,-287.5 358.603,-309.9 452.6,-309.9 452.6,-287.5 358.603,-287.5"/>
<text text-anchor="middle" x="405.602" y="-295.1" font-family="-adobe-utopia-medium-i-normal--0-0-0-0-p-0-iso10646-1" font-size="12.00">SNP::getSNPID</text>
</a>
</g>
</g>
<!-- Node5&#45;&gt;Node6 -->
<g id="edge6" class="edge"><title>Node5&#45;&gt;Node6</title>
<path fill="none" stroke="midnightblue" d="M321.122,-298.7C330.234,-298.7 339.464,-298.7 348.299,-298.7"/>
<polygon fill="midnightblue" stroke="midnightblue" points="348.459,-302.2 358.459,-298.7 348.459,-295.2 348.459,-302.2"/>
</g>
</g>
</svg>
