<?xml version="1.0" encoding="UTF-8" standalone="no"?>
<!DOCTYPE svg PUBLIC "-//W3C//DTD SVG 1.1//EN"
 "http://www.w3.org/Graphics/SVG/1.1/DTD/svg11.dtd">
<!-- Generated by graphviz version 2.38.0 (20140413.2041)
 -->
<!-- Title: MatchesBuilder::readAllMarkers Pages: 1 -->
<svg width="603pt" height="170pt"
 viewBox="0.00 0.00 602.51 170.40" xmlns="http://www.w3.org/2000/svg" xmlns:xlink="http://www.w3.org/1999/xlink">
<g id="graph0" class="graph" transform="scale(1 1) rotate(0) translate(4 166.4)">
<title>MatchesBuilder::readAllMarkers</title>
<polygon fill="white" stroke="none" points="-4,4 -4,-166.4 598.506,-166.4 598.506,4 -4,4"/>
<!-- Node1 -->
<g id="node1" class="node"><title>Node1</title>
<polygon fill="#bfbfbf" stroke="black" points="-1.42109e-14,-65.5 -1.42109e-14,-87.9 175.27,-87.9 175.27,-65.5 -1.42109e-14,-65.5"/>
<text text-anchor="middle" x="87.635" y="-73.1" font-family="-adobe-utopia-medium-i-normal--0-0-0-0-p-0-iso10646-1" font-size="12.00">MatchesBuilder::readAllMarkers</text>
</g>
<!-- Node2 -->
<g id="node2" class="node"><title>Node2</title>
<g id="a_node2"><a xlink:href="classMatchesBuilder.html#a24030d91efc506dab6732cdb9a89f0ab" target="_top" xlink:title="MatchesBuilder::readHaploid\lMarkerSet">
<polygon fill="white" stroke="black" points="217.262,-83.3 217.262,-120.1 375.882,-120.1 375.882,-83.3 217.262,-83.3"/>
<text text-anchor="start" x="225.262" y="-105.3" font-family="-adobe-utopia-medium-i-normal--0-0-0-0-p-0-iso10646-1" font-size="12.00">MatchesBuilder::readHaploid</text>
<text text-anchor="middle" x="296.572" y="-90.9" font-family="-adobe-utopia-medium-i-normal--0-0-0-0-p-0-iso10646-1" font-size="12.00">MarkerSet</text>
</a>
</g>
</g>
<!-- Node1&#45;&gt;Node2 -->
<g id="edge1" class="edge"><title>Node1&#45;&gt;Node2</title>
<path fill="none" stroke="midnightblue" d="M175.495,-87.1936C185.973,-88.4594 196.683,-89.7533 207.182,-91.0217"/>
<polygon fill="midnightblue" stroke="midnightblue" points="206.821,-94.5034 217.169,-92.2282 207.661,-87.554 206.821,-94.5034"/>
</g>
<!-- Node7 -->
<g id="node7" class="node"><title>Node7</title>
<g id="a_node7"><a xlink:href="classMatchesBuilder.html#a0ce39fec7c735700c83a21f4b53f5bbf" target="_top" xlink:title="MatchesBuilder::readMarkerSet">
<polygon fill="white" stroke="black" points="211.27,-41.5 211.27,-63.9 381.873,-63.9 381.873,-41.5 211.27,-41.5"/>
<text text-anchor="middle" x="296.572" y="-49.1" font-family="-adobe-utopia-medium-i-normal--0-0-0-0-p-0-iso10646-1" font-size="12.00">MatchesBuilder::readMarkerSet</text>
</a>
</g>
</g>
<!-- Node1&#45;&gt;Node7 -->
<g id="edge6" class="edge"><title>Node1&#45;&gt;Node7</title>
<path fill="none" stroke="midnightblue" d="M175.495,-66.6262C184.002,-65.6396 192.662,-64.6352 201.237,-63.6406"/>
<polygon fill="midnightblue" stroke="midnightblue" points="201.721,-67.1081 211.252,-62.4792 200.915,-60.1547 201.721,-67.1081"/>
</g>
<!-- Node3 -->
<g id="node3" class="node"><title>Node3</title>
<g id="a_node3"><a xlink:href="classIndividuals.html#ac1f8fff7b6e6a737ababc975495b5f65" target="_top" xlink:title="Individuals::begin">
<polygon fill="white" stroke="black" points="454.528,-41.5 454.528,-63.9 557.852,-63.9 557.852,-41.5 454.528,-41.5"/>
<text text-anchor="middle" x="506.19" y="-49.1" font-family="-adobe-utopia-medium-i-normal--0-0-0-0-p-0-iso10646-1" font-size="12.00">Individuals::begin</text>
</a>
</g>
</g>
<!-- Node2&#45;&gt;Node3 -->
<g id="edge2" class="edge"><title>Node2&#45;&gt;Node3</title>
<path fill="none" stroke="midnightblue" d="M375.767,-83.245C399.591,-77.6223 425.335,-71.5466 447.54,-66.3059"/>
<polygon fill="midnightblue" stroke="midnightblue" points="448.545,-69.6649 457.474,-63.9614 446.937,-62.8521 448.545,-69.6649"/>
</g>
<!-- Node4 -->
<g id="node4" class="node"><title>Node4</title>
<g id="a_node4"><a xlink:href="classIndividuals.html#ac9d09bbae9d26e39364b099c4366daf1" target="_top" xlink:title="Individuals::more">
<polygon fill="white" stroke="black" points="455.53,-0.5 455.53,-22.9 556.849,-22.9 556.849,-0.5 455.53,-0.5"/>
<text text-anchor="middle" x="506.19" y="-8.1" font-family="-adobe-utopia-medium-i-normal--0-0-0-0-p-0-iso10646-1" font-size="12.00">Individuals::more</text>
</a>
</g>
</g>
<!-- Node2&#45;&gt;Node4 -->
<g id="edge3" class="edge"><title>Node2&#45;&gt;Node4</title>
<path fill="none" stroke="midnightblue" d="M364.538,-83.2843C370.614,-80.4913 376.496,-77.3113 381.873,-73.7 402.283,-59.9925 396.833,-44.4175 417.873,-31.7 426.358,-26.5716 436.032,-22.7571 445.776,-19.9202"/>
<polygon fill="midnightblue" stroke="midnightblue" points="446.702,-23.2959 455.502,-17.3967 444.944,-16.5203 446.702,-23.2959"/>
</g>
<!-- Node5 -->
<g id="node5" class="node"><title>Node5</title>
<g id="a_node5"><a xlink:href="classIndividuals.html#a1bd919e3eef3e84c8849623789051f08" target="_top" xlink:title="Individuals::next">
<polygon fill="white" stroke="black" points="457.528,-139.5 457.528,-161.9 554.852,-161.9 554.852,-139.5 457.528,-139.5"/>
<text text-anchor="middle" x="506.19" y="-147.1" font-family="-adobe-utopia-medium-i-normal--0-0-0-0-p-0-iso10646-1" font-size="12.00">Individuals::next</text>
</a>
</g>
</g>
<!-- Node2&#45;&gt;Node5 -->
<g id="edge4" class="edge"><title>Node2&#45;&gt;Node5</title>
<path fill="none" stroke="midnightblue" d="M375.767,-120.155C399.591,-125.778 425.335,-131.853 447.54,-137.094"/>
<polygon fill="midnightblue" stroke="midnightblue" points="446.937,-140.548 457.474,-139.439 448.545,-133.735 446.937,-140.548"/>
</g>
<!-- Node6 -->
<g id="node6" class="node"><title>Node6</title>
<g id="a_node6"><a xlink:href="classPolymorphicIndividualsExtractor.html#af99fabbecd263daa88696353f9fcfeff" target="_top" xlink:title="PolymorphicIndividualsExtractor\l::getCompleteMarkerSet">
<polygon fill="white" stroke="black" points="417.873,-83.3 417.873,-120.1 594.506,-120.1 594.506,-83.3 417.873,-83.3"/>
<text text-anchor="start" x="425.873" y="-105.3" font-family="-adobe-utopia-medium-i-normal--0-0-0-0-p-0-iso10646-1" font-size="12.00">PolymorphicIndividualsExtractor</text>
<text text-anchor="middle" x="506.19" y="-90.9" font-family="-adobe-utopia-medium-i-normal--0-0-0-0-p-0-iso10646-1" font-size="12.00">::getCompleteMarkerSet</text>
</a>
</g>
</g>
<!-- Node2&#45;&gt;Node6 -->
<g id="edge5" class="edge"><title>Node2&#45;&gt;Node6</title>
<path fill="none" stroke="midnightblue" d="M376.063,-101.7C386.332,-101.7 396.952,-101.7 407.488,-101.7"/>
<polygon fill="midnightblue" stroke="midnightblue" points="407.55,-105.2 417.55,-101.7 407.55,-98.2001 407.55,-105.2"/>
</g>
<!-- Node7&#45;&gt;Node3 -->
<g id="edge7" class="edge"><title>Node7&#45;&gt;Node3</title>
<path fill="none" stroke="midnightblue" d="M382.018,-52.7C402.859,-52.7 424.779,-52.7 444.256,-52.7"/>
<polygon fill="midnightblue" stroke="midnightblue" points="444.5,-56.2001 454.5,-52.7 444.5,-49.2001 444.5,-56.2001"/>
</g>
<!-- Node7&#45;&gt;Node4 -->
<g id="edge8" class="edge"><title>Node7&#45;&gt;Node4</title>
<path fill="none" stroke="midnightblue" d="M354.304,-41.4966C382.55,-35.9186 416.696,-29.1756 445.356,-23.5159"/>
<polygon fill="midnightblue" stroke="midnightblue" points="446.113,-26.934 455.245,-21.5629 444.757,-20.0667 446.113,-26.934"/>
</g>
<!-- Node7&#45;&gt;Node5 -->
<g id="edge9" class="edge"><title>Node7&#45;&gt;Node5</title>
<path fill="none" stroke="midnightblue" d="M363.731,-63.924C370.174,-66.5339 376.356,-69.7464 381.873,-73.7 405.923,-90.935 393.753,-112.563 417.873,-129.7 426.542,-135.859 436.789,-140.227 447.159,-143.321"/>
<polygon fill="midnightblue" stroke="midnightblue" points="446.53,-146.774 457.09,-145.914 448.299,-140.001 446.53,-146.774"/>
</g>
<!-- Node7&#45;&gt;Node6 -->
<g id="edge10" class="edge"><title>Node7&#45;&gt;Node6</title>
<path fill="none" stroke="midnightblue" d="M345.203,-63.9416C366.553,-68.9802 392.438,-75.0895 417.11,-80.9123"/>
<polygon fill="midnightblue" stroke="midnightblue" points="416.321,-84.3222 426.858,-83.2128 417.929,-77.5094 416.321,-84.3222"/>
</g>
</g>
</svg>
