<?xml version="1.0" encoding="UTF-8" standalone="no"?>
<!DOCTYPE svg PUBLIC "-//W3C//DTD SVG 1.1//EN"
 "http://www.w3.org/Graphics/SVG/1.1/DTD/svg11.dtd">
<!-- Generated by graphviz version 2.38.0 (20140413.2041)
 -->
<!-- Title: MatchesBuilder::printHaplotypes Pages: 1 -->
<svg width="324pt" height="154pt"
 viewBox="0.00 0.00 323.95 154.40" xmlns="http://www.w3.org/2000/svg" xmlns:xlink="http://www.w3.org/1999/xlink">
<g id="graph0" class="graph" transform="scale(1 1) rotate(0) translate(4 150.4)">
<title>MatchesBuilder::printHaplotypes</title>
<polygon fill="white" stroke="none" points="-4,4 -4,-150.4 319.954,-150.4 319.954,4 -4,4"/>
<!-- Node1 -->
<g id="node1" class="node"><title>Node1</title>
<polygon fill="#bfbfbf" stroke="black" points="-1.42109e-14,-61.5 -1.42109e-14,-83.9 176.63,-83.9 176.63,-61.5 -1.42109e-14,-61.5"/>
<text text-anchor="middle" x="88.3148" y="-69.1" font-family="-adobe-utopia-medium-i-normal--0-0-0-0-p-0-iso10646-1" font-size="12.00">MatchesBuilder::printHaplotypes</text>
</g>
<!-- Node2 -->
<g id="node2" class="node"><title>Node2</title>
<g id="a_node2"><a xlink:href="classIndividuals.html#ac1f8fff7b6e6a737ababc975495b5f65" target="_top" xlink:title="Individuals::begin">
<polygon fill="white" stroke="black" points="212.63,-123.5 212.63,-145.9 315.954,-145.9 315.954,-123.5 212.63,-123.5"/>
<text text-anchor="middle" x="264.292" y="-131.1" font-family="-adobe-utopia-medium-i-normal--0-0-0-0-p-0-iso10646-1" font-size="12.00">Individuals::begin</text>
</a>
</g>
</g>
<!-- Node1&#45;&gt;Node2 -->
<g id="edge1" class="edge"><title>Node1&#45;&gt;Node2</title>
<path fill="none" stroke="midnightblue" d="M120.821,-83.9277C149.184,-94.0354 191.053,-108.956 222.069,-120.009"/>
<polygon fill="midnightblue" stroke="midnightblue" points="221.132,-123.391 231.727,-123.451 223.482,-116.797 221.132,-123.391"/>
</g>
<!-- Node3 -->
<g id="node3" class="node"><title>Node3</title>
<g id="a_node3"><a xlink:href="classIndividuals.html#ac9d09bbae9d26e39364b099c4366daf1" target="_top" xlink:title="Individuals::more">
<polygon fill="white" stroke="black" points="213.632,-82.5 213.632,-104.9 314.951,-104.9 314.951,-82.5 213.632,-82.5"/>
<text text-anchor="middle" x="264.292" y="-90.1" font-family="-adobe-utopia-medium-i-normal--0-0-0-0-p-0-iso10646-1" font-size="12.00">Individuals::more</text>
</a>
</g>
</g>
<!-- Node1&#45;&gt;Node3 -->
<g id="edge2" class="edge"><title>Node1&#45;&gt;Node3</title>
<path fill="none" stroke="midnightblue" d="M176.813,-83.2615C185.716,-84.3362 194.612,-85.41 203.128,-86.4379"/>
<polygon fill="midnightblue" stroke="midnightblue" points="202.955,-89.9423 213.302,-87.666 203.794,-82.9928 202.955,-89.9423"/>
</g>
<!-- Node4 -->
<g id="node4" class="node"><title>Node4</title>
<g id="a_node4"><a xlink:href="classIndividuals.html#a1bd919e3eef3e84c8849623789051f08" target="_top" xlink:title="Individuals::next">
<polygon fill="white" stroke="black" points="215.63,-41.5 215.63,-63.9 312.954,-63.9 312.954,-41.5 215.63,-41.5"/>
<text text-anchor="middle" x="264.292" y="-49.1" font-family="-adobe-utopia-medium-i-normal--0-0-0-0-p-0-iso10646-1" font-size="12.00">Individuals::next</text>
</a>
</g>
</g>
<!-- Node1&#45;&gt;Node4 -->
<g id="edge3" class="edge"><title>Node1&#45;&gt;Node4</title>
<path fill="none" stroke="midnightblue" d="M176.813,-62.6414C186.527,-61.5247 196.232,-60.409 205.444,-59.35"/>
<polygon fill="midnightblue" stroke="midnightblue" points="206.075,-62.8007 215.61,-58.1814 205.275,-55.8465 206.075,-62.8007"/>
</g>
<!-- Node5 -->
<g id="node5" class="node"><title>Node5</title>
<g id="a_node5"><a xlink:href="classIndividual.html#abe1c9476b63e6aef38b727d71d4abcd1" target="_top" xlink:title="Individual::print">
<polygon fill="white" stroke="black" points="216.962,-0.5 216.962,-22.9 311.622,-22.9 311.622,-0.5 216.962,-0.5"/>
<text text-anchor="middle" x="264.292" y="-8.1" font-family="-adobe-utopia-medium-i-normal--0-0-0-0-p-0-iso10646-1" font-size="12.00">Individual::print</text>
</a>
</g>
</g>
<!-- Node1&#45;&gt;Node5 -->
<g id="edge4" class="edge"><title>Node1&#45;&gt;Node5</title>
<path fill="none" stroke="midnightblue" d="M121.631,-61.3693C149.828,-51.4827 190.914,-37.077 221.586,-26.3229"/>
<polygon fill="midnightblue" stroke="midnightblue" points="222.87,-29.5817 231.149,-22.97 220.554,-22.9759 222.87,-29.5817"/>
</g>
</g>
</svg>
