<?xml version="1.0" encoding="UTF-8" standalone="no"?>
<!DOCTYPE svg PUBLIC "-//W3C//DTD SVG 1.1//EN"
 "http://www.w3.org/Graphics/SVG/1.1/DTD/svg11.dtd">
<!-- Generated by graphviz version 2.38.0 (20140413.2041)
 -->
<!-- Title: SNPs::getGeneticDistance Pages: 1 -->
<svg width="281pt" height="72pt"
 viewBox="0.00 0.00 281.29 72.40" xmlns="http://www.w3.org/2000/svg" xmlns:xlink="http://www.w3.org/1999/xlink">
<g id="graph0" class="graph" transform="scale(1 1) rotate(0) translate(4 68.4)">
<title>SNPs::getGeneticDistance</title>
<polygon fill="white" stroke="none" points="-4,4 -4,-68.4 277.292,-68.4 277.292,4 -4,4"/>
<!-- Node1 -->
<g id="node1" class="node"><title>Node1</title>
<polygon fill="#bfbfbf" stroke="black" points="0,-20.5 0,-42.9 143.295,-42.9 143.295,-20.5 0,-20.5"/>
<text text-anchor="middle" x="71.6474" y="-28.1" font-family="-adobe-utopia-medium-i-normal--0-0-0-0-p-0-iso10646-1" font-size="12.00">SNPs::getGeneticDistance</text>
</g>
<!-- Node2 -->
<g id="node2" class="node"><title>Node2</title>
<g id="a_node2"><a xlink:href="classSNP.html#a1cf02a7f908f653fb2645935b0bdcc3d" target="_top" xlink:title="SNP::getChr">
<polygon fill="white" stroke="black" points="187.627,-41.5 187.627,-63.9 264.96,-63.9 264.96,-41.5 187.627,-41.5"/>
<text text-anchor="middle" x="226.294" y="-49.1" font-family="-adobe-utopia-medium-i-normal--0-0-0-0-p-0-iso10646-1" font-size="12.00">SNP::getChr</text>
</a>
</g>
</g>
<!-- Node1&#45;&gt;Node2 -->
<g id="edge1" class="edge"><title>Node1&#45;&gt;Node2</title>
<path fill="none" stroke="midnightblue" d="M143.608,-41.4623C155.054,-43.0369 166.662,-44.6339 177.395,-46.1104"/>
<polygon fill="midnightblue" stroke="midnightblue" points="176.999,-49.5889 187.383,-47.4845 177.953,-42.6542 176.999,-49.5889"/>
</g>
<!-- Node3 -->
<g id="node3" class="node"><title>Node3</title>
<g id="a_node3"><a xlink:href="classSNP.html#acb364c2ba0b3daf71f3a83a9f9f4fa1b" target="_top" xlink:title="SNP::getSNPID">
<polygon fill="white" stroke="black" points="179.295,-0.5 179.295,-22.9 273.292,-22.9 273.292,-0.5 179.295,-0.5"/>
<text text-anchor="middle" x="226.294" y="-8.1" font-family="-adobe-utopia-medium-i-normal--0-0-0-0-p-0-iso10646-1" font-size="12.00">SNP::getSNPID</text>
</a>
</g>
</g>
<!-- Node1&#45;&gt;Node3 -->
<g id="edge2" class="edge"><title>Node1&#45;&gt;Node3</title>
<path fill="none" stroke="midnightblue" d="M143.608,-22.4026C152.038,-21.298 160.556,-20.182 168.748,-19.1087"/>
<polygon fill="midnightblue" stroke="midnightblue" points="169.458,-22.5457 178.918,-17.7762 168.548,-15.605 169.458,-22.5457"/>
</g>
</g>
</svg>
