<?xml version="1.0" encoding="UTF-8" standalone="no"?>
<!DOCTYPE svg PUBLIC "-//W3C//DTD SVG 1.1//EN"
 "http://www.w3.org/Graphics/SVG/1.1/DTD/svg11.dtd">
<!-- Generated by graphviz version 2.38.0 (20140413.2041)
 -->
<!-- Title: MatchFactory::hash Pages: 1 -->
<svg width="805pt" height="197pt"
 viewBox="0.00 0.00 804.52 197.49" xmlns="http://www.w3.org/2000/svg" xmlns:xlink="http://www.w3.org/1999/xlink">
<g id="graph0" class="graph" transform="scale(1 1) rotate(0) translate(4 193.492)">
<title>MatchFactory::hash</title>
<polygon fill="white" stroke="none" points="-4,4 -4,-193.492 800.519,-193.492 800.519,4 -4,4"/>
<!-- Node1 -->
<g id="node1" class="node"><title>Node1</title>
<polygon fill="#bfbfbf" stroke="black" points="5.68434e-14,-78.5 5.68434e-14,-100.9 111.972,-100.9 111.972,-78.5 5.68434e-14,-78.5"/>
<text text-anchor="middle" x="55.9862" y="-86.1" font-family="-adobe-utopia-medium-i-normal--0-0-0-0-p-0-iso10646-1" font-size="12.00">MatchFactory::hash</text>
</g>
<!-- Node2 -->
<g id="node2" class="node"><title>Node2</title>
<g id="a_node2"><a xlink:href="classIndividual.html#a6e75847d9fdd923bd0cf7a9ec5e2b1a4" target="_top" xlink:title="Individual::assertHomozygous">
<polygon fill="white" stroke="black" points="147.972,-118.5 147.972,-140.9 311.276,-140.9 311.276,-118.5 147.972,-118.5"/>
<text text-anchor="middle" x="229.624" y="-126.1" font-family="-adobe-utopia-medium-i-normal--0-0-0-0-p-0-iso10646-1" font-size="12.00">Individual::assertHomozygous</text>
</a>
</g>
</g>
<!-- Node1&#45;&gt;Node2 -->
<g id="edge1" class="edge"><title>Node1&#45;&gt;Node2</title>
<path fill="none" stroke="midnightblue" d="M105.254,-100.949C125.54,-105.676 149.314,-111.217 170.548,-116.165"/>
<polygon fill="midnightblue" stroke="midnightblue" points="169.888,-119.605 180.422,-118.467 171.477,-112.788 169.888,-119.605"/>
</g>
<!-- Node5 -->
<g id="node5" class="node"><title>Node5</title>
<g id="a_node5"><a xlink:href="classIndividual.html#adab24d093d691c3e84bdce0b2d2f3a81" target="_top" xlink:title="Individual::getChromosome">
<polygon fill="white" stroke="black" points="644.543,-153.5 644.543,-175.9 795.861,-175.9 795.861,-153.5 644.543,-153.5"/>
<text text-anchor="middle" x="720.202" y="-161.1" font-family="-adobe-utopia-medium-i-normal--0-0-0-0-p-0-iso10646-1" font-size="12.00">Individual::getChromosome</text>
</a>
</g>
</g>
<!-- Node1&#45;&gt;Node5 -->
<g id="edge7" class="edge"><title>Node1&#45;&gt;Node5</title>
<path fill="none" stroke="midnightblue" d="M69.0221,-101.13C85.3821,-115.819 116.253,-140.625 147.972,-150.7 313.859,-203.391 520.683,-190.433 634.407,-177.062"/>
<polygon fill="midnightblue" stroke="midnightblue" points="634.937,-180.524 644.446,-175.853 634.099,-173.574 634.937,-180.524"/>
</g>
<!-- Node6 -->
<g id="node6" class="node"><title>Node6</title>
<g id="a_node6"><a xlink:href="classMarkerSet.html#a4875bf7f161c77ff90c15936fee29ff0" target="_top" xlink:title="MarkerSet::getMarkerBits">
<polygon fill="white" stroke="black" points="648.89,-108.5 648.89,-130.9 791.513,-130.9 791.513,-108.5 648.89,-108.5"/>
<text text-anchor="middle" x="720.202" y="-116.1" font-family="-adobe-utopia-medium-i-normal--0-0-0-0-p-0-iso10646-1" font-size="12.00">MarkerSet::getMarkerBits</text>
</a>
</g>
</g>
<!-- Node1&#45;&gt;Node6 -->
<g id="edge8" class="edge"><title>Node1&#45;&gt;Node6</title>
<path fill="none" stroke="midnightblue" d="M112.171,-90.4349C211.446,-92.0173 426.697,-96.6357 607.884,-108.7 617.767,-109.358 628.13,-110.19 638.389,-111.102"/>
<polygon fill="midnightblue" stroke="midnightblue" points="638.315,-114.609 648.593,-112.036 638.953,-107.639 638.315,-114.609"/>
</g>
<!-- Node7 -->
<g id="node7" class="node"><title>Node7</title>
<g id="a_node7"><a xlink:href="classChromosome.html#a6acf26d0b4a7e2651be613ea14c20a1b" target="_top" xlink:title="Chromosome::getMarkerSet">
<polygon fill="white" stroke="black" points="643.884,-58.5 643.884,-80.9 796.519,-80.9 796.519,-58.5 643.884,-58.5"/>
<text text-anchor="middle" x="720.202" y="-66.1" font-family="-adobe-utopia-medium-i-normal--0-0-0-0-p-0-iso10646-1" font-size="12.00">Chromosome::getMarkerSet</text>
</a>
</g>
</g>
<!-- Node1&#45;&gt;Node7 -->
<g id="edge9" class="edge"><title>Node1&#45;&gt;Node7</title>
<path fill="none" stroke="midnightblue" d="M112.17,-79.9236C123.949,-78.1978 136.344,-76.6508 147.972,-75.7 319.792,-61.6504 521.64,-63.9139 633.522,-66.8147"/>
<polygon fill="midnightblue" stroke="midnightblue" points="633.644,-70.3192 643.734,-67.0878 633.831,-63.3217 633.644,-70.3192"/>
</g>
<!-- Node8 -->
<g id="node8" class="node"><title>Node8</title>
<g id="a_node8"><a xlink:href="classIndividual.html#a7c494813e7d0f7f4f235cd75185fd2be" target="_top" xlink:title="Individual::numHet">
<polygon fill="white" stroke="black" points="174.297,-0.5 174.297,-22.9 284.952,-22.9 284.952,-0.5 174.297,-0.5"/>
<text text-anchor="middle" x="229.624" y="-8.1" font-family="-adobe-utopia-medium-i-normal--0-0-0-0-p-0-iso10646-1" font-size="12.00">Individual::numHet</text>
</a>
</g>
</g>
<!-- Node1&#45;&gt;Node8 -->
<g id="edge10" class="edge"><title>Node1&#45;&gt;Node8</title>
<path fill="none" stroke="midnightblue" d="M74.2043,-78.4171C92.0949,-67.0433 121.173,-49.5247 147.972,-37.7 157.662,-33.4246 168.281,-29.4976 178.539,-26.0612"/>
<polygon fill="midnightblue" stroke="midnightblue" points="179.789,-29.3354 188.221,-22.9215 177.629,-22.6767 179.789,-29.3354"/>
</g>
<!-- Node3 -->
<g id="node3" class="node"><title>Node3</title>
<g id="a_node3"><a xlink:href="classMatch.html#afb81327901b29b02ff117406cdec0a4e" target="_top" xlink:title="Match::extendBack">
<polygon fill="white" stroke="black" points="347.276,-118.5 347.276,-140.9 457.246,-140.9 457.246,-118.5 347.276,-118.5"/>
<text text-anchor="middle" x="402.261" y="-126.1" font-family="-adobe-utopia-medium-i-normal--0-0-0-0-p-0-iso10646-1" font-size="12.00">Match::extendBack</text>
</a>
</g>
</g>
<!-- Node2&#45;&gt;Node3 -->
<g id="edge2" class="edge"><title>Node2&#45;&gt;Node3</title>
<path fill="none" stroke="midnightblue" d="M311.445,-129.7C320.019,-129.7 328.653,-129.7 337.001,-129.7"/>
<polygon fill="midnightblue" stroke="midnightblue" points="337.018,-133.2 347.018,-129.7 337.017,-126.2 337.018,-133.2"/>
</g>
<!-- Node4 -->
<g id="node4" class="node"><title>Node4</title>
<g id="a_node4"><a xlink:href="classMatch.html#a7c47a9c7017d308d2ae58fac5a204179" target="_top" xlink:title="Match::approxEqual">
<polygon fill="white" stroke="black" points="493.246,-118.5 493.246,-140.9 607.884,-140.9 607.884,-118.5 493.246,-118.5"/>
<text text-anchor="middle" x="550.565" y="-126.1" font-family="-adobe-utopia-medium-i-normal--0-0-0-0-p-0-iso10646-1" font-size="12.00">Match::approxEqual</text>
</a>
</g>
</g>
<!-- Node3&#45;&gt;Node4 -->
<g id="edge3" class="edge"><title>Node3&#45;&gt;Node4</title>
<path fill="none" stroke="midnightblue" d="M457.323,-129.7C465.541,-129.7 474.104,-129.7 482.557,-129.7"/>
<polygon fill="midnightblue" stroke="midnightblue" points="482.782,-133.2 492.782,-129.7 482.782,-126.2 482.782,-133.2"/>
</g>
<!-- Node4&#45;&gt;Node5 -->
<g id="edge4" class="edge"><title>Node4&#45;&gt;Node5</title>
<path fill="none" stroke="midnightblue" d="M605.529,-140.967C621.382,-144.277 638.873,-147.929 655.284,-151.355"/>
<polygon fill="midnightblue" stroke="midnightblue" points="654.834,-154.837 665.339,-153.454 656.265,-147.984 654.834,-154.837"/>
</g>
<!-- Node4&#45;&gt;Node6 -->
<g id="edge5" class="edge"><title>Node4&#45;&gt;Node6</title>
<path fill="none" stroke="midnightblue" d="M608.319,-126.314C618.079,-125.732 628.387,-125.117 638.631,-124.506"/>
<polygon fill="midnightblue" stroke="midnightblue" points="639.056,-127.987 648.83,-123.898 638.639,-121 639.056,-127.987"/>
</g>
<!-- Node4&#45;&gt;Node7 -->
<g id="edge6" class="edge"><title>Node4&#45;&gt;Node7</title>
<path fill="none" stroke="midnightblue" d="M583.096,-118.414C610.023,-108.777 648.937,-94.849 678.265,-84.3521"/>
<polygon fill="midnightblue" stroke="midnightblue" points="679.576,-87.6001 687.812,-80.9349 677.217,-81.0095 679.576,-87.6001"/>
</g>
</g>
</svg>
