<?xml version="1.0" encoding="UTF-8" standalone="no"?>
<!DOCTYPE svg PUBLIC "-//W3C//DTD SVG 1.1//EN"
 "http://www.w3.org/Graphics/SVG/1.1/DTD/svg11.dtd">
<!-- Generated by graphviz version 2.38.0 (20140413.2041)
 -->
<!-- Title: Individuals::more Pages: 1 -->
<svg width="957pt" height="170pt"
 viewBox="0.00 0.00 957.14 170.40" xmlns="http://www.w3.org/2000/svg" xmlns:xlink="http://www.w3.org/1999/xlink">
<g id="graph0" class="graph" transform="scale(1 1) rotate(0) translate(4 166.4)">
<title>Individuals::more</title>
<polygon fill="white" stroke="none" points="-4,4 -4,-166.4 953.142,-166.4 953.142,4 -4,4"/>
<!-- Node1 -->
<g id="node1" class="node"><title>Node1</title>
<polygon fill="#bfbfbf" stroke="black" points="1.42109e-14,-73.5 1.42109e-14,-95.9 101.319,-95.9 101.319,-73.5 1.42109e-14,-73.5"/>
<text text-anchor="middle" x="50.6594" y="-81.1" font-family="-adobe-utopia-medium-i-normal--0-0-0-0-p-0-iso10646-1" font-size="12.00">Individuals::more</text>
</g>
<!-- Node2 -->
<g id="node2" class="node"><title>Node2</title>
<g id="a_node2"><a xlink:href="classMatchesBuilder.html#af44853a4e7540f4f54a802a5d0c45faf" target="_top" xlink:title="MatchesBuilder::matchMarkerSet">
<polygon fill="white" stroke="black" points="137.319,-139.5 137.319,-161.9 316.597,-161.9 316.597,-139.5 137.319,-139.5"/>
<text text-anchor="middle" x="226.958" y="-147.1" font-family="-adobe-utopia-medium-i-normal--0-0-0-0-p-0-iso10646-1" font-size="12.00">MatchesBuilder::matchMarkerSet</text>
</a>
</g>
</g>
<!-- Node1&#45;&gt;Node2 -->
<g id="edge1" class="edge"><title>Node1&#45;&gt;Node2</title>
<path fill="none" stroke="midnightblue" d="M78.3911,-101.491C94.857,-111.208 116.697,-123 137.319,-130.7 146.334,-134.066 156.086,-136.964 165.711,-139.425"/>
<polygon fill="midnightblue" stroke="midnightblue" points="79.7392,-98.2177 69.3671,-96.0568 76.1279,-104.214 79.7392,-98.2177"/>
</g>
<!-- Node7 -->
<g id="node7" class="node"><title>Node7</title>
<g id="a_node7"><a xlink:href="classMatchesBuilder.html#a4d8d324cb0d0bab5c991c3d68d3783e7" target="_top" xlink:title="MatchesBuilder::printHaplotypes">
<polygon fill="white" stroke="black" points="138.643,-98.5 138.643,-120.9 315.273,-120.9 315.273,-98.5 138.643,-98.5"/>
<text text-anchor="middle" x="226.958" y="-106.1" font-family="-adobe-utopia-medium-i-normal--0-0-0-0-p-0-iso10646-1" font-size="12.00">MatchesBuilder::printHaplotypes</text>
</a>
</g>
</g>
<!-- Node1&#45;&gt;Node7 -->
<g id="edge6" class="edge"><title>Node1&#45;&gt;Node7</title>
<path fill="none" stroke="midnightblue" d="M111.616,-93.2997C123.244,-94.9676 135.59,-96.7383 147.704,-98.4759"/>
<polygon fill="midnightblue" stroke="midnightblue" points="112.002,-89.8193 101.606,-91.864 111.008,-96.7484 112.002,-89.8193"/>
</g>
<!-- Node8 -->
<g id="node8" class="node"><title>Node8</title>
<g id="a_node8"><a xlink:href="classMatchesBuilder.html#a24030d91efc506dab6732cdb9a89f0ab" target="_top" xlink:title="MatchesBuilder::readHaploid\lMarkerSet">
<polygon fill="white" stroke="black" points="147.648,-42.3 147.648,-79.1 306.268,-79.1 306.268,-42.3 147.648,-42.3"/>
<text text-anchor="start" x="155.648" y="-64.3" font-family="-adobe-utopia-medium-i-normal--0-0-0-0-p-0-iso10646-1" font-size="12.00">MatchesBuilder::readHaploid</text>
<text text-anchor="middle" x="226.958" y="-49.9" font-family="-adobe-utopia-medium-i-normal--0-0-0-0-p-0-iso10646-1" font-size="12.00">MarkerSet</text>
</a>
</g>
</g>
<!-- Node1&#45;&gt;Node8 -->
<g id="edge7" class="edge"><title>Node1&#45;&gt;Node8</title>
<path fill="none" stroke="midnightblue" d="M111.545,-76.4541C123.089,-74.8646 135.342,-73.1773 147.375,-71.5204"/>
<polygon fill="midnightblue" stroke="midnightblue" points="111.035,-72.9911 101.606,-77.8226 111.99,-79.9257 111.035,-72.9911"/>
</g>
<!-- Node10 -->
<g id="node10" class="node"><title>Node10</title>
<g id="a_node10"><a xlink:href="classMatchesBuilder.html#a0ce39fec7c735700c83a21f4b53f5bbf" target="_top" xlink:title="MatchesBuilder::readMarkerSet">
<polygon fill="white" stroke="black" points="141.656,-0.5 141.656,-22.9 312.259,-22.9 312.259,-0.5 141.656,-0.5"/>
<text text-anchor="middle" x="226.958" y="-8.1" font-family="-adobe-utopia-medium-i-normal--0-0-0-0-p-0-iso10646-1" font-size="12.00">MatchesBuilder::readMarkerSet</text>
</a>
</g>
</g>
<!-- Node1&#45;&gt;Node10 -->
<g id="edge10" class="edge"><title>Node1&#45;&gt;Node10</title>
<path fill="none" stroke="midnightblue" d="M75.4913,-67.4302C92.1065,-56.1091 115.181,-41.7769 137.319,-32.7 146.684,-28.8603 156.906,-25.628 166.972,-22.9393"/>
<polygon fill="midnightblue" stroke="midnightblue" points="73.1818,-64.7732 66.9721,-73.3575 77.1797,-70.5193 73.1818,-64.7732"/>
</g>
<!-- Node3 -->
<g id="node3" class="node"><title>Node3</title>
<g id="a_node3"><a xlink:href="classMatchesBuilder.html#ae8d8a0ff7f0726406e83d4fa55a96bf4" target="_top" xlink:title="MatchesBuilder::matchAll\lMarkers">
<polygon fill="white" stroke="black" points="368.248,-111.3 368.248,-148.1 512.216,-148.1 512.216,-111.3 368.248,-111.3"/>
<text text-anchor="start" x="376.248" y="-133.3" font-family="-adobe-utopia-medium-i-normal--0-0-0-0-p-0-iso10646-1" font-size="12.00">MatchesBuilder::matchAll</text>
<text text-anchor="middle" x="440.232" y="-118.9" font-family="-adobe-utopia-medium-i-normal--0-0-0-0-p-0-iso10646-1" font-size="12.00">Markers</text>
</a>
</g>
</g>
<!-- Node2&#45;&gt;Node3 -->
<g id="edge2" class="edge"><title>Node2&#45;&gt;Node3</title>
<path fill="none" stroke="midnightblue" d="M326.752,-140.88C340.699,-139.494 354.806,-138.092 368.095,-136.771"/>
<polygon fill="midnightblue" stroke="midnightblue" points="326.243,-137.413 316.639,-141.885 326.936,-144.379 326.243,-137.413"/>
</g>
<!-- Node4 -->
<g id="node4" class="node"><title>Node4</title>
<g id="a_node4"><a xlink:href="classMatchesBuilder.html#a31faf645700f38ac0d7d164b57cfebd1" target="_top" xlink:title="MatchesBuilder::buildMatches">
<polygon fill="white" stroke="black" points="563.867,-83.5 563.867,-105.9 728.498,-105.9 728.498,-83.5 563.867,-83.5"/>
<text text-anchor="middle" x="646.182" y="-91.1" font-family="-adobe-utopia-medium-i-normal--0-0-0-0-p-0-iso10646-1" font-size="12.00">MatchesBuilder::buildMatches</text>
</a>
</g>
</g>
<!-- Node3&#45;&gt;Node4 -->
<g id="edge3" class="edge"><title>Node3&#45;&gt;Node4</title>
<path fill="none" stroke="midnightblue" d="M522.18,-115.808C541.325,-112.523 561.505,-109.06 579.857,-105.91"/>
<polygon fill="midnightblue" stroke="midnightblue" points="521.541,-112.367 512.277,-117.508 522.725,-119.266 521.541,-112.367"/>
</g>
<!-- Node5 -->
<g id="node5" class="node"><title>Node5</title>
<g id="a_node5"><a xlink:href="classGERMLINE.html#a7912aa3108f42f42e06c615b460d0565" target="_top" xlink:title="GERMLINE::mine">
<polygon fill="white" stroke="black" points="764.498,-83.5 764.498,-105.9 873.146,-105.9 873.146,-83.5 764.498,-83.5"/>
<text text-anchor="middle" x="818.822" y="-91.1" font-family="-adobe-utopia-medium-i-normal--0-0-0-0-p-0-iso10646-1" font-size="12.00">GERMLINE::mine</text>
</a>
</g>
</g>
<!-- Node4&#45;&gt;Node5 -->
<g id="edge4" class="edge"><title>Node4&#45;&gt;Node5</title>
<path fill="none" stroke="midnightblue" d="M738.507,-94.7C747.352,-94.7 756.111,-94.7 764.401,-94.7"/>
<polygon fill="midnightblue" stroke="midnightblue" points="738.504,-91.2001 728.504,-94.7 738.504,-98.2001 738.504,-91.2001"/>
</g>
<!-- Node6 -->
<g id="node6" class="node"><title>Node6</title>
<g id="a_node6"><a xlink:href="GERMLINE__0001_8cpp.html#a0ddf1224851353fc92bfbff6f499fa97" target="_top" xlink:title="main">
<polygon fill="white" stroke="black" points="909.146,-83.5 909.146,-105.9 949.142,-105.9 949.142,-83.5 909.146,-83.5"/>
<text text-anchor="middle" x="929.144" y="-91.1" font-family="-adobe-utopia-medium-i-normal--0-0-0-0-p-0-iso10646-1" font-size="12.00">main</text>
</a>
</g>
</g>
<!-- Node5&#45;&gt;Node6 -->
<g id="edge5" class="edge"><title>Node5&#45;&gt;Node6</title>
<path fill="none" stroke="midnightblue" d="M883.499,-94.7C892.764,-94.7 901.645,-94.7 909.012,-94.7"/>
<polygon fill="midnightblue" stroke="midnightblue" points="883.348,-91.2001 873.348,-94.7 883.348,-98.2001 883.348,-91.2001"/>
</g>
<!-- Node9 -->
<g id="node9" class="node"><title>Node9</title>
<g id="a_node9"><a xlink:href="classMatchesBuilder.html#ad627b36445ae9df99c732b23c8b06547" target="_top" xlink:title="MatchesBuilder::readAllMarkers">
<polygon fill="white" stroke="black" points="352.597,-49.5 352.597,-71.9 527.867,-71.9 527.867,-49.5 352.597,-49.5"/>
<text text-anchor="middle" x="440.232" y="-57.1" font-family="-adobe-utopia-medium-i-normal--0-0-0-0-p-0-iso10646-1" font-size="12.00">MatchesBuilder::readAllMarkers</text>
</a>
</g>
</g>
<!-- Node8&#45;&gt;Node9 -->
<g id="edge8" class="edge"><title>Node8&#45;&gt;Node9</title>
<path fill="none" stroke="midnightblue" d="M316.651,-60.7C328.501,-60.7 340.644,-60.7 352.46,-60.7"/>
<polygon fill="midnightblue" stroke="midnightblue" points="316.328,-57.2001 306.328,-60.7 316.328,-64.2001 316.328,-57.2001"/>
</g>
<!-- Node9&#45;&gt;Node4 -->
<g id="edge9" class="edge"><title>Node9&#45;&gt;Node4</title>
<path fill="none" stroke="midnightblue" d="M518.647,-73.6057C538.156,-76.858 558.941,-80.3229 577.907,-83.4847"/>
<polygon fill="midnightblue" stroke="midnightblue" points="519.017,-70.1192 508.578,-71.9271 517.866,-77.0239 519.017,-70.1192"/>
</g>
<!-- Node10&#45;&gt;Node9 -->
<g id="edge11" class="edge"><title>Node10&#45;&gt;Node9</title>
<path fill="none" stroke="midnightblue" d="M286.34,-25.2403C319.129,-32.845 359.569,-42.2242 390.621,-49.426"/>
<polygon fill="midnightblue" stroke="midnightblue" points="286.961,-21.7915 276.428,-22.9416 285.379,-28.6105 286.961,-21.7915"/>
</g>
</g>
</svg>
