<?xml version="1.0" encoding="UTF-8" standalone="no"?>
<!DOCTYPE svg PUBLIC "-//W3C//DTD SVG 1.1//EN"
 "http://www.w3.org/Graphics/SVG/1.1/DTD/svg11.dtd">
<!-- Generated by graphviz version 2.38.0 (20140413.2041)
 -->
<!-- Title: Individual::assertHomozygous Pages: 1 -->
<svg width="657pt" height="113pt"
 viewBox="0.00 0.00 656.55 113.40" xmlns="http://www.w3.org/2000/svg" xmlns:xlink="http://www.w3.org/1999/xlink">
<g id="graph0" class="graph" transform="scale(1 1) rotate(0) translate(4 109.4)">
<title>Individual::assertHomozygous</title>
<polygon fill="white" stroke="none" points="-4,4 -4,-109.4 652.546,-109.4 652.546,4 -4,4"/>
<!-- Node1 -->
<g id="node1" class="node"><title>Node1</title>
<polygon fill="#bfbfbf" stroke="black" points="-1.42109e-14,-41.5 -1.42109e-14,-63.9 163.304,-63.9 163.304,-41.5 -1.42109e-14,-41.5"/>
<text text-anchor="middle" x="81.6518" y="-49.1" font-family="-adobe-utopia-medium-i-normal--0-0-0-0-p-0-iso10646-1" font-size="12.00">Individual::assertHomozygous</text>
</g>
<!-- Node2 -->
<g id="node2" class="node"><title>Node2</title>
<g id="a_node2"><a xlink:href="classMatch.html#afb81327901b29b02ff117406cdec0a4e" target="_top" xlink:title="Match::extendBack">
<polygon fill="white" stroke="black" points="199.304,-41.5 199.304,-63.9 309.273,-63.9 309.273,-41.5 199.304,-41.5"/>
<text text-anchor="middle" x="254.288" y="-49.1" font-family="-adobe-utopia-medium-i-normal--0-0-0-0-p-0-iso10646-1" font-size="12.00">Match::extendBack</text>
</a>
</g>
</g>
<!-- Node1&#45;&gt;Node2 -->
<g id="edge1" class="edge"><title>Node1&#45;&gt;Node2</title>
<path fill="none" stroke="midnightblue" d="M163.473,-52.7C172.046,-52.7 180.681,-52.7 189.029,-52.7"/>
<polygon fill="midnightblue" stroke="midnightblue" points="189.045,-56.2001 199.045,-52.7 189.045,-49.2001 189.045,-56.2001"/>
</g>
<!-- Node3 -->
<g id="node3" class="node"><title>Node3</title>
<g id="a_node3"><a xlink:href="classMatch.html#a7c47a9c7017d308d2ae58fac5a204179" target="_top" xlink:title="Match::approxEqual">
<polygon fill="white" stroke="black" points="345.273,-41.5 345.273,-63.9 459.912,-63.9 459.912,-41.5 345.273,-41.5"/>
<text text-anchor="middle" x="402.593" y="-49.1" font-family="-adobe-utopia-medium-i-normal--0-0-0-0-p-0-iso10646-1" font-size="12.00">Match::approxEqual</text>
</a>
</g>
</g>
<!-- Node2&#45;&gt;Node3 -->
<g id="edge2" class="edge"><title>Node2&#45;&gt;Node3</title>
<path fill="none" stroke="midnightblue" d="M309.351,-52.7C317.569,-52.7 326.132,-52.7 334.585,-52.7"/>
<polygon fill="midnightblue" stroke="midnightblue" points="334.81,-56.2001 344.81,-52.7 334.81,-49.2001 334.81,-56.2001"/>
</g>
<!-- Node4 -->
<g id="node4" class="node"><title>Node4</title>
<g id="a_node4"><a xlink:href="classIndividual.html#adab24d093d691c3e84bdce0b2d2f3a81" target="_top" xlink:title="Individual::getChromosome">
<polygon fill="white" stroke="black" points="496.57,-82.5 496.57,-104.9 647.888,-104.9 647.888,-82.5 496.57,-82.5"/>
<text text-anchor="middle" x="572.229" y="-90.1" font-family="-adobe-utopia-medium-i-normal--0-0-0-0-p-0-iso10646-1" font-size="12.00">Individual::getChromosome</text>
</a>
</g>
</g>
<!-- Node3&#45;&gt;Node4 -->
<g id="edge3" class="edge"><title>Node3&#45;&gt;Node4</title>
<path fill="none" stroke="midnightblue" d="M449.4,-63.9034C469.736,-68.8772 493.86,-74.7772 515.253,-80.0096"/>
<polygon fill="midnightblue" stroke="midnightblue" points="514.641,-83.4629 525.186,-82.4389 516.304,-76.6633 514.641,-83.4629"/>
</g>
<!-- Node5 -->
<g id="node5" class="node"><title>Node5</title>
<g id="a_node5"><a xlink:href="classChromosome.html#a6acf26d0b4a7e2651be613ea14c20a1b" target="_top" xlink:title="Chromosome::getMarkerSet">
<polygon fill="white" stroke="black" points="495.912,-41.5 495.912,-63.9 648.546,-63.9 648.546,-41.5 495.912,-41.5"/>
<text text-anchor="middle" x="572.229" y="-49.1" font-family="-adobe-utopia-medium-i-normal--0-0-0-0-p-0-iso10646-1" font-size="12.00">Chromosome::getMarkerSet</text>
</a>
</g>
</g>
<!-- Node3&#45;&gt;Node5 -->
<g id="edge4" class="edge"><title>Node3&#45;&gt;Node5</title>
<path fill="none" stroke="midnightblue" d="M460.347,-52.7C468.539,-52.7 477.118,-52.7 485.721,-52.7"/>
<polygon fill="midnightblue" stroke="midnightblue" points="485.809,-56.2001 495.809,-52.7 485.809,-49.2001 485.809,-56.2001"/>
</g>
<!-- Node6 -->
<g id="node6" class="node"><title>Node6</title>
<g id="a_node6"><a xlink:href="classMarkerSet.html#a4875bf7f161c77ff90c15936fee29ff0" target="_top" xlink:title="MarkerSet::getMarkerBits">
<polygon fill="white" stroke="black" points="500.918,-0.5 500.918,-22.9 643.541,-22.9 643.541,-0.5 500.918,-0.5"/>
<text text-anchor="middle" x="572.229" y="-8.1" font-family="-adobe-utopia-medium-i-normal--0-0-0-0-p-0-iso10646-1" font-size="12.00">MarkerSet::getMarkerBits</text>
</a>
</g>
</g>
<!-- Node3&#45;&gt;Node6 -->
<g id="edge5" class="edge"><title>Node3&#45;&gt;Node6</title>
<path fill="none" stroke="midnightblue" d="M449.4,-41.4966C469.736,-36.5228 493.86,-30.6228 515.253,-25.3904"/>
<polygon fill="midnightblue" stroke="midnightblue" points="516.304,-28.7367 525.186,-22.9611 514.641,-21.9371 516.304,-28.7367"/>
</g>
</g>
</svg>
