<?xml version="1.0" encoding="UTF-8" standalone="no"?>
<!DOCTYPE svg PUBLIC "-//W3C//DTD SVG 1.1//EN"
 "http://www.w3.org/Graphics/SVG/1.1/DTD/svg11.dtd">
<!-- Generated by graphviz version 2.38.0 (20140413.2041)
 -->
<!-- Title: Individuals Pages: 1 -->
<svg width="250pt" height="105pt"
 viewBox="0.00 0.00 249.59 105.20" xmlns="http://www.w3.org/2000/svg" xmlns:xlink="http://www.w3.org/1999/xlink">
<g id="graph0" class="graph" transform="scale(1 1) rotate(0) translate(4 101.2)">
<title>Individuals</title>
<polygon fill="white" stroke="none" points="-4,4 -4,-101.2 245.589,-101.2 245.589,4 -4,4"/>
<!-- Node1 -->
<g id="node1" class="node"><title>Node1</title>
<polygon fill="#bfbfbf" stroke="black" points="128.925,-0.5 128.925,-22.9 198.918,-22.9 198.918,-0.5 128.925,-0.5"/>
<text text-anchor="middle" x="163.921" y="-8.1" font-family="-adobe-utopia-medium-i-normal--0-0-0-0-p-0-iso10646-1" font-size="12.00">Individuals</text>
</g>
<!-- Node2 -->
<g id="node2" class="node"><title>Node2</title>
<polygon fill="white" stroke="#bfbfbf" points="0,-74.3 0,-96.7 123.843,-96.7 123.843,-74.3 0,-74.3"/>
<text text-anchor="middle" x="61.9214" y="-81.9" font-family="-adobe-utopia-medium-i-normal--0-0-0-0-p-0-iso10646-1" font-size="12.00">vector&lt; Individual * &gt;</text>
</g>
<!-- Node2&#45;&gt;Node1 -->
<g id="edge1" class="edge"><title>Node2&#45;&gt;Node1</title>
<path fill="none" stroke="#9a32cd" stroke-dasharray="5,2" d="M81.6126,-67.5921C91.5511,-59.346 103.947,-49.4876 115.611,-41.4 125.072,-34.8409 136.075,-28.2308 145.189,-23.0103"/>
<polygon fill="#9a32cd" stroke="#9a32cd" points="79.3146,-64.9514 73.9122,-74.0654 83.819,-70.3097 79.3146,-64.9514"/>
<text text-anchor="middle" x="138.076" y="-45" font-family="-adobe-utopia-medium-i-normal--0-0-0-0-p-0-iso10646-1" font-size="12.00"> pedigree</text>
</g>
<!-- Node3 -->
<g id="node3" class="node"><title>Node3</title>
<polygon fill="white" stroke="#bfbfbf" points="141.926,-74.3 141.926,-96.7 185.916,-96.7 185.916,-74.3 141.926,-74.3"/>
<text text-anchor="middle" x="163.921" y="-81.9" font-family="-adobe-utopia-medium-i-normal--0-0-0-0-p-0-iso10646-1" font-size="12.00">size_t</text>
</g>
<!-- Node3&#45;&gt;Node1 -->
<g id="edge2" class="edge"><title>Node3&#45;&gt;Node1</title>
<path fill="none" stroke="#9a32cd" stroke-dasharray="5,2" d="M163.921,-63.9918C163.921,-50.5766 163.921,-33.624 163.921,-22.9681"/>
<polygon fill="#9a32cd" stroke="#9a32cd" points="160.421,-64.2128 163.921,-74.2128 167.421,-64.2128 160.421,-64.2128"/>
<text text-anchor="middle" x="173.417" y="-45" font-family="-adobe-utopia-medium-i-normal--0-0-0-0-p-0-iso10646-1" font-size="12.00"> iter</text>
</g>
<!-- Node4 -->
<g id="node4" class="node"><title>Node4</title>
<polygon fill="white" stroke="#bfbfbf" points="204.254,-74.3 204.254,-96.7 241.589,-96.7 241.589,-74.3 204.254,-74.3"/>
<text text-anchor="middle" x="222.921" y="-81.9" font-family="-adobe-utopia-medium-i-normal--0-0-0-0-p-0-iso10646-1" font-size="12.00">long</text>
</g>
<!-- Node4&#45;&gt;Node1 -->
<g id="edge3" class="edge"><title>Node4&#45;&gt;Node1</title>
<path fill="none" stroke="#9a32cd" stroke-dasharray="5,2" d="M208.02,-66.3662C196.736,-52.6335 181.641,-34.2634 172.359,-22.9681"/>
<polygon fill="#9a32cd" stroke="#9a32cd" points="205.415,-68.7087 214.468,-74.2128 210.823,-64.2646 205.415,-68.7087"/>
<text text-anchor="middle" x="209.419" y="-45" font-family="-adobe-utopia-medium-i-normal--0-0-0-0-p-0-iso10646-1" font-size="12.00"> sets</text>
</g>
</g>
</svg>
