<?xml version="1.0" encoding="UTF-8" standalone="no"?>
<!DOCTYPE svg PUBLIC "-//W3C//DTD SVG 1.1//EN"
 "http://www.w3.org/Graphics/SVG/1.1/DTD/svg11.dtd">
<!-- Generated by graphviz version 2.38.0 (20140413.2041)
 -->
<!-- Title: Individual::numHet Pages: 1 -->
<svg width="1083pt" height="46pt"
 viewBox="0.00 0.00 1083.15 45.80" xmlns="http://www.w3.org/2000/svg" xmlns:xlink="http://www.w3.org/1999/xlink">
<g id="graph0" class="graph" transform="scale(1 1) rotate(0) translate(4 41.8)">
<title>Individual::numHet</title>
<polygon fill="white" stroke="none" points="-4,4 -4,-41.8 1079.15,-41.8 1079.15,4 -4,4"/>
<!-- Node1 -->
<g id="node1" class="node"><title>Node1</title>
<polygon fill="#bfbfbf" stroke="black" points="-9.9476e-14,-7.7 -9.9476e-14,-30.1 110.655,-30.1 110.655,-7.7 -9.9476e-14,-7.7"/>
<text text-anchor="middle" x="55.3274" y="-15.3" font-family="-adobe-utopia-medium-i-normal--0-0-0-0-p-0-iso10646-1" font-size="12.00">Individual::numHet</text>
</g>
<!-- Node2 -->
<g id="node2" class="node"><title>Node2</title>
<g id="a_node2"><a xlink:href="classMatchFactory.html#aa1f3b5e8f0e2fbd5ac2dcbc24a9e6812" target="_top" xlink:title="MatchFactory::hash">
<polygon fill="white" stroke="black" points="146.655,-7.7 146.655,-30.1 258.627,-30.1 258.627,-7.7 146.655,-7.7"/>
<text text-anchor="middle" x="202.641" y="-15.3" font-family="-adobe-utopia-medium-i-normal--0-0-0-0-p-0-iso10646-1" font-size="12.00">MatchFactory::hash</text>
</a>
</g>
</g>
<!-- Node1&#45;&gt;Node2 -->
<g id="edge1" class="edge"><title>Node1&#45;&gt;Node2</title>
<path fill="none" stroke="midnightblue" d="M121.041,-18.9C129.48,-18.9 138.063,-18.9 146.329,-18.9"/>
<polygon fill="midnightblue" stroke="midnightblue" points="120.85,-15.4001 110.85,-18.9 120.85,-22.4001 120.85,-15.4001"/>
</g>
<!-- Node3 -->
<g id="node3" class="node"><title>Node3</title>
<g id="a_node3"><a xlink:href="classMatchesBuilder.html#af44853a4e7540f4f54a802a5d0c45faf" target="_top" xlink:title="MatchesBuilder::matchMarkerSet">
<polygon fill="white" stroke="black" points="294.627,-7.7 294.627,-30.1 473.905,-30.1 473.905,-7.7 294.627,-7.7"/>
<text text-anchor="middle" x="384.266" y="-15.3" font-family="-adobe-utopia-medium-i-normal--0-0-0-0-p-0-iso10646-1" font-size="12.00">MatchesBuilder::matchMarkerSet</text>
</a>
</g>
</g>
<!-- Node2&#45;&gt;Node3 -->
<g id="edge2" class="edge"><title>Node2&#45;&gt;Node3</title>
<path fill="none" stroke="midnightblue" d="M269.209,-18.9C277.409,-18.9 285.901,-18.9 294.382,-18.9"/>
<polygon fill="midnightblue" stroke="midnightblue" points="269,-15.4001 259,-18.9 269,-22.4001 269,-15.4001"/>
</g>
<!-- Node4 -->
<g id="node4" class="node"><title>Node4</title>
<g id="a_node4"><a xlink:href="classMatchesBuilder.html#ae8d8a0ff7f0726406e83d4fa55a96bf4" target="_top" xlink:title="MatchesBuilder::matchAll\lMarkers">
<polygon fill="white" stroke="black" points="509.905,-0.5 509.905,-37.3 653.873,-37.3 653.873,-0.5 509.905,-0.5"/>
<text text-anchor="start" x="517.905" y="-22.5" font-family="-adobe-utopia-medium-i-normal--0-0-0-0-p-0-iso10646-1" font-size="12.00">MatchesBuilder::matchAll</text>
<text text-anchor="middle" x="581.889" y="-8.1" font-family="-adobe-utopia-medium-i-normal--0-0-0-0-p-0-iso10646-1" font-size="12.00">Markers</text>
</a>
</g>
</g>
<!-- Node3&#45;&gt;Node4 -->
<g id="edge3" class="edge"><title>Node3&#45;&gt;Node4</title>
<path fill="none" stroke="midnightblue" d="M484.098,-18.9C492.778,-18.9 501.447,-18.9 509.833,-18.9"/>
<polygon fill="midnightblue" stroke="midnightblue" points="483.92,-15.4001 473.92,-18.9 483.92,-22.4001 483.92,-15.4001"/>
</g>
<!-- Node5 -->
<g id="node5" class="node"><title>Node5</title>
<g id="a_node5"><a xlink:href="classMatchesBuilder.html#a31faf645700f38ac0d7d164b57cfebd1" target="_top" xlink:title="MatchesBuilder::buildMatches">
<polygon fill="white" stroke="black" points="689.873,-7.7 689.873,-30.1 854.504,-30.1 854.504,-7.7 689.873,-7.7"/>
<text text-anchor="middle" x="772.189" y="-15.3" font-family="-adobe-utopia-medium-i-normal--0-0-0-0-p-0-iso10646-1" font-size="12.00">MatchesBuilder::buildMatches</text>
</a>
</g>
</g>
<!-- Node4&#45;&gt;Node5 -->
<g id="edge4" class="edge"><title>Node4&#45;&gt;Node5</title>
<path fill="none" stroke="midnightblue" d="M664.299,-18.9C672.751,-18.9 681.343,-18.9 689.795,-18.9"/>
<polygon fill="midnightblue" stroke="midnightblue" points="664.077,-15.4001 654.077,-18.9 664.077,-22.4001 664.077,-15.4001"/>
</g>
<!-- Node6 -->
<g id="node6" class="node"><title>Node6</title>
<g id="a_node6"><a xlink:href="classGERMLINE.html#a7912aa3108f42f42e06c615b460d0565" target="_top" xlink:title="GERMLINE::mine">
<polygon fill="white" stroke="black" points="890.504,-7.7 890.504,-30.1 999.152,-30.1 999.152,-7.7 890.504,-7.7"/>
<text text-anchor="middle" x="944.828" y="-15.3" font-family="-adobe-utopia-medium-i-normal--0-0-0-0-p-0-iso10646-1" font-size="12.00">GERMLINE::mine</text>
</a>
</g>
</g>
<!-- Node5&#45;&gt;Node6 -->
<g id="edge5" class="edge"><title>Node5&#45;&gt;Node6</title>
<path fill="none" stroke="midnightblue" d="M864.513,-18.9C873.359,-18.9 882.118,-18.9 890.407,-18.9"/>
<polygon fill="midnightblue" stroke="midnightblue" points="864.51,-15.4001 854.51,-18.9 864.51,-22.4001 864.51,-15.4001"/>
</g>
<!-- Node7 -->
<g id="node7" class="node"><title>Node7</title>
<g id="a_node7"><a xlink:href="GERMLINE__0001_8cpp.html#a0ddf1224851353fc92bfbff6f499fa97" target="_top" xlink:title="main">
<polygon fill="white" stroke="black" points="1035.15,-7.7 1035.15,-30.1 1075.15,-30.1 1075.15,-7.7 1035.15,-7.7"/>
<text text-anchor="middle" x="1055.15" y="-15.3" font-family="-adobe-utopia-medium-i-normal--0-0-0-0-p-0-iso10646-1" font-size="12.00">main</text>
</a>
</g>
</g>
<!-- Node6&#45;&gt;Node7 -->
<g id="edge6" class="edge"><title>Node6&#45;&gt;Node7</title>
<path fill="none" stroke="midnightblue" d="M1009.51,-18.9C1018.77,-18.9 1027.65,-18.9 1035.02,-18.9"/>
<polygon fill="midnightblue" stroke="midnightblue" points="1009.35,-15.4001 999.355,-18.9 1009.35,-22.4001 1009.35,-15.4001"/>
</g>
</g>
</svg>
