<?xml version="1.0" encoding="UTF-8" standalone="no"?>
<!DOCTYPE svg PUBLIC "-//W3C//DTD SVG 1.1//EN"
 "http://www.w3.org/Graphics/SVG/1.1/DTD/svg11.dtd">
<!-- Generated by graphviz version 2.38.0 (20140413.2041)
 -->
<!-- Title: MatchesBuilder::matchAllMarkers Pages: 1 -->
<svg width="573pt" height="46pt"
 viewBox="0.00 0.00 573.24 45.80" xmlns="http://www.w3.org/2000/svg" xmlns:xlink="http://www.w3.org/1999/xlink">
<g id="graph0" class="graph" transform="scale(1 1) rotate(0) translate(4 41.8)">
<title>MatchesBuilder::matchAllMarkers</title>
<polygon fill="white" stroke="none" points="-4,4 -4,-41.8 569.244,-41.8 569.244,4 -4,4"/>
<!-- Node1 -->
<g id="node1" class="node"><title>Node1</title>
<polygon fill="#bfbfbf" stroke="black" points="2.84217e-14,-0.5 2.84217e-14,-37.3 143.968,-37.3 143.968,-0.5 2.84217e-14,-0.5"/>
<text text-anchor="start" x="8" y="-22.5" font-family="-adobe-utopia-medium-i-normal--0-0-0-0-p-0-iso10646-1" font-size="12.00">MatchesBuilder::matchAll</text>
<text text-anchor="middle" x="71.984" y="-8.1" font-family="-adobe-utopia-medium-i-normal--0-0-0-0-p-0-iso10646-1" font-size="12.00">Markers</text>
</g>
<!-- Node2 -->
<g id="node2" class="node"><title>Node2</title>
<g id="a_node2"><a xlink:href="classMatchesBuilder.html#a31faf645700f38ac0d7d164b57cfebd1" target="_top" xlink:title="MatchesBuilder::buildMatches">
<polygon fill="white" stroke="black" points="179.968,-7.7 179.968,-30.1 344.599,-30.1 344.599,-7.7 179.968,-7.7"/>
<text text-anchor="middle" x="262.283" y="-15.3" font-family="-adobe-utopia-medium-i-normal--0-0-0-0-p-0-iso10646-1" font-size="12.00">MatchesBuilder::buildMatches</text>
</a>
</g>
</g>
<!-- Node1&#45;&gt;Node2 -->
<g id="edge1" class="edge"><title>Node1&#45;&gt;Node2</title>
<path fill="none" stroke="midnightblue" d="M154.394,-18.9C162.846,-18.9 171.438,-18.9 179.89,-18.9"/>
<polygon fill="midnightblue" stroke="midnightblue" points="154.172,-15.4001 144.172,-18.9 154.172,-22.4001 154.172,-15.4001"/>
</g>
<!-- Node3 -->
<g id="node3" class="node"><title>Node3</title>
<g id="a_node3"><a xlink:href="classGERMLINE.html#a7912aa3108f42f42e06c615b460d0565" target="_top" xlink:title="GERMLINE::mine">
<polygon fill="white" stroke="black" points="380.599,-7.7 380.599,-30.1 489.247,-30.1 489.247,-7.7 380.599,-7.7"/>
<text text-anchor="middle" x="434.923" y="-15.3" font-family="-adobe-utopia-medium-i-normal--0-0-0-0-p-0-iso10646-1" font-size="12.00">GERMLINE::mine</text>
</a>
</g>
</g>
<!-- Node2&#45;&gt;Node3 -->
<g id="edge2" class="edge"><title>Node2&#45;&gt;Node3</title>
<path fill="none" stroke="midnightblue" d="M354.608,-18.9C363.454,-18.9 372.212,-18.9 380.502,-18.9"/>
<polygon fill="midnightblue" stroke="midnightblue" points="354.605,-15.4001 344.605,-18.9 354.605,-22.4001 354.605,-15.4001"/>
</g>
<!-- Node4 -->
<g id="node4" class="node"><title>Node4</title>
<g id="a_node4"><a xlink:href="GERMLINE__0001_8cpp.html#a0ddf1224851353fc92bfbff6f499fa97" target="_top" xlink:title="main">
<polygon fill="white" stroke="black" points="525.247,-7.7 525.247,-30.1 565.244,-30.1 565.244,-7.7 525.247,-7.7"/>
<text text-anchor="middle" x="545.245" y="-15.3" font-family="-adobe-utopia-medium-i-normal--0-0-0-0-p-0-iso10646-1" font-size="12.00">main</text>
</a>
</g>
</g>
<!-- Node3&#45;&gt;Node4 -->
<g id="edge3" class="edge"><title>Node3&#45;&gt;Node4</title>
<path fill="none" stroke="midnightblue" d="M499.6,-18.9C508.865,-18.9 517.746,-18.9 525.113,-18.9"/>
<polygon fill="midnightblue" stroke="midnightblue" points="499.45,-15.4001 489.45,-18.9 499.449,-22.4001 499.45,-15.4001"/>
</g>
</g>
</svg>
