<?xml version="1.0" encoding="UTF-8" standalone="no"?>
<!DOCTYPE svg PUBLIC "-//W3C//DTD SVG 1.1//EN"
 "http://www.w3.org/Graphics/SVG/1.1/DTD/svg11.dtd">
<!-- Generated by graphviz version 2.38.0 (20140413.2041)
 -->
<!-- Title: SNPs::processLegendFile Pages: 1 -->
<svg width="318pt" height="46pt"
 viewBox="0.00 0.00 317.94 45.80" xmlns="http://www.w3.org/2000/svg" xmlns:xlink="http://www.w3.org/1999/xlink">
<g id="graph0" class="graph" transform="scale(1 1) rotate(0) translate(4 41.8)">
<title>SNPs::processLegendFile</title>
<polygon fill="white" stroke="none" points="-4,4 -4,-41.8 313.94,-41.8 313.94,4 -4,4"/>
<!-- Node1 -->
<g id="node1" class="node"><title>Node1</title>
<polygon fill="#bfbfbf" stroke="black" points="-2.84217e-14,-7.7 -2.84217e-14,-30.1 139.974,-30.1 139.974,-7.7 -2.84217e-14,-7.7"/>
<text text-anchor="middle" x="69.9872" y="-15.3" font-family="-adobe-utopia-medium-i-normal--0-0-0-0-p-0-iso10646-1" font-size="12.00">SNPs::processLegendFile</text>
</g>
<!-- Node2 -->
<g id="node2" class="node"><title>Node2</title>
<g id="a_node2"><a xlink:href="classHMIndividualsExtractor.html#af7aaa5ed222fd00cc2c36e69a01a3bb3" target="_top" xlink:title="HMIndividualsExtractor\l::loadInput">
<polygon fill="white" stroke="black" points="175.974,-0.5 175.974,-37.3 309.94,-37.3 309.94,-0.5 175.974,-0.5"/>
<text text-anchor="start" x="183.974" y="-22.5" font-family="-adobe-utopia-medium-i-normal--0-0-0-0-p-0-iso10646-1" font-size="12.00">HMIndividualsExtractor</text>
<text text-anchor="middle" x="242.957" y="-8.1" font-family="-adobe-utopia-medium-i-normal--0-0-0-0-p-0-iso10646-1" font-size="12.00">::loadInput</text>
</a>
</g>
</g>
<!-- Node1&#45;&gt;Node2 -->
<g id="edge1" class="edge"><title>Node1&#45;&gt;Node2</title>
<path fill="none" stroke="midnightblue" d="M150.047,-18.9C158.628,-18.9 167.296,-18.9 175.702,-18.9"/>
<polygon fill="midnightblue" stroke="midnightblue" points="150.035,-15.4001 140.035,-18.9 150.034,-22.4001 150.035,-15.4001"/>
</g>
</g>
</svg>
