<?xml version="1.0" encoding="UTF-8" standalone="no"?>
<!DOCTYPE svg PUBLIC "-//W3C//DTD SVG 1.1//EN"
 "http://www.w3.org/Graphics/SVG/1.1/DTD/svg11.dtd">
<!-- Generated by graphviz version 2.38.0 (20140413.2041)
 -->
<!-- Title: MatchesBuilder::readAllMarkers Pages: 1 -->
<svg width="605pt" height="31pt"
 viewBox="0.00 0.00 604.55 31.40" xmlns="http://www.w3.org/2000/svg" xmlns:xlink="http://www.w3.org/1999/xlink">
<g id="graph0" class="graph" transform="scale(1 1) rotate(0) translate(4 27.4)">
<title>MatchesBuilder::readAllMarkers</title>
<polygon fill="white" stroke="none" points="-4,4 -4,-27.4 600.546,-27.4 600.546,4 -4,4"/>
<!-- Node1 -->
<g id="node1" class="node"><title>Node1</title>
<polygon fill="#bfbfbf" stroke="black" points="-7.10543e-14,-0.5 -7.10543e-14,-22.9 175.27,-22.9 175.27,-0.5 -7.10543e-14,-0.5"/>
<text text-anchor="middle" x="87.635" y="-8.1" font-family="-adobe-utopia-medium-i-normal--0-0-0-0-p-0-iso10646-1" font-size="12.00">MatchesBuilder::readAllMarkers</text>
</g>
<!-- Node2 -->
<g id="node2" class="node"><title>Node2</title>
<g id="a_node2"><a xlink:href="classMatchesBuilder.html#a31faf645700f38ac0d7d164b57cfebd1" target="_top" xlink:title="MatchesBuilder::buildMatches">
<polygon fill="white" stroke="black" points="211.27,-0.5 211.27,-22.9 375.901,-22.9 375.901,-0.5 211.27,-0.5"/>
<text text-anchor="middle" x="293.585" y="-8.1" font-family="-adobe-utopia-medium-i-normal--0-0-0-0-p-0-iso10646-1" font-size="12.00">MatchesBuilder::buildMatches</text>
</a>
</g>
</g>
<!-- Node1&#45;&gt;Node2 -->
<g id="edge1" class="edge"><title>Node1&#45;&gt;Node2</title>
<path fill="none" stroke="midnightblue" d="M185.447,-11.7C194.016,-11.7 202.634,-11.7 211.058,-11.7"/>
<polygon fill="midnightblue" stroke="midnightblue" points="185.424,-8.2001 175.424,-11.7 185.424,-15.2001 185.424,-8.2001"/>
</g>
<!-- Node3 -->
<g id="node3" class="node"><title>Node3</title>
<g id="a_node3"><a xlink:href="classGERMLINE.html#a7912aa3108f42f42e06c615b460d0565" target="_top" xlink:title="GERMLINE::mine">
<polygon fill="white" stroke="black" points="411.901,-0.5 411.901,-22.9 520.549,-22.9 520.549,-0.5 411.901,-0.5"/>
<text text-anchor="middle" x="466.225" y="-8.1" font-family="-adobe-utopia-medium-i-normal--0-0-0-0-p-0-iso10646-1" font-size="12.00">GERMLINE::mine</text>
</a>
</g>
</g>
<!-- Node2&#45;&gt;Node3 -->
<g id="edge2" class="edge"><title>Node2&#45;&gt;Node3</title>
<path fill="none" stroke="midnightblue" d="M385.91,-11.7C394.756,-11.7 403.514,-11.7 411.804,-11.7"/>
<polygon fill="midnightblue" stroke="midnightblue" points="385.907,-8.2001 375.907,-11.7 385.907,-15.2001 385.907,-8.2001"/>
</g>
<!-- Node4 -->
<g id="node4" class="node"><title>Node4</title>
<g id="a_node4"><a xlink:href="GERMLINE__0001_8cpp.html#a0ddf1224851353fc92bfbff6f499fa97" target="_top" xlink:title="main">
<polygon fill="white" stroke="black" points="556.549,-0.5 556.549,-22.9 596.546,-22.9 596.546,-0.5 556.549,-0.5"/>
<text text-anchor="middle" x="576.547" y="-8.1" font-family="-adobe-utopia-medium-i-normal--0-0-0-0-p-0-iso10646-1" font-size="12.00">main</text>
</a>
</g>
</g>
<!-- Node3&#45;&gt;Node4 -->
<g id="edge3" class="edge"><title>Node3&#45;&gt;Node4</title>
<path fill="none" stroke="midnightblue" d="M530.902,-11.7C540.167,-11.7 549.048,-11.7 556.415,-11.7"/>
<polygon fill="midnightblue" stroke="midnightblue" points="530.752,-8.2001 520.752,-11.7 530.751,-15.2001 530.752,-8.2001"/>
</g>
</g>
</svg>
