<?xml version="1.0" encoding="UTF-8" standalone="no"?>
<!DOCTYPE svg PUBLIC "-//W3C//DTD SVG 1.1//EN"
 "http://www.w3.org/Graphics/SVG/1.1/DTD/svg11.dtd">
<!-- Generated by graphviz version 2.38.0 (20140413.2041)
 -->
<!-- Title: ChromosomePair::ChromosomePair Pages: 1 -->
<svg width="379pt" height="31pt"
 viewBox="0.00 0.00 378.61 31.40" xmlns="http://www.w3.org/2000/svg" xmlns:xlink="http://www.w3.org/1999/xlink">
<g id="graph0" class="graph" transform="scale(1 1) rotate(0) translate(4 27.4)">
<title>ChromosomePair::ChromosomePair</title>
<polygon fill="white" stroke="none" points="-4,4 -4,-27.4 374.615,-27.4 374.615,4 -4,4"/>
<!-- Node1 -->
<g id="node1" class="node"><title>Node1</title>
<polygon fill="#bfbfbf" stroke="black" points="2.84217e-14,-0.5 2.84217e-14,-22.9 190.646,-22.9 190.646,-0.5 2.84217e-14,-0.5"/>
<text text-anchor="middle" x="95.3228" y="-8.1" font-family="-adobe-utopia-medium-i-normal--0-0-0-0-p-0-iso10646-1" font-size="12.00">ChromosomePair::ChromosomePair</text>
</g>
<!-- Node2 -->
<g id="node2" class="node"><title>Node2</title>
<g id="a_node2"><a xlink:href="classChromosomePair.html#ac5dfb92e43cf6dc7641bfdc69cf019b0" target="_top" xlink:title="ChromosomePair::activate">
<polygon fill="white" stroke="black" points="226.646,-0.5 226.646,-22.9 370.615,-22.9 370.615,-0.5 226.646,-0.5"/>
<text text-anchor="middle" x="298.63" y="-8.1" font-family="-adobe-utopia-medium-i-normal--0-0-0-0-p-0-iso10646-1" font-size="12.00">ChromosomePair::activate</text>
</a>
</g>
</g>
<!-- Node1&#45;&gt;Node2 -->
<g id="edge1" class="edge"><title>Node1&#45;&gt;Node2</title>
<path fill="none" stroke="midnightblue" d="M190.787,-11.7C199.357,-11.7 207.987,-11.7 216.427,-11.7"/>
<polygon fill="midnightblue" stroke="midnightblue" points="216.611,-15.2001 226.611,-11.7 216.611,-8.2001 216.611,-15.2001"/>
</g>
</g>
</svg>
