<?xml version="1.0" encoding="UTF-8" standalone="no"?>
<!DOCTYPE svg PUBLIC "-//W3C//DTD SVG 1.1//EN"
 "http://www.w3.org/Graphics/SVG/1.1/DTD/svg11.dtd">
<!-- Generated by graphviz version 2.38.0 (20140413.2041)
 -->
<!-- Title: GERMLINE_0001.cpp Pages: 1 -->
<svg width="1420pt" height="685pt"
 viewBox="0.00 0.00 1420.00 684.80" xmlns="http://www.w3.org/2000/svg" xmlns:xlink="http://www.w3.org/1999/xlink">
<g id="graph0" class="graph" transform="scale(1 1) rotate(0) translate(4 680.8)">
<title>GERMLINE_0001.cpp</title>
<polygon fill="white" stroke="none" points="-4,4 -4,-680.8 1416,-680.8 1416,4 -4,4"/>
<!-- Node1 -->
<g id="node1" class="node"><title>Node1</title>
<polygon fill="#bfbfbf" stroke="black" points="1162.85,-653.9 1162.85,-676.3 1291.15,-676.3 1291.15,-653.9 1162.85,-653.9"/>
<text text-anchor="middle" x="1227" y="-661.5" font-family="-adobe-utopia-medium-i-normal--0-0-0-0-p-0-iso10646-1" font-size="12.00">GERMLINE_0001.cpp</text>
</g>
<!-- Node2 -->
<g id="node2" class="node"><title>Node2</title>
<g id="a_node2"><a xlink:href="GERMLINE_8h.html" target="_top" xlink:title="GERMLINE.h">
<polygon fill="white" stroke="black" points="955.509,-594.5 955.509,-616.9 1042.49,-616.9 1042.49,-594.5 955.509,-594.5"/>
<text text-anchor="middle" x="999" y="-602.1" font-family="-adobe-utopia-medium-i-normal--0-0-0-0-p-0-iso10646-1" font-size="12.00">GERMLINE.h</text>
</a>
</g>
</g>
<!-- Node1&#45;&gt;Node2 -->
<g id="edge1" class="edge"><title>Node1&#45;&gt;Node2</title>
<path fill="none" stroke="midnightblue" d="M1186.24,-653.838C1148.02,-644.216 1090.75,-629.798 1049.62,-619.443"/>
<polygon fill="midnightblue" stroke="midnightblue" points="1050.34,-616.017 1039.79,-616.97 1048.64,-622.805 1050.34,-616.017"/>
</g>
<!-- Node8 -->
<g id="node8" class="node"><title>Node8</title>
<polygon fill="white" stroke="#bfbfbf" points="1288.83,-0.5 1288.83,-22.9 1341.17,-22.9 1341.17,-0.5 1288.83,-0.5"/>
<text text-anchor="middle" x="1315" y="-8.1" font-family="-adobe-utopia-medium-i-normal--0-0-0-0-p-0-iso10646-1" font-size="12.00">string.h</text>
</g>
<!-- Node1&#45;&gt;Node8 -->
<g id="edge74" class="edge"><title>Node1&#45;&gt;Node8</title>
<path fill="none" stroke="midnightblue" d="M1281.51,-653.823C1336.08,-640.008 1412,-609.593 1412,-547.3 1412,-547.3 1412,-547.3 1412,-129.5 1412,-85.069 1369.95,-48.51 1341.22,-28.7196"/>
<polygon fill="midnightblue" stroke="midnightblue" points="1343.06,-25.7406 1332.79,-23.1259 1339.19,-31.5726 1343.06,-25.7406"/>
</g>
<!-- Node3 -->
<g id="node3" class="node"><title>Node3</title>
<g id="a_node3"><a xlink:href="InputManager_8h.html" target="_top" xlink:title="InputManager.h">
<polygon fill="white" stroke="black" points="952.514,-535.1 952.514,-557.5 1045.49,-557.5 1045.49,-535.1 952.514,-535.1"/>
<text text-anchor="middle" x="999" y="-542.7" font-family="-adobe-utopia-medium-i-normal--0-0-0-0-p-0-iso10646-1" font-size="12.00">InputManager.h</text>
</a>
</g>
</g>
<!-- Node2&#45;&gt;Node3 -->
<g id="edge2" class="edge"><title>Node2&#45;&gt;Node3</title>
<path fill="none" stroke="midnightblue" d="M999,-594.438C999,-587.102 999,-576.979 999,-567.993"/>
<polygon fill="midnightblue" stroke="midnightblue" points="1002.5,-567.861 999,-557.861 995.5,-567.862 1002.5,-567.861"/>
</g>
<!-- Node4 -->
<g id="node4" class="node"><title>Node4</title>
<g id="a_node4"><a xlink:href="BasicDefinitions_8h.html" target="_top" xlink:title="BasicDefinitions.h">
<polygon fill="white" stroke="black" points="1014.18,-59.9 1014.18,-82.3 1119.82,-82.3 1119.82,-59.9 1014.18,-59.9"/>
<text text-anchor="middle" x="1067" y="-67.5" font-family="-adobe-utopia-medium-i-normal--0-0-0-0-p-0-iso10646-1" font-size="12.00">BasicDefinitions.h</text>
</a>
</g>
</g>
<!-- Node2&#45;&gt;Node4 -->
<g id="edge71" class="edge"><title>Node2&#45;&gt;Node4</title>
<path fill="none" stroke="midnightblue" d="M1042.71,-598.921C1133.9,-585.64 1336,-549.28 1336,-487.9 1336,-487.9 1336,-487.9 1336,-188.9 1336,-99.6095 1209.76,-77.8427 1130.24,-72.9886"/>
<polygon fill="midnightblue" stroke="midnightblue" points="1130,-69.4709 1119.82,-72.4325 1129.62,-76.461 1130,-69.4709"/>
</g>
<!-- Node7 -->
<g id="node7" class="node"><title>Node7</title>
<polygon fill="white" stroke="#bfbfbf" points="47.3402,-0.5 47.3402,-22.9 104.66,-22.9 104.66,-0.5 47.3402,-0.5"/>
<text text-anchor="middle" x="76" y="-8.1" font-family="-adobe-utopia-medium-i-normal--0-0-0-0-p-0-iso10646-1" font-size="12.00">iostream</text>
</g>
<!-- Node2&#45;&gt;Node7 -->
<g id="edge72" class="edge"><title>Node2&#45;&gt;Node7</title>
<path fill="none" stroke="midnightblue" d="M955.432,-604.257C763.153,-601.736 0,-585.577 0,-487.9 0,-487.9 0,-487.9 0,-129.5 0,-88.5984 33.1473,-50.7788 55.6599,-29.8095"/>
<polygon fill="midnightblue" stroke="midnightblue" points="58.0084,-32.4047 63.1076,-23.1177 53.3299,-27.1977 58.0084,-32.4047"/>
</g>
<!-- Node10 -->
<g id="node10" class="node"><title>Node10</title>
<g id="a_node10"><a xlink:href="Individuals_8h.html" target="_top" xlink:title="Individuals.h">
<polygon fill="white" stroke="black" points="773.504,-416.3 773.504,-438.7 852.496,-438.7 852.496,-416.3 773.504,-416.3"/>
<text text-anchor="middle" x="813" y="-423.9" font-family="-adobe-utopia-medium-i-normal--0-0-0-0-p-0-iso10646-1" font-size="12.00">Individuals.h</text>
</a>
</g>
</g>
<!-- Node2&#45;&gt;Node10 -->
<g id="edge59" class="edge"><title>Node2&#45;&gt;Node10</title>
<path fill="none" stroke="midnightblue" d="M982.527,-594.329C955.424,-576.77 900.587,-539.122 862,-498.6 847.049,-482.899 833.212,-462.303 824.083,-447.505"/>
<polygon fill="midnightblue" stroke="midnightblue" points="826.955,-445.489 818.799,-438.727 820.957,-449.099 826.955,-445.489"/>
</g>
<!-- Node27 -->
<g id="node27" class="node"><title>Node27</title>
<g id="a_node27"><a xlink:href="MatchesBuilder_8h.html" target="_top" xlink:title="MatchesBuilder.h">
<polygon fill="white" stroke="black" points="710.179,-535.1 710.179,-557.5 811.821,-557.5 811.821,-535.1 710.179,-535.1"/>
<text text-anchor="middle" x="761" y="-542.7" font-family="-adobe-utopia-medium-i-normal--0-0-0-0-p-0-iso10646-1" font-size="12.00">MatchesBuilder.h</text>
</a>
</g>
</g>
<!-- Node2&#45;&gt;Node27 -->
<g id="edge60" class="edge"><title>Node2&#45;&gt;Node27</title>
<path fill="none" stroke="midnightblue" d="M956.45,-594.438C916.469,-584.795 856.521,-570.337 813.566,-559.978"/>
<polygon fill="midnightblue" stroke="midnightblue" points="814.124,-556.512 803.582,-557.57 812.482,-563.317 814.124,-556.512"/>
</g>
<!-- Node30 -->
<g id="node30" class="node"><title>Node30</title>
<polygon fill="white" stroke="#bfbfbf" points="1063.67,-535.1 1063.67,-557.5 1106.33,-557.5 1106.33,-535.1 1063.67,-535.1"/>
<text text-anchor="middle" x="1085" y="-542.7" font-family="-adobe-utopia-medium-i-normal--0-0-0-0-p-0-iso10646-1" font-size="12.00">ctime</text>
</g>
<!-- Node2&#45;&gt;Node30 -->
<g id="edge73" class="edge"><title>Node2&#45;&gt;Node30</title>
<path fill="none" stroke="midnightblue" d="M1014.38,-594.438C1027.26,-585.839 1045.88,-573.411 1060.77,-563.475"/>
<polygon fill="midnightblue" stroke="midnightblue" points="1063.09,-566.129 1069.47,-557.667 1059.21,-560.307 1063.09,-566.129"/>
</g>
<!-- Node3&#45;&gt;Node4 -->
<g id="edge3" class="edge"><title>Node3&#45;&gt;Node4</title>
<path fill="none" stroke="midnightblue" d="M1045.6,-536.266C1114.38,-522.914 1235.1,-499.389 1236,-498.6 1260.81,-476.942 1260,-461.431 1260,-428.5 1260,-428.5 1260,-428.5 1260,-188.9 1260,-155.969 1259.98,-141.374 1236,-118.8 1207.66,-92.1171 1165.46,-80.4389 1130.33,-75.433"/>
<polygon fill="midnightblue" stroke="midnightblue" points="1130.51,-71.9281 1120.15,-74.1376 1129.62,-78.8721 1130.51,-71.9281"/>
</g>
<!-- Node9 -->
<g id="node9" class="node"><title>Node9</title>
<g id="a_node9"><a xlink:href="PolymorphicIndividualsExtractor_8h.html" target="_top" xlink:title="PolymorphicIndividualsExtractor.h">
<polygon fill="white" stroke="black" points="906.183,-475.7 906.183,-498.1 1091.82,-498.1 1091.82,-475.7 906.183,-475.7"/>
<text text-anchor="middle" x="999" y="-483.3" font-family="-adobe-utopia-medium-i-normal--0-0-0-0-p-0-iso10646-1" font-size="12.00">PolymorphicIndividualsExtractor.h</text>
</a>
</g>
</g>
<!-- Node3&#45;&gt;Node9 -->
<g id="edge8" class="edge"><title>Node3&#45;&gt;Node9</title>
<path fill="none" stroke="midnightblue" d="M999,-535.038C999,-527.702 999,-517.579 999,-508.593"/>
<polygon fill="midnightblue" stroke="midnightblue" points="1002.5,-508.461 999,-498.461 995.5,-508.462 1002.5,-508.461"/>
</g>
<!-- Node3&#45;&gt;Node10 -->
<g id="edge57" class="edge"><title>Node3&#45;&gt;Node10</title>
<path fill="none" stroke="midnightblue" d="M971.575,-535.067C950.441,-526.64 920.891,-513.658 897,-498.6 872.506,-483.162 847.4,-461.255 831.095,-446.057"/>
<polygon fill="midnightblue" stroke="midnightblue" points="833.088,-443.124 823.42,-438.79 828.275,-448.207 833.088,-443.124"/>
</g>
<!-- Node16 -->
<g id="node16" class="node"><title>Node16</title>
<polygon fill="white" stroke="#bfbfbf" points="551.334,-59.9 551.334,-82.3 594.666,-82.3 594.666,-59.9 551.334,-59.9"/>
<text text-anchor="middle" x="573" y="-67.5" font-family="-adobe-utopia-medium-i-normal--0-0-0-0-p-0-iso10646-1" font-size="12.00">string</text>
</g>
<!-- Node3&#45;&gt;Node16 -->
<g id="edge58" class="edge"><title>Node3&#45;&gt;Node16</title>
<path fill="none" stroke="midnightblue" d="M1045.67,-535.907C1066.33,-529.178 1088.69,-517.776 1101,-498.6 1121.57,-466.564 1066.75,-421.273 1062,-415.8 949.185,-285.722 913.097,-248.684 756,-178.2 710.222,-157.661 692.169,-167.772 649,-142.2 625.196,-128.099 602.506,-105.567 588.217,-89.8671"/>
<polygon fill="midnightblue" stroke="midnightblue" points="590.807,-87.5129 581.55,-82.361 585.574,-92.1618 590.807,-87.5129"/>
</g>
<!-- Node5 -->
<g id="node5" class="node"><title>Node5</title>
<polygon fill="white" stroke="#bfbfbf" points="877.008,-0.5 877.008,-22.9 922.992,-22.9 922.992,-0.5 877.008,-0.5"/>
<text text-anchor="middle" x="900" y="-8.1" font-family="-adobe-utopia-medium-i-normal--0-0-0-0-p-0-iso10646-1" font-size="12.00">vector</text>
</g>
<!-- Node4&#45;&gt;Node5 -->
<g id="edge4" class="edge"><title>Node4&#45;&gt;Node5</title>
<path fill="none" stroke="midnightblue" d="M1037.14,-59.838C1007.81,-49.7559 963.161,-34.4094 932.84,-23.9876"/>
<polygon fill="midnightblue" stroke="midnightblue" points="933.744,-20.5973 923.149,-20.6567 931.469,-27.2172 933.744,-20.5973"/>
</g>
<!-- Node6 -->
<g id="node6" class="node"><title>Node6</title>
<polygon fill="white" stroke="#bfbfbf" points="1122.01,-0.5 1122.01,-22.9 1173.99,-22.9 1173.99,-0.5 1122.01,-0.5"/>
<text text-anchor="middle" x="1148" y="-8.1" font-family="-adobe-utopia-medium-i-normal--0-0-0-0-p-0-iso10646-1" font-size="12.00">fstream</text>
</g>
<!-- Node4&#45;&gt;Node6 -->
<g id="edge5" class="edge"><title>Node4&#45;&gt;Node6</title>
<path fill="none" stroke="midnightblue" d="M1081.48,-59.838C1093.62,-51.2393 1111.15,-38.8112 1125.17,-28.8749"/>
<polygon fill="midnightblue" stroke="midnightblue" points="1127.24,-31.7042 1133.37,-23.0667 1123.19,-25.9929 1127.24,-31.7042"/>
</g>
<!-- Node4&#45;&gt;Node7 -->
<g id="edge6" class="edge"><title>Node4&#45;&gt;Node7</title>
<path fill="none" stroke="midnightblue" d="M1014.07,-67.0342C837.417,-56.8022 270.541,-23.968 115.51,-14.9885"/>
<polygon fill="midnightblue" stroke="midnightblue" points="115.256,-11.468 105.07,-14.3838 114.851,-18.4563 115.256,-11.468"/>
</g>
<!-- Node4&#45;&gt;Node8 -->
<g id="edge7" class="edge"><title>Node4&#45;&gt;Node8</title>
<path fill="none" stroke="midnightblue" d="M1111.34,-59.838C1159.16,-48.769 1234.4,-31.3544 1278.8,-21.0782"/>
<polygon fill="midnightblue" stroke="midnightblue" points="1279.63,-24.4779 1288.59,-18.8131 1278.06,-17.6582 1279.63,-24.4779"/>
</g>
<!-- Node9&#45;&gt;Node5 -->
<g id="edge56" class="edge"><title>Node9&#45;&gt;Node5</title>
<path fill="none" stroke="midnightblue" d="M1008.2,-475.625C1052.79,-424.566 1239.9,-195.2 1129,-59.4 1104.66,-29.5925 990.654,-18.3177 933.231,-14.4768"/>
<polygon fill="midnightblue" stroke="midnightblue" points="933.402,-10.9808 923.202,-13.8434 932.961,-17.9669 933.402,-10.9808"/>
</g>
<!-- Node9&#45;&gt;Node6 -->
<g id="edge54" class="edge"><title>Node9&#45;&gt;Node6</title>
<path fill="none" stroke="midnightblue" d="M1018.9,-475.585C1096.42,-434.738 1374,-282.122 1374,-190.9 1374,-190.9 1374,-190.9 1374,-129.5 1374,-45.198 1248.36,-21.6758 1184.44,-15.1636"/>
<polygon fill="midnightblue" stroke="midnightblue" points="1184.65,-11.6683 1174.37,-14.2266 1184,-18.6381 1184.65,-11.6683"/>
</g>
<!-- Node9&#45;&gt;Node10 -->
<g id="edge9" class="edge"><title>Node9&#45;&gt;Node10</title>
<path fill="none" stroke="midnightblue" d="M965.747,-475.638C935.16,-466.199 889.62,-452.145 856.223,-441.839"/>
<polygon fill="midnightblue" stroke="midnightblue" points="856.866,-438.374 846.278,-438.77 854.801,-445.063 856.866,-438.374"/>
</g>
<!-- Node13 -->
<g id="node13" class="node"><title>Node13</title>
<g id="a_node13"><a xlink:href="SNPs_8h.html" target="_top" xlink:title="SNPs.h">
<polygon fill="white" stroke="black" points="656.164,-178.7 656.164,-201.1 707.836,-201.1 707.836,-178.7 656.164,-178.7"/>
<text text-anchor="middle" x="682" y="-186.3" font-family="-adobe-utopia-medium-i-normal--0-0-0-0-p-0-iso10646-1" font-size="12.00">SNPs.h</text>
</a>
</g>
</g>
<!-- Node9&#45;&gt;Node13 -->
<g id="edge53" class="edge"><title>Node9&#45;&gt;Node13</title>
<path fill="none" stroke="midnightblue" d="M989.875,-475.426C981.935,-466.142 970.279,-452.097 961,-439.2 917.319,-378.485 925.264,-348.475 871,-297 825.225,-253.577 758.332,-221.52 717.623,-204.568"/>
<polygon fill="midnightblue" stroke="midnightblue" points="718.695,-201.225 708.114,-200.685 716.049,-207.705 718.695,-201.225"/>
</g>
<!-- Node9&#45;&gt;Node16 -->
<g id="edge55" class="edge"><title>Node9&#45;&gt;Node16</title>
<path fill="none" stroke="midnightblue" d="M995.398,-475.354C984.526,-444.739 949.47,-354.394 896,-297 830.914,-227.138 803.68,-218.243 717,-178.2 673.738,-158.215 653.011,-172.22 616,-142.2 599.536,-128.846 587.706,-107.402 580.672,-91.7438"/>
<polygon fill="midnightblue" stroke="midnightblue" points="583.855,-90.2849 576.742,-82.433 577.406,-93.007 583.855,-90.2849"/>
</g>
<!-- Node10&#45;&gt;Node4 -->
<g id="edge10" class="edge"><title>Node10&#45;&gt;Node4</title>
<path fill="none" stroke="midnightblue" d="M834.309,-416.266C879.894,-393.555 988.383,-335.046 1058,-261 1102.66,-213.502 1110.89,-181.767 1094,-118.8 1091.36,-108.942 1086.07,-99.0137 1080.87,-90.8616"/>
<polygon fill="midnightblue" stroke="midnightblue" points="1083.7,-88.8054 1075.18,-82.5108 1077.92,-92.746 1083.7,-88.8054"/>
</g>
<!-- Node11 -->
<g id="node11" class="node"><title>Node11</title>
<g id="a_node11"><a xlink:href="Chromosome_8h.html" target="_top" xlink:title="Chromosome.h">
<polygon fill="white" stroke="black" points="772.17,-297.5 772.17,-319.9 861.83,-319.9 861.83,-297.5 772.17,-297.5"/>
<text text-anchor="middle" x="817" y="-305.1" font-family="-adobe-utopia-medium-i-normal--0-0-0-0-p-0-iso10646-1" font-size="12.00">Chromosome.h</text>
</a>
</g>
</g>
<!-- Node10&#45;&gt;Node11 -->
<g id="edge11" class="edge"><title>Node10&#45;&gt;Node11</title>
<path fill="none" stroke="midnightblue" d="M813.355,-416.135C814.012,-396.962 815.427,-355.628 816.288,-330.485"/>
<polygon fill="midnightblue" stroke="midnightblue" points="819.796,-330.324 816.64,-320.21 812.8,-330.084 819.796,-330.324"/>
</g>
<!-- Node18 -->
<g id="node18" class="node"><title>Node18</title>
<polygon fill="white" stroke="#bfbfbf" points="209.669,-59.9 209.669,-82.3 246.331,-82.3 246.331,-59.9 209.669,-59.9"/>
<text text-anchor="middle" x="228" y="-67.5" font-family="-adobe-utopia-medium-i-normal--0-0-0-0-p-0-iso10646-1" font-size="12.00">map</text>
</g>
<!-- Node10&#45;&gt;Node18 -->
<g id="edge51" class="edge"><title>Node10&#45;&gt;Node18</title>
<path fill="none" stroke="midnightblue" d="M773.081,-423.9C635.578,-413.869 190,-371.976 190,-250.3 190,-250.3 190,-250.3 190,-188.9 190,-153.05 206.389,-113.913 217.641,-91.2677"/>
<polygon fill="midnightblue" stroke="midnightblue" points="220.76,-92.8547 222.229,-82.3621 214.537,-89.6488 220.76,-92.8547"/>
</g>
<!-- Node22 -->
<g id="node22" class="node"><title>Node22</title>
<g id="a_node22"><a xlink:href="Individual_8h.html" target="_top" xlink:title="Individual.h">
<polygon fill="white" stroke="black" points="482.837,-356.9 482.837,-379.3 557.163,-379.3 557.163,-356.9 482.837,-356.9"/>
<text text-anchor="middle" x="520" y="-364.5" font-family="-adobe-utopia-medium-i-normal--0-0-0-0-p-0-iso10646-1" font-size="12.00">Individual.h</text>
</a>
</g>
</g>
<!-- Node10&#45;&gt;Node22 -->
<g id="edge35" class="edge"><title>Node10&#45;&gt;Node22</title>
<path fill="none" stroke="midnightblue" d="M773.379,-419.633C719.735,-409.64 624.413,-391.015 567.161,-379.381"/>
<polygon fill="midnightblue" stroke="midnightblue" points="567.775,-375.934 557.277,-377.365 566.376,-382.793 567.775,-375.934"/>
</g>
<!-- Node26 -->
<g id="node26" class="node"><title>Node26</title>
<polygon fill="white" stroke="#bfbfbf" points="735.008,-356.9 735.008,-379.3 788.992,-379.3 788.992,-356.9 735.008,-356.9"/>
<text text-anchor="middle" x="762" y="-364.5" font-family="-adobe-utopia-medium-i-normal--0-0-0-0-p-0-iso10646-1" font-size="12.00">ostream</text>
</g>
<!-- Node10&#45;&gt;Node26 -->
<g id="edge52" class="edge"><title>Node10&#45;&gt;Node26</title>
<path fill="none" stroke="midnightblue" d="M803.882,-416.238C796.719,-408.176 786.566,-396.749 778.05,-387.164"/>
<polygon fill="midnightblue" stroke="midnightblue" points="780.642,-384.812 771.384,-379.661 775.409,-389.462 780.642,-384.812"/>
</g>
<!-- Node11&#45;&gt;Node4 -->
<g id="edge12" class="edge"><title>Node11&#45;&gt;Node4</title>
<path fill="none" stroke="midnightblue" d="M862.201,-301.806C911.776,-294.474 987.091,-280.498 1008,-261 1056.48,-215.787 1065.4,-131.416 1066.85,-92.6015"/>
<polygon fill="midnightblue" stroke="midnightblue" points="1070.35,-92.6014 1067.09,-82.5202 1063.35,-92.4332 1070.35,-92.6014"/>
</g>
<!-- Node11&#45;&gt;Node5 -->
<g id="edge34" class="edge"><title>Node11&#45;&gt;Node5</title>
<path fill="none" stroke="midnightblue" d="M828.189,-297.461C853.565,-273.383 914.988,-210.056 937,-142.2 949.603,-103.348 927.779,-57.2212 912.643,-31.8375"/>
<polygon fill="midnightblue" stroke="midnightblue" points="915.511,-29.8226 907.255,-23.1831 909.569,-33.5222 915.511,-29.8226"/>
</g>
<!-- Node12 -->
<g id="node12" class="node"><title>Node12</title>
<g id="a_node12"><a xlink:href="MarkerSet_8h.html" target="_top" xlink:title="MarkerSet.h">
<polygon fill="white" stroke="black" points="517.179,-238.1 517.179,-260.5 592.821,-260.5 592.821,-238.1 517.179,-238.1"/>
<text text-anchor="middle" x="555" y="-245.7" font-family="-adobe-utopia-medium-i-normal--0-0-0-0-p-0-iso10646-1" font-size="12.00">MarkerSet.h</text>
</a>
</g>
</g>
<!-- Node11&#45;&gt;Node12 -->
<g id="edge13" class="edge"><title>Node11&#45;&gt;Node12</title>
<path fill="none" stroke="midnightblue" d="M771.861,-298.155C730.266,-289.312 666.56,-275.646 602.938,-261.416"/>
<polygon fill="midnightblue" stroke="midnightblue" points="603.667,-257.993 593.143,-259.221 602.136,-264.823 603.667,-257.993"/>
</g>
<!-- Node12&#45;&gt;Node4 -->
<g id="edge14" class="edge"><title>Node12&#45;&gt;Node4</title>
<path fill="none" stroke="midnightblue" d="M592.987,-238.902C676.404,-218.078 873.23,-167.873 937,-142.2 975.133,-126.849 1016.49,-103.234 1042.07,-87.7255"/>
<polygon fill="midnightblue" stroke="midnightblue" points="1044.05,-90.6175 1050.75,-82.409 1040.4,-84.6485 1044.05,-90.6175"/>
</g>
<!-- Node12&#45;&gt;Node13 -->
<g id="edge15" class="edge"><title>Node12&#45;&gt;Node13</title>
<path fill="none" stroke="midnightblue" d="M577.705,-238.038C597.807,-228.953 627.368,-215.592 649.89,-205.413"/>
<polygon fill="midnightblue" stroke="midnightblue" points="651.392,-208.575 659.063,-201.267 648.509,-202.196 651.392,-208.575"/>
</g>
<!-- Node20 -->
<g id="node20" class="node"><title>Node20</title>
<polygon fill="white" stroke="#bfbfbf" points="255.664,-119.3 255.664,-141.7 286.336,-141.7 286.336,-119.3 255.664,-119.3"/>
<text text-anchor="middle" x="271" y="-126.9" font-family="-adobe-utopia-medium-i-normal--0-0-0-0-p-0-iso10646-1" font-size="12.00">list</text>
</g>
<!-- Node12&#45;&gt;Node20 -->
<g id="edge33" class="edge"><title>Node12&#45;&gt;Node20</title>
<path fill="none" stroke="midnightblue" d="M529.797,-237.935C475.85,-215.748 349.744,-163.885 295.989,-141.777"/>
<polygon fill="midnightblue" stroke="midnightblue" points="297.115,-138.456 286.536,-137.889 294.453,-144.93 297.115,-138.456"/>
</g>
<!-- Node21 -->
<g id="node21" class="node"><title>Node21</title>
<polygon fill="white" stroke="#bfbfbf" points="485.171,-178.7 485.171,-201.1 624.829,-201.1 624.829,-178.7 485.171,-178.7"/>
<text text-anchor="middle" x="555" y="-186.3" font-family="-adobe-utopia-medium-i-normal--0-0-0-0-p-0-iso10646-1" font-size="12.00">boost/dynamic_bitset.hpp</text>
</g>
<!-- Node12&#45;&gt;Node21 -->
<g id="edge32" class="edge"><title>Node12&#45;&gt;Node21</title>
<path fill="none" stroke="midnightblue" d="M555,-238.038C555,-230.702 555,-220.579 555,-211.593"/>
<polygon fill="midnightblue" stroke="midnightblue" points="558.5,-211.461 555,-201.461 551.5,-211.462 558.5,-211.461"/>
</g>
<!-- Node13&#45;&gt;Node4 -->
<g id="edge16" class="edge"><title>Node13&#45;&gt;Node4</title>
<path fill="none" stroke="midnightblue" d="M689.11,-178.507C700.546,-162.701 724.643,-132.967 753,-118.8 795.82,-97.407 925.094,-83.545 1003.79,-76.8432"/>
<polygon fill="midnightblue" stroke="midnightblue" points="1004.39,-80.3047 1014.07,-75.9838 1003.81,-73.329 1004.39,-80.3047"/>
</g>
<!-- Node13&#45;&gt;Node5 -->
<g id="edge28" class="edge"><title>Node13&#45;&gt;Node5</title>
<path fill="none" stroke="midnightblue" d="M656.152,-182.836C648.995,-181.24 641.212,-179.579 634,-178.2 532.416,-158.769 352.72,-205.573 409,-118.8 459.475,-40.9774 765.087,-19.2286 866.974,-14.0992"/>
<polygon fill="midnightblue" stroke="midnightblue" points="867.186,-17.5932 877.006,-13.6153 866.849,-10.6013 867.186,-17.5932"/>
</g>
<!-- Node13&#45;&gt;Node6 -->
<g id="edge27" class="edge"><title>Node13&#45;&gt;Node6</title>
<path fill="none" stroke="midnightblue" d="M707.841,-186.386C794.001,-177.473 1069.38,-144.563 1129,-82.8 1141.75,-69.5864 1146.15,-48.7174 1147.56,-33.1812"/>
<polygon fill="midnightblue" stroke="midnightblue" points="1151.07,-33.18 1148.14,-22.9965 1144.08,-32.7804 1151.07,-33.18"/>
</g>
<!-- Node14 -->
<g id="node14" class="node"><title>Node14</title>
<g id="a_node14"><a xlink:href="NucleotideMap_8h.html" target="_top" xlink:title="NucleotideMap.h">
<polygon fill="white" stroke="black" points="762.179,-119.3 762.179,-141.7 861.821,-141.7 861.821,-119.3 762.179,-119.3"/>
<text text-anchor="middle" x="812" y="-126.9" font-family="-adobe-utopia-medium-i-normal--0-0-0-0-p-0-iso10646-1" font-size="12.00">NucleotideMap.h</text>
</a>
</g>
</g>
<!-- Node13&#45;&gt;Node14 -->
<g id="edge17" class="edge"><title>Node13&#45;&gt;Node14</title>
<path fill="none" stroke="midnightblue" d="M705.241,-178.638C725.818,-169.553 756.077,-156.192 779.132,-146.013"/>
<polygon fill="midnightblue" stroke="midnightblue" points="780.787,-149.108 788.522,-141.867 777.96,-142.704 780.787,-149.108"/>
</g>
<!-- Node15 -->
<g id="node15" class="node"><title>Node15</title>
<g id="a_node15"><a xlink:href="SNP_8h.html" target="_top" xlink:title="SNP.h">
<polygon fill="white" stroke="black" points="658.498,-119.3 658.498,-141.7 705.502,-141.7 705.502,-119.3 658.498,-119.3"/>
<text text-anchor="middle" x="682" y="-126.9" font-family="-adobe-utopia-medium-i-normal--0-0-0-0-p-0-iso10646-1" font-size="12.00">SNP.h</text>
</a>
</g>
</g>
<!-- Node13&#45;&gt;Node15 -->
<g id="edge19" class="edge"><title>Node13&#45;&gt;Node15</title>
<path fill="none" stroke="midnightblue" d="M682,-178.638C682,-171.302 682,-161.179 682,-152.193"/>
<polygon fill="midnightblue" stroke="midnightblue" points="685.5,-152.061 682,-142.061 678.5,-152.062 685.5,-152.061"/>
</g>
<!-- Node13&#45;&gt;Node16 -->
<g id="edge29" class="edge"><title>Node13&#45;&gt;Node16</title>
<path fill="none" stroke="midnightblue" d="M655.965,-180.635C628.346,-171.304 587.411,-155.665 578,-142.2 568.086,-128.015 567.623,-108.028 569.182,-93.0238"/>
<polygon fill="midnightblue" stroke="midnightblue" points="572.707,-93.0919 570.645,-82.6997 565.776,-92.1098 572.707,-93.0919"/>
</g>
<!-- Node17 -->
<g id="node17" class="node"><title>Node17</title>
<g id="a_node17"><a xlink:href="SNPPositionMap_8h.html" target="_top" xlink:title="SNPPositionMap.h">
<polygon fill="white" stroke="black" points="417.83,-119.3 417.83,-141.7 526.17,-141.7 526.17,-119.3 417.83,-119.3"/>
<text text-anchor="middle" x="472" y="-126.9" font-family="-adobe-utopia-medium-i-normal--0-0-0-0-p-0-iso10646-1" font-size="12.00">SNPPositionMap.h</text>
</a>
</g>
</g>
<!-- Node13&#45;&gt;Node17 -->
<g id="edge23" class="edge"><title>Node13&#45;&gt;Node17</title>
<path fill="none" stroke="midnightblue" d="M655.828,-181.746C621.729,-172.426 561.49,-155.961 519.291,-144.426"/>
<polygon fill="midnightblue" stroke="midnightblue" points="520.082,-141.014 509.513,-141.753 518.236,-147.766 520.082,-141.014"/>
</g>
<!-- Node13&#45;&gt;Node18 -->
<g id="edge30" class="edge"><title>Node13&#45;&gt;Node18</title>
<path fill="none" stroke="midnightblue" d="M655.935,-182.601C648.847,-181.022 641.152,-179.429 634,-178.2 503.389,-155.756 462.752,-186.92 338,-142.2 319.901,-135.712 277.416,-106.989 250.858,-88.383"/>
<polygon fill="midnightblue" stroke="midnightblue" points="252.711,-85.4069 242.52,-82.5076 248.679,-91.1289 252.711,-85.4069"/>
</g>
<!-- Node19 -->
<g id="node19" class="node"><title>Node19</title>
<polygon fill="white" stroke="#bfbfbf" points="879.502,-119.3 879.502,-141.7 928.498,-141.7 928.498,-119.3 879.502,-119.3"/>
<text text-anchor="middle" x="904" y="-126.9" font-family="-adobe-utopia-medium-i-normal--0-0-0-0-p-0-iso10646-1" font-size="12.00">math.h</text>
</g>
<!-- Node13&#45;&gt;Node19 -->
<g id="edge26" class="edge"><title>Node13&#45;&gt;Node19</title>
<path fill="none" stroke="midnightblue" d="M708.141,-183.062C742.969,-175.15 806.69,-160.21 869.526,-142.502"/>
<polygon fill="midnightblue" stroke="midnightblue" points="870.53,-145.855 879.192,-139.753 868.616,-139.122 870.53,-145.855"/>
</g>
<!-- Node13&#45;&gt;Node20 -->
<g id="edge31" class="edge"><title>Node13&#45;&gt;Node20</title>
<path fill="none" stroke="midnightblue" d="M655.946,-182.535C648.858,-180.956 641.161,-179.38 634,-178.2 486.683,-153.919 445.358,-176.299 300,-142.2 298.736,-141.904 297.452,-141.568 296.164,-141.202"/>
<polygon fill="midnightblue" stroke="midnightblue" points="297.029,-137.802 286.436,-137.994 294.837,-144.45 297.029,-137.802"/>
</g>
<!-- Node14&#45;&gt;Node4 -->
<g id="edge18" class="edge"><title>Node14&#45;&gt;Node4</title>
<path fill="none" stroke="midnightblue" d="M857.589,-119.238C900.697,-109.534 965.47,-94.9541 1011.55,-84.5815"/>
<polygon fill="midnightblue" stroke="midnightblue" points="1012.39,-87.9804 1021.38,-82.3697 1010.85,-81.1513 1012.39,-87.9804"/>
</g>
<!-- Node15&#45;&gt;Node4 -->
<g id="edge20" class="edge"><title>Node15&#45;&gt;Node4</title>
<path fill="none" stroke="midnightblue" d="M705.59,-122.303C710.332,-121.013 715.302,-119.773 720,-118.8 818.292,-98.4528 934.156,-84.9244 1004.03,-77.884"/>
<polygon fill="midnightblue" stroke="midnightblue" points="1004.39,-81.3652 1014,-76.8923 1003.7,-74.3996 1004.39,-81.3652"/>
</g>
<!-- Node15&#45;&gt;Node5 -->
<g id="edge22" class="edge"><title>Node15&#45;&gt;Node5</title>
<path fill="none" stroke="midnightblue" d="M701.346,-119.135C739.968,-98.4419 826.774,-51.933 871.764,-27.8283"/>
<polygon fill="midnightblue" stroke="midnightblue" points="873.536,-30.8498 880.697,-23.042 870.23,-24.6796 873.536,-30.8498"/>
</g>
<!-- Node15&#45;&gt;Node16 -->
<g id="edge21" class="edge"><title>Node15&#45;&gt;Node16</title>
<path fill="none" stroke="midnightblue" d="M662.513,-119.238C645.568,-110.315 620.792,-97.2678 601.6,-87.161"/>
<polygon fill="midnightblue" stroke="midnightblue" points="603.165,-84.0293 592.686,-82.4667 599.903,-90.223 603.165,-84.0293"/>
</g>
<!-- Node17&#45;&gt;Node16 -->
<g id="edge25" class="edge"><title>Node17&#45;&gt;Node16</title>
<path fill="none" stroke="midnightblue" d="M490.057,-119.238C505.615,-110.396 528.298,-97.5046 546.013,-87.4374"/>
<polygon fill="midnightblue" stroke="midnightblue" points="547.794,-90.4506 554.759,-82.4667 544.336,-84.3648 547.794,-90.4506"/>
</g>
<!-- Node17&#45;&gt;Node18 -->
<g id="edge24" class="edge"><title>Node17&#45;&gt;Node18</title>
<path fill="none" stroke="midnightblue" d="M428.378,-119.238C378.589,-107.525 298.599,-88.708 256.314,-78.7608"/>
<polygon fill="midnightblue" stroke="midnightblue" points="256.954,-75.3157 246.418,-76.4327 255.351,-82.1297 256.954,-75.3157"/>
</g>
<!-- Node22&#45;&gt;Node4 -->
<g id="edge36" class="edge"><title>Node22&#45;&gt;Node4</title>
<path fill="none" stroke="midnightblue" d="M557.394,-364.848C622.108,-360.351 758.82,-348.193 871,-320.4 945.032,-302.058 974.089,-310.633 1032,-261 1082.44,-217.774 1085.67,-184.781 1078,-118.8 1076.97,-109.941 1074.88,-100.322 1072.79,-92.1296"/>
<polygon fill="midnightblue" stroke="midnightblue" points="1076.14,-91.0997 1070.14,-82.365 1069.38,-92.9326 1076.14,-91.0997"/>
</g>
<!-- Node22&#45;&gt;Node7 -->
<g id="edge50" class="edge"><title>Node22&#45;&gt;Node7</title>
<path fill="none" stroke="midnightblue" d="M482.532,-367.696C382.023,-367.153 114,-350.723 114,-190.9 114,-190.9 114,-190.9 114,-129.5 114,-93.6499 97.6112,-54.5129 86.3593,-31.8677"/>
<polygon fill="midnightblue" stroke="midnightblue" points="89.4625,-30.2488 81.7714,-22.9621 83.2398,-33.4547 89.4625,-30.2488"/>
</g>
<!-- Node22&#45;&gt;Node10 -->
<g id="edge45" class="edge"><title>Node22&#45;&gt;Node10</title>
<path fill="none" stroke="midnightblue" d="M557.454,-375.564C609.839,-385.299 704.809,-403.841 763.115,-415.666"/>
<polygon fill="midnightblue" stroke="midnightblue" points="762.706,-419.154 773.203,-417.72 764.103,-412.295 762.706,-419.154"/>
</g>
<!-- Node22&#45;&gt;Node11 -->
<g id="edge37" class="edge"><title>Node22&#45;&gt;Node11</title>
<path fill="none" stroke="midnightblue" d="M557.315,-359.888C608.935,-349.912 702.496,-331.83 762.098,-320.311"/>
<polygon fill="midnightblue" stroke="midnightblue" points="762.932,-323.714 772.086,-318.38 761.604,-316.841 762.932,-323.714"/>
</g>
<!-- Node22&#45;&gt;Node16 -->
<g id="edge46" class="edge"><title>Node22&#45;&gt;Node16</title>
<path fill="none" stroke="midnightblue" d="M492.43,-356.77C454.27,-340.471 390,-304.914 390,-250.3 390,-250.3 390,-250.3 390,-188.9 390,-156.62 386.321,-141.77 409,-118.8 444.117,-83.2333 504.246,-74.2674 541.122,-72.2853"/>
<polygon fill="midnightblue" stroke="midnightblue" points="541.461,-75.7747 551.316,-71.8835 541.186,-68.7801 541.461,-75.7747"/>
</g>
<!-- Node22&#45;&gt;Node18 -->
<g id="edge48" class="edge"><title>Node22&#45;&gt;Node18</title>
<path fill="none" stroke="midnightblue" d="M482.628,-365.344C437.258,-361.859 359.558,-351.455 301,-320.4 261.261,-299.325 228,-295.281 228,-250.3 228,-250.3 228,-250.3 228,-188.9 228,-155.093 228,-115.782 228,-92.4743"/>
<polygon fill="midnightblue" stroke="midnightblue" points="231.5,-92.412 228,-82.412 224.5,-92.412 231.5,-92.412"/>
</g>
<!-- Node22&#45;&gt;Node20 -->
<g id="edge47" class="edge"><title>Node22&#45;&gt;Node20</title>
<path fill="none" stroke="midnightblue" d="M482.549,-362.785C431.961,-356.213 345.513,-342.12 323,-320.4 275.766,-274.83 270.193,-190.641 270.314,-151.937"/>
<polygon fill="midnightblue" stroke="midnightblue" points="273.814,-151.942 270.481,-141.885 266.815,-151.826 273.814,-151.942"/>
</g>
<!-- Node23 -->
<g id="node23" class="node"><title>Node23</title>
<g id="a_node23"><a xlink:href="Match_8h.html" target="_top" xlink:title="Match.h">
<polygon fill="white" stroke="black" points="610.172,-297.5 610.172,-319.9 665.828,-319.9 665.828,-297.5 610.172,-297.5"/>
<text text-anchor="middle" x="638" y="-305.1" font-family="-adobe-utopia-medium-i-normal--0-0-0-0-p-0-iso10646-1" font-size="12.00">Match.h</text>
</a>
</g>
</g>
<!-- Node22&#45;&gt;Node23 -->
<g id="edge38" class="edge"><title>Node22&#45;&gt;Node23</title>
<path fill="none" stroke="midnightblue" d="M535.78,-356.838C552.79,-347.753 580.043,-334.392 602.21,-324.213"/>
<polygon fill="midnightblue" stroke="midnightblue" points="603.692,-327.384 611.354,-320.067 600.801,-321.009 603.692,-327.384"/>
</g>
<!-- Node25 -->
<g id="node25" class="node"><title>Node25</title>
<polygon fill="white" stroke="#bfbfbf" points="332.336,-297.5 332.336,-319.9 361.664,-319.9 361.664,-297.5 332.336,-297.5"/>
<text text-anchor="middle" x="347" y="-305.1" font-family="-adobe-utopia-medium-i-normal--0-0-0-0-p-0-iso10646-1" font-size="12.00">set</text>
</g>
<!-- Node22&#45;&gt;Node25 -->
<g id="edge49" class="edge"><title>Node22&#45;&gt;Node25</title>
<path fill="none" stroke="midnightblue" d="M487.278,-356.897C458.01,-347.674 413.995,-333.565 376,-320.4 374.542,-319.895 373.046,-319.368 371.539,-318.831"/>
<polygon fill="midnightblue" stroke="midnightblue" points="372.306,-315.386 361.712,-315.257 369.914,-321.965 372.306,-315.386"/>
</g>
<!-- Node23&#45;&gt;Node4 -->
<g id="edge39" class="edge"><title>Node23&#45;&gt;Node4</title>
<path fill="none" stroke="midnightblue" d="M663.574,-297.406C721.331,-273.689 865.44,-211.859 976,-142.2 1001.81,-125.938 1029.27,-104.081 1047.19,-89.1222"/>
<polygon fill="midnightblue" stroke="midnightblue" points="1049.78,-91.5112 1055.17,-82.3874 1045.27,-86.1611 1049.78,-91.5112"/>
</g>
<!-- Node23&#45;&gt;Node12 -->
<g id="edge41" class="edge"><title>Node23&#45;&gt;Node12</title>
<path fill="none" stroke="midnightblue" d="M623.161,-297.438C610.728,-288.839 592.757,-276.411 578.389,-266.475"/>
<polygon fill="midnightblue" stroke="midnightblue" points="580.206,-263.476 569.99,-260.667 576.224,-269.233 580.206,-263.476"/>
</g>
<!-- Node23&#45;&gt;Node13 -->
<g id="edge40" class="edge"><title>Node23&#45;&gt;Node13</title>
<path fill="none" stroke="midnightblue" d="M649.131,-297.354C657.785,-288.581 669.254,-275.19 675,-261 681.375,-245.257 682.894,-225.965 682.949,-211.607"/>
<polygon fill="midnightblue" stroke="midnightblue" points="686.442,-211.242 682.744,-201.313 679.443,-211.381 686.442,-211.242"/>
</g>
<!-- Node23&#45;&gt;Node19 -->
<g id="edge43" class="edge"><title>Node23&#45;&gt;Node19</title>
<path fill="none" stroke="midnightblue" d="M653.451,-297.465C697.893,-268.026 826.298,-182.97 879.972,-147.416"/>
<polygon fill="midnightblue" stroke="midnightblue" points="882.102,-150.203 888.506,-141.763 878.237,-144.368 882.102,-150.203"/>
</g>
<!-- Node23&#45;&gt;Node22 -->
<g id="edge42" class="edge"><title>Node23&#45;&gt;Node22</title>
<path fill="none" stroke="midnightblue" d="M622.024,-320.067C604.935,-329.185 577.663,-342.549 555.536,-352.704"/>
<polygon fill="midnightblue" stroke="midnightblue" points="554.076,-349.523 546.412,-356.838 556.965,-355.899 554.076,-349.523"/>
</g>
<!-- Node24 -->
<g id="node24" class="node"><title>Node24</title>
<polygon fill="white" stroke="#bfbfbf" points="610.334,-238.1 610.334,-260.5 665.666,-260.5 665.666,-238.1 610.334,-238.1"/>
<text text-anchor="middle" x="638" y="-245.7" font-family="-adobe-utopia-medium-i-normal--0-0-0-0-p-0-iso10646-1" font-size="12.00">iomanip</text>
</g>
<!-- Node23&#45;&gt;Node24 -->
<g id="edge44" class="edge"><title>Node23&#45;&gt;Node24</title>
<path fill="none" stroke="midnightblue" d="M638,-297.438C638,-290.102 638,-279.979 638,-270.993"/>
<polygon fill="midnightblue" stroke="midnightblue" points="641.5,-270.861 638,-260.861 634.5,-270.862 641.5,-270.861"/>
</g>
<!-- Node27&#45;&gt;Node4 -->
<g id="edge61" class="edge"><title>Node27&#45;&gt;Node4</title>
<path fill="none" stroke="midnightblue" d="M811.888,-543.475C894.706,-539.664 1054.12,-528.566 1101,-498.6 1185,-444.898 1222,-409.402 1222,-309.7 1222,-309.7 1222,-309.7 1222,-188.9 1222,-134.279 1159.85,-101.999 1114.26,-85.668"/>
<polygon fill="midnightblue" stroke="midnightblue" points="1115.12,-82.262 1104.52,-82.3282 1112.84,-88.8834 1115.12,-82.262"/>
</g>
<!-- Node27&#45;&gt;Node7 -->
<g id="edge70" class="edge"><title>Node27&#45;&gt;Node7</title>
<path fill="none" stroke="midnightblue" d="M710.16,-542.462C545.59,-532.607 38,-496.683 38,-428.5 38,-428.5 38,-428.5 38,-129.5 38,-93.6499 54.3888,-54.5129 65.6407,-31.8677"/>
<polygon fill="midnightblue" stroke="midnightblue" points="68.7602,-33.4547 70.2286,-22.9621 62.5375,-30.2488 68.7602,-33.4547"/>
</g>
<!-- Node27&#45;&gt;Node9 -->
<g id="edge68" class="edge"><title>Node27&#45;&gt;Node9</title>
<path fill="none" stroke="midnightblue" d="M803.55,-535.038C843.531,-525.395 903.479,-510.937 946.434,-500.578"/>
<polygon fill="midnightblue" stroke="midnightblue" points="947.518,-503.917 956.418,-498.17 945.876,-497.112 947.518,-503.917"/>
</g>
<!-- Node27&#45;&gt;Node10 -->
<g id="edge62" class="edge"><title>Node27&#45;&gt;Node10</title>
<path fill="none" stroke="midnightblue" d="M765.615,-534.935C774.266,-515.503 793.052,-473.306 804.196,-448.274"/>
<polygon fill="midnightblue" stroke="midnightblue" points="807.451,-449.569 808.321,-439.01 801.056,-446.722 807.451,-449.569"/>
</g>
<!-- Node28 -->
<g id="node28" class="node"><title>Node28</title>
<g id="a_node28"><a xlink:href="MatchFactory_8h.html" target="_top" xlink:title="MatchFactory.h">
<polygon fill="white" stroke="black" points="219.845,-416.3 219.845,-438.7 312.155,-438.7 312.155,-416.3 219.845,-416.3"/>
<text text-anchor="middle" x="266" y="-423.9" font-family="-adobe-utopia-medium-i-normal--0-0-0-0-p-0-iso10646-1" font-size="12.00">MatchFactory.h</text>
</a>
</g>
</g>
<!-- Node27&#45;&gt;Node28 -->
<g id="edge63" class="edge"><title>Node27&#45;&gt;Node28</title>
<path fill="none" stroke="midnightblue" d="M761.544,-535.085C761.758,-519.519 759.62,-490.1 742,-475.2 710.541,-448.597 441.773,-435.175 322.554,-430.485"/>
<polygon fill="midnightblue" stroke="midnightblue" points="322.648,-426.986 312.521,-430.097 322.378,-433.981 322.648,-426.986"/>
</g>
<!-- Node29 -->
<g id="node29" class="node"><title>Node29</title>
<polygon fill="white" stroke="#bfbfbf" points="680.674,-475.7 680.674,-498.1 733.326,-498.1 733.326,-475.7 680.674,-475.7"/>
<text text-anchor="middle" x="707" y="-483.3" font-family="-adobe-utopia-medium-i-normal--0-0-0-0-p-0-iso10646-1" font-size="12.00">sstream</text>
</g>
<!-- Node27&#45;&gt;Node29 -->
<g id="edge69" class="edge"><title>Node27&#45;&gt;Node29</title>
<path fill="none" stroke="midnightblue" d="M751.346,-535.038C743.762,-526.976 733.011,-515.549 723.994,-505.964"/>
<polygon fill="midnightblue" stroke="midnightblue" points="726.337,-503.347 716.936,-498.461 721.239,-508.143 726.337,-503.347"/>
</g>
<!-- Node28&#45;&gt;Node5 -->
<g id="edge67" class="edge"><title>Node28&#45;&gt;Node5</title>
<path fill="none" stroke="midnightblue" d="M219.521,-418.858C163.272,-406.649 76,-376.88 76,-309.7 76,-309.7 76,-309.7 76,-129.5 76,-65.8047 139.944,-77.5469 201,-59.4 328.032,-21.6437 745.316,-14.3274 866.639,-12.9862"/>
<polygon fill="midnightblue" stroke="midnightblue" points="866.836,-16.4845 876.799,-12.8805 866.763,-9.48486 866.836,-16.4845"/>
</g>
<!-- Node28&#45;&gt;Node12 -->
<g id="edge64" class="edge"><title>Node28&#45;&gt;Node12</title>
<path fill="none" stroke="midnightblue" d="M267.322,-416.165C271.07,-391.371 284.145,-328.254 323,-297 350.709,-274.711 447.025,-261.213 506.494,-254.808"/>
<polygon fill="midnightblue" stroke="midnightblue" points="507.204,-258.253 516.785,-253.73 506.475,-251.291 507.204,-258.253"/>
</g>
<!-- Node28&#45;&gt;Node18 -->
<g id="edge66" class="edge"><title>Node28&#45;&gt;Node18</title>
<path fill="none" stroke="midnightblue" d="M252.624,-416.224C231.541,-399.078 191.396,-362.35 176,-320.4 145.13,-236.286 139.504,-200.63 176,-118.8 181.444,-106.593 191.832,-96.2442 201.9,-88.415"/>
<polygon fill="midnightblue" stroke="midnightblue" points="204.108,-91.1374 210.166,-82.4455 200.01,-85.4624 204.108,-91.1374"/>
</g>
<!-- Node28&#45;&gt;Node22 -->
<g id="edge65" class="edge"><title>Node28&#45;&gt;Node22</title>
<path fill="none" stroke="midnightblue" d="M311.41,-416.238C356.913,-405.955 426.648,-390.196 472.781,-379.771"/>
<polygon fill="midnightblue" stroke="midnightblue" points="473.839,-383.12 482.822,-377.502 472.296,-376.292 473.839,-383.12"/>
</g>
</g>
</svg>
