<?xml version="1.0" encoding="UTF-8" standalone="no"?>
<!DOCTYPE svg PUBLIC "-//W3C//DTD SVG 1.1//EN"
 "http://www.w3.org/Graphics/SVG/1.1/DTD/svg11.dtd">
<!-- Generated by graphviz version 2.38.0 (20140413.2041)
 -->
<!-- Title: GERMLINE.h Pages: 1 -->
<svg width="1452pt" height="625pt"
 viewBox="0.00 0.00 1452.33 625.40" xmlns="http://www.w3.org/2000/svg" xmlns:xlink="http://www.w3.org/1999/xlink">
<g id="graph0" class="graph" transform="scale(1 1) rotate(0) translate(4 621.4)">
<title>GERMLINE.h</title>
<polygon fill="white" stroke="none" points="-4,4 -4,-621.4 1448.33,-621.4 1448.33,4 -4,4"/>
<!-- Node1 -->
<g id="node1" class="node"><title>Node1</title>
<polygon fill="#bfbfbf" stroke="black" points="1216.51,-594.5 1216.51,-616.9 1303.49,-616.9 1303.49,-594.5 1216.51,-594.5"/>
<text text-anchor="middle" x="1260" y="-602.1" font-family="-adobe-utopia-medium-i-normal--0-0-0-0-p-0-iso10646-1" font-size="12.00">GERMLINE.h</text>
</g>
<!-- Node2 -->
<g id="node2" class="node"><title>Node2</title>
<g id="a_node2"><a xlink:href="InputManager_8h.html" target="_top" xlink:title="InputManager.h">
<polygon fill="white" stroke="black" points="636.514,-535.1 636.514,-557.5 729.486,-557.5 729.486,-535.1 636.514,-535.1"/>
<text text-anchor="middle" x="683" y="-542.7" font-family="-adobe-utopia-medium-i-normal--0-0-0-0-p-0-iso10646-1" font-size="12.00">InputManager.h</text>
</a>
</g>
</g>
<!-- Node1&#45;&gt;Node2 -->
<g id="edge1" class="edge"><title>Node1&#45;&gt;Node2</title>
<path fill="none" stroke="midnightblue" d="M1216.16,-600.339C1112.89,-590.066 854.451,-564.356 739.573,-552.928"/>
<polygon fill="midnightblue" stroke="midnightblue" points="739.869,-549.44 729.572,-551.933 739.176,-556.406 739.869,-549.44"/>
</g>
<!-- Node3 -->
<g id="node3" class="node"><title>Node3</title>
<g id="a_node3"><a xlink:href="BasicDefinitions_8h.html" target="_top" xlink:title="BasicDefinitions.h">
<polygon fill="white" stroke="black" points="960.176,-59.9 960.176,-82.3 1065.82,-82.3 1065.82,-59.9 960.176,-59.9"/>
<text text-anchor="middle" x="1013" y="-67.5" font-family="-adobe-utopia-medium-i-normal--0-0-0-0-p-0-iso10646-1" font-size="12.00">BasicDefinitions.h</text>
</a>
</g>
</g>
<!-- Node1&#45;&gt;Node3 -->
<g id="edge70" class="edge"><title>Node1&#45;&gt;Node3</title>
<path fill="none" stroke="midnightblue" d="M1262.43,-594.285C1275.37,-535.891 1330.2,-247.191 1182,-118.8 1173.13,-111.117 1113.64,-95.7481 1067.72,-84.7388"/>
<polygon fill="midnightblue" stroke="midnightblue" points="1068.4,-81.3019 1057.86,-82.3905 1066.78,-88.1115 1068.4,-81.3019"/>
</g>
<!-- Node6 -->
<g id="node6" class="node"><title>Node6</title>
<polygon fill="white" stroke="#bfbfbf" points="1288.34,-0.5 1288.34,-22.9 1345.66,-22.9 1345.66,-0.5 1288.34,-0.5"/>
<text text-anchor="middle" x="1317" y="-8.1" font-family="-adobe-utopia-medium-i-normal--0-0-0-0-p-0-iso10646-1" font-size="12.00">iostream</text>
</g>
<!-- Node1&#45;&gt;Node6 -->
<g id="edge71" class="edge"><title>Node1&#45;&gt;Node6</title>
<path fill="none" stroke="midnightblue" d="M1282.25,-594.413C1315.43,-577.362 1374,-539.896 1374,-487.9 1374,-487.9 1374,-487.9 1374,-129.5 1374,-91.6222 1349.49,-53.1965 1332.61,-31.229"/>
<polygon fill="midnightblue" stroke="midnightblue" points="1335.13,-28.7681 1326.16,-23.1309 1329.66,-33.1319 1335.13,-28.7681"/>
</g>
<!-- Node9 -->
<g id="node9" class="node"><title>Node9</title>
<g id="a_node9"><a xlink:href="Individuals_8h.html" target="_top" xlink:title="Individuals.h">
<polygon fill="white" stroke="black" points="643.504,-416.3 643.504,-438.7 722.496,-438.7 722.496,-416.3 643.504,-416.3"/>
<text text-anchor="middle" x="683" y="-423.9" font-family="-adobe-utopia-medium-i-normal--0-0-0-0-p-0-iso10646-1" font-size="12.00">Individuals.h</text>
</a>
</g>
</g>
<!-- Node1&#45;&gt;Node9 -->
<g id="edge58" class="edge"><title>Node1&#45;&gt;Node9</title>
<path fill="none" stroke="midnightblue" d="M1224.61,-594.487C1160.26,-575.856 1019.86,-534.923 902,-498.6 839.884,-479.457 768.194,-456.308 724.235,-441.993"/>
<polygon fill="midnightblue" stroke="midnightblue" points="725.077,-438.586 714.484,-438.814 722.907,-445.241 725.077,-438.586"/>
</g>
<!-- Node26 -->
<g id="node26" class="node"><title>Node26</title>
<g id="a_node26"><a xlink:href="MatchesBuilder_8h.html" target="_top" xlink:title="MatchesBuilder.h">
<polygon fill="white" stroke="black" points="1136.18,-535.1 1136.18,-557.5 1237.82,-557.5 1237.82,-535.1 1136.18,-535.1"/>
<text text-anchor="middle" x="1187" y="-542.7" font-family="-adobe-utopia-medium-i-normal--0-0-0-0-p-0-iso10646-1" font-size="12.00">MatchesBuilder.h</text>
</a>
</g>
</g>
<!-- Node1&#45;&gt;Node26 -->
<g id="edge59" class="edge"><title>Node1&#45;&gt;Node26</title>
<path fill="none" stroke="midnightblue" d="M1246.95,-594.438C1236.29,-586.054 1220.99,-574.029 1208.52,-564.224"/>
<polygon fill="midnightblue" stroke="midnightblue" points="1210.46,-561.291 1200.43,-557.861 1206.13,-566.794 1210.46,-561.291"/>
</g>
<!-- Node29 -->
<g id="node29" class="node"><title>Node29</title>
<polygon fill="white" stroke="#bfbfbf" points="1401.67,-535.1 1401.67,-557.5 1444.33,-557.5 1444.33,-535.1 1401.67,-535.1"/>
<text text-anchor="middle" x="1423" y="-542.7" font-family="-adobe-utopia-medium-i-normal--0-0-0-0-p-0-iso10646-1" font-size="12.00">ctime</text>
</g>
<!-- Node1&#45;&gt;Node29 -->
<g id="edge72" class="edge"><title>Node1&#45;&gt;Node29</title>
<path fill="none" stroke="midnightblue" d="M1289.14,-594.438C1318.1,-584.24 1362.36,-568.656 1391.96,-558.23"/>
<polygon fill="midnightblue" stroke="midnightblue" points="1393.13,-561.53 1401.4,-554.907 1390.8,-554.928 1393.13,-561.53"/>
</g>
<!-- Node2&#45;&gt;Node3 -->
<g id="edge2" class="edge"><title>Node2&#45;&gt;Node3</title>
<path fill="none" stroke="midnightblue" d="M721.529,-535.034C801.375,-511.622 984.871,-446.319 1074,-320.4 1125.93,-247.037 1101.65,-197.37 1058,-118.8 1051.89,-107.798 1042.53,-97.5004 1033.93,-89.3894"/>
<polygon fill="midnightblue" stroke="midnightblue" points="1036.14,-86.6701 1026.36,-82.5978 1031.47,-91.8808 1036.14,-86.6701"/>
</g>
<!-- Node8 -->
<g id="node8" class="node"><title>Node8</title>
<g id="a_node8"><a xlink:href="PolymorphicIndividualsExtractor_8h.html" target="_top" xlink:title="PolymorphicIndividualsExtractor.h">
<polygon fill="white" stroke="black" points="59.1834,-475.7 59.1834,-498.1 244.817,-498.1 244.817,-475.7 59.1834,-475.7"/>
<text text-anchor="middle" x="152" y="-483.3" font-family="-adobe-utopia-medium-i-normal--0-0-0-0-p-0-iso10646-1" font-size="12.00">PolymorphicIndividualsExtractor.h</text>
</a>
</g>
</g>
<!-- Node2&#45;&gt;Node8 -->
<g id="edge7" class="edge"><title>Node2&#45;&gt;Node8</title>
<path fill="none" stroke="midnightblue" d="M636.343,-540.256C551.59,-531.095 370.492,-511.519 255.345,-499.071"/>
<polygon fill="midnightblue" stroke="midnightblue" points="255.423,-495.559 245.104,-497.964 254.67,-502.519 255.423,-495.559"/>
</g>
<!-- Node2&#45;&gt;Node9 -->
<g id="edge56" class="edge"><title>Node2&#45;&gt;Node9</title>
<path fill="none" stroke="midnightblue" d="M683,-534.935C683,-515.762 683,-474.428 683,-449.285"/>
<polygon fill="midnightblue" stroke="midnightblue" points="686.5,-449.01 683,-439.01 679.5,-449.01 686.5,-449.01"/>
</g>
<!-- Node15 -->
<g id="node15" class="node"><title>Node15</title>
<polygon fill="white" stroke="#bfbfbf" points="202.334,-59.9 202.334,-82.3 245.666,-82.3 245.666,-59.9 202.334,-59.9"/>
<text text-anchor="middle" x="224" y="-67.5" font-family="-adobe-utopia-medium-i-normal--0-0-0-0-p-0-iso10646-1" font-size="12.00">string</text>
</g>
<!-- Node2&#45;&gt;Node15 -->
<g id="edge57" class="edge"><title>Node2&#45;&gt;Node15</title>
<path fill="none" stroke="midnightblue" d="M636.451,-545.34C497.16,-544.99 90.7224,-540.368 50,-498.6 -27.1277,-419.492 38,-360.784 38,-250.3 38,-250.3 38,-250.3 38,-188.9 38,-116.869 139.28,-87.5437 192.369,-77.12"/>
<polygon fill="midnightblue" stroke="midnightblue" points="193.104,-80.5434 202.299,-75.2803 191.829,-73.6605 193.104,-80.5434"/>
</g>
<!-- Node4 -->
<g id="node4" class="node"><title>Node4</title>
<polygon fill="white" stroke="#bfbfbf" points="655.008,-0.5 655.008,-22.9 700.992,-22.9 700.992,-0.5 655.008,-0.5"/>
<text text-anchor="middle" x="678" y="-8.1" font-family="-adobe-utopia-medium-i-normal--0-0-0-0-p-0-iso10646-1" font-size="12.00">vector</text>
</g>
<!-- Node3&#45;&gt;Node4 -->
<g id="edge3" class="edge"><title>Node3&#45;&gt;Node4</title>
<path fill="none" stroke="midnightblue" d="M959.918,-61.0048C890.097,-49.0415 769.468,-28.3725 711.287,-18.4036"/>
<polygon fill="midnightblue" stroke="midnightblue" points="711.624,-14.9103 701.177,-16.6712 710.442,-21.8098 711.624,-14.9103"/>
</g>
<!-- Node5 -->
<g id="node5" class="node"><title>Node5</title>
<polygon fill="white" stroke="#bfbfbf" points="566.01,-0.5 566.01,-22.9 617.99,-22.9 617.99,-0.5 566.01,-0.5"/>
<text text-anchor="middle" x="592" y="-8.1" font-family="-adobe-utopia-medium-i-normal--0-0-0-0-p-0-iso10646-1" font-size="12.00">fstream</text>
</g>
<!-- Node3&#45;&gt;Node5 -->
<g id="edge4" class="edge"><title>Node3&#45;&gt;Node5</title>
<path fill="none" stroke="midnightblue" d="M959.96,-64.5142C888.454,-56.7185 757.263,-41.4801 646,-23.4 640.138,-22.4474 633.94,-21.3268 627.915,-20.1759"/>
<polygon fill="midnightblue" stroke="midnightblue" points="628.514,-16.7269 618.027,-18.2347 627.166,-23.5958 628.514,-16.7269"/>
</g>
<!-- Node3&#45;&gt;Node6 -->
<g id="edge5" class="edge"><title>Node3&#45;&gt;Node6</title>
<path fill="none" stroke="midnightblue" d="M1065.95,-60.1017C1126.52,-48.6652 1224.26,-30.2114 1278.17,-20.0308"/>
<polygon fill="midnightblue" stroke="midnightblue" points="1278.85,-23.4643 1288.03,-18.1696 1277.56,-16.5859 1278.85,-23.4643"/>
</g>
<!-- Node7 -->
<g id="node7" class="node"><title>Node7</title>
<polygon fill="white" stroke="#bfbfbf" points="986.834,-0.5 986.834,-22.9 1039.17,-22.9 1039.17,-0.5 986.834,-0.5"/>
<text text-anchor="middle" x="1013" y="-8.1" font-family="-adobe-utopia-medium-i-normal--0-0-0-0-p-0-iso10646-1" font-size="12.00">string.h</text>
</g>
<!-- Node3&#45;&gt;Node7 -->
<g id="edge6" class="edge"><title>Node3&#45;&gt;Node7</title>
<path fill="none" stroke="midnightblue" d="M1013,-59.838C1013,-52.5019 1013,-42.3785 1013,-33.3932"/>
<polygon fill="midnightblue" stroke="midnightblue" points="1016.5,-33.2614 1013,-23.2615 1009.5,-33.2615 1016.5,-33.2614"/>
</g>
<!-- Node8&#45;&gt;Node4 -->
<g id="edge55" class="edge"><title>Node8&#45;&gt;Node4</title>
<path fill="none" stroke="midnightblue" d="M139.108,-475.482C117.424,-456.697 76,-414.824 76,-369.1 76,-369.1 76,-369.1 76,-129.5 76,-76.3094 123.079,-77.7617 173,-59.4 362.968,10.4735 426.654,-52.2396 627,-23.4 632.909,-22.5495 639.16,-21.4265 645.184,-20.2281"/>
<polygon fill="midnightblue" stroke="midnightblue" points="645.935,-23.6467 655.008,-18.1747 644.503,-16.7948 645.935,-23.6467"/>
</g>
<!-- Node8&#45;&gt;Node5 -->
<g id="edge53" class="edge"><title>Node8&#45;&gt;Node5</title>
<path fill="none" stroke="midnightblue" d="M118.388,-475.597C99.4476,-468.223 76.7095,-456.5 62,-439.2 4.76233,-371.882 0,-338.662 0,-250.3 0,-250.3 0,-250.3 0,-129.5 0,-87.907 24.8656,-78.1353 62,-59.4 148.707,-15.654 450.561,-12.2655 555.618,-12.4506"/>
<polygon fill="midnightblue" stroke="midnightblue" points="555.719,-15.9508 565.729,-12.4808 555.74,-8.95083 555.719,-15.9508"/>
</g>
<!-- Node8&#45;&gt;Node9 -->
<g id="edge8" class="edge"><title>Node8&#45;&gt;Node9</title>
<path fill="none" stroke="midnightblue" d="M245.101,-475.836C358.114,-463.619 544.55,-443.466 633.197,-433.884"/>
<polygon fill="midnightblue" stroke="midnightblue" points="633.69,-437.351 643.256,-432.796 632.938,-430.391 633.69,-437.351"/>
</g>
<!-- Node12 -->
<g id="node12" class="node"><title>Node12</title>
<g id="a_node12"><a xlink:href="SNPs_8h.html" target="_top" xlink:title="SNPs.h">
<polygon fill="white" stroke="black" points="592.164,-178.7 592.164,-201.1 643.836,-201.1 643.836,-178.7 592.164,-178.7"/>
<text text-anchor="middle" x="618" y="-186.3" font-family="-adobe-utopia-medium-i-normal--0-0-0-0-p-0-iso10646-1" font-size="12.00">SNPs.h</text>
</a>
</g>
</g>
<!-- Node8&#45;&gt;Node12 -->
<g id="edge52" class="edge"><title>Node8&#45;&gt;Node12</title>
<path fill="none" stroke="midnightblue" d="M153.785,-475.657C158.487,-451.607 173.389,-390.954 209,-356.4 318.078,-250.56 503.769,-209.365 581.786,-196.188"/>
<polygon fill="midnightblue" stroke="midnightblue" points="582.755,-199.577 592.061,-194.511 581.628,-192.668 582.755,-199.577"/>
</g>
<!-- Node8&#45;&gt;Node15 -->
<g id="edge54" class="edge"><title>Node8&#45;&gt;Node15</title>
<path fill="none" stroke="midnightblue" d="M146.229,-475.638C135.598,-455.742 114,-410.255 114,-369.1 114,-369.1 114,-369.1 114,-188.9 114,-141.924 161.737,-106.153 194.316,-87.2093"/>
<polygon fill="midnightblue" stroke="midnightblue" points="196.036,-90.2575 203.051,-82.3173 192.616,-84.1501 196.036,-90.2575"/>
</g>
<!-- Node9&#45;&gt;Node3 -->
<g id="edge9" class="edge"><title>Node9&#45;&gt;Node3</title>
<path fill="none" stroke="midnightblue" d="M722.642,-417.819C813.19,-397.604 1028.96,-347.078 1049,-320.4 1057.86,-308.609 1101.29,-326.187 1040,-118.8 1037.11,-109.012 1031.78,-99.0939 1026.62,-90.9307"/>
<polygon fill="midnightblue" stroke="midnightblue" points="1029.49,-88.9128 1021.01,-82.5602 1023.67,-92.8139 1029.49,-88.9128"/>
</g>
<!-- Node10 -->
<g id="node10" class="node"><title>Node10</title>
<g id="a_node10"><a xlink:href="Chromosome_8h.html" target="_top" xlink:title="Chromosome.h">
<polygon fill="white" stroke="black" points="598.17,-297.5 598.17,-319.9 687.83,-319.9 687.83,-297.5 598.17,-297.5"/>
<text text-anchor="middle" x="643" y="-305.1" font-family="-adobe-utopia-medium-i-normal--0-0-0-0-p-0-iso10646-1" font-size="12.00">Chromosome.h</text>
</a>
</g>
</g>
<!-- Node9&#45;&gt;Node10 -->
<g id="edge10" class="edge"><title>Node9&#45;&gt;Node10</title>
<path fill="none" stroke="midnightblue" d="M676.025,-416.194C670.123,-407.019 661.87,-393.037 657,-379.8 651.049,-363.625 647.434,-344.37 645.373,-330.137"/>
<polygon fill="midnightblue" stroke="midnightblue" points="648.808,-329.413 644.037,-319.953 641.867,-330.323 648.808,-329.413"/>
</g>
<!-- Node17 -->
<g id="node17" class="node"><title>Node17</title>
<polygon fill="white" stroke="#bfbfbf" points="285.669,-59.9 285.669,-82.3 322.331,-82.3 322.331,-59.9 285.669,-59.9"/>
<text text-anchor="middle" x="304" y="-67.5" font-family="-adobe-utopia-medium-i-normal--0-0-0-0-p-0-iso10646-1" font-size="12.00">map</text>
</g>
<!-- Node9&#45;&gt;Node17 -->
<g id="edge50" class="edge"><title>Node9&#45;&gt;Node17</title>
<path fill="none" stroke="midnightblue" d="M643.48,-425.582C534.872,-422.655 237.98,-411.775 209,-379.8 130.05,-292.69 188.133,-217.503 252,-118.8 259.519,-107.18 270.661,-96.6439 280.704,-88.5325"/>
<polygon fill="midnightblue" stroke="midnightblue" points="282.988,-91.1912 288.779,-82.3187 278.719,-85.6436 282.988,-91.1912"/>
</g>
<!-- Node21 -->
<g id="node21" class="node"><title>Node21</title>
<g id="a_node21"><a xlink:href="Individual_8h.html" target="_top" xlink:title="Individual.h">
<polygon fill="white" stroke="black" points="665.837,-356.9 665.837,-379.3 740.163,-379.3 740.163,-356.9 665.837,-356.9"/>
<text text-anchor="middle" x="703" y="-364.5" font-family="-adobe-utopia-medium-i-normal--0-0-0-0-p-0-iso10646-1" font-size="12.00">Individual.h</text>
</a>
</g>
</g>
<!-- Node9&#45;&gt;Node21 -->
<g id="edge34" class="edge"><title>Node9&#45;&gt;Node21</title>
<path fill="none" stroke="midnightblue" d="M681.26,-416.238C682.509,-408.66 685.807,-398.108 689.645,-388.908"/>
<polygon fill="midnightblue" stroke="midnightblue" points="692.902,-390.204 693.95,-379.661 686.556,-387.25 692.902,-390.204"/>
</g>
<!-- Node25 -->
<g id="node25" class="node"><title>Node25</title>
<polygon fill="white" stroke="#bfbfbf" points="218.008,-356.9 218.008,-379.3 271.992,-379.3 271.992,-356.9 218.008,-356.9"/>
<text text-anchor="middle" x="245" y="-364.5" font-family="-adobe-utopia-medium-i-normal--0-0-0-0-p-0-iso10646-1" font-size="12.00">ostream</text>
</g>
<!-- Node9&#45;&gt;Node25 -->
<g id="edge51" class="edge"><title>Node9&#45;&gt;Node25</title>
<path fill="none" stroke="midnightblue" d="M643.282,-423.656C571.499,-418.11 415.579,-404.209 286,-379.8 284.739,-379.563 283.46,-379.308 282.171,-379.039"/>
<polygon fill="midnightblue" stroke="midnightblue" points="282.757,-375.583 272.228,-376.767 281.197,-382.407 282.757,-375.583"/>
</g>
<!-- Node10&#45;&gt;Node3 -->
<g id="edge11" class="edge"><title>Node10&#45;&gt;Node3</title>
<path fill="none" stroke="midnightblue" d="M663.985,-297.482C692.021,-283.832 743.247,-258.892 787,-237.6 868.413,-197.981 900.778,-203.945 967,-142.2 982.546,-127.705 995.323,-106.94 1003.43,-91.7729"/>
<polygon fill="midnightblue" stroke="midnightblue" points="1006.62,-93.2313 1008.07,-82.7364 1000.39,-90.0355 1006.62,-93.2313"/>
</g>
<!-- Node10&#45;&gt;Node4 -->
<g id="edge33" class="edge"><title>Node10&#45;&gt;Node4</title>
<path fill="none" stroke="midnightblue" d="M597.799,-300.793C460.352,-278.082 64.4347,-199.071 193,-59.4 225.771,-23.7985 579.118,-30.3812 627,-23.4 632.907,-22.5387 639.157,-21.4106 645.181,-20.2104"/>
<polygon fill="midnightblue" stroke="midnightblue" points="645.933,-23.629 655.005,-18.1568 644.501,-16.7771 645.933,-23.629"/>
</g>
<!-- Node11 -->
<g id="node11" class="node"><title>Node11</title>
<g id="a_node11"><a xlink:href="MarkerSet_8h.html" target="_top" xlink:title="MarkerSet.h">
<polygon fill="white" stroke="black" points="626.179,-238.1 626.179,-260.5 701.821,-260.5 701.821,-238.1 626.179,-238.1"/>
<text text-anchor="middle" x="664" y="-245.7" font-family="-adobe-utopia-medium-i-normal--0-0-0-0-p-0-iso10646-1" font-size="12.00">MarkerSet.h</text>
</a>
</g>
</g>
<!-- Node10&#45;&gt;Node11 -->
<g id="edge12" class="edge"><title>Node10&#45;&gt;Node11</title>
<path fill="none" stroke="midnightblue" d="M646.754,-297.438C649.497,-289.941 653.305,-279.532 656.645,-270.403"/>
<polygon fill="midnightblue" stroke="midnightblue" points="659.987,-271.455 660.136,-260.861 653.413,-269.05 659.987,-271.455"/>
</g>
<!-- Node11&#45;&gt;Node3 -->
<g id="edge13" class="edge"><title>Node11&#45;&gt;Node3</title>
<path fill="none" stroke="midnightblue" d="M701.825,-239.319C756.96,-225.015 861.087,-193.335 937,-142.2 959.566,-126.999 982.054,-105.223 996.645,-89.9878"/>
<polygon fill="midnightblue" stroke="midnightblue" points="999.211,-92.368 1003.51,-82.6861 994.112,-87.5717 999.211,-92.368"/>
</g>
<!-- Node11&#45;&gt;Node12 -->
<g id="edge14" class="edge"><title>Node11&#45;&gt;Node12</title>
<path fill="none" stroke="midnightblue" d="M655.776,-238.038C649.445,-230.138 640.523,-219.005 632.939,-209.542"/>
<polygon fill="midnightblue" stroke="midnightblue" points="635.449,-207.076 626.464,-201.461 629.986,-211.454 635.449,-207.076"/>
</g>
<!-- Node19 -->
<g id="node19" class="node"><title>Node19</title>
<polygon fill="white" stroke="#bfbfbf" points="331.664,-119.3 331.664,-141.7 362.336,-141.7 362.336,-119.3 331.664,-119.3"/>
<text text-anchor="middle" x="347" y="-126.9" font-family="-adobe-utopia-medium-i-normal--0-0-0-0-p-0-iso10646-1" font-size="12.00">list</text>
</g>
<!-- Node11&#45;&gt;Node19 -->
<g id="edge32" class="edge"><title>Node11&#45;&gt;Node19</title>
<path fill="none" stroke="midnightblue" d="M636.196,-238.062C584.809,-219.139 471.491,-177.406 376,-142.2 374.615,-141.689 373.193,-141.165 371.758,-140.636"/>
<polygon fill="midnightblue" stroke="midnightblue" points="372.944,-137.343 362.351,-137.166 370.521,-143.91 372.944,-137.343"/>
</g>
<!-- Node20 -->
<g id="node20" class="node"><title>Node20</title>
<polygon fill="white" stroke="#bfbfbf" points="662.171,-178.7 662.171,-201.1 801.829,-201.1 801.829,-178.7 662.171,-178.7"/>
<text text-anchor="middle" x="732" y="-186.3" font-family="-adobe-utopia-medium-i-normal--0-0-0-0-p-0-iso10646-1" font-size="12.00">boost/dynamic_bitset.hpp</text>
</g>
<!-- Node11&#45;&gt;Node20 -->
<g id="edge31" class="edge"><title>Node11&#45;&gt;Node20</title>
<path fill="none" stroke="midnightblue" d="M676.157,-238.038C685.994,-229.735 700.061,-217.86 711.615,-208.107"/>
<polygon fill="midnightblue" stroke="midnightblue" points="714.104,-210.586 719.488,-201.461 709.589,-205.237 714.104,-210.586"/>
</g>
<!-- Node12&#45;&gt;Node3 -->
<g id="edge15" class="edge"><title>Node12&#45;&gt;Node3</title>
<path fill="none" stroke="midnightblue" d="M638.549,-178.68C657.251,-169.329 685.584,-155.037 710,-142.2 729.258,-132.075 732.474,-126.016 753,-118.8 818.034,-95.9381 896.334,-83.8233 949.9,-77.7168"/>
<polygon fill="midnightblue" stroke="midnightblue" points="950.383,-81.1849 959.939,-76.6097 949.615,-74.2271 950.383,-81.1849"/>
</g>
<!-- Node12&#45;&gt;Node4 -->
<g id="edge27" class="edge"><title>Node12&#45;&gt;Node4</title>
<path fill="none" stroke="midnightblue" d="M639.006,-178.605C652.56,-170.703 669.086,-158.398 677,-142.2 694.186,-107.025 688.456,-59.7886 683.032,-33.1719"/>
<polygon fill="midnightblue" stroke="midnightblue" points="686.385,-32.1226 680.795,-23.1224 679.552,-33.6441 686.385,-32.1226"/>
</g>
<!-- Node12&#45;&gt;Node5 -->
<g id="edge26" class="edge"><title>Node12&#45;&gt;Node5</title>
<path fill="none" stroke="midnightblue" d="M616.434,-178.514C615.009,-169.052 612.852,-154.689 611,-142.2 605.279,-103.627 598.691,-58.5773 594.968,-33.0664"/>
<polygon fill="midnightblue" stroke="midnightblue" points="598.423,-32.4991 593.516,-23.1089 591.496,-33.5094 598.423,-32.4991"/>
</g>
<!-- Node13 -->
<g id="node13" class="node"><title>Node13</title>
<g id="a_node13"><a xlink:href="NucleotideMap_8h.html" target="_top" xlink:title="NucleotideMap.h">
<polygon fill="white" stroke="black" points="762.179,-119.3 762.179,-141.7 861.821,-141.7 861.821,-119.3 762.179,-119.3"/>
<text text-anchor="middle" x="812" y="-126.9" font-family="-adobe-utopia-medium-i-normal--0-0-0-0-p-0-iso10646-1" font-size="12.00">NucleotideMap.h</text>
</a>
</g>
</g>
<!-- Node12&#45;&gt;Node13 -->
<g id="edge16" class="edge"><title>Node12&#45;&gt;Node13</title>
<path fill="none" stroke="midnightblue" d="M643.984,-180.922C647.022,-179.999 650.078,-179.076 653,-178.2 691.296,-166.722 734.866,-153.945 766.7,-144.661"/>
<polygon fill="midnightblue" stroke="midnightblue" points="767.981,-147.934 776.602,-141.776 766.022,-141.213 767.981,-147.934"/>
</g>
<!-- Node14 -->
<g id="node14" class="node"><title>Node14</title>
<g id="a_node14"><a xlink:href="SNP_8h.html" target="_top" xlink:title="SNP.h">
<polygon fill="white" stroke="black" points="620.498,-119.3 620.498,-141.7 667.502,-141.7 667.502,-119.3 620.498,-119.3"/>
<text text-anchor="middle" x="644" y="-126.9" font-family="-adobe-utopia-medium-i-normal--0-0-0-0-p-0-iso10646-1" font-size="12.00">SNP.h</text>
</a>
</g>
</g>
<!-- Node12&#45;&gt;Node14 -->
<g id="edge18" class="edge"><title>Node12&#45;&gt;Node14</title>
<path fill="none" stroke="midnightblue" d="M622.648,-178.638C626.081,-171.06 630.86,-160.508 635.028,-151.308"/>
<polygon fill="midnightblue" stroke="midnightblue" points="638.278,-152.615 639.216,-142.061 631.902,-149.726 638.278,-152.615"/>
</g>
<!-- Node12&#45;&gt;Node15 -->
<g id="edge28" class="edge"><title>Node12&#45;&gt;Node15</title>
<path fill="none" stroke="midnightblue" d="M592.085,-185.921C551.749,-180.669 472.035,-167.809 409,-142.2 390.624,-134.735 389.03,-127.064 371,-118.8 332.785,-101.284 286.158,-87.6888 255.808,-79.7928"/>
<polygon fill="midnightblue" stroke="midnightblue" points="256.347,-76.3183 245.792,-77.2405 254.618,-83.1015 256.347,-76.3183"/>
</g>
<!-- Node16 -->
<g id="node16" class="node"><title>Node16</title>
<g id="a_node16"><a xlink:href="SNPPositionMap_8h.html" target="_top" xlink:title="SNPPositionMap.h">
<polygon fill="white" stroke="black" points="417.83,-119.3 417.83,-141.7 526.17,-141.7 526.17,-119.3 417.83,-119.3"/>
<text text-anchor="middle" x="472" y="-126.9" font-family="-adobe-utopia-medium-i-normal--0-0-0-0-p-0-iso10646-1" font-size="12.00">SNPPositionMap.h</text>
</a>
</g>
</g>
<!-- Node12&#45;&gt;Node16 -->
<g id="edge22" class="edge"><title>Node12&#45;&gt;Node16</title>
<path fill="none" stroke="midnightblue" d="M591.898,-178.638C568.479,-169.431 533.893,-155.833 507.878,-145.605"/>
<polygon fill="midnightblue" stroke="midnightblue" points="508.955,-142.268 498.368,-141.867 506.394,-148.783 508.955,-142.268"/>
</g>
<!-- Node12&#45;&gt;Node17 -->
<g id="edge29" class="edge"><title>Node12&#45;&gt;Node17</title>
<path fill="none" stroke="midnightblue" d="M608.951,-178.46C594.817,-162.87 565.904,-133.744 535,-118.8 467.282,-86.0544 377.695,-76.2563 332.572,-73.3344"/>
<polygon fill="midnightblue" stroke="midnightblue" points="332.54,-69.8268 322.354,-72.7429 332.135,-76.8151 332.54,-69.8268"/>
</g>
<!-- Node18 -->
<g id="node18" class="node"><title>Node18</title>
<polygon fill="white" stroke="#bfbfbf" points="879.502,-119.3 879.502,-141.7 928.498,-141.7 928.498,-119.3 879.502,-119.3"/>
<text text-anchor="middle" x="904" y="-126.9" font-family="-adobe-utopia-medium-i-normal--0-0-0-0-p-0-iso10646-1" font-size="12.00">math.h</text>
</g>
<!-- Node12&#45;&gt;Node18 -->
<g id="edge25" class="edge"><title>Node12&#45;&gt;Node18</title>
<path fill="none" stroke="midnightblue" d="M643.889,-180.566C646.944,-179.707 650.031,-178.896 653,-178.2 745.53,-156.518 773.771,-164.823 869.46,-142.319"/>
<polygon fill="midnightblue" stroke="midnightblue" points="870.343,-145.706 879.248,-139.966 868.707,-138.9 870.343,-145.706"/>
</g>
<!-- Node12&#45;&gt;Node19 -->
<g id="edge30" class="edge"><title>Node12&#45;&gt;Node19</title>
<path fill="none" stroke="midnightblue" d="M591.891,-185.289C547.175,-178.789 453.279,-163.758 376,-142.2 374.75,-141.851 373.477,-141.473 372.197,-141.074"/>
<polygon fill="midnightblue" stroke="midnightblue" points="373.094,-137.681 362.5,-137.748 370.823,-144.303 373.094,-137.681"/>
</g>
<!-- Node13&#45;&gt;Node3 -->
<g id="edge17" class="edge"><title>Node13&#45;&gt;Node3</title>
<path fill="none" stroke="midnightblue" d="M847.935,-119.238C881.273,-109.717 931.05,-95.5026 967.222,-85.173"/>
<polygon fill="midnightblue" stroke="midnightblue" points="968.384,-88.4812 977.038,-82.3697 966.461,-81.7503 968.384,-88.4812"/>
</g>
<!-- Node14&#45;&gt;Node3 -->
<g id="edge19" class="edge"><title>Node14&#45;&gt;Node3</title>
<path fill="none" stroke="midnightblue" d="M667.644,-125.822C723.76,-117.093 866.509,-94.8875 949.862,-81.9215"/>
<polygon fill="midnightblue" stroke="midnightblue" points="950.628,-85.3445 959.971,-80.349 949.552,-78.4277 950.628,-85.3445"/>
</g>
<!-- Node14&#45;&gt;Node4 -->
<g id="edge21" class="edge"><title>Node14&#45;&gt;Node4</title>
<path fill="none" stroke="midnightblue" d="M647.017,-119.135C652.623,-99.8758 664.739,-58.2548 672.048,-33.1461"/>
<polygon fill="midnightblue" stroke="midnightblue" points="675.506,-33.7896 674.941,-23.2099 668.785,-31.8331 675.506,-33.7896"/>
</g>
<!-- Node14&#45;&gt;Node15 -->
<g id="edge20" class="edge"><title>Node14&#45;&gt;Node15</title>
<path fill="none" stroke="midnightblue" d="M620.299,-127.088C561.808,-121.004 405.976,-103.996 277,-82.8 270.092,-81.6647 262.711,-80.2828 255.719,-78.8943"/>
<polygon fill="midnightblue" stroke="midnightblue" points="256.35,-75.4512 245.853,-76.8833 254.952,-82.3101 256.35,-75.4512"/>
</g>
<!-- Node16&#45;&gt;Node15 -->
<g id="edge24" class="edge"><title>Node16&#45;&gt;Node15</title>
<path fill="none" stroke="midnightblue" d="M427.663,-119.238C378.133,-107.774 299.198,-89.5046 255.57,-79.4069"/>
<polygon fill="midnightblue" stroke="midnightblue" points="256.323,-75.9887 245.791,-77.1436 254.744,-82.8084 256.323,-75.9887"/>
</g>
<!-- Node16&#45;&gt;Node17 -->
<g id="edge23" class="edge"><title>Node16&#45;&gt;Node17</title>
<path fill="none" stroke="midnightblue" d="M441.965,-119.238C410.76,-108.576 362.326,-92.028 331.926,-81.6414"/>
<polygon fill="midnightblue" stroke="midnightblue" points="332.954,-78.2939 322.359,-78.3726 330.69,-84.9179 332.954,-78.2939"/>
</g>
<!-- Node21&#45;&gt;Node3 -->
<g id="edge35" class="edge"><title>Node21&#45;&gt;Node3</title>
<path fill="none" stroke="midnightblue" d="M740.164,-360.742C773.323,-354.018 822.449,-341.414 861,-320.4 930.883,-282.306 946.894,-265.008 995,-201.6 1018.66,-170.418 1029.91,-157.632 1025,-118.8 1023.88,-109.907 1021.59,-100.283 1019.32,-92.0959"/>
<polygon fill="midnightblue" stroke="midnightblue" points="1022.62,-90.9361 1016.43,-82.3423 1015.91,-92.9246 1022.62,-90.9361"/>
</g>
<!-- Node21&#45;&gt;Node6 -->
<g id="edge49" class="edge"><title>Node21&#45;&gt;Node6</title>
<path fill="none" stroke="midnightblue" d="M740.523,-362.404C780.305,-356.428 844.274,-343.929 895,-320.4 1069.04,-239.671 1243.68,-82.1831 1299.02,-29.976"/>
<polygon fill="midnightblue" stroke="midnightblue" points="1301.47,-32.4823 1306.31,-23.0589 1296.65,-27.4056 1301.47,-32.4823"/>
</g>
<!-- Node21&#45;&gt;Node9 -->
<g id="edge44" class="edge"><title>Node21&#45;&gt;Node9</title>
<path fill="none" stroke="midnightblue" d="M704.69,-379.661C703.387,-387.317 700.056,-397.889 696.204,-407.053"/>
<polygon fill="midnightblue" stroke="midnightblue" points="692.973,-405.699 691.891,-416.238 699.31,-408.674 692.973,-405.699"/>
</g>
<!-- Node21&#45;&gt;Node10 -->
<g id="edge36" class="edge"><title>Node21&#45;&gt;Node10</title>
<path fill="none" stroke="midnightblue" d="M692.273,-356.838C683.678,-348.615 671.422,-336.89 661.284,-327.192"/>
<polygon fill="midnightblue" stroke="midnightblue" points="663.685,-324.645 654.04,-320.261 658.846,-329.703 663.685,-324.645"/>
</g>
<!-- Node21&#45;&gt;Node15 -->
<g id="edge45" class="edge"><title>Node21&#45;&gt;Node15</title>
<path fill="none" stroke="midnightblue" d="M665.596,-366.021C584.6,-363.089 395.936,-352.877 342,-320.4 258.737,-270.264 233.274,-142.777 226.34,-92.722"/>
<polygon fill="midnightblue" stroke="midnightblue" points="229.775,-91.985 225.039,-82.5076 222.831,-92.8698 229.775,-91.985"/>
</g>
<!-- Node21&#45;&gt;Node17 -->
<g id="edge47" class="edge"><title>Node21&#45;&gt;Node17</title>
<path fill="none" stroke="midnightblue" d="M665.821,-364.207C566.77,-355.483 304,-325.275 304,-250.3 304,-250.3 304,-250.3 304,-188.9 304,-155.093 304,-115.782 304,-92.4743"/>
<polygon fill="midnightblue" stroke="midnightblue" points="307.5,-92.412 304,-82.412 300.5,-92.412 307.5,-92.412"/>
</g>
<!-- Node21&#45;&gt;Node19 -->
<g id="edge46" class="edge"><title>Node21&#45;&gt;Node19</title>
<path fill="none" stroke="midnightblue" d="M671.436,-356.808C647.925,-348.523 615.454,-335.75 589,-320.4 498.19,-267.705 403.844,-184.257 365.173,-148.585"/>
<polygon fill="midnightblue" stroke="midnightblue" points="367.497,-145.967 357.787,-141.726 362.733,-151.096 367.497,-145.967"/>
</g>
<!-- Node22 -->
<g id="node22" class="node"><title>Node22</title>
<g id="a_node22"><a xlink:href="Match_8h.html" target="_top" xlink:title="Match.h">
<polygon fill="white" stroke="black" points="796.172,-297.5 796.172,-319.9 851.828,-319.9 851.828,-297.5 796.172,-297.5"/>
<text text-anchor="middle" x="824" y="-305.1" font-family="-adobe-utopia-medium-i-normal--0-0-0-0-p-0-iso10646-1" font-size="12.00">Match.h</text>
</a>
</g>
</g>
<!-- Node21&#45;&gt;Node22 -->
<g id="edge37" class="edge"><title>Node21&#45;&gt;Node22</title>
<path fill="none" stroke="midnightblue" d="M719.317,-356.838C736.801,-347.753 764.752,-334.392 787.451,-324.213"/>
<polygon fill="midnightblue" stroke="midnightblue" points="789.086,-327.317 796.812,-320.067 786.251,-320.916 789.086,-327.317"/>
</g>
<!-- Node24 -->
<g id="node24" class="node"><title>Node24</title>
<polygon fill="white" stroke="#bfbfbf" points="705.336,-297.5 705.336,-319.9 734.664,-319.9 734.664,-297.5 705.336,-297.5"/>
<text text-anchor="middle" x="720" y="-305.1" font-family="-adobe-utopia-medium-i-normal--0-0-0-0-p-0-iso10646-1" font-size="12.00">set</text>
</g>
<!-- Node21&#45;&gt;Node24 -->
<g id="edge48" class="edge"><title>Node21&#45;&gt;Node24</title>
<path fill="none" stroke="midnightblue" d="M706.039,-356.838C708.236,-349.421 711.276,-339.156 713.959,-330.097"/>
<polygon fill="midnightblue" stroke="midnightblue" points="717.388,-330.844 716.872,-320.261 710.676,-328.856 717.388,-330.844"/>
</g>
<!-- Node22&#45;&gt;Node3 -->
<g id="edge38" class="edge"><title>Node22&#45;&gt;Node3</title>
<path fill="none" stroke="midnightblue" d="M842.288,-297.478C871.702,-280.409 930.245,-243.786 970,-201.6 991.494,-178.792 998.137,-171.947 1008,-142.2 1013.33,-126.117 1014.35,-106.854 1014.17,-92.5941"/>
<polygon fill="midnightblue" stroke="midnightblue" points="1017.66,-92.2626 1013.82,-82.3871 1010.66,-92.5 1017.66,-92.2626"/>
</g>
<!-- Node22&#45;&gt;Node11 -->
<g id="edge40" class="edge"><title>Node22&#45;&gt;Node11</title>
<path fill="none" stroke="midnightblue" d="M796.13,-297.702C770.181,-288.392 731.271,-274.433 702.388,-264.072"/>
<polygon fill="midnightblue" stroke="midnightblue" points="703.222,-260.653 692.628,-260.57 700.859,-267.242 703.222,-260.653"/>
</g>
<!-- Node22&#45;&gt;Node12 -->
<g id="edge39" class="edge"><title>Node22&#45;&gt;Node12</title>
<path fill="none" stroke="midnightblue" d="M808.545,-297.495C787.026,-283.429 746.657,-257.559 711,-237.6 690.594,-226.177 667.048,-214.367 648.754,-205.481"/>
<polygon fill="midnightblue" stroke="midnightblue" points="650.238,-202.311 639.711,-201.118 647.197,-208.616 650.238,-202.311"/>
</g>
<!-- Node22&#45;&gt;Node18 -->
<g id="edge42" class="edge"><title>Node22&#45;&gt;Node18</title>
<path fill="none" stroke="midnightblue" d="M833.984,-297.332C842.19,-288.338 853.625,-274.651 861,-261 880.606,-224.708 893.434,-177.874 899.635,-151.629"/>
<polygon fill="midnightblue" stroke="midnightblue" points="903.081,-152.26 901.887,-141.733 896.255,-150.707 903.081,-152.26"/>
</g>
<!-- Node22&#45;&gt;Node21 -->
<g id="edge41" class="edge"><title>Node22&#45;&gt;Node21</title>
<path fill="none" stroke="midnightblue" d="M807.482,-320.067C789.917,-329.185 761.946,-342.549 739.288,-352.704"/>
<polygon fill="midnightblue" stroke="midnightblue" points="737.676,-349.59 729.948,-356.838 740.509,-355.991 737.676,-349.59"/>
</g>
<!-- Node23 -->
<g id="node23" class="node"><title>Node23</title>
<polygon fill="white" stroke="#bfbfbf" points="796.334,-238.1 796.334,-260.5 851.666,-260.5 851.666,-238.1 796.334,-238.1"/>
<text text-anchor="middle" x="824" y="-245.7" font-family="-adobe-utopia-medium-i-normal--0-0-0-0-p-0-iso10646-1" font-size="12.00">iomanip</text>
</g>
<!-- Node22&#45;&gt;Node23 -->
<g id="edge43" class="edge"><title>Node22&#45;&gt;Node23</title>
<path fill="none" stroke="midnightblue" d="M824,-297.438C824,-290.102 824,-279.979 824,-270.993"/>
<polygon fill="midnightblue" stroke="midnightblue" points="827.5,-270.861 824,-260.861 820.5,-270.862 827.5,-270.861"/>
</g>
<!-- Node26&#45;&gt;Node3 -->
<g id="edge60" class="edge"><title>Node26&#45;&gt;Node3</title>
<path fill="none" stroke="midnightblue" d="M1187,-534.988C1187,-514.631 1187,-467.839 1187,-428.5 1187,-428.5 1187,-428.5 1187,-367.1 1187,-256.094 1230.3,-204.712 1160,-118.8 1148.76,-105.066 1109.76,-93.0353 1074.75,-84.6256"/>
<polygon fill="midnightblue" stroke="midnightblue" points="1075.54,-81.2165 1065.01,-82.3512 1073.95,-88.0332 1075.54,-81.2165"/>
</g>
<!-- Node26&#45;&gt;Node6 -->
<g id="edge69" class="edge"><title>Node26&#45;&gt;Node6</title>
<path fill="none" stroke="midnightblue" d="M1224.5,-535.063C1243.12,-527.963 1264.13,-516.483 1276,-498.6 1377.31,-345.938 1336.63,-104.125 1321.63,-33.0039"/>
<polygon fill="midnightblue" stroke="midnightblue" points="1325.02,-32.1193 1319.47,-23.0948 1318.18,-33.611 1325.02,-32.1193"/>
</g>
<!-- Node26&#45;&gt;Node8 -->
<g id="edge67" class="edge"><title>Node26&#45;&gt;Node8</title>
<path fill="none" stroke="midnightblue" d="M1136.03,-542.473C974.719,-533.527 473.212,-505.714 255.077,-493.617"/>
<polygon fill="midnightblue" stroke="midnightblue" points="255.085,-490.112 244.907,-493.053 254.697,-497.101 255.085,-490.112"/>
</g>
<!-- Node26&#45;&gt;Node9 -->
<g id="edge61" class="edge"><title>Node26&#45;&gt;Node9</title>
<path fill="none" stroke="midnightblue" d="M1146.98,-535.021C1091.92,-520.98 989.668,-495.259 902,-475.2 829.802,-458.681 809.175,-455.671 732.703,-439.336"/>
<polygon fill="midnightblue" stroke="midnightblue" points="733.087,-435.839 722.576,-437.164 731.62,-442.683 733.087,-435.839"/>
</g>
<!-- Node27 -->
<g id="node27" class="node"><title>Node27</title>
<g id="a_node27"><a xlink:href="MatchFactory_8h.html" target="_top" xlink:title="MatchFactory.h">
<polygon fill="white" stroke="black" points="740.845,-416.3 740.845,-438.7 833.155,-438.7 833.155,-416.3 740.845,-416.3"/>
<text text-anchor="middle" x="787" y="-423.9" font-family="-adobe-utopia-medium-i-normal--0-0-0-0-p-0-iso10646-1" font-size="12.00">MatchFactory.h</text>
</a>
</g>
</g>
<!-- Node26&#45;&gt;Node27 -->
<g id="edge62" class="edge"><title>Node26&#45;&gt;Node27</title>
<path fill="none" stroke="midnightblue" d="M1181.14,-534.877C1171.63,-519.031 1151.21,-489.244 1125,-475.2 1077.45,-449.715 926.442,-436.854 843.28,-431.554"/>
<polygon fill="midnightblue" stroke="midnightblue" points="843.438,-428.057 833.241,-430.93 843.004,-435.044 843.438,-428.057"/>
</g>
<!-- Node28 -->
<g id="node28" class="node"><title>Node28</title>
<polygon fill="white" stroke="#bfbfbf" points="1214.67,-475.7 1214.67,-498.1 1267.33,-498.1 1267.33,-475.7 1214.67,-475.7"/>
<text text-anchor="middle" x="1241" y="-483.3" font-family="-adobe-utopia-medium-i-normal--0-0-0-0-p-0-iso10646-1" font-size="12.00">sstream</text>
</g>
<!-- Node26&#45;&gt;Node28 -->
<g id="edge68" class="edge"><title>Node26&#45;&gt;Node28</title>
<path fill="none" stroke="midnightblue" d="M1196.65,-535.038C1204.24,-526.976 1214.99,-515.549 1224.01,-505.964"/>
<polygon fill="midnightblue" stroke="midnightblue" points="1226.76,-508.143 1231.06,-498.461 1221.66,-503.347 1226.76,-508.143"/>
</g>
<!-- Node27&#45;&gt;Node4 -->
<g id="edge66" class="edge"><title>Node27&#45;&gt;Node4</title>
<path fill="none" stroke="midnightblue" d="M833.214,-424.73C952.234,-417.46 1260,-380.345 1260,-190.9 1260,-190.9 1260,-190.9 1260,-129.5 1260,-121.255 1294.15,-111.932 1075,-59.4 942.716,-27.69 780.26,-17.1608 711.389,-13.9675"/>
<polygon fill="midnightblue" stroke="midnightblue" points="711.302,-10.4604 701.158,-13.5158 710.994,-17.4536 711.302,-10.4604"/>
</g>
<!-- Node27&#45;&gt;Node11 -->
<g id="edge63" class="edge"><title>Node27&#45;&gt;Node11</title>
<path fill="none" stroke="midnightblue" d="M786.052,-416.257C783.397,-392.723 773.996,-333.98 744,-297 732.758,-283.14 716.23,-272.521 701.111,-264.938"/>
<polygon fill="midnightblue" stroke="midnightblue" points="702.477,-261.712 691.94,-260.606 699.488,-268.042 702.477,-261.712"/>
</g>
<!-- Node27&#45;&gt;Node17 -->
<g id="edge65" class="edge"><title>Node27&#45;&gt;Node17</title>
<path fill="none" stroke="midnightblue" d="M740.785,-417.408C633.72,-396.071 375.264,-342.899 342,-320.4 268.286,-270.541 287.946,-142.395 298.956,-92.4542"/>
<polygon fill="midnightblue" stroke="midnightblue" points="302.407,-93.0654 301.262,-82.5327 295.589,-91.4809 302.407,-93.0654"/>
</g>
<!-- Node27&#45;&gt;Node21 -->
<g id="edge64" class="edge"><title>Node27&#45;&gt;Node21</title>
<path fill="none" stroke="midnightblue" d="M771.982,-416.238C759.399,-407.639 741.211,-395.211 726.671,-385.275"/>
<polygon fill="midnightblue" stroke="midnightblue" points="728.402,-382.219 718.171,-379.467 724.453,-387.998 728.402,-382.219"/>
</g>
</g>
</svg>
