<?xml version="1.0" encoding="UTF-8" standalone="no"?>
<!DOCTYPE svg PUBLIC "-//W3C//DTD SVG 1.1//EN"
 "http://www.w3.org/Graphics/SVG/1.1/DTD/svg11.dtd">
<!-- Generated by graphviz version 2.38.0 (20140413.2041)
 -->
<!-- Title: InputManager.h Pages: 1 -->
<svg width="1155pt" height="566pt"
 viewBox="0.00 0.00 1155.00 566.00" xmlns="http://www.w3.org/2000/svg" xmlns:xlink="http://www.w3.org/1999/xlink">
<g id="graph0" class="graph" transform="scale(1 1) rotate(0) translate(4 562)">
<title>InputManager.h</title>
<polygon fill="white" stroke="none" points="-4,4 -4,-562 1151,-562 1151,4 -4,4"/>
<!-- Node1 -->
<g id="node1" class="node"><title>Node1</title>
<polygon fill="#bfbfbf" stroke="black" points="760.514,-535.1 760.514,-557.5 853.486,-557.5 853.486,-535.1 760.514,-535.1"/>
<text text-anchor="middle" x="807" y="-542.7" font-family="-adobe-utopia-medium-i-normal--0-0-0-0-p-0-iso10646-1" font-size="12.00">InputManager.h</text>
</g>
<!-- Node2 -->
<g id="node2" class="node"><title>Node2</title>
<g id="a_node2"><a xlink:href="BasicDefinitions_8h.html" target="_top" xlink:title="BasicDefinitions.h">
<polygon fill="white" stroke="black" points="213.176,-59.9 213.176,-82.3 318.824,-82.3 318.824,-59.9 213.176,-59.9"/>
<text text-anchor="middle" x="266" y="-67.5" font-family="-adobe-utopia-medium-i-normal--0-0-0-0-p-0-iso10646-1" font-size="12.00">BasicDefinitions.h</text>
</a>
</g>
</g>
<!-- Node1&#45;&gt;Node2 -->
<g id="edge1" class="edge"><title>Node1&#45;&gt;Node2</title>
<path fill="none" stroke="midnightblue" d="M760.341,-543.166C593.73,-534.934 38,-501.969 38,-428.5 38,-428.5 38,-428.5 38,-188.9 38,-114.446 135.499,-87.4209 202.981,-77.6326"/>
<polygon fill="midnightblue" stroke="midnightblue" points="203.68,-81.0699 213.119,-76.2574 202.739,-74.1335 203.68,-81.0699"/>
</g>
<!-- Node7 -->
<g id="node7" class="node"><title>Node7</title>
<g id="a_node7"><a xlink:href="PolymorphicIndividualsExtractor_8h.html" target="_top" xlink:title="PolymorphicIndividualsExtractor.h">
<polygon fill="white" stroke="black" points="817.183,-475.7 817.183,-498.1 1002.82,-498.1 1002.82,-475.7 817.183,-475.7"/>
<text text-anchor="middle" x="910" y="-483.3" font-family="-adobe-utopia-medium-i-normal--0-0-0-0-p-0-iso10646-1" font-size="12.00">PolymorphicIndividualsExtractor.h</text>
</a>
</g>
</g>
<!-- Node1&#45;&gt;Node7 -->
<g id="edge6" class="edge"><title>Node1&#45;&gt;Node7</title>
<path fill="none" stroke="midnightblue" d="M825.414,-535.038C841.281,-526.196 864.413,-513.305 882.478,-503.237"/>
<polygon fill="midnightblue" stroke="midnightblue" points="884.366,-506.192 891.398,-498.267 880.959,-500.077 884.366,-506.192"/>
</g>
<!-- Node8 -->
<g id="node8" class="node"><title>Node8</title>
<g id="a_node8"><a xlink:href="Individuals_8h.html" target="_top" xlink:title="Individuals.h">
<polygon fill="white" stroke="black" points="495.504,-416.3 495.504,-438.7 574.496,-438.7 574.496,-416.3 495.504,-416.3"/>
<text text-anchor="middle" x="535" y="-423.9" font-family="-adobe-utopia-medium-i-normal--0-0-0-0-p-0-iso10646-1" font-size="12.00">Individuals.h</text>
</a>
</g>
</g>
<!-- Node1&#45;&gt;Node8 -->
<g id="edge55" class="edge"><title>Node1&#45;&gt;Node8</title>
<path fill="none" stroke="midnightblue" d="M782.862,-534.935C734.169,-514.025 624.092,-466.757 568.486,-442.879"/>
<polygon fill="midnightblue" stroke="midnightblue" points="569.654,-439.572 559.084,-438.842 566.892,-446.004 569.654,-439.572"/>
</g>
<!-- Node14 -->
<g id="node14" class="node"><title>Node14</title>
<polygon fill="white" stroke="#bfbfbf" points="891.334,-59.9 891.334,-82.3 934.666,-82.3 934.666,-59.9 891.334,-59.9"/>
<text text-anchor="middle" x="913" y="-67.5" font-family="-adobe-utopia-medium-i-normal--0-0-0-0-p-0-iso10646-1" font-size="12.00">string</text>
</g>
<!-- Node1&#45;&gt;Node14 -->
<g id="edge56" class="edge"><title>Node1&#45;&gt;Node14</title>
<path fill="none" stroke="midnightblue" d="M853.675,-540.162C906.893,-533.386 989.452,-519.78 1012,-498.6 1094.67,-420.94 1071,-363.728 1071,-250.3 1071,-250.3 1071,-250.3 1071,-188.9 1071,-150.108 1049.31,-143.004 1019,-118.8 1006.89,-109.134 970.962,-94.1863 944.27,-83.8163"/>
<polygon fill="midnightblue" stroke="midnightblue" points="945.505,-80.5416 934.915,-80.2212 942.994,-87.0757 945.505,-80.5416"/>
</g>
<!-- Node3 -->
<g id="node3" class="node"><title>Node3</title>
<polygon fill="white" stroke="#bfbfbf" points="732.008,-0.5 732.008,-22.9 777.992,-22.9 777.992,-0.5 732.008,-0.5"/>
<text text-anchor="middle" x="755" y="-8.1" font-family="-adobe-utopia-medium-i-normal--0-0-0-0-p-0-iso10646-1" font-size="12.00">vector</text>
</g>
<!-- Node2&#45;&gt;Node3 -->
<g id="edge2" class="edge"><title>Node2&#45;&gt;Node3</title>
<path fill="none" stroke="midnightblue" d="M319.262,-63.8479C420.64,-51.948 638.636,-26.3591 721.819,-16.5949"/>
<polygon fill="midnightblue" stroke="midnightblue" points="722.435,-20.0467 731.959,-15.4046 721.619,-13.0944 722.435,-20.0467"/>
</g>
<!-- Node4 -->
<g id="node4" class="node"><title>Node4</title>
<polygon fill="white" stroke="#bfbfbf" points="511.01,-0.5 511.01,-22.9 562.99,-22.9 562.99,-0.5 511.01,-0.5"/>
<text text-anchor="middle" x="537" y="-8.1" font-family="-adobe-utopia-medium-i-normal--0-0-0-0-p-0-iso10646-1" font-size="12.00">fstream</text>
</g>
<!-- Node2&#45;&gt;Node4 -->
<g id="edge3" class="edge"><title>Node2&#45;&gt;Node4</title>
<path fill="none" stroke="midnightblue" d="M314.449,-59.838C367.922,-48.5121 452.76,-30.5427 500.767,-20.3744"/>
<polygon fill="midnightblue" stroke="midnightblue" points="501.656,-23.764 510.713,-18.2678 500.205,-16.9159 501.656,-23.764"/>
</g>
<!-- Node5 -->
<g id="node5" class="node"><title>Node5</title>
<polygon fill="white" stroke="#bfbfbf" points="68.3402,-0.5 68.3402,-22.9 125.66,-22.9 125.66,-0.5 68.3402,-0.5"/>
<text text-anchor="middle" x="97" y="-8.1" font-family="-adobe-utopia-medium-i-normal--0-0-0-0-p-0-iso10646-1" font-size="12.00">iostream</text>
</g>
<!-- Node2&#45;&gt;Node5 -->
<g id="edge4" class="edge"><title>Node2&#45;&gt;Node5</title>
<path fill="none" stroke="midnightblue" d="M235.786,-59.838C207.808,-50.3354 166.06,-36.156 135.662,-25.8313"/>
<polygon fill="midnightblue" stroke="midnightblue" points="136.419,-22.392 125.824,-22.49 134.167,-29.0201 136.419,-22.392"/>
</g>
<!-- Node6 -->
<g id="node6" class="node"><title>Node6</title>
<polygon fill="white" stroke="#bfbfbf" points="239.834,-0.5 239.834,-22.9 292.166,-22.9 292.166,-0.5 239.834,-0.5"/>
<text text-anchor="middle" x="266" y="-8.1" font-family="-adobe-utopia-medium-i-normal--0-0-0-0-p-0-iso10646-1" font-size="12.00">string.h</text>
</g>
<!-- Node2&#45;&gt;Node6 -->
<g id="edge5" class="edge"><title>Node2&#45;&gt;Node6</title>
<path fill="none" stroke="midnightblue" d="M266,-59.838C266,-52.5019 266,-42.3785 266,-33.3932"/>
<polygon fill="midnightblue" stroke="midnightblue" points="269.5,-33.2614 266,-23.2615 262.5,-33.2615 269.5,-33.2614"/>
</g>
<!-- Node7&#45;&gt;Node3 -->
<g id="edge54" class="edge"><title>Node7&#45;&gt;Node3</title>
<path fill="none" stroke="midnightblue" d="M944.811,-475.679C967.565,-467.943 997.184,-455.8 1020,-439.2 1101.8,-379.681 1147,-351.466 1147,-250.3 1147,-250.3 1147,-250.3 1147,-129.5 1147,-54.8835 882.839,-24.0635 788.218,-15.4173"/>
<polygon fill="midnightblue" stroke="midnightblue" points="788.328,-11.9134 778.058,-14.5152 787.709,-18.886 788.328,-11.9134"/>
</g>
<!-- Node7&#45;&gt;Node4 -->
<g id="edge52" class="edge"><title>Node7&#45;&gt;Node4</title>
<path fill="none" stroke="midnightblue" d="M928.721,-475.698C978.26,-447.182 1109,-361.398 1109,-250.3 1109,-250.3 1109,-250.3 1109,-188.9 1109,-95.6776 1032.65,-88.2406 944,-59.4 875.341,-37.0627 659.586,-20.7824 573.243,-15.0016"/>
<polygon fill="midnightblue" stroke="midnightblue" points="573.344,-11.5007 563.135,-14.3334 572.882,-18.4855 573.344,-11.5007"/>
</g>
<!-- Node7&#45;&gt;Node8 -->
<g id="edge7" class="edge"><title>Node7&#45;&gt;Node8</title>
<path fill="none" stroke="midnightblue" d="M842.958,-475.638C768.868,-464.297 651.262,-446.296 584.878,-436.135"/>
<polygon fill="midnightblue" stroke="midnightblue" points="585.093,-432.627 574.678,-434.573 584.034,-439.546 585.093,-432.627"/>
</g>
<!-- Node11 -->
<g id="node11" class="node"><title>Node11</title>
<g id="a_node11"><a xlink:href="SNPs_8h.html" target="_top" xlink:title="SNPs.h">
<polygon fill="white" stroke="black" points="529.164,-178.7 529.164,-201.1 580.836,-201.1 580.836,-178.7 529.164,-178.7"/>
<text text-anchor="middle" x="555" y="-186.3" font-family="-adobe-utopia-medium-i-normal--0-0-0-0-p-0-iso10646-1" font-size="12.00">SNPs.h</text>
</a>
</g>
</g>
<!-- Node7&#45;&gt;Node11 -->
<g id="edge51" class="edge"><title>Node7&#45;&gt;Node11</title>
<path fill="none" stroke="midnightblue" d="M897.365,-475.401C844.527,-431.493 640.974,-262.343 575.448,-207.892"/>
<polygon fill="midnightblue" stroke="midnightblue" points="577.411,-204.973 567.483,-201.273 572.937,-210.357 577.411,-204.973"/>
</g>
<!-- Node7&#45;&gt;Node14 -->
<g id="edge53" class="edge"><title>Node7&#45;&gt;Node14</title>
<path fill="none" stroke="midnightblue" d="M934.891,-475.699C970.832,-459.119 1033,-422.695 1033,-369.1 1033,-369.1 1033,-369.1 1033,-188.9 1033,-139.127 979.332,-103.689 943.778,-85.6731"/>
<polygon fill="midnightblue" stroke="midnightblue" points="945.254,-82.499 934.731,-81.2629 942.186,-88.7911 945.254,-82.499"/>
</g>
<!-- Node8&#45;&gt;Node2 -->
<g id="edge8" class="edge"><title>Node8&#45;&gt;Node2</title>
<path fill="none" stroke="midnightblue" d="M495.469,-424.885C384.132,-419.269 76,-395.936 76,-309.7 76,-309.7 76,-309.7 76,-188.9 76,-127.899 147.955,-97.7443 203.304,-83.572"/>
<polygon fill="midnightblue" stroke="midnightblue" points="204.189,-86.9588 213.074,-81.1888 202.53,-80.1581 204.189,-86.9588"/>
</g>
<!-- Node9 -->
<g id="node9" class="node"><title>Node9</title>
<g id="a_node9"><a xlink:href="Chromosome_8h.html" target="_top" xlink:title="Chromosome.h">
<polygon fill="white" stroke="black" points="463.17,-297.5 463.17,-319.9 552.83,-319.9 552.83,-297.5 463.17,-297.5"/>
<text text-anchor="middle" x="508" y="-305.1" font-family="-adobe-utopia-medium-i-normal--0-0-0-0-p-0-iso10646-1" font-size="12.00">Chromosome.h</text>
</a>
</g>
</g>
<!-- Node8&#45;&gt;Node9 -->
<g id="edge9" class="edge"><title>Node8&#45;&gt;Node9</title>
<path fill="none" stroke="midnightblue" d="M532.604,-416.135C528.152,-396.876 518.531,-355.255 512.726,-330.146"/>
<polygon fill="midnightblue" stroke="midnightblue" points="516.092,-329.165 510.43,-320.21 509.272,-330.741 516.092,-329.165"/>
</g>
<!-- Node16 -->
<g id="node16" class="node"><title>Node16</title>
<polygon fill="white" stroke="#bfbfbf" points="675.669,-59.9 675.669,-82.3 712.331,-82.3 712.331,-59.9 675.669,-59.9"/>
<text text-anchor="middle" x="694" y="-67.5" font-family="-adobe-utopia-medium-i-normal--0-0-0-0-p-0-iso10646-1" font-size="12.00">map</text>
</g>
<!-- Node8&#45;&gt;Node16 -->
<g id="edge49" class="edge"><title>Node8&#45;&gt;Node16</title>
<path fill="none" stroke="midnightblue" d="M554.607,-416.165C584.008,-399.71 639.428,-364.826 671,-320.4 721.169,-249.806 706.975,-137.92 698.374,-92.3828"/>
<polygon fill="midnightblue" stroke="midnightblue" points="701.75,-91.4163 696.35,-82.3006 694.887,-92.7939 701.75,-91.4163"/>
</g>
<!-- Node20 -->
<g id="node20" class="node"><title>Node20</title>
<g id="a_node20"><a xlink:href="Individual_8h.html" target="_top" xlink:title="Individual.h">
<polygon fill="white" stroke="black" points="393.837,-356.9 393.837,-379.3 468.163,-379.3 468.163,-356.9 393.837,-356.9"/>
<text text-anchor="middle" x="431" y="-364.5" font-family="-adobe-utopia-medium-i-normal--0-0-0-0-p-0-iso10646-1" font-size="12.00">Individual.h</text>
</a>
</g>
</g>
<!-- Node8&#45;&gt;Node20 -->
<g id="edge33" class="edge"><title>Node8&#45;&gt;Node20</title>
<path fill="none" stroke="midnightblue" d="M511.091,-416.238C493.609,-407.477 470.278,-394.741 453.209,-384.715"/>
<polygon fill="midnightblue" stroke="midnightblue" points="454.825,-381.603 444.448,-379.467 451.228,-387.608 454.825,-381.603"/>
</g>
<!-- Node24 -->
<g id="node24" class="node"><title>Node24</title>
<polygon fill="white" stroke="#bfbfbf" points="536.008,-356.9 536.008,-379.3 589.992,-379.3 589.992,-356.9 536.008,-356.9"/>
<text text-anchor="middle" x="563" y="-364.5" font-family="-adobe-utopia-medium-i-normal--0-0-0-0-p-0-iso10646-1" font-size="12.00">ostream</text>
</g>
<!-- Node8&#45;&gt;Node24 -->
<g id="edge50" class="edge"><title>Node8&#45;&gt;Node24</title>
<path fill="none" stroke="midnightblue" d="M540.006,-416.238C543.702,-408.66 548.85,-398.108 553.337,-388.908"/>
<polygon fill="midnightblue" stroke="midnightblue" points="556.609,-390.184 557.848,-379.661 550.318,-387.115 556.609,-390.184"/>
</g>
<!-- Node9&#45;&gt;Node2 -->
<g id="edge10" class="edge"><title>Node9&#45;&gt;Node2</title>
<path fill="none" stroke="midnightblue" d="M509.206,-297.393C511.426,-273.204 513.379,-212.273 482,-178.2 442.835,-135.673 408.587,-168.3 357,-142.2 349.399,-138.354 311.41,-108.417 286.981,-88.929"/>
<polygon fill="midnightblue" stroke="midnightblue" points="288.974,-86.0414 278.977,-82.5313 284.603,-91.5092 288.974,-86.0414"/>
</g>
<!-- Node9&#45;&gt;Node3 -->
<g id="edge32" class="edge"><title>Node9&#45;&gt;Node3</title>
<path fill="none" stroke="midnightblue" d="M552.984,-301.619C636.56,-288.035 816.745,-247.682 921,-142.2 947.848,-115.036 967.546,-89.472 944,-59.4 925.024,-35.1648 837.381,-21.7758 788.384,-16.0671"/>
<polygon fill="midnightblue" stroke="midnightblue" points="788.593,-12.5687 778.265,-14.9333 787.814,-19.5252 788.593,-12.5687"/>
</g>
<!-- Node10 -->
<g id="node10" class="node"><title>Node10</title>
<g id="a_node10"><a xlink:href="MarkerSet_8h.html" target="_top" xlink:title="MarkerSet.h">
<polygon fill="white" stroke="black" points="366.179,-238.1 366.179,-260.5 441.821,-260.5 441.821,-238.1 366.179,-238.1"/>
<text text-anchor="middle" x="404" y="-245.7" font-family="-adobe-utopia-medium-i-normal--0-0-0-0-p-0-iso10646-1" font-size="12.00">MarkerSet.h</text>
</a>
</g>
</g>
<!-- Node9&#45;&gt;Node10 -->
<g id="edge11" class="edge"><title>Node9&#45;&gt;Node10</title>
<path fill="none" stroke="midnightblue" d="M489.407,-297.438C473.313,-288.555 449.815,-275.586 431.538,-265.499"/>
<polygon fill="midnightblue" stroke="midnightblue" points="433.229,-262.435 422.783,-260.667 429.847,-268.563 433.229,-262.435"/>
</g>
<!-- Node10&#45;&gt;Node2 -->
<g id="edge12" class="edge"><title>Node10&#45;&gt;Node2</title>
<path fill="none" stroke="midnightblue" d="M373.06,-237.951C349.58,-229.55 316.868,-216.656 290,-201.6 251.055,-179.776 229.179,-182.022 209,-142.2 198.5,-121.48 219.221,-101.275 238.556,-87.9221"/>
<polygon fill="midnightblue" stroke="midnightblue" points="240.47,-90.8525 246.943,-82.4649 236.652,-84.9852 240.47,-90.8525"/>
</g>
<!-- Node10&#45;&gt;Node11 -->
<g id="edge13" class="edge"><title>Node10&#45;&gt;Node11</title>
<path fill="none" stroke="midnightblue" d="M430.996,-238.038C455.701,-228.647 492.423,-214.688 519.497,-204.396"/>
<polygon fill="midnightblue" stroke="midnightblue" points="520.891,-207.61 528.995,-200.785 518.404,-201.067 520.891,-207.61"/>
</g>
<!-- Node18 -->
<g id="node18" class="node"><title>Node18</title>
<polygon fill="white" stroke="#bfbfbf" points="217.664,-119.3 217.664,-141.7 248.336,-141.7 248.336,-119.3 217.664,-119.3"/>
<text text-anchor="middle" x="233" y="-126.9" font-family="-adobe-utopia-medium-i-normal--0-0-0-0-p-0-iso10646-1" font-size="12.00">list</text>
</g>
<!-- Node10&#45;&gt;Node18 -->
<g id="edge31" class="edge"><title>Node10&#45;&gt;Node18</title>
<path fill="none" stroke="midnightblue" d="M384.833,-238.019C368.36,-228.97 344.146,-215.159 324,-201.6 298.834,-184.663 271.447,-163.105 253.363,-148.396"/>
<polygon fill="midnightblue" stroke="midnightblue" points="255.237,-145.407 245.283,-141.776 250.8,-150.821 255.237,-145.407"/>
</g>
<!-- Node19 -->
<g id="node19" class="node"><title>Node19</title>
<polygon fill="white" stroke="#bfbfbf" points="333.171,-178.7 333.171,-201.1 472.829,-201.1 472.829,-178.7 333.171,-178.7"/>
<text text-anchor="middle" x="403" y="-186.3" font-family="-adobe-utopia-medium-i-normal--0-0-0-0-p-0-iso10646-1" font-size="12.00">boost/dynamic_bitset.hpp</text>
</g>
<!-- Node10&#45;&gt;Node19 -->
<g id="edge30" class="edge"><title>Node10&#45;&gt;Node19</title>
<path fill="none" stroke="midnightblue" d="M403.821,-238.038C403.693,-230.702 403.517,-220.579 403.361,-211.593"/>
<polygon fill="midnightblue" stroke="midnightblue" points="406.858,-211.399 403.184,-201.461 399.859,-211.521 406.858,-211.399"/>
</g>
<!-- Node11&#45;&gt;Node2 -->
<g id="edge14" class="edge"><title>Node11&#45;&gt;Node2</title>
<path fill="none" stroke="midnightblue" d="M528.928,-181.747C491.236,-171.287 423.471,-151.999 400,-142.2 379.922,-133.817 376.236,-128.968 357,-118.8 336.601,-108.017 313.466,-96.1493 295.627,-87.0758"/>
<polygon fill="midnightblue" stroke="midnightblue" points="296.814,-83.7531 286.313,-82.347 293.645,-89.9948 296.814,-83.7531"/>
</g>
<!-- Node11&#45;&gt;Node3 -->
<g id="edge26" class="edge"><title>Node11&#45;&gt;Node3</title>
<path fill="none" stroke="midnightblue" d="M581.1,-178.847C617.547,-163.521 683.43,-130.924 721,-82.8 732.922,-67.5287 742.147,-47.4014 747.961,-32.6328"/>
<polygon fill="midnightblue" stroke="midnightblue" points="751.349,-33.5643 751.581,-22.972 744.794,-31.108 751.349,-33.5643"/>
</g>
<!-- Node11&#45;&gt;Node4 -->
<g id="edge25" class="edge"><title>Node11&#45;&gt;Node4</title>
<path fill="none" stroke="midnightblue" d="M553.954,-178.665C551.071,-150.443 542.966,-71.1045 539.101,-33.2699"/>
<polygon fill="midnightblue" stroke="midnightblue" points="542.547,-32.5556 538.048,-22.9631 535.583,-33.2671 542.547,-32.5556"/>
</g>
<!-- Node12 -->
<g id="node12" class="node"><title>Node12</title>
<g id="a_node12"><a xlink:href="NucleotideMap_8h.html" target="_top" xlink:title="NucleotideMap.h">
<polygon fill="white" stroke="black" points="409.179,-119.3 409.179,-141.7 508.821,-141.7 508.821,-119.3 409.179,-119.3"/>
<text text-anchor="middle" x="459" y="-126.9" font-family="-adobe-utopia-medium-i-normal--0-0-0-0-p-0-iso10646-1" font-size="12.00">NucleotideMap.h</text>
</a>
</g>
</g>
<!-- Node11&#45;&gt;Node12 -->
<g id="edge15" class="edge"><title>Node11&#45;&gt;Node12</title>
<path fill="none" stroke="midnightblue" d="M537.837,-178.638C523.185,-169.877 501.884,-157.141 485.116,-147.115"/>
<polygon fill="midnightblue" stroke="midnightblue" points="486.717,-143.995 476.338,-141.867 483.125,-150.002 486.717,-143.995"/>
</g>
<!-- Node13 -->
<g id="node13" class="node"><title>Node13</title>
<g id="a_node13"><a xlink:href="SNP_8h.html" target="_top" xlink:title="SNP.h">
<polygon fill="white" stroke="black" points="565.498,-119.3 565.498,-141.7 612.502,-141.7 612.502,-119.3 565.498,-119.3"/>
<text text-anchor="middle" x="589" y="-126.9" font-family="-adobe-utopia-medium-i-normal--0-0-0-0-p-0-iso10646-1" font-size="12.00">SNP.h</text>
</a>
</g>
</g>
<!-- Node11&#45;&gt;Node13 -->
<g id="edge17" class="edge"><title>Node11&#45;&gt;Node13</title>
<path fill="none" stroke="midnightblue" d="M561.079,-178.638C565.663,-170.899 572.084,-160.058 577.613,-150.723"/>
<polygon fill="midnightblue" stroke="midnightblue" points="580.659,-152.449 582.744,-142.061 574.636,-148.882 580.659,-152.449"/>
</g>
<!-- Node11&#45;&gt;Node14 -->
<g id="edge27" class="edge"><title>Node11&#45;&gt;Node14</title>
<path fill="none" stroke="midnightblue" d="M581.093,-187.117C657.512,-181.655 876.912,-164.188 900,-142.2 913.127,-129.699 915.489,-108.559 915.107,-92.7555"/>
<polygon fill="midnightblue" stroke="midnightblue" points="918.576,-92.1533 914.459,-82.3914 911.59,-92.5905 918.576,-92.1533"/>
</g>
<!-- Node15 -->
<g id="node15" class="node"><title>Node15</title>
<g id="a_node15"><a xlink:href="SNPPositionMap_8h.html" target="_top" xlink:title="SNPPositionMap.h">
<polygon fill="white" stroke="black" points="782.83,-119.3 782.83,-141.7 891.17,-141.7 891.17,-119.3 782.83,-119.3"/>
<text text-anchor="middle" x="837" y="-126.9" font-family="-adobe-utopia-medium-i-normal--0-0-0-0-p-0-iso10646-1" font-size="12.00">SNPPositionMap.h</text>
</a>
</g>
</g>
<!-- Node11&#45;&gt;Node15 -->
<g id="edge21" class="edge"><title>Node11&#45;&gt;Node15</title>
<path fill="none" stroke="midnightblue" d="M581.024,-183.603C625.262,-174.598 716.219,-156.085 776.923,-143.728"/>
<polygon fill="midnightblue" stroke="midnightblue" points="777.666,-147.149 786.767,-141.725 776.27,-140.29 777.666,-147.149"/>
</g>
<!-- Node11&#45;&gt;Node16 -->
<g id="edge28" class="edge"><title>Node11&#45;&gt;Node16</title>
<path fill="none" stroke="midnightblue" d="M571.237,-178.657C585.149,-169.632 605.493,-155.834 622,-142.2 641.975,-125.702 663.003,-104.756 677.141,-90.0741"/>
<polygon fill="midnightblue" stroke="midnightblue" points="679.871,-92.2834 684.236,-82.6299 674.803,-87.4538 679.871,-92.2834"/>
</g>
<!-- Node17 -->
<g id="node17" class="node"><title>Node17</title>
<polygon fill="white" stroke="#bfbfbf" points="266.502,-119.3 266.502,-141.7 315.498,-141.7 315.498,-119.3 266.502,-119.3"/>
<text text-anchor="middle" x="291" y="-126.9" font-family="-adobe-utopia-medium-i-normal--0-0-0-0-p-0-iso10646-1" font-size="12.00">math.h</text>
</g>
<!-- Node11&#45;&gt;Node17 -->
<g id="edge24" class="edge"><title>Node11&#45;&gt;Node17</title>
<path fill="none" stroke="midnightblue" d="M528.722,-183.186C480.792,-172.765 379.194,-150.675 325.664,-139.037"/>
<polygon fill="midnightblue" stroke="midnightblue" points="326.144,-135.56 315.629,-136.855 324.657,-142.4 326.144,-135.56"/>
</g>
<!-- Node11&#45;&gt;Node18 -->
<g id="edge29" class="edge"><title>Node11&#45;&gt;Node18</title>
<path fill="none" stroke="midnightblue" d="M528.967,-184.986C458.957,-174.437 271.042,-145.953 258,-142.2 257.901,-142.171 257.801,-142.143 257.702,-142.113"/>
<polygon fill="midnightblue" stroke="midnightblue" points="258.98,-138.853 248.385,-138.79 256.628,-145.446 258.98,-138.853"/>
</g>
<!-- Node12&#45;&gt;Node2 -->
<g id="edge16" class="edge"><title>Node12&#45;&gt;Node2</title>
<path fill="none" stroke="midnightblue" d="M424.495,-119.238C392.621,-109.758 345.096,-95.624 310.402,-85.3057"/>
<polygon fill="midnightblue" stroke="midnightblue" points="311.113,-81.8657 300.531,-82.3697 309.118,-88.5753 311.113,-81.8657"/>
</g>
<!-- Node13&#45;&gt;Node2 -->
<g id="edge18" class="edge"><title>Node13&#45;&gt;Node2</title>
<path fill="none" stroke="midnightblue" d="M565.249,-125.279C515.922,-116.513 400.974,-96.0861 328.763,-83.2536"/>
<polygon fill="midnightblue" stroke="midnightblue" points="329.327,-79.799 318.869,-81.4952 328.102,-86.691 329.327,-79.799"/>
</g>
<!-- Node13&#45;&gt;Node3 -->
<g id="edge20" class="edge"><title>Node13&#45;&gt;Node3</title>
<path fill="none" stroke="midnightblue" d="M598.913,-119.113C613.103,-104.604 640.437,-77.9655 667,-59.4 684.583,-47.1108 705.785,-35.7675 722.972,-27.3383"/>
<polygon fill="midnightblue" stroke="midnightblue" points="724.564,-30.4564 732.059,-22.9677 721.53,-24.1482 724.564,-30.4564"/>
</g>
<!-- Node13&#45;&gt;Node14 -->
<g id="edge19" class="edge"><title>Node13&#45;&gt;Node14</title>
<path fill="none" stroke="midnightblue" d="M612.562,-125.326C669.808,-115.184 816.261,-89.2382 881.187,-77.736"/>
<polygon fill="midnightblue" stroke="midnightblue" points="882.007,-81.1454 891.243,-75.9545 880.786,-74.2527 882.007,-81.1454"/>
</g>
<!-- Node15&#45;&gt;Node14 -->
<g id="edge23" class="edge"><title>Node15&#45;&gt;Node14</title>
<path fill="none" stroke="midnightblue" d="M850.587,-119.238C861.865,-110.72 878.118,-98.4453 891.211,-88.5568"/>
<polygon fill="midnightblue" stroke="midnightblue" points="893.404,-91.2865 899.274,-82.4667 889.185,-85.7006 893.404,-91.2865"/>
</g>
<!-- Node15&#45;&gt;Node16 -->
<g id="edge22" class="edge"><title>Node15&#45;&gt;Node16</title>
<path fill="none" stroke="midnightblue" d="M811.434,-119.238C786.217,-109.116 747.78,-93.6874 721.812,-83.2636"/>
<polygon fill="midnightblue" stroke="midnightblue" points="723.107,-80.0122 712.523,-79.5351 720.499,-86.5084 723.107,-80.0122"/>
</g>
<!-- Node20&#45;&gt;Node2 -->
<g id="edge34" class="edge"><title>Node20&#45;&gt;Node2</title>
<path fill="none" stroke="midnightblue" d="M393.704,-361.456C309.908,-347.727 114,-309.318 114,-250.3 114,-250.3 114,-250.3 114,-188.9 114,-134.796 175.299,-102.306 220.041,-85.7969"/>
<polygon fill="midnightblue" stroke="midnightblue" points="221.332,-89.053 229.592,-82.4187 218.997,-82.4537 221.332,-89.053"/>
</g>
<!-- Node20&#45;&gt;Node5 -->
<g id="edge48" class="edge"><title>Node20&#45;&gt;Node5</title>
<path fill="none" stroke="midnightblue" d="M393.506,-364.977C288.646,-358.024 0,-331.508 0,-250.3 0,-250.3 0,-250.3 0,-129.5 0,-85.069 42.0546,-48.51 70.7824,-28.7196"/>
<polygon fill="midnightblue" stroke="midnightblue" points="72.813,-31.5726 79.2087,-23.1259 68.9416,-25.7406 72.813,-31.5726"/>
</g>
<!-- Node20&#45;&gt;Node8 -->
<g id="edge43" class="edge"><title>Node20&#45;&gt;Node8</title>
<path fill="none" stroke="midnightblue" d="M455.118,-379.467C472.646,-388.259 495.976,-401 512.994,-411.004"/>
<polygon fill="midnightblue" stroke="midnightblue" points="511.346,-414.097 521.723,-416.238 514.946,-408.094 511.346,-414.097"/>
</g>
<!-- Node20&#45;&gt;Node9 -->
<g id="edge35" class="edge"><title>Node20&#45;&gt;Node9</title>
<path fill="none" stroke="midnightblue" d="M444.766,-356.838C456.192,-348.32 472.659,-336.045 485.924,-326.157"/>
<polygon fill="midnightblue" stroke="midnightblue" points="488.168,-328.849 494.094,-320.067 483.984,-323.237 488.168,-328.849"/>
</g>
<!-- Node20&#45;&gt;Node14 -->
<g id="edge44" class="edge"><title>Node20&#45;&gt;Node14</title>
<path fill="none" stroke="midnightblue" d="M468.353,-361.675C508.405,-355.057 573.341,-341.999 626,-320.4 767.718,-262.273 845.73,-275.606 921,-142.2 929.622,-126.919 926.091,-106.793 921.308,-92.0274"/>
<polygon fill="midnightblue" stroke="midnightblue" points="924.493,-90.5484 917.759,-82.3689 917.923,-92.9624 924.493,-90.5484"/>
</g>
<!-- Node20&#45;&gt;Node16 -->
<g id="edge46" class="edge"><title>Node20&#45;&gt;Node16</title>
<path fill="none" stroke="midnightblue" d="M468.397,-357.776C537.678,-339.402 679,-296.285 679,-250.3 679,-250.3 679,-250.3 679,-188.9 679,-154.815 685.362,-115.588 689.799,-92.373"/>
<polygon fill="midnightblue" stroke="midnightblue" points="693.274,-92.8451 691.787,-82.3551 686.408,-91.4828 693.274,-92.8451"/>
</g>
<!-- Node20&#45;&gt;Node18 -->
<g id="edge45" class="edge"><title>Node20&#45;&gt;Node18</title>
<path fill="none" stroke="midnightblue" d="M402.431,-356.829C365.499,-341.918 302.338,-310.521 272,-261 250.642,-226.138 240.295,-178.789 235.862,-152.068"/>
<polygon fill="midnightblue" stroke="midnightblue" points="239.289,-151.327 234.309,-141.976 232.371,-152.392 239.289,-151.327"/>
</g>
<!-- Node21 -->
<g id="node21" class="node"><title>Node21</title>
<g id="a_node21"><a xlink:href="Match_8h.html" target="_top" xlink:title="Match.h">
<polygon fill="white" stroke="black" points="343.172,-297.5 343.172,-319.9 398.828,-319.9 398.828,-297.5 343.172,-297.5"/>
<text text-anchor="middle" x="371" y="-305.1" font-family="-adobe-utopia-medium-i-normal--0-0-0-0-p-0-iso10646-1" font-size="12.00">Match.h</text>
</a>
</g>
</g>
<!-- Node20&#45;&gt;Node21 -->
<g id="edge36" class="edge"><title>Node20&#45;&gt;Node21</title>
<path fill="none" stroke="midnightblue" d="M414.957,-356.838C405.051,-348.776 392.771,-337.349 383.563,-327.764"/>
<polygon fill="midnightblue" stroke="midnightblue" points="386.013,-325.258 376.67,-320.261 380.858,-329.993 386.013,-325.258"/>
</g>
<!-- Node23 -->
<g id="node23" class="node"><title>Node23</title>
<polygon fill="white" stroke="#bfbfbf" points="416.336,-297.5 416.336,-319.9 445.664,-319.9 445.664,-297.5 416.336,-297.5"/>
<text text-anchor="middle" x="431" y="-305.1" font-family="-adobe-utopia-medium-i-normal--0-0-0-0-p-0-iso10646-1" font-size="12.00">set</text>
</g>
<!-- Node20&#45;&gt;Node23 -->
<g id="edge47" class="edge"><title>Node20&#45;&gt;Node23</title>
<path fill="none" stroke="midnightblue" d="M431,-356.838C431,-349.502 431,-339.379 431,-330.393"/>
<polygon fill="midnightblue" stroke="midnightblue" points="434.5,-330.261 431,-320.261 427.5,-330.262 434.5,-330.261"/>
</g>
<!-- Node21&#45;&gt;Node2 -->
<g id="edge37" class="edge"><title>Node21&#45;&gt;Node2</title>
<path fill="none" stroke="midnightblue" d="M342.752,-299.485C321.364,-292.142 292.299,-279.635 272,-261 227.02,-219.707 218.88,-201.159 203,-142.2 200.295,-132.158 198.323,-128.089 203,-118.8 209.701,-105.492 222.186,-95.0278 234.285,-87.408"/>
<polygon fill="midnightblue" stroke="midnightblue" points="236.063,-90.4229 242.938,-82.3623 232.537,-84.3758 236.063,-90.4229"/>
</g>
<!-- Node21&#45;&gt;Node10 -->
<g id="edge39" class="edge"><title>Node21&#45;&gt;Node10</title>
<path fill="none" stroke="midnightblue" d="M376.9,-297.438C381.303,-289.779 387.452,-279.083 392.78,-269.815"/>
<polygon fill="midnightblue" stroke="midnightblue" points="395.978,-271.275 397.928,-260.861 389.91,-267.786 395.978,-271.275"/>
</g>
<!-- Node21&#45;&gt;Node11 -->
<g id="edge38" class="edge"><title>Node21&#45;&gt;Node11</title>
<path fill="none" stroke="midnightblue" d="M389.311,-297.459C405.657,-288.211 430.162,-274.086 451,-261 479.397,-243.167 511.264,-221.422 532.15,-206.925"/>
<polygon fill="midnightblue" stroke="midnightblue" points="534.181,-209.775 540.387,-201.188 530.181,-204.031 534.181,-209.775"/>
</g>
<!-- Node21&#45;&gt;Node17 -->
<g id="edge41" class="edge"><title>Node21&#45;&gt;Node17</title>
<path fill="none" stroke="midnightblue" d="M342.89,-300.87C322.615,-294.313 296.672,-282.185 284,-261 263.593,-226.884 274.665,-178.227 283.501,-151.314"/>
<polygon fill="midnightblue" stroke="midnightblue" points="286.82,-152.426 286.823,-141.832 280.214,-150.112 286.82,-152.426"/>
</g>
<!-- Node21&#45;&gt;Node20 -->
<g id="edge40" class="edge"><title>Node21&#45;&gt;Node20</title>
<path fill="none" stroke="midnightblue" d="M387.41,-320.261C397.374,-328.405 409.644,-339.851 418.776,-349.389"/>
<polygon fill="midnightblue" stroke="midnightblue" points="416.257,-351.821 425.589,-356.838 421.423,-347.097 416.257,-351.821"/>
</g>
<!-- Node22 -->
<g id="node22" class="node"><title>Node22</title>
<polygon fill="white" stroke="#bfbfbf" points="293.334,-238.1 293.334,-260.5 348.666,-260.5 348.666,-238.1 293.334,-238.1"/>
<text text-anchor="middle" x="321" y="-245.7" font-family="-adobe-utopia-medium-i-normal--0-0-0-0-p-0-iso10646-1" font-size="12.00">iomanip</text>
</g>
<!-- Node21&#45;&gt;Node22 -->
<g id="edge42" class="edge"><title>Node21&#45;&gt;Node22</title>
<path fill="none" stroke="midnightblue" d="M362.061,-297.438C355.109,-289.457 345.283,-278.177 336.987,-268.653"/>
<polygon fill="midnightblue" stroke="midnightblue" points="339.407,-266.103 330.2,-260.861 334.129,-270.701 339.407,-266.103"/>
</g>
</g>
</svg>
