<?xml version="1.0" encoding="UTF-8" standalone="no"?>
<!DOCTYPE svg PUBLIC "-//W3C//DTD SVG 1.1//EN"
 "http://www.w3.org/Graphics/SVG/1.1/DTD/svg11.dtd">
<!-- Generated by graphviz version 2.38.0 (20140413.2041)
 -->
<!-- Title: Match.h Pages: 1 -->
<svg width="994pt" height="507pt"
 viewBox="0.00 0.00 993.88 506.60" xmlns="http://www.w3.org/2000/svg" xmlns:xlink="http://www.w3.org/1999/xlink">
<g id="graph0" class="graph" transform="scale(1 1) rotate(0) translate(4 502.6)">
<title>Match.h</title>
<polygon fill="white" stroke="none" points="-4,4 -4,-502.6 989.883,-502.6 989.883,4 -4,4"/>
<!-- Node1 -->
<g id="node1" class="node"><title>Node1</title>
<polygon fill="#bfbfbf" stroke="black" points="760.389,-475.7 760.389,-498.1 816.045,-498.1 816.045,-475.7 760.389,-475.7"/>
<text text-anchor="middle" x="788.217" y="-483.3" font-family="-adobe-utopia-medium-i-normal--0-0-0-0-p-0-iso10646-1" font-size="12.00">Match.h</text>
</g>
<!-- Node2 -->
<g id="node2" class="node"><title>Node2</title>
<g id="a_node2"><a xlink:href="BasicDefinitions_8h.html" target="_top" xlink:title="BasicDefinitions.h">
<polygon fill="white" stroke="black" points="544.393,-59.9 544.393,-82.3 650.041,-82.3 650.041,-59.9 544.393,-59.9"/>
<text text-anchor="middle" x="597.217" y="-67.5" font-family="-adobe-utopia-medium-i-normal--0-0-0-0-p-0-iso10646-1" font-size="12.00">BasicDefinitions.h</text>
</a>
</g>
</g>
<!-- Node1&#45;&gt;Node2 -->
<g id="edge1" class="edge"><title>Node1&#45;&gt;Node2</title>
<path fill="none" stroke="midnightblue" d="M810.468,-475.613C843.644,-458.562 902.217,-421.096 902.217,-369.1 902.217,-369.1 902.217,-369.1 902.217,-248.3 902.217,-176.918 866.99,-157.82 807.217,-118.8 763.405,-90.1989 704.658,-78.9157 660.442,-74.5615"/>
<polygon fill="midnightblue" stroke="midnightblue" points="660.658,-71.0671 650.387,-73.6653 660.037,-78.0394 660.658,-71.0671"/>
</g>
<!-- Node7 -->
<g id="node7" class="node"><title>Node7</title>
<g id="a_node7"><a xlink:href="SNPs_8h.html" target="_top" xlink:title="SNPs.h">
<polygon fill="white" stroke="black" points="342.381,-178.7 342.381,-201.1 394.053,-201.1 394.053,-178.7 342.381,-178.7"/>
<text text-anchor="middle" x="368.217" y="-186.3" font-family="-adobe-utopia-medium-i-normal--0-0-0-0-p-0-iso10646-1" font-size="12.00">SNPs.h</text>
</a>
</g>
</g>
<!-- Node1&#45;&gt;Node7 -->
<g id="edge6" class="edge"><title>Node1&#45;&gt;Node7</title>
<path fill="none" stroke="midnightblue" d="M760.211,-481.262C663.294,-464.546 345.291,-403.934 294.217,-320.4 269.894,-280.618 316.402,-232.729 346.13,-207.82"/>
<polygon fill="midnightblue" stroke="midnightblue" points="348.442,-210.451 353.997,-201.43 344.028,-205.018 348.442,-210.451"/>
</g>
<!-- Node13 -->
<g id="node13" class="node"><title>Node13</title>
<polygon fill="white" stroke="#bfbfbf" points="711.719,-119.3 711.719,-141.7 760.715,-141.7 760.715,-119.3 711.719,-119.3"/>
<text text-anchor="middle" x="736.217" y="-126.9" font-family="-adobe-utopia-medium-i-normal--0-0-0-0-p-0-iso10646-1" font-size="12.00">math.h</text>
</g>
<!-- Node1&#45;&gt;Node13 -->
<g id="edge46" class="edge"><title>Node1&#45;&gt;Node13</title>
<path fill="none" stroke="midnightblue" d="M801.109,-475.482C822.792,-456.697 864.217,-414.824 864.217,-369.1 864.217,-369.1 864.217,-369.1 864.217,-307.7 864.217,-237.342 796.587,-176.171 759.645,-148.006"/>
<polygon fill="midnightblue" stroke="midnightblue" points="761.517,-145.036 751.403,-141.881 757.342,-150.655 761.517,-145.036"/>
</g>
<!-- Node15 -->
<g id="node15" class="node"><title>Node15</title>
<g id="a_node15"><a xlink:href="MarkerSet_8h.html" target="_top" xlink:title="MarkerSet.h">
<polygon fill="white" stroke="black" points="573.396,-238.1 573.396,-260.5 649.038,-260.5 649.038,-238.1 573.396,-238.1"/>
<text text-anchor="middle" x="611.217" y="-245.7" font-family="-adobe-utopia-medium-i-normal--0-0-0-0-p-0-iso10646-1" font-size="12.00">MarkerSet.h</text>
</a>
</g>
</g>
<!-- Node1&#45;&gt;Node15 -->
<g id="edge23" class="edge"><title>Node1&#45;&gt;Node15</title>
<path fill="none" stroke="midnightblue" d="M780.383,-475.473C752.853,-438.829 660.311,-315.647 625.035,-268.692"/>
<polygon fill="midnightblue" stroke="midnightblue" points="627.765,-266.5 618.96,-260.607 622.169,-270.704 627.765,-266.5"/>
</g>
<!-- Node17 -->
<g id="node17" class="node"><title>Node17</title>
<g id="a_node17"><a xlink:href="Individual_8h.html" target="_top" xlink:title="Individual.h">
<polygon fill="white" stroke="black" points="599.054,-416.3 599.054,-438.7 673.38,-438.7 673.38,-416.3 599.054,-416.3"/>
<text text-anchor="middle" x="636.217" y="-423.9" font-family="-adobe-utopia-medium-i-normal--0-0-0-0-p-0-iso10646-1" font-size="12.00">Individual.h</text>
</a>
</g>
</g>
<!-- Node1&#45;&gt;Node17 -->
<g id="edge28" class="edge"><title>Node1&#45;&gt;Node17</title>
<path fill="none" stroke="midnightblue" d="M760.122,-477.182C733.895,-468.02 695.052,-453.466 667.787,-442.654"/>
<polygon fill="midnightblue" stroke="midnightblue" points="668.895,-439.328 658.311,-438.857 666.292,-445.826 668.895,-439.328"/>
</g>
<!-- Node22 -->
<g id="node22" class="node"><title>Node22</title>
<polygon fill="white" stroke="#bfbfbf" points="930.551,-416.3 930.551,-438.7 985.883,-438.7 985.883,-416.3 930.551,-416.3"/>
<text text-anchor="middle" x="958.217" y="-423.9" font-family="-adobe-utopia-medium-i-normal--0-0-0-0-p-0-iso10646-1" font-size="12.00">iomanip</text>
</g>
<!-- Node1&#45;&gt;Node22 -->
<g id="edge47" class="edge"><title>Node1&#45;&gt;Node22</title>
<path fill="none" stroke="midnightblue" d="M816.289,-476.422C844.796,-466.796 889.114,-451.832 920.637,-441.189"/>
<polygon fill="midnightblue" stroke="midnightblue" points="922.031,-444.412 930.386,-437.897 919.792,-437.78 922.031,-444.412"/>
</g>
<!-- Node3 -->
<g id="node3" class="node"><title>Node3</title>
<polygon fill="white" stroke="#bfbfbf" points="298.225,-0.5 298.225,-22.9 344.209,-22.9 344.209,-0.5 298.225,-0.5"/>
<text text-anchor="middle" x="321.217" y="-8.1" font-family="-adobe-utopia-medium-i-normal--0-0-0-0-p-0-iso10646-1" font-size="12.00">vector</text>
</g>
<!-- Node2&#45;&gt;Node3 -->
<g id="edge2" class="edge"><title>Node2&#45;&gt;Node3</title>
<path fill="none" stroke="midnightblue" d="M547.874,-59.838C491.97,-48.2117 402.405,-29.5847 354.308,-19.5819"/>
<polygon fill="midnightblue" stroke="midnightblue" points="354.923,-16.1351 344.42,-17.5255 353.498,-22.9884 354.923,-16.1351"/>
</g>
<!-- Node4 -->
<g id="node4" class="node"><title>Node4</title>
<polygon fill="white" stroke="#bfbfbf" points="439.227,-0.5 439.227,-22.9 491.207,-22.9 491.207,-0.5 439.227,-0.5"/>
<text text-anchor="middle" x="465.217" y="-8.1" font-family="-adobe-utopia-medium-i-normal--0-0-0-0-p-0-iso10646-1" font-size="12.00">fstream</text>
</g>
<!-- Node2&#45;&gt;Node4 -->
<g id="edge3" class="edge"><title>Node2&#45;&gt;Node4</title>
<path fill="none" stroke="midnightblue" d="M573.618,-59.838C552.631,-50.712 521.725,-37.2726 498.278,-27.0766"/>
<polygon fill="midnightblue" stroke="midnightblue" points="499.623,-23.8448 489.057,-23.0667 496.831,-30.2642 499.623,-23.8448"/>
</g>
<!-- Node5 -->
<g id="node5" class="node"><title>Node5</title>
<polygon fill="white" stroke="#bfbfbf" points="757.557,-0.5 757.557,-22.9 814.877,-22.9 814.877,-0.5 757.557,-0.5"/>
<text text-anchor="middle" x="786.217" y="-8.1" font-family="-adobe-utopia-medium-i-normal--0-0-0-0-p-0-iso10646-1" font-size="12.00">iostream</text>
</g>
<!-- Node2&#45;&gt;Node5 -->
<g id="edge4" class="edge"><title>Node2&#45;&gt;Node5</title>
<path fill="none" stroke="midnightblue" d="M631.006,-59.838C663.767,-49.8886 713.408,-34.8123 747.688,-24.4014"/>
<polygon fill="midnightblue" stroke="midnightblue" points="748.808,-27.7192 757.359,-21.4642 746.774,-21.0213 748.808,-27.7192"/>
</g>
<!-- Node6 -->
<g id="node6" class="node"><title>Node6</title>
<polygon fill="white" stroke="#bfbfbf" points="571.051,-0.5 571.051,-22.9 623.383,-22.9 623.383,-0.5 571.051,-0.5"/>
<text text-anchor="middle" x="597.217" y="-8.1" font-family="-adobe-utopia-medium-i-normal--0-0-0-0-p-0-iso10646-1" font-size="12.00">string.h</text>
</g>
<!-- Node2&#45;&gt;Node6 -->
<g id="edge5" class="edge"><title>Node2&#45;&gt;Node6</title>
<path fill="none" stroke="midnightblue" d="M597.217,-59.838C597.217,-52.5019 597.217,-42.3785 597.217,-33.3932"/>
<polygon fill="midnightblue" stroke="midnightblue" points="600.717,-33.2614 597.217,-23.2615 593.717,-33.2615 600.717,-33.2614"/>
</g>
<!-- Node7&#45;&gt;Node2 -->
<g id="edge7" class="edge"><title>Node7&#45;&gt;Node2</title>
<path fill="none" stroke="midnightblue" d="M394.353,-183.853C436.227,-175.432 516.093,-157.888 540.217,-142.2 560.036,-129.311 576.276,-107.301 586.281,-91.3767"/>
<polygon fill="midnightblue" stroke="midnightblue" points="589.533,-92.7592 591.681,-82.3843 583.532,-89.1552 589.533,-92.7592"/>
</g>
<!-- Node7&#45;&gt;Node3 -->
<g id="edge19" class="edge"><title>Node7&#45;&gt;Node3</title>
<path fill="none" stroke="midnightblue" d="M351.3,-178.569C339.585,-170.347 324.936,-157.67 318.217,-142.2 302.617,-106.283 309.626,-59.3141 315.706,-32.9443"/>
<polygon fill="midnightblue" stroke="midnightblue" points="319.163,-33.546 318.185,-22.9963 312.37,-31.8528 319.163,-33.546"/>
</g>
<!-- Node7&#45;&gt;Node4 -->
<g id="edge18" class="edge"><title>Node7&#45;&gt;Node4</title>
<path fill="none" stroke="midnightblue" d="M373.851,-178.665C389.589,-150.078 434.199,-69.0441 454.689,-31.8232"/>
<polygon fill="midnightblue" stroke="midnightblue" points="457.81,-33.4113 459.567,-22.9631 451.678,-30.0355 457.81,-33.4113"/>
</g>
<!-- Node8 -->
<g id="node8" class="node"><title>Node8</title>
<g id="a_node8"><a xlink:href="NucleotideMap_8h.html" target="_top" xlink:title="NucleotideMap.h">
<polygon fill="white" stroke="black" points="431.396,-119.3 431.396,-141.7 531.038,-141.7 531.038,-119.3 431.396,-119.3"/>
<text text-anchor="middle" x="481.217" y="-126.9" font-family="-adobe-utopia-medium-i-normal--0-0-0-0-p-0-iso10646-1" font-size="12.00">NucleotideMap.h</text>
</a>
</g>
</g>
<!-- Node7&#45;&gt;Node8 -->
<g id="edge8" class="edge"><title>Node7&#45;&gt;Node8</title>
<path fill="none" stroke="midnightblue" d="M388.419,-178.638C406.066,-169.674 431.904,-156.549 451.838,-146.423"/>
<polygon fill="midnightblue" stroke="midnightblue" points="453.478,-149.516 460.809,-141.867 450.308,-143.275 453.478,-149.516"/>
</g>
<!-- Node9 -->
<g id="node9" class="node"><title>Node9</title>
<g id="a_node9"><a xlink:href="SNP_8h.html" target="_top" xlink:title="SNP.h">
<polygon fill="white" stroke="black" points="327.715,-119.3 327.715,-141.7 374.719,-141.7 374.719,-119.3 327.715,-119.3"/>
<text text-anchor="middle" x="351.217" y="-126.9" font-family="-adobe-utopia-medium-i-normal--0-0-0-0-p-0-iso10646-1" font-size="12.00">SNP.h</text>
</a>
</g>
</g>
<!-- Node7&#45;&gt;Node9 -->
<g id="edge10" class="edge"><title>Node7&#45;&gt;Node9</title>
<path fill="none" stroke="midnightblue" d="M365.178,-178.638C362.981,-171.221 359.941,-160.956 357.258,-151.897"/>
<polygon fill="midnightblue" stroke="midnightblue" points="360.541,-150.656 354.345,-142.061 353.829,-152.644 360.541,-150.656"/>
</g>
<!-- Node10 -->
<g id="node10" class="node"><title>Node10</title>
<polygon fill="white" stroke="#bfbfbf" points="192.551,-59.9 192.551,-82.3 235.883,-82.3 235.883,-59.9 192.551,-59.9"/>
<text text-anchor="middle" x="214.217" y="-67.5" font-family="-adobe-utopia-medium-i-normal--0-0-0-0-p-0-iso10646-1" font-size="12.00">string</text>
</g>
<!-- Node7&#45;&gt;Node10 -->
<g id="edge20" class="edge"><title>Node7&#45;&gt;Node10</title>
<path fill="none" stroke="midnightblue" d="M346.446,-178.666C329.114,-170.054 304.628,-156.827 285.217,-142.2 264.44,-126.544 243.605,-105.13 229.93,-90.1037"/>
<polygon fill="midnightblue" stroke="midnightblue" points="232.393,-87.6072 223.116,-82.4897 227.177,-92.2754 232.393,-87.6072"/>
</g>
<!-- Node11 -->
<g id="node11" class="node"><title>Node11</title>
<g id="a_node11"><a xlink:href="SNPPositionMap_8h.html" target="_top" xlink:title="SNPPositionMap.h">
<polygon fill="white" stroke="black" points="125.047,-119.3 125.047,-141.7 233.387,-141.7 233.387,-119.3 125.047,-119.3"/>
<text text-anchor="middle" x="179.217" y="-126.9" font-family="-adobe-utopia-medium-i-normal--0-0-0-0-p-0-iso10646-1" font-size="12.00">SNPPositionMap.h</text>
</a>
</g>
</g>
<!-- Node7&#45;&gt;Node11 -->
<g id="edge14" class="edge"><title>Node7&#45;&gt;Node11</title>
<path fill="none" stroke="midnightblue" d="M342.334,-181.039C311.653,-171.721 260.038,-156.046 223.083,-144.822"/>
<polygon fill="midnightblue" stroke="midnightblue" points="223.664,-141.341 213.078,-141.784 221.629,-148.039 223.664,-141.341"/>
</g>
<!-- Node12 -->
<g id="node12" class="node"><title>Node12</title>
<polygon fill="white" stroke="#bfbfbf" points="21.8862,-59.9 21.8862,-82.3 58.5478,-82.3 58.5478,-59.9 21.8862,-59.9"/>
<text text-anchor="middle" x="40.217" y="-67.5" font-family="-adobe-utopia-medium-i-normal--0-0-0-0-p-0-iso10646-1" font-size="12.00">map</text>
</g>
<!-- Node7&#45;&gt;Node12 -->
<g id="edge21" class="edge"><title>Node7&#45;&gt;Node12</title>
<path fill="none" stroke="midnightblue" d="M342.189,-185.933C286.121,-179.245 155.806,-162.019 116.217,-142.2 91.2036,-129.678 68.4809,-106.425 54.5289,-90.1459"/>
<polygon fill="midnightblue" stroke="midnightblue" points="57.1474,-87.8206 48.0667,-82.3624 51.7616,-92.2921 57.1474,-87.8206"/>
</g>
<!-- Node7&#45;&gt;Node13 -->
<g id="edge17" class="edge"><title>Node7&#45;&gt;Node13</title>
<path fill="none" stroke="midnightblue" d="M394.467,-186.724C449.623,-181.835 581.647,-168.473 701.396,-142.07"/>
<polygon fill="midnightblue" stroke="midnightblue" points="702.473,-145.415 711.464,-139.812 700.941,-138.585 702.473,-145.415"/>
</g>
<!-- Node14 -->
<g id="node14" class="node"><title>Node14</title>
<polygon fill="white" stroke="#bfbfbf" points="662.881,-119.3 662.881,-141.7 693.553,-141.7 693.553,-119.3 662.881,-119.3"/>
<text text-anchor="middle" x="678.217" y="-126.9" font-family="-adobe-utopia-medium-i-normal--0-0-0-0-p-0-iso10646-1" font-size="12.00">list</text>
</g>
<!-- Node7&#45;&gt;Node14 -->
<g id="edge22" class="edge"><title>Node7&#45;&gt;Node14</title>
<path fill="none" stroke="midnightblue" d="M394.114,-184.105C452.625,-173.271 594.452,-147.01 652.649,-136.234"/>
<polygon fill="midnightblue" stroke="midnightblue" points="653.619,-139.614 662.814,-134.352 652.344,-132.731 653.619,-139.614"/>
</g>
<!-- Node8&#45;&gt;Node2 -->
<g id="edge9" class="edge"><title>Node8&#45;&gt;Node2</title>
<path fill="none" stroke="midnightblue" d="M501.955,-119.238C520.07,-110.274 546.595,-97.1491 567.058,-87.0234"/>
<polygon fill="midnightblue" stroke="midnightblue" points="568.856,-90.0387 576.267,-82.4667 565.752,-83.7648 568.856,-90.0387"/>
</g>
<!-- Node9&#45;&gt;Node2 -->
<g id="edge11" class="edge"><title>Node9&#45;&gt;Node2</title>
<path fill="none" stroke="midnightblue" d="M374.804,-123.996C413.329,-115.007 490.717,-96.95 543.253,-84.6916"/>
<polygon fill="midnightblue" stroke="midnightblue" points="544.141,-88.0785 553.084,-82.3977 542.55,-81.2616 544.141,-88.0785"/>
</g>
<!-- Node9&#45;&gt;Node3 -->
<g id="edge13" class="edge"><title>Node9&#45;&gt;Node3</title>
<path fill="none" stroke="midnightblue" d="M348.555,-119.135C343.608,-99.8758 332.918,-58.2548 326.469,-33.1461"/>
<polygon fill="midnightblue" stroke="midnightblue" points="329.794,-32.0248 323.916,-23.2099 323.014,-33.7662 329.794,-32.0248"/>
</g>
<!-- Node9&#45;&gt;Node10 -->
<g id="edge12" class="edge"><title>Node9&#45;&gt;Node10</title>
<path fill="none" stroke="midnightblue" d="M327.666,-119.633C304.973,-110.125 270.496,-95.6796 245.506,-85.2092"/>
<polygon fill="midnightblue" stroke="midnightblue" points="246.681,-81.9068 236.105,-81.2706 243.976,-88.3631 246.681,-81.9068"/>
</g>
<!-- Node11&#45;&gt;Node10 -->
<g id="edge16" class="edge"><title>Node11&#45;&gt;Node10</title>
<path fill="none" stroke="midnightblue" d="M185.474,-119.238C190.193,-111.499 196.804,-100.658 202.496,-91.3231"/>
<polygon fill="midnightblue" stroke="midnightblue" points="205.559,-93.0216 207.777,-82.6615 199.583,-89.3773 205.559,-93.0216"/>
</g>
<!-- Node11&#45;&gt;Node12 -->
<g id="edge15" class="edge"><title>Node11&#45;&gt;Node12</title>
<path fill="none" stroke="midnightblue" d="M154.367,-119.238C130.101,-109.217 93.2412,-93.9963 68.0139,-83.5787"/>
<polygon fill="midnightblue" stroke="midnightblue" points="69.2181,-80.2894 58.6392,-79.7075 66.5462,-86.7594 69.2181,-80.2894"/>
</g>
<!-- Node15&#45;&gt;Node2 -->
<g id="edge24" class="edge"><title>Node15&#45;&gt;Node2</title>
<path fill="none" stroke="midnightblue" d="M644.11,-238.055C701.594,-218.452 810.474,-172.753 769.217,-118.8 755.747,-101.185 703.44,-88.655 660.009,-81.0384"/>
<polygon fill="midnightblue" stroke="midnightblue" points="660.489,-77.5698 650.044,-79.3478 659.318,-84.4712 660.489,-77.5698"/>
</g>
<!-- Node15&#45;&gt;Node7 -->
<g id="edge25" class="edge"><title>Node15&#45;&gt;Node7</title>
<path fill="none" stroke="midnightblue" d="M573.248,-239.331C527.057,-228.42 449.646,-210.135 404.316,-199.427"/>
<polygon fill="midnightblue" stroke="midnightblue" points="404.874,-195.963 394.338,-197.07 403.265,-202.775 404.874,-195.963"/>
</g>
<!-- Node15&#45;&gt;Node14 -->
<g id="edge27" class="edge"><title>Node15&#45;&gt;Node14</title>
<path fill="none" stroke="midnightblue" d="M623.605,-237.945C633.403,-229.166 646.793,-215.771 655.217,-201.6 664.396,-186.159 670.421,-166.596 673.993,-152.063"/>
<polygon fill="midnightblue" stroke="midnightblue" points="677.458,-152.608 676.257,-142.082 670.631,-151.059 677.458,-152.608"/>
</g>
<!-- Node16 -->
<g id="node16" class="node"><title>Node16</title>
<polygon fill="white" stroke="#bfbfbf" points="506.388,-178.7 506.388,-201.1 646.046,-201.1 646.046,-178.7 506.388,-178.7"/>
<text text-anchor="middle" x="576.217" y="-186.3" font-family="-adobe-utopia-medium-i-normal--0-0-0-0-p-0-iso10646-1" font-size="12.00">boost/dynamic_bitset.hpp</text>
</g>
<!-- Node15&#45;&gt;Node16 -->
<g id="edge26" class="edge"><title>Node15&#45;&gt;Node16</title>
<path fill="none" stroke="midnightblue" d="M604.96,-238.038C600.241,-230.299 593.63,-219.458 587.938,-210.123"/>
<polygon fill="midnightblue" stroke="midnightblue" points="590.851,-208.177 582.657,-201.461 584.875,-211.822 590.851,-208.177"/>
</g>
<!-- Node17&#45;&gt;Node1 -->
<g id="edge34" class="edge"><title>Node17&#45;&gt;Node1</title>
<path fill="none" stroke="midnightblue" d="M668.729,-438.77C694.887,-448.008 731.235,-461.662 757.031,-471.898"/>
<polygon fill="midnightblue" stroke="midnightblue" points="755.774,-475.165 766.358,-475.638 758.379,-468.668 755.774,-475.165"/>
</g>
<!-- Node17&#45;&gt;Node2 -->
<g id="edge29" class="edge"><title>Node17&#45;&gt;Node2</title>
<path fill="none" stroke="midnightblue" d="M658.615,-416.152C673.693,-408.153 692.984,-395.757 705.217,-379.8 779.194,-283.304 862.235,-214.49 787.217,-118.8 771.532,-98.7926 709.23,-86.2161 660.189,-79.221"/>
<polygon fill="midnightblue" stroke="midnightblue" points="660.645,-75.7509 650.261,-77.8541 659.69,-82.6855 660.645,-75.7509"/>
</g>
<!-- Node17&#45;&gt;Node5 -->
<g id="edge45" class="edge"><title>Node17&#45;&gt;Node5</title>
<path fill="none" stroke="midnightblue" d="M663.048,-416.257C682.157,-408.158 707.79,-395.595 727.217,-379.8 777.591,-338.843 785.868,-320.336 812.217,-261 823.362,-235.903 825.402,-228.794 829.217,-201.6 837.982,-139.116 810.811,-66.772 795.665,-32.571"/>
<polygon fill="midnightblue" stroke="midnightblue" points="798.739,-30.8784 791.403,-23.2346 792.371,-33.7851 798.739,-30.8784"/>
</g>
<!-- Node17&#45;&gt;Node10 -->
<g id="edge41" class="edge"><title>Node17&#45;&gt;Node10</title>
<path fill="none" stroke="midnightblue" d="M598.743,-422.384C476.51,-408.458 97.217,-361.105 97.217,-309.7 97.217,-309.7 97.217,-309.7 97.217,-188.9 97.217,-156.62 95.5359,-143.584 116.217,-118.8 133.104,-98.5625 160.787,-86.4992 182.431,-79.7187"/>
<polygon fill="midnightblue" stroke="midnightblue" points="183.567,-83.0337 192.193,-76.8832 181.614,-76.3115 183.567,-83.0337"/>
</g>
<!-- Node17&#45;&gt;Node12 -->
<g id="edge43" class="edge"><title>Node17&#45;&gt;Node12</title>
<path fill="none" stroke="midnightblue" d="M598.783,-424.496C506.784,-419.256 271.701,-403.861 197.217,-379.8 146.564,-363.437 124.624,-363.378 93.217,-320.4 41.4304,-249.534 38.1401,-138.684 39.2343,-92.928"/>
<polygon fill="midnightblue" stroke="midnightblue" points="42.738,-92.8746 39.5801,-82.7614 35.7421,-92.6366 42.738,-92.8746"/>
</g>
<!-- Node17&#45;&gt;Node14 -->
<g id="edge42" class="edge"><title>Node17&#45;&gt;Node14</title>
<path fill="none" stroke="midnightblue" d="M649.109,-416.082C670.792,-397.297 712.217,-355.424 712.217,-309.7 712.217,-309.7 712.217,-309.7 712.217,-248.3 712.217,-212.953 697.685,-173.901 687.622,-151.096"/>
<polygon fill="midnightblue" stroke="midnightblue" points="690.726,-149.469 683.381,-141.834 684.361,-152.383 690.726,-149.469"/>
</g>
<!-- Node18 -->
<g id="node18" class="node"><title>Node18</title>
<g id="a_node18"><a xlink:href="Chromosome_8h.html" target="_top" xlink:title="Chromosome.h">
<polygon fill="white" stroke="black" points="303.387,-297.5 303.387,-319.9 393.047,-319.9 393.047,-297.5 303.387,-297.5"/>
<text text-anchor="middle" x="348.217" y="-305.1" font-family="-adobe-utopia-medium-i-normal--0-0-0-0-p-0-iso10646-1" font-size="12.00">Chromosome.h</text>
</a>
</g>
</g>
<!-- Node17&#45;&gt;Node18 -->
<g id="edge30" class="edge"><title>Node17&#45;&gt;Node18</title>
<path fill="none" stroke="midnightblue" d="M598.737,-420.302C561.706,-413.36 503.981,-400.313 457.217,-379.8 424.585,-365.486 390.611,-342.054 369.445,-326.263"/>
<polygon fill="midnightblue" stroke="midnightblue" points="371.283,-323.264 361.199,-320.013 367.054,-328.843 371.283,-323.264"/>
</g>
<!-- Node19 -->
<g id="node19" class="node"><title>Node19</title>
<g id="a_node19"><a xlink:href="Individuals_8h.html" target="_top" xlink:title="Individuals.h">
<polygon fill="white" stroke="black" points="465.721,-356.9 465.721,-379.3 544.713,-379.3 544.713,-356.9 465.721,-356.9"/>
<text text-anchor="middle" x="505.217" y="-364.5" font-family="-adobe-utopia-medium-i-normal--0-0-0-0-p-0-iso10646-1" font-size="12.00">Individuals.h</text>
</a>
</g>
</g>
<!-- Node17&#45;&gt;Node19 -->
<g id="edge35" class="edge"><title>Node17&#45;&gt;Node19</title>
<path fill="none" stroke="midnightblue" d="M607.481,-416.238C585.178,-407.193 554.647,-393.911 532.677,-383.749"/>
<polygon fill="midnightblue" stroke="midnightblue" points="534.081,-380.542 523.541,-379.467 531.11,-386.88 534.081,-380.542"/>
</g>
<!-- Node21 -->
<g id="node21" class="node"><title>Node21</title>
<polygon fill="white" stroke="#bfbfbf" points="621.553,-356.9 621.553,-379.3 650.881,-379.3 650.881,-356.9 621.553,-356.9"/>
<text text-anchor="middle" x="636.217" y="-364.5" font-family="-adobe-utopia-medium-i-normal--0-0-0-0-p-0-iso10646-1" font-size="12.00">set</text>
</g>
<!-- Node17&#45;&gt;Node21 -->
<g id="edge44" class="edge"><title>Node17&#45;&gt;Node21</title>
<path fill="none" stroke="midnightblue" d="M636.217,-416.238C636.217,-408.902 636.217,-398.779 636.217,-389.793"/>
<polygon fill="midnightblue" stroke="midnightblue" points="639.717,-389.661 636.217,-379.661 632.717,-389.662 639.717,-389.661"/>
</g>
<!-- Node18&#45;&gt;Node2 -->
<g id="edge31" class="edge"><title>Node18&#45;&gt;Node2</title>
<path fill="none" stroke="midnightblue" d="M354.753,-297.361C370.595,-273.103 413.496,-212.035 464.217,-178.2 504.558,-151.289 531.779,-175.302 567.217,-142.2 581.307,-129.039 589.075,-108.163 593.154,-92.6104"/>
<polygon fill="midnightblue" stroke="midnightblue" points="596.669,-92.9445 595.51,-82.4133 589.848,-91.3688 596.669,-92.9445"/>
</g>
<!-- Node18&#45;&gt;Node3 -->
<g id="edge33" class="edge"><title>Node18&#45;&gt;Node3</title>
<path fill="none" stroke="midnightblue" d="M303.328,-301.177C226.818,-287.371 73.0518,-247.331 7.21698,-142.2 -2.73892,-126.302 -3.1391,-76.5917 13.217,-59.4 50.2709,-20.4529 215.507,-13.833 287.503,-12.8192"/>
<polygon fill="midnightblue" stroke="midnightblue" points="287.863,-16.3155 297.823,-12.7038 287.785,-9.31595 287.863,-16.3155"/>
</g>
<!-- Node18&#45;&gt;Node15 -->
<g id="edge32" class="edge"><title>Node18&#45;&gt;Node15</title>
<path fill="none" stroke="midnightblue" d="M393.129,-297.898C440.52,-287.555 514.921,-271.317 563.386,-260.739"/>
<polygon fill="midnightblue" stroke="midnightblue" points="564.292,-264.124 573.316,-258.572 562.799,-257.285 564.292,-264.124"/>
</g>
<!-- Node19&#45;&gt;Node2 -->
<g id="edge36" class="edge"><title>Node19&#45;&gt;Node2</title>
<path fill="none" stroke="midnightblue" d="M500.761,-356.502C488.598,-325.748 458.254,-235.063 497.217,-178.2 522.27,-141.638 563.376,-177.471 590.217,-142.2 600.945,-128.102 601.774,-107.517 600.472,-92.2979"/>
<polygon fill="midnightblue" stroke="midnightblue" points="603.942,-91.8374 599.257,-82.3342 596.993,-92.6842 603.942,-91.8374"/>
</g>
<!-- Node19&#45;&gt;Node12 -->
<g id="edge39" class="edge"><title>Node19&#45;&gt;Node12</title>
<path fill="none" stroke="midnightblue" d="M491.648,-356.897C472.341,-342.606 435.575,-316.226 402.217,-297 264.642,-217.708 196.381,-250.46 80.217,-142.2 65.2255,-128.229 54.3081,-107.342 47.7026,-92.0012"/>
<polygon fill="midnightblue" stroke="midnightblue" points="50.8199,-90.3742 43.8214,-82.4198 44.332,-93.0023 50.8199,-90.3742"/>
</g>
<!-- Node19&#45;&gt;Node17 -->
<g id="edge38" class="edge"><title>Node19&#45;&gt;Node17</title>
<path fill="none" stroke="midnightblue" d="M534.211,-379.467C556.577,-388.544 587.107,-401.83 609.01,-411.968"/>
<polygon fill="midnightblue" stroke="midnightblue" points="607.573,-415.16 618.113,-416.238 610.546,-408.822 607.573,-415.16"/>
</g>
<!-- Node19&#45;&gt;Node18 -->
<g id="edge37" class="edge"><title>Node19&#45;&gt;Node18</title>
<path fill="none" stroke="midnightblue" d="M477.149,-356.838C451.664,-347.521 413.883,-333.708 385.8,-323.44"/>
<polygon fill="midnightblue" stroke="midnightblue" points="386.9,-320.116 376.307,-319.97 384.497,-326.691 386.9,-320.116"/>
</g>
<!-- Node20 -->
<g id="node20" class="node"><title>Node20</title>
<polygon fill="white" stroke="#bfbfbf" points="506.225,-297.5 506.225,-319.9 560.209,-319.9 560.209,-297.5 506.225,-297.5"/>
<text text-anchor="middle" x="533.217" y="-305.1" font-family="-adobe-utopia-medium-i-normal--0-0-0-0-p-0-iso10646-1" font-size="12.00">ostream</text>
</g>
<!-- Node19&#45;&gt;Node20 -->
<g id="edge40" class="edge"><title>Node19&#45;&gt;Node20</title>
<path fill="none" stroke="midnightblue" d="M510.223,-356.838C513.919,-349.26 519.067,-338.708 523.554,-329.508"/>
<polygon fill="midnightblue" stroke="midnightblue" points="526.826,-330.784 528.065,-320.261 520.535,-327.715 526.826,-330.784"/>
</g>
</g>
</svg>
