<?xml version="1.0" encoding="UTF-8" standalone="no"?>
<!DOCTYPE svg PUBLIC "-//W3C//DTD SVG 1.1//EN"
 "http://www.w3.org/Graphics/SVG/1.1/DTD/svg11.dtd">
<!-- Generated by graphviz version 2.38.0 (20140413.2041)
 -->
<!-- Title: MatchesBuilder.cpp Pages: 1 -->
<svg width="1279pt" height="625pt"
 viewBox="0.00 0.00 1279.33 625.40" xmlns="http://www.w3.org/2000/svg" xmlns:xlink="http://www.w3.org/1999/xlink">
<g id="graph0" class="graph" transform="scale(1 1) rotate(0) translate(4 621.4)">
<title>MatchesBuilder.cpp</title>
<polygon fill="white" stroke="none" points="-4,4 -4,-621.4 1275.33,-621.4 1275.33,4 -4,4"/>
<!-- Node1 -->
<g id="node1" class="node"><title>Node1</title>
<polygon fill="#bfbfbf" stroke="black" points="345.515,-594.5 345.515,-616.9 458.485,-616.9 458.485,-594.5 345.515,-594.5"/>
<text text-anchor="middle" x="402" y="-602.1" font-family="-adobe-utopia-medium-i-normal--0-0-0-0-p-0-iso10646-1" font-size="12.00">MatchesBuilder.cpp</text>
</g>
<!-- Node2 -->
<g id="node2" class="node"><title>Node2</title>
<g id="a_node2"><a xlink:href="MatchesBuilder_8h.html" target="_top" xlink:title="MatchesBuilder.h">
<polygon fill="white" stroke="black" points="351.179,-535.1 351.179,-557.5 452.821,-557.5 452.821,-535.1 351.179,-535.1"/>
<text text-anchor="middle" x="402" y="-542.7" font-family="-adobe-utopia-medium-i-normal--0-0-0-0-p-0-iso10646-1" font-size="12.00">MatchesBuilder.h</text>
</a>
</g>
</g>
<!-- Node1&#45;&gt;Node2 -->
<g id="edge1" class="edge"><title>Node1&#45;&gt;Node2</title>
<path fill="none" stroke="midnightblue" d="M402,-594.438C402,-587.102 402,-576.979 402,-567.993"/>
<polygon fill="midnightblue" stroke="midnightblue" points="405.5,-567.861 402,-557.861 398.5,-567.862 405.5,-567.861"/>
</g>
<!-- Node3 -->
<g id="node3" class="node"><title>Node3</title>
<g id="a_node3"><a xlink:href="BasicDefinitions_8h.html" target="_top" xlink:title="BasicDefinitions.h">
<polygon fill="white" stroke="black" points="232.176,-59.9 232.176,-82.3 337.824,-82.3 337.824,-59.9 232.176,-59.9"/>
<text text-anchor="middle" x="285" y="-67.5" font-family="-adobe-utopia-medium-i-normal--0-0-0-0-p-0-iso10646-1" font-size="12.00">BasicDefinitions.h</text>
</a>
</g>
</g>
<!-- Node2&#45;&gt;Node3 -->
<g id="edge2" class="edge"><title>Node2&#45;&gt;Node3</title>
<path fill="none" stroke="midnightblue" d="M351.062,-537.872C259.375,-523.058 76,-486.215 76,-428.5 76,-428.5 76,-428.5 76,-188.9 76,-121.274 160.412,-92.4298 221.945,-80.387"/>
<polygon fill="midnightblue" stroke="midnightblue" points="222.794,-83.7894 231.99,-78.5282 221.52,-76.9062 222.794,-83.7894"/>
</g>
<!-- Node6 -->
<g id="node6" class="node"><title>Node6</title>
<polygon fill="white" stroke="#bfbfbf" points="9.3402,-0.5 9.3402,-22.9 66.6598,-22.9 66.6598,-0.5 9.3402,-0.5"/>
<text text-anchor="middle" x="38" y="-8.1" font-family="-adobe-utopia-medium-i-normal--0-0-0-0-p-0-iso10646-1" font-size="12.00">iostream</text>
</g>
<!-- Node2&#45;&gt;Node6 -->
<g id="edge63" class="edge"><title>Node2&#45;&gt;Node6</title>
<path fill="none" stroke="midnightblue" d="M351.086,-541.262C242.914,-531.28 0,-500.814 0,-428.5 0,-428.5 0,-428.5 0,-129.5 0,-93.6499 16.3888,-54.5129 27.6407,-31.8677"/>
<polygon fill="midnightblue" stroke="midnightblue" points="30.7602,-33.4547 32.2286,-22.9621 24.5375,-30.2488 30.7602,-33.4547"/>
</g>
<!-- Node8 -->
<g id="node8" class="node"><title>Node8</title>
<g id="a_node8"><a xlink:href="Individuals_8h.html" target="_top" xlink:title="Individuals.h">
<polygon fill="white" stroke="black" points="319.504,-416.3 319.504,-438.7 398.496,-438.7 398.496,-416.3 319.504,-416.3"/>
<text text-anchor="middle" x="359" y="-423.9" font-family="-adobe-utopia-medium-i-normal--0-0-0-0-p-0-iso10646-1" font-size="12.00">Individuals.h</text>
</a>
</g>
</g>
<!-- Node2&#45;&gt;Node8 -->
<g id="edge7" class="edge"><title>Node2&#45;&gt;Node8</title>
<path fill="none" stroke="midnightblue" d="M398.184,-534.935C391.062,-515.589 375.633,-473.681 366.403,-448.609"/>
<polygon fill="midnightblue" stroke="midnightblue" points="369.609,-447.185 362.869,-439.01 363.04,-449.603 369.609,-447.185"/>
</g>
<!-- Node25 -->
<g id="node25" class="node"><title>Node25</title>
<g id="a_node25"><a xlink:href="MatchFactory_8h.html" target="_top" xlink:title="MatchFactory.h">
<polygon fill="white" stroke="black" points="416.845,-416.3 416.845,-438.7 509.155,-438.7 509.155,-416.3 416.845,-416.3"/>
<text text-anchor="middle" x="463" y="-423.9" font-family="-adobe-utopia-medium-i-normal--0-0-0-0-p-0-iso10646-1" font-size="12.00">MatchFactory.h</text>
</a>
</g>
</g>
<!-- Node2&#45;&gt;Node25 -->
<g id="edge51" class="edge"><title>Node2&#45;&gt;Node25</title>
<path fill="none" stroke="midnightblue" d="M407.413,-534.935C417.607,-515.417 439.796,-472.931 452.846,-447.942"/>
<polygon fill="midnightblue" stroke="midnightblue" points="455.984,-449.494 457.511,-439.01 449.779,-446.254 455.984,-449.494"/>
</g>
<!-- Node26 -->
<g id="node26" class="node"><title>Node26</title>
<g id="a_node26"><a xlink:href="PolymorphicIndividualsExtractor_8h.html" target="_top" xlink:title="PolymorphicIndividualsExtractor.h">
<polygon fill="white" stroke="black" points="1015.18,-475.7 1015.18,-498.1 1200.82,-498.1 1200.82,-475.7 1015.18,-475.7"/>
<text text-anchor="middle" x="1108" y="-483.3" font-family="-adobe-utopia-medium-i-normal--0-0-0-0-p-0-iso10646-1" font-size="12.00">PolymorphicIndividualsExtractor.h</text>
</a>
</g>
</g>
<!-- Node2&#45;&gt;Node26 -->
<g id="edge56" class="edge"><title>Node2&#45;&gt;Node26</title>
<path fill="none" stroke="midnightblue" d="M453.058,-541.149C568.394,-531.772 850.948,-508.799 1004.53,-496.312"/>
<polygon fill="midnightblue" stroke="midnightblue" points="1005.23,-499.767 1014.91,-495.468 1004.66,-492.79 1005.23,-499.767"/>
</g>
<!-- Node27 -->
<g id="node27" class="node"><title>Node27</title>
<polygon fill="white" stroke="#bfbfbf" points="1218.67,-475.7 1218.67,-498.1 1271.33,-498.1 1271.33,-475.7 1218.67,-475.7"/>
<text text-anchor="middle" x="1245" y="-483.3" font-family="-adobe-utopia-medium-i-normal--0-0-0-0-p-0-iso10646-1" font-size="12.00">sstream</text>
</g>
<!-- Node2&#45;&gt;Node27 -->
<g id="edge62" class="edge"><title>Node2&#45;&gt;Node27</title>
<path fill="none" stroke="midnightblue" d="M452.952,-543.947C603.413,-539.706 1044.95,-525.428 1208.51,-498.457"/>
<polygon fill="midnightblue" stroke="midnightblue" points="1209.15,-501.898 1218.41,-496.746 1207.96,-495 1209.15,-501.898"/>
</g>
<!-- Node4 -->
<g id="node4" class="node"><title>Node4</title>
<polygon fill="white" stroke="#bfbfbf" points="541.008,-0.5 541.008,-22.9 586.992,-22.9 586.992,-0.5 541.008,-0.5"/>
<text text-anchor="middle" x="564" y="-8.1" font-family="-adobe-utopia-medium-i-normal--0-0-0-0-p-0-iso10646-1" font-size="12.00">vector</text>
</g>
<!-- Node3&#45;&gt;Node4 -->
<g id="edge3" class="edge"><title>Node3&#45;&gt;Node4</title>
<path fill="none" stroke="midnightblue" d="M334.88,-59.838C391.537,-48.1816 482.398,-29.4884 530.926,-19.5046"/>
<polygon fill="midnightblue" stroke="midnightblue" points="531.804,-22.8972 540.894,-17.4538 530.394,-16.0408 531.804,-22.8972"/>
</g>
<!-- Node5 -->
<g id="node5" class="node"><title>Node5</title>
<polygon fill="white" stroke="#bfbfbf" points="624.01,-0.5 624.01,-22.9 675.99,-22.9 675.99,-0.5 624.01,-0.5"/>
<text text-anchor="middle" x="650" y="-8.1" font-family="-adobe-utopia-medium-i-normal--0-0-0-0-p-0-iso10646-1" font-size="12.00">fstream</text>
</g>
<!-- Node3&#45;&gt;Node5 -->
<g id="edge4" class="edge"><title>Node3&#45;&gt;Node5</title>
<path fill="none" stroke="midnightblue" d="M337.948,-62.9148C399.936,-54.3257 505.633,-39.129 596,-23.4 601.851,-22.3816 608.043,-21.2271 614.066,-20.0627"/>
<polygon fill="midnightblue" stroke="midnightblue" points="614.818,-23.4821 623.953,-18.1158 613.465,-16.614 614.818,-23.4821"/>
</g>
<!-- Node3&#45;&gt;Node6 -->
<g id="edge5" class="edge"><title>Node3&#45;&gt;Node6</title>
<path fill="none" stroke="midnightblue" d="M240.841,-59.838C194.111,-48.9784 121.098,-32.0111 76.5947,-21.669"/>
<polygon fill="midnightblue" stroke="midnightblue" points="77.2725,-18.2333 66.7398,-19.3788 75.688,-25.0516 77.2725,-18.2333"/>
</g>
<!-- Node7 -->
<g id="node7" class="node"><title>Node7</title>
<polygon fill="white" stroke="#bfbfbf" points="258.834,-0.5 258.834,-22.9 311.166,-22.9 311.166,-0.5 258.834,-0.5"/>
<text text-anchor="middle" x="285" y="-8.1" font-family="-adobe-utopia-medium-i-normal--0-0-0-0-p-0-iso10646-1" font-size="12.00">string.h</text>
</g>
<!-- Node3&#45;&gt;Node7 -->
<g id="edge6" class="edge"><title>Node3&#45;&gt;Node7</title>
<path fill="none" stroke="midnightblue" d="M285,-59.838C285,-52.5019 285,-42.3785 285,-33.3932"/>
<polygon fill="midnightblue" stroke="midnightblue" points="288.5,-33.2614 285,-23.2615 281.5,-33.2615 288.5,-33.2614"/>
</g>
<!-- Node8&#45;&gt;Node3 -->
<g id="edge8" class="edge"><title>Node8&#45;&gt;Node3</title>
<path fill="none" stroke="midnightblue" d="M319.364,-425.122C250.024,-420.367 114,-399.583 114,-309.7 114,-309.7 114,-309.7 114,-188.9 114,-131.939 179.499,-100.746 229.422,-85.2428"/>
<polygon fill="midnightblue" stroke="midnightblue" points="230.584,-88.5489 239.175,-82.3485 228.593,-81.8382 230.584,-88.5489"/>
</g>
<!-- Node9 -->
<g id="node9" class="node"><title>Node9</title>
<g id="a_node9"><a xlink:href="Chromosome_8h.html" target="_top" xlink:title="Chromosome.h">
<polygon fill="white" stroke="black" points="186.17,-297.5 186.17,-319.9 275.83,-319.9 275.83,-297.5 186.17,-297.5"/>
<text text-anchor="middle" x="231" y="-305.1" font-family="-adobe-utopia-medium-i-normal--0-0-0-0-p-0-iso10646-1" font-size="12.00">Chromosome.h</text>
</a>
</g>
</g>
<!-- Node8&#45;&gt;Node9 -->
<g id="edge9" class="edge"><title>Node8&#45;&gt;Node9</title>
<path fill="none" stroke="midnightblue" d="M347.641,-416.135C325.683,-396.099 277.201,-351.859 250.166,-327.189"/>
<polygon fill="midnightblue" stroke="midnightblue" points="252.264,-324.365 242.518,-320.21 247.545,-329.536 252.264,-324.365"/>
</g>
<!-- Node16 -->
<g id="node16" class="node"><title>Node16</title>
<polygon fill="white" stroke="#bfbfbf" points="975.669,-59.9 975.669,-82.3 1012.33,-82.3 1012.33,-59.9 975.669,-59.9"/>
<text text-anchor="middle" x="994" y="-67.5" font-family="-adobe-utopia-medium-i-normal--0-0-0-0-p-0-iso10646-1" font-size="12.00">map</text>
</g>
<!-- Node8&#45;&gt;Node16 -->
<g id="edge49" class="edge"><title>Node8&#45;&gt;Node16</title>
<path fill="none" stroke="midnightblue" d="M398.575,-417.833C401.763,-417.143 404.935,-416.458 408,-415.8 676.841,-358.077 851.332,-487.661 1007,-261 1042.57,-209.208 1017.78,-129.454 1002.93,-92.3628"/>
<polygon fill="midnightblue" stroke="midnightblue" points="1005.98,-90.5721 998.894,-82.6936 999.518,-93.27 1005.98,-90.5721"/>
</g>
<!-- Node20 -->
<g id="node20" class="node"><title>Node20</title>
<g id="a_node20"><a xlink:href="Individual_8h.html" target="_top" xlink:title="Individual.h">
<polygon fill="white" stroke="black" points="321.837,-356.9 321.837,-379.3 396.163,-379.3 396.163,-356.9 321.837,-356.9"/>
<text text-anchor="middle" x="359" y="-364.5" font-family="-adobe-utopia-medium-i-normal--0-0-0-0-p-0-iso10646-1" font-size="12.00">Individual.h</text>
</a>
</g>
</g>
<!-- Node8&#45;&gt;Node20 -->
<g id="edge33" class="edge"><title>Node8&#45;&gt;Node20</title>
<path fill="none" stroke="midnightblue" d="M353.684,-416.238C352.338,-408.902 351.939,-398.779 352.489,-389.793"/>
<polygon fill="midnightblue" stroke="midnightblue" points="355.989,-389.99 353.63,-379.661 349.033,-389.207 355.989,-389.99"/>
</g>
<!-- Node24 -->
<g id="node24" class="node"><title>Node24</title>
<polygon fill="white" stroke="#bfbfbf" points="212.008,-356.9 212.008,-379.3 265.992,-379.3 265.992,-356.9 212.008,-356.9"/>
<text text-anchor="middle" x="239" y="-364.5" font-family="-adobe-utopia-medium-i-normal--0-0-0-0-p-0-iso10646-1" font-size="12.00">ostream</text>
</g>
<!-- Node8&#45;&gt;Node24 -->
<g id="edge50" class="edge"><title>Node8&#45;&gt;Node24</title>
<path fill="none" stroke="midnightblue" d="M337.546,-416.238C318.722,-407.234 291.119,-394.03 269.912,-383.886"/>
<polygon fill="midnightblue" stroke="midnightblue" points="271.204,-380.624 260.672,-379.467 268.183,-386.939 271.204,-380.624"/>
</g>
<!-- Node9&#45;&gt;Node3 -->
<g id="edge10" class="edge"><title>Node9&#45;&gt;Node3</title>
<path fill="none" stroke="midnightblue" d="M230.388,-297.456C229.013,-268.379 227.516,-183.272 252,-118.8 255.924,-108.468 262.676,-98.2903 269.054,-90.0869"/>
<polygon fill="midnightblue" stroke="midnightblue" points="271.785,-92.2766 275.431,-82.329 266.377,-87.8314 271.785,-92.2766"/>
</g>
<!-- Node9&#45;&gt;Node4 -->
<g id="edge32" class="edge"><title>Node9&#45;&gt;Node4</title>
<path fill="none" stroke="midnightblue" d="M226.327,-297.338C210.226,-259.894 161.332,-130.089 223,-59.4 262.768,-13.8146 452.945,-11.1247 530.73,-11.9926"/>
<polygon fill="midnightblue" stroke="midnightblue" points="530.885,-15.495 540.932,-12.1345 530.982,-8.49564 530.885,-15.495"/>
</g>
<!-- Node10 -->
<g id="node10" class="node"><title>Node10</title>
<g id="a_node10"><a xlink:href="MarkerSet_8h.html" target="_top" xlink:title="MarkerSet.h">
<polygon fill="white" stroke="black" points="372.179,-238.1 372.179,-260.5 447.821,-260.5 447.821,-238.1 372.179,-238.1"/>
<text text-anchor="middle" x="410" y="-245.7" font-family="-adobe-utopia-medium-i-normal--0-0-0-0-p-0-iso10646-1" font-size="12.00">MarkerSet.h</text>
</a>
</g>
</g>
<!-- Node9&#45;&gt;Node10 -->
<g id="edge11" class="edge"><title>Node9&#45;&gt;Node10</title>
<path fill="none" stroke="midnightblue" d="M263.002,-297.438C292.437,-287.999 336.263,-273.945 368.404,-263.639"/>
<polygon fill="midnightblue" stroke="midnightblue" points="369.521,-266.956 377.974,-260.57 367.383,-260.291 369.521,-266.956"/>
</g>
<!-- Node10&#45;&gt;Node3 -->
<g id="edge12" class="edge"><title>Node10&#45;&gt;Node3</title>
<path fill="none" stroke="midnightblue" d="M400.695,-238.071C392.262,-228.713 379.572,-214.417 369,-201.6 347.753,-175.842 341.239,-170.169 323,-142.2 312.291,-125.778 301.801,-106.071 294.565,-91.7405"/>
<polygon fill="midnightblue" stroke="midnightblue" points="297.498,-89.7781 289.915,-82.3795 291.229,-92.8925 297.498,-89.7781"/>
</g>
<!-- Node11 -->
<g id="node11" class="node"><title>Node11</title>
<g id="a_node11"><a xlink:href="SNPs_8h.html" target="_top" xlink:title="SNPs.h">
<polygon fill="white" stroke="black" points="572.164,-178.7 572.164,-201.1 623.836,-201.1 623.836,-178.7 572.164,-178.7"/>
<text text-anchor="middle" x="598" y="-186.3" font-family="-adobe-utopia-medium-i-normal--0-0-0-0-p-0-iso10646-1" font-size="12.00">SNPs.h</text>
</a>
</g>
</g>
<!-- Node10&#45;&gt;Node11 -->
<g id="edge13" class="edge"><title>Node10&#45;&gt;Node11</title>
<path fill="none" stroke="midnightblue" d="M443.611,-238.038C477.063,-227.824 528.21,-212.208 562.358,-201.782"/>
<polygon fill="midnightblue" stroke="midnightblue" points="563.398,-205.124 571.94,-198.857 561.353,-198.429 563.398,-205.124"/>
</g>
<!-- Node18 -->
<g id="node18" class="node"><title>Node18</title>
<polygon fill="white" stroke="#bfbfbf" points="331.664,-119.3 331.664,-141.7 362.336,-141.7 362.336,-119.3 331.664,-119.3"/>
<text text-anchor="middle" x="347" y="-126.9" font-family="-adobe-utopia-medium-i-normal--0-0-0-0-p-0-iso10646-1" font-size="12.00">list</text>
</g>
<!-- Node10&#45;&gt;Node18 -->
<g id="edge31" class="edge"><title>Node10&#45;&gt;Node18</title>
<path fill="none" stroke="midnightblue" d="M404.409,-237.935C393.881,-218.417 370.965,-175.931 357.487,-150.942"/>
<polygon fill="midnightblue" stroke="midnightblue" points="360.497,-149.15 352.669,-142.01 354.336,-152.473 360.497,-149.15"/>
</g>
<!-- Node19 -->
<g id="node19" class="node"><title>Node19</title>
<polygon fill="white" stroke="#bfbfbf" points="408.171,-178.7 408.171,-201.1 547.829,-201.1 547.829,-178.7 408.171,-178.7"/>
<text text-anchor="middle" x="478" y="-186.3" font-family="-adobe-utopia-medium-i-normal--0-0-0-0-p-0-iso10646-1" font-size="12.00">boost/dynamic_bitset.hpp</text>
</g>
<!-- Node10&#45;&gt;Node19 -->
<g id="edge30" class="edge"><title>Node10&#45;&gt;Node19</title>
<path fill="none" stroke="midnightblue" d="M422.157,-238.038C431.994,-229.735 446.061,-217.86 457.615,-208.107"/>
<polygon fill="midnightblue" stroke="midnightblue" points="460.104,-210.586 465.488,-201.461 455.589,-205.237 460.104,-210.586"/>
</g>
<!-- Node11&#45;&gt;Node3 -->
<g id="edge14" class="edge"><title>Node11&#45;&gt;Node3</title>
<path fill="none" stroke="midnightblue" d="M571.99,-182.042C567.017,-180.751 561.851,-179.423 557,-178.2 491.358,-161.652 471.476,-168.267 409,-142.2 390.695,-134.563 388.166,-128.736 371,-118.8 352.194,-107.914 330.713,-96.2491 313.924,-87.3005"/>
<polygon fill="midnightblue" stroke="midnightblue" points="315.111,-83.968 304.637,-82.372 311.829,-90.1513 315.111,-83.968"/>
</g>
<!-- Node11&#45;&gt;Node4 -->
<g id="edge26" class="edge"><title>Node11&#45;&gt;Node4</title>
<path fill="none" stroke="midnightblue" d="M587.74,-178.446C579.828,-169.609 569.502,-156.186 565,-142.2 553.117,-105.287 556.792,-59.3306 560.455,-33.272"/>
<polygon fill="midnightblue" stroke="midnightblue" points="563.958,-33.5223 562.03,-23.1044 557.04,-32.4508 563.958,-33.5223"/>
</g>
<!-- Node11&#45;&gt;Node5 -->
<g id="edge25" class="edge"><title>Node11&#45;&gt;Node5</title>
<path fill="none" stroke="midnightblue" d="M607.444,-178.622C615.091,-169.683 625.471,-156.027 631,-142.2 645.553,-105.81 649.121,-59.6715 649.9,-33.4388"/>
<polygon fill="midnightblue" stroke="midnightblue" points="653.403,-33.2597 650.089,-23.1968 646.405,-33.1304 653.403,-33.2597"/>
</g>
<!-- Node12 -->
<g id="node12" class="node"><title>Node12</title>
<g id="a_node12"><a xlink:href="NucleotideMap_8h.html" target="_top" xlink:title="NucleotideMap.h">
<polygon fill="white" stroke="black" points="418.179,-119.3 418.179,-141.7 517.821,-141.7 517.821,-119.3 418.179,-119.3"/>
<text text-anchor="middle" x="468" y="-126.9" font-family="-adobe-utopia-medium-i-normal--0-0-0-0-p-0-iso10646-1" font-size="12.00">NucleotideMap.h</text>
</a>
</g>
</g>
<!-- Node11&#45;&gt;Node12 -->
<g id="edge15" class="edge"><title>Node11&#45;&gt;Node12</title>
<path fill="none" stroke="midnightblue" d="M574.759,-178.638C554.182,-169.553 523.923,-156.192 500.868,-146.013"/>
<polygon fill="midnightblue" stroke="midnightblue" points="502.04,-142.704 491.478,-141.867 499.213,-149.108 502.04,-142.704"/>
</g>
<!-- Node13 -->
<g id="node13" class="node"><title>Node13</title>
<g id="a_node13"><a xlink:href="SNP_8h.html" target="_top" xlink:title="SNP.h">
<polygon fill="white" stroke="black" points="574.498,-119.3 574.498,-141.7 621.502,-141.7 621.502,-119.3 574.498,-119.3"/>
<text text-anchor="middle" x="598" y="-126.9" font-family="-adobe-utopia-medium-i-normal--0-0-0-0-p-0-iso10646-1" font-size="12.00">SNP.h</text>
</a>
</g>
</g>
<!-- Node11&#45;&gt;Node13 -->
<g id="edge17" class="edge"><title>Node11&#45;&gt;Node13</title>
<path fill="none" stroke="midnightblue" d="M598,-178.638C598,-171.302 598,-161.179 598,-152.193"/>
<polygon fill="midnightblue" stroke="midnightblue" points="601.5,-152.061 598,-142.061 594.5,-152.062 601.5,-152.061"/>
</g>
<!-- Node14 -->
<g id="node14" class="node"><title>Node14</title>
<polygon fill="white" stroke="#bfbfbf" points="748.334,-59.9 748.334,-82.3 791.666,-82.3 791.666,-59.9 748.334,-59.9"/>
<text text-anchor="middle" x="770" y="-67.5" font-family="-adobe-utopia-medium-i-normal--0-0-0-0-p-0-iso10646-1" font-size="12.00">string</text>
</g>
<!-- Node11&#45;&gt;Node14 -->
<g id="edge27" class="edge"><title>Node11&#45;&gt;Node14</title>
<path fill="none" stroke="midnightblue" d="M613.264,-178.535C643.278,-158.153 710.174,-112.726 746.098,-88.3309"/>
<polygon fill="midnightblue" stroke="midnightblue" points="748.217,-91.1233 754.523,-82.6099 744.284,-85.3323 748.217,-91.1233"/>
</g>
<!-- Node15 -->
<g id="node15" class="node"><title>Node15</title>
<g id="a_node15"><a xlink:href="SNPPositionMap_8h.html" target="_top" xlink:title="SNPPositionMap.h">
<polygon fill="white" stroke="black" points="715.83,-119.3 715.83,-141.7 824.17,-141.7 824.17,-119.3 715.83,-119.3"/>
<text text-anchor="middle" x="770" y="-126.9" font-family="-adobe-utopia-medium-i-normal--0-0-0-0-p-0-iso10646-1" font-size="12.00">SNPPositionMap.h</text>
</a>
</g>
</g>
<!-- Node11&#45;&gt;Node15 -->
<g id="edge21" class="edge"><title>Node11&#45;&gt;Node15</title>
<path fill="none" stroke="midnightblue" d="M624.123,-180.182C652.143,-170.831 696.998,-155.862 729.579,-144.989"/>
<polygon fill="midnightblue" stroke="midnightblue" points="730.886,-148.243 739.264,-141.757 728.67,-141.603 730.886,-148.243"/>
</g>
<!-- Node11&#45;&gt;Node16 -->
<g id="edge28" class="edge"><title>Node11&#45;&gt;Node16</title>
<path fill="none" stroke="midnightblue" d="M623.878,-186.78C668.084,-182.503 760.4,-170.698 833,-142.2 851.463,-134.953 853.205,-127.559 871,-118.8 902.521,-103.285 940.565,-89.5555 965.917,-81.0667"/>
<polygon fill="midnightblue" stroke="midnightblue" points="967.222,-84.3218 975.622,-77.8654 965.029,-77.6741 967.222,-84.3218"/>
</g>
<!-- Node17 -->
<g id="node17" class="node"><title>Node17</title>
<polygon fill="white" stroke="#bfbfbf" points="879.502,-119.3 879.502,-141.7 928.498,-141.7 928.498,-119.3 879.502,-119.3"/>
<text text-anchor="middle" x="904" y="-126.9" font-family="-adobe-utopia-medium-i-normal--0-0-0-0-p-0-iso10646-1" font-size="12.00">math.h</text>
</g>
<!-- Node11&#45;&gt;Node17 -->
<g id="edge24" class="edge"><title>Node11&#45;&gt;Node17</title>
<path fill="none" stroke="midnightblue" d="M624.046,-185.264C672.147,-178.349 778.036,-162.194 866,-142.2 867.069,-141.957 868.153,-141.702 869.246,-141.439"/>
<polygon fill="midnightblue" stroke="midnightblue" points="870.344,-144.771 879.155,-138.888 868.599,-137.992 870.344,-144.771"/>
</g>
<!-- Node11&#45;&gt;Node18 -->
<g id="edge29" class="edge"><title>Node11&#45;&gt;Node18</title>
<path fill="none" stroke="midnightblue" d="M572.03,-181.876C567.054,-180.6 561.875,-179.32 557,-178.2 477.062,-159.836 454.94,-164.465 376,-142.2 374.751,-141.848 373.479,-141.466 372.199,-141.065"/>
<polygon fill="midnightblue" stroke="midnightblue" points="373.099,-137.673 362.504,-137.731 370.823,-144.293 373.099,-137.673"/>
</g>
<!-- Node12&#45;&gt;Node3 -->
<g id="edge16" class="edge"><title>Node12&#45;&gt;Node3</title>
<path fill="none" stroke="midnightblue" d="M435.283,-119.238C405.19,-109.799 360.385,-95.7452 327.526,-85.4387"/>
<polygon fill="midnightblue" stroke="midnightblue" points="328.331,-82.0231 317.741,-82.3697 326.236,-88.7022 328.331,-82.0231"/>
</g>
<!-- Node13&#45;&gt;Node3 -->
<g id="edge18" class="edge"><title>Node13&#45;&gt;Node3</title>
<path fill="none" stroke="midnightblue" d="M574.474,-125.186C526.911,-116.463 417.914,-96.4747 348.074,-83.6669"/>
<polygon fill="midnightblue" stroke="midnightblue" points="348.533,-80.1928 338.066,-81.8315 347.27,-87.078 348.533,-80.1928"/>
</g>
<!-- Node13&#45;&gt;Node4 -->
<g id="edge20" class="edge"><title>Node13&#45;&gt;Node4</title>
<path fill="none" stroke="midnightblue" d="M594.983,-119.135C589.377,-99.8758 577.261,-58.2548 569.952,-33.1461"/>
<polygon fill="midnightblue" stroke="midnightblue" points="573.215,-31.8331 567.059,-23.2099 566.494,-33.7896 573.215,-31.8331"/>
</g>
<!-- Node13&#45;&gt;Node14 -->
<g id="edge19" class="edge"><title>Node13&#45;&gt;Node14</title>
<path fill="none" stroke="midnightblue" d="M621.555,-121.639C651.822,-111.538 704.477,-93.9664 738.256,-82.6937"/>
<polygon fill="midnightblue" stroke="midnightblue" points="739.709,-85.8984 748.087,-79.4128 737.493,-79.2584 739.709,-85.8984"/>
</g>
<!-- Node15&#45;&gt;Node14 -->
<g id="edge23" class="edge"><title>Node15&#45;&gt;Node14</title>
<path fill="none" stroke="midnightblue" d="M770,-119.238C770,-111.902 770,-101.779 770,-92.7932"/>
<polygon fill="midnightblue" stroke="midnightblue" points="773.5,-92.6614 770,-82.6615 766.5,-92.6615 773.5,-92.6614"/>
</g>
<!-- Node15&#45;&gt;Node16 -->
<g id="edge22" class="edge"><title>Node15&#45;&gt;Node16</title>
<path fill="none" stroke="midnightblue" d="M810.047,-119.238C854.868,-107.753 926.349,-89.4355 965.709,-79.3497"/>
<polygon fill="midnightblue" stroke="midnightblue" points="966.631,-82.7266 975.449,-76.8538 964.893,-75.9457 966.631,-82.7266"/>
</g>
<!-- Node20&#45;&gt;Node3 -->
<g id="edge34" class="edge"><title>Node20&#45;&gt;Node3</title>
<path fill="none" stroke="midnightblue" d="M321.534,-362.86C273.57,-356.572 194.546,-343.017 177,-320.4 118.285,-244.717 221.463,-132.204 266.013,-89.441"/>
<polygon fill="midnightblue" stroke="midnightblue" points="268.482,-91.9232 273.355,-82.5157 263.679,-86.8308 268.482,-91.9232"/>
</g>
<!-- Node20&#45;&gt;Node6 -->
<g id="edge48" class="edge"><title>Node20&#45;&gt;Node6</title>
<path fill="none" stroke="midnightblue" d="M321.549,-361.597C236.873,-348.102 38,-310.048 38,-250.3 38,-250.3 38,-250.3 38,-129.5 38,-95.6931 38,-56.3821 38,-33.0743"/>
<polygon fill="midnightblue" stroke="midnightblue" points="41.5001,-33.012 38,-23.012 34.5001,-33.012 41.5001,-33.012"/>
</g>
<!-- Node20&#45;&gt;Node8 -->
<g id="edge43" class="edge"><title>Node20&#45;&gt;Node8</title>
<path fill="none" stroke="midnightblue" d="M364.37,-379.661C365.691,-387.072 366.064,-397.217 365.488,-406.171"/>
<polygon fill="midnightblue" stroke="midnightblue" points="361.996,-405.9 364.316,-416.238 368.949,-406.71 361.996,-405.9"/>
</g>
<!-- Node20&#45;&gt;Node9 -->
<g id="edge35" class="edge"><title>Node20&#45;&gt;Node9</title>
<path fill="none" stroke="midnightblue" d="M336.116,-356.838C315.856,-347.753 286.062,-334.392 263.363,-324.213"/>
<polygon fill="midnightblue" stroke="midnightblue" points="264.674,-320.965 254.117,-320.067 261.81,-327.352 264.674,-320.965"/>
</g>
<!-- Node20&#45;&gt;Node14 -->
<g id="edge44" class="edge"><title>Node20&#45;&gt;Node14</title>
<path fill="none" stroke="midnightblue" d="M396.19,-366.188C503.2,-361.297 812.181,-330.748 937,-142.2 970.415,-91.7236 859.128,-77.5218 801.879,-73.5822"/>
<polygon fill="midnightblue" stroke="midnightblue" points="802.064,-70.087 791.866,-72.9596 801.629,-77.0736 802.064,-70.087"/>
</g>
<!-- Node20&#45;&gt;Node16 -->
<g id="edge46" class="edge"><title>Node20&#45;&gt;Node16</title>
<path fill="none" stroke="midnightblue" d="M396.351,-364.219C532.467,-353.23 994,-311.46 994,-250.3 994,-250.3 994,-250.3 994,-188.9 994,-155.093 994,-115.782 994,-92.4743"/>
<polygon fill="midnightblue" stroke="midnightblue" points="997.5,-92.412 994,-82.412 990.5,-92.412 997.5,-92.412"/>
</g>
<!-- Node20&#45;&gt;Node18 -->
<g id="edge45" class="edge"><title>Node20&#45;&gt;Node18</title>
<path fill="none" stroke="midnightblue" d="M351.717,-356.546C345.902,-347.439 338.215,-333.69 335,-320.4 320.498,-260.453 333.71,-186.87 341.795,-151.868"/>
<polygon fill="midnightblue" stroke="midnightblue" points="345.25,-152.468 344.197,-141.926 338.446,-150.824 345.25,-152.468"/>
</g>
<!-- Node21 -->
<g id="node21" class="node"><title>Node21</title>
<g id="a_node21"><a xlink:href="Match_8h.html" target="_top" xlink:title="Match.h">
<polygon fill="white" stroke="black" points="452.172,-297.5 452.172,-319.9 507.828,-319.9 507.828,-297.5 452.172,-297.5"/>
<text text-anchor="middle" x="480" y="-305.1" font-family="-adobe-utopia-medium-i-normal--0-0-0-0-p-0-iso10646-1" font-size="12.00">Match.h</text>
</a>
</g>
</g>
<!-- Node20&#45;&gt;Node21 -->
<g id="edge36" class="edge"><title>Node20&#45;&gt;Node21</title>
<path fill="none" stroke="midnightblue" d="M375.317,-356.838C392.801,-347.753 420.752,-334.392 443.451,-324.213"/>
<polygon fill="midnightblue" stroke="midnightblue" points="445.086,-327.317 452.812,-320.067 442.251,-320.916 445.086,-327.317"/>
</g>
<!-- Node23 -->
<g id="node23" class="node"><title>Node23</title>
<polygon fill="white" stroke="#bfbfbf" points="344.336,-297.5 344.336,-319.9 373.664,-319.9 373.664,-297.5 344.336,-297.5"/>
<text text-anchor="middle" x="359" y="-305.1" font-family="-adobe-utopia-medium-i-normal--0-0-0-0-p-0-iso10646-1" font-size="12.00">set</text>
</g>
<!-- Node20&#45;&gt;Node23 -->
<g id="edge47" class="edge"><title>Node20&#45;&gt;Node23</title>
<path fill="none" stroke="midnightblue" d="M359,-356.838C359,-349.502 359,-339.379 359,-330.393"/>
<polygon fill="midnightblue" stroke="midnightblue" points="362.5,-330.261 359,-320.261 355.5,-330.262 362.5,-330.261"/>
</g>
<!-- Node21&#45;&gt;Node3 -->
<g id="edge37" class="edge"><title>Node21&#45;&gt;Node3</title>
<path fill="none" stroke="midnightblue" d="M451.836,-302.515C425.982,-296.475 388.006,-284.211 363,-261 312.823,-214.424 293.974,-130.745 287.732,-92.3536"/>
<polygon fill="midnightblue" stroke="midnightblue" points="291.182,-91.7563 286.235,-82.3875 284.26,-92.7967 291.182,-91.7563"/>
</g>
<!-- Node21&#45;&gt;Node10 -->
<g id="edge39" class="edge"><title>Node21&#45;&gt;Node10</title>
<path fill="none" stroke="midnightblue" d="M467.485,-297.438C457.261,-289.054 442.597,-277.029 430.638,-267.224"/>
<polygon fill="midnightblue" stroke="midnightblue" points="432.832,-264.496 422.88,-260.861 428.393,-269.909 432.832,-264.496"/>
</g>
<!-- Node21&#45;&gt;Node11 -->
<g id="edge38" class="edge"><title>Node21&#45;&gt;Node11</title>
<path fill="none" stroke="midnightblue" d="M491.269,-297.468C501.502,-288.109 516.944,-273.812 530,-261 547.767,-243.565 567.52,-223.073 581.138,-208.764"/>
<polygon fill="midnightblue" stroke="midnightblue" points="583.677,-211.173 588.021,-201.509 578.599,-206.355 583.677,-211.173"/>
</g>
<!-- Node21&#45;&gt;Node17 -->
<g id="edge41" class="edge"><title>Node21&#45;&gt;Node17</title>
<path fill="none" stroke="midnightblue" d="M504.629,-297.465C576.64,-267.54 786.947,-180.143 869.843,-145.694"/>
<polygon fill="midnightblue" stroke="midnightblue" points="871.412,-148.833 879.303,-141.763 868.726,-142.369 871.412,-148.833"/>
</g>
<!-- Node21&#45;&gt;Node20 -->
<g id="edge40" class="edge"><title>Node21&#45;&gt;Node20</title>
<path fill="none" stroke="midnightblue" d="M463.482,-320.067C445.917,-329.185 417.946,-342.549 395.288,-352.704"/>
<polygon fill="midnightblue" stroke="midnightblue" points="393.676,-349.59 385.948,-356.838 396.509,-355.991 393.676,-349.59"/>
</g>
<!-- Node22 -->
<g id="node22" class="node"><title>Node22</title>
<polygon fill="white" stroke="#bfbfbf" points="465.334,-238.1 465.334,-260.5 520.666,-260.5 520.666,-238.1 465.334,-238.1"/>
<text text-anchor="middle" x="493" y="-245.7" font-family="-adobe-utopia-medium-i-normal--0-0-0-0-p-0-iso10646-1" font-size="12.00">iomanip</text>
</g>
<!-- Node21&#45;&gt;Node22 -->
<g id="edge42" class="edge"><title>Node21&#45;&gt;Node22</title>
<path fill="none" stroke="midnightblue" d="M482.324,-297.438C484.004,-290.021 486.329,-279.756 488.38,-270.697"/>
<polygon fill="midnightblue" stroke="midnightblue" points="491.813,-271.388 490.608,-260.861 484.986,-269.841 491.813,-271.388"/>
</g>
<!-- Node25&#45;&gt;Node4 -->
<g id="edge55" class="edge"><title>Node25&#45;&gt;Node4</title>
<path fill="none" stroke="midnightblue" d="M509.169,-425.065C637.066,-420.764 989.469,-406.592 1034,-379.8 1066.39,-360.311 1146,-235.436 1146,-190.9 1146,-190.9 1146,-190.9 1146,-129.5 1146,-65.8047 1081.85,-78.2091 1021,-59.4 847.926,-5.90597 794.182,-50.045 615,-23.4 609.095,-22.522 602.846,-21.3857 596.823,-20.1826"/>
<polygon fill="midnightblue" stroke="midnightblue" points="597.504,-16.7494 586.999,-18.1287 596.071,-23.6012 597.504,-16.7494"/>
</g>
<!-- Node25&#45;&gt;Node10 -->
<g id="edge52" class="edge"><title>Node25&#45;&gt;Node10</title>
<path fill="none" stroke="midnightblue" d="M459.921,-416.265C451.396,-387.921 427.362,-308.02 416.041,-270.383"/>
<polygon fill="midnightblue" stroke="midnightblue" points="419.319,-269.131 413.087,-260.563 412.616,-271.147 419.319,-269.131"/>
</g>
<!-- Node25&#45;&gt;Node16 -->
<g id="edge54" class="edge"><title>Node25&#45;&gt;Node16</title>
<path fill="none" stroke="midnightblue" d="M509.284,-424.867C633.167,-420.171 965.787,-405.31 1008,-379.8 1059.7,-348.556 1115.37,-170.424 1084,-118.8 1070.64,-96.8228 1043.22,-84.7205 1022.14,-78.3797"/>
<polygon fill="midnightblue" stroke="midnightblue" points="1022.95,-74.9746 1012.38,-75.7117 1021.11,-81.7265 1022.95,-74.9746"/>
</g>
<!-- Node25&#45;&gt;Node20 -->
<g id="edge53" class="edge"><title>Node25&#45;&gt;Node20</title>
<path fill="none" stroke="midnightblue" d="M444.407,-416.238C428.313,-407.355 404.815,-394.386 386.538,-384.299"/>
<polygon fill="midnightblue" stroke="midnightblue" points="388.229,-381.235 377.783,-379.467 384.847,-387.363 388.229,-381.235"/>
</g>
<!-- Node26&#45;&gt;Node4 -->
<g id="edge61" class="edge"><title>Node26&#45;&gt;Node4</title>
<path fill="none" stroke="midnightblue" d="M1120.89,-475.482C1142.58,-456.697 1184,-414.824 1184,-369.1 1184,-369.1 1184,-369.1 1184,-129.5 1184,-75.5865 1135.71,-77.6987 1085,-59.4 887.935,11.7063 822.403,-52.9715 615,-23.4 609.29,-22.5859 603.262,-21.5137 597.427,-20.3625"/>
<polygon fill="midnightblue" stroke="midnightblue" points="597.748,-16.8545 587.245,-18.2436 596.322,-23.7076 597.748,-16.8545"/>
</g>
<!-- Node26&#45;&gt;Node5 -->
<g id="edge59" class="edge"><title>Node26&#45;&gt;Node5</title>
<path fill="none" stroke="midnightblue" d="M1141.09,-475.699C1160.09,-468.311 1183.07,-456.54 1198,-439.2 1219.49,-414.248 1222,-402.031 1222,-369.1 1222,-369.1 1222,-369.1 1222,-129.5 1222,-96.5691 1223.95,-79.6678 1198,-59.4 1157.77,-27.9855 802.434,-16.469 686.444,-13.527"/>
<polygon fill="midnightblue" stroke="midnightblue" points="686.381,-10.0245 676.298,-13.2762 686.208,-17.0223 686.381,-10.0245"/>
</g>
<!-- Node26&#45;&gt;Node8 -->
<g id="edge57" class="edge"><title>Node26&#45;&gt;Node8</title>
<path fill="none" stroke="midnightblue" d="M1014.98,-484.079C882.417,-480.506 631.498,-470.128 408.675,-439.096"/>
<polygon fill="midnightblue" stroke="midnightblue" points="409.147,-435.628 398.756,-437.698 408.17,-442.56 409.147,-435.628"/>
</g>
<!-- Node26&#45;&gt;Node11 -->
<g id="edge58" class="edge"><title>Node26&#45;&gt;Node11</title>
<path fill="none" stroke="midnightblue" d="M1090.15,-475.574C1013.95,-431.498 715.698,-258.98 624.583,-206.277"/>
<polygon fill="midnightblue" stroke="midnightblue" points="626.116,-203.12 615.707,-201.142 622.611,-209.179 626.116,-203.12"/>
</g>
<!-- Node26&#45;&gt;Node14 -->
<g id="edge60" class="edge"><title>Node26&#45;&gt;Node14</title>
<path fill="none" stroke="midnightblue" d="M1107.03,-475.472C1101.9,-426.693 1073.55,-219.207 955,-118.8 911.261,-81.7539 842.128,-73.4525 801.914,-71.9627"/>
<polygon fill="midnightblue" stroke="midnightblue" points="801.949,-68.4626 791.865,-71.7109 801.774,-75.4604 801.949,-68.4626"/>
</g>
</g>
</svg>
