<?xml version="1.0" encoding="UTF-8" standalone="no"?>
<!DOCTYPE svg PUBLIC "-//W3C//DTD SVG 1.1//EN"
 "http://www.w3.org/Graphics/SVG/1.1/DTD/svg11.dtd">
<!-- Generated by graphviz version 2.38.0 (20140413.2041)
 -->
<!-- Title: PolymorphicIndividualsExtractor.h Pages: 1 -->
<svg width="1078pt" height="507pt"
 viewBox="0.00 0.00 1078.00 506.60" xmlns="http://www.w3.org/2000/svg" xmlns:xlink="http://www.w3.org/1999/xlink">
<g id="graph0" class="graph" transform="scale(1 1) rotate(0) translate(4 502.6)">
<title>PolymorphicIndividualsExtractor.h</title>
<polygon fill="white" stroke="none" points="-4,4 -4,-502.6 1074,-502.6 1074,4 -4,4"/>
<!-- Node1 -->
<g id="node1" class="node"><title>Node1</title>
<polygon fill="#bfbfbf" stroke="black" points="787.183,-475.7 787.183,-498.1 972.817,-498.1 972.817,-475.7 787.183,-475.7"/>
<text text-anchor="middle" x="880" y="-483.3" font-family="-adobe-utopia-medium-i-normal--0-0-0-0-p-0-iso10646-1" font-size="12.00">PolymorphicIndividualsExtractor.h</text>
</g>
<!-- Node2 -->
<g id="node2" class="node"><title>Node2</title>
<g id="a_node2"><a xlink:href="Individuals_8h.html" target="_top" xlink:title="Individuals.h">
<polygon fill="white" stroke="black" points="465.504,-416.3 465.504,-438.7 544.496,-438.7 544.496,-416.3 465.504,-416.3"/>
<text text-anchor="middle" x="505" y="-423.9" font-family="-adobe-utopia-medium-i-normal--0-0-0-0-p-0-iso10646-1" font-size="12.00">Individuals.h</text>
</a>
</g>
</g>
<!-- Node1&#45;&gt;Node2 -->
<g id="edge1" class="edge"><title>Node1&#45;&gt;Node2</title>
<path fill="none" stroke="midnightblue" d="M812.958,-475.638C738.868,-464.297 621.262,-446.296 554.878,-436.135"/>
<polygon fill="midnightblue" stroke="midnightblue" points="555.093,-432.627 544.678,-434.573 554.034,-439.546 555.093,-432.627"/>
</g>
<!-- Node4 -->
<g id="node4" class="node"><title>Node4</title>
<polygon fill="white" stroke="#bfbfbf" points="306.008,-0.5 306.008,-22.9 351.992,-22.9 351.992,-0.5 306.008,-0.5"/>
<text text-anchor="middle" x="329" y="-8.1" font-family="-adobe-utopia-medium-i-normal--0-0-0-0-p-0-iso10646-1" font-size="12.00">vector</text>
</g>
<!-- Node1&#45;&gt;Node4 -->
<g id="edge52" class="edge"><title>Node1&#45;&gt;Node4</title>
<path fill="none" stroke="midnightblue" d="M787.073,-483.173C560.865,-475.301 0,-447.844 0,-369.1 0,-369.1 0,-369.1 0,-129.5 0,7.52171 155.706,-61.0823 296.308,-23.3341"/>
<polygon fill="midnightblue" stroke="midnightblue" points="297.328,-26.6829 305.974,-20.5599 295.397,-19.9545 297.328,-26.6829"/>
</g>
<!-- Node5 -->
<g id="node5" class="node"><title>Node5</title>
<polygon fill="white" stroke="#bfbfbf" points="586.01,-0.5 586.01,-22.9 637.99,-22.9 637.99,-0.5 586.01,-0.5"/>
<text text-anchor="middle" x="612" y="-8.1" font-family="-adobe-utopia-medium-i-normal--0-0-0-0-p-0-iso10646-1" font-size="12.00">fstream</text>
</g>
<!-- Node1&#45;&gt;Node5 -->
<g id="edge50" class="edge"><title>Node1&#45;&gt;Node5</title>
<path fill="none" stroke="midnightblue" d="M937.78,-475.656C993.679,-462.031 1070,-431.924 1070,-369.1 1070,-369.1 1070,-369.1 1070,-129.5 1070,-42.6406 756.795,-19.5646 648.397,-14.1792"/>
<polygon fill="midnightblue" stroke="midnightblue" points="648.424,-10.6766 638.269,-13.6984 648.092,-17.6687 648.424,-10.6766"/>
</g>
<!-- Node10 -->
<g id="node10" class="node"><title>Node10</title>
<g id="a_node10"><a xlink:href="SNPs_8h.html" target="_top" xlink:title="SNPs.h">
<polygon fill="white" stroke="black" points="536.164,-178.7 536.164,-201.1 587.836,-201.1 587.836,-178.7 536.164,-178.7"/>
<text text-anchor="middle" x="562" y="-186.3" font-family="-adobe-utopia-medium-i-normal--0-0-0-0-p-0-iso10646-1" font-size="12.00">SNPs.h</text>
</a>
</g>
</g>
<!-- Node1&#45;&gt;Node10 -->
<g id="edge49" class="edge"><title>Node1&#45;&gt;Node10</title>
<path fill="none" stroke="midnightblue" d="M880,-475.588C880,-455.231 880,-408.439 880,-369.1 880,-369.1 880,-369.1 880,-307.7 880,-248.196 681.329,-209.786 598.051,-196.3"/>
<polygon fill="midnightblue" stroke="midnightblue" points="598.449,-192.819 588.023,-194.706 597.35,-199.732 598.449,-192.819"/>
</g>
<!-- Node13 -->
<g id="node13" class="node"><title>Node13</title>
<polygon fill="white" stroke="#bfbfbf" points="710.334,-59.9 710.334,-82.3 753.666,-82.3 753.666,-59.9 710.334,-59.9"/>
<text text-anchor="middle" x="732" y="-67.5" font-family="-adobe-utopia-medium-i-normal--0-0-0-0-p-0-iso10646-1" font-size="12.00">string</text>
</g>
<!-- Node1&#45;&gt;Node13 -->
<g id="edge51" class="edge"><title>Node1&#45;&gt;Node13</title>
<path fill="none" stroke="midnightblue" d="M885.628,-475.435C910.198,-428.174 1002.98,-232.05 915,-118.8 896.626,-95.1483 811.285,-81.4713 763.911,-75.5773"/>
<polygon fill="midnightblue" stroke="midnightblue" points="764.204,-72.0875 753.859,-74.3726 763.371,-79.0378 764.204,-72.0875"/>
</g>
<!-- Node3 -->
<g id="node3" class="node"><title>Node3</title>
<g id="a_node3"><a xlink:href="BasicDefinitions_8h.html" target="_top" xlink:title="BasicDefinitions.h">
<polygon fill="white" stroke="black" points="242.176,-59.9 242.176,-82.3 347.824,-82.3 347.824,-59.9 242.176,-59.9"/>
<text text-anchor="middle" x="295" y="-67.5" font-family="-adobe-utopia-medium-i-normal--0-0-0-0-p-0-iso10646-1" font-size="12.00">BasicDefinitions.h</text>
</a>
</g>
</g>
<!-- Node2&#45;&gt;Node3 -->
<g id="edge2" class="edge"><title>Node2&#45;&gt;Node3</title>
<path fill="none" stroke="midnightblue" d="M465.193,-421.892C372.874,-410.101 152,-375.059 152,-309.7 152,-309.7 152,-309.7 152,-188.9 152,-136.262 210.837,-103.096 253.03,-86.0785"/>
<polygon fill="midnightblue" stroke="midnightblue" points="254.488,-89.2673 262.551,-82.3943 251.962,-82.739 254.488,-89.2673"/>
</g>
<!-- Node8 -->
<g id="node8" class="node"><title>Node8</title>
<g id="a_node8"><a xlink:href="Chromosome_8h.html" target="_top" xlink:title="Chromosome.h">
<polygon fill="white" stroke="black" points="34.1696,-297.5 34.1696,-319.9 123.83,-319.9 123.83,-297.5 34.1696,-297.5"/>
<text text-anchor="middle" x="79" y="-305.1" font-family="-adobe-utopia-medium-i-normal--0-0-0-0-p-0-iso10646-1" font-size="12.00">Chromosome.h</text>
</a>
</g>
</g>
<!-- Node2&#45;&gt;Node8 -->
<g id="edge7" class="edge"><title>Node2&#45;&gt;Node8</title>
<path fill="none" stroke="midnightblue" d="M465.306,-425.066C382.366,-421.493 193.767,-410.183 138,-379.8 116.632,-368.158 99.7334,-345.398 89.5931,-328.965"/>
<polygon fill="midnightblue" stroke="midnightblue" points="92.5011,-327.005 84.4208,-320.152 86.4641,-330.548 92.5011,-327.005"/>
</g>
<!-- Node15 -->
<g id="node15" class="node"><title>Node15</title>
<polygon fill="white" stroke="#bfbfbf" points="885.669,-59.9 885.669,-82.3 922.331,-82.3 922.331,-59.9 885.669,-59.9"/>
<text text-anchor="middle" x="904" y="-67.5" font-family="-adobe-utopia-medium-i-normal--0-0-0-0-p-0-iso10646-1" font-size="12.00">map</text>
</g>
<!-- Node2&#45;&gt;Node15 -->
<g id="edge47" class="edge"><title>Node2&#45;&gt;Node15</title>
<path fill="none" stroke="midnightblue" d="M535.342,-416.244C606.636,-390.751 786.732,-318.043 892,-201.6 919.153,-171.564 940.174,-157.991 930,-118.8 927.459,-109.011 922.369,-99.0933 917.361,-90.9302"/>
<polygon fill="midnightblue" stroke="midnightblue" points="920.288,-89.01 911.882,-82.5598 914.431,-92.8436 920.288,-89.01"/>
</g>
<!-- Node19 -->
<g id="node19" class="node"><title>Node19</title>
<g id="a_node19"><a xlink:href="Individual_8h.html" target="_top" xlink:title="Individual.h">
<polygon fill="white" stroke="black" points="467.837,-356.9 467.837,-379.3 542.163,-379.3 542.163,-356.9 467.837,-356.9"/>
<text text-anchor="middle" x="505" y="-364.5" font-family="-adobe-utopia-medium-i-normal--0-0-0-0-p-0-iso10646-1" font-size="12.00">Individual.h</text>
</a>
</g>
</g>
<!-- Node2&#45;&gt;Node19 -->
<g id="edge31" class="edge"><title>Node2&#45;&gt;Node19</title>
<path fill="none" stroke="midnightblue" d="M499.684,-416.238C498.338,-408.902 497.939,-398.779 498.489,-389.793"/>
<polygon fill="midnightblue" stroke="midnightblue" points="501.989,-389.99 499.63,-379.661 495.033,-389.207 501.989,-389.99"/>
</g>
<!-- Node23 -->
<g id="node23" class="node"><title>Node23</title>
<polygon fill="white" stroke="#bfbfbf" points="560.008,-356.9 560.008,-379.3 613.992,-379.3 613.992,-356.9 560.008,-356.9"/>
<text text-anchor="middle" x="587" y="-364.5" font-family="-adobe-utopia-medium-i-normal--0-0-0-0-p-0-iso10646-1" font-size="12.00">ostream</text>
</g>
<!-- Node2&#45;&gt;Node23 -->
<g id="edge48" class="edge"><title>Node2&#45;&gt;Node23</title>
<path fill="none" stroke="midnightblue" d="M519.66,-416.238C531.944,-407.639 549.698,-395.211 563.893,-385.275"/>
<polygon fill="midnightblue" stroke="midnightblue" points="566.005,-388.069 572.19,-379.467 561.991,-382.334 566.005,-388.069"/>
</g>
<!-- Node3&#45;&gt;Node4 -->
<g id="edge3" class="edge"><title>Node3&#45;&gt;Node4</title>
<path fill="none" stroke="midnightblue" d="M301.079,-59.838C305.663,-52.0988 312.084,-41.2577 317.613,-31.9231"/>
<polygon fill="midnightblue" stroke="midnightblue" points="320.659,-33.6491 322.744,-23.2615 314.636,-30.0816 320.659,-33.6491"/>
</g>
<!-- Node3&#45;&gt;Node5 -->
<g id="edge4" class="edge"><title>Node3&#45;&gt;Node5</title>
<path fill="none" stroke="midnightblue" d="M348.059,-60.4925C412.636,-48.7994 519.95,-29.3677 575.767,-19.2608"/>
<polygon fill="midnightblue" stroke="midnightblue" points="576.676,-22.6532 585.892,-17.4274 575.429,-15.7652 576.676,-22.6532"/>
</g>
<!-- Node6 -->
<g id="node6" class="node"><title>Node6</title>
<polygon fill="white" stroke="#bfbfbf" points="85.3402,-0.5 85.3402,-22.9 142.66,-22.9 142.66,-0.5 85.3402,-0.5"/>
<text text-anchor="middle" x="114" y="-8.1" font-family="-adobe-utopia-medium-i-normal--0-0-0-0-p-0-iso10646-1" font-size="12.00">iostream</text>
</g>
<!-- Node3&#45;&gt;Node6 -->
<g id="edge5" class="edge"><title>Node3&#45;&gt;Node6</title>
<path fill="none" stroke="midnightblue" d="M262.641,-59.838C231.77,-50.0482 185.248,-35.2946 152.489,-24.906"/>
<polygon fill="midnightblue" stroke="midnightblue" points="153.387,-21.5191 142.797,-21.8324 151.271,-28.1916 153.387,-21.5191"/>
</g>
<!-- Node7 -->
<g id="node7" class="node"><title>Node7</title>
<polygon fill="white" stroke="#bfbfbf" points="235.834,-0.5 235.834,-22.9 288.166,-22.9 288.166,-0.5 235.834,-0.5"/>
<text text-anchor="middle" x="262" y="-8.1" font-family="-adobe-utopia-medium-i-normal--0-0-0-0-p-0-iso10646-1" font-size="12.00">string.h</text>
</g>
<!-- Node3&#45;&gt;Node7 -->
<g id="edge6" class="edge"><title>Node3&#45;&gt;Node7</title>
<path fill="none" stroke="midnightblue" d="M289.1,-59.838C284.697,-52.1795 278.548,-41.4832 273.22,-32.2153"/>
<polygon fill="midnightblue" stroke="midnightblue" points="276.09,-30.1864 268.072,-23.2615 270.022,-33.6753 276.09,-30.1864"/>
</g>
<!-- Node8&#45;&gt;Node3 -->
<g id="edge8" class="edge"><title>Node8&#45;&gt;Node3</title>
<path fill="none" stroke="midnightblue" d="M79.0342,-297.411C79.7136,-265.93 86.1463,-169.952 138,-118.8 162.844,-94.2921 199.947,-82.5495 231.847,-76.9653"/>
<polygon fill="midnightblue" stroke="midnightblue" points="232.668,-80.379 241.999,-75.3603 231.575,-73.4649 232.668,-80.379"/>
</g>
<!-- Node8&#45;&gt;Node4 -->
<g id="edge30" class="edge"><title>Node8&#45;&gt;Node4</title>
<path fill="none" stroke="midnightblue" d="M77.5924,-297.442C73.9046,-266.052 67.3567,-170.308 116,-118.8 142.448,-90.7942 243.388,-47.2899 296.26,-25.7273"/>
<polygon fill="midnightblue" stroke="midnightblue" points="297.897,-28.8406 305.851,-21.8417 295.268,-22.3528 297.897,-28.8406"/>
</g>
<!-- Node9 -->
<g id="node9" class="node"><title>Node9</title>
<g id="a_node9"><a xlink:href="MarkerSet_8h.html" target="_top" xlink:title="MarkerSet.h">
<polygon fill="white" stroke="black" points="291.179,-238.1 291.179,-260.5 366.821,-260.5 366.821,-238.1 291.179,-238.1"/>
<text text-anchor="middle" x="329" y="-245.7" font-family="-adobe-utopia-medium-i-normal--0-0-0-0-p-0-iso10646-1" font-size="12.00">MarkerSet.h</text>
</a>
</g>
</g>
<!-- Node8&#45;&gt;Node9 -->
<g id="edge9" class="edge"><title>Node8&#45;&gt;Node9</title>
<path fill="none" stroke="midnightblue" d="M123.695,-297.438C167.959,-287.275 235.521,-271.763 280.926,-261.338"/>
<polygon fill="midnightblue" stroke="midnightblue" points="281.865,-264.713 290.828,-259.064 280.299,-257.891 281.865,-264.713"/>
</g>
<!-- Node9&#45;&gt;Node3 -->
<g id="edge10" class="edge"><title>Node9&#45;&gt;Node3</title>
<path fill="none" stroke="midnightblue" d="M307.891,-237.857C278.594,-221.953 227.162,-188.546 209,-142.2 205.206,-132.517 203.683,-127.738 209,-118.8 217.776,-104.048 233.02,-93.6663 248.259,-86.503"/>
<polygon fill="midnightblue" stroke="midnightblue" points="249.885,-89.6138 257.689,-82.4484 247.12,-83.1829 249.885,-89.6138"/>
</g>
<!-- Node9&#45;&gt;Node10 -->
<g id="edge11" class="edge"><title>Node9&#45;&gt;Node10</title>
<path fill="none" stroke="midnightblue" d="M366.954,-238.95C411.006,-228.098 483.103,-210.336 526.21,-199.717"/>
<polygon fill="midnightblue" stroke="midnightblue" points="527.117,-203.098 535.99,-197.308 525.443,-196.301 527.117,-203.098"/>
</g>
<!-- Node17 -->
<g id="node17" class="node"><title>Node17</title>
<polygon fill="white" stroke="#bfbfbf" points="217.664,-119.3 217.664,-141.7 248.336,-141.7 248.336,-119.3 217.664,-119.3"/>
<text text-anchor="middle" x="233" y="-126.9" font-family="-adobe-utopia-medium-i-normal--0-0-0-0-p-0-iso10646-1" font-size="12.00">list</text>
</g>
<!-- Node9&#45;&gt;Node17 -->
<g id="edge29" class="edge"><title>Node9&#45;&gt;Node17</title>
<path fill="none" stroke="midnightblue" d="M318.496,-237.869C309.342,-228.613 295.868,-214.584 285,-201.6 270.958,-184.824 256.215,-164.675 246.029,-150.292"/>
<polygon fill="midnightblue" stroke="midnightblue" points="248.655,-147.942 240.045,-141.767 242.925,-151.963 248.655,-147.942"/>
</g>
<!-- Node18 -->
<g id="node18" class="node"><title>Node18</title>
<polygon fill="white" stroke="#bfbfbf" points="294.171,-178.7 294.171,-201.1 433.829,-201.1 433.829,-178.7 294.171,-178.7"/>
<text text-anchor="middle" x="364" y="-186.3" font-family="-adobe-utopia-medium-i-normal--0-0-0-0-p-0-iso10646-1" font-size="12.00">boost/dynamic_bitset.hpp</text>
</g>
<!-- Node9&#45;&gt;Node18 -->
<g id="edge28" class="edge"><title>Node9&#45;&gt;Node18</title>
<path fill="none" stroke="midnightblue" d="M335.257,-238.038C339.976,-230.299 346.587,-219.458 352.279,-210.123"/>
<polygon fill="midnightblue" stroke="midnightblue" points="355.342,-211.822 357.56,-201.461 349.366,-208.177 355.342,-211.822"/>
</g>
<!-- Node10&#45;&gt;Node3 -->
<g id="edge12" class="edge"><title>Node10&#45;&gt;Node3</title>
<path fill="none" stroke="midnightblue" d="M535.883,-182.879C485.315,-171.171 378.332,-146.134 371,-142.2 346.485,-129.048 323.798,-106.128 309.711,-90.0871"/>
<polygon fill="midnightblue" stroke="midnightblue" points="312.317,-87.7495 303.163,-82.4143 306.992,-92.2932 312.317,-87.7495"/>
</g>
<!-- Node10&#45;&gt;Node4 -->
<g id="edge24" class="edge"><title>Node10&#45;&gt;Node4</title>
<path fill="none" stroke="midnightblue" d="M552.14,-178.305C538.589,-164.016 513.136,-138.133 489,-118.8 444.724,-83.3358 388.599,-48.1301 355.951,-28.5148"/>
<polygon fill="midnightblue" stroke="midnightblue" points="357.384,-25.2942 347.003,-23.1765 353.797,-31.3057 357.384,-25.2942"/>
</g>
<!-- Node10&#45;&gt;Node5 -->
<g id="edge23" class="edge"><title>Node10&#45;&gt;Node5</title>
<path fill="none" stroke="midnightblue" d="M570.857,-178.522C578.033,-169.521 587.778,-155.831 593,-142.2 607.021,-105.601 610.773,-59.5356 611.73,-33.3724"/>
<polygon fill="midnightblue" stroke="midnightblue" points="615.234,-33.2474 611.995,-23.16 608.236,-33.0658 615.234,-33.2474"/>
</g>
<!-- Node11 -->
<g id="node11" class="node"><title>Node11</title>
<g id="a_node11"><a xlink:href="NucleotideMap_8h.html" target="_top" xlink:title="NucleotideMap.h">
<polygon fill="white" stroke="black" points="380.179,-119.3 380.179,-141.7 479.821,-141.7 479.821,-119.3 380.179,-119.3"/>
<text text-anchor="middle" x="430" y="-126.9" font-family="-adobe-utopia-medium-i-normal--0-0-0-0-p-0-iso10646-1" font-size="12.00">NucleotideMap.h</text>
</a>
</g>
</g>
<!-- Node10&#45;&gt;Node11 -->
<g id="edge13" class="edge"><title>Node10&#45;&gt;Node11</title>
<path fill="none" stroke="midnightblue" d="M538.401,-178.638C517.414,-169.512 486.508,-156.073 463.061,-145.877"/>
<polygon fill="midnightblue" stroke="midnightblue" points="464.406,-142.645 453.84,-141.867 461.614,-149.064 464.406,-142.645"/>
</g>
<!-- Node12 -->
<g id="node12" class="node"><title>Node12</title>
<g id="a_node12"><a xlink:href="SNP_8h.html" target="_top" xlink:title="SNP.h">
<polygon fill="white" stroke="black" points="536.498,-119.3 536.498,-141.7 583.502,-141.7 583.502,-119.3 536.498,-119.3"/>
<text text-anchor="middle" x="560" y="-126.9" font-family="-adobe-utopia-medium-i-normal--0-0-0-0-p-0-iso10646-1" font-size="12.00">SNP.h</text>
</a>
</g>
</g>
<!-- Node10&#45;&gt;Node12 -->
<g id="edge15" class="edge"><title>Node10&#45;&gt;Node12</title>
<path fill="none" stroke="midnightblue" d="M561.642,-178.638C561.387,-171.302 561.034,-161.179 560.721,-152.193"/>
<polygon fill="midnightblue" stroke="midnightblue" points="564.214,-151.933 560.368,-142.061 557.218,-152.177 564.214,-151.933"/>
</g>
<!-- Node10&#45;&gt;Node13 -->
<g id="edge25" class="edge"><title>Node10&#45;&gt;Node13</title>
<path fill="none" stroke="midnightblue" d="M577.086,-178.535C606.752,-158.153 672.87,-112.726 708.376,-88.3309"/>
<polygon fill="midnightblue" stroke="midnightblue" points="710.443,-91.1575 716.703,-82.6099 706.479,-85.388 710.443,-91.1575"/>
</g>
<!-- Node14 -->
<g id="node14" class="node"><title>Node14</title>
<g id="a_node14"><a xlink:href="SNPPositionMap_8h.html" target="_top" xlink:title="SNPPositionMap.h">
<polygon fill="white" stroke="black" points="677.83,-119.3 677.83,-141.7 786.17,-141.7 786.17,-119.3 677.83,-119.3"/>
<text text-anchor="middle" x="732" y="-126.9" font-family="-adobe-utopia-medium-i-normal--0-0-0-0-p-0-iso10646-1" font-size="12.00">SNPPositionMap.h</text>
</a>
</g>
</g>
<!-- Node10&#45;&gt;Node14 -->
<g id="edge19" class="edge"><title>Node10&#45;&gt;Node14</title>
<path fill="none" stroke="midnightblue" d="M588.19,-180.057C615.959,-170.681 660.155,-155.758 692.228,-144.929"/>
<polygon fill="midnightblue" stroke="midnightblue" points="693.406,-148.225 701.761,-141.71 691.167,-141.593 693.406,-148.225"/>
</g>
<!-- Node10&#45;&gt;Node15 -->
<g id="edge26" class="edge"><title>Node10&#45;&gt;Node15</title>
<path fill="none" stroke="midnightblue" d="M588.071,-186.86C632.126,-182.724 723.489,-171.15 795,-142.2 799.579,-140.346 849.195,-108.031 879.885,-87.9309"/>
<polygon fill="midnightblue" stroke="midnightblue" points="881.915,-90.7858 888.359,-82.3766 878.077,-84.9314 881.915,-90.7858"/>
</g>
<!-- Node16 -->
<g id="node16" class="node"><title>Node16</title>
<polygon fill="white" stroke="#bfbfbf" points="841.502,-119.3 841.502,-141.7 890.498,-141.7 890.498,-119.3 841.502,-119.3"/>
<text text-anchor="middle" x="866" y="-126.9" font-family="-adobe-utopia-medium-i-normal--0-0-0-0-p-0-iso10646-1" font-size="12.00">math.h</text>
</g>
<!-- Node10&#45;&gt;Node16 -->
<g id="edge22" class="edge"><title>Node10&#45;&gt;Node16</title>
<path fill="none" stroke="midnightblue" d="M587.851,-185.246C635.59,-178.303 740.686,-162.104 828,-142.2 829.069,-141.956 830.153,-141.701 831.246,-141.437"/>
<polygon fill="midnightblue" stroke="midnightblue" points="832.345,-144.768 841.154,-138.883 830.597,-137.99 832.345,-144.768"/>
</g>
<!-- Node10&#45;&gt;Node17 -->
<g id="edge27" class="edge"><title>Node10&#45;&gt;Node17</title>
<path fill="none" stroke="midnightblue" d="M535.909,-184.348C474.114,-173.567 319.443,-146.582 258.374,-135.927"/>
<polygon fill="midnightblue" stroke="midnightblue" points="258.879,-132.462 248.427,-134.191 257.676,-139.358 258.879,-132.462"/>
</g>
<!-- Node11&#45;&gt;Node3 -->
<g id="edge14" class="edge"><title>Node11&#45;&gt;Node3</title>
<path fill="none" stroke="midnightblue" d="M405.865,-119.238C384.401,-110.112 352.793,-96.6726 328.812,-86.4766"/>
<polygon fill="midnightblue" stroke="midnightblue" points="329.954,-83.1586 319.382,-82.4667 327.215,-89.6005 329.954,-83.1586"/>
</g>
<!-- Node12&#45;&gt;Node3 -->
<g id="edge16" class="edge"><title>Node12&#45;&gt;Node3</title>
<path fill="none" stroke="midnightblue" d="M536.483,-124.406C495.436,-115.515 409.618,-96.9266 352.141,-84.477"/>
<polygon fill="midnightblue" stroke="midnightblue" points="352.625,-81.0007 342.111,-82.3043 351.143,-87.842 352.625,-81.0007"/>
</g>
<!-- Node12&#45;&gt;Node4 -->
<g id="edge18" class="edge"><title>Node12&#45;&gt;Node4</title>
<path fill="none" stroke="midnightblue" d="M557.316,-119.165C552.751,-103.712 541.969,-74.7622 522,-59.4 474.87,-23.1436 403.634,-14.5439 362.171,-12.7916"/>
<polygon fill="midnightblue" stroke="midnightblue" points="362.16,-9.28966 352.056,-12.4759 361.942,-16.2863 362.16,-9.28966"/>
</g>
<!-- Node12&#45;&gt;Node13 -->
<g id="edge17" class="edge"><title>Node12&#45;&gt;Node13</title>
<path fill="none" stroke="midnightblue" d="M583.555,-121.639C613.822,-111.538 666.477,-93.9664 700.256,-82.6937"/>
<polygon fill="midnightblue" stroke="midnightblue" points="701.709,-85.8984 710.087,-79.4128 699.493,-79.2584 701.709,-85.8984"/>
</g>
<!-- Node14&#45;&gt;Node13 -->
<g id="edge21" class="edge"><title>Node14&#45;&gt;Node13</title>
<path fill="none" stroke="midnightblue" d="M732,-119.238C732,-111.902 732,-101.779 732,-92.7932"/>
<polygon fill="midnightblue" stroke="midnightblue" points="735.5,-92.6614 732,-82.6615 728.5,-92.6615 735.5,-92.6614"/>
</g>
<!-- Node14&#45;&gt;Node15 -->
<g id="edge20" class="edge"><title>Node14&#45;&gt;Node15</title>
<path fill="none" stroke="midnightblue" d="M762.75,-119.238C794.698,-108.576 844.285,-92.028 875.409,-81.6414"/>
<polygon fill="midnightblue" stroke="midnightblue" points="876.826,-84.8583 885.204,-78.3726 874.61,-78.2183 876.826,-84.8583"/>
</g>
<!-- Node19&#45;&gt;Node2 -->
<g id="edge41" class="edge"><title>Node19&#45;&gt;Node2</title>
<path fill="none" stroke="midnightblue" d="M510.37,-379.661C511.691,-387.072 512.064,-397.217 511.488,-406.171"/>
<polygon fill="midnightblue" stroke="midnightblue" points="507.996,-405.9 510.316,-416.238 514.949,-406.71 507.996,-405.9"/>
</g>
<!-- Node19&#45;&gt;Node3 -->
<g id="edge32" class="edge"><title>Node19&#45;&gt;Node3</title>
<path fill="none" stroke="midnightblue" d="M498.803,-356.641C493.51,-347.368 485.984,-333.328 481,-320.4 457.471,-259.36 489.139,-224.576 443,-178.2 400.112,-135.091 353.09,-186.089 311,-142.2 298.416,-129.078 294.972,-108.196 294.341,-92.632"/>
<polygon fill="midnightblue" stroke="midnightblue" points="297.84,-92.4075 294.288,-82.4257 290.84,-92.4436 297.84,-92.4075"/>
</g>
<!-- Node19&#45;&gt;Node6 -->
<g id="edge46" class="edge"><title>Node19&#45;&gt;Node6</title>
<path fill="none" stroke="midnightblue" d="M467.622,-363.009C429.542,-357.607 369.746,-345.644 324,-320.4 231.326,-269.259 219.344,-233.623 166,-142.2 144.74,-105.763 128.344,-58.9813 120.031,-32.7846"/>
<polygon fill="midnightblue" stroke="midnightblue" points="123.274,-31.425 116.972,-22.9079 116.587,-33.4957 123.274,-31.425"/>
</g>
<!-- Node19&#45;&gt;Node8 -->
<g id="edge33" class="edge"><title>Node19&#45;&gt;Node8</title>
<path fill="none" stroke="midnightblue" d="M467.569,-362.056C392.281,-351.912 222.227,-328.999 134.168,-317.133"/>
<polygon fill="midnightblue" stroke="midnightblue" points="134.483,-313.644 124.105,-315.778 133.548,-320.582 134.483,-313.644"/>
</g>
<!-- Node19&#45;&gt;Node13 -->
<g id="edge42" class="edge"><title>Node19&#45;&gt;Node13</title>
<path fill="none" stroke="midnightblue" d="M529.983,-356.848C610.052,-323.422 857.478,-215.536 899,-142.2 928.691,-89.7605 820.333,-76.5492 763.981,-73.2209"/>
<polygon fill="midnightblue" stroke="midnightblue" points="763.952,-69.7148 753.784,-72.6927 763.589,-76.7054 763.952,-69.7148"/>
</g>
<!-- Node19&#45;&gt;Node15 -->
<g id="edge44" class="edge"><title>Node19&#45;&gt;Node15</title>
<path fill="none" stroke="midnightblue" d="M542.395,-357.686C612.551,-338.476 765.77,-289.02 865,-201.6 890.893,-178.789 903.172,-174.618 915,-142.2 920.922,-125.969 917.054,-106.483 912.345,-92.1791"/>
<polygon fill="midnightblue" stroke="midnightblue" points="915.477,-90.5585 908.728,-82.3913 908.911,-92.9846 915.477,-90.5585"/>
</g>
<!-- Node19&#45;&gt;Node17 -->
<g id="edge43" class="edge"><title>Node19&#45;&gt;Node17</title>
<path fill="none" stroke="midnightblue" d="M467.836,-358.644C418.86,-345.675 332.97,-316.351 282,-261 253.234,-229.761 240.835,-179.968 235.913,-152.104"/>
<polygon fill="midnightblue" stroke="midnightblue" points="239.323,-151.261 234.281,-141.942 232.411,-152.371 239.323,-151.261"/>
</g>
<!-- Node20 -->
<g id="node20" class="node"><title>Node20</title>
<g id="a_node20"><a xlink:href="Match_8h.html" target="_top" xlink:title="Match.h">
<polygon fill="white" stroke="black" points="537.172,-297.5 537.172,-319.9 592.828,-319.9 592.828,-297.5 537.172,-297.5"/>
<text text-anchor="middle" x="565" y="-305.1" font-family="-adobe-utopia-medium-i-normal--0-0-0-0-p-0-iso10646-1" font-size="12.00">Match.h</text>
</a>
</g>
</g>
<!-- Node19&#45;&gt;Node20 -->
<g id="edge34" class="edge"><title>Node19&#45;&gt;Node20</title>
<path fill="none" stroke="midnightblue" d="M510.411,-356.838C517.567,-348.535 529.669,-336.66 540.77,-326.907"/>
<polygon fill="midnightblue" stroke="midnightblue" points="543.236,-329.404 548.59,-320.261 538.703,-324.07 543.236,-329.404"/>
</g>
<!-- Node22 -->
<g id="node22" class="node"><title>Node22</title>
<polygon fill="white" stroke="#bfbfbf" points="490.336,-297.5 490.336,-319.9 519.664,-319.9 519.664,-297.5 490.336,-297.5"/>
<text text-anchor="middle" x="505" y="-305.1" font-family="-adobe-utopia-medium-i-normal--0-0-0-0-p-0-iso10646-1" font-size="12.00">set</text>
</g>
<!-- Node19&#45;&gt;Node22 -->
<g id="edge45" class="edge"><title>Node19&#45;&gt;Node22</title>
<path fill="none" stroke="midnightblue" d="M505,-356.838C505,-349.502 505,-339.379 505,-330.393"/>
<polygon fill="midnightblue" stroke="midnightblue" points="508.5,-330.261 505,-320.261 501.5,-330.262 508.5,-330.261"/>
</g>
<!-- Node20&#45;&gt;Node3 -->
<g id="edge35" class="edge"><title>Node20&#45;&gt;Node3</title>
<path fill="none" stroke="midnightblue" d="M560.975,-297.422C550.767,-272.753 521.413,-209.894 476,-178.2 422.963,-141.184 386.444,-181.399 335,-142.2 318.36,-129.521 307.525,-107.789 301.382,-91.8751"/>
<polygon fill="midnightblue" stroke="midnightblue" points="304.664,-90.6563 298.01,-82.4114 298.07,-93.006 304.664,-90.6563"/>
</g>
<!-- Node20&#45;&gt;Node9 -->
<g id="edge37" class="edge"><title>Node20&#45;&gt;Node9</title>
<path fill="none" stroke="midnightblue" d="M537.138,-299.241C534.395,-298.461 531.647,-297.702 529,-297 477.369,-283.312 417.678,-269.652 377.041,-260.675"/>
<polygon fill="midnightblue" stroke="midnightblue" points="377.655,-257.226 367.136,-258.496 376.151,-264.063 377.655,-257.226"/>
</g>
<!-- Node20&#45;&gt;Node10 -->
<g id="edge36" class="edge"><title>Node20&#45;&gt;Node10</title>
<path fill="none" stroke="midnightblue" d="M564.734,-297.335C564.241,-278.162 563.18,-236.828 562.534,-211.685"/>
<polygon fill="midnightblue" stroke="midnightblue" points="566.026,-211.317 562.27,-201.41 559.028,-211.496 566.026,-211.317"/>
</g>
<!-- Node20&#45;&gt;Node16 -->
<g id="edge39" class="edge"><title>Node20&#45;&gt;Node16</title>
<path fill="none" stroke="midnightblue" d="M585.96,-297.36C604.347,-288.163 631.708,-274.168 655,-261 723.758,-222.128 802.529,-172.333 841.507,-147.327"/>
<polygon fill="midnightblue" stroke="midnightblue" points="843.569,-150.162 850.088,-141.81 839.784,-144.274 843.569,-150.162"/>
</g>
<!-- Node20&#45;&gt;Node19 -->
<g id="edge38" class="edge"><title>Node20&#45;&gt;Node19</title>
<path fill="none" stroke="midnightblue" d="M559.33,-320.261C552.057,-328.65 539.908,-340.54 528.832,-350.242"/>
<polygon fill="midnightblue" stroke="midnightblue" points="526.413,-347.705 521.043,-356.838 530.936,-353.047 526.413,-347.705"/>
</g>
<!-- Node21 -->
<g id="node21" class="node"><title>Node21</title>
<polygon fill="white" stroke="#bfbfbf" points="590.334,-238.1 590.334,-260.5 645.666,-260.5 645.666,-238.1 590.334,-238.1"/>
<text text-anchor="middle" x="618" y="-245.7" font-family="-adobe-utopia-medium-i-normal--0-0-0-0-p-0-iso10646-1" font-size="12.00">iomanip</text>
</g>
<!-- Node20&#45;&gt;Node21 -->
<g id="edge40" class="edge"><title>Node20&#45;&gt;Node21</title>
<path fill="none" stroke="midnightblue" d="M574.475,-297.438C581.919,-289.376 592.471,-277.949 601.32,-268.364"/>
<polygon fill="midnightblue" stroke="midnightblue" points="604.036,-270.583 608.248,-260.861 598.893,-265.834 604.036,-270.583"/>
</g>
</g>
</svg>
