<?xml version="1.0" encoding="UTF-8" standalone="no"?>
<!DOCTYPE svg PUBLIC "-//W3C//DTD SVG 1.1//EN"
 "http://www.w3.org/Graphics/SVG/1.1/DTD/svg11.dtd">
<!-- Generated by graphviz version 2.38.0 (20140413.2041)
 -->
<!-- Title: PolymorphicIndividualsExtractor.h Pages: 1 -->
<svg width="829pt" height="210pt"
 viewBox="0.00 0.00 828.96 209.60" xmlns="http://www.w3.org/2000/svg" xmlns:xlink="http://www.w3.org/1999/xlink">
<g id="graph0" class="graph" transform="scale(1 1) rotate(0) translate(4 205.6)">
<title>PolymorphicIndividualsExtractor.h</title>
<polygon fill="white" stroke="none" points="-4,4 -4,-205.6 824.965,-205.6 824.965,4 -4,4"/>
<!-- Node1 -->
<g id="node1" class="node"><title>Node1</title>
<polygon fill="#bfbfbf" stroke="black" points="276.668,-178.7 276.668,-201.1 462.301,-201.1 462.301,-178.7 276.668,-178.7"/>
<text text-anchor="middle" x="369.485" y="-186.3" font-family="-adobe-utopia-medium-i-normal--0-0-0-0-p-0-iso10646-1" font-size="12.00">PolymorphicIndividualsExtractor.h</text>
</g>
<!-- Node2 -->
<g id="node2" class="node"><title>Node2</title>
<g id="a_node2"><a xlink:href="InputManager_8h.html" target="_top" xlink:title="InputManager.h">
<polygon fill="white" stroke="black" points="186.999,-119.3 186.999,-141.7 279.971,-141.7 279.971,-119.3 186.999,-119.3"/>
<text text-anchor="middle" x="233.485" y="-126.9" font-family="-adobe-utopia-medium-i-normal--0-0-0-0-p-0-iso10646-1" font-size="12.00">InputManager.h</text>
</a>
</g>
</g>
<!-- Node1&#45;&gt;Node2 -->
<g id="edge1" class="edge"><title>Node1&#45;&gt;Node2</title>
<path fill="none" stroke="midnightblue" d="M335.698,-174.64C311.599,-164.469 279.747,-151.026 258.047,-141.867"/>
<polygon fill="midnightblue" stroke="midnightblue" points="334.597,-177.974 345.171,-178.638 337.319,-171.525 334.597,-177.974"/>
</g>
<!-- Node7 -->
<g id="node7" class="node"><title>Node7</title>
<g id="a_node7"><a xlink:href="MatchesBuilder_8h.html" target="_top" xlink:title="MatchesBuilder.h">
<polygon fill="white" stroke="black" points="67.6634,-119.3 67.6634,-141.7 169.306,-141.7 169.306,-119.3 67.6634,-119.3"/>
<text text-anchor="middle" x="118.485" y="-126.9" font-family="-adobe-utopia-medium-i-normal--0-0-0-0-p-0-iso10646-1" font-size="12.00">MatchesBuilder.h</text>
</a>
</g>
</g>
<!-- Node1&#45;&gt;Node7 -->
<g id="edge6" class="edge"><title>Node1&#45;&gt;Node7</title>
<path fill="none" stroke="midnightblue" d="M314.656,-176.362C269.327,-165.995 205.747,-151.456 163.393,-141.77"/>
<polygon fill="midnightblue" stroke="midnightblue" points="314.082,-179.821 324.611,-178.638 315.643,-172.997 314.082,-179.821"/>
</g>
<!-- Node9 -->
<g id="node9" class="node"><title>Node9</title>
<g id="a_node9"><a xlink:href="HMIndividualsExtractor_8h.html" target="_top" xlink:title="HMIndividualsExtractor.h">
<polygon fill="white" stroke="black" points="298.002,-119.3 298.002,-141.7 440.968,-141.7 440.968,-119.3 298.002,-119.3"/>
<text text-anchor="middle" x="369.485" y="-126.9" font-family="-adobe-utopia-medium-i-normal--0-0-0-0-p-0-iso10646-1" font-size="12.00">HMIndividualsExtractor.h</text>
</a>
</g>
</g>
<!-- Node1&#45;&gt;Node9 -->
<g id="edge9" class="edge"><title>Node1&#45;&gt;Node9</title>
<path fill="none" stroke="midnightblue" d="M369.485,-168.571C369.485,-159.617 369.485,-149.472 369.485,-142.061"/>
<polygon fill="midnightblue" stroke="midnightblue" points="365.985,-168.638 369.485,-178.638 372.985,-168.638 365.985,-168.638"/>
</g>
<!-- Node11 -->
<g id="node11" class="node"><title>Node11</title>
<g id="a_node11"><a xlink:href="PEDIndividualsExtractor_8h.html" target="_top" xlink:title="PEDIndividualsExtractor.h">
<polygon fill="white" stroke="black" points="459.334,-119.3 459.334,-141.7 605.635,-141.7 605.635,-119.3 459.334,-119.3"/>
<text text-anchor="middle" x="532.485" y="-126.9" font-family="-adobe-utopia-medium-i-normal--0-0-0-0-p-0-iso10646-1" font-size="12.00">PEDIndividualsExtractor.h</text>
</a>
</g>
</g>
<!-- Node1&#45;&gt;Node11 -->
<g id="edge12" class="edge"><title>Node1&#45;&gt;Node11</title>
<path fill="none" stroke="midnightblue" d="M408.098,-175.302C437.288,-165.023 476.741,-151.13 503.322,-141.77"/>
<polygon fill="midnightblue" stroke="midnightblue" points="406.896,-172.015 398.626,-178.638 409.221,-178.618 406.896,-172.015"/>
</g>
<!-- Node13 -->
<g id="node13" class="node"><title>Node13</title>
<g id="a_node13"><a xlink:href="PolymorphicIndividualsExtractor_8cpp.html" target="_top" xlink:title="PolymorphicIndividualsExtractor.cpp">
<polygon fill="white" stroke="black" points="624.005,-119.3 624.005,-141.7 820.965,-141.7 820.965,-119.3 624.005,-119.3"/>
<text text-anchor="middle" x="722.485" y="-126.9" font-family="-adobe-utopia-medium-i-normal--0-0-0-0-p-0-iso10646-1" font-size="12.00">PolymorphicIndividualsExtractor.cpp</text>
</a>
</g>
</g>
<!-- Node1&#45;&gt;Node13 -->
<g id="edge15" class="edge"><title>Node1&#45;&gt;Node13</title>
<path fill="none" stroke="midnightblue" d="M442.627,-177.007C506.694,-166.589 598.815,-151.61 659.625,-141.721"/>
<polygon fill="midnightblue" stroke="midnightblue" points="441.903,-173.578 432.594,-178.638 443.026,-180.488 441.903,-173.578"/>
</g>
<!-- Node3 -->
<g id="node3" class="node"><title>Node3</title>
<g id="a_node3"><a xlink:href="GERMLINE_8h.html" target="_top" xlink:title="GERMLINE.h">
<polygon fill="white" stroke="black" points="130.994,-59.9 130.994,-82.3 217.976,-82.3 217.976,-59.9 130.994,-59.9"/>
<text text-anchor="middle" x="174.485" y="-67.5" font-family="-adobe-utopia-medium-i-normal--0-0-0-0-p-0-iso10646-1" font-size="12.00">GERMLINE.h</text>
</a>
</g>
</g>
<!-- Node2&#45;&gt;Node3 -->
<g id="edge2" class="edge"><title>Node2&#45;&gt;Node3</title>
<path fill="none" stroke="midnightblue" d="M215.574,-112.075C205.712,-102.48 193.795,-90.8867 185.341,-82.6615"/>
<polygon fill="midnightblue" stroke="midnightblue" points="213.329,-114.773 222.937,-119.238 218.21,-109.756 213.329,-114.773"/>
</g>
<!-- Node6 -->
<g id="node6" class="node"><title>Node6</title>
<g id="a_node6"><a xlink:href="InputManager_8cpp.html" target="_top" xlink:title="InputManager.cpp">
<polygon fill="white" stroke="black" points="408.336,-59.9 408.336,-82.3 512.634,-82.3 512.634,-59.9 408.336,-59.9"/>
<text text-anchor="middle" x="460.485" y="-67.5" font-family="-adobe-utopia-medium-i-normal--0-0-0-0-p-0-iso10646-1" font-size="12.00">InputManager.cpp</text>
</a>
</g>
</g>
<!-- Node2&#45;&gt;Node6 -->
<g id="edge5" class="edge"><title>Node2&#45;&gt;Node6</title>
<path fill="none" stroke="midnightblue" d="M283.848,-116.765C324.79,-106.412 381.808,-91.9946 419.871,-82.3697"/>
<polygon fill="midnightblue" stroke="midnightblue" points="282.905,-113.393 274.068,-119.238 284.621,-120.18 282.905,-113.393"/>
</g>
<!-- Node4 -->
<g id="node4" class="node"><title>Node4</title>
<g id="a_node4"><a xlink:href="GERMLINE__0001_8cpp.html" target="_top" xlink:title="GERMLINE_0001.cpp">
<polygon fill="white" stroke="black" points="45.3302,-0.5 45.3302,-22.9 173.639,-22.9 173.639,-0.5 45.3302,-0.5"/>
<text text-anchor="middle" x="109.485" y="-8.1" font-family="-adobe-utopia-medium-i-normal--0-0-0-0-p-0-iso10646-1" font-size="12.00">GERMLINE_0001.cpp</text>
</a>
</g>
</g>
<!-- Node3&#45;&gt;Node4 -->
<g id="edge3" class="edge"><title>Node3&#45;&gt;Node4</title>
<path fill="none" stroke="midnightblue" d="M155.074,-52.9589C144.148,-43.3099 130.851,-31.5682 121.445,-23.2615"/>
<polygon fill="midnightblue" stroke="midnightblue" points="153.052,-55.8422 162.864,-59.838 157.685,-50.5952 153.052,-55.8422"/>
</g>
<!-- Node5 -->
<g id="node5" class="node"><title>Node5</title>
<g id="a_node5"><a xlink:href="GERMLINE_8cpp.html" target="_top" xlink:title="GERMLINE.cpp">
<polygon fill="white" stroke="black" points="191.33,-0.5 191.33,-22.9 289.639,-22.9 289.639,-0.5 191.33,-0.5"/>
<text text-anchor="middle" x="240.485" y="-8.1" font-family="-adobe-utopia-medium-i-normal--0-0-0-0-p-0-iso10646-1" font-size="12.00">GERMLINE.cpp</text>
</a>
</g>
</g>
<!-- Node3&#45;&gt;Node5 -->
<g id="edge4" class="edge"><title>Node3&#45;&gt;Node5</title>
<path fill="none" stroke="midnightblue" d="M193.868,-53.2421C205.024,-43.5405 218.696,-31.6496 228.341,-23.2615"/>
<polygon fill="midnightblue" stroke="midnightblue" points="191.533,-50.6347 186.284,-59.838 196.127,-55.9166 191.533,-50.6347"/>
</g>
<!-- Node7&#45;&gt;Node3 -->
<g id="edge7" class="edge"><title>Node7&#45;&gt;Node3</title>
<path fill="none" stroke="midnightblue" d="M135.485,-112.075C144.846,-102.48 156.156,-90.8867 164.181,-82.6615"/>
<polygon fill="midnightblue" stroke="midnightblue" points="132.974,-109.636 128.496,-119.238 137.985,-114.524 132.974,-109.636"/>
</g>
<!-- Node8 -->
<g id="node8" class="node"><title>Node8</title>
<g id="a_node8"><a xlink:href="MatchesBuilder_8cpp.html" target="_top" xlink:title="MatchesBuilder.cpp">
<polygon fill="white" stroke="black" points="-4.9738e-14,-59.9 -4.9738e-14,-82.3 112.97,-82.3 112.97,-59.9 -4.9738e-14,-59.9"/>
<text text-anchor="middle" x="56.4848" y="-67.5" font-family="-adobe-utopia-medium-i-normal--0-0-0-0-p-0-iso10646-1" font-size="12.00">MatchesBuilder.cpp</text>
</a>
</g>
</g>
<!-- Node7&#45;&gt;Node8 -->
<g id="edge8" class="edge"><title>Node7&#45;&gt;Node8</title>
<path fill="none" stroke="midnightblue" d="M99.97,-112.359C89.5478,-102.71 76.865,-90.9682 67.8927,-82.6615"/>
<polygon fill="midnightblue" stroke="midnightblue" points="97.6846,-115.013 107.4,-119.238 102.44,-109.876 97.6846,-115.013"/>
</g>
<!-- Node9&#45;&gt;Node6 -->
<g id="edge11" class="edge"><title>Node9&#45;&gt;Node6</title>
<path fill="none" stroke="midnightblue" d="M394.493,-113.726C410.285,-103.765 430.24,-91.1778 444.05,-82.4667"/>
<polygon fill="midnightblue" stroke="midnightblue" points="392.344,-110.943 385.754,-119.238 396.079,-116.863 392.344,-110.943"/>
</g>
<!-- Node10 -->
<g id="node10" class="node"><title>Node10</title>
<g id="a_node10"><a xlink:href="HMIndividualsExtractor_8cpp.html" target="_top" xlink:title="HMIndividualsExtractor.cpp">
<polygon fill="white" stroke="black" points="236.338,-59.9 236.338,-82.3 390.631,-82.3 390.631,-59.9 236.338,-59.9"/>
<text text-anchor="middle" x="313.485" y="-67.5" font-family="-adobe-utopia-medium-i-normal--0-0-0-0-p-0-iso10646-1" font-size="12.00">HMIndividualsExtractor.cpp</text>
</a>
</g>
</g>
<!-- Node9&#45;&gt;Node10 -->
<g id="edge10" class="edge"><title>Node9&#45;&gt;Node10</title>
<path fill="none" stroke="midnightblue" d="M352.484,-112.075C343.124,-102.48 331.813,-90.8867 323.789,-82.6615"/>
<polygon fill="midnightblue" stroke="midnightblue" points="349.985,-114.524 359.473,-119.238 354.995,-109.636 349.985,-114.524"/>
</g>
<!-- Node11&#45;&gt;Node6 -->
<g id="edge13" class="edge"><title>Node11&#45;&gt;Node6</title>
<path fill="none" stroke="midnightblue" d="M511.693,-112.924C499.46,-103.172 484.356,-91.131 473.733,-82.6615"/>
<polygon fill="midnightblue" stroke="midnightblue" points="509.612,-115.741 519.613,-119.238 513.975,-110.268 509.612,-115.741"/>
</g>
<!-- Node12 -->
<g id="node12" class="node"><title>Node12</title>
<g id="a_node12"><a xlink:href="PEDIndividualsExtractor_8cpp.html" target="_top" xlink:title="PEDIndividualsExtractor.cpp">
<polygon fill="white" stroke="black" points="530.671,-59.9 530.671,-82.3 688.299,-82.3 688.299,-59.9 530.671,-59.9"/>
<text text-anchor="middle" x="609.485" y="-67.5" font-family="-adobe-utopia-medium-i-normal--0-0-0-0-p-0-iso10646-1" font-size="12.00">PEDIndividualsExtractor.cpp</text>
</a>
</g>
</g>
<!-- Node11&#45;&gt;Node12 -->
<g id="edge14" class="edge"><title>Node11&#45;&gt;Node12</title>
<path fill="none" stroke="midnightblue" d="M554.398,-113.164C567.637,-103.295 584.111,-91.0149 595.578,-82.4667"/>
<polygon fill="midnightblue" stroke="midnightblue" points="552.176,-110.455 546.251,-119.238 556.36,-116.067 552.176,-110.455"/>
</g>
</g>
</svg>
