<?xml version="1.0" encoding="UTF-8" standalone="no"?>
<!DOCTYPE svg PUBLIC "-//W3C//DTD SVG 1.1//EN"
 "http://www.w3.org/Graphics/SVG/1.1/DTD/svg11.dtd">
<!-- Generated by graphviz version 2.38.0 (20140413.2041)
 -->
<!-- Title: SNPPositionMap.h Pages: 1 -->
<svg width="116pt" height="91pt"
 viewBox="0.00 0.00 116.34 90.80" xmlns="http://www.w3.org/2000/svg" xmlns:xlink="http://www.w3.org/1999/xlink">
<g id="graph0" class="graph" transform="scale(1 1) rotate(0) translate(4 86.8)">
<title>SNPPositionMap.h</title>
<polygon fill="white" stroke="none" points="-4,4 -4,-86.8 112.34,-86.8 112.34,4 -4,4"/>
<!-- Node1 -->
<g id="node1" class="node"><title>Node1</title>
<polygon fill="#bfbfbf" stroke="black" points="0,-59.9 0,-82.3 108.34,-82.3 108.34,-59.9 0,-59.9"/>
<text text-anchor="middle" x="54.17" y="-67.5" font-family="-adobe-utopia-medium-i-normal--0-0-0-0-p-0-iso10646-1" font-size="12.00">SNPPositionMap.h</text>
</g>
<!-- Node2 -->
<g id="node2" class="node"><title>Node2</title>
<polygon fill="white" stroke="#bfbfbf" points="6.8392,-0.5 6.8392,-22.9 43.5008,-22.9 43.5008,-0.5 6.8392,-0.5"/>
<text text-anchor="middle" x="25.17" y="-8.1" font-family="-adobe-utopia-medium-i-normal--0-0-0-0-p-0-iso10646-1" font-size="12.00">map</text>
</g>
<!-- Node1&#45;&gt;Node2 -->
<g id="edge1" class="edge"><title>Node1&#45;&gt;Node2</title>
<path fill="none" stroke="midnightblue" d="M48.9854,-59.838C45.1161,-52.1795 39.712,-41.4832 35.0296,-32.2153"/>
<polygon fill="midnightblue" stroke="midnightblue" points="38.1393,-30.6087 30.5059,-23.2615 31.8915,-33.7653 38.1393,-30.6087"/>
</g>
<!-- Node3 -->
<g id="node3" class="node"><title>Node3</title>
<polygon fill="white" stroke="#bfbfbf" points="61.5044,-0.5 61.5044,-22.9 104.836,-22.9 104.836,-0.5 61.5044,-0.5"/>
<text text-anchor="middle" x="83.17" y="-8.1" font-family="-adobe-utopia-medium-i-normal--0-0-0-0-p-0-iso10646-1" font-size="12.00">string</text>
</g>
<!-- Node1&#45;&gt;Node3 -->
<g id="edge2" class="edge"><title>Node1&#45;&gt;Node3</title>
<path fill="none" stroke="midnightblue" d="M59.3546,-59.838C63.2239,-52.1795 68.628,-41.4832 73.3104,-32.2153"/>
<polygon fill="midnightblue" stroke="midnightblue" points="76.4485,-33.7653 77.8341,-23.2615 70.2007,-30.6087 76.4485,-33.7653"/>
</g>
</g>
</svg>
