<?xml version="1.0" encoding="UTF-8" standalone="no"?>
<!DOCTYPE svg PUBLIC "-//W3C//DTD SVG 1.1//EN"
 "http://www.w3.org/Graphics/SVG/1.1/DTD/svg11.dtd">
<!-- Generated by graphviz version 2.38.0 (20140413.2041)
 -->
<!-- Title: SNPPositionMap.h Pages: 1 -->
<svg width="1165pt" height="566pt"
 viewBox="0.00 0.00 1164.98 566.00" xmlns="http://www.w3.org/2000/svg" xmlns:xlink="http://www.w3.org/1999/xlink">
<g id="graph0" class="graph" transform="scale(1 1) rotate(0) translate(4 562)">
<title>SNPPositionMap.h</title>
<polygon fill="white" stroke="none" points="-4,4 -4,-562 1160.98,-562 1160.98,4 -4,4"/>
<!-- Node1 -->
<g id="node1" class="node"><title>Node1</title>
<polygon fill="#bfbfbf" stroke="black" points="961.31,-535.1 961.31,-557.5 1069.65,-557.5 1069.65,-535.1 961.31,-535.1"/>
<text text-anchor="middle" x="1015.48" y="-542.7" font-family="-adobe-utopia-medium-i-normal--0-0-0-0-p-0-iso10646-1" font-size="12.00">SNPPositionMap.h</text>
</g>
<!-- Node2 -->
<g id="node2" class="node"><title>Node2</title>
<g id="a_node2"><a xlink:href="SNPs_8h.html" target="_top" xlink:title="SNPs.h">
<polygon fill="white" stroke="black" points="937.644,-475.7 937.644,-498.1 989.316,-498.1 989.316,-475.7 937.644,-475.7"/>
<text text-anchor="middle" x="963.48" y="-483.3" font-family="-adobe-utopia-medium-i-normal--0-0-0-0-p-0-iso10646-1" font-size="12.00">SNPs.h</text>
</a>
</g>
</g>
<!-- Node1&#45;&gt;Node2 -->
<g id="edge1" class="edge"><title>Node1&#45;&gt;Node2</title>
<path fill="none" stroke="midnightblue" d="M999.435,-527.589C990.794,-518.051 980.426,-506.605 973.048,-498.461"/>
<polygon fill="midnightblue" stroke="midnightblue" points="996.876,-529.977 1006.18,-535.038 1002.06,-525.277 996.876,-529.977"/>
</g>
<!-- Node32 -->
<g id="node32" class="node"><title>Node32</title>
<g id="a_node32"><a xlink:href="SNPPositionMap_8cpp.html" target="_top" xlink:title="SNPPositionMap.cpp">
<polygon fill="white" stroke="black" points="1007.65,-475.7 1007.65,-498.1 1127.31,-498.1 1127.31,-475.7 1007.65,-475.7"/>
<text text-anchor="middle" x="1067.48" y="-483.3" font-family="-adobe-utopia-medium-i-normal--0-0-0-0-p-0-iso10646-1" font-size="12.00">SNPPositionMap.cpp</text>
</a>
</g>
</g>
<!-- Node1&#45;&gt;Node32 -->
<g id="edge45" class="edge"><title>Node1&#45;&gt;Node32</title>
<path fill="none" stroke="midnightblue" d="M1031.52,-527.589C1040.17,-518.051 1050.53,-506.605 1057.91,-498.461"/>
<polygon fill="midnightblue" stroke="midnightblue" points="1028.9,-525.277 1024.78,-535.038 1034.08,-529.977 1028.9,-525.277"/>
</g>
<!-- Node3 -->
<g id="node3" class="node"><title>Node3</title>
<g id="a_node3"><a xlink:href="MarkerSet_8h.html" target="_top" xlink:title="MarkerSet.h">
<polygon fill="white" stroke="black" points="823.659,-416.3 823.659,-438.7 899.301,-438.7 899.301,-416.3 823.659,-416.3"/>
<text text-anchor="middle" x="861.48" y="-423.9" font-family="-adobe-utopia-medium-i-normal--0-0-0-0-p-0-iso10646-1" font-size="12.00">MarkerSet.h</text>
</a>
</g>
</g>
<!-- Node2&#45;&gt;Node3 -->
<g id="edge2" class="edge"><title>Node2&#45;&gt;Node3</title>
<path fill="none" stroke="midnightblue" d="M936.437,-470.681C918.587,-460.637 895.671,-447.741 879.902,-438.867"/>
<polygon fill="midnightblue" stroke="midnightblue" points="934.813,-473.784 945.244,-475.638 938.246,-467.684 934.813,-473.784"/>
</g>
<!-- Node6 -->
<g id="node6" class="node"><title>Node6</title>
<g id="a_node6"><a xlink:href="PolymorphicIndividualsExtractor_8h.html" target="_top" xlink:title="PolymorphicIndividualsExtractor.h">
<polygon fill="white" stroke="black" points="447.663,-238.1 447.663,-260.5 633.297,-260.5 633.297,-238.1 447.663,-238.1"/>
<text text-anchor="middle" x="540.48" y="-245.7" font-family="-adobe-utopia-medium-i-normal--0-0-0-0-p-0-iso10646-1" font-size="12.00">PolymorphicIndividualsExtractor.h</text>
</a>
</g>
</g>
<!-- Node2&#45;&gt;Node6 -->
<g id="edge43" class="edge"><title>Node2&#45;&gt;Node6</title>
<path fill="none" stroke="midnightblue" d="M927.002,-483.561C858.653,-477.445 709.636,-455.714 614.48,-379.8 573.591,-347.179 551.156,-285.409 543.511,-260.801"/>
<polygon fill="midnightblue" stroke="midnightblue" points="927.003,-487.073 937.258,-484.414 927.583,-480.097 927.003,-487.073"/>
</g>
<!-- Node20 -->
<g id="node20" class="node"><title>Node20</title>
<g id="a_node20"><a xlink:href="Match_8h.html" target="_top" xlink:title="Match.h">
<polygon fill="white" stroke="black" points="1089.65,-178.7 1089.65,-201.1 1145.31,-201.1 1145.31,-178.7 1089.65,-178.7"/>
<text text-anchor="middle" x="1117.48" y="-186.3" font-family="-adobe-utopia-medium-i-normal--0-0-0-0-p-0-iso10646-1" font-size="12.00">Match.h</text>
</a>
</g>
</g>
<!-- Node2&#45;&gt;Node20 -->
<g id="edge42" class="edge"><title>Node2&#45;&gt;Node20</title>
<path fill="none" stroke="midnightblue" d="M991.419,-470.217C1021.92,-450.791 1066.48,-414.623 1066.48,-369.1 1066.48,-369.1 1066.48,-369.1 1066.48,-307.7 1066.48,-265.217 1095.17,-220.759 1109.51,-201.184"/>
<polygon fill="midnightblue" stroke="midnightblue" points="989.546,-467.259 982.854,-475.473 993.207,-473.226 989.546,-467.259"/>
</g>
<!-- Node31 -->
<g id="node31" class="node"><title>Node31</title>
<g id="a_node31"><a xlink:href="SNPs_8cpp.html" target="_top" xlink:title="SNPs.cpp">
<polygon fill="white" stroke="black" points="1093.98,-416.3 1093.98,-438.7 1156.98,-438.7 1156.98,-416.3 1093.98,-416.3"/>
<text text-anchor="middle" x="1125.48" y="-423.9" font-family="-adobe-utopia-medium-i-normal--0-0-0-0-p-0-iso10646-1" font-size="12.00">SNPs.cpp</text>
</a>
</g>
</g>
<!-- Node2&#45;&gt;Node31 -->
<g id="edge44" class="edge"><title>Node2&#45;&gt;Node31</title>
<path fill="none" stroke="midnightblue" d="M998.943,-473.335C1028.2,-462.969 1069.19,-448.443 1096.51,-438.766"/>
<polygon fill="midnightblue" stroke="midnightblue" points="997.765,-470.039 989.508,-476.678 1000.1,-476.637 997.765,-470.039"/>
</g>
<!-- Node4 -->
<g id="node4" class="node"><title>Node4</title>
<g id="a_node4"><a xlink:href="Chromosome_8h.html" target="_top" xlink:title="Chromosome.h">
<polygon fill="white" stroke="black" points="816.65,-356.9 816.65,-379.3 906.31,-379.3 906.31,-356.9 816.65,-356.9"/>
<text text-anchor="middle" x="861.48" y="-364.5" font-family="-adobe-utopia-medium-i-normal--0-0-0-0-p-0-iso10646-1" font-size="12.00">Chromosome.h</text>
</a>
</g>
</g>
<!-- Node3&#45;&gt;Node4 -->
<g id="edge3" class="edge"><title>Node3&#45;&gt;Node4</title>
<path fill="none" stroke="midnightblue" d="M861.48,-406.171C861.48,-397.217 861.48,-387.072 861.48,-379.661"/>
<polygon fill="midnightblue" stroke="midnightblue" points="857.98,-406.238 861.48,-416.238 864.98,-406.238 857.98,-406.238"/>
</g>
<!-- Node3&#45;&gt;Node20 -->
<g id="edge39" class="edge"><title>Node3&#45;&gt;Node20</title>
<path fill="none" stroke="midnightblue" d="M883.89,-410.154C910.293,-390.375 954.823,-355.359 988.48,-320.4 1020.74,-286.893 1019.02,-269.908 1052.48,-237.6 1067.27,-223.315 1086.69,-209.939 1100.43,-201.195"/>
<polygon fill="midnightblue" stroke="midnightblue" points="881.615,-407.484 875.672,-416.255 885.788,-413.104 881.615,-407.484"/>
</g>
<!-- Node22 -->
<g id="node22" class="node"><title>Node22</title>
<g id="a_node22"><a xlink:href="MatchFactory_8h.html" target="_top" xlink:title="MatchFactory.h">
<polygon fill="white" stroke="black" points="738.325,-178.7 738.325,-201.1 830.635,-201.1 830.635,-178.7 738.325,-178.7"/>
<text text-anchor="middle" x="784.48" y="-186.3" font-family="-adobe-utopia-medium-i-normal--0-0-0-0-p-0-iso10646-1" font-size="12.00">MatchFactory.h</text>
</a>
</g>
</g>
<!-- Node3&#45;&gt;Node22 -->
<g id="edge40" class="edge"><title>Node3&#45;&gt;Node22</title>
<path fill="none" stroke="midnightblue" d="M836.033,-410.522C809.953,-392.398 771.199,-360.137 756.48,-320.4 743.698,-285.891 746.662,-273.066 756.48,-237.6 760.263,-223.934 769.226,-210.25 776,-201.26"/>
<polygon fill="midnightblue" stroke="midnightblue" points="834.089,-413.432 844.338,-416.116 838,-407.627 834.089,-413.432"/>
</g>
<!-- Node30 -->
<g id="node30" class="node"><title>Node30</title>
<g id="a_node30"><a xlink:href="MarkerSet_8cpp.html" target="_top" xlink:title="MarkerSet.cpp">
<polygon fill="white" stroke="black" points="622.995,-356.9 622.995,-379.3 709.965,-379.3 709.965,-356.9 622.995,-356.9"/>
<text text-anchor="middle" x="666.48" y="-364.5" font-family="-adobe-utopia-medium-i-normal--0-0-0-0-p-0-iso10646-1" font-size="12.00">MarkerSet.cpp</text>
</a>
</g>
</g>
<!-- Node3&#45;&gt;Node30 -->
<g id="edge41" class="edge"><title>Node3&#45;&gt;Node30</title>
<path fill="none" stroke="midnightblue" d="M816.646,-413.303C781.6,-402.987 733.582,-388.852 701.368,-379.37"/>
<polygon fill="midnightblue" stroke="midnightblue" points="816.037,-416.772 826.618,-416.238 818.013,-410.057 816.037,-416.772"/>
</g>
<!-- Node5 -->
<g id="node5" class="node"><title>Node5</title>
<g id="a_node5"><a xlink:href="Individuals_8h.html" target="_top" xlink:title="Individuals.h">
<polygon fill="white" stroke="black" points="764.984,-297.5 764.984,-319.9 843.976,-319.9 843.976,-297.5 764.984,-297.5"/>
<text text-anchor="middle" x="804.48" y="-305.1" font-family="-adobe-utopia-medium-i-normal--0-0-0-0-p-0-iso10646-1" font-size="12.00">Individuals.h</text>
</a>
</g>
</g>
<!-- Node4&#45;&gt;Node5 -->
<g id="edge4" class="edge"><title>Node4&#45;&gt;Node5</title>
<path fill="none" stroke="midnightblue" d="M844.176,-349.675C834.648,-340.08 823.136,-328.487 814.968,-320.261"/>
<polygon fill="midnightblue" stroke="midnightblue" points="841.76,-352.208 851.29,-356.838 846.727,-347.276 841.76,-352.208"/>
</g>
<!-- Node19 -->
<g id="node19" class="node"><title>Node19</title>
<g id="a_node19"><a xlink:href="Individual_8h.html" target="_top" xlink:title="Individual.h">
<polygon fill="white" stroke="black" points="919.317,-238.1 919.317,-260.5 993.643,-260.5 993.643,-238.1 919.317,-238.1"/>
<text text-anchor="middle" x="956.48" y="-245.7" font-family="-adobe-utopia-medium-i-normal--0-0-0-0-p-0-iso10646-1" font-size="12.00">Individual.h</text>
</a>
</g>
</g>
<!-- Node4&#45;&gt;Node19 -->
<g id="edge35" class="edge"><title>Node4&#45;&gt;Node19</title>
<path fill="none" stroke="midnightblue" d="M916.172,-357.281C937.122,-350.566 958.975,-339.294 971.48,-320.4 983.707,-301.926 971.679,-275.252 963.214,-260.712"/>
<polygon fill="midnightblue" stroke="midnightblue" points="914.954,-353.99 906.327,-360.141 916.906,-360.712 914.954,-353.99"/>
</g>
<!-- Node27 -->
<g id="node27" class="node"><title>Node27</title>
<g id="a_node27"><a xlink:href="Chromosome_8cpp.html" target="_top" xlink:title="Chromosome.cpp">
<polygon fill="white" stroke="black" points="861.986,-297.5 861.986,-319.9 962.974,-319.9 962.974,-297.5 861.986,-297.5"/>
<text text-anchor="middle" x="912.48" y="-305.1" font-family="-adobe-utopia-medium-i-normal--0-0-0-0-p-0-iso10646-1" font-size="12.00">Chromosome.cpp</text>
</a>
</g>
</g>
<!-- Node4&#45;&gt;Node27 -->
<g id="edge36" class="edge"><title>Node4&#45;&gt;Node27</title>
<path fill="none" stroke="midnightblue" d="M877.471,-349.102C885.894,-339.622 895.933,-328.324 903.096,-320.261"/>
<polygon fill="midnightblue" stroke="midnightblue" points="874.623,-347.038 870.598,-356.838 879.856,-351.687 874.623,-347.038"/>
</g>
<!-- Node28 -->
<g id="node28" class="node"><title>Node28</title>
<g id="a_node28"><a xlink:href="ChromosomePair_8h.html" target="_top" xlink:title="ChromosomePair.h">
<polygon fill="white" stroke="black" points="359.986,-297.5 359.986,-319.9 468.974,-319.9 468.974,-297.5 359.986,-297.5"/>
<text text-anchor="middle" x="414.48" y="-305.1" font-family="-adobe-utopia-medium-i-normal--0-0-0-0-p-0-iso10646-1" font-size="12.00">ChromosomePair.h</text>
</a>
</g>
</g>
<!-- Node4&#45;&gt;Node28 -->
<g id="edge37" class="edge"><title>Node4&#45;&gt;Node28</title>
<path fill="none" stroke="midnightblue" d="M806.481,-360.037C720.402,-348.984 554.842,-327.724 469.037,-316.706"/>
<polygon fill="midnightblue" stroke="midnightblue" points="806.209,-363.531 816.573,-361.333 807.101,-356.588 806.209,-363.531"/>
</g>
<!-- Node5&#45;&gt;Node6 -->
<g id="edge5" class="edge"><title>Node5&#45;&gt;Node6</title>
<path fill="none" stroke="midnightblue" d="M755.094,-296.962C707.054,-286.517 634.601,-270.764 587.414,-260.505"/>
<polygon fill="midnightblue" stroke="midnightblue" points="754.441,-300.402 764.957,-299.107 755.928,-293.562 754.441,-300.402"/>
</g>
<!-- Node7 -->
<g id="node7" class="node"><title>Node7</title>
<g id="a_node7"><a xlink:href="InputManager_8h.html" target="_top" xlink:title="InputManager.h">
<polygon fill="white" stroke="black" points="540.994,-178.7 540.994,-201.1 633.966,-201.1 633.966,-178.7 540.994,-178.7"/>
<text text-anchor="middle" x="587.48" y="-186.3" font-family="-adobe-utopia-medium-i-normal--0-0-0-0-p-0-iso10646-1" font-size="12.00">InputManager.h</text>
</a>
</g>
</g>
<!-- Node5&#45;&gt;Node7 -->
<g id="edge31" class="edge"><title>Node5&#45;&gt;Node7</title>
<path fill="none" stroke="midnightblue" d="M762.597,-294.126C739.266,-285.865 710.055,-274.344 685.48,-261 652.574,-243.132 617.772,-215.979 599.814,-201.261"/>
<polygon fill="midnightblue" stroke="midnightblue" points="761.611,-297.488 772.205,-297.462 763.907,-290.876 761.611,-297.488"/>
</g>
<!-- Node8 -->
<g id="node8" class="node"><title>Node8</title>
<g id="a_node8"><a xlink:href="GERMLINE_8h.html" target="_top" xlink:title="GERMLINE.h">
<polygon fill="white" stroke="black" points="590.989,-59.9 590.989,-82.3 677.971,-82.3 677.971,-59.9 590.989,-59.9"/>
<text text-anchor="middle" x="634.48" y="-67.5" font-family="-adobe-utopia-medium-i-normal--0-0-0-0-p-0-iso10646-1" font-size="12.00">GERMLINE.h</text>
</a>
</g>
</g>
<!-- Node5&#45;&gt;Node8 -->
<g id="edge32" class="edge"><title>Node5&#45;&gt;Node8</title>
<path fill="none" stroke="midnightblue" d="M834.805,-292.012C846.308,-284.344 858.151,-273.946 864.48,-261 872.852,-243.875 893.398,-161.289 856.48,-118.8 855.003,-117.1 742.195,-93.9666 677.98,-80.9117"/>
<polygon fill="midnightblue" stroke="midnightblue" points="832.844,-289.109 826.173,-297.34 836.52,-295.066 832.844,-289.109"/>
</g>
<!-- Node12 -->
<g id="node12" class="node"><title>Node12</title>
<g id="a_node12"><a xlink:href="MatchesBuilder_8h.html" target="_top" xlink:title="MatchesBuilder.h">
<polygon fill="white" stroke="black" points="623.659,-119.3 623.659,-141.7 725.301,-141.7 725.301,-119.3 623.659,-119.3"/>
<text text-anchor="middle" x="674.48" y="-126.9" font-family="-adobe-utopia-medium-i-normal--0-0-0-0-p-0-iso10646-1" font-size="12.00">MatchesBuilder.h</text>
</a>
</g>
</g>
<!-- Node5&#45;&gt;Node12 -->
<g id="edge33" class="edge"><title>Node5&#45;&gt;Node12</title>
<path fill="none" stroke="midnightblue" d="M784.744,-290.475C775.634,-282.045 764.98,-271.473 756.48,-261 723.108,-219.883 692.069,-164.438 679.902,-141.786"/>
<polygon fill="midnightblue" stroke="midnightblue" points="782.496,-293.161 792.259,-297.275 787.193,-287.97 782.496,-293.161"/>
</g>
<!-- Node5&#45;&gt;Node19 -->
<g id="edge21" class="edge"><title>Node5&#45;&gt;Node19</title>
<path fill="none" stroke="midnightblue" d="M835.666,-293.698C861.462,-283.462 897.81,-269.808 923.968,-260.57"/>
<polygon fill="midnightblue" stroke="midnightblue" points="834.318,-290.468 826.339,-297.438 836.923,-296.965 834.318,-290.468"/>
</g>
<!-- Node26 -->
<g id="node26" class="node"><title>Node26</title>
<g id="a_node26"><a xlink:href="Individuals_8cpp.html" target="_top" xlink:title="Individuals.cpp">
<polygon fill="white" stroke="black" points="765.32,-238.1 765.32,-260.5 855.64,-260.5 855.64,-238.1 765.32,-238.1"/>
<text text-anchor="middle" x="810.48" y="-245.7" font-family="-adobe-utopia-medium-i-normal--0-0-0-0-p-0-iso10646-1" font-size="12.00">Individuals.cpp</text>
</a>
</g>
</g>
<!-- Node5&#45;&gt;Node26 -->
<g id="edge34" class="edge"><title>Node5&#45;&gt;Node26</title>
<path fill="none" stroke="midnightblue" d="M806.605,-287.371C807.541,-278.417 808.601,-268.272 809.376,-260.861"/>
<polygon fill="midnightblue" stroke="midnightblue" points="803.111,-287.128 805.553,-297.438 810.073,-287.856 803.111,-287.128"/>
</g>
<!-- Node6&#45;&gt;Node7 -->
<g id="edge6" class="edge"><title>Node6&#45;&gt;Node7</title>
<path fill="none" stroke="midnightblue" d="M555.453,-230.014C563.166,-220.594 572.297,-209.442 578.832,-201.461"/>
<polygon fill="midnightblue" stroke="midnightblue" points="552.51,-228.083 548.883,-238.038 557.926,-232.518 552.51,-228.083"/>
</g>
<!-- Node6&#45;&gt;Node12 -->
<g id="edge11" class="edge"><title>Node6&#45;&gt;Node12</title>
<path fill="none" stroke="midnightblue" d="M588.354,-234.474C607.082,-227.148 627.594,-216.502 642.48,-201.6 659.498,-184.563 668.405,-156.828 672.193,-141.862"/>
<polygon fill="midnightblue" stroke="midnightblue" points="586.936,-231.266 578.762,-238.007 589.355,-237.835 586.936,-231.266"/>
</g>
<!-- Node14 -->
<g id="node14" class="node"><title>Node14</title>
<g id="a_node14"><a xlink:href="HMIndividualsExtractor_8h.html" target="_top" xlink:title="HMIndividualsExtractor.h">
<polygon fill="white" stroke="black" points="379.997,-178.7 379.997,-201.1 522.963,-201.1 522.963,-178.7 379.997,-178.7"/>
<text text-anchor="middle" x="451.48" y="-186.3" font-family="-adobe-utopia-medium-i-normal--0-0-0-0-p-0-iso10646-1" font-size="12.00">HMIndividualsExtractor.h</text>
</a>
</g>
</g>
<!-- Node6&#45;&gt;Node14 -->
<g id="edge14" class="edge"><title>Node6&#45;&gt;Node14</title>
<path fill="none" stroke="midnightblue" d="M516.022,-232.526C500.577,-222.565 481.06,-209.978 467.554,-201.267"/>
<polygon fill="midnightblue" stroke="midnightblue" points="514.268,-235.559 524.569,-238.038 518.062,-229.677 514.268,-235.559"/>
</g>
<!-- Node16 -->
<g id="node16" class="node"><title>Node16</title>
<g id="a_node16"><a xlink:href="PEDIndividualsExtractor_8h.html" target="_top" xlink:title="PEDIndividualsExtractor.h">
<polygon fill="white" stroke="black" points="215.33,-178.7 215.33,-201.1 361.63,-201.1 361.63,-178.7 215.33,-178.7"/>
<text text-anchor="middle" x="288.48" y="-186.3" font-family="-adobe-utopia-medium-i-normal--0-0-0-0-p-0-iso10646-1" font-size="12.00">PEDIndividualsExtractor.h</text>
</a>
</g>
</g>
<!-- Node6&#45;&gt;Node16 -->
<g id="edge17" class="edge"><title>Node6&#45;&gt;Node16</title>
<path fill="none" stroke="midnightblue" d="M485.433,-235.762C439.923,-225.395 376.09,-210.856 333.567,-201.17"/>
<polygon fill="midnightblue" stroke="midnightblue" points="484.9,-239.23 495.427,-238.038 486.455,-232.404 484.9,-239.23"/>
</g>
<!-- Node18 -->
<g id="node18" class="node"><title>Node18</title>
<g id="a_node18"><a xlink:href="PolymorphicIndividualsExtractor_8cpp.html" target="_top" xlink:title="PolymorphicIndividualsExtractor.cpp">
<polygon fill="white" stroke="black" points="2.84217e-14,-178.7 2.84217e-14,-201.1 196.96,-201.1 196.96,-178.7 2.84217e-14,-178.7"/>
<text text-anchor="middle" x="98.48" y="-186.3" font-family="-adobe-utopia-medium-i-normal--0-0-0-0-p-0-iso10646-1" font-size="12.00">PolymorphicIndividualsExtractor.cpp</text>
</a>
</g>
</g>
<!-- Node6&#45;&gt;Node18 -->
<g id="edge20" class="edge"><title>Node6&#45;&gt;Node18</title>
<path fill="none" stroke="midnightblue" d="M451.621,-236.76C371.339,-226.335 254.291,-211.134 177.282,-201.134"/>
<polygon fill="midnightblue" stroke="midnightblue" points="451.347,-240.254 461.714,-238.071 452.248,-233.312 451.347,-240.254"/>
</g>
<!-- Node7&#45;&gt;Node8 -->
<g id="edge7" class="edge"><title>Node7&#45;&gt;Node8</title>
<path fill="none" stroke="midnightblue" d="M595.005,-168.776C600.316,-154.721 607.67,-135.552 614.48,-118.8 619.595,-106.218 625.794,-91.8736 629.921,-82.4409"/>
<polygon fill="midnightblue" stroke="midnightblue" points="591.63,-167.809 591.385,-178.401 598.182,-170.273 591.63,-167.809"/>
</g>
<!-- Node11 -->
<g id="node11" class="node"><title>Node11</title>
<g id="a_node11"><a xlink:href="InputManager_8cpp.html" target="_top" xlink:title="InputManager.cpp">
<polygon fill="white" stroke="black" points="291.331,-119.3 291.331,-141.7 395.629,-141.7 395.629,-119.3 291.331,-119.3"/>
<text text-anchor="middle" x="343.48" y="-126.9" font-family="-adobe-utopia-medium-i-normal--0-0-0-0-p-0-iso10646-1" font-size="12.00">InputManager.cpp</text>
</a>
</g>
</g>
<!-- Node7&#45;&gt;Node11 -->
<g id="edge10" class="edge"><title>Node7&#45;&gt;Node11</title>
<path fill="none" stroke="midnightblue" d="M533.903,-176.296C489.856,-165.934 428.222,-151.435 387.135,-141.77"/>
<polygon fill="midnightblue" stroke="midnightblue" points="533.322,-179.755 543.858,-178.638 534.925,-172.941 533.322,-179.755"/>
</g>
<!-- Node9 -->
<g id="node9" class="node"><title>Node9</title>
<g id="a_node9"><a xlink:href="GERMLINE__0001_8cpp.html" target="_top" xlink:title="GERMLINE_0001.cpp">
<polygon fill="white" stroke="black" points="505.325,-0.5 505.325,-22.9 633.635,-22.9 633.635,-0.5 505.325,-0.5"/>
<text text-anchor="middle" x="569.48" y="-8.1" font-family="-adobe-utopia-medium-i-normal--0-0-0-0-p-0-iso10646-1" font-size="12.00">GERMLINE_0001.cpp</text>
</a>
</g>
</g>
<!-- Node8&#45;&gt;Node9 -->
<g id="edge8" class="edge"><title>Node8&#45;&gt;Node9</title>
<path fill="none" stroke="midnightblue" d="M615.069,-52.9589C604.143,-43.3099 590.846,-31.5682 581.44,-23.2615"/>
<polygon fill="midnightblue" stroke="midnightblue" points="613.047,-55.8422 622.859,-59.838 617.68,-50.5952 613.047,-55.8422"/>
</g>
<!-- Node10 -->
<g id="node10" class="node"><title>Node10</title>
<g id="a_node10"><a xlink:href="GERMLINE_8cpp.html" target="_top" xlink:title="GERMLINE.cpp">
<polygon fill="white" stroke="black" points="651.325,-0.5 651.325,-22.9 749.635,-22.9 749.635,-0.5 651.325,-0.5"/>
<text text-anchor="middle" x="700.48" y="-8.1" font-family="-adobe-utopia-medium-i-normal--0-0-0-0-p-0-iso10646-1" font-size="12.00">GERMLINE.cpp</text>
</a>
</g>
</g>
<!-- Node8&#45;&gt;Node10 -->
<g id="edge9" class="edge"><title>Node8&#45;&gt;Node10</title>
<path fill="none" stroke="midnightblue" d="M653.864,-53.2421C665.019,-43.5405 678.691,-31.6496 688.336,-23.2615"/>
<polygon fill="midnightblue" stroke="midnightblue" points="651.528,-50.6347 646.279,-59.838 656.122,-55.9166 651.528,-50.6347"/>
</g>
<!-- Node12&#45;&gt;Node8 -->
<g id="edge12" class="edge"><title>Node12&#45;&gt;Node8</title>
<path fill="none" stroke="midnightblue" d="M661.536,-110.925C655.015,-101.567 647.345,-90.561 641.84,-82.6615"/>
<polygon fill="midnightblue" stroke="midnightblue" points="658.74,-113.035 667.329,-119.238 664.483,-109.033 658.74,-113.035"/>
</g>
<!-- Node13 -->
<g id="node13" class="node"><title>Node13</title>
<g id="a_node13"><a xlink:href="MatchesBuilder_8cpp.html" target="_top" xlink:title="MatchesBuilder.cpp">
<polygon fill="white" stroke="black" points="695.995,-59.9 695.995,-82.3 808.965,-82.3 808.965,-59.9 695.995,-59.9"/>
<text text-anchor="middle" x="752.48" y="-67.5" font-family="-adobe-utopia-medium-i-normal--0-0-0-0-p-0-iso10646-1" font-size="12.00">MatchesBuilder.cpp</text>
</a>
</g>
</g>
<!-- Node12&#45;&gt;Node13 -->
<g id="edge13" class="edge"><title>Node12&#45;&gt;Node13</title>
<path fill="none" stroke="midnightblue" d="M696.678,-113.164C710.089,-103.295 726.777,-91.0149 738.393,-82.4667"/>
<polygon fill="midnightblue" stroke="midnightblue" points="694.405,-110.492 688.425,-119.238 698.554,-116.13 694.405,-110.492"/>
</g>
<!-- Node14&#45;&gt;Node11 -->
<g id="edge16" class="edge"><title>Node14&#45;&gt;Node11</title>
<path fill="none" stroke="midnightblue" d="M423.106,-173.82C404.169,-163.755 379.758,-150.781 362.985,-141.867"/>
<polygon fill="midnightblue" stroke="midnightblue" points="421.699,-177.035 432.172,-178.638 424.984,-170.854 421.699,-177.035"/>
</g>
<!-- Node15 -->
<g id="node15" class="node"><title>Node15</title>
<g id="a_node15"><a xlink:href="HMIndividualsExtractor_8cpp.html" target="_top" xlink:title="HMIndividualsExtractor.cpp">
<polygon fill="white" stroke="black" points="413.334,-119.3 413.334,-141.7 567.626,-141.7 567.626,-119.3 413.334,-119.3"/>
<text text-anchor="middle" x="490.48" y="-126.9" font-family="-adobe-utopia-medium-i-normal--0-0-0-0-p-0-iso10646-1" font-size="12.00">HMIndividualsExtractor.cpp</text>
</a>
</g>
</g>
<!-- Node14&#45;&gt;Node15 -->
<g id="edge15" class="edge"><title>Node14&#45;&gt;Node15</title>
<path fill="none" stroke="midnightblue" d="M464.1,-170.325C470.459,-160.967 477.937,-149.961 483.304,-142.061"/>
<polygon fill="midnightblue" stroke="midnightblue" points="461.177,-168.4 458.452,-178.638 466.967,-172.334 461.177,-168.4"/>
</g>
<!-- Node16&#45;&gt;Node11 -->
<g id="edge18" class="edge"><title>Node16&#45;&gt;Node11</title>
<path fill="none" stroke="midnightblue" d="M305.451,-171.189C314.59,-161.651 325.557,-150.205 333.36,-142.061"/>
<polygon fill="midnightblue" stroke="midnightblue" points="302.704,-168.996 298.313,-178.638 307.759,-173.839 302.704,-168.996"/>
</g>
<!-- Node17 -->
<g id="node17" class="node"><title>Node17</title>
<g id="a_node17"><a xlink:href="PEDIndividualsExtractor_8cpp.html" target="_top" xlink:title="PEDIndividualsExtractor.cpp">
<polygon fill="white" stroke="black" points="115.666,-119.3 115.666,-141.7 273.294,-141.7 273.294,-119.3 115.666,-119.3"/>
<text text-anchor="middle" x="194.48" y="-126.9" font-family="-adobe-utopia-medium-i-normal--0-0-0-0-p-0-iso10646-1" font-size="12.00">PEDIndividualsExtractor.cpp</text>
</a>
</g>
</g>
<!-- Node16&#45;&gt;Node17 -->
<g id="edge19" class="edge"><title>Node16&#45;&gt;Node17</title>
<path fill="none" stroke="midnightblue" d="M263.104,-173.404C246.721,-163.4 225.856,-150.659 211.457,-141.867"/>
<polygon fill="midnightblue" stroke="midnightblue" points="261.316,-176.414 271.675,-178.638 264.964,-170.439 261.316,-176.414"/>
</g>
<!-- Node19&#45;&gt;Node5 -->
<g id="edge22" class="edge"><title>Node19&#45;&gt;Node5</title>
<path fill="none" stroke="midnightblue" d="M925.033,-264.405C899.246,-274.633 863.042,-288.231 836.97,-297.438"/>
<polygon fill="midnightblue" stroke="midnightblue" points="926.383,-267.635 934.363,-260.667 923.779,-261.137 926.383,-267.635"/>
</g>
<!-- Node19&#45;&gt;Node20 -->
<g id="edge23" class="edge"><title>Node19&#45;&gt;Node20</title>
<path fill="none" stroke="midnightblue" d="M989.417,-234.464C1018.94,-223.426 1061.59,-208.336 1089.52,-199.123"/>
<polygon fill="midnightblue" stroke="midnightblue" points="988.068,-231.232 979.948,-238.038 990.539,-237.782 988.068,-231.232"/>
</g>
<!-- Node19&#45;&gt;Node22 -->
<g id="edge26" class="edge"><title>Node19&#45;&gt;Node22</title>
<path fill="none" stroke="midnightblue" d="M916.136,-234.836C885.296,-224.544 843.424,-210.571 815.253,-201.17"/>
<polygon fill="midnightblue" stroke="midnightblue" points="915.136,-238.192 925.73,-238.038 917.352,-231.552 915.136,-238.192"/>
</g>
<!-- Node24 -->
<g id="node24" class="node"><title>Node24</title>
<g id="a_node24"><a xlink:href="Share_8cpp.html" target="_top" xlink:title="Share.cpp">
<polygon fill="white" stroke="black" points="903.657,-178.7 903.657,-201.1 967.303,-201.1 967.303,-178.7 903.657,-178.7"/>
<text text-anchor="middle" x="935.48" y="-186.3" font-family="-adobe-utopia-medium-i-normal--0-0-0-0-p-0-iso10646-1" font-size="12.00">Share.cpp</text>
</a>
</g>
</g>
<!-- Node19&#45;&gt;Node24 -->
<g id="edge29" class="edge"><title>Node19&#45;&gt;Node24</title>
<path fill="none" stroke="midnightblue" d="M949.258,-228.56C945.93,-219.465 942.115,-209.035 939.344,-201.461"/>
<polygon fill="midnightblue" stroke="midnightblue" points="946.003,-229.849 952.726,-238.038 952.577,-227.444 946.003,-229.849"/>
</g>
<!-- Node25 -->
<g id="node25" class="node"><title>Node25</title>
<g id="a_node25"><a xlink:href="Individual_8cpp.html" target="_top" xlink:title="Individual.cpp">
<polygon fill="white" stroke="black" points="985.654,-178.7 985.654,-201.1 1071.31,-201.1 1071.31,-178.7 985.654,-178.7"/>
<text text-anchor="middle" x="1028.48" y="-186.3" font-family="-adobe-utopia-medium-i-normal--0-0-0-0-p-0-iso10646-1" font-size="12.00">Individual.cpp</text>
</a>
</g>
</g>
<!-- Node19&#45;&gt;Node25 -->
<g id="edge30" class="edge"><title>Node19&#45;&gt;Node25</title>
<path fill="none" stroke="midnightblue" d="M977.272,-231.724C989.505,-221.972 1004.61,-209.931 1015.23,-201.461"/>
<polygon fill="midnightblue" stroke="midnightblue" points="974.99,-229.068 969.352,-238.038 979.353,-234.541 974.99,-229.068"/>
</g>
<!-- Node20&#45;&gt;Node19 -->
<g id="edge24" class="edge"><title>Node20&#45;&gt;Node19</title>
<path fill="none" stroke="midnightblue" d="M1084.44,-204.775C1057.01,-215.028 1018.3,-228.762 990.579,-238.038"/>
<polygon fill="midnightblue" stroke="midnightblue" points="1085.87,-207.975 1093.99,-201.17 1083.4,-201.426 1085.87,-207.975"/>
</g>
<!-- Node21 -->
<g id="node21" class="node"><title>Node21</title>
<g id="a_node21"><a xlink:href="Match_8cpp.html" target="_top" xlink:title="Match.cpp">
<polygon fill="white" stroke="black" points="1083.99,-119.3 1083.99,-141.7 1150.97,-141.7 1150.97,-119.3 1083.99,-119.3"/>
<text text-anchor="middle" x="1117.48" y="-126.9" font-family="-adobe-utopia-medium-i-normal--0-0-0-0-p-0-iso10646-1" font-size="12.00">Match.cpp</text>
</a>
</g>
</g>
<!-- Node20&#45;&gt;Node21 -->
<g id="edge25" class="edge"><title>Node20&#45;&gt;Node21</title>
<path fill="none" stroke="midnightblue" d="M1117.48,-168.571C1117.48,-159.617 1117.48,-149.472 1117.48,-142.061"/>
<polygon fill="midnightblue" stroke="midnightblue" points="1113.98,-168.638 1117.48,-178.638 1120.98,-168.638 1113.98,-168.638"/>
</g>
<!-- Node22&#45;&gt;Node12 -->
<g id="edge27" class="edge"><title>Node22&#45;&gt;Node12</title>
<path fill="none" stroke="midnightblue" d="M755.844,-173.957C736.52,-163.874 711.508,-150.822 694.346,-141.867"/>
<polygon fill="midnightblue" stroke="midnightblue" points="754.329,-177.115 764.814,-178.638 757.568,-170.909 754.329,-177.115"/>
</g>
<!-- Node23 -->
<g id="node23" class="node"><title>Node23</title>
<g id="a_node23"><a xlink:href="MatchFactory_8cpp.html" target="_top" xlink:title="MatchFactory.cpp">
<polygon fill="white" stroke="black" points="743.662,-119.3 743.662,-141.7 847.298,-141.7 847.298,-119.3 743.662,-119.3"/>
<text text-anchor="middle" x="795.48" y="-126.9" font-family="-adobe-utopia-medium-i-normal--0-0-0-0-p-0-iso10646-1" font-size="12.00">MatchFactory.cpp</text>
</a>
</g>
</g>
<!-- Node22&#45;&gt;Node23 -->
<g id="edge28" class="edge"><title>Node22&#45;&gt;Node23</title>
<path fill="none" stroke="midnightblue" d="M788.376,-168.571C790.092,-159.617 792.036,-149.472 793.456,-142.061"/>
<polygon fill="midnightblue" stroke="midnightblue" points="784.891,-168.158 786.447,-178.638 791.766,-169.476 784.891,-168.158"/>
</g>
<!-- Node29 -->
<g id="node29" class="node"><title>Node29</title>
<g id="a_node29"><a xlink:href="ChromosomePair_8cpp.html" target="_top" xlink:title="ChromosomePair.cpp">
<polygon fill="white" stroke="black" points="309.323,-238.1 309.323,-260.5 429.637,-260.5 429.637,-238.1 309.323,-238.1"/>
<text text-anchor="middle" x="369.48" y="-245.7" font-family="-adobe-utopia-medium-i-normal--0-0-0-0-p-0-iso10646-1" font-size="12.00">ChromosomePair.cpp</text>
</a>
</g>
</g>
<!-- Node28&#45;&gt;Node29 -->
<g id="edge38" class="edge"><title>Node28&#45;&gt;Node29</title>
<path fill="none" stroke="midnightblue" d="M400.145,-289.414C392.759,-279.994 384.017,-268.842 377.76,-260.861"/>
<polygon fill="midnightblue" stroke="midnightblue" points="397.511,-291.728 406.435,-297.438 403.02,-287.409 397.511,-291.728"/>
</g>
</g>
</svg>
