<?xml version="1.0" encoding="UTF-8" standalone="no"?>
<!DOCTYPE svg PUBLIC "-//W3C//DTD SVG 1.1//EN"
 "http://www.w3.org/Graphics/SVG/1.1/DTD/svg11.dtd">
<!-- Generated by graphviz version 2.38.0 (20140413.2041)
 -->
<!-- Title: ChromosomePair.cpp Pages: 1 -->
<svg width="850pt" height="447pt"
 viewBox="0.00 0.00 850.00 447.20" xmlns="http://www.w3.org/2000/svg" xmlns:xlink="http://www.w3.org/1999/xlink">
<g id="graph0" class="graph" transform="scale(1 1) rotate(0) translate(4 443.2)">
<title>ChromosomePair.cpp</title>
<polygon fill="white" stroke="none" points="-4,4 -4,-443.2 846,-443.2 846,4 -4,4"/>
<!-- Node1 -->
<g id="node1" class="node"><title>Node1</title>
<polygon fill="#bfbfbf" stroke="black" points="125.843,-416.3 125.843,-438.7 246.157,-438.7 246.157,-416.3 125.843,-416.3"/>
<text text-anchor="middle" x="186" y="-423.9" font-family="-adobe-utopia-medium-i-normal--0-0-0-0-p-0-iso10646-1" font-size="12.00">ChromosomePair.cpp</text>
</g>
<!-- Node2 -->
<g id="node2" class="node"><title>Node2</title>
<g id="a_node2"><a xlink:href="ChromosomePair_8h.html" target="_top" xlink:title="ChromosomePair.h">
<polygon fill="white" stroke="black" points="131.506,-356.9 131.506,-379.3 240.494,-379.3 240.494,-356.9 131.506,-356.9"/>
<text text-anchor="middle" x="186" y="-364.5" font-family="-adobe-utopia-medium-i-normal--0-0-0-0-p-0-iso10646-1" font-size="12.00">ChromosomePair.h</text>
</a>
</g>
</g>
<!-- Node1&#45;&gt;Node2 -->
<g id="edge1" class="edge"><title>Node1&#45;&gt;Node2</title>
<path fill="none" stroke="midnightblue" d="M186,-416.238C186,-408.902 186,-398.779 186,-389.793"/>
<polygon fill="midnightblue" stroke="midnightblue" points="189.5,-389.661 186,-379.661 182.5,-389.662 189.5,-389.661"/>
</g>
<!-- Node3 -->
<g id="node3" class="node"><title>Node3</title>
<g id="a_node3"><a xlink:href="BasicDefinitions_8h.html" target="_top" xlink:title="BasicDefinitions.h">
<polygon fill="white" stroke="black" points="223.176,-59.9 223.176,-82.3 328.824,-82.3 328.824,-59.9 223.176,-59.9"/>
<text text-anchor="middle" x="276" y="-67.5" font-family="-adobe-utopia-medium-i-normal--0-0-0-0-p-0-iso10646-1" font-size="12.00">BasicDefinitions.h</text>
</a>
</g>
</g>
<!-- Node2&#45;&gt;Node3 -->
<g id="edge2" class="edge"><title>Node2&#45;&gt;Node3</title>
<path fill="none" stroke="midnightblue" d="M203.722,-356.837C216.1,-348.648 231.82,-335.984 240,-320.4 264.687,-273.37 250.107,-254.636 253,-201.6 253.566,-191.215 257.454,-187.598 253,-178.2 242.18,-155.367 219.82,-165.033 209,-142.2 204.546,-132.802 204.188,-128.02 209,-118.8 216.074,-105.246 229.076,-94.8253 241.756,-87.3024"/>
<polygon fill="midnightblue" stroke="midnightblue" points="243.749,-90.202 250.843,-82.3335 240.39,-84.0602 243.749,-90.202"/>
</g>
<!-- Node6 -->
<g id="node6" class="node"><title>Node6</title>
<polygon fill="white" stroke="#bfbfbf" points="73.3402,-0.5 73.3402,-22.9 130.66,-22.9 130.66,-0.5 73.3402,-0.5"/>
<text text-anchor="middle" x="102" y="-8.1" font-family="-adobe-utopia-medium-i-normal--0-0-0-0-p-0-iso10646-1" font-size="12.00">iostream</text>
</g>
<!-- Node2&#45;&gt;Node6 -->
<g id="edge31" class="edge"><title>Node2&#45;&gt;Node6</title>
<path fill="none" stroke="midnightblue" d="M131.451,-356.979C76.5674,-343.274 0,-312.929 0,-250.3 0,-250.3 0,-250.3 0,-129.5 0,-84.3642 43.7482,-48.252 73.9425,-28.7031"/>
<polygon fill="midnightblue" stroke="midnightblue" points="76.1774,-31.4345 82.8146,-23.1763 72.4761,-25.493 76.1774,-31.4345"/>
</g>
<!-- Node8 -->
<g id="node8" class="node"><title>Node8</title>
<g id="a_node8"><a xlink:href="Chromosome_8h.html" target="_top" xlink:title="Chromosome.h">
<polygon fill="white" stroke="black" points="141.17,-297.5 141.17,-319.9 230.83,-319.9 230.83,-297.5 141.17,-297.5"/>
<text text-anchor="middle" x="186" y="-305.1" font-family="-adobe-utopia-medium-i-normal--0-0-0-0-p-0-iso10646-1" font-size="12.00">Chromosome.h</text>
</a>
</g>
</g>
<!-- Node2&#45;&gt;Node8 -->
<g id="edge7" class="edge"><title>Node2&#45;&gt;Node8</title>
<path fill="none" stroke="midnightblue" d="M186,-356.838C186,-349.502 186,-339.379 186,-330.393"/>
<polygon fill="midnightblue" stroke="midnightblue" points="189.5,-330.261 186,-320.261 182.5,-330.262 189.5,-330.261"/>
</g>
<!-- Node4 -->
<g id="node4" class="node"><title>Node4</title>
<polygon fill="white" stroke="#bfbfbf" points="535.008,-0.5 535.008,-22.9 580.992,-22.9 580.992,-0.5 535.008,-0.5"/>
<text text-anchor="middle" x="558" y="-8.1" font-family="-adobe-utopia-medium-i-normal--0-0-0-0-p-0-iso10646-1" font-size="12.00">vector</text>
</g>
<!-- Node3&#45;&gt;Node4 -->
<g id="edge3" class="edge"><title>Node3&#45;&gt;Node4</title>
<path fill="none" stroke="midnightblue" d="M326.416,-59.838C383.83,-48.1516 475.994,-29.392 524.948,-19.4275"/>
<polygon fill="midnightblue" stroke="midnightblue" points="525.895,-22.8068 534.996,-17.3824 524.498,-15.9474 525.895,-22.8068"/>
</g>
<!-- Node5 -->
<g id="node5" class="node"><title>Node5</title>
<polygon fill="white" stroke="#bfbfbf" points="393.01,-0.5 393.01,-22.9 444.99,-22.9 444.99,-0.5 393.01,-0.5"/>
<text text-anchor="middle" x="419" y="-8.1" font-family="-adobe-utopia-medium-i-normal--0-0-0-0-p-0-iso10646-1" font-size="12.00">fstream</text>
</g>
<!-- Node3&#45;&gt;Node5 -->
<g id="edge4" class="edge"><title>Node3&#45;&gt;Node5</title>
<path fill="none" stroke="midnightblue" d="M301.566,-59.838C324.503,-50.6309 358.379,-37.0333 383.859,-26.8054"/>
<polygon fill="midnightblue" stroke="midnightblue" points="385.197,-30.0399 393.174,-23.0667 382.59,-23.5437 385.197,-30.0399"/>
</g>
<!-- Node3&#45;&gt;Node6 -->
<g id="edge5" class="edge"><title>Node3&#45;&gt;Node6</title>
<path fill="none" stroke="midnightblue" d="M244.892,-59.838C215.696,-50.2067 171.937,-35.7713 140.541,-25.4142"/>
<polygon fill="midnightblue" stroke="midnightblue" points="141.41,-22.0152 130.816,-22.2061 139.217,-28.6628 141.41,-22.0152"/>
</g>
<!-- Node7 -->
<g id="node7" class="node"><title>Node7</title>
<polygon fill="white" stroke="#bfbfbf" points="249.834,-0.5 249.834,-22.9 302.166,-22.9 302.166,-0.5 249.834,-0.5"/>
<text text-anchor="middle" x="276" y="-8.1" font-family="-adobe-utopia-medium-i-normal--0-0-0-0-p-0-iso10646-1" font-size="12.00">string.h</text>
</g>
<!-- Node3&#45;&gt;Node7 -->
<g id="edge6" class="edge"><title>Node3&#45;&gt;Node7</title>
<path fill="none" stroke="midnightblue" d="M276,-59.838C276,-52.5019 276,-42.3785 276,-33.3932"/>
<polygon fill="midnightblue" stroke="midnightblue" points="279.5,-33.2614 276,-23.2615 272.5,-33.2615 279.5,-33.2614"/>
</g>
<!-- Node8&#45;&gt;Node3 -->
<g id="edge8" class="edge"><title>Node8&#45;&gt;Node3</title>
<path fill="none" stroke="midnightblue" d="M168.141,-297.291C136.335,-277.245 74.421,-230.603 88,-178.2 95.5755,-148.965 97.4822,-137.747 121,-118.8 147.053,-97.8104 182.393,-86.2435 212.749,-79.8745"/>
<polygon fill="midnightblue" stroke="midnightblue" points="213.687,-83.2576 222.832,-77.9078 212.347,-76.3871 213.687,-83.2576"/>
</g>
<!-- Node8&#45;&gt;Node4 -->
<g id="edge30" class="edge"><title>Node8&#45;&gt;Node4</title>
<path fill="none" stroke="midnightblue" d="M230.831,-304.476C378.76,-293.246 842,-253.114 842,-190.9 842,-190.9 842,-190.9 842,-129.5 842,-22.2835 666.732,-11.4399 591.571,-11.719"/>
<polygon fill="midnightblue" stroke="midnightblue" points="591.202,-8.22272 581.241,-11.8308 591.278,-15.2223 591.202,-8.22272"/>
</g>
<!-- Node9 -->
<g id="node9" class="node"><title>Node9</title>
<g id="a_node9"><a xlink:href="MarkerSet_8h.html" target="_top" xlink:title="MarkerSet.h">
<polygon fill="white" stroke="black" points="148.179,-238.1 148.179,-260.5 223.821,-260.5 223.821,-238.1 148.179,-238.1"/>
<text text-anchor="middle" x="186" y="-245.7" font-family="-adobe-utopia-medium-i-normal--0-0-0-0-p-0-iso10646-1" font-size="12.00">MarkerSet.h</text>
</a>
</g>
</g>
<!-- Node8&#45;&gt;Node9 -->
<g id="edge9" class="edge"><title>Node8&#45;&gt;Node9</title>
<path fill="none" stroke="midnightblue" d="M186,-297.438C186,-290.102 186,-279.979 186,-270.993"/>
<polygon fill="midnightblue" stroke="midnightblue" points="189.5,-270.861 186,-260.861 182.5,-270.862 189.5,-270.861"/>
</g>
<!-- Node9&#45;&gt;Node3 -->
<g id="edge10" class="edge"><title>Node9&#45;&gt;Node3</title>
<path fill="none" stroke="midnightblue" d="M150.828,-238.022C119.485,-226.803 80.6221,-206.573 95,-178.2 120.333,-128.208 180.598,-99.9824 224.653,-85.4173"/>
<polygon fill="midnightblue" stroke="midnightblue" points="225.874,-88.702 234.349,-82.3436 223.759,-82.0293 225.874,-88.702"/>
</g>
<!-- Node10 -->
<g id="node10" class="node"><title>Node10</title>
<g id="a_node10"><a xlink:href="SNPs_8h.html" target="_top" xlink:title="SNPs.h">
<polygon fill="white" stroke="black" points="472.164,-178.7 472.164,-201.1 523.836,-201.1 523.836,-178.7 472.164,-178.7"/>
<text text-anchor="middle" x="498" y="-186.3" font-family="-adobe-utopia-medium-i-normal--0-0-0-0-p-0-iso10646-1" font-size="12.00">SNPs.h</text>
</a>
</g>
</g>
<!-- Node9&#45;&gt;Node10 -->
<g id="edge11" class="edge"><title>Node9&#45;&gt;Node10</title>
<path fill="none" stroke="midnightblue" d="M223.945,-241.319C284.613,-230.158 402.646,-208.443 462.037,-197.516"/>
<polygon fill="midnightblue" stroke="midnightblue" points="462.874,-200.921 472.075,-195.669 461.607,-194.037 462.874,-200.921"/>
</g>
<!-- Node17 -->
<g id="node17" class="node"><title>Node17</title>
<polygon fill="white" stroke="#bfbfbf" points="217.664,-119.3 217.664,-141.7 248.336,-141.7 248.336,-119.3 217.664,-119.3"/>
<text text-anchor="middle" x="233" y="-126.9" font-family="-adobe-utopia-medium-i-normal--0-0-0-0-p-0-iso10646-1" font-size="12.00">list</text>
</g>
<!-- Node9&#45;&gt;Node17 -->
<g id="edge29" class="edge"><title>Node9&#45;&gt;Node17</title>
<path fill="none" stroke="midnightblue" d="M211.157,-238.067C226.264,-230.449 244.209,-218.443 253,-201.6 261.454,-185.402 254.012,-165.178 245.914,-150.622"/>
<polygon fill="midnightblue" stroke="midnightblue" points="248.842,-148.702 240.658,-141.973 242.86,-152.337 248.842,-148.702"/>
</g>
<!-- Node18 -->
<g id="node18" class="node"><title>Node18</title>
<polygon fill="white" stroke="#bfbfbf" points="104.171,-178.7 104.171,-201.1 243.829,-201.1 243.829,-178.7 104.171,-178.7"/>
<text text-anchor="middle" x="174" y="-186.3" font-family="-adobe-utopia-medium-i-normal--0-0-0-0-p-0-iso10646-1" font-size="12.00">boost/dynamic_bitset.hpp</text>
</g>
<!-- Node9&#45;&gt;Node18 -->
<g id="edge28" class="edge"><title>Node9&#45;&gt;Node18</title>
<path fill="none" stroke="midnightblue" d="M183.855,-238.038C182.304,-230.621 180.158,-220.356 178.264,-211.297"/>
<polygon fill="midnightblue" stroke="midnightblue" points="181.68,-210.534 176.208,-201.461 174.828,-211.966 181.68,-210.534"/>
</g>
<!-- Node10&#45;&gt;Node3 -->
<g id="edge12" class="edge"><title>Node10&#45;&gt;Node3</title>
<path fill="none" stroke="midnightblue" d="M472.117,-186.246C423.29,-180.726 320.213,-166.459 295,-142.2 281.766,-129.467 277.44,-108.532 276.17,-92.8489"/>
<polygon fill="midnightblue" stroke="midnightblue" points="279.653,-92.3808 275.702,-82.5502 272.66,-92.699 279.653,-92.3808"/>
</g>
<!-- Node10&#45;&gt;Node4 -->
<g id="edge24" class="edge"><title>Node10&#45;&gt;Node4</title>
<path fill="none" stroke="midnightblue" d="M523.9,-188.381C584.479,-186.564 732.594,-178.432 763,-142.2 778.048,-124.269 764.851,-76.1444 748,-59.4 726.113,-37.6517 639.606,-23.2525 591.216,-16.7244"/>
<polygon fill="midnightblue" stroke="midnightblue" points="591.591,-13.2436 581.221,-15.4147 590.681,-20.1843 591.591,-13.2436"/>
</g>
<!-- Node10&#45;&gt;Node5 -->
<g id="edge23" class="edge"><title>Node10&#45;&gt;Node5</title>
<path fill="none" stroke="midnightblue" d="M496.063,-178.656C493.25,-164.764 487.431,-139.329 479,-118.8 465.824,-86.7168 444.926,-52.2252 431.594,-31.5597"/>
<polygon fill="midnightblue" stroke="midnightblue" points="434.46,-29.5474 426.056,-23.0959 428.603,-33.3802 434.46,-29.5474"/>
</g>
<!-- Node11 -->
<g id="node11" class="node"><title>Node11</title>
<g id="a_node11"><a xlink:href="NucleotideMap_8h.html" target="_top" xlink:title="NucleotideMap.h">
<polygon fill="white" stroke="black" points="304.179,-119.3 304.179,-141.7 403.821,-141.7 403.821,-119.3 304.179,-119.3"/>
<text text-anchor="middle" x="354" y="-126.9" font-family="-adobe-utopia-medium-i-normal--0-0-0-0-p-0-iso10646-1" font-size="12.00">NucleotideMap.h</text>
</a>
</g>
</g>
<!-- Node10&#45;&gt;Node11 -->
<g id="edge13" class="edge"><title>Node10&#45;&gt;Node11</title>
<path fill="none" stroke="midnightblue" d="M472.256,-178.638C449.158,-169.431 415.045,-155.833 389.386,-145.605"/>
<polygon fill="midnightblue" stroke="midnightblue" points="390.592,-142.318 380.007,-141.867 388,-148.821 390.592,-142.318"/>
</g>
<!-- Node12 -->
<g id="node12" class="node"><title>Node12</title>
<g id="a_node12"><a xlink:href="SNP_8h.html" target="_top" xlink:title="SNP.h">
<polygon fill="white" stroke="black" points="526.498,-119.3 526.498,-141.7 573.502,-141.7 573.502,-119.3 526.498,-119.3"/>
<text text-anchor="middle" x="550" y="-126.9" font-family="-adobe-utopia-medium-i-normal--0-0-0-0-p-0-iso10646-1" font-size="12.00">SNP.h</text>
</a>
</g>
</g>
<!-- Node10&#45;&gt;Node12 -->
<g id="edge15" class="edge"><title>Node10&#45;&gt;Node12</title>
<path fill="none" stroke="midnightblue" d="M507.297,-178.638C514.6,-170.576 524.952,-159.149 533.635,-149.564"/>
<polygon fill="midnightblue" stroke="midnightblue" points="536.312,-151.822 540.432,-142.061 531.124,-147.123 536.312,-151.822"/>
</g>
<!-- Node13 -->
<g id="node13" class="node"><title>Node13</title>
<polygon fill="white" stroke="#bfbfbf" points="580.334,-59.9 580.334,-82.3 623.666,-82.3 623.666,-59.9 580.334,-59.9"/>
<text text-anchor="middle" x="602" y="-67.5" font-family="-adobe-utopia-medium-i-normal--0-0-0-0-p-0-iso10646-1" font-size="12.00">string</text>
</g>
<!-- Node10&#45;&gt;Node13 -->
<g id="edge25" class="edge"><title>Node10&#45;&gt;Node13</title>
<path fill="none" stroke="midnightblue" d="M523.965,-180.848C542.989,-173.651 568.009,-161.256 583,-142.2 594.058,-128.143 598.695,-108.142 600.632,-93.1002"/>
<polygon fill="midnightblue" stroke="midnightblue" points="604.155,-93.0386 601.648,-82.7445 597.188,-92.3549 604.155,-93.0386"/>
</g>
<!-- Node14 -->
<g id="node14" class="node"><title>Node14</title>
<g id="a_node14"><a xlink:href="SNPPositionMap_8h.html" target="_top" xlink:title="SNPPositionMap.h">
<polygon fill="white" stroke="black" points="629.83,-119.3 629.83,-141.7 738.17,-141.7 738.17,-119.3 629.83,-119.3"/>
<text text-anchor="middle" x="684" y="-126.9" font-family="-adobe-utopia-medium-i-normal--0-0-0-0-p-0-iso10646-1" font-size="12.00">SNPPositionMap.h</text>
</a>
</g>
</g>
<!-- Node10&#45;&gt;Node14 -->
<g id="edge19" class="edge"><title>Node10&#45;&gt;Node14</title>
<path fill="none" stroke="midnightblue" d="M523.863,-180.919C554.155,-171.571 604.795,-155.943 641.021,-144.763"/>
<polygon fill="midnightblue" stroke="midnightblue" points="642.304,-148.03 650.827,-141.737 640.24,-141.342 642.304,-148.03"/>
</g>
<!-- Node15 -->
<g id="node15" class="node"><title>Node15</title>
<polygon fill="white" stroke="#bfbfbf" points="702.669,-59.9 702.669,-82.3 739.331,-82.3 739.331,-59.9 702.669,-59.9"/>
<text text-anchor="middle" x="721" y="-67.5" font-family="-adobe-utopia-medium-i-normal--0-0-0-0-p-0-iso10646-1" font-size="12.00">map</text>
</g>
<!-- Node10&#45;&gt;Node15 -->
<g id="edge26" class="edge"><title>Node10&#45;&gt;Node15</title>
<path fill="none" stroke="midnightblue" d="M524.065,-188.051C582.052,-185.558 718.842,-176.131 747,-142.2 759.334,-127.337 748.547,-106.07 737.349,-90.8639"/>
<polygon fill="midnightblue" stroke="midnightblue" points="739.835,-88.3667 730.88,-82.7057 734.35,-92.716 739.835,-88.3667"/>
</g>
<!-- Node16 -->
<g id="node16" class="node"><title>Node16</title>
<polygon fill="white" stroke="#bfbfbf" points="421.502,-119.3 421.502,-141.7 470.498,-141.7 470.498,-119.3 421.502,-119.3"/>
<text text-anchor="middle" x="446" y="-126.9" font-family="-adobe-utopia-medium-i-normal--0-0-0-0-p-0-iso10646-1" font-size="12.00">math.h</text>
</g>
<!-- Node10&#45;&gt;Node16 -->
<g id="edge22" class="edge"><title>Node10&#45;&gt;Node16</title>
<path fill="none" stroke="midnightblue" d="M488.703,-178.638C481.4,-170.576 471.048,-159.149 462.365,-149.564"/>
<polygon fill="midnightblue" stroke="midnightblue" points="464.876,-147.123 455.568,-142.061 459.688,-151.822 464.876,-147.123"/>
</g>
<!-- Node10&#45;&gt;Node17 -->
<g id="edge27" class="edge"><title>Node10&#45;&gt;Node17</title>
<path fill="none" stroke="midnightblue" d="M471.841,-185.11C427.965,-178.446 336.98,-163.308 262,-142.2 260.751,-141.848 259.478,-141.467 258.199,-141.066"/>
<polygon fill="midnightblue" stroke="midnightblue" points="259.098,-137.674 248.503,-137.734 256.823,-144.294 259.098,-137.674"/>
</g>
<!-- Node11&#45;&gt;Node3 -->
<g id="edge14" class="edge"><title>Node11&#45;&gt;Node3</title>
<path fill="none" stroke="midnightblue" d="M340.055,-119.238C328.481,-110.72 311.8,-98.4453 298.363,-88.5568"/>
<polygon fill="midnightblue" stroke="midnightblue" points="300.216,-85.5748 290.087,-82.4667 296.067,-91.2127 300.216,-85.5748"/>
</g>
<!-- Node12&#45;&gt;Node3 -->
<g id="edge16" class="edge"><title>Node12&#45;&gt;Node3</title>
<path fill="none" stroke="midnightblue" d="M526.164,-124.507C483.886,-115.65 394.613,-96.9481 334.959,-84.4513"/>
<polygon fill="midnightblue" stroke="midnightblue" points="335.424,-80.9727 324.918,-82.3479 333.988,-87.824 335.424,-80.9727"/>
</g>
<!-- Node12&#45;&gt;Node4 -->
<g id="edge18" class="edge"><title>Node12&#45;&gt;Node4</title>
<path fill="none" stroke="midnightblue" d="M550.71,-119.135C552.023,-99.9622 554.854,-58.6276 556.576,-33.4848"/>
<polygon fill="midnightblue" stroke="midnightblue" points="560.089,-33.4257 557.28,-23.2099 553.105,-32.9473 560.089,-33.4257"/>
</g>
<!-- Node12&#45;&gt;Node13 -->
<g id="edge17" class="edge"><title>Node12&#45;&gt;Node13</title>
<path fill="none" stroke="midnightblue" d="M559.297,-119.238C566.6,-111.176 576.952,-99.7488 585.635,-90.1645"/>
<polygon fill="midnightblue" stroke="midnightblue" points="588.312,-92.4224 592.432,-82.6615 583.124,-87.7227 588.312,-92.4224"/>
</g>
<!-- Node14&#45;&gt;Node13 -->
<g id="edge21" class="edge"><title>Node14&#45;&gt;Node13</title>
<path fill="none" stroke="midnightblue" d="M669.34,-119.238C657.056,-110.639 639.302,-98.2112 625.107,-88.2749"/>
<polygon fill="midnightblue" stroke="midnightblue" points="627.009,-85.334 616.81,-82.4667 622.995,-91.0686 627.009,-85.334"/>
</g>
<!-- Node14&#45;&gt;Node15 -->
<g id="edge20" class="edge"><title>Node14&#45;&gt;Node15</title>
<path fill="none" stroke="midnightblue" d="M690.615,-119.238C695.604,-111.499 702.592,-100.658 708.609,-91.3231"/>
<polygon fill="midnightblue" stroke="midnightblue" points="711.716,-92.9629 714.192,-82.6615 705.832,-89.1703 711.716,-92.9629"/>
</g>
</g>
</svg>
