<?xml version="1.0" encoding="UTF-8" standalone="no"?>
<!DOCTYPE svg PUBLIC "-//W3C//DTD SVG 1.1//EN"
 "http://www.w3.org/Graphics/SVG/1.1/DTD/svg11.dtd">
<!-- Generated by graphviz version 2.38.0 (20140413.2041)
 -->
<!-- Title: Chromosome.h Pages: 1 -->
<svg width="654pt" height="328pt"
 viewBox="0.00 0.00 653.78 328.40" xmlns="http://www.w3.org/2000/svg" xmlns:xlink="http://www.w3.org/1999/xlink">
<g id="graph0" class="graph" transform="scale(1 1) rotate(0) translate(4 324.4)">
<title>Chromosome.h</title>
<polygon fill="white" stroke="none" points="-4,4 -4,-324.4 649.781,-324.4 649.781,4 -4,4"/>
<!-- Node1 -->
<g id="node1" class="node"><title>Node1</title>
<polygon fill="#bfbfbf" stroke="black" points="229.951,-297.5 229.951,-319.9 319.611,-319.9 319.611,-297.5 229.951,-297.5"/>
<text text-anchor="middle" x="274.781" y="-305.1" font-family="-adobe-utopia-medium-i-normal--0-0-0-0-p-0-iso10646-1" font-size="12.00">Chromosome.h</text>
</g>
<!-- Node2 -->
<g id="node2" class="node"><title>Node2</title>
<g id="a_node2"><a xlink:href="BasicDefinitions_8h.html" target="_top" xlink:title="BasicDefinitions.h">
<polygon fill="white" stroke="black" points="96.9568,-59.9 96.9568,-82.3 202.605,-82.3 202.605,-59.9 96.9568,-59.9"/>
<text text-anchor="middle" x="149.781" y="-67.5" font-family="-adobe-utopia-medium-i-normal--0-0-0-0-p-0-iso10646-1" font-size="12.00">BasicDefinitions.h</text>
</a>
</g>
</g>
<!-- Node1&#45;&gt;Node2 -->
<g id="edge1" class="edge"><title>Node1&#45;&gt;Node2</title>
<path fill="none" stroke="midnightblue" d="M229.715,-299.066C160.164,-282.789 31.7471,-239.992 3.78099,-142.2 0.921466,-132.201 -2.35123,-127.2 3.78099,-118.8 22.7427,-92.8268 56.3341,-80.9685 86.5189,-75.687"/>
<polygon fill="midnightblue" stroke="midnightblue" points="87.2469,-79.1162 96.5989,-74.1371 86.1831,-72.1975 87.2469,-79.1162"/>
</g>
<!-- Node3 -->
<g id="node3" class="node"><title>Node3</title>
<polygon fill="white" stroke="#bfbfbf" points="413.789,-0.5 413.789,-22.9 459.773,-22.9 459.773,-0.5 413.789,-0.5"/>
<text text-anchor="middle" x="436.781" y="-8.1" font-family="-adobe-utopia-medium-i-normal--0-0-0-0-p-0-iso10646-1" font-size="12.00">vector</text>
</g>
<!-- Node1&#45;&gt;Node3 -->
<g id="edge27" class="edge"><title>Node1&#45;&gt;Node3</title>
<path fill="none" stroke="midnightblue" d="M319.902,-303.114C418.774,-291.815 645.781,-258.511 645.781,-190.9 645.781,-190.9 645.781,-190.9 645.781,-129.5 645.781,-49.8994 528.828,-24.0304 469.896,-16.048"/>
<polygon fill="midnightblue" stroke="midnightblue" points="470.305,-12.572 459.946,-14.7959 469.431,-19.5172 470.305,-12.572"/>
</g>
<!-- Node7 -->
<g id="node7" class="node"><title>Node7</title>
<g id="a_node7"><a xlink:href="MarkerSet_8h.html" target="_top" xlink:title="MarkerSet.h">
<polygon fill="white" stroke="black" points="236.96,-238.1 236.96,-260.5 312.602,-260.5 312.602,-238.1 236.96,-238.1"/>
<text text-anchor="middle" x="274.781" y="-245.7" font-family="-adobe-utopia-medium-i-normal--0-0-0-0-p-0-iso10646-1" font-size="12.00">MarkerSet.h</text>
</a>
</g>
</g>
<!-- Node1&#45;&gt;Node7 -->
<g id="edge6" class="edge"><title>Node1&#45;&gt;Node7</title>
<path fill="none" stroke="midnightblue" d="M274.781,-297.438C274.781,-290.102 274.781,-279.979 274.781,-270.993"/>
<polygon fill="midnightblue" stroke="midnightblue" points="278.281,-270.861 274.781,-260.861 271.281,-270.862 278.281,-270.861"/>
</g>
<!-- Node2&#45;&gt;Node3 -->
<g id="edge2" class="edge"><title>Node2&#45;&gt;Node3</title>
<path fill="none" stroke="midnightblue" d="M201.091,-59.838C259.796,-48.097 354.198,-29.2165 403.839,-19.2884"/>
<polygon fill="midnightblue" stroke="midnightblue" points="404.604,-22.7049 413.723,-17.3116 403.231,-15.8408 404.604,-22.7049"/>
</g>
<!-- Node4 -->
<g id="node4" class="node"><title>Node4</title>
<polygon fill="white" stroke="#bfbfbf" points="220.791,-0.5 220.791,-22.9 272.771,-22.9 272.771,-0.5 220.791,-0.5"/>
<text text-anchor="middle" x="246.781" y="-8.1" font-family="-adobe-utopia-medium-i-normal--0-0-0-0-p-0-iso10646-1" font-size="12.00">fstream</text>
</g>
<!-- Node2&#45;&gt;Node4 -->
<g id="edge3" class="edge"><title>Node2&#45;&gt;Node4</title>
<path fill="none" stroke="midnightblue" d="M167.123,-59.838C181.928,-51.077 203.451,-38.3408 220.393,-28.3152"/>
<polygon fill="midnightblue" stroke="midnightblue" points="222.439,-31.1715 229.262,-23.0667 218.874,-25.1472 222.439,-31.1715"/>
</g>
<!-- Node5 -->
<g id="node5" class="node"><title>Node5</title>
<polygon fill="white" stroke="#bfbfbf" points="133.121,-0.5 133.121,-22.9 190.441,-22.9 190.441,-0.5 133.121,-0.5"/>
<text text-anchor="middle" x="161.781" y="-8.1" font-family="-adobe-utopia-medium-i-normal--0-0-0-0-p-0-iso10646-1" font-size="12.00">iostream</text>
</g>
<!-- Node2&#45;&gt;Node5 -->
<g id="edge4" class="edge"><title>Node2&#45;&gt;Node5</title>
<path fill="none" stroke="midnightblue" d="M151.926,-59.838C153.477,-52.4213 155.623,-42.1557 157.517,-33.0974"/>
<polygon fill="midnightblue" stroke="midnightblue" points="160.953,-33.7661 159.573,-23.2615 154.101,-32.3336 160.953,-33.7661"/>
</g>
<!-- Node6 -->
<g id="node6" class="node"><title>Node6</title>
<polygon fill="white" stroke="#bfbfbf" points="62.6154,-0.5 62.6154,-22.9 114.947,-22.9 114.947,-0.5 62.6154,-0.5"/>
<text text-anchor="middle" x="88.781" y="-8.1" font-family="-adobe-utopia-medium-i-normal--0-0-0-0-p-0-iso10646-1" font-size="12.00">string.h</text>
</g>
<!-- Node2&#45;&gt;Node6 -->
<g id="edge5" class="edge"><title>Node2&#45;&gt;Node6</title>
<path fill="none" stroke="midnightblue" d="M138.875,-59.838C130.137,-51.6151 117.677,-39.8904 107.37,-30.1917"/>
<polygon fill="midnightblue" stroke="midnightblue" points="109.686,-27.5655 100.005,-23.2615 104.889,-32.6634 109.686,-27.5655"/>
</g>
<!-- Node7&#45;&gt;Node2 -->
<g id="edge7" class="edge"><title>Node7&#45;&gt;Node2</title>
<path fill="none" stroke="midnightblue" d="M236.72,-246.036C176.574,-240.138 61.4002,-218.872 12.781,-142.2 -8.54684,-108.566 41.4118,-90.3338 86.8713,-80.9703"/>
<polygon fill="midnightblue" stroke="midnightblue" points="87.6246,-84.3895 96.7755,-79.0498 86.292,-77.5175 87.6246,-84.3895"/>
</g>
<!-- Node8 -->
<g id="node8" class="node"><title>Node8</title>
<g id="a_node8"><a xlink:href="SNPs_8h.html" target="_top" xlink:title="SNPs.h">
<polygon fill="white" stroke="black" points="305.945,-178.7 305.945,-201.1 357.617,-201.1 357.617,-178.7 305.945,-178.7"/>
<text text-anchor="middle" x="331.781" y="-186.3" font-family="-adobe-utopia-medium-i-normal--0-0-0-0-p-0-iso10646-1" font-size="12.00">SNPs.h</text>
</a>
</g>
</g>
<!-- Node7&#45;&gt;Node8 -->
<g id="edge8" class="edge"><title>Node7&#45;&gt;Node8</title>
<path fill="none" stroke="midnightblue" d="M284.971,-238.038C293.057,-229.896 304.552,-218.32 314.127,-208.678"/>
<polygon fill="midnightblue" stroke="midnightblue" points="316.73,-211.023 321.293,-201.461 311.763,-206.091 316.73,-211.023"/>
</g>
<!-- Node15 -->
<g id="node15" class="node"><title>Node15</title>
<polygon fill="white" stroke="#bfbfbf" points="587.445,-119.3 587.445,-141.7 618.117,-141.7 618.117,-119.3 587.445,-119.3"/>
<text text-anchor="middle" x="602.781" y="-126.9" font-family="-adobe-utopia-medium-i-normal--0-0-0-0-p-0-iso10646-1" font-size="12.00">list</text>
</g>
<!-- Node7&#45;&gt;Node15 -->
<g id="edge26" class="edge"><title>Node7&#45;&gt;Node15</title>
<path fill="none" stroke="midnightblue" d="M304.109,-238.03C357.721,-219.224 475.114,-177.907 573.781,-142.2 575.169,-141.698 576.593,-141.18 578.03,-140.656"/>
<polygon fill="midnightblue" stroke="midnightblue" points="579.262,-143.932 587.443,-137.2 576.849,-137.361 579.262,-143.932"/>
</g>
<!-- Node16 -->
<g id="node16" class="node"><title>Node16</title>
<polygon fill="white" stroke="#bfbfbf" points="147.952,-178.7 147.952,-201.1 287.61,-201.1 287.61,-178.7 147.952,-178.7"/>
<text text-anchor="middle" x="217.781" y="-186.3" font-family="-adobe-utopia-medium-i-normal--0-0-0-0-p-0-iso10646-1" font-size="12.00">boost/dynamic_bitset.hpp</text>
</g>
<!-- Node7&#45;&gt;Node16 -->
<g id="edge25" class="edge"><title>Node7&#45;&gt;Node16</title>
<path fill="none" stroke="midnightblue" d="M264.591,-238.038C256.505,-229.896 245.01,-218.32 235.435,-208.678"/>
<polygon fill="midnightblue" stroke="midnightblue" points="237.799,-206.091 228.269,-201.461 232.832,-211.023 237.799,-206.091"/>
</g>
<!-- Node8&#45;&gt;Node2 -->
<g id="edge9" class="edge"><title>Node8&#45;&gt;Node2</title>
<path fill="none" stroke="midnightblue" d="M305.807,-180.888C302.767,-179.972 299.708,-179.059 296.781,-178.2 240.076,-161.56 210.37,-184.185 168.781,-142.2 155.857,-129.152 151.488,-108.261 150.124,-92.6737"/>
<polygon fill="midnightblue" stroke="midnightblue" points="153.607,-92.2503 149.582,-82.4497 146.616,-92.621 153.607,-92.2503"/>
</g>
<!-- Node8&#45;&gt;Node3 -->
<g id="edge21" class="edge"><title>Node8&#45;&gt;Node3</title>
<path fill="none" stroke="midnightblue" d="M357.995,-184.19C407.079,-175.11 508.817,-154.958 518.781,-142.2 532.269,-124.929 516.548,-77.8745 503.781,-59.4 494.83,-46.4471 481.037,-35.9444 468.288,-28.2034"/>
<polygon fill="midnightblue" stroke="midnightblue" points="469.693,-24.9755 459.273,-23.0593 466.224,-31.0554 469.693,-24.9755"/>
</g>
<!-- Node8&#45;&gt;Node4 -->
<g id="edge20" class="edge"><title>Node8&#45;&gt;Node4</title>
<path fill="none" stroke="midnightblue" d="M312.585,-178.603C299.325,-170.478 282.404,-157.906 272.781,-142.2 251.816,-107.982 247.364,-60.031 246.646,-33.1127"/>
<polygon fill="midnightblue" stroke="midnightblue" points="250.144,-32.9245 246.53,-22.9653 243.145,-33.0049 250.144,-32.9245"/>
</g>
<!-- Node9 -->
<g id="node9" class="node"><title>Node9</title>
<g id="a_node9"><a xlink:href="NucleotideMap_8h.html" target="_top" xlink:title="NucleotideMap.h">
<polygon fill="white" stroke="black" points="21.9604,-119.3 21.9604,-141.7 121.602,-141.7 121.602,-119.3 21.9604,-119.3"/>
<text text-anchor="middle" x="71.781" y="-126.9" font-family="-adobe-utopia-medium-i-normal--0-0-0-0-p-0-iso10646-1" font-size="12.00">NucleotideMap.h</text>
</a>
</g>
</g>
<!-- Node8&#45;&gt;Node9 -->
<g id="edge10" class="edge"><title>Node8&#45;&gt;Node9</title>
<path fill="none" stroke="midnightblue" d="M305.862,-180.686C302.813,-179.806 299.736,-178.957 296.781,-178.2 241.268,-163.986 177.217,-151.02 131.685,-142.377"/>
<polygon fill="midnightblue" stroke="midnightblue" points="132.159,-138.905 121.684,-140.492 130.862,-145.784 132.159,-138.905"/>
</g>
<!-- Node10 -->
<g id="node10" class="node"><title>Node10</title>
<g id="a_node10"><a xlink:href="SNP_8h.html" target="_top" xlink:title="SNP.h">
<polygon fill="white" stroke="black" points="282.279,-119.3 282.279,-141.7 329.283,-141.7 329.283,-119.3 282.279,-119.3"/>
<text text-anchor="middle" x="305.781" y="-126.9" font-family="-adobe-utopia-medium-i-normal--0-0-0-0-p-0-iso10646-1" font-size="12.00">SNP.h</text>
</a>
</g>
</g>
<!-- Node8&#45;&gt;Node10 -->
<g id="edge12" class="edge"><title>Node8&#45;&gt;Node10</title>
<path fill="none" stroke="midnightblue" d="M327.133,-178.638C323.7,-171.06 318.921,-160.508 314.753,-151.308"/>
<polygon fill="midnightblue" stroke="midnightblue" points="317.879,-149.726 310.565,-142.061 311.503,-152.615 317.879,-149.726"/>
</g>
<!-- Node11 -->
<g id="node11" class="node"><title>Node11</title>
<polygon fill="white" stroke="#bfbfbf" points="336.115,-59.9 336.115,-82.3 379.447,-82.3 379.447,-59.9 336.115,-59.9"/>
<text text-anchor="middle" x="357.781" y="-67.5" font-family="-adobe-utopia-medium-i-normal--0-0-0-0-p-0-iso10646-1" font-size="12.00">string</text>
</g>
<!-- Node8&#45;&gt;Node11 -->
<g id="edge22" class="edge"><title>Node8&#45;&gt;Node11</title>
<path fill="none" stroke="midnightblue" d="M334.088,-178.535C338.375,-159.276 347.64,-117.655 353.23,-92.5461"/>
<polygon fill="midnightblue" stroke="midnightblue" points="356.685,-93.1315 355.441,-82.6099 349.852,-91.6105 356.685,-93.1315"/>
</g>
<!-- Node12 -->
<g id="node12" class="node"><title>Node12</title>
<g id="a_node12"><a xlink:href="SNPPositionMap_8h.html" target="_top" xlink:title="SNPPositionMap.h">
<polygon fill="white" stroke="black" points="385.611,-119.3 385.611,-141.7 493.951,-141.7 493.951,-119.3 385.611,-119.3"/>
<text text-anchor="middle" x="439.781" y="-126.9" font-family="-adobe-utopia-medium-i-normal--0-0-0-0-p-0-iso10646-1" font-size="12.00">SNPPositionMap.h</text>
</a>
</g>
</g>
<!-- Node8&#45;&gt;Node12 -->
<g id="edge16" class="edge"><title>Node8&#45;&gt;Node12</title>
<path fill="none" stroke="midnightblue" d="M351.089,-178.638C367.879,-169.715 392.427,-156.668 411.443,-146.561"/>
<polygon fill="midnightblue" stroke="midnightblue" points="413.088,-149.65 420.276,-141.867 409.803,-143.469 413.088,-149.65"/>
</g>
<!-- Node13 -->
<g id="node13" class="node"><title>Node13</title>
<polygon fill="white" stroke="#bfbfbf" points="458.45,-59.9 458.45,-82.3 495.112,-82.3 495.112,-59.9 458.45,-59.9"/>
<text text-anchor="middle" x="476.781" y="-67.5" font-family="-adobe-utopia-medium-i-normal--0-0-0-0-p-0-iso10646-1" font-size="12.00">map</text>
</g>
<!-- Node8&#45;&gt;Node13 -->
<g id="edge23" class="edge"><title>Node8&#45;&gt;Node13</title>
<path fill="none" stroke="midnightblue" d="M357.851,-185.632C401.233,-179.6 485.226,-165.192 502.781,-142.2 514.502,-126.849 503.814,-105.661 492.807,-90.607"/>
<polygon fill="midnightblue" stroke="midnightblue" points="495.393,-88.2338 486.456,-82.543 489.894,-92.5648 495.393,-88.2338"/>
</g>
<!-- Node14 -->
<g id="node14" class="node"><title>Node14</title>
<polygon fill="white" stroke="#bfbfbf" points="177.283,-119.3 177.283,-141.7 226.279,-141.7 226.279,-119.3 177.283,-119.3"/>
<text text-anchor="middle" x="201.781" y="-126.9" font-family="-adobe-utopia-medium-i-normal--0-0-0-0-p-0-iso10646-1" font-size="12.00">math.h</text>
</g>
<!-- Node8&#45;&gt;Node14 -->
<g id="edge19" class="edge"><title>Node8&#45;&gt;Node14</title>
<path fill="none" stroke="midnightblue" d="M308.54,-178.638C287.963,-169.553 257.704,-156.192 234.649,-146.013"/>
<polygon fill="midnightblue" stroke="midnightblue" points="235.821,-142.704 225.259,-141.867 232.994,-149.108 235.821,-142.704"/>
</g>
<!-- Node8&#45;&gt;Node15 -->
<g id="edge24" class="edge"><title>Node8&#45;&gt;Node15</title>
<path fill="none" stroke="midnightblue" d="M357.89,-185.289C402.606,-178.789 496.502,-163.758 573.781,-142.2 575.031,-141.851 576.304,-141.473 577.584,-141.074"/>
<polygon fill="midnightblue" stroke="midnightblue" points="578.958,-144.303 587.281,-137.748 576.687,-137.681 578.958,-144.303"/>
</g>
<!-- Node9&#45;&gt;Node2 -->
<g id="edge11" class="edge"><title>Node9&#45;&gt;Node2</title>
<path fill="none" stroke="midnightblue" d="M85.7258,-119.238C97.3003,-110.72 113.981,-98.4453 127.418,-88.5568"/>
<polygon fill="midnightblue" stroke="midnightblue" points="129.714,-91.2127 135.694,-82.4667 125.565,-85.5748 129.714,-91.2127"/>
</g>
<!-- Node10&#45;&gt;Node2 -->
<g id="edge13" class="edge"><title>Node10&#45;&gt;Node2</title>
<path fill="none" stroke="midnightblue" d="M282.088,-120.782C256.894,-111.512 216.692,-96.7199 187.209,-85.8715"/>
<polygon fill="midnightblue" stroke="midnightblue" points="188.252,-82.5258 177.658,-82.3573 185.834,-89.0952 188.252,-82.5258"/>
</g>
<!-- Node10&#45;&gt;Node3 -->
<g id="edge15" class="edge"><title>Node10&#45;&gt;Node3</title>
<path fill="none" stroke="midnightblue" d="M306.202,-119.138C307.342,-104.173 311.528,-76.4379 326.781,-59.4 346.76,-37.0832 379.19,-25.0849 403.673,-18.8646"/>
<polygon fill="midnightblue" stroke="midnightblue" points="404.679,-22.2239 413.62,-16.5393 403.086,-15.4077 404.679,-22.2239"/>
</g>
<!-- Node10&#45;&gt;Node11 -->
<g id="edge14" class="edge"><title>Node10&#45;&gt;Node11</title>
<path fill="none" stroke="midnightblue" d="M315.078,-119.238C322.381,-111.176 332.733,-99.7488 341.416,-90.1645"/>
<polygon fill="midnightblue" stroke="midnightblue" points="344.093,-92.4224 348.213,-82.6615 338.905,-87.7227 344.093,-92.4224"/>
</g>
<!-- Node12&#45;&gt;Node11 -->
<g id="edge18" class="edge"><title>Node12&#45;&gt;Node11</title>
<path fill="none" stroke="midnightblue" d="M425.121,-119.238C412.837,-110.639 395.083,-98.2112 380.888,-88.2749"/>
<polygon fill="midnightblue" stroke="midnightblue" points="382.79,-85.334 372.591,-82.4667 378.776,-91.0686 382.79,-85.334"/>
</g>
<!-- Node12&#45;&gt;Node13 -->
<g id="edge17" class="edge"><title>Node12&#45;&gt;Node13</title>
<path fill="none" stroke="midnightblue" d="M446.396,-119.238C451.385,-111.499 458.373,-100.658 464.39,-91.3231"/>
<polygon fill="midnightblue" stroke="midnightblue" points="467.497,-92.9629 469.973,-82.6615 461.613,-89.1703 467.497,-92.9629"/>
</g>
</g>
</svg>
