<?xml version="1.0" encoding="UTF-8" standalone="no"?>
<!DOCTYPE svg PUBLIC "-//W3C//DTD SVG 1.1//EN"
 "http://www.w3.org/Graphics/SVG/1.1/DTD/svg11.dtd">
<!-- Generated by graphviz version 2.38.0 (20140413.2041)
 -->
<!-- Title: PEDIndividualsExtractor::readMarkerSet Pages: 1 -->
<svg width="350pt" height="72pt"
 viewBox="0.00 0.00 349.94 72.40" xmlns="http://www.w3.org/2000/svg" xmlns:xlink="http://www.w3.org/1999/xlink">
<g id="graph0" class="graph" transform="scale(1 1) rotate(0) translate(4 68.4)">
<title>PEDIndividualsExtractor::readMarkerSet</title>
<polygon fill="white" stroke="none" points="-4,4 -4,-68.4 345.941,-68.4 345.941,4 -4,4"/>
<!-- Node1 -->
<g id="node1" class="node"><title>Node1</title>
<polygon fill="#bfbfbf" stroke="black" points="0,-13.3 0,-50.1 137.301,-50.1 137.301,-13.3 0,-13.3"/>
<text text-anchor="start" x="8" y="-35.3" font-family="-adobe-utopia-medium-i-normal--0-0-0-0-p-0-iso10646-1" font-size="12.00">PEDIndividualsExtractor</text>
<text text-anchor="middle" x="68.6504" y="-20.9" font-family="-adobe-utopia-medium-i-normal--0-0-0-0-p-0-iso10646-1" font-size="12.00">::readMarkerSet</text>
</g>
<!-- Node2 -->
<g id="node2" class="node"><title>Node2</title>
<g id="a_node2"><a xlink:href="classSNPs.html#ab60d36a9d490c8d5d155134170ffd2dc" target="_top" xlink:title="SNPs::currentSize">
<polygon fill="white" stroke="black" points="205.632,-41.5 205.632,-63.9 309.61,-63.9 309.61,-41.5 205.632,-41.5"/>
<text text-anchor="middle" x="257.621" y="-49.1" font-family="-adobe-utopia-medium-i-normal--0-0-0-0-p-0-iso10646-1" font-size="12.00">SNPs::currentSize</text>
</a>
</g>
</g>
<!-- Node1&#45;&gt;Node2 -->
<g id="edge1" class="edge"><title>Node1&#45;&gt;Node2</title>
<path fill="none" stroke="midnightblue" d="M137.415,-39.3112C156.374,-41.4405 176.862,-43.7417 195.417,-45.8257"/>
<polygon fill="midnightblue" stroke="midnightblue" points="195.176,-49.3206 205.504,-46.9587 195.957,-42.3643 195.176,-49.3206"/>
</g>
<!-- Node3 -->
<g id="node3" class="node"><title>Node3</title>
<g id="a_node3"><a xlink:href="classSNPs.html#a6a0ef395586fe655cc9a0f90c816dfc7" target="_top" xlink:title="SNPs::mapNucleotideToBinary">
<polygon fill="white" stroke="black" points="173.301,-0.5 173.301,-22.9 341.941,-22.9 341.941,-0.5 173.301,-0.5"/>
<text text-anchor="middle" x="257.621" y="-8.1" font-family="-adobe-utopia-medium-i-normal--0-0-0-0-p-0-iso10646-1" font-size="12.00">SNPs::mapNucleotideToBinary</text>
</a>
</g>
</g>
<!-- Node1&#45;&gt;Node3 -->
<g id="edge2" class="edge"><title>Node1&#45;&gt;Node3</title>
<path fill="none" stroke="midnightblue" d="M137.415,-24.4513C145.753,-23.5594 154.387,-22.6359 163.022,-21.7122"/>
<polygon fill="midnightblue" stroke="midnightblue" points="163.57,-25.1735 173.141,-20.6297 162.826,-18.2132 163.57,-25.1735"/>
</g>
</g>
</svg>
