<?xml version="1.0" encoding="UTF-8" standalone="no"?>
<!DOCTYPE svg PUBLIC "-//W3C//DTD SVG 1.1//EN"
 "http://www.w3.org/Graphics/SVG/1.1/DTD/svg11.dtd">
<!-- Generated by graphviz version 2.38.0 (20140413.2041)
 -->
<!-- Title: ChromosomePair Pages: 1 -->
<svg width="136pt" height="193pt"
 viewBox="0.00 0.00 135.56 193.40" xmlns="http://www.w3.org/2000/svg" xmlns:xlink="http://www.w3.org/1999/xlink">
<g id="graph0" class="graph" transform="scale(1 1) rotate(0) translate(4 189.4)">
<title>ChromosomePair</title>
<polygon fill="white" stroke="none" points="-4,4 -4,-189.4 131.564,-189.4 131.564,4 -4,4"/>
<!-- Node1 -->
<g id="node1" class="node"><title>Node1</title>
<polygon fill="#bfbfbf" stroke="black" points="12.5856,-0.5 12.5856,-22.9 112.574,-22.9 112.574,-0.5 12.5856,-0.5"/>
<text text-anchor="middle" x="62.5796" y="-8.1" font-family="-adobe-utopia-medium-i-normal--0-0-0-0-p-0-iso10646-1" font-size="12.00">ChromosomePair</text>
</g>
<!-- Node2 -->
<g id="node2" class="node"><title>Node2</title>
<g id="a_node2"><a xlink:href="classChromosome.html" target="_top" xlink:title="Chromosome">
<polygon fill="white" stroke="black" points="22.2492,-88.7 22.2492,-111.1 102.91,-111.1 102.91,-88.7 22.2492,-88.7"/>
<text text-anchor="middle" x="62.5796" y="-96.3" font-family="-adobe-utopia-medium-i-normal--0-0-0-0-p-0-iso10646-1" font-size="12.00">Chromosome</text>
</a>
</g>
</g>
<!-- Node2&#45;&gt;Node1 -->
<g id="edge1" class="edge"><title>Node2&#45;&gt;Node1</title>
<path fill="none" stroke="#9a32cd" stroke-dasharray="5,2" d="M62.5796,-78.3662C62.5796,-60.8886 62.5796,-36.5154 62.5796,-22.9135"/>
<polygon fill="#9a32cd" stroke="#9a32cd" points="59.0797,-78.6732 62.5796,-88.6732 66.0797,-78.6733 59.0797,-78.6732"/>
<text text-anchor="middle" x="82.4078" y="-59.4" font-family="-adobe-utopia-medium-i-normal--0-0-0-0-p-0-iso10646-1" font-size="12.00"> chrom1</text>
<text text-anchor="middle" x="82.4078" y="-45" font-family="-adobe-utopia-medium-i-normal--0-0-0-0-p-0-iso10646-1" font-size="12.00">chrom2</text>
</g>
<!-- Node3 -->
<g id="node3" class="node"><title>Node3</title>
<polygon fill="white" stroke="#bfbfbf" points="7.10543e-15,-162.5 7.10543e-15,-184.9 125.159,-184.9 125.159,-162.5 7.10543e-15,-162.5"/>
<text text-anchor="middle" x="62.5796" y="-170.1" font-family="-adobe-utopia-medium-i-normal--0-0-0-0-p-0-iso10646-1" font-size="12.00">vector&lt; MarkerSet * &gt;</text>
</g>
<!-- Node3&#45;&gt;Node2 -->
<g id="edge2" class="edge"><title>Node3&#45;&gt;Node2</title>
<path fill="none" stroke="#9a32cd" stroke-dasharray="5,2" d="M62.5796,-152.192C62.5796,-138.777 62.5796,-121.824 62.5796,-111.168"/>
<polygon fill="#9a32cd" stroke="#9a32cd" points="59.0797,-152.413 62.5796,-162.413 66.0797,-152.413 59.0797,-152.413"/>
<text text-anchor="middle" x="95.072" y="-133.2" font-family="-adobe-utopia-medium-i-normal--0-0-0-0-p-0-iso10646-1" font-size="12.00"> chromosome</text>
</g>
</g>
</svg>
