<?xml version="1.0" encoding="UTF-8" standalone="no"?>
<!DOCTYPE svg PUBLIC "-//W3C//DTD SVG 1.1//EN"
 "http://www.w3.org/Graphics/SVG/1.1/DTD/svg11.dtd">
<!-- Generated by graphviz version 2.38.0 (20140413.2041)
 -->
<!-- Title: MatchFactory::hash Pages: 1 -->
<svg width="936pt" height="46pt"
 viewBox="0.00 0.00 936.49 45.80" xmlns="http://www.w3.org/2000/svg" xmlns:xlink="http://www.w3.org/1999/xlink">
<g id="graph0" class="graph" transform="scale(1 1) rotate(0) translate(4 41.8)">
<title>MatchFactory::hash</title>
<polygon fill="white" stroke="none" points="-4,4 -4,-41.8 932.494,-41.8 932.494,4 -4,4"/>
<!-- Node1 -->
<g id="node1" class="node"><title>Node1</title>
<polygon fill="#bfbfbf" stroke="black" points="5.68434e-14,-7.7 5.68434e-14,-30.1 111.972,-30.1 111.972,-7.7 5.68434e-14,-7.7"/>
<text text-anchor="middle" x="55.9862" y="-15.3" font-family="-adobe-utopia-medium-i-normal--0-0-0-0-p-0-iso10646-1" font-size="12.00">MatchFactory::hash</text>
</g>
<!-- Node2 -->
<g id="node2" class="node"><title>Node2</title>
<g id="a_node2"><a xlink:href="classMatchesBuilder.html#af44853a4e7540f4f54a802a5d0c45faf" target="_top" xlink:title="MatchesBuilder::matchMarkerSet">
<polygon fill="white" stroke="black" points="147.972,-7.7 147.972,-30.1 327.25,-30.1 327.25,-7.7 147.972,-7.7"/>
<text text-anchor="middle" x="237.611" y="-15.3" font-family="-adobe-utopia-medium-i-normal--0-0-0-0-p-0-iso10646-1" font-size="12.00">MatchesBuilder::matchMarkerSet</text>
</a>
</g>
</g>
<!-- Node1&#45;&gt;Node2 -->
<g id="edge1" class="edge"><title>Node1&#45;&gt;Node2</title>
<path fill="none" stroke="midnightblue" d="M122.554,-18.9C130.754,-18.9 139.246,-18.9 147.727,-18.9"/>
<polygon fill="midnightblue" stroke="midnightblue" points="122.345,-15.4001 112.345,-18.9 122.345,-22.4001 122.345,-15.4001"/>
</g>
<!-- Node3 -->
<g id="node3" class="node"><title>Node3</title>
<g id="a_node3"><a xlink:href="classMatchesBuilder.html#ae8d8a0ff7f0726406e83d4fa55a96bf4" target="_top" xlink:title="MatchesBuilder::matchAll\lMarkers">
<polygon fill="white" stroke="black" points="363.25,-0.5 363.25,-37.3 507.218,-37.3 507.218,-0.5 363.25,-0.5"/>
<text text-anchor="start" x="371.25" y="-22.5" font-family="-adobe-utopia-medium-i-normal--0-0-0-0-p-0-iso10646-1" font-size="12.00">MatchesBuilder::matchAll</text>
<text text-anchor="middle" x="435.234" y="-8.1" font-family="-adobe-utopia-medium-i-normal--0-0-0-0-p-0-iso10646-1" font-size="12.00">Markers</text>
</a>
</g>
</g>
<!-- Node2&#45;&gt;Node3 -->
<g id="edge2" class="edge"><title>Node2&#45;&gt;Node3</title>
<path fill="none" stroke="midnightblue" d="M337.443,-18.9C346.123,-18.9 354.793,-18.9 363.178,-18.9"/>
<polygon fill="midnightblue" stroke="midnightblue" points="337.265,-15.4001 327.265,-18.9 337.265,-22.4001 337.265,-15.4001"/>
</g>
<!-- Node4 -->
<g id="node4" class="node"><title>Node4</title>
<g id="a_node4"><a xlink:href="classMatchesBuilder.html#a31faf645700f38ac0d7d164b57cfebd1" target="_top" xlink:title="MatchesBuilder::buildMatches">
<polygon fill="white" stroke="black" points="543.218,-7.7 543.218,-30.1 707.849,-30.1 707.849,-7.7 543.218,-7.7"/>
<text text-anchor="middle" x="625.534" y="-15.3" font-family="-adobe-utopia-medium-i-normal--0-0-0-0-p-0-iso10646-1" font-size="12.00">MatchesBuilder::buildMatches</text>
</a>
</g>
</g>
<!-- Node3&#45;&gt;Node4 -->
<g id="edge3" class="edge"><title>Node3&#45;&gt;Node4</title>
<path fill="none" stroke="midnightblue" d="M517.644,-18.9C526.097,-18.9 534.689,-18.9 543.141,-18.9"/>
<polygon fill="midnightblue" stroke="midnightblue" points="517.422,-15.4001 507.422,-18.9 517.422,-22.4001 517.422,-15.4001"/>
</g>
<!-- Node5 -->
<g id="node5" class="node"><title>Node5</title>
<g id="a_node5"><a xlink:href="classGERMLINE.html#a7912aa3108f42f42e06c615b460d0565" target="_top" xlink:title="GERMLINE::mine">
<polygon fill="white" stroke="black" points="743.849,-7.7 743.849,-30.1 852.498,-30.1 852.498,-7.7 743.849,-7.7"/>
<text text-anchor="middle" x="798.173" y="-15.3" font-family="-adobe-utopia-medium-i-normal--0-0-0-0-p-0-iso10646-1" font-size="12.00">GERMLINE::mine</text>
</a>
</g>
</g>
<!-- Node4&#45;&gt;Node5 -->
<g id="edge4" class="edge"><title>Node4&#45;&gt;Node5</title>
<path fill="none" stroke="midnightblue" d="M717.859,-18.9C726.704,-18.9 735.463,-18.9 743.752,-18.9"/>
<polygon fill="midnightblue" stroke="midnightblue" points="717.856,-15.4001 707.856,-18.9 717.856,-22.4001 717.856,-15.4001"/>
</g>
<!-- Node6 -->
<g id="node6" class="node"><title>Node6</title>
<g id="a_node6"><a xlink:href="GERMLINE__0001_8cpp.html#a0ddf1224851353fc92bfbff6f499fa97" target="_top" xlink:title="main">
<polygon fill="white" stroke="black" points="888.498,-7.7 888.498,-30.1 928.494,-30.1 928.494,-7.7 888.498,-7.7"/>
<text text-anchor="middle" x="908.496" y="-15.3" font-family="-adobe-utopia-medium-i-normal--0-0-0-0-p-0-iso10646-1" font-size="12.00">main</text>
</a>
</g>
</g>
<!-- Node5&#45;&gt;Node6 -->
<g id="edge5" class="edge"><title>Node5&#45;&gt;Node6</title>
<path fill="none" stroke="midnightblue" d="M862.85,-18.9C872.115,-18.9 880.997,-18.9 888.364,-18.9"/>
<polygon fill="midnightblue" stroke="midnightblue" points="862.7,-15.4001 852.7,-18.9 862.7,-22.4001 862.7,-15.4001"/>
</g>
</g>
</svg>
