<?xml version="1.0" encoding="UTF-8" standalone="no"?>
<!DOCTYPE svg PUBLIC "-//W3C//DTD SVG 1.1//EN"
 "http://www.w3.org/Graphics/SVG/1.1/DTD/svg11.dtd">
<!-- Generated by graphviz version 2.38.0 (20140413.2041)
 -->
<!-- Title: MatchesBuilder Pages: 1 -->
<svg width="548pt" height="296pt"
 viewBox="0.00 0.00 548.00 296.00" xmlns="http://www.w3.org/2000/svg" xmlns:xlink="http://www.w3.org/1999/xlink">
<g id="graph0" class="graph" transform="scale(1 1) rotate(0) translate(4 292)">
<title>MatchesBuilder</title>
<polygon fill="white" stroke="none" points="-4,4 -4,-292 543.999,-292 543.999,4 -4,4"/>
<!-- Node1 -->
<g id="node1" class="node"><title>Node1</title>
<polygon fill="#bfbfbf" stroke="black" points="275.179,-0.5 275.179,-22.9 367.821,-22.9 367.821,-0.5 275.179,-0.5"/>
<text text-anchor="middle" x="321.5" y="-8.1" font-family="-adobe-utopia-medium-i-normal--0-0-0-0-p-0-iso10646-1" font-size="12.00">MatchesBuilder</text>
</g>
<!-- Node2 -->
<g id="node2" class="node"><title>Node2</title>
<g id="a_node2"><a xlink:href="classPolymorphicIndividualsExtractor.html" target="_top" xlink:title="PolymorphicIndividualsExtractor">
<polygon fill="white" stroke="black" points="55.1834,-88.7 55.1834,-111.1 231.817,-111.1 231.817,-88.7 55.1834,-88.7"/>
<text text-anchor="middle" x="143.5" y="-96.3" font-family="-adobe-utopia-medium-i-normal--0-0-0-0-p-0-iso10646-1" font-size="12.00">PolymorphicIndividualsExtractor</text>
</a>
</g>
</g>
<!-- Node2&#45;&gt;Node1 -->
<g id="edge1" class="edge"><title>Node2&#45;&gt;Node1</title>
<path fill="none" stroke="#9a32cd" stroke-dasharray="5,2" d="M167.959,-83.4227C187.982,-71.1244 217.286,-53.9622 244.168,-41.4 258.958,-34.4882 275.911,-28.041 290.167,-23.0151"/>
<polygon fill="#9a32cd" stroke="#9a32cd" points="166.108,-80.452 159.454,-88.697 169.797,-86.4009 166.108,-80.452"/>
<text text-anchor="middle" x="256.666" y="-52.2" font-family="-adobe-utopia-medium-i-normal--0-0-0-0-p-0-iso10646-1" font-size="12.00"> pieP</text>
</g>
<!-- Node3 -->
<g id="node3" class="node"><title>Node3</title>
<polygon fill="white" stroke="#bfbfbf" points="0,-184.1 0,-206.5 29,-206.5 29,-184.1 0,-184.1"/>
<text text-anchor="middle" x="14.3348" y="-191.7" font-family="-adobe-utopia-medium-i-normal--0-0-0-0-p-0-iso10646-1" font-size="12.00">int</text>
</g>
<!-- Node3&#45;&gt;Node2 -->
<g id="edge2" class="edge"><title>Node3&#45;&gt;Node2</title>
<path fill="none" stroke="#9a32cd" stroke-dasharray="5,2" d="M14.9457,-173.672C16.3608,-159.439 20.5579,-141.08 32.2092,-129.6 40.5239,-121.407 50.85,-115.46 61.8342,-111.16"/>
<polygon fill="#9a32cd" stroke="#9a32cd" points="11.4316,-173.799 14.3179,-183.993 18.4187,-174.224 11.4316,-173.799"/>
<text text-anchor="middle" x="78.6454" y="-140.4" font-family="-adobe-utopia-medium-i-normal--0-0-0-0-p-0-iso10646-1" font-size="12.00"> numberOfMarkers</text>
</g>
<!-- Node4 -->
<g id="node4" class="node"><title>Node4</title>
<polygon fill="white" stroke="#bfbfbf" points="110.833,-184.1 110.833,-206.5 148.167,-206.5 148.167,-184.1 110.833,-184.1"/>
<text text-anchor="middle" x="129.5" y="-191.7" font-family="-adobe-utopia-medium-i-normal--0-0-0-0-p-0-iso10646-1" font-size="12.00">bool</text>
</g>
<!-- Node4&#45;&gt;Node2 -->
<g id="edge3" class="edge"><title>Node4&#45;&gt;Node2</title>
<path fill="none" stroke="#9a32cd" stroke-dasharray="5,2" d="M127.896,-173.957C127.378,-161.09 127.614,-144.192 130.847,-129.6 132.261,-123.22 135.129,-116.515 137.778,-111.192"/>
<polygon fill="#9a32cd" stroke="#9a32cd" points="124.41,-174.29 128.49,-184.067 131.397,-173.879 124.41,-174.29"/>
<text text-anchor="middle" x="157.326" y="-147.6" font-family="-adobe-utopia-medium-i-normal--0-0-0-0-p-0-iso10646-1" font-size="12.00"> valid_flag</text>
<text text-anchor="middle" x="157.326" y="-133.2" font-family="-adobe-utopia-medium-i-normal--0-0-0-0-p-0-iso10646-1" font-size="12.00">phased</text>
</g>
<!-- Node5 -->
<g id="node5" class="node"><title>Node5</title>
<g id="a_node5"><a xlink:href="classIndividuals.html" target="_top" xlink:title="Individuals">
<polygon fill="white" stroke="black" points="208.504,-184.1 208.504,-206.5 278.496,-206.5 278.496,-184.1 208.504,-184.1"/>
<text text-anchor="middle" x="243.5" y="-191.7" font-family="-adobe-utopia-medium-i-normal--0-0-0-0-p-0-iso10646-1" font-size="12.00">Individuals</text>
</a>
</g>
</g>
<!-- Node5&#45;&gt;Node1 -->
<g id="edge10" class="edge"><title>Node5&#45;&gt;Node1</title>
<path fill="none" stroke="#9a32cd" stroke-dasharray="5,2" d="M258.097,-175.537C261.822,-170.194 265.591,-164.235 268.5,-158.4 283.147,-129.017 280.318,-119.07 291.496,-88.2 299.948,-64.8588 310.96,-37.9262 317.017,-23.3727"/>
<polygon fill="#9a32cd" stroke="#9a32cd" points="255.117,-173.682 252.028,-183.817 260.763,-177.82 255.117,-173.682"/>
<text text-anchor="middle" x="323.002" y="-96.3" font-family="-adobe-utopia-medium-i-normal--0-0-0-0-p-0-iso10646-1" font-size="12.00"> individualsP</text>
</g>
<!-- Node5&#45;&gt;Node2 -->
<g id="edge4" class="edge"><title>Node5&#45;&gt;Node2</title>
<path fill="none" stroke="#9a32cd" stroke-dasharray="5,2" d="M224.362,-177.205C218.162,-171.411 211.373,-164.787 205.496,-158.4 194.405,-146.346 194.308,-140.952 182.5,-129.6 175.47,-122.842 166.803,-116.315 159.427,-111.198"/>
<polygon fill="#9a32cd" stroke="#9a32cd" points="222.052,-179.836 231.787,-184.018 226.785,-174.678 222.052,-179.836"/>
<text text-anchor="middle" x="237.002" y="-140.4" font-family="-adobe-utopia-medium-i-normal--0-0-0-0-p-0-iso10646-1" font-size="12.00"> individualsP</text>
</g>
<!-- Node6 -->
<g id="node6" class="node"><title>Node6</title>
<polygon fill="white" stroke="#bfbfbf" points="79.5786,-265.1 79.5786,-287.5 203.421,-287.5 203.421,-265.1 79.5786,-265.1"/>
<text text-anchor="middle" x="141.5" y="-272.7" font-family="-adobe-utopia-medium-i-normal--0-0-0-0-p-0-iso10646-1" font-size="12.00">vector&lt; Individual * &gt;</text>
</g>
<!-- Node6&#45;&gt;Node5 -->
<g id="edge5" class="edge"><title>Node6&#45;&gt;Node5</title>
<path fill="none" stroke="#9a32cd" stroke-dasharray="5,2" d="M161.961,-258.579C171.918,-250.518 184.105,-240.763 195.19,-232.2 206.602,-223.384 219.748,-213.641 229.444,-206.532"/>
<polygon fill="#9a32cd" stroke="#9a32cd" points="159.749,-255.867 154.194,-264.889 164.163,-261.3 159.749,-255.867"/>
<text text-anchor="middle" x="217.655" y="-235.8" font-family="-adobe-utopia-medium-i-normal--0-0-0-0-p-0-iso10646-1" font-size="12.00"> pedigree</text>
</g>
<!-- Node7 -->
<g id="node7" class="node"><title>Node7</title>
<polygon fill="white" stroke="#bfbfbf" points="221.505,-265.1 221.505,-287.5 265.495,-287.5 265.495,-265.1 221.505,-265.1"/>
<text text-anchor="middle" x="243.5" y="-272.7" font-family="-adobe-utopia-medium-i-normal--0-0-0-0-p-0-iso10646-1" font-size="12.00">size_t</text>
</g>
<!-- Node7&#45;&gt;Node5 -->
<g id="edge6" class="edge"><title>Node7&#45;&gt;Node5</title>
<path fill="none" stroke="#9a32cd" stroke-dasharray="5,2" d="M243.5,-254.815C243.5,-239.364 243.5,-218.815 243.5,-206.63"/>
<polygon fill="#9a32cd" stroke="#9a32cd" points="240,-254.972 243.5,-264.972 247,-254.972 240,-254.972"/>
<text text-anchor="middle" x="252.996" y="-235.8" font-family="-adobe-utopia-medium-i-normal--0-0-0-0-p-0-iso10646-1" font-size="12.00"> iter</text>
</g>
<!-- Node8 -->
<g id="node8" class="node"><title>Node8</title>
<polygon fill="white" stroke="#bfbfbf" points="283.833,-265.1 283.833,-287.5 321.167,-287.5 321.167,-265.1 283.833,-265.1"/>
<text text-anchor="middle" x="302.5" y="-272.7" font-family="-adobe-utopia-medium-i-normal--0-0-0-0-p-0-iso10646-1" font-size="12.00">long</text>
</g>
<!-- Node8&#45;&gt;Node5 -->
<g id="edge7" class="edge"><title>Node8&#45;&gt;Node5</title>
<path fill="none" stroke="#9a32cd" stroke-dasharray="5,2" d="M288.528,-256.591C276.863,-240.972 260.668,-219.288 251.215,-206.63"/>
<polygon fill="#9a32cd" stroke="#9a32cd" points="285.999,-259.054 294.787,-264.972 291.607,-254.866 285.999,-259.054"/>
<text text-anchor="middle" x="290.998" y="-235.8" font-family="-adobe-utopia-medium-i-normal--0-0-0-0-p-0-iso10646-1" font-size="12.00"> sets</text>
</g>
<!-- Node9 -->
<g id="node9" class="node"><title>Node9</title>
<g id="a_node9"><a xlink:href="classMatchFactory.html" target="_top" xlink:title="MatchFactory">
<polygon fill="white" stroke="black" points="363.845,-88.7 363.845,-111.1 447.155,-111.1 447.155,-88.7 363.845,-88.7"/>
<text text-anchor="middle" x="405.5" y="-96.3" font-family="-adobe-utopia-medium-i-normal--0-0-0-0-p-0-iso10646-1" font-size="12.00">MatchFactory</text>
</a>
</g>
</g>
<!-- Node9&#45;&gt;Node1 -->
<g id="edge8" class="edge"><title>Node9&#45;&gt;Node1</title>
<path fill="none" stroke="#9a32cd" stroke-dasharray="5,2" d="M388.341,-81.2915C371.207,-63.7093 345.465,-37.2926 331.453,-22.9135"/>
<polygon fill="#9a32cd" stroke="#9a32cd" points="386.048,-83.954 395.534,-88.6732 391.062,-79.0686 386.048,-83.954"/>
<text text-anchor="middle" x="410.989" y="-52.2" font-family="-adobe-utopia-medium-i-normal--0-0-0-0-p-0-iso10646-1" font-size="12.00"> matchFactory</text>
</g>
<!-- Node10 -->
<g id="node10" class="node"><title>Node10</title>
<polygon fill="white" stroke="#bfbfbf" points="345.289,-176.9 345.289,-213.7 465.711,-213.7 465.711,-176.9 345.289,-176.9"/>
<text text-anchor="start" x="353.289" y="-198.9" font-family="-adobe-utopia-medium-i-normal--0-0-0-0-p-0-iso10646-1" font-size="12.00">map&lt; boost::dynamic</text>
<text text-anchor="middle" x="405.5" y="-184.5" font-family="-adobe-utopia-medium-i-normal--0-0-0-0-p-0-iso10646-1" font-size="12.00">_bitset&lt;&gt;, Share &gt;</text>
</g>
<!-- Node10&#45;&gt;Node9 -->
<g id="edge9" class="edge"><title>Node10&#45;&gt;Node9</title>
<path fill="none" stroke="#9a32cd" stroke-dasharray="5,2" d="M405.5,-166.691C405.5,-148.017 405.5,-124.423 405.5,-111.164"/>
<polygon fill="#9a32cd" stroke="#9a32cd" points="402,-166.732 405.5,-176.732 409,-166.732 402,-166.732"/>
<text text-anchor="middle" x="427.828" y="-147.6" font-family="-adobe-utopia-medium-i-normal--0-0-0-0-p-0-iso10646-1" font-size="12.00"> iter</text>
<text text-anchor="middle" x="427.828" y="-133.2" font-family="-adobe-utopia-medium-i-normal--0-0-0-0-p-0-iso10646-1" font-size="12.00">segments</text>
</g>
<!-- Node11 -->
<g id="node11" class="node"><title>Node11</title>
<polygon fill="white" stroke="#bfbfbf" points="465.001,-88.7 465.001,-111.1 539.999,-111.1 539.999,-88.7 465.001,-88.7"/>
<text text-anchor="middle" x="502.5" y="-96.3" font-family="-adobe-utopia-medium-i-normal--0-0-0-0-p-0-iso10646-1" font-size="12.00">unsigned int</text>
</g>
<!-- Node11&#45;&gt;Node1 -->
<g id="edge11" class="edge"><title>Node11&#45;&gt;Node1</title>
<path fill="none" stroke="#9a32cd" stroke-dasharray="5,2" d="M490.137,-80.4092C480.551,-67.5262 466.125,-50.9924 449.5,-41.4 424.744,-27.1159 393.498,-19.9394 368.075,-16.3347"/>
<polygon fill="#9a32cd" stroke="#9a32cd" points="487.323,-82.4905 495.968,-88.6148 493.029,-78.4358 487.323,-82.4905"/>
<text text-anchor="middle" x="501.83" y="-59.4" font-family="-adobe-utopia-medium-i-normal--0-0-0-0-p-0-iso10646-1" font-size="12.00"> ms_end</text>
<text text-anchor="middle" x="501.83" y="-45" font-family="-adobe-utopia-medium-i-normal--0-0-0-0-p-0-iso10646-1" font-size="12.00">ms_start</text>
</g>
</g>
</svg>
