<?xml version="1.0" encoding="UTF-8" standalone="no"?>
<!DOCTYPE svg PUBLIC "-//W3C//DTD SVG 1.1//EN"
 "http://www.w3.org/Graphics/SVG/1.1/DTD/svg11.dtd">
<!-- Generated by graphviz version 2.38.0 (20140413.2041)
 -->
<!-- Title: MatchesBuilder::matchAllMarkers Pages: 1 -->
<svg width="1258pt" height="339pt"
 viewBox="0.00 0.00 1258.40 338.71" xmlns="http://www.w3.org/2000/svg" xmlns:xlink="http://www.w3.org/1999/xlink">
<g id="graph0" class="graph" transform="scale(1 1) rotate(0) translate(4 334.705)">
<title>MatchesBuilder::matchAllMarkers</title>
<polygon fill="white" stroke="none" points="-4,4 -4,-334.705 1254.4,-334.705 1254.4,4 -4,4"/>
<!-- Node1 -->
<g id="node1" class="node"><title>Node1</title>
<polygon fill="#bfbfbf" stroke="black" points="-8.52651e-14,-160.605 -8.52651e-14,-197.405 143.968,-197.405 143.968,-160.605 -8.52651e-14,-160.605"/>
<text text-anchor="start" x="8" y="-182.605" font-family="-adobe-utopia-medium-i-normal--0-0-0-0-p-0-iso10646-1" font-size="12.00">MatchesBuilder::matchAll</text>
<text text-anchor="middle" x="71.984" y="-168.205" font-family="-adobe-utopia-medium-i-normal--0-0-0-0-p-0-iso10646-1" font-size="12.00">Markers</text>
</g>
<!-- Node2 -->
<g id="node2" class="node"><title>Node2</title>
<g id="a_node2"><a xlink:href="classMatchesBuilder.html#af44853a4e7540f4f54a802a5d0c45faf" target="_top" xlink:title="MatchesBuilder::matchMarkerSet">
<polygon fill="white" stroke="black" points="179.968,-167.805 179.968,-190.205 359.246,-190.205 359.246,-167.805 179.968,-167.805"/>
<text text-anchor="middle" x="269.607" y="-175.405" font-family="-adobe-utopia-medium-i-normal--0-0-0-0-p-0-iso10646-1" font-size="12.00">MatchesBuilder::matchMarkerSet</text>
</a>
</g>
</g>
<!-- Node1&#45;&gt;Node2 -->
<g id="edge1" class="edge"><title>Node1&#45;&gt;Node2</title>
<path fill="none" stroke="midnightblue" d="M144.162,-179.005C152.485,-179.005 161.086,-179.005 169.699,-179.005"/>
<polygon fill="midnightblue" stroke="midnightblue" points="169.8,-182.505 179.8,-179.005 169.799,-175.505 169.8,-182.505"/>
</g>
<!-- Node3 -->
<g id="node3" class="node"><title>Node3</title>
<g id="a_node3"><a xlink:href="classIndividuals.html#ac1f8fff7b6e6a737ababc975495b5f65" target="_top" xlink:title="Individuals::begin">
<polygon fill="white" stroke="black" points="418.225,-307.805 418.225,-330.205 521.549,-330.205 521.549,-307.805 418.225,-307.805"/>
<text text-anchor="middle" x="469.887" y="-315.405" font-family="-adobe-utopia-medium-i-normal--0-0-0-0-p-0-iso10646-1" font-size="12.00">Individuals::begin</text>
</a>
</g>
</g>
<!-- Node2&#45;&gt;Node3 -->
<g id="edge2" class="edge"><title>Node2&#45;&gt;Node3</title>
<path fill="none" stroke="midnightblue" d="M279.214,-190.538C297.711,-214.49 343.771,-269.818 395.246,-299.005 399.42,-301.372 403.887,-303.469 408.48,-305.326"/>
<polygon fill="midnightblue" stroke="midnightblue" points="407.439,-308.672 418.033,-308.809 409.837,-302.095 407.439,-308.672"/>
</g>
<!-- Node4 -->
<g id="node4" class="node"><title>Node4</title>
<g id="a_node4"><a xlink:href="classIndividuals.html#ac9d09bbae9d26e39364b099c4366daf1" target="_top" xlink:title="Individuals::more">
<polygon fill="white" stroke="black" points="419.227,-266.805 419.227,-289.205 520.546,-289.205 520.546,-266.805 419.227,-266.805"/>
<text text-anchor="middle" x="469.887" y="-274.405" font-family="-adobe-utopia-medium-i-normal--0-0-0-0-p-0-iso10646-1" font-size="12.00">Individuals::more</text>
</a>
</g>
</g>
<!-- Node2&#45;&gt;Node4 -->
<g id="edge3" class="edge"><title>Node2&#45;&gt;Node4</title>
<path fill="none" stroke="midnightblue" d="M287.388,-190.231C310.815,-205.573 354.986,-233.316 395.246,-252.005 404.099,-256.115 413.797,-259.97 423.164,-263.387"/>
<polygon fill="midnightblue" stroke="midnightblue" points="422.162,-266.745 432.757,-266.783 424.498,-260.147 422.162,-266.745"/>
</g>
<!-- Node5 -->
<g id="node5" class="node"><title>Node5</title>
<g id="a_node5"><a xlink:href="classMatchFactory.html#aa1f3b5e8f0e2fbd5ac2dcbc24a9e6812" target="_top" xlink:title="MatchFactory::hash">
<polygon fill="white" stroke="black" points="413.901,-167.805 413.901,-190.205 525.873,-190.205 525.873,-167.805 413.901,-167.805"/>
<text text-anchor="middle" x="469.887" y="-175.405" font-family="-adobe-utopia-medium-i-normal--0-0-0-0-p-0-iso10646-1" font-size="12.00">MatchFactory::hash</text>
</a>
</g>
</g>
<!-- Node2&#45;&gt;Node5 -->
<g id="edge4" class="edge"><title>Node2&#45;&gt;Node5</title>
<path fill="none" stroke="midnightblue" d="M359.308,-179.005C374.243,-179.005 389.498,-179.005 403.696,-179.005"/>
<polygon fill="midnightblue" stroke="midnightblue" points="403.828,-182.505 413.828,-179.005 403.828,-175.505 403.828,-182.505"/>
</g>
<!-- Node13 -->
<g id="node13" class="node"><title>Node13</title>
<g id="a_node13"><a xlink:href="classIndividuals.html#a1bd919e3eef3e84c8849623789051f08" target="_top" xlink:title="Individuals::next">
<polygon fill="white" stroke="black" points="421.225,-126.805 421.225,-149.205 518.549,-149.205 518.549,-126.805 421.225,-126.805"/>
<text text-anchor="middle" x="469.887" y="-134.405" font-family="-adobe-utopia-medium-i-normal--0-0-0-0-p-0-iso10646-1" font-size="12.00">Individuals::next</text>
</a>
</g>
</g>
<!-- Node2&#45;&gt;Node13 -->
<g id="edge15" class="edge"><title>Node2&#45;&gt;Node13</title>
<path fill="none" stroke="midnightblue" d="M324.788,-167.802C351.646,-162.248 384.088,-155.54 411.385,-149.895"/>
<polygon fill="midnightblue" stroke="midnightblue" points="412.105,-153.32 421.189,-147.868 410.687,-146.466 412.105,-153.32"/>
</g>
<!-- Node14 -->
<g id="node14" class="node"><title>Node14</title>
<g id="a_node14"><a xlink:href="classMatchFactory.html#a247e2d6028e27d243b97b2df0f035f1f" target="_top" xlink:title="MatchFactory::assertShares">
<polygon fill="white" stroke="black" points="395.246,-85.8051 395.246,-108.205 544.528,-108.205 544.528,-85.8051 395.246,-85.8051"/>
<text text-anchor="middle" x="469.887" y="-93.4051" font-family="-adobe-utopia-medium-i-normal--0-0-0-0-p-0-iso10646-1" font-size="12.00">MatchFactory::assertShares</text>
</a>
</g>
</g>
<!-- Node2&#45;&gt;Node14 -->
<g id="edge16" class="edge"><title>Node2&#45;&gt;Node14</title>
<path fill="none" stroke="midnightblue" d="M290.353,-167.66C314.481,-154.158 356.843,-131.609 395.246,-117.005 400.72,-114.924 406.499,-112.965 412.314,-111.148"/>
<polygon fill="midnightblue" stroke="midnightblue" points="413.509,-114.444 422.089,-108.228 411.505,-107.737 413.509,-114.444"/>
</g>
<!-- Node15 -->
<g id="node15" class="node"><title>Node15</title>
<g id="a_node15"><a xlink:href="classIndividual.html#a37fd25dcc27a8613ca4e5a8d9bcbaca6" target="_top" xlink:title="Individual::assertShares">
<polygon fill="white" stroke="black" points="779.831,-228.805 779.831,-251.205 911.13,-251.205 911.13,-228.805 779.831,-228.805"/>
<text text-anchor="middle" x="845.48" y="-236.405" font-family="-adobe-utopia-medium-i-normal--0-0-0-0-p-0-iso10646-1" font-size="12.00">Individual::assertShares</text>
</a>
</g>
</g>
<!-- Node2&#45;&gt;Node15 -->
<g id="edge17" class="edge"><title>Node2&#45;&gt;Node15</title>
<path fill="none" stroke="midnightblue" d="M331.324,-190.213C351.601,-193.694 374.352,-197.319 395.246,-200.005 526.484,-216.878 680.21,-228.904 769.549,-235.131"/>
<polygon fill="midnightblue" stroke="midnightblue" points="769.368,-238.627 779.586,-235.825 769.851,-231.643 769.368,-238.627"/>
</g>
<!-- Node16 -->
<g id="node16" class="node"><title>Node16</title>
<g id="a_node16"><a xlink:href="classMatchFactory.html#af71633ad61d5812b60e3d64c37cd64d4" target="_top" xlink:title="MatchFactory::initialize">
<polygon fill="white" stroke="black" points="403.903,-44.8051 403.903,-67.2051 535.871,-67.2051 535.871,-44.8051 403.903,-44.8051"/>
<text text-anchor="middle" x="469.887" y="-52.4051" font-family="-adobe-utopia-medium-i-normal--0-0-0-0-p-0-iso10646-1" font-size="12.00">MatchFactory::initialize</text>
</a>
</g>
</g>
<!-- Node2&#45;&gt;Node16 -->
<g id="edge19" class="edge"><title>Node2&#45;&gt;Node16</title>
<path fill="none" stroke="midnightblue" d="M281.108,-167.559C301.207,-146.337 347.388,-100.793 395.246,-76.0051 398.952,-74.0858 402.86,-72.336 406.866,-70.743"/>
<polygon fill="midnightblue" stroke="midnightblue" points="408.132,-74.0068 416.338,-67.3049 405.744,-67.4268 408.132,-74.0068"/>
</g>
<!-- Node6 -->
<g id="node6" class="node"><title>Node6</title>
<g id="a_node6"><a xlink:href="classIndividual.html#a7c494813e7d0f7f4f235cd75185fd2be" target="_top" xlink:title="Individual::numHet">
<polygon fill="white" stroke="black" points="606.852,-107.805 606.852,-130.205 717.507,-130.205 717.507,-107.805 606.852,-107.805"/>
<text text-anchor="middle" x="662.179" y="-115.405" font-family="-adobe-utopia-medium-i-normal--0-0-0-0-p-0-iso10646-1" font-size="12.00">Individual::numHet</text>
</a>
</g>
</g>
<!-- Node5&#45;&gt;Node6 -->
<g id="edge5" class="edge"><title>Node5&#45;&gt;Node6</title>
<path fill="none" stroke="midnightblue" d="M518.982,-167.75C527.61,-165.223 536.428,-162.298 544.528,-159.005 561.483,-152.112 563.497,-145.711 580.528,-139.005 585.945,-136.872 591.659,-134.914 597.441,-133.13"/>
<polygon fill="midnightblue" stroke="midnightblue" points="598.573,-136.446 607.196,-130.29 596.617,-129.725 598.573,-136.446"/>
</g>
<!-- Node7 -->
<g id="node7" class="node"><title>Node7</title>
<g id="a_node7"><a xlink:href="classIndividual.html#a6e75847d9fdd923bd0cf7a9ec5e2b1a4" target="_top" xlink:title="Individual::assertHomozygous">
<polygon fill="white" stroke="black" points="580.528,-148.805 580.528,-171.205 743.831,-171.205 743.831,-148.805 580.528,-148.805"/>
<text text-anchor="middle" x="662.179" y="-156.405" font-family="-adobe-utopia-medium-i-normal--0-0-0-0-p-0-iso10646-1" font-size="12.00">Individual::assertHomozygous</text>
</a>
</g>
</g>
<!-- Node5&#45;&gt;Node7 -->
<g id="edge6" class="edge"><title>Node5&#45;&gt;Node7</title>
<path fill="none" stroke="midnightblue" d="M525.927,-173.509C539.884,-172.116 555.25,-170.582 570.464,-169.063"/>
<polygon fill="midnightblue" stroke="midnightblue" points="570.822,-172.544 580.424,-168.068 570.126,-165.579 570.822,-172.544"/>
</g>
<!-- Node10 -->
<g id="node10" class="node"><title>Node10</title>
<g id="a_node10"><a xlink:href="classIndividual.html#adab24d093d691c3e84bdce0b2d2f3a81" target="_top" xlink:title="Individual::getChromosome">
<polygon fill="white" stroke="black" points="1098.43,-168.805 1098.43,-191.205 1249.74,-191.205 1249.74,-168.805 1098.43,-168.805"/>
<text text-anchor="middle" x="1174.09" y="-176.405" font-family="-adobe-utopia-medium-i-normal--0-0-0-0-p-0-iso10646-1" font-size="12.00">Individual::getChromosome</text>
</a>
</g>
</g>
<!-- Node5&#45;&gt;Node10 -->
<g id="edge12" class="edge"><title>Node5&#45;&gt;Node10</title>
<path fill="none" stroke="midnightblue" d="M526.099,-180.209C543.512,-180.536 562.823,-180.844 580.528,-181.005 794.404,-182.956 847.886,-181.966 1061.77,-181.005 1070.33,-180.967 1079.27,-180.911 1088.19,-180.847"/>
<polygon fill="midnightblue" stroke="midnightblue" points="1088.27,-184.346 1098.24,-180.77 1088.21,-177.346 1088.27,-184.346"/>
</g>
<!-- Node11 -->
<g id="node11" class="node"><title>Node11</title>
<g id="a_node11"><a xlink:href="classMarkerSet.html#a4875bf7f161c77ff90c15936fee29ff0" target="_top" xlink:title="MarkerSet::getMarkerBits">
<polygon fill="white" stroke="black" points="1102.77,-113.805 1102.77,-136.205 1245.4,-136.205 1245.4,-113.805 1102.77,-113.805"/>
<text text-anchor="middle" x="1174.09" y="-121.405" font-family="-adobe-utopia-medium-i-normal--0-0-0-0-p-0-iso10646-1" font-size="12.00">MarkerSet::getMarkerBits</text>
</a>
</g>
</g>
<!-- Node5&#45;&gt;Node11 -->
<g id="edge14" class="edge"><title>Node5&#45;&gt;Node11</title>
<path fill="none" stroke="midnightblue" d="M526.21,-169.102C532.758,-166.487 539.049,-163.182 544.528,-159.005 569.562,-139.918 553.19,-113.615 580.528,-98.0051 667.01,-48.6237 961.043,-89.2697 1099.65,-112.097"/>
<polygon fill="midnightblue" stroke="midnightblue" points="1099.32,-115.59 1109.76,-113.775 1100.47,-108.684 1099.32,-115.59"/>
</g>
<!-- Node12 -->
<g id="node12" class="node"><title>Node12</title>
<g id="a_node12"><a xlink:href="classChromosome.html#a6acf26d0b4a7e2651be613ea14c20a1b" target="_top" xlink:title="Chromosome::getMarkerSet">
<polygon fill="white" stroke="black" points="1097.77,-44.8051 1097.77,-67.2051 1250.4,-67.2051 1250.4,-44.8051 1097.77,-44.8051"/>
<text text-anchor="middle" x="1174.09" y="-52.4051" font-family="-adobe-utopia-medium-i-normal--0-0-0-0-p-0-iso10646-1" font-size="12.00">Chromosome::getMarkerSet</text>
</a>
</g>
</g>
<!-- Node5&#45;&gt;Node12 -->
<g id="edge13" class="edge"><title>Node5&#45;&gt;Node12</title>
<path fill="none" stroke="midnightblue" d="M526.068,-170.149C532.792,-167.372 539.167,-163.743 544.528,-159.005 576.19,-131.02 545.744,-95.0009 580.528,-71.0051 751.621,47.027 1021.61,-11.8581 1127.93,-41.9622"/>
<polygon fill="midnightblue" stroke="midnightblue" points="1127.12,-45.3714 1137.7,-44.7787 1129.06,-38.6453 1127.12,-45.3714"/>
</g>
<!-- Node8 -->
<g id="node8" class="node"><title>Node8</title>
<g id="a_node8"><a xlink:href="classMatch.html#afb81327901b29b02ff117406cdec0a4e" target="_top" xlink:title="Match::extendBack">
<polygon fill="white" stroke="black" points="790.496,-148.805 790.496,-171.205 900.465,-171.205 900.465,-148.805 790.496,-148.805"/>
<text text-anchor="middle" x="845.48" y="-156.405" font-family="-adobe-utopia-medium-i-normal--0-0-0-0-p-0-iso10646-1" font-size="12.00">Match::extendBack</text>
</a>
</g>
</g>
<!-- Node7&#45;&gt;Node8 -->
<g id="edge7" class="edge"><title>Node7&#45;&gt;Node8</title>
<path fill="none" stroke="midnightblue" d="M744.021,-160.005C756.144,-160.005 768.505,-160.005 780.221,-160.005"/>
<polygon fill="midnightblue" stroke="midnightblue" points="780.329,-163.505 790.329,-160.005 780.329,-156.505 780.329,-163.505"/>
</g>
<!-- Node9 -->
<g id="node9" class="node"><title>Node9</title>
<g id="a_node9"><a xlink:href="classMatch.html#a7c47a9c7017d308d2ae58fac5a204179" target="_top" xlink:title="Match::approxEqual">
<polygon fill="white" stroke="black" points="947.13,-148.805 947.13,-171.205 1061.77,-171.205 1061.77,-148.805 947.13,-148.805"/>
<text text-anchor="middle" x="1004.45" y="-156.405" font-family="-adobe-utopia-medium-i-normal--0-0-0-0-p-0-iso10646-1" font-size="12.00">Match::approxEqual</text>
</a>
</g>
</g>
<!-- Node8&#45;&gt;Node9 -->
<g id="edge8" class="edge"><title>Node8&#45;&gt;Node9</title>
<path fill="none" stroke="midnightblue" d="M900.5,-160.005C912.209,-160.005 924.725,-160.005 936.853,-160.005"/>
<polygon fill="midnightblue" stroke="midnightblue" points="936.924,-163.505 946.924,-160.005 936.924,-156.505 936.924,-163.505"/>
</g>
<!-- Node9&#45;&gt;Node10 -->
<g id="edge9" class="edge"><title>Node9&#45;&gt;Node10</title>
<path fill="none" stroke="midnightblue" d="M1062.2,-166.776C1070.62,-167.781 1079.45,-168.834 1088.29,-169.889"/>
<polygon fill="midnightblue" stroke="midnightblue" points="1087.92,-173.369 1098.26,-171.078 1088.75,-166.418 1087.92,-173.369"/>
</g>
<!-- Node9&#45;&gt;Node11 -->
<g id="edge10" class="edge"><title>Node9&#45;&gt;Node11</title>
<path fill="none" stroke="midnightblue" d="M1059.41,-148.738C1075.27,-145.428 1092.76,-141.776 1109.17,-138.35"/>
<polygon fill="midnightblue" stroke="midnightblue" points="1110.15,-141.721 1119.22,-136.251 1108.72,-134.869 1110.15,-141.721"/>
</g>
<!-- Node9&#45;&gt;Node12 -->
<g id="edge11" class="edge"><title>Node9&#45;&gt;Node12</title>
<path fill="none" stroke="midnightblue" d="M1023.71,-148.677C1053.31,-130.313 1111.91,-93.9558 1146.26,-72.6473"/>
<polygon fill="midnightblue" stroke="midnightblue" points="1148.2,-75.5649 1154.85,-67.3189 1144.51,-69.6166 1148.2,-75.5649"/>
</g>
<!-- Node15&#45;&gt;Node9 -->
<g id="edge18" class="edge"><title>Node15&#45;&gt;Node9</title>
<path fill="none" stroke="midnightblue" d="M868.637,-228.713C895.749,-214.895 941.813,-191.418 972.435,-175.811"/>
<polygon fill="midnightblue" stroke="midnightblue" points="974.085,-178.899 981.405,-171.24 970.906,-172.663 974.085,-178.899"/>
</g>
</g>
</svg>
