<?xml version="1.0" encoding="UTF-8" standalone="no"?>
<!DOCTYPE svg PUBLIC "-//W3C//DTD SVG 1.1//EN"
 "http://www.w3.org/Graphics/SVG/1.1/DTD/svg11.dtd">
<!-- Generated by graphviz version 2.38.0 (20140413.2041)
 -->
<!-- Title: MatchFactory Pages: 1 -->
<svg width="128pt" height="134pt"
 viewBox="0.00 0.00 128.42 134.00" xmlns="http://www.w3.org/2000/svg" xmlns:xlink="http://www.w3.org/1999/xlink">
<g id="graph0" class="graph" transform="scale(1 1) rotate(0) translate(4 130)">
<title>MatchFactory</title>
<polygon fill="white" stroke="none" points="-4,4 -4,-130 124.423,-130 124.423,4 -4,4"/>
<!-- Node1 -->
<g id="node1" class="node"><title>Node1</title>
<polygon fill="#bfbfbf" stroke="black" points="18.5568,-0.5 18.5568,-22.9 101.866,-22.9 101.866,-0.5 18.5568,-0.5"/>
<text text-anchor="middle" x="60.2114" y="-8.1" font-family="-adobe-utopia-medium-i-normal--0-0-0-0-p-0-iso10646-1" font-size="12.00">MatchFactory</text>
</g>
<!-- Node2 -->
<g id="node2" class="node"><title>Node2</title>
<polygon fill="white" stroke="#bfbfbf" points="0,-88.7 0,-125.5 120.423,-125.5 120.423,-88.7 0,-88.7"/>
<text text-anchor="start" x="8" y="-110.7" font-family="-adobe-utopia-medium-i-normal--0-0-0-0-p-0-iso10646-1" font-size="12.00">map&lt; boost::dynamic</text>
<text text-anchor="middle" x="60.2114" y="-96.3" font-family="-adobe-utopia-medium-i-normal--0-0-0-0-p-0-iso10646-1" font-size="12.00">_bitset&lt;&gt;, Share &gt;</text>
</g>
<!-- Node2&#45;&gt;Node1 -->
<g id="edge1" class="edge"><title>Node2&#45;&gt;Node1</title>
<path fill="none" stroke="#9a32cd" stroke-dasharray="5,2" d="M60.2114,-78.4913C60.2114,-59.8171 60.2114,-36.2231 60.2114,-22.964"/>
<polygon fill="#9a32cd" stroke="#9a32cd" points="56.7115,-78.5321 60.2114,-88.5322 63.7115,-78.5322 56.7115,-78.5321"/>
<text text-anchor="middle" x="82.5398" y="-59.4" font-family="-adobe-utopia-medium-i-normal--0-0-0-0-p-0-iso10646-1" font-size="12.00"> iter</text>
<text text-anchor="middle" x="82.5398" y="-45" font-family="-adobe-utopia-medium-i-normal--0-0-0-0-p-0-iso10646-1" font-size="12.00">segments</text>
</g>
</g>
</svg>
