<?xml version="1.0" encoding="UTF-8" standalone="no"?>
<!DOCTYPE svg PUBLIC "-//W3C//DTD SVG 1.1//EN"
 "http://www.w3.org/Graphics/SVG/1.1/DTD/svg11.dtd">
<!-- Generated by graphviz version 2.38.0 (20140413.2041)
 -->
<!-- Title: MatchesBuilder::readMarkerSet Pages: 1 -->
<svg width="391pt" height="170pt"
 viewBox="0.00 0.00 391.24 170.40" xmlns="http://www.w3.org/2000/svg" xmlns:xlink="http://www.w3.org/1999/xlink">
<g id="graph0" class="graph" transform="scale(1 1) rotate(0) translate(4 166.4)">
<title>MatchesBuilder::readMarkerSet</title>
<polygon fill="white" stroke="none" points="-4,4 -4,-166.4 387.236,-166.4 387.236,4 -4,4"/>
<!-- Node1 -->
<g id="node1" class="node"><title>Node1</title>
<polygon fill="#bfbfbf" stroke="black" points="1.42109e-14,-65.5 1.42109e-14,-87.9 170.603,-87.9 170.603,-65.5 1.42109e-14,-65.5"/>
<text text-anchor="middle" x="85.3016" y="-73.1" font-family="-adobe-utopia-medium-i-normal--0-0-0-0-p-0-iso10646-1" font-size="12.00">MatchesBuilder::readMarkerSet</text>
</g>
<!-- Node2 -->
<g id="node2" class="node"><title>Node2</title>
<g id="a_node2"><a xlink:href="classIndividuals.html#ac1f8fff7b6e6a737ababc975495b5f65" target="_top" xlink:title="Individuals::begin">
<polygon fill="white" stroke="black" points="243.258,-139.5 243.258,-161.9 346.582,-161.9 346.582,-139.5 243.258,-139.5"/>
<text text-anchor="middle" x="294.92" y="-147.1" font-family="-adobe-utopia-medium-i-normal--0-0-0-0-p-0-iso10646-1" font-size="12.00">Individuals::begin</text>
</a>
</g>
</g>
<!-- Node1&#45;&gt;Node2 -->
<g id="edge1" class="edge"><title>Node1&#45;&gt;Node2</title>
<path fill="none" stroke="midnightblue" d="M108.88,-88.1075C132.702,-99.7934 171.572,-117.877 206.603,-129.7 215.174,-132.593 224.344,-135.253 233.402,-137.637"/>
<polygon fill="midnightblue" stroke="midnightblue" points="232.6,-141.044 243.154,-140.114 234.323,-134.26 232.6,-141.044"/>
</g>
<!-- Node3 -->
<g id="node3" class="node"><title>Node3</title>
<g id="a_node3"><a xlink:href="classPolymorphicIndividualsExtractor.html#af99fabbecd263daa88696353f9fcfeff" target="_top" xlink:title="PolymorphicIndividualsExtractor\l::getCompleteMarkerSet">
<polygon fill="white" stroke="black" points="206.603,-83.3 206.603,-120.1 383.236,-120.1 383.236,-83.3 206.603,-83.3"/>
<text text-anchor="start" x="214.603" y="-105.3" font-family="-adobe-utopia-medium-i-normal--0-0-0-0-p-0-iso10646-1" font-size="12.00">PolymorphicIndividualsExtractor</text>
<text text-anchor="middle" x="294.92" y="-90.9" font-family="-adobe-utopia-medium-i-normal--0-0-0-0-p-0-iso10646-1" font-size="12.00">::getCompleteMarkerSet</text>
</a>
</g>
</g>
<!-- Node1&#45;&gt;Node3 -->
<g id="edge2" class="edge"><title>Node1&#45;&gt;Node3</title>
<path fill="none" stroke="midnightblue" d="M170.748,-86.8685C179.22,-87.8887 187.871,-88.9304 196.464,-89.965"/>
<polygon fill="midnightblue" stroke="midnightblue" points="196.164,-93.454 206.51,-91.1747 197,-86.5042 196.164,-93.454"/>
</g>
<!-- Node4 -->
<g id="node4" class="node"><title>Node4</title>
<g id="a_node4"><a xlink:href="classIndividuals.html#ac9d09bbae9d26e39364b099c4366daf1" target="_top" xlink:title="Individuals::more">
<polygon fill="white" stroke="black" points="244.26,-41.5 244.26,-63.9 345.579,-63.9 345.579,-41.5 244.26,-41.5"/>
<text text-anchor="middle" x="294.92" y="-49.1" font-family="-adobe-utopia-medium-i-normal--0-0-0-0-p-0-iso10646-1" font-size="12.00">Individuals::more</text>
</a>
</g>
</g>
<!-- Node1&#45;&gt;Node4 -->
<g id="edge3" class="edge"><title>Node1&#45;&gt;Node4</title>
<path fill="none" stroke="midnightblue" d="M170.748,-66.9383C191.971,-64.4849 214.314,-61.9021 234.057,-59.62"/>
<polygon fill="midnightblue" stroke="midnightblue" points="234.592,-63.0815 244.124,-58.4562 233.788,-56.1278 234.592,-63.0815"/>
</g>
<!-- Node5 -->
<g id="node5" class="node"><title>Node5</title>
<g id="a_node5"><a xlink:href="classIndividuals.html#a1bd919e3eef3e84c8849623789051f08" target="_top" xlink:title="Individuals::next">
<polygon fill="white" stroke="black" points="246.258,-0.5 246.258,-22.9 343.582,-22.9 343.582,-0.5 246.258,-0.5"/>
<text text-anchor="middle" x="294.92" y="-8.1" font-family="-adobe-utopia-medium-i-normal--0-0-0-0-p-0-iso10646-1" font-size="12.00">Individuals::next</text>
</a>
</g>
</g>
<!-- Node1&#45;&gt;Node5 -->
<g id="edge4" class="edge"><title>Node1&#45;&gt;Node5</title>
<path fill="none" stroke="midnightblue" d="M113.185,-65.4706C137.337,-55.6652 173.926,-41.5069 206.603,-31.7 216.099,-28.8502 226.28,-26.1795 236.217,-23.7754"/>
<polygon fill="midnightblue" stroke="midnightblue" points="237.105,-27.162 246.037,-21.4634 235.501,-20.3483 237.105,-27.162"/>
</g>
</g>
</svg>
