<?xml version="1.0" encoding="UTF-8" standalone="no"?>
<!DOCTYPE svg PUBLIC "-//W3C//DTD SVG 1.1//EN"
 "http://www.w3.org/Graphics/SVG/1.1/DTD/svg11.dtd">
<!-- Generated by graphviz version 2.38.0 (20140413.2041)
 -->
<!-- Title: PEDIndividualsExtractor::loadInput Pages: 1 -->
<svg width="635pt" height="318pt"
 viewBox="0.00 0.00 634.59 318.40" xmlns="http://www.w3.org/2000/svg" xmlns:xlink="http://www.w3.org/1999/xlink">
<g id="graph0" class="graph" transform="scale(1 1) rotate(0) translate(4 314.4)">
<title>PEDIndividualsExtractor::loadInput</title>
<polygon fill="white" stroke="none" points="-4,4 -4,-314.4 630.59,-314.4 630.59,4 -4,4"/>
<!-- Node1 -->
<g id="node1" class="node"><title>Node1</title>
<polygon fill="#bfbfbf" stroke="black" points="0,-136.3 0,-173.1 137.301,-173.1 137.301,-136.3 0,-136.3"/>
<text text-anchor="start" x="8" y="-158.3" font-family="-adobe-utopia-medium-i-normal--0-0-0-0-p-0-iso10646-1" font-size="12.00">PEDIndividualsExtractor</text>
<text text-anchor="middle" x="68.6504" y="-143.9" font-family="-adobe-utopia-medium-i-normal--0-0-0-0-p-0-iso10646-1" font-size="12.00">::loadInput</text>
</g>
<!-- Node2 -->
<g id="node2" class="node"><title>Node2</title>
<g id="a_node2"><a xlink:href="classSNPs.html#a7e4f810a6d54fdd7d84c0a1b8bc38647" target="_top" xlink:title="SNPs::beginChromosome">
<polygon fill="white" stroke="black" points="173.301,-184.5 173.301,-206.9 313.964,-206.9 313.964,-184.5 173.301,-184.5"/>
<text text-anchor="middle" x="243.632" y="-192.1" font-family="-adobe-utopia-medium-i-normal--0-0-0-0-p-0-iso10646-1" font-size="12.00">SNPs::beginChromosome</text>
</a>
</g>
</g>
<!-- Node1&#45;&gt;Node2 -->
<g id="edge1" class="edge"><title>Node1&#45;&gt;Node2</title>
<path fill="none" stroke="midnightblue" d="M137.521,-170.787C153.36,-174.541 170.075,-178.502 185.399,-182.135"/>
<polygon fill="midnightblue" stroke="midnightblue" points="184.709,-185.568 195.246,-184.469 186.323,-178.757 184.709,-185.568"/>
</g>
<!-- Node3 -->
<g id="node3" class="node"><title>Node3</title>
<g id="a_node3"><a xlink:href="classSNPs.html#a0f26b6fbd02cc5afd8d423b411d304e8" target="_top" xlink:title="SNPs::processMAPFile">
<polygon fill="white" stroke="black" points="178.637,-143.5 178.637,-165.9 308.628,-165.9 308.628,-143.5 178.637,-143.5"/>
<text text-anchor="middle" x="243.632" y="-151.1" font-family="-adobe-utopia-medium-i-normal--0-0-0-0-p-0-iso10646-1" font-size="12.00">SNPs::processMAPFile</text>
</a>
</g>
</g>
<!-- Node1&#45;&gt;Node3 -->
<g id="edge2" class="edge"><title>Node1&#45;&gt;Node3</title>
<path fill="none" stroke="midnightblue" d="M137.521,-154.7C147.672,-154.7 158.183,-154.7 168.457,-154.7"/>
<polygon fill="midnightblue" stroke="midnightblue" points="168.63,-158.2 178.63,-154.7 168.63,-151.2 168.63,-158.2"/>
</g>
<!-- Node14 -->
<g id="node14" class="node"><title>Node14</title>
<g id="a_node14"><a xlink:href="classSNPs.html#ae2cd85e5aa4517c008fe42a17eae0e60" target="_top" xlink:title="SNPs::size">
<polygon fill="white" stroke="black" points="209.634,-102.5 209.634,-124.9 277.63,-124.9 277.63,-102.5 209.634,-102.5"/>
<text text-anchor="middle" x="243.632" y="-110.1" font-family="-adobe-utopia-medium-i-normal--0-0-0-0-p-0-iso10646-1" font-size="12.00">SNPs::size</text>
</a>
</g>
</g>
<!-- Node1&#45;&gt;Node14 -->
<g id="edge14" class="edge"><title>Node1&#45;&gt;Node14</title>
<path fill="none" stroke="midnightblue" d="M137.521,-138.613C158.285,-133.692 180.553,-128.414 199.223,-123.989"/>
<polygon fill="midnightblue" stroke="midnightblue" points="200.27,-127.338 209.193,-121.626 198.656,-120.526 200.27,-127.338"/>
</g>
<!-- Node4 -->
<g id="node4" class="node"><title>Node4</title>
<g id="a_node4"><a xlink:href="classSNP.html#a0845feb56b14b488595d93567369f7c5" target="_top" xlink:title="SNP::setChr">
<polygon fill="white" stroke="black" points="385.278,-287.5 385.278,-309.9 461.278,-309.9 461.278,-287.5 385.278,-287.5"/>
<text text-anchor="middle" x="423.278" y="-295.1" font-family="-adobe-utopia-medium-i-normal--0-0-0-0-p-0-iso10646-1" font-size="12.00">SNP::setChr</text>
</a>
</g>
</g>
<!-- Node3&#45;&gt;Node4 -->
<g id="edge3" class="edge"><title>Node3&#45;&gt;Node4</title>
<path fill="none" stroke="midnightblue" d="M301.652,-166.021C306.137,-168.391 310.329,-171.251 313.964,-174.7 349.445,-208.369 314.298,-245.227 349.964,-278.7 357.013,-285.316 366.053,-289.777 375.337,-292.776"/>
<polygon fill="midnightblue" stroke="midnightblue" points="374.46,-296.164 385.027,-295.401 376.291,-289.408 374.46,-296.164"/>
</g>
<!-- Node5 -->
<g id="node5" class="node"><title>Node5</title>
<g id="a_node5"><a xlink:href="classSNP.html#a4e0905f0c1d5165fea2185e752ed5089" target="_top" xlink:title="SNP::setSNPID">
<polygon fill="white" stroke="black" points="376.946,-246.5 376.946,-268.9 469.61,-268.9 469.61,-246.5 376.946,-246.5"/>
<text text-anchor="middle" x="423.278" y="-254.1" font-family="-adobe-utopia-medium-i-normal--0-0-0-0-p-0-iso10646-1" font-size="12.00">SNP::setSNPID</text>
</a>
</g>
</g>
<!-- Node3&#45;&gt;Node5 -->
<g id="edge4" class="edge"><title>Node3&#45;&gt;Node5</title>
<path fill="none" stroke="midnightblue" d="M299.258,-165.963C304.516,-168.339 309.532,-171.216 313.964,-174.7 339.316,-194.631 324.502,-217.909 349.964,-237.7 355.093,-241.687 360.969,-244.88 367.105,-247.436"/>
<polygon fill="midnightblue" stroke="midnightblue" points="366.298,-250.865 376.893,-250.952 368.665,-244.277 366.298,-250.865"/>
</g>
<!-- Node6 -->
<g id="node6" class="node"><title>Node6</title>
<g id="a_node6"><a xlink:href="classSNP.html#ad7a6b88dd8139d62c7fc24c1a1fe0f6e" target="_top" xlink:title="SNP::setPhysPos">
<polygon fill="white" stroke="black" points="373.939,-205.5 373.939,-227.9 472.617,-227.9 472.617,-205.5 373.939,-205.5"/>
<text text-anchor="middle" x="423.278" y="-213.1" font-family="-adobe-utopia-medium-i-normal--0-0-0-0-p-0-iso10646-1" font-size="12.00">SNP::setPhysPos</text>
</a>
</g>
</g>
<!-- Node3&#45;&gt;Node6 -->
<g id="edge5" class="edge"><title>Node3&#45;&gt;Node6</title>
<path fill="none" stroke="midnightblue" d="M290.379,-166.008C298.373,-168.515 306.511,-171.419 313.964,-174.7 331.126,-182.255 332.761,-189.24 349.964,-196.7 354.625,-198.721 359.544,-200.591 364.534,-202.308"/>
<polygon fill="midnightblue" stroke="midnightblue" points="363.578,-205.677 374.17,-205.422 365.731,-199.016 363.578,-205.677"/>
</g>
<!-- Node7 -->
<g id="node7" class="node"><title>Node7</title>
<g id="a_node7"><a xlink:href="classSNP.html#a61968e34d753198196b179a2a3aafce4" target="_top" xlink:title="SNP::setMarkerNumber">
<polygon fill="white" stroke="black" points="356.962,-164.5 356.962,-186.9 489.594,-186.9 489.594,-164.5 356.962,-164.5"/>
<text text-anchor="middle" x="423.278" y="-172.1" font-family="-adobe-utopia-medium-i-normal--0-0-0-0-p-0-iso10646-1" font-size="12.00">SNP::setMarkerNumber</text>
</a>
</g>
</g>
<!-- Node3&#45;&gt;Node7 -->
<g id="edge6" class="edge"><title>Node3&#45;&gt;Node7</title>
<path fill="none" stroke="midnightblue" d="M308.767,-162.281C321.079,-163.737 334.078,-165.274 346.711,-166.767"/>
<polygon fill="midnightblue" stroke="midnightblue" points="346.403,-170.255 356.744,-167.953 347.225,-163.303 346.403,-170.255"/>
</g>
<!-- Node8 -->
<g id="node8" class="node"><title>Node8</title>
<g id="a_node8"><a xlink:href="classSNPs.html#a966e05b1d44910967919ed5aabf7f3a2" target="_top" xlink:title="SNPs::getGeneticDistance">
<polygon fill="white" stroke="black" points="351.631,-123.5 351.631,-145.9 494.926,-145.9 494.926,-123.5 351.631,-123.5"/>
<text text-anchor="middle" x="423.278" y="-131.1" font-family="-adobe-utopia-medium-i-normal--0-0-0-0-p-0-iso10646-1" font-size="12.00">SNPs::getGeneticDistance</text>
</a>
</g>
</g>
<!-- Node3&#45;&gt;Node8 -->
<g id="edge7" class="edge"><title>Node3&#45;&gt;Node8</title>
<path fill="none" stroke="midnightblue" d="M308.767,-147.48C319.419,-146.28 330.587,-145.023 341.586,-143.785"/>
<polygon fill="midnightblue" stroke="midnightblue" points="342.076,-147.252 351.621,-142.655 341.292,-140.296 342.076,-147.252"/>
</g>
<!-- Node11 -->
<g id="node11" class="node"><title>Node11</title>
<g id="a_node11"><a xlink:href="classSNP.html#af9eff18f0ff52b1d6184d5f929f90290" target="_top" xlink:title="SNP::setCentimorgan">
<polygon fill="white" stroke="black" points="362.949,-82.5 362.949,-104.9 483.607,-104.9 483.607,-82.5 362.949,-82.5"/>
<text text-anchor="middle" x="423.278" y="-90.1" font-family="-adobe-utopia-medium-i-normal--0-0-0-0-p-0-iso10646-1" font-size="12.00">SNP::setCentimorgan</text>
</a>
</g>
</g>
<!-- Node3&#45;&gt;Node11 -->
<g id="edge10" class="edge"><title>Node3&#45;&gt;Node11</title>
<path fill="none" stroke="midnightblue" d="M289.585,-143.494C297.822,-140.947 306.248,-138.003 313.964,-134.7 330.993,-127.411 332.895,-120.895 349.964,-113.7 354.718,-111.696 359.733,-109.833 364.812,-108.116"/>
<polygon fill="midnightblue" stroke="midnightblue" points="366.146,-111.365 374.611,-104.994 364.021,-104.695 366.146,-111.365"/>
</g>
<!-- Node12 -->
<g id="node12" class="node"><title>Node12</title>
<g id="a_node12"><a xlink:href="classSNPs.html#a79df6854d1863b8f2e14fd324ad5752b" target="_top" xlink:title="SNPs::addSNP">
<polygon fill="white" stroke="black" points="378.942,-41.5 378.942,-63.9 467.614,-63.9 467.614,-41.5 378.942,-41.5"/>
<text text-anchor="middle" x="423.278" y="-49.1" font-family="-adobe-utopia-medium-i-normal--0-0-0-0-p-0-iso10646-1" font-size="12.00">SNPs::addSNP</text>
</a>
</g>
</g>
<!-- Node3&#45;&gt;Node12 -->
<g id="edge11" class="edge"><title>Node3&#45;&gt;Node12</title>
<path fill="none" stroke="midnightblue" d="M299.234,-143.406C304.496,-141.036 309.52,-138.169 313.964,-134.7 339.082,-115.094 324.739,-92.1677 349.964,-72.7 355.707,-68.2682 362.373,-64.8181 369.289,-62.1323"/>
<polygon fill="midnightblue" stroke="midnightblue" points="370.453,-65.4336 378.811,-58.9233 368.217,-58.8001 370.453,-65.4336"/>
</g>
<!-- Node13 -->
<g id="node13" class="node"><title>Node13</title>
<g id="a_node13"><a xlink:href="classSNPs.html#aab7887e45f048314552ec8c9d657eec8" target="_top" xlink:title="SNPs::setGeneticDistances">
<polygon fill="white" stroke="black" points="349.964,-0.5 349.964,-22.9 496.592,-22.9 496.592,-0.5 349.964,-0.5"/>
<text text-anchor="middle" x="423.278" y="-8.1" font-family="-adobe-utopia-medium-i-normal--0-0-0-0-p-0-iso10646-1" font-size="12.00">SNPs::setGeneticDistances</text>
</a>
</g>
</g>
<!-- Node3&#45;&gt;Node13 -->
<g id="edge13" class="edge"><title>Node3&#45;&gt;Node13</title>
<path fill="none" stroke="midnightblue" d="M301.641,-143.367C306.129,-141 310.324,-138.144 313.964,-134.7 349.19,-101.373 314.554,-64.8326 349.964,-31.7 351.239,-30.5069 352.579,-29.3839 353.973,-28.3269"/>
<polygon fill="midnightblue" stroke="midnightblue" points="355.887,-31.258 362.484,-22.9671 352.157,-25.3348 355.887,-31.258"/>
</g>
<!-- Node9 -->
<g id="node9" class="node"><title>Node9</title>
<g id="a_node9"><a xlink:href="classSNP.html#a1cf02a7f908f653fb2645935b0bdcc3d" target="_top" xlink:title="SNP::getChr">
<polygon fill="white" stroke="black" points="540.925,-62.5 540.925,-84.9 618.258,-84.9 618.258,-62.5 540.925,-62.5"/>
<text text-anchor="middle" x="579.591" y="-70.1" font-family="-adobe-utopia-medium-i-normal--0-0-0-0-p-0-iso10646-1" font-size="12.00">SNP::getChr</text>
</a>
</g>
</g>
<!-- Node8&#45;&gt;Node9 -->
<g id="edge8" class="edge"><title>Node8&#45;&gt;Node9</title>
<path fill="none" stroke="midnightblue" d="M470.233,-123.435C479.081,-120.861 488.202,-117.923 496.592,-114.7 514.803,-107.705 534.371,-98.0104 549.823,-89.8042"/>
<polygon fill="midnightblue" stroke="midnightblue" points="551.726,-92.7544 558.864,-84.9245 548.401,-86.5945 551.726,-92.7544"/>
</g>
<!-- Node10 -->
<g id="node10" class="node"><title>Node10</title>
<g id="a_node10"><a xlink:href="classSNP.html#acb364c2ba0b3daf71f3a83a9f9f4fa1b" target="_top" xlink:title="SNP::getSNPID">
<polygon fill="white" stroke="black" points="532.592,-123.5 532.592,-145.9 626.59,-145.9 626.59,-123.5 532.592,-123.5"/>
<text text-anchor="middle" x="579.591" y="-131.1" font-family="-adobe-utopia-medium-i-normal--0-0-0-0-p-0-iso10646-1" font-size="12.00">SNP::getSNPID</text>
</a>
</g>
</g>
<!-- Node8&#45;&gt;Node10 -->
<g id="edge9" class="edge"><title>Node8&#45;&gt;Node10</title>
<path fill="none" stroke="midnightblue" d="M495.112,-134.7C504.223,-134.7 513.453,-134.7 522.289,-134.7"/>
<polygon fill="midnightblue" stroke="midnightblue" points="522.449,-138.2 532.449,-134.7 522.449,-131.2 522.449,-138.2"/>
</g>
<!-- Node12&#45;&gt;Node9 -->
<g id="edge12" class="edge"><title>Node12&#45;&gt;Node9</title>
<path fill="none" stroke="midnightblue" d="M467.674,-58.6056C487.349,-61.2831 510.672,-64.4571 530.843,-67.2021"/>
<polygon fill="midnightblue" stroke="midnightblue" points="530.383,-70.6716 540.763,-68.5521 531.327,-63.7355 530.383,-70.6716"/>
</g>
</g>
</svg>
