<?xml version="1.0" encoding="UTF-8" standalone="no"?>
<!DOCTYPE svg PUBLIC "-//W3C//DTD SVG 1.1//EN"
 "http://www.w3.org/Graphics/SVG/1.1/DTD/svg11.dtd">
<!-- Generated by graphviz version 2.38.0 (20140413.2041)
 -->
<!-- Title: Individual::getOffset Pages: 1 -->
<svg width="298pt" height="102pt"
 viewBox="0.00 0.00 297.94 101.80" xmlns="http://www.w3.org/2000/svg" xmlns:xlink="http://www.w3.org/1999/xlink">
<g id="graph0" class="graph" transform="scale(1 1) rotate(0) translate(4 97.8)">
<title>Individual::getOffset</title>
<polygon fill="white" stroke="none" points="-4,4 -4,-97.8 293.939,-97.8 293.939,4 -4,4"/>
<!-- Node1 -->
<g id="node1" class="node"><title>Node1</title>
<polygon fill="#bfbfbf" stroke="black" points="1.42109e-14,-35.7 1.42109e-14,-58.1 116.638,-58.1 116.638,-35.7 1.42109e-14,-35.7"/>
<text text-anchor="middle" x="58.319" y="-43.3" font-family="-adobe-utopia-medium-i-normal--0-0-0-0-p-0-iso10646-1" font-size="12.00">Individual::getOffset</text>
</g>
<!-- Node2 -->
<g id="node2" class="node"><title>Node2</title>
<g id="a_node2"><a xlink:href="classPEDIndividualsExtractor.html#af11b156fe02d076d45f490b1d240f81c" target="_top" xlink:title="PEDIndividualsExtractor\l::getCompleteMarkerSet">
<polygon fill="white" stroke="black" points="152.638,-56.5 152.638,-93.3 289.939,-93.3 289.939,-56.5 152.638,-56.5"/>
<text text-anchor="start" x="160.638" y="-78.5" font-family="-adobe-utopia-medium-i-normal--0-0-0-0-p-0-iso10646-1" font-size="12.00">PEDIndividualsExtractor</text>
<text text-anchor="middle" x="221.288" y="-64.1" font-family="-adobe-utopia-medium-i-normal--0-0-0-0-p-0-iso10646-1" font-size="12.00">::getCompleteMarkerSet</text>
</a>
</g>
</g>
<!-- Node1&#45;&gt;Node2 -->
<g id="edge1" class="edge"><title>Node1&#45;&gt;Node2</title>
<path fill="none" stroke="midnightblue" d="M126.859,-58.6484C135.375,-60.1296 144.088,-61.6453 152.606,-63.1269"/>
<polygon fill="midnightblue" stroke="midnightblue" points="127.43,-55.1951 116.978,-56.9296 126.23,-62.0916 127.43,-55.1951"/>
</g>
<!-- Node3 -->
<g id="node3" class="node"><title>Node3</title>
<g id="a_node3"><a xlink:href="classHMIndividualsExtractor.html#ad6b05cde2b0c840b526d3f14f531090b" target="_top" xlink:title="HMIndividualsExtractor\l::getCompleteMarkerSet">
<polygon fill="white" stroke="black" points="153.971,-0.5 153.971,-37.3 288.606,-37.3 288.606,-0.5 153.971,-0.5"/>
<text text-anchor="start" x="161.971" y="-22.5" font-family="-adobe-utopia-medium-i-normal--0-0-0-0-p-0-iso10646-1" font-size="12.00">HMIndividualsExtractor</text>
<text text-anchor="middle" x="221.288" y="-8.1" font-family="-adobe-utopia-medium-i-normal--0-0-0-0-p-0-iso10646-1" font-size="12.00">::getCompleteMarkerSet</text>
</a>
</g>
</g>
<!-- Node1&#45;&gt;Node3 -->
<g id="edge2" class="edge"><title>Node1&#45;&gt;Node3</title>
<path fill="none" stroke="midnightblue" d="M126.885,-35.1471C135.763,-33.6029 144.855,-32.0213 153.716,-30.48"/>
<polygon fill="midnightblue" stroke="midnightblue" points="126.23,-31.7084 116.978,-36.8704 127.43,-38.6049 126.23,-31.7084"/>
</g>
</g>
</svg>
