<?xml version="1.0" encoding="UTF-8" standalone="no"?>
<!DOCTYPE svg PUBLIC "-//W3C//DTD SVG 1.1//EN"
 "http://www.w3.org/Graphics/SVG/1.1/DTD/svg11.dtd">
<!-- Generated by graphviz version 2.38.0 (20140413.2041)
 -->
<!-- Title: SNP::getSNPID Pages: 1 -->
<svg width="631pt" height="173pt"
 viewBox="0.00 0.00 630.57 172.60" xmlns="http://www.w3.org/2000/svg" xmlns:xlink="http://www.w3.org/1999/xlink">
<g id="graph0" class="graph" transform="scale(1 1) rotate(0) translate(4 168.6)">
<title>SNP::getSNPID</title>
<polygon fill="white" stroke="none" points="-4,4 -4,-168.6 626.568,-168.6 626.568,4 -4,4"/>
<!-- Node1 -->
<g id="node1" class="node"><title>Node1</title>
<polygon fill="#bfbfbf" stroke="black" points="-2.84217e-14,-41.5 -2.84217e-14,-63.9 93.9976,-63.9 93.9976,-41.5 -2.84217e-14,-41.5"/>
<text text-anchor="middle" x="46.9988" y="-49.1" font-family="-adobe-utopia-medium-i-normal--0-0-0-0-p-0-iso10646-1" font-size="12.00">SNP::getSNPID</text>
</g>
<!-- Node2 -->
<g id="node2" class="node"><title>Node2</title>
<g id="a_node2"><a xlink:href="classSNPs.html#a966e05b1d44910967919ed5aabf7f3a2" target="_top" xlink:title="SNPs::getGeneticDistance">
<polygon fill="white" stroke="black" points="129.998,-82.5 129.998,-104.9 273.292,-104.9 273.292,-82.5 129.998,-82.5"/>
<text text-anchor="middle" x="201.645" y="-90.1" font-family="-adobe-utopia-medium-i-normal--0-0-0-0-p-0-iso10646-1" font-size="12.00">SNPs::getGeneticDistance</text>
</a>
</g>
</g>
<!-- Node1&#45;&gt;Node2 -->
<g id="edge1" class="edge"><title>Node1&#45;&gt;Node2</title>
<path fill="none" stroke="midnightblue" d="M99.5379,-66.5431C118.801,-71.7171 140.427,-77.5257 158.719,-82.4389"/>
<polygon fill="midnightblue" stroke="midnightblue" points="100.276,-63.1173 89.71,-63.9034 98.4598,-69.8777 100.276,-63.1173"/>
</g>
<!-- Node7 -->
<g id="node7" class="node"><title>Node7</title>
<g id="a_node7"><a xlink:href="classGERMLINE.html#a7912aa3108f42f42e06c615b460d0565" target="_top" xlink:title="GERMLINE::mine">
<polygon fill="white" stroke="black" points="147.321,-41.5 147.321,-63.9 255.969,-63.9 255.969,-41.5 147.321,-41.5"/>
<text text-anchor="middle" x="201.645" y="-49.1" font-family="-adobe-utopia-medium-i-normal--0-0-0-0-p-0-iso10646-1" font-size="12.00">GERMLINE::mine</text>
</a>
</g>
</g>
<!-- Node1&#45;&gt;Node7 -->
<g id="edge6" class="edge"><title>Node1&#45;&gt;Node7</title>
<path fill="none" stroke="midnightblue" d="M104.212,-52.7C118.224,-52.7 133.208,-52.7 147.088,-52.7"/>
<polygon fill="midnightblue" stroke="midnightblue" points="104.212,-49.2001 94.2119,-52.7 104.212,-56.2001 104.212,-49.2001"/>
</g>
<!-- Node9 -->
<g id="node9" class="node"><title>Node9</title>
<g id="a_node9"><a xlink:href="classMatch.html#a989ae28b68842fc096ee6edb8c1595fd" target="_top" xlink:title="Match::print">
<polygon fill="white" stroke="black" points="163.65,-0.5 163.65,-22.9 239.64,-22.9 239.64,-0.5 163.65,-0.5"/>
<text text-anchor="middle" x="201.645" y="-8.1" font-family="-adobe-utopia-medium-i-normal--0-0-0-0-p-0-iso10646-1" font-size="12.00">Match::print</text>
</a>
</g>
</g>
<!-- Node1&#45;&gt;Node9 -->
<g id="edge8" class="edge"><title>Node1&#45;&gt;Node9</title>
<path fill="none" stroke="midnightblue" d="M99.4299,-38.8859C120.395,-33.2548 144.174,-26.8678 163.413,-21.7002"/>
<polygon fill="midnightblue" stroke="midnightblue" points="98.4598,-35.5223 89.71,-41.4966 100.276,-42.2827 98.4598,-35.5223"/>
</g>
<!-- Node3 -->
<g id="node3" class="node"><title>Node3</title>
<g id="a_node3"><a xlink:href="classSNPs.html#a0f26b6fbd02cc5afd8d423b411d304e8" target="_top" xlink:title="SNPs::processMAPFile">
<polygon fill="white" stroke="black" points="314.284,-130.5 314.284,-152.9 444.275,-152.9 444.275,-130.5 314.284,-130.5"/>
<text text-anchor="middle" x="379.28" y="-138.1" font-family="-adobe-utopia-medium-i-normal--0-0-0-0-p-0-iso10646-1" font-size="12.00">SNPs::processMAPFile</text>
</a>
</g>
</g>
<!-- Node2&#45;&gt;Node3 -->
<g id="edge2" class="edge"><title>Node2&#45;&gt;Node3</title>
<path fill="none" stroke="midnightblue" d="M253.687,-107.65C280.188,-114.892 312.143,-123.625 337.055,-130.434"/>
<polygon fill="midnightblue" stroke="midnightblue" points="254.392,-104.214 243.824,-104.954 252.547,-110.966 254.392,-104.214"/>
</g>
<!-- Node5 -->
<g id="node5" class="node"><title>Node5</title>
<g id="a_node5"><a xlink:href="classSNPs.html#a5ebf04c1e5d71710bd68af7a556864f9" target="_top" xlink:title="SNPs::processLegendFile">
<polygon fill="white" stroke="black" points="309.292,-82.5 309.292,-104.9 449.267,-104.9 449.267,-82.5 309.292,-82.5"/>
<text text-anchor="middle" x="379.28" y="-90.1" font-family="-adobe-utopia-medium-i-normal--0-0-0-0-p-0-iso10646-1" font-size="12.00">SNPs::processLegendFile</text>
</a>
</g>
</g>
<!-- Node2&#45;&gt;Node5 -->
<g id="edge4" class="edge"><title>Node2&#45;&gt;Node5</title>
<path fill="none" stroke="midnightblue" d="M283.378,-93.7C291.997,-93.7 300.707,-93.7 309.173,-93.7"/>
<polygon fill="midnightblue" stroke="midnightblue" points="283.323,-90.2001 273.323,-93.7 283.323,-97.2001 283.323,-90.2001"/>
</g>
<!-- Node4 -->
<g id="node4" class="node"><title>Node4</title>
<g id="a_node4"><a xlink:href="classPEDIndividualsExtractor.html#aaaae7102f9e3db6f900b3d56f559dc91" target="_top" xlink:title="PEDIndividualsExtractor\l::loadInput">
<polygon fill="white" stroke="black" points="485.267,-127.3 485.267,-164.1 622.568,-164.1 622.568,-127.3 485.267,-127.3"/>
<text text-anchor="start" x="493.267" y="-149.3" font-family="-adobe-utopia-medium-i-normal--0-0-0-0-p-0-iso10646-1" font-size="12.00">PEDIndividualsExtractor</text>
<text text-anchor="middle" x="553.917" y="-134.9" font-family="-adobe-utopia-medium-i-normal--0-0-0-0-p-0-iso10646-1" font-size="12.00">::loadInput</text>
</a>
</g>
</g>
<!-- Node3&#45;&gt;Node4 -->
<g id="edge3" class="edge"><title>Node3&#45;&gt;Node4</title>
<path fill="none" stroke="midnightblue" d="M454.603,-143.422C464.739,-143.657 475.1,-143.897 485.112,-144.129"/>
<polygon fill="midnightblue" stroke="midnightblue" points="454.642,-139.922 444.563,-143.189 454.48,-146.92 454.642,-139.922"/>
</g>
<!-- Node6 -->
<g id="node6" class="node"><title>Node6</title>
<g id="a_node6"><a xlink:href="classHMIndividualsExtractor.html#af7aaa5ed222fd00cc2c36e69a01a3bb3" target="_top" xlink:title="HMIndividualsExtractor\l::loadInput">
<polygon fill="white" stroke="black" points="486.934,-71.3 486.934,-108.1 620.9,-108.1 620.9,-71.3 486.934,-71.3"/>
<text text-anchor="start" x="494.934" y="-93.3" font-family="-adobe-utopia-medium-i-normal--0-0-0-0-p-0-iso10646-1" font-size="12.00">HMIndividualsExtractor</text>
<text text-anchor="middle" x="553.917" y="-78.9" font-family="-adobe-utopia-medium-i-normal--0-0-0-0-p-0-iso10646-1" font-size="12.00">::loadInput</text>
</a>
</g>
</g>
<!-- Node5&#45;&gt;Node6 -->
<g id="edge5" class="edge"><title>Node5&#45;&gt;Node6</title>
<path fill="none" stroke="midnightblue" d="M459.67,-91.8605C468.733,-91.6505 477.898,-91.4382 486.763,-91.2328"/>
<polygon fill="midnightblue" stroke="midnightblue" points="459.419,-88.3653 449.503,-92.0961 459.582,-95.3634 459.419,-88.3653"/>
</g>
<!-- Node8 -->
<g id="node8" class="node"><title>Node8</title>
<g id="a_node8"><a xlink:href="GERMLINE__0001_8cpp.html#a0ddf1224851353fc92bfbff6f499fa97" target="_top" xlink:title="main">
<polygon fill="white" stroke="black" points="359.281,-41.5 359.281,-63.9 399.278,-63.9 399.278,-41.5 359.281,-41.5"/>
<text text-anchor="middle" x="379.28" y="-49.1" font-family="-adobe-utopia-medium-i-normal--0-0-0-0-p-0-iso10646-1" font-size="12.00">main</text>
</a>
</g>
</g>
<!-- Node7&#45;&gt;Node8 -->
<g id="edge7" class="edge"><title>Node7&#45;&gt;Node8</title>
<path fill="none" stroke="midnightblue" d="M266.315,-52.7C299.178,-52.7 336.933,-52.7 359.134,-52.7"/>
<polygon fill="midnightblue" stroke="midnightblue" points="266.296,-49.2001 256.296,-52.7 266.295,-56.2001 266.296,-49.2001"/>
</g>
</g>
</svg>
