<?xml version="1.0" encoding="UTF-8" standalone="no"?>
<!DOCTYPE svg PUBLIC "-//W3C//DTD SVG 1.1//EN"
 "http://www.w3.org/Graphics/SVG/1.1/DTD/svg11.dtd">
<!-- Generated by graphviz version 2.38.0 (20140413.2041)
 -->
<!-- Title: MatchesBuilder::matchMarkerSet Pages: 1 -->
<svg width="1078pt" height="313pt"
 viewBox="0.00 0.00 1078.43 313.40" xmlns="http://www.w3.org/2000/svg" xmlns:xlink="http://www.w3.org/1999/xlink">
<g id="graph0" class="graph" transform="scale(1 1) rotate(0) translate(4 309.4)">
<title>MatchesBuilder::matchMarkerSet</title>
<polygon fill="white" stroke="none" points="-4,4 -4,-309.4 1074.43,-309.4 1074.43,4 -4,4"/>
<!-- Node1 -->
<g id="node1" class="node"><title>Node1</title>
<polygon fill="#bfbfbf" stroke="black" points="-9.9476e-14,-123.5 -9.9476e-14,-145.9 179.278,-145.9 179.278,-123.5 -9.9476e-14,-123.5"/>
<text text-anchor="middle" x="89.639" y="-131.1" font-family="-adobe-utopia-medium-i-normal--0-0-0-0-p-0-iso10646-1" font-size="12.00">MatchesBuilder::matchMarkerSet</text>
</g>
<!-- Node2 -->
<g id="node2" class="node"><title>Node2</title>
<g id="a_node2"><a xlink:href="classMatchFactory.html#a247e2d6028e27d243b97b2df0f035f1f" target="_top" xlink:title="MatchFactory::assertShares">
<polygon fill="white" stroke="black" points="215.278,-282.5 215.278,-304.9 364.56,-304.9 364.56,-282.5 215.278,-282.5"/>
<text text-anchor="middle" x="289.919" y="-290.1" font-family="-adobe-utopia-medium-i-normal--0-0-0-0-p-0-iso10646-1" font-size="12.00">MatchFactory::assertShares</text>
</a>
</g>
</g>
<!-- Node1&#45;&gt;Node2 -->
<g id="edge1" class="edge"><title>Node1&#45;&gt;Node2</title>
<path fill="none" stroke="midnightblue" d="M98.3156,-146.04C116.022,-171.381 162.291,-233.089 215.278,-267.7 221.823,-271.975 229.155,-275.643 236.588,-278.761"/>
<polygon fill="midnightblue" stroke="midnightblue" points="235.416,-282.061 246.005,-282.42 237.951,-275.536 235.416,-282.061"/>
</g>
<!-- Node3 -->
<g id="node3" class="node"><title>Node3</title>
<g id="a_node3"><a xlink:href="classIndividual.html#a37fd25dcc27a8613ca4e5a8d9bcbaca6" target="_top" xlink:title="Individual::assertShares">
<polygon fill="white" stroke="black" points="599.863,-244.5 599.863,-266.9 731.162,-266.9 731.162,-244.5 599.863,-244.5"/>
<text text-anchor="middle" x="665.512" y="-252.1" font-family="-adobe-utopia-medium-i-normal--0-0-0-0-p-0-iso10646-1" font-size="12.00">Individual::assertShares</text>
</a>
</g>
</g>
<!-- Node1&#45;&gt;Node3 -->
<g id="edge2" class="edge"><title>Node1&#45;&gt;Node3</title>
<path fill="none" stroke="midnightblue" d="M109.341,-146.135C133.11,-160.159 175.805,-183.666 215.278,-196.7 342.222,-238.617 498.605,-250.882 589.393,-254.391"/>
<polygon fill="midnightblue" stroke="midnightblue" points="589.472,-257.896 599.592,-254.759 589.724,-250.901 589.472,-257.896"/>
</g>
<!-- Node8 -->
<g id="node8" class="node"><title>Node8</title>
<g id="a_node8"><a xlink:href="classIndividuals.html#ac1f8fff7b6e6a737ababc975495b5f65" target="_top" xlink:title="Individuals::begin">
<polygon fill="white" stroke="black" points="238.257,-123.5 238.257,-145.9 341.581,-145.9 341.581,-123.5 238.257,-123.5"/>
<text text-anchor="middle" x="289.919" y="-131.1" font-family="-adobe-utopia-medium-i-normal--0-0-0-0-p-0-iso10646-1" font-size="12.00">Individuals::begin</text>
</a>
</g>
</g>
<!-- Node1&#45;&gt;Node8 -->
<g id="edge7" class="edge"><title>Node1&#45;&gt;Node8</title>
<path fill="none" stroke="midnightblue" d="M179.34,-134.7C195.677,-134.7 212.396,-134.7 227.696,-134.7"/>
<polygon fill="midnightblue" stroke="midnightblue" points="228.04,-138.2 238.04,-134.7 228.04,-131.2 228.04,-138.2"/>
</g>
<!-- Node9 -->
<g id="node9" class="node"><title>Node9</title>
<g id="a_node9"><a xlink:href="classMatchFactory.html#aa1f3b5e8f0e2fbd5ac2dcbc24a9e6812" target="_top" xlink:title="MatchFactory::hash">
<polygon fill="white" stroke="black" points="233.933,-164.5 233.933,-186.9 345.905,-186.9 345.905,-164.5 233.933,-164.5"/>
<text text-anchor="middle" x="289.919" y="-172.1" font-family="-adobe-utopia-medium-i-normal--0-0-0-0-p-0-iso10646-1" font-size="12.00">MatchFactory::hash</text>
</a>
</g>
</g>
<!-- Node1&#45;&gt;Node9 -->
<g id="edge8" class="edge"><title>Node1&#45;&gt;Node9</title>
<path fill="none" stroke="midnightblue" d="M144.82,-145.903C169.418,-150.99 198.7,-157.045 224.423,-162.364"/>
<polygon fill="midnightblue" stroke="midnightblue" points="223.958,-165.841 234.459,-164.439 225.375,-158.986 223.958,-165.841"/>
</g>
<!-- Node13 -->
<g id="node13" class="node"><title>Node13</title>
<g id="a_node13"><a xlink:href="classMatchFactory.html#af71633ad61d5812b60e3d64c37cd64d4" target="_top" xlink:title="MatchFactory::initialize">
<polygon fill="white" stroke="black" points="223.935,-82.5 223.935,-104.9 355.903,-104.9 355.903,-82.5 223.935,-82.5"/>
<text text-anchor="middle" x="289.919" y="-90.1" font-family="-adobe-utopia-medium-i-normal--0-0-0-0-p-0-iso10646-1" font-size="12.00">MatchFactory::initialize</text>
</a>
</g>
</g>
<!-- Node1&#45;&gt;Node13 -->
<g id="edge16" class="edge"><title>Node1&#45;&gt;Node13</title>
<path fill="none" stroke="midnightblue" d="M144.82,-123.497C169.418,-118.41 198.7,-112.355 224.423,-107.036"/>
<polygon fill="midnightblue" stroke="midnightblue" points="225.375,-110.414 234.459,-104.961 223.958,-103.559 225.375,-110.414"/>
</g>
<!-- Node14 -->
<g id="node14" class="node"><title>Node14</title>
<g id="a_node14"><a xlink:href="classIndividuals.html#ac9d09bbae9d26e39364b099c4366daf1" target="_top" xlink:title="Individuals::more">
<polygon fill="white" stroke="black" points="239.259,-41.5 239.259,-63.9 340.578,-63.9 340.578,-41.5 239.259,-41.5"/>
<text text-anchor="middle" x="289.919" y="-49.1" font-family="-adobe-utopia-medium-i-normal--0-0-0-0-p-0-iso10646-1" font-size="12.00">Individuals::more</text>
</a>
</g>
</g>
<!-- Node1&#45;&gt;Node14 -->
<g id="edge17" class="edge"><title>Node1&#45;&gt;Node14</title>
<path fill="none" stroke="midnightblue" d="M110.385,-123.355C134.513,-109.853 176.875,-87.3038 215.278,-72.7 220.752,-70.6185 226.531,-68.6595 232.346,-66.8428"/>
<polygon fill="midnightblue" stroke="midnightblue" points="233.541,-70.1389 242.121,-63.9233 231.537,-63.4317 233.541,-70.1389"/>
</g>
<!-- Node15 -->
<g id="node15" class="node"><title>Node15</title>
<g id="a_node15"><a xlink:href="classIndividuals.html#a1bd919e3eef3e84c8849623789051f08" target="_top" xlink:title="Individuals::next">
<polygon fill="white" stroke="black" points="241.257,-0.5 241.257,-22.9 338.581,-22.9 338.581,-0.5 241.257,-0.5"/>
<text text-anchor="middle" x="289.919" y="-8.1" font-family="-adobe-utopia-medium-i-normal--0-0-0-0-p-0-iso10646-1" font-size="12.00">Individuals::next</text>
</a>
</g>
</g>
<!-- Node1&#45;&gt;Node15 -->
<g id="edge18" class="edge"><title>Node1&#45;&gt;Node15</title>
<path fill="none" stroke="midnightblue" d="M101.14,-123.254C121.239,-102.032 167.42,-56.4884 215.278,-31.7 220.403,-29.0457 225.915,-26.7156 231.536,-24.6763"/>
<polygon fill="midnightblue" stroke="midnightblue" points="232.663,-27.99 241.047,-21.5128 230.454,-21.3478 232.663,-27.99"/>
</g>
<!-- Node4 -->
<g id="node4" class="node"><title>Node4</title>
<g id="a_node4"><a xlink:href="classMatch.html#a7c47a9c7017d308d2ae58fac5a204179" target="_top" xlink:title="Match::approxEqual">
<polygon fill="white" stroke="black" points="767.162,-164.5 767.162,-186.9 881.8,-186.9 881.8,-164.5 767.162,-164.5"/>
<text text-anchor="middle" x="824.481" y="-172.1" font-family="-adobe-utopia-medium-i-normal--0-0-0-0-p-0-iso10646-1" font-size="12.00">Match::approxEqual</text>
</a>
</g>
</g>
<!-- Node3&#45;&gt;Node4 -->
<g id="edge3" class="edge"><title>Node3&#45;&gt;Node4</title>
<path fill="none" stroke="midnightblue" d="M688.669,-244.408C715.781,-230.59 761.845,-207.113 792.467,-191.506"/>
<polygon fill="midnightblue" stroke="midnightblue" points="794.117,-194.594 801.437,-186.935 790.938,-188.357 794.117,-194.594"/>
</g>
<!-- Node5 -->
<g id="node5" class="node"><title>Node5</title>
<g id="a_node5"><a xlink:href="classIndividual.html#adab24d093d691c3e84bdce0b2d2f3a81" target="_top" xlink:title="Individual::getChromosome">
<polygon fill="white" stroke="black" points="918.459,-60.5 918.459,-82.9 1069.78,-82.9 1069.78,-60.5 918.459,-60.5"/>
<text text-anchor="middle" x="994.118" y="-68.1" font-family="-adobe-utopia-medium-i-normal--0-0-0-0-p-0-iso10646-1" font-size="12.00">Individual::getChromosome</text>
</a>
</g>
</g>
<!-- Node4&#45;&gt;Node5 -->
<g id="edge4" class="edge"><title>Node4&#45;&gt;Node5</title>
<path fill="none" stroke="midnightblue" d="M843.74,-164.372C873.341,-146.008 931.945,-109.651 966.292,-88.3422"/>
<polygon fill="midnightblue" stroke="midnightblue" points="968.229,-91.2598 974.881,-83.0138 964.538,-85.3115 968.229,-91.2598"/>
</g>
<!-- Node6 -->
<g id="node6" class="node"><title>Node6</title>
<g id="a_node6"><a xlink:href="classMarkerSet.html#a4875bf7f161c77ff90c15936fee29ff0" target="_top" xlink:title="MarkerSet::getMarkerBits">
<polygon fill="white" stroke="black" points="922.806,-184.5 922.806,-206.9 1065.43,-206.9 1065.43,-184.5 922.806,-184.5"/>
<text text-anchor="middle" x="994.118" y="-192.1" font-family="-adobe-utopia-medium-i-normal--0-0-0-0-p-0-iso10646-1" font-size="12.00">MarkerSet::getMarkerBits</text>
</a>
</g>
</g>
<!-- Node4&#45;&gt;Node6 -->
<g id="edge5" class="edge"><title>Node4&#45;&gt;Node6</title>
<path fill="none" stroke="midnightblue" d="M882.235,-182.471C891.995,-183.635 902.303,-184.865 912.547,-186.087"/>
<polygon fill="midnightblue" stroke="midnightblue" points="912.401,-189.595 922.746,-187.304 913.231,-182.644 912.401,-189.595"/>
</g>
<!-- Node7 -->
<g id="node7" class="node"><title>Node7</title>
<g id="a_node7"><a xlink:href="classChromosome.html#a6acf26d0b4a7e2651be613ea14c20a1b" target="_top" xlink:title="Chromosome::getMarkerSet">
<polygon fill="white" stroke="black" points="917.8,-129.5 917.8,-151.9 1070.43,-151.9 1070.43,-129.5 917.8,-129.5"/>
<text text-anchor="middle" x="994.118" y="-137.1" font-family="-adobe-utopia-medium-i-normal--0-0-0-0-p-0-iso10646-1" font-size="12.00">Chromosome::getMarkerSet</text>
</a>
</g>
</g>
<!-- Node4&#45;&gt;Node7 -->
<g id="edge6" class="edge"><title>Node4&#45;&gt;Node7</title>
<path fill="none" stroke="midnightblue" d="M879.445,-164.433C895.298,-161.123 912.789,-157.471 929.2,-154.045"/>
<polygon fill="midnightblue" stroke="midnightblue" points="930.181,-157.416 939.255,-151.946 928.75,-150.563 930.181,-157.416"/>
</g>
<!-- Node9&#45;&gt;Node5 -->
<g id="edge13" class="edge"><title>Node9&#45;&gt;Node5</title>
<path fill="none" stroke="midnightblue" d="M346.046,-166.782C352.778,-164.014 359.17,-160.405 364.56,-155.7 395.466,-128.719 366.357,-93.3577 400.56,-70.7 575.48,45.1784 847.804,-24.2213 951.296,-57.2264"/>
<polygon fill="midnightblue" stroke="midnightblue" points="950.471,-60.6384 961.063,-60.3944 952.631,-53.9798 950.471,-60.6384"/>
</g>
<!-- Node9&#45;&gt;Node6 -->
<g id="edge15" class="edge"><title>Node9&#45;&gt;Node6</title>
<path fill="none" stroke="midnightblue" d="M338.94,-186.937C358.005,-190.862 380.204,-194.768 400.56,-196.7 582.985,-214.013 798.425,-206.749 912.619,-200.728"/>
<polygon fill="midnightblue" stroke="midnightblue" points="912.881,-204.219 922.678,-200.187 912.505,-197.229 912.881,-204.219"/>
</g>
<!-- Node9&#45;&gt;Node7 -->
<g id="edge14" class="edge"><title>Node9&#45;&gt;Node7</title>
<path fill="none" stroke="midnightblue" d="M345.969,-164.71C352.49,-162.275 358.848,-159.31 364.56,-155.7 385.342,-142.564 378.223,-123.973 400.56,-113.7 590.06,-26.5424 850.627,-94.2021 951.185,-126.259"/>
<polygon fill="midnightblue" stroke="midnightblue" points="950.377,-129.676 960.969,-129.428 952.534,-123.017 950.377,-129.676"/>
</g>
<!-- Node10 -->
<g id="node10" class="node"><title>Node10</title>
<g id="a_node10"><a xlink:href="classIndividual.html#a7c494813e7d0f7f4f235cd75185fd2be" target="_top" xlink:title="Individual::numHet">
<polygon fill="white" stroke="black" points="426.884,-123.5 426.884,-145.9 537.539,-145.9 537.539,-123.5 426.884,-123.5"/>
<text text-anchor="middle" x="482.211" y="-131.1" font-family="-adobe-utopia-medium-i-normal--0-0-0-0-p-0-iso10646-1" font-size="12.00">Individual::numHet</text>
</a>
</g>
</g>
<!-- Node9&#45;&gt;Node10 -->
<g id="edge9" class="edge"><title>Node9&#45;&gt;Node10</title>
<path fill="none" stroke="midnightblue" d="M342.917,-164.497C366.419,-159.433 394.378,-153.409 418.986,-148.107"/>
<polygon fill="midnightblue" stroke="midnightblue" points="419.907,-151.489 428.946,-145.961 418.433,-144.646 419.907,-151.489"/>
</g>
<!-- Node11 -->
<g id="node11" class="node"><title>Node11</title>
<g id="a_node11"><a xlink:href="classIndividual.html#a6e75847d9fdd923bd0cf7a9ec5e2b1a4" target="_top" xlink:title="Individual::assertHomozygous">
<polygon fill="white" stroke="black" points="400.56,-164.5 400.56,-186.9 563.863,-186.9 563.863,-164.5 400.56,-164.5"/>
<text text-anchor="middle" x="482.211" y="-172.1" font-family="-adobe-utopia-medium-i-normal--0-0-0-0-p-0-iso10646-1" font-size="12.00">Individual::assertHomozygous</text>
</a>
</g>
</g>
<!-- Node9&#45;&gt;Node11 -->
<g id="edge10" class="edge"><title>Node9&#45;&gt;Node11</title>
<path fill="none" stroke="midnightblue" d="M345.959,-175.7C359.783,-175.7 374.989,-175.7 390.062,-175.7"/>
<polygon fill="midnightblue" stroke="midnightblue" points="390.456,-179.2 400.456,-175.7 390.456,-172.2 390.456,-179.2"/>
</g>
<!-- Node12 -->
<g id="node12" class="node"><title>Node12</title>
<g id="a_node12"><a xlink:href="classMatch.html#afb81327901b29b02ff117406cdec0a4e" target="_top" xlink:title="Match::extendBack">
<polygon fill="white" stroke="black" points="610.528,-164.5 610.528,-186.9 720.497,-186.9 720.497,-164.5 610.528,-164.5"/>
<text text-anchor="middle" x="665.512" y="-172.1" font-family="-adobe-utopia-medium-i-normal--0-0-0-0-p-0-iso10646-1" font-size="12.00">Match::extendBack</text>
</a>
</g>
</g>
<!-- Node11&#45;&gt;Node12 -->
<g id="edge11" class="edge"><title>Node11&#45;&gt;Node12</title>
<path fill="none" stroke="midnightblue" d="M564.053,-175.7C576.176,-175.7 588.537,-175.7 600.253,-175.7"/>
<polygon fill="midnightblue" stroke="midnightblue" points="600.361,-179.2 610.361,-175.7 600.361,-172.2 600.361,-179.2"/>
</g>
<!-- Node12&#45;&gt;Node4 -->
<g id="edge12" class="edge"><title>Node12&#45;&gt;Node4</title>
<path fill="none" stroke="midnightblue" d="M720.532,-175.7C732.241,-175.7 744.757,-175.7 756.885,-175.7"/>
<polygon fill="midnightblue" stroke="midnightblue" points="756.956,-179.2 766.956,-175.7 756.956,-172.2 756.956,-179.2"/>
</g>
</g>
</svg>
