<?xml version="1.0" encoding="UTF-8" standalone="no"?>
<!DOCTYPE svg PUBLIC "-//W3C//DTD SVG 1.1//EN"
 "http://www.w3.org/Graphics/SVG/1.1/DTD/svg11.dtd">
<!-- Generated by graphviz version 2.38.0 (20140413.2041)
 -->
<!-- Title: SNP::setPhysPos Pages: 1 -->
<svg width="456pt" height="102pt"
 viewBox="0.00 0.00 455.95 101.80" xmlns="http://www.w3.org/2000/svg" xmlns:xlink="http://www.w3.org/1999/xlink">
<g id="graph0" class="graph" transform="scale(1 1) rotate(0) translate(4 97.8)">
<title>SNP::setPhysPos</title>
<polygon fill="white" stroke="none" points="-4,4 -4,-97.8 451.953,-97.8 451.953,4 -4,4"/>
<!-- Node1 -->
<g id="node1" class="node"><title>Node1</title>
<polygon fill="#bfbfbf" stroke="black" points="-1.42109e-14,-36.7 -1.42109e-14,-59.1 98.6776,-59.1 98.6776,-36.7 -1.42109e-14,-36.7"/>
<text text-anchor="middle" x="49.3388" y="-44.3" font-family="-adobe-utopia-medium-i-normal--0-0-0-0-p-0-iso10646-1" font-size="12.00">SNP::setPhysPos</text>
</g>
<!-- Node2 -->
<g id="node2" class="node"><title>Node2</title>
<g id="a_node2"><a xlink:href="classSNPs.html#a5ebf04c1e5d71710bd68af7a556864f9" target="_top" xlink:title="SNPs::processLegendFile">
<polygon fill="white" stroke="black" points="134.678,-59.7 134.678,-82.1 274.652,-82.1 274.652,-59.7 134.678,-59.7"/>
<text text-anchor="middle" x="204.665" y="-67.3" font-family="-adobe-utopia-medium-i-normal--0-0-0-0-p-0-iso10646-1" font-size="12.00">SNPs::processLegendFile</text>
</a>
</g>
</g>
<!-- Node1&#45;&gt;Node2 -->
<g id="edge1" class="edge"><title>Node1&#45;&gt;Node2</title>
<path fill="none" stroke="midnightblue" d="M108.876,-56.681C117.242,-57.9359 125.913,-59.2366 134.459,-60.5187"/>
<polygon fill="midnightblue" stroke="midnightblue" points="109.261,-53.1996 98.8521,-55.1773 108.222,-60.1222 109.261,-53.1996"/>
</g>
<!-- Node4 -->
<g id="node4" class="node"><title>Node4</title>
<g id="a_node4"><a xlink:href="classSNPs.html#a0f26b6fbd02cc5afd8d423b411d304e8" target="_top" xlink:title="SNPs::processMAPFile">
<polygon fill="white" stroke="black" points="139.67,-14.7 139.67,-37.1 269.66,-37.1 269.66,-14.7 139.67,-14.7"/>
<text text-anchor="middle" x="204.665" y="-22.3" font-family="-adobe-utopia-medium-i-normal--0-0-0-0-p-0-iso10646-1" font-size="12.00">SNPs::processMAPFile</text>
</a>
</g>
</g>
<!-- Node1&#45;&gt;Node4 -->
<g id="edge3" class="edge"><title>Node1&#45;&gt;Node4</title>
<path fill="none" stroke="midnightblue" d="M109.043,-39.4769C119,-38.0482 129.385,-36.5581 139.474,-35.1105"/>
<polygon fill="midnightblue" stroke="midnightblue" points="108.254,-36.0542 98.8521,-40.9391 109.248,-42.9832 108.254,-36.0542"/>
</g>
<!-- Node3 -->
<g id="node3" class="node"><title>Node3</title>
<g id="a_node3"><a xlink:href="classHMIndividualsExtractor.html#af7aaa5ed222fd00cc2c36e69a01a3bb3" target="_top" xlink:title="HMIndividualsExtractor\l::loadInput">
<polygon fill="white" stroke="black" points="312.319,-56.5 312.319,-93.3 446.285,-93.3 446.285,-56.5 312.319,-56.5"/>
<text text-anchor="start" x="320.319" y="-78.5" font-family="-adobe-utopia-medium-i-normal--0-0-0-0-p-0-iso10646-1" font-size="12.00">HMIndividualsExtractor</text>
<text text-anchor="middle" x="379.302" y="-64.1" font-family="-adobe-utopia-medium-i-normal--0-0-0-0-p-0-iso10646-1" font-size="12.00">::loadInput</text>
</a>
</g>
</g>
<!-- Node2&#45;&gt;Node3 -->
<g id="edge2" class="edge"><title>Node2&#45;&gt;Node3</title>
<path fill="none" stroke="midnightblue" d="M285.055,-72.7395C294.118,-72.9495 303.284,-73.1618 312.148,-73.3672"/>
<polygon fill="midnightblue" stroke="midnightblue" points="284.967,-69.2366 274.888,-72.5039 284.805,-76.2347 284.967,-69.2366"/>
</g>
<!-- Node5 -->
<g id="node5" class="node"><title>Node5</title>
<g id="a_node5"><a xlink:href="classPEDIndividualsExtractor.html#aaaae7102f9e3db6f900b3d56f559dc91" target="_top" xlink:title="PEDIndividualsExtractor\l::loadInput">
<polygon fill="white" stroke="black" points="310.652,-0.5 310.652,-37.3 447.953,-37.3 447.953,-0.5 310.652,-0.5"/>
<text text-anchor="start" x="318.652" y="-22.5" font-family="-adobe-utopia-medium-i-normal--0-0-0-0-p-0-iso10646-1" font-size="12.00">PEDIndividualsExtractor</text>
<text text-anchor="middle" x="379.302" y="-8.1" font-family="-adobe-utopia-medium-i-normal--0-0-0-0-p-0-iso10646-1" font-size="12.00">::loadInput</text>
</a>
</g>
</g>
<!-- Node4&#45;&gt;Node5 -->
<g id="edge4" class="edge"><title>Node4&#45;&gt;Node5</title>
<path fill="none" stroke="midnightblue" d="M279.988,-22.8864C290.124,-22.4754 300.485,-22.0553 310.497,-21.6493"/>
<polygon fill="midnightblue" stroke="midnightblue" points="279.799,-19.3911 269.949,-23.2935 280.082,-26.3853 279.799,-19.3911"/>
</g>
</g>
</svg>
