<?xml version="1.0" encoding="UTF-8" standalone="no"?>
<!DOCTYPE svg PUBLIC "-//W3C//DTD SVG 1.1//EN"
 "http://www.w3.org/Graphics/SVG/1.1/DTD/svg11.dtd">
<!-- Generated by graphviz version 2.38.0 (20140413.2041)
 -->
<!-- Title: SNPs::size Pages: 1 -->
<svg width="249pt" height="102pt"
 viewBox="0.00 0.00 249.30 101.80" xmlns="http://www.w3.org/2000/svg" xmlns:xlink="http://www.w3.org/1999/xlink">
<g id="graph0" class="graph" transform="scale(1 1) rotate(0) translate(4 97.8)">
<title>SNPs::size</title>
<polygon fill="white" stroke="none" points="-4,4 -4,-97.8 245.297,-97.8 245.297,4 -4,4"/>
<!-- Node1 -->
<g id="node1" class="node"><title>Node1</title>
<polygon fill="#bfbfbf" stroke="black" points="-7.10543e-15,-35.7 -7.10543e-15,-58.1 67.996,-58.1 67.996,-35.7 -7.10543e-15,-35.7"/>
<text text-anchor="middle" x="33.998" y="-43.3" font-family="-adobe-utopia-medium-i-normal--0-0-0-0-p-0-iso10646-1" font-size="12.00">SNPs::size</text>
</g>
<!-- Node2 -->
<g id="node2" class="node"><title>Node2</title>
<g id="a_node2"><a xlink:href="classPEDIndividualsExtractor.html#aaaae7102f9e3db6f900b3d56f559dc91" target="_top" xlink:title="PEDIndividualsExtractor\l::loadInput">
<polygon fill="white" stroke="black" points="103.996,-56.5 103.996,-93.3 241.297,-93.3 241.297,-56.5 103.996,-56.5"/>
<text text-anchor="start" x="111.996" y="-78.5" font-family="-adobe-utopia-medium-i-normal--0-0-0-0-p-0-iso10646-1" font-size="12.00">PEDIndividualsExtractor</text>
<text text-anchor="middle" x="172.646" y="-64.1" font-family="-adobe-utopia-medium-i-normal--0-0-0-0-p-0-iso10646-1" font-size="12.00">::loadInput</text>
</a>
</g>
</g>
<!-- Node1&#45;&gt;Node2 -->
<g id="edge1" class="edge"><title>Node1&#45;&gt;Node2</title>
<path fill="none" stroke="midnightblue" d="M78.1009,-55.732C86.2858,-57.4092 95.0325,-59.2014 103.769,-60.9916"/>
<polygon fill="midnightblue" stroke="midnightblue" points="78.5758,-52.2567 68.0768,-53.678 77.1706,-59.1142 78.5758,-52.2567"/>
</g>
<!-- Node3 -->
<g id="node3" class="node"><title>Node3</title>
<g id="a_node3"><a xlink:href="classHMIndividualsExtractor.html#af7aaa5ed222fd00cc2c36e69a01a3bb3" target="_top" xlink:title="HMIndividualsExtractor\l::loadInput">
<polygon fill="white" stroke="black" points="105.663,-0.5 105.663,-37.3 239.629,-37.3 239.629,-0.5 105.663,-0.5"/>
<text text-anchor="start" x="113.663" y="-22.5" font-family="-adobe-utopia-medium-i-normal--0-0-0-0-p-0-iso10646-1" font-size="12.00">HMIndividualsExtractor</text>
<text text-anchor="middle" x="172.646" y="-8.1" font-family="-adobe-utopia-medium-i-normal--0-0-0-0-p-0-iso10646-1" font-size="12.00">::loadInput</text>
</a>
</g>
</g>
<!-- Node1&#45;&gt;Node3 -->
<g id="edge2" class="edge"><title>Node1&#45;&gt;Node3</title>
<path fill="none" stroke="midnightblue" d="M77.9854,-38.0916C86.713,-36.3033 96.0832,-34.3833 105.402,-32.4739"/>
<polygon fill="midnightblue" stroke="midnightblue" points="77.1706,-34.6858 68.0768,-40.122 78.5758,-41.5433 77.1706,-34.6858"/>
</g>
</g>
</svg>
