<?xml version="1.0" encoding="UTF-8" standalone="no"?>
<!DOCTYPE svg PUBLIC "-//W3C//DTD SVG 1.1//EN"
 "http://www.w3.org/Graphics/SVG/1.1/DTD/svg11.dtd">
<!-- Generated by graphviz version 2.38.0 (20140413.2041)
 -->
<!-- Title: MatchesBuilder::buildMatches Pages: 1 -->
<svg width="1518pt" height="436pt"
 viewBox="0.00 0.00 1517.69 435.91" xmlns="http://www.w3.org/2000/svg" xmlns:xlink="http://www.w3.org/1999/xlink">
<g id="graph0" class="graph" transform="scale(1 1) rotate(0) translate(4 431.905)">
<title>MatchesBuilder::buildMatches</title>
<polygon fill="white" stroke="none" points="-4,4 -4,-431.905 1513.69,-431.905 1513.69,4 -4,4"/>
<!-- Node1 -->
<g id="node1" class="node"><title>Node1</title>
<polygon fill="#bfbfbf" stroke="black" points="-4.26326e-14,-268.805 -4.26326e-14,-291.205 164.631,-291.205 164.631,-268.805 -4.26326e-14,-268.805"/>
<text text-anchor="middle" x="82.3154" y="-276.405" font-family="-adobe-utopia-medium-i-normal--0-0-0-0-p-0-iso10646-1" font-size="12.00">MatchesBuilder::buildMatches</text>
</g>
<!-- Node2 -->
<g id="node2" class="node"><title>Node2</title>
<g id="a_node2"><a xlink:href="classMatchesBuilder.html#ae8d8a0ff7f0726406e83d4fa55a96bf4" target="_top" xlink:title="MatchesBuilder::matchAll\lMarkers">
<polygon fill="white" stroke="black" points="216.282,-231.605 216.282,-268.405 360.25,-268.405 360.25,-231.605 216.282,-231.605"/>
<text text-anchor="start" x="224.282" y="-253.605" font-family="-adobe-utopia-medium-i-normal--0-0-0-0-p-0-iso10646-1" font-size="12.00">MatchesBuilder::matchAll</text>
<text text-anchor="middle" x="288.266" y="-239.205" font-family="-adobe-utopia-medium-i-normal--0-0-0-0-p-0-iso10646-1" font-size="12.00">Markers</text>
</a>
</g>
</g>
<!-- Node1&#45;&gt;Node2 -->
<g id="edge1" class="edge"><title>Node1&#45;&gt;Node2</title>
<path fill="none" stroke="midnightblue" d="M159.549,-268.792C174.77,-266.553 190.81,-264.193 206.188,-261.931"/>
<polygon fill="midnightblue" stroke="midnightblue" points="206.798,-265.379 216.182,-260.461 205.779,-258.454 206.798,-265.379"/>
</g>
<!-- Node18 -->
<g id="node18" class="node"><title>Node18</title>
<g id="a_node18"><a xlink:href="classMatchesBuilder.html#ad627b36445ae9df99c732b23c8b06547" target="_top" xlink:title="MatchesBuilder::readAllMarkers">
<polygon fill="white" stroke="black" points="200.631,-299.805 200.631,-322.205 375.901,-322.205 375.901,-299.805 200.631,-299.805"/>
<text text-anchor="middle" x="288.266" y="-307.405" font-family="-adobe-utopia-medium-i-normal--0-0-0-0-p-0-iso10646-1" font-size="12.00">MatchesBuilder::readAllMarkers</text>
</a>
</g>
</g>
<!-- Node1&#45;&gt;Node18 -->
<g id="edge21" class="edge"><title>Node1&#45;&gt;Node18</title>
<path fill="none" stroke="midnightblue" d="M157.235,-291.241C172.197,-293.515 188.033,-295.922 203.312,-298.244"/>
<polygon fill="midnightblue" stroke="midnightblue" points="202.844,-301.713 213.257,-299.756 203.896,-294.793 202.844,-301.713"/>
</g>
<!-- Node3 -->
<g id="node3" class="node"><title>Node3</title>
<g id="a_node3"><a xlink:href="classMatchesBuilder.html#af44853a4e7540f4f54a802a5d0c45faf" target="_top" xlink:title="MatchesBuilder::matchMarkerSet">
<polygon fill="white" stroke="black" points="411.901,-232.805 411.901,-255.205 591.179,-255.205 591.179,-232.805 411.901,-232.805"/>
<text text-anchor="middle" x="501.54" y="-240.405" font-family="-adobe-utopia-medium-i-normal--0-0-0-0-p-0-iso10646-1" font-size="12.00">MatchesBuilder::matchMarkerSet</text>
</a>
</g>
</g>
<!-- Node2&#45;&gt;Node3 -->
<g id="edge2" class="edge"><title>Node2&#45;&gt;Node3</title>
<path fill="none" stroke="midnightblue" d="M360.499,-247.982C373.705,-247.607 387.717,-247.209 401.575,-246.816"/>
<polygon fill="midnightblue" stroke="midnightblue" points="401.729,-250.313 411.625,-246.53 401.53,-243.316 401.729,-250.313"/>
</g>
<!-- Node4 -->
<g id="node4" class="node"><title>Node4</title>
<g id="a_node4"><a xlink:href="classIndividuals.html#ac1f8fff7b6e6a737ababc975495b5f65" target="_top" xlink:title="Individuals::begin">
<polygon fill="white" stroke="black" points="663.833,-348.805 663.833,-371.205 767.157,-371.205 767.157,-348.805 663.833,-348.805"/>
<text text-anchor="middle" x="715.495" y="-356.405" font-family="-adobe-utopia-medium-i-normal--0-0-0-0-p-0-iso10646-1" font-size="12.00">Individuals::begin</text>
</a>
</g>
</g>
<!-- Node3&#45;&gt;Node4 -->
<g id="edge3" class="edge"><title>Node3&#45;&gt;Node4</title>
<path fill="none" stroke="midnightblue" d="M532.182,-255.216C550.49,-263.1 573.733,-274.927 591.179,-290.005 611.896,-307.911 604.364,-324.862 627.179,-340.005 635.161,-345.303 644.357,-349.209 653.721,-352.087"/>
<polygon fill="midnightblue" stroke="midnightblue" points="652.93,-355.498 663.497,-354.728 654.756,-348.741 652.93,-355.498"/>
</g>
<!-- Node5 -->
<g id="node5" class="node"><title>Node5</title>
<g id="a_node5"><a xlink:href="classIndividuals.html#ac9d09bbae9d26e39364b099c4366daf1" target="_top" xlink:title="Individuals::more">
<polygon fill="white" stroke="black" points="664.836,-307.805 664.836,-330.205 766.155,-330.205 766.155,-307.805 664.836,-307.805"/>
<text text-anchor="middle" x="715.495" y="-315.405" font-family="-adobe-utopia-medium-i-normal--0-0-0-0-p-0-iso10646-1" font-size="12.00">Individuals::more</text>
</a>
</g>
</g>
<!-- Node3&#45;&gt;Node5 -->
<g id="edge4" class="edge"><title>Node3&#45;&gt;Node5</title>
<path fill="none" stroke="midnightblue" d="M524.55,-255.255C549.068,-267.42 590.139,-286.715 627.179,-299.005 635.959,-301.918 645.373,-304.558 654.653,-306.893"/>
<polygon fill="midnightblue" stroke="midnightblue" points="654.09,-310.358 664.633,-309.306 655.735,-303.554 654.09,-310.358"/>
</g>
<!-- Node6 -->
<g id="node6" class="node"><title>Node6</title>
<g id="a_node6"><a xlink:href="classMatchFactory.html#aa1f3b5e8f0e2fbd5ac2dcbc24a9e6812" target="_top" xlink:title="MatchFactory::hash">
<polygon fill="white" stroke="black" points="659.509,-167.805 659.509,-190.205 771.482,-190.205 771.482,-167.805 659.509,-167.805"/>
<text text-anchor="middle" x="715.495" y="-175.405" font-family="-adobe-utopia-medium-i-normal--0-0-0-0-p-0-iso10646-1" font-size="12.00">MatchFactory::hash</text>
</a>
</g>
</g>
<!-- Node3&#45;&gt;Node6 -->
<g id="edge5" class="edge"><title>Node3&#45;&gt;Node6</title>
<path fill="none" stroke="midnightblue" d="M539.46,-232.683C575.063,-221.765 629.083,-205.198 667.688,-193.359"/>
<polygon fill="midnightblue" stroke="midnightblue" points="669.109,-196.584 677.644,-190.306 667.057,-189.892 669.109,-196.584"/>
</g>
<!-- Node14 -->
<g id="node14" class="node"><title>Node14</title>
<g id="a_node14"><a xlink:href="classIndividuals.html#a1bd919e3eef3e84c8849623789051f08" target="_top" xlink:title="Individuals::next">
<polygon fill="white" stroke="black" points="666.833,-266.805 666.833,-289.205 764.157,-289.205 764.157,-266.805 666.833,-266.805"/>
<text text-anchor="middle" x="715.495" y="-274.405" font-family="-adobe-utopia-medium-i-normal--0-0-0-0-p-0-iso10646-1" font-size="12.00">Individuals::next</text>
</a>
</g>
</g>
<!-- Node3&#45;&gt;Node14 -->
<g id="edge16" class="edge"><title>Node3&#45;&gt;Node14</title>
<path fill="none" stroke="midnightblue" d="M572.529,-255.232C599.781,-259.604 630.635,-264.553 656.602,-268.718"/>
<polygon fill="midnightblue" stroke="midnightblue" points="656.236,-272.204 666.664,-270.332 657.345,-265.293 656.236,-272.204"/>
</g>
<!-- Node15 -->
<g id="node15" class="node"><title>Node15</title>
<g id="a_node15"><a xlink:href="classMatchFactory.html#a247e2d6028e27d243b97b2df0f035f1f" target="_top" xlink:title="MatchFactory::assertShares">
<polygon fill="white" stroke="black" points="640.855,-126.805 640.855,-149.205 790.136,-149.205 790.136,-126.805 640.855,-126.805"/>
<text text-anchor="middle" x="715.495" y="-134.405" font-family="-adobe-utopia-medium-i-normal--0-0-0-0-p-0-iso10646-1" font-size="12.00">MatchFactory::assertShares</text>
</a>
</g>
</g>
<!-- Node3&#45;&gt;Node15 -->
<g id="edge17" class="edge"><title>Node3&#45;&gt;Node15</title>
<path fill="none" stroke="midnightblue" d="M515.361,-232.649C536.906,-214.175 582.422,-177.702 627.179,-158.005 631.95,-155.906 636.968,-154.013 642.087,-152.309"/>
<polygon fill="midnightblue" stroke="midnightblue" points="643.484,-155.541 652.017,-149.26 641.43,-148.85 643.484,-155.541"/>
</g>
<!-- Node16 -->
<g id="node16" class="node"><title>Node16</title>
<g id="a_node16"><a xlink:href="classIndividual.html#a37fd25dcc27a8613ca4e5a8d9bcbaca6" target="_top" xlink:title="Individual::assertShares">
<polygon fill="white" stroke="black" points="1039.12,-228.805 1039.12,-251.205 1170.41,-251.205 1170.41,-228.805 1039.12,-228.805"/>
<text text-anchor="middle" x="1104.76" y="-236.405" font-family="-adobe-utopia-medium-i-normal--0-0-0-0-p-0-iso10646-1" font-size="12.00">Individual::assertShares</text>
</a>
</g>
</g>
<!-- Node3&#45;&gt;Node16 -->
<g id="edge18" class="edge"><title>Node3&#45;&gt;Node16</title>
<path fill="none" stroke="midnightblue" d="M591.253,-243.415C709.718,-242.627 917.514,-241.244 1028.64,-240.505"/>
<polygon fill="midnightblue" stroke="midnightblue" points="1028.79,-244.004 1038.76,-240.438 1028.74,-237.004 1028.79,-244.004"/>
</g>
<!-- Node17 -->
<g id="node17" class="node"><title>Node17</title>
<g id="a_node17"><a xlink:href="classMatchFactory.html#af71633ad61d5812b60e3d64c37cd64d4" target="_top" xlink:title="MatchFactory::initialize">
<polygon fill="white" stroke="black" points="649.511,-85.8051 649.511,-108.205 781.479,-108.205 781.479,-85.8051 649.511,-85.8051"/>
<text text-anchor="middle" x="715.495" y="-93.4051" font-family="-adobe-utopia-medium-i-normal--0-0-0-0-p-0-iso10646-1" font-size="12.00">MatchFactory::initialize</text>
</a>
</g>
</g>
<!-- Node3&#45;&gt;Node17 -->
<g id="edge20" class="edge"><title>Node3&#45;&gt;Node17</title>
<path fill="none" stroke="midnightblue" d="M510.082,-232.762C527.513,-207.715 573.255,-147.166 627.179,-117.005 631.181,-114.767 635.419,-112.779 639.786,-111.013"/>
<polygon fill="midnightblue" stroke="midnightblue" points="641.3,-114.187 649.511,-107.492 638.917,-107.605 641.3,-114.187"/>
</g>
<!-- Node7 -->
<g id="node7" class="node"><title>Node7</title>
<g id="a_node7"><a xlink:href="classIndividual.html#a7c494813e7d0f7f4f235cd75185fd2be" target="_top" xlink:title="Individual::numHet">
<polygon fill="white" stroke="black" points="866.136,-107.805 866.136,-130.205 976.791,-130.205 976.791,-107.805 866.136,-107.805"/>
<text text-anchor="middle" x="921.464" y="-115.405" font-family="-adobe-utopia-medium-i-normal--0-0-0-0-p-0-iso10646-1" font-size="12.00">Individual::numHet</text>
</a>
</g>
</g>
<!-- Node6&#45;&gt;Node7 -->
<g id="edge6" class="edge"><title>Node6&#45;&gt;Node7</title>
<path fill="none" stroke="midnightblue" d="M771.699,-168.846C782.513,-166.164 793.647,-162.902 803.812,-159.005 820.902,-152.452 822.781,-145.711 839.812,-139.005 845.23,-136.872 850.943,-134.914 856.726,-133.13"/>
<polygon fill="midnightblue" stroke="midnightblue" points="857.858,-136.446 866.481,-130.29 855.901,-129.725 857.858,-136.446"/>
</g>
<!-- Node8 -->
<g id="node8" class="node"><title>Node8</title>
<g id="a_node8"><a xlink:href="classIndividual.html#a6e75847d9fdd923bd0cf7a9ec5e2b1a4" target="_top" xlink:title="Individual::assertHomozygous">
<polygon fill="white" stroke="black" points="839.812,-148.805 839.812,-171.205 1003.12,-171.205 1003.12,-148.805 839.812,-148.805"/>
<text text-anchor="middle" x="921.464" y="-156.405" font-family="-adobe-utopia-medium-i-normal--0-0-0-0-p-0-iso10646-1" font-size="12.00">Individual::assertHomozygous</text>
</a>
</g>
</g>
<!-- Node6&#45;&gt;Node8 -->
<g id="edge7" class="edge"><title>Node6&#45;&gt;Node8</title>
<path fill="none" stroke="midnightblue" d="M771.692,-173.863C789.475,-172.207 809.681,-170.325 829.342,-168.493"/>
<polygon fill="midnightblue" stroke="midnightblue" points="829.926,-171.954 839.558,-167.542 829.277,-164.984 829.926,-171.954"/>
</g>
<!-- Node11 -->
<g id="node11" class="node"><title>Node11</title>
<g id="a_node11"><a xlink:href="classIndividual.html#adab24d093d691c3e84bdce0b2d2f3a81" target="_top" xlink:title="Individual::getChromosome">
<polygon fill="white" stroke="black" points="1357.71,-168.805 1357.71,-191.205 1509.03,-191.205 1509.03,-168.805 1357.71,-168.805"/>
<text text-anchor="middle" x="1433.37" y="-176.405" font-family="-adobe-utopia-medium-i-normal--0-0-0-0-p-0-iso10646-1" font-size="12.00">Individual::getChromosome</text>
</a>
</g>
</g>
<!-- Node6&#45;&gt;Node11 -->
<g id="edge13" class="edge"><title>Node6&#45;&gt;Node11</title>
<path fill="none" stroke="midnightblue" d="M771.741,-180.092C793.017,-180.461 817.544,-180.825 839.812,-181.005 1053.69,-182.739 1107.17,-181.966 1321.05,-181.005 1329.62,-180.967 1338.55,-180.911 1347.48,-180.847"/>
<polygon fill="midnightblue" stroke="midnightblue" points="1347.55,-184.346 1357.52,-180.77 1347.5,-177.346 1347.55,-184.346"/>
</g>
<!-- Node12 -->
<g id="node12" class="node"><title>Node12</title>
<g id="a_node12"><a xlink:href="classMarkerSet.html#a4875bf7f161c77ff90c15936fee29ff0" target="_top" xlink:title="MarkerSet::getMarkerBits">
<polygon fill="white" stroke="black" points="1362.06,-113.805 1362.06,-136.205 1504.68,-136.205 1504.68,-113.805 1362.06,-113.805"/>
<text text-anchor="middle" x="1433.37" y="-121.405" font-family="-adobe-utopia-medium-i-normal--0-0-0-0-p-0-iso10646-1" font-size="12.00">MarkerSet::getMarkerBits</text>
</a>
</g>
</g>
<!-- Node6&#45;&gt;Node12 -->
<g id="edge15" class="edge"><title>Node6&#45;&gt;Node12</title>
<path fill="none" stroke="midnightblue" d="M771.6,-173.474C783.004,-170.457 794.397,-165.89 803.812,-159.005 829.223,-140.423 812.474,-113.615 839.812,-98.0051 926.295,-48.6237 1220.33,-89.2697 1358.94,-112.097"/>
<polygon fill="midnightblue" stroke="midnightblue" points="1358.61,-115.59 1369.04,-113.775 1359.75,-108.684 1358.61,-115.59"/>
</g>
<!-- Node13 -->
<g id="node13" class="node"><title>Node13</title>
<g id="a_node13"><a xlink:href="classChromosome.html#a6acf26d0b4a7e2651be613ea14c20a1b" target="_top" xlink:title="Chromosome::getMarkerSet">
<polygon fill="white" stroke="black" points="1357.05,-44.8051 1357.05,-67.2051 1509.69,-67.2051 1509.69,-44.8051 1357.05,-44.8051"/>
<text text-anchor="middle" x="1433.37" y="-52.4051" font-family="-adobe-utopia-medium-i-normal--0-0-0-0-p-0-iso10646-1" font-size="12.00">Chromosome::getMarkerSet</text>
</a>
</g>
</g>
<!-- Node6&#45;&gt;Node13 -->
<g id="edge14" class="edge"><title>Node6&#45;&gt;Node13</title>
<path fill="none" stroke="midnightblue" d="M771.93,-174.591C783.445,-171.524 794.801,-166.654 803.812,-159.005 836.028,-131.659 805.029,-95.0009 839.812,-71.0051 1010.91,47.027 1280.89,-11.8581 1387.21,-41.9622"/>
<polygon fill="midnightblue" stroke="midnightblue" points="1386.4,-45.3714 1396.98,-44.7787 1388.34,-38.6453 1386.4,-45.3714"/>
</g>
<!-- Node9 -->
<g id="node9" class="node"><title>Node9</title>
<g id="a_node9"><a xlink:href="classMatch.html#afb81327901b29b02ff117406cdec0a4e" target="_top" xlink:title="Match::extendBack">
<polygon fill="white" stroke="black" points="1049.78,-148.805 1049.78,-171.205 1159.75,-171.205 1159.75,-148.805 1049.78,-148.805"/>
<text text-anchor="middle" x="1104.76" y="-156.405" font-family="-adobe-utopia-medium-i-normal--0-0-0-0-p-0-iso10646-1" font-size="12.00">Match::extendBack</text>
</a>
</g>
</g>
<!-- Node8&#45;&gt;Node9 -->
<g id="edge8" class="edge"><title>Node8&#45;&gt;Node9</title>
<path fill="none" stroke="midnightblue" d="M1003.31,-160.005C1015.43,-160.005 1027.79,-160.005 1039.51,-160.005"/>
<polygon fill="midnightblue" stroke="midnightblue" points="1039.61,-163.505 1049.61,-160.005 1039.61,-156.505 1039.61,-163.505"/>
</g>
<!-- Node10 -->
<g id="node10" class="node"><title>Node10</title>
<g id="a_node10"><a xlink:href="classMatch.html#a7c47a9c7017d308d2ae58fac5a204179" target="_top" xlink:title="Match::approxEqual">
<polygon fill="white" stroke="black" points="1206.41,-148.805 1206.41,-171.205 1321.05,-171.205 1321.05,-148.805 1206.41,-148.805"/>
<text text-anchor="middle" x="1263.73" y="-156.405" font-family="-adobe-utopia-medium-i-normal--0-0-0-0-p-0-iso10646-1" font-size="12.00">Match::approxEqual</text>
</a>
</g>
</g>
<!-- Node9&#45;&gt;Node10 -->
<g id="edge9" class="edge"><title>Node9&#45;&gt;Node10</title>
<path fill="none" stroke="midnightblue" d="M1159.78,-160.005C1171.49,-160.005 1184.01,-160.005 1196.14,-160.005"/>
<polygon fill="midnightblue" stroke="midnightblue" points="1196.21,-163.505 1206.21,-160.005 1196.21,-156.505 1196.21,-163.505"/>
</g>
<!-- Node10&#45;&gt;Node11 -->
<g id="edge10" class="edge"><title>Node10&#45;&gt;Node11</title>
<path fill="none" stroke="midnightblue" d="M1321.49,-166.776C1329.91,-167.781 1338.73,-168.834 1347.58,-169.889"/>
<polygon fill="midnightblue" stroke="midnightblue" points="1347.2,-173.369 1357.55,-171.078 1348.03,-166.418 1347.2,-173.369"/>
</g>
<!-- Node10&#45;&gt;Node12 -->
<g id="edge11" class="edge"><title>Node10&#45;&gt;Node12</title>
<path fill="none" stroke="midnightblue" d="M1318.7,-148.738C1334.55,-145.428 1352.04,-141.776 1368.45,-138.35"/>
<polygon fill="midnightblue" stroke="midnightblue" points="1369.43,-141.721 1378.51,-136.251 1368,-134.869 1369.43,-141.721"/>
</g>
<!-- Node10&#45;&gt;Node13 -->
<g id="edge12" class="edge"><title>Node10&#45;&gt;Node13</title>
<path fill="none" stroke="midnightblue" d="M1282.99,-148.677C1312.59,-130.313 1371.2,-93.9558 1405.54,-72.6473"/>
<polygon fill="midnightblue" stroke="midnightblue" points="1407.48,-75.5649 1414.13,-67.3189 1403.79,-69.6166 1407.48,-75.5649"/>
</g>
<!-- Node16&#45;&gt;Node10 -->
<g id="edge19" class="edge"><title>Node16&#45;&gt;Node10</title>
<path fill="none" stroke="midnightblue" d="M1127.92,-228.713C1155.03,-214.895 1201.1,-191.418 1231.72,-175.811"/>
<polygon fill="midnightblue" stroke="midnightblue" points="1233.37,-178.899 1240.69,-171.24 1230.19,-172.663 1233.37,-178.899"/>
</g>
<!-- Node19 -->
<g id="node19" class="node"><title>Node19</title>
<g id="a_node19"><a xlink:href="classMatchesBuilder.html#a24030d91efc506dab6732cdb9a89f0ab" target="_top" xlink:title="MatchesBuilder::readHaploid\lMarkerSet">
<polygon fill="white" stroke="black" points="422.23,-341.605 422.23,-378.405 580.85,-378.405 580.85,-341.605 422.23,-341.605"/>
<text text-anchor="start" x="430.23" y="-363.605" font-family="-adobe-utopia-medium-i-normal--0-0-0-0-p-0-iso10646-1" font-size="12.00">MatchesBuilder::readHaploid</text>
<text text-anchor="middle" x="501.54" y="-349.205" font-family="-adobe-utopia-medium-i-normal--0-0-0-0-p-0-iso10646-1" font-size="12.00">MarkerSet</text>
</a>
</g>
</g>
<!-- Node18&#45;&gt;Node19 -->
<g id="edge22" class="edge"><title>Node18&#45;&gt;Node19</title>
<path fill="none" stroke="midnightblue" d="M337.736,-322.247C359.784,-327.36 386.586,-333.576 412.027,-339.477"/>
<polygon fill="midnightblue" stroke="midnightblue" points="411.54,-342.956 422.072,-341.806 413.121,-336.137 411.54,-342.956"/>
</g>
<!-- Node21 -->
<g id="node21" class="node"><title>Node21</title>
<g id="a_node21"><a xlink:href="classMatchesBuilder.html#a0ce39fec7c735700c83a21f4b53f5bbf" target="_top" xlink:title="MatchesBuilder::readMarkerSet">
<polygon fill="white" stroke="black" points="416.238,-299.805 416.238,-322.205 586.841,-322.205 586.841,-299.805 416.238,-299.805"/>
<text text-anchor="middle" x="501.54" y="-307.405" font-family="-adobe-utopia-medium-i-normal--0-0-0-0-p-0-iso10646-1" font-size="12.00">MatchesBuilder::readMarkerSet</text>
</a>
</g>
</g>
<!-- Node18&#45;&gt;Node21 -->
<g id="edge27" class="edge"><title>Node18&#45;&gt;Node21</title>
<path fill="none" stroke="midnightblue" d="M376.114,-311.005C385.912,-311.005 395.934,-311.005 405.826,-311.005"/>
<polygon fill="midnightblue" stroke="midnightblue" points="406.073,-314.505 416.073,-311.005 406.073,-307.505 406.073,-314.505"/>
</g>
<!-- Node19&#45;&gt;Node4 -->
<g id="edge23" class="edge"><title>Node19&#45;&gt;Node4</title>
<path fill="none" stroke="midnightblue" d="M580.862,-360.005C604.894,-360.005 630.966,-360.005 653.647,-360.005"/>
<polygon fill="midnightblue" stroke="midnightblue" points="653.81,-363.505 663.81,-360.005 653.81,-356.505 653.81,-363.505"/>
</g>
<!-- Node19&#45;&gt;Node5 -->
<g id="edge24" class="edge"><title>Node19&#45;&gt;Node5</title>
<path fill="none" stroke="midnightblue" d="M580.862,-344.855C605.311,-340.125 631.87,-334.988 654.823,-330.548"/>
<polygon fill="midnightblue" stroke="midnightblue" points="655.604,-333.962 664.757,-328.626 654.275,-327.089 655.604,-333.962"/>
</g>
<!-- Node19&#45;&gt;Node14 -->
<g id="edge25" class="edge"><title>Node19&#45;&gt;Node14</title>
<path fill="none" stroke="midnightblue" d="M572.092,-341.413C578.723,-338.647 585.196,-335.522 591.179,-332.005 610.152,-320.853 607.771,-308.382 627.179,-298.005 636.325,-293.115 646.631,-289.415 656.872,-286.618"/>
<polygon fill="midnightblue" stroke="midnightblue" points="657.765,-290.003 666.631,-284.203 656.083,-283.208 657.765,-290.003"/>
</g>
<!-- Node20 -->
<g id="node20" class="node"><title>Node20</title>
<g id="a_node20"><a xlink:href="classPolymorphicIndividualsExtractor.html#af99fabbecd263daa88696353f9fcfeff" target="_top" xlink:title="PolymorphicIndividualsExtractor\l::getCompleteMarkerSet">
<polygon fill="white" stroke="black" points="627.179,-390.605 627.179,-427.405 803.812,-427.405 803.812,-390.605 627.179,-390.605"/>
<text text-anchor="start" x="635.179" y="-412.605" font-family="-adobe-utopia-medium-i-normal--0-0-0-0-p-0-iso10646-1" font-size="12.00">PolymorphicIndividualsExtractor</text>
<text text-anchor="middle" x="715.495" y="-398.205" font-family="-adobe-utopia-medium-i-normal--0-0-0-0-p-0-iso10646-1" font-size="12.00">::getCompleteMarkerSet</text>
</a>
</g>
</g>
<!-- Node19&#45;&gt;Node20 -->
<g id="edge26" class="edge"><title>Node19&#45;&gt;Node20</title>
<path fill="none" stroke="midnightblue" d="M580.862,-378.112C595.138,-381.412 610.135,-384.879 624.713,-388.249"/>
<polygon fill="midnightblue" stroke="midnightblue" points="624.192,-391.721 634.724,-390.563 625.769,-384.901 624.192,-391.721"/>
</g>
<!-- Node21&#45;&gt;Node4 -->
<g id="edge28" class="edge"><title>Node21&#45;&gt;Node4</title>
<path fill="none" stroke="midnightblue" d="M550.77,-322.267C573.882,-327.654 601.96,-334.183 627.179,-340.005 636.193,-342.086 645.732,-344.28 655.066,-346.421"/>
<polygon fill="midnightblue" stroke="midnightblue" points="654.549,-349.894 665.079,-348.717 656.114,-343.071 654.549,-349.894"/>
</g>
<!-- Node21&#45;&gt;Node5 -->
<g id="edge29" class="edge"><title>Node21&#45;&gt;Node5</title>
<path fill="none" stroke="midnightblue" d="M586.919,-314.19C609.539,-315.044 633.53,-315.949 654.53,-316.742"/>
<polygon fill="midnightblue" stroke="midnightblue" points="654.454,-320.241 664.579,-317.121 654.719,-313.246 654.454,-320.241"/>
</g>
<!-- Node21&#45;&gt;Node14 -->
<g id="edge30" class="edge"><title>Node21&#45;&gt;Node14</title>
<path fill="none" stroke="midnightblue" d="M574.594,-299.787C601.28,-295.632 631.175,-290.977 656.457,-287.041"/>
<polygon fill="midnightblue" stroke="midnightblue" points="657.282,-290.455 666.624,-285.458 656.205,-283.538 657.282,-290.455"/>
</g>
<!-- Node21&#45;&gt;Node20 -->
<g id="edge31" class="edge"><title>Node21&#45;&gt;Node20</title>
<path fill="none" stroke="midnightblue" d="M571.832,-322.279C578.659,-324.879 585.245,-328.076 591.179,-332.005 613.71,-346.925 605.244,-365.221 627.179,-381.005 629.541,-382.705 632.011,-384.305 634.562,-385.81"/>
<polygon fill="midnightblue" stroke="midnightblue" points="633.032,-388.961 643.504,-390.573 636.323,-382.783 633.032,-388.961"/>
</g>
</g>
</svg>
