<?xml version="1.0" encoding="UTF-8" standalone="no"?>
<!DOCTYPE svg PUBLIC "-//W3C//DTD SVG 1.1//EN"
 "http://www.w3.org/Graphics/SVG/1.1/DTD/svg11.dtd">
<!-- Generated by graphviz version 2.38.0 (20140413.2041)
 -->
<!-- Title: SNP Pages: 1 -->
<svg width="378pt" height="120pt"
 viewBox="0.00 0.00 377.67 119.60" xmlns="http://www.w3.org/2000/svg" xmlns:xlink="http://www.w3.org/1999/xlink">
<g id="graph0" class="graph" transform="scale(1 1) rotate(0) translate(4 115.6)">
<title>SNP</title>
<polygon fill="white" stroke="none" points="-4,4 -4,-115.6 373.67,-115.6 373.67,4 -4,4"/>
<!-- Node1 -->
<g id="node1" class="node"><title>Node1</title>
<polygon fill="#bfbfbf" stroke="black" points="148.663,-0.5 148.663,-22.9 186.668,-22.9 186.668,-0.5 148.663,-0.5"/>
<text text-anchor="middle" x="167.666" y="-8.1" font-family="-adobe-utopia-medium-i-normal--0-0-0-0-p-0-iso10646-1" font-size="12.00">SNP</text>
</g>
<!-- Node2 -->
<g id="node2" class="node"><title>Node2</title>
<polygon fill="white" stroke="#bfbfbf" points="-1.77636e-14,-88.7 -1.77636e-14,-111.1 43.3312,-111.1 43.3312,-88.7 -1.77636e-14,-88.7"/>
<text text-anchor="middle" x="21.6656" y="-96.3" font-family="-adobe-utopia-medium-i-normal--0-0-0-0-p-0-iso10646-1" font-size="12.00">string</text>
</g>
<!-- Node2&#45;&gt;Node1 -->
<g id="edge1" class="edge"><title>Node2&#45;&gt;Node1</title>
<path fill="none" stroke="#9a32cd" stroke-dasharray="5,2" d="M25.8702,-78.2742C29.4499,-65.8514 35.8539,-50.6893 47.0036,-41.4 76.2855,-17.004 122.758,-12.6233 148.651,-12.2428"/>
<polygon fill="#9a32cd" stroke="#9a32cd" points="22.4015,-77.7223 23.4032,-88.2696 29.1976,-79.3997 22.4015,-77.7223"/>
<text text-anchor="middle" x="64.9966" y="-59.4" font-family="-adobe-utopia-medium-i-normal--0-0-0-0-p-0-iso10646-1" font-size="12.00"> chr</text>
<text text-anchor="middle" x="64.9966" y="-45" font-family="-adobe-utopia-medium-i-normal--0-0-0-0-p-0-iso10646-1" font-size="12.00">SNPID</text>
</g>
<!-- Node3 -->
<g id="node3" class="node"><title>Node3</title>
<polygon fill="white" stroke="#bfbfbf" points="61.6674,-88.7 61.6674,-111.1 101.664,-111.1 101.664,-88.7 61.6674,-88.7"/>
<text text-anchor="middle" x="81.6656" y="-96.3" font-family="-adobe-utopia-medium-i-normal--0-0-0-0-p-0-iso10646-1" font-size="12.00">short</text>
</g>
<!-- Node3&#45;&gt;Node1 -->
<g id="edge2" class="edge"><title>Node3&#45;&gt;Node1</title>
<path fill="none" stroke="#9a32cd" stroke-dasharray="5,2" d="M83.0493,-78.6063C84.8501,-66.5195 88.9133,-51.5981 98.0116,-41.4 111.072,-26.7607 132.741,-19.4235 148.447,-15.8572"/>
<polygon fill="#9a32cd" stroke="#9a32cd" points="79.5541,-78.3727 81.952,-88.6926 86.5131,-79.1298 79.5541,-78.3727"/>
<text text-anchor="middle" x="115.493" y="-52.2" font-family="-adobe-utopia-medium-i-normal--0-0-0-0-p-0-iso10646-1" font-size="12.00"> varSet</text>
</g>
<!-- Node4 -->
<g id="node4" class="node"><title>Node4</title>
<polygon fill="white" stroke="#bfbfbf" points="120.341,-88.7 120.341,-111.1 156.99,-111.1 156.99,-88.7 120.341,-88.7"/>
<text text-anchor="middle" x="138.666" y="-96.3" font-family="-adobe-utopia-medium-i-normal--0-0-0-0-p-0-iso10646-1" font-size="12.00">char</text>
</g>
<!-- Node4&#45;&gt;Node1 -->
<g id="edge3" class="edge"><title>Node4&#45;&gt;Node1</title>
<path fill="none" stroke="#9a32cd" stroke-dasharray="5,2" d="M135.267,-78.4572C134.263,-67.1197 134.504,-53.009 139.348,-41.4 142.313,-34.294 147.958,-27.9958 153.433,-23.1232"/>
<polygon fill="#9a32cd" stroke="#9a32cd" points="131.833,-79.1945 136.563,-88.675 138.777,-78.3142 131.833,-79.1945"/>
<text text-anchor="middle" x="157.825" y="-52.2" font-family="-adobe-utopia-medium-i-normal--0-0-0-0-p-0-iso10646-1" font-size="12.00"> variant</text>
</g>
<!-- Node5 -->
<g id="node5" class="node"><title>Node5</title>
<polygon fill="white" stroke="#bfbfbf" points="178.67,-88.7 178.67,-111.1 216.661,-111.1 216.661,-88.7 178.67,-88.7"/>
<text text-anchor="middle" x="197.666" y="-96.3" font-family="-adobe-utopia-medium-i-normal--0-0-0-0-p-0-iso10646-1" font-size="12.00">float</text>
</g>
<!-- Node5&#45;&gt;Node1 -->
<g id="edge4" class="edge"><title>Node5&#45;&gt;Node1</title>
<path fill="none" stroke="#9a32cd" stroke-dasharray="5,2" d="M190.692,-78.8637C184.599,-61.3539 175.999,-36.6449 171.22,-22.9135"/>
<polygon fill="#9a32cd" stroke="#9a32cd" points="187.514,-80.3793 194.106,-88.6732 194.125,-78.0784 187.514,-80.3793"/>
<text text-anchor="middle" x="219.155" y="-52.2" font-family="-adobe-utopia-medium-i-normal--0-0-0-0-p-0-iso10646-1" font-size="12.00"> centimorgan</text>
</g>
<!-- Node6 -->
<g id="node6" class="node"><title>Node6</title>
<polygon fill="white" stroke="#bfbfbf" points="269.166,-88.7 269.166,-111.1 298.166,-111.1 298.166,-88.7 269.166,-88.7"/>
<text text-anchor="middle" x="283.5" y="-96.3" font-family="-adobe-utopia-medium-i-normal--0-0-0-0-p-0-iso10646-1" font-size="12.00">int</text>
</g>
<!-- Node6&#45;&gt;Node1 -->
<g id="edge5" class="edge"><title>Node6&#45;&gt;Node1</title>
<path fill="none" stroke="#9a32cd" stroke-dasharray="5,2" d="M277.955,-78.9363C273.471,-66.5603 266.048,-51.2061 254.666,-41.4 235.266,-24.6862 205.857,-17.6437 186.701,-14.7185"/>
<polygon fill="#9a32cd" stroke="#9a32cd" points="274.628,-80.0209 281.053,-88.4446 281.283,-77.8522 274.628,-80.0209"/>
<text text-anchor="middle" x="287.996" y="-59.4" font-family="-adobe-utopia-medium-i-normal--0-0-0-0-p-0-iso10646-1" font-size="12.00"> num</text>
<text text-anchor="middle" x="287.996" y="-45" font-family="-adobe-utopia-medium-i-normal--0-0-0-0-p-0-iso10646-1" font-size="12.00">count</text>
</g>
<!-- Node7 -->
<g id="node7" class="node"><title>Node7</title>
<polygon fill="white" stroke="#bfbfbf" points="315.998,-88.7 315.998,-111.1 353.333,-111.1 353.333,-88.7 315.998,-88.7"/>
<text text-anchor="middle" x="334.666" y="-96.3" font-family="-adobe-utopia-medium-i-normal--0-0-0-0-p-0-iso10646-1" font-size="12.00">long</text>
</g>
<!-- Node7&#45;&gt;Node1 -->
<g id="edge6" class="edge"><title>Node7&#45;&gt;Node1</title>
<path fill="none" stroke="#9a32cd" stroke-dasharray="5,2" d="M329.47,-78.9249C325.154,-66.29 317.725,-50.6505 305.666,-41.4 287.22,-27.2504 220.138,-18.2949 186.775,-14.6178"/>
<polygon fill="#9a32cd" stroke="#9a32cd" points="326.157,-80.0626 332.397,-88.6254 332.859,-78.0407 326.157,-80.0626"/>
<text text-anchor="middle" x="348.168" y="-52.2" font-family="-adobe-utopia-medium-i-normal--0-0-0-0-p-0-iso10646-1" font-size="12.00"> physPos</text>
</g>
</g>
</svg>
