<?xml version="1.0" encoding="UTF-8" standalone="no"?>
<!DOCTYPE svg PUBLIC "-//W3C//DTD SVG 1.1//EN"
 "http://www.w3.org/Graphics/SVG/1.1/DTD/svg11.dtd">
<!-- Generated by graphviz version 2.38.0 (20140413.2041)
 -->
<!-- Title: Match::approxEqual Pages: 1 -->
<svg width="311pt" height="113pt"
 viewBox="0.00 0.00 311.27 113.40" xmlns="http://www.w3.org/2000/svg" xmlns:xlink="http://www.w3.org/1999/xlink">
<g id="graph0" class="graph" transform="scale(1 1) rotate(0) translate(4 109.4)">
<title>Match::approxEqual</title>
<polygon fill="white" stroke="none" points="-4,4 -4,-109.4 307.273,-109.4 307.273,4 -4,4"/>
<!-- Node1 -->
<g id="node1" class="node"><title>Node1</title>
<polygon fill="#bfbfbf" stroke="black" points="0,-41.5 0,-63.9 114.639,-63.9 114.639,-41.5 0,-41.5"/>
<text text-anchor="middle" x="57.3194" y="-49.1" font-family="-adobe-utopia-medium-i-normal--0-0-0-0-p-0-iso10646-1" font-size="12.00">Match::approxEqual</text>
</g>
<!-- Node2 -->
<g id="node2" class="node"><title>Node2</title>
<g id="a_node2"><a xlink:href="classIndividual.html#adab24d093d691c3e84bdce0b2d2f3a81" target="_top" xlink:title="Individual::getChromosome">
<polygon fill="white" stroke="black" points="151.297,-82.5 151.297,-104.9 302.615,-104.9 302.615,-82.5 151.297,-82.5"/>
<text text-anchor="middle" x="226.956" y="-90.1" font-family="-adobe-utopia-medium-i-normal--0-0-0-0-p-0-iso10646-1" font-size="12.00">Individual::getChromosome</text>
</a>
</g>
</g>
<!-- Node1&#45;&gt;Node2 -->
<g id="edge1" class="edge"><title>Node1&#45;&gt;Node2</title>
<path fill="none" stroke="midnightblue" d="M104.127,-63.9034C124.463,-68.8772 148.586,-74.7772 169.98,-80.0096"/>
<polygon fill="midnightblue" stroke="midnightblue" points="169.368,-83.4629 179.913,-82.4389 171.031,-76.6633 169.368,-83.4629"/>
</g>
<!-- Node3 -->
<g id="node3" class="node"><title>Node3</title>
<g id="a_node3"><a xlink:href="classMarkerSet.html#a4875bf7f161c77ff90c15936fee29ff0" target="_top" xlink:title="MarkerSet::getMarkerBits">
<polygon fill="white" stroke="black" points="155.645,-41.5 155.645,-63.9 298.267,-63.9 298.267,-41.5 155.645,-41.5"/>
<text text-anchor="middle" x="226.956" y="-49.1" font-family="-adobe-utopia-medium-i-normal--0-0-0-0-p-0-iso10646-1" font-size="12.00">MarkerSet::getMarkerBits</text>
</a>
</g>
</g>
<!-- Node1&#45;&gt;Node3 -->
<g id="edge2" class="edge"><title>Node1&#45;&gt;Node3</title>
<path fill="none" stroke="midnightblue" d="M115.074,-52.7C124.833,-52.7 135.141,-52.7 145.385,-52.7"/>
<polygon fill="midnightblue" stroke="midnightblue" points="145.584,-56.2001 155.584,-52.7 145.584,-49.2001 145.584,-56.2001"/>
</g>
<!-- Node4 -->
<g id="node4" class="node"><title>Node4</title>
<g id="a_node4"><a xlink:href="classChromosome.html#a6acf26d0b4a7e2651be613ea14c20a1b" target="_top" xlink:title="Chromosome::getMarkerSet">
<polygon fill="white" stroke="black" points="150.639,-0.5 150.639,-22.9 303.273,-22.9 303.273,-0.5 150.639,-0.5"/>
<text text-anchor="middle" x="226.956" y="-8.1" font-family="-adobe-utopia-medium-i-normal--0-0-0-0-p-0-iso10646-1" font-size="12.00">Chromosome::getMarkerSet</text>
</a>
</g>
</g>
<!-- Node1&#45;&gt;Node4 -->
<g id="edge3" class="edge"><title>Node1&#45;&gt;Node4</title>
<path fill="none" stroke="midnightblue" d="M104.127,-41.4966C124.463,-36.5228 148.586,-30.6228 169.98,-25.3904"/>
<polygon fill="midnightblue" stroke="midnightblue" points="171.031,-28.7367 179.913,-22.9611 169.368,-21.9371 171.031,-28.7367"/>
</g>
</g>
</svg>
