<?xml version="1.0" encoding="UTF-8" standalone="no"?>
<!DOCTYPE svg PUBLIC "-//W3C//DTD SVG 1.1//EN"
 "http://www.w3.org/Graphics/SVG/1.1/DTD/svg11.dtd">
<!-- Generated by graphviz version 2.38.0 (20140413.2041)
 -->
<!-- Title: SNPs::processMAPFile Pages: 1 -->
<svg width="311pt" height="46pt"
 viewBox="0.00 0.00 311.29 45.80" xmlns="http://www.w3.org/2000/svg" xmlns:xlink="http://www.w3.org/1999/xlink">
<g id="graph0" class="graph" transform="scale(1 1) rotate(0) translate(4 41.8)">
<title>SNPs::processMAPFile</title>
<polygon fill="white" stroke="none" points="-4,4 -4,-41.8 307.291,-41.8 307.291,4 -4,4"/>
<!-- Node1 -->
<g id="node1" class="node"><title>Node1</title>
<polygon fill="#bfbfbf" stroke="black" points="1.42109e-14,-7.7 1.42109e-14,-30.1 129.99,-30.1 129.99,-7.7 1.42109e-14,-7.7"/>
<text text-anchor="middle" x="64.9952" y="-15.3" font-family="-adobe-utopia-medium-i-normal--0-0-0-0-p-0-iso10646-1" font-size="12.00">SNPs::processMAPFile</text>
</g>
<!-- Node2 -->
<g id="node2" class="node"><title>Node2</title>
<g id="a_node2"><a xlink:href="classPEDIndividualsExtractor.html#aaaae7102f9e3db6f900b3d56f559dc91" target="_top" xlink:title="PEDIndividualsExtractor\l::loadInput">
<polygon fill="white" stroke="black" points="165.99,-0.5 165.99,-37.3 303.291,-37.3 303.291,-0.5 165.99,-0.5"/>
<text text-anchor="start" x="173.99" y="-22.5" font-family="-adobe-utopia-medium-i-normal--0-0-0-0-p-0-iso10646-1" font-size="12.00">PEDIndividualsExtractor</text>
<text text-anchor="middle" x="234.641" y="-8.1" font-family="-adobe-utopia-medium-i-normal--0-0-0-0-p-0-iso10646-1" font-size="12.00">::loadInput</text>
</a>
</g>
</g>
<!-- Node1&#45;&gt;Node2 -->
<g id="edge1" class="edge"><title>Node1&#45;&gt;Node2</title>
<path fill="none" stroke="midnightblue" d="M140.531,-18.9C148.963,-18.9 157.522,-18.9 165.861,-18.9"/>
<polygon fill="midnightblue" stroke="midnightblue" points="140.332,-15.4001 130.332,-18.9 140.332,-22.4001 140.332,-15.4001"/>
</g>
</g>
</svg>
