<?xml version="1.0" encoding="UTF-8" standalone="no"?>
<!DOCTYPE svg PUBLIC "-//W3C//DTD SVG 1.1//EN"
 "http://www.w3.org/Graphics/SVG/1.1/DTD/svg11.dtd">
<!-- Generated by graphviz version 2.38.0 (20140413.2041)
 -->
<!-- Title: SNPs::moreChromosome Pages: 1 -->
<svg width="367pt" height="31pt"
 viewBox="0.00 0.00 367.30 31.40" xmlns="http://www.w3.org/2000/svg" xmlns:xlink="http://www.w3.org/1999/xlink">
<g id="graph0" class="graph" transform="scale(1 1) rotate(0) translate(4 27.4)">
<title>SNPs::moreChromosome</title>
<polygon fill="white" stroke="none" points="-4,4 -4,-27.4 363.303,-27.4 363.303,4 -4,4"/>
<!-- Node1 -->
<g id="node1" class="node"><title>Node1</title>
<polygon fill="#bfbfbf" stroke="black" points="-2.84217e-14,-0.5 -2.84217e-14,-22.9 138.658,-22.9 138.658,-0.5 -2.84217e-14,-0.5"/>
<text text-anchor="middle" x="69.329" y="-8.1" font-family="-adobe-utopia-medium-i-normal--0-0-0-0-p-0-iso10646-1" font-size="12.00">SNPs::moreChromosome</text>
</g>
<!-- Node2 -->
<g id="node2" class="node"><title>Node2</title>
<g id="a_node2"><a xlink:href="classGERMLINE.html#a7912aa3108f42f42e06c615b460d0565" target="_top" xlink:title="GERMLINE::mine">
<polygon fill="white" stroke="black" points="174.658,-0.5 174.658,-22.9 283.306,-22.9 283.306,-0.5 174.658,-0.5"/>
<text text-anchor="middle" x="228.982" y="-8.1" font-family="-adobe-utopia-medium-i-normal--0-0-0-0-p-0-iso10646-1" font-size="12.00">GERMLINE::mine</text>
</a>
</g>
</g>
<!-- Node1&#45;&gt;Node2 -->
<g id="edge1" class="edge"><title>Node1&#45;&gt;Node2</title>
<path fill="none" stroke="midnightblue" d="M149.288,-11.7C157.727,-11.7 166.164,-11.7 174.213,-11.7"/>
<polygon fill="midnightblue" stroke="midnightblue" points="149.019,-8.2001 139.019,-11.7 149.019,-15.2001 149.019,-8.2001"/>
</g>
<!-- Node3 -->
<g id="node3" class="node"><title>Node3</title>
<g id="a_node3"><a xlink:href="GERMLINE__0001_8cpp.html#a0ddf1224851353fc92bfbff6f499fa97" target="_top" xlink:title="main">
<polygon fill="white" stroke="black" points="319.306,-0.5 319.306,-22.9 359.303,-22.9 359.303,-0.5 319.306,-0.5"/>
<text text-anchor="middle" x="339.305" y="-8.1" font-family="-adobe-utopia-medium-i-normal--0-0-0-0-p-0-iso10646-1" font-size="12.00">main</text>
</a>
</g>
</g>
<!-- Node2&#45;&gt;Node3 -->
<g id="edge2" class="edge"><title>Node2&#45;&gt;Node3</title>
<path fill="none" stroke="midnightblue" d="M293.659,-11.7C302.924,-11.7 311.805,-11.7 319.173,-11.7"/>
<polygon fill="midnightblue" stroke="midnightblue" points="293.509,-8.2001 283.509,-11.7 293.509,-15.2001 293.509,-8.2001"/>
</g>
</g>
</svg>
