<?xml version="1.0" encoding="UTF-8" standalone="no"?>
<!DOCTYPE svg PUBLIC "-//W3C//DTD SVG 1.1//EN"
 "http://www.w3.org/Graphics/SVG/1.1/DTD/svg11.dtd">
<!-- Generated by graphviz version 2.38.0 (20140413.2041)
 -->
<!-- Title: SNPs::getGeneticDistance Pages: 1 -->
<svg width="501pt" height="102pt"
 viewBox="0.00 0.00 500.57 101.80" xmlns="http://www.w3.org/2000/svg" xmlns:xlink="http://www.w3.org/1999/xlink">
<g id="graph0" class="graph" transform="scale(1 1) rotate(0) translate(4 97.8)">
<title>SNPs::getGeneticDistance</title>
<polygon fill="white" stroke="none" points="-4,4 -4,-97.8 496.57,-97.8 496.57,4 -4,4"/>
<!-- Node1 -->
<g id="node1" class="node"><title>Node1</title>
<polygon fill="#bfbfbf" stroke="black" points="-2.84217e-14,-36.7 -2.84217e-14,-59.1 143.295,-59.1 143.295,-36.7 -2.84217e-14,-36.7"/>
<text text-anchor="middle" x="71.6474" y="-44.3" font-family="-adobe-utopia-medium-i-normal--0-0-0-0-p-0-iso10646-1" font-size="12.00">SNPs::getGeneticDistance</text>
</g>
<!-- Node2 -->
<g id="node2" class="node"><title>Node2</title>
<g id="a_node2"><a xlink:href="classSNPs.html#a5ebf04c1e5d71710bd68af7a556864f9" target="_top" xlink:title="SNPs::processLegendFile">
<polygon fill="white" stroke="black" points="179.295,-59.7 179.295,-82.1 319.269,-82.1 319.269,-59.7 179.295,-59.7"/>
<text text-anchor="middle" x="249.282" y="-67.3" font-family="-adobe-utopia-medium-i-normal--0-0-0-0-p-0-iso10646-1" font-size="12.00">SNPs::processLegendFile</text>
</a>
</g>
</g>
<!-- Node1&#45;&gt;Node2 -->
<g id="edge1" class="edge"><title>Node1&#45;&gt;Node2</title>
<path fill="none" stroke="midnightblue" d="M153.381,-58.4723C161.999,-59.6009 170.709,-60.7415 179.176,-61.8503"/>
<polygon fill="midnightblue" stroke="midnightblue" points="153.695,-54.9837 143.326,-57.1556 152.786,-61.9245 153.695,-54.9837"/>
</g>
<!-- Node4 -->
<g id="node4" class="node"><title>Node4</title>
<g id="a_node4"><a xlink:href="classSNPs.html#a0f26b6fbd02cc5afd8d423b411d304e8" target="_top" xlink:title="SNPs::processMAPFile">
<polygon fill="white" stroke="black" points="184.287,-14.7 184.287,-37.1 314.277,-37.1 314.277,-14.7 184.287,-14.7"/>
<text text-anchor="middle" x="249.282" y="-22.3" font-family="-adobe-utopia-medium-i-normal--0-0-0-0-p-0-iso10646-1" font-size="12.00">SNPs::processMAPFile</text>
</a>
</g>
</g>
<!-- Node1&#45;&gt;Node4 -->
<g id="edge3" class="edge"><title>Node1&#45;&gt;Node4</title>
<path fill="none" stroke="midnightblue" d="M153.562,-37.7646C163.862,-36.4744 174.29,-35.1683 184.273,-33.9178"/>
<polygon fill="midnightblue" stroke="midnightblue" points="152.813,-34.331 143.326,-39.0469 153.683,-41.2767 152.813,-34.331"/>
</g>
<!-- Node3 -->
<g id="node3" class="node"><title>Node3</title>
<g id="a_node3"><a xlink:href="classHMIndividualsExtractor.html#af7aaa5ed222fd00cc2c36e69a01a3bb3" target="_top" xlink:title="HMIndividualsExtractor\l::loadInput">
<polygon fill="white" stroke="black" points="356.937,-56.5 356.937,-93.3 490.903,-93.3 490.903,-56.5 356.937,-56.5"/>
<text text-anchor="start" x="364.937" y="-78.5" font-family="-adobe-utopia-medium-i-normal--0-0-0-0-p-0-iso10646-1" font-size="12.00">HMIndividualsExtractor</text>
<text text-anchor="middle" x="423.92" y="-64.1" font-family="-adobe-utopia-medium-i-normal--0-0-0-0-p-0-iso10646-1" font-size="12.00">::loadInput</text>
</a>
</g>
</g>
<!-- Node2&#45;&gt;Node3 -->
<g id="edge2" class="edge"><title>Node2&#45;&gt;Node3</title>
<path fill="none" stroke="midnightblue" d="M329.673,-72.7395C338.735,-72.9495 347.901,-73.1618 356.765,-73.3672"/>
<polygon fill="midnightblue" stroke="midnightblue" points="329.584,-69.2366 319.506,-72.5039 329.422,-76.2347 329.584,-69.2366"/>
</g>
<!-- Node5 -->
<g id="node5" class="node"><title>Node5</title>
<g id="a_node5"><a xlink:href="classPEDIndividualsExtractor.html#aaaae7102f9e3db6f900b3d56f559dc91" target="_top" xlink:title="PEDIndividualsExtractor\l::loadInput">
<polygon fill="white" stroke="black" points="355.269,-0.5 355.269,-37.3 492.57,-37.3 492.57,-0.5 355.269,-0.5"/>
<text text-anchor="start" x="363.269" y="-22.5" font-family="-adobe-utopia-medium-i-normal--0-0-0-0-p-0-iso10646-1" font-size="12.00">PEDIndividualsExtractor</text>
<text text-anchor="middle" x="423.92" y="-8.1" font-family="-adobe-utopia-medium-i-normal--0-0-0-0-p-0-iso10646-1" font-size="12.00">::loadInput</text>
</a>
</g>
</g>
<!-- Node4&#45;&gt;Node5 -->
<g id="edge4" class="edge"><title>Node4&#45;&gt;Node5</title>
<path fill="none" stroke="midnightblue" d="M324.605,-22.8864C334.741,-22.4754 345.102,-22.0553 355.114,-21.6493"/>
<polygon fill="midnightblue" stroke="midnightblue" points="324.416,-19.3911 314.566,-23.2935 324.699,-26.3853 324.416,-19.3911"/>
</g>
</g>
</svg>
