<?xml version="1.0" encoding="UTF-8" standalone="no"?>
<!DOCTYPE svg PUBLIC "-//W3C//DTD SVG 1.1//EN"
 "http://www.w3.org/Graphics/SVG/1.1/DTD/svg11.dtd">
<!-- Generated by graphviz version 2.38.0 (20140413.2041)
 -->
<!-- Title: Individual::getChromosome Pages: 1 -->
<svg width="1639pt" height="356pt"
 viewBox="0.00 0.00 1639.05 356.40" xmlns="http://www.w3.org/2000/svg" xmlns:xlink="http://www.w3.org/1999/xlink">
<g id="graph0" class="graph" transform="scale(1 1) rotate(0) translate(4 352.4)">
<title>Individual::getChromosome</title>
<polygon fill="white" stroke="none" points="-4,4 -4,-352.4 1635.05,-352.4 1635.05,4 -4,4"/>
<!-- Node1 -->
<g id="node1" class="node"><title>Node1</title>
<polygon fill="#bfbfbf" stroke="black" points="9.9476e-14,-123.5 9.9476e-14,-145.9 151.318,-145.9 151.318,-123.5 9.9476e-14,-123.5"/>
<text text-anchor="middle" x="75.659" y="-131.1" font-family="-adobe-utopia-medium-i-normal--0-0-0-0-p-0-iso10646-1" font-size="12.00">Individual::getChromosome</text>
</g>
<!-- Node2 -->
<g id="node2" class="node"><title>Node2</title>
<g id="a_node2"><a xlink:href="classMatch.html#a7c47a9c7017d308d2ae58fac5a204179" target="_top" xlink:title="Match::approxEqual">
<polygon fill="white" stroke="black" points="187.318,-264.5 187.318,-286.9 301.957,-286.9 301.957,-264.5 187.318,-264.5"/>
<text text-anchor="middle" x="244.637" y="-272.1" font-family="-adobe-utopia-medium-i-normal--0-0-0-0-p-0-iso10646-1" font-size="12.00">Match::approxEqual</text>
</a>
</g>
</g>
<!-- Node1&#45;&gt;Node2 -->
<g id="edge1" class="edge"><title>Node1&#45;&gt;Node2</title>
<path fill="none" stroke="midnightblue" d="M97.269,-152.657C119.396,-171.874 155.645,-203.177 187.318,-229.7 201.643,-241.696 218.228,-255.196 229.673,-264.452"/>
<polygon fill="midnightblue" stroke="midnightblue" points="99.3619,-149.839 89.5189,-145.919 94.7691,-155.121 99.3619,-149.839"/>
</g>
<!-- Node11 -->
<g id="node11" class="node"><title>Node11</title>
<g id="a_node11"><a xlink:href="classMatchFactory.html#aa1f3b5e8f0e2fbd5ac2dcbc24a9e6812" target="_top" xlink:title="MatchFactory::hash">
<polygon fill="white" stroke="black" points="692.893,-284.5 692.893,-306.9 804.865,-306.9 804.865,-284.5 692.893,-284.5"/>
<text text-anchor="middle" x="748.879" y="-292.1" font-family="-adobe-utopia-medium-i-normal--0-0-0-0-p-0-iso10646-1" font-size="12.00">MatchFactory::hash</text>
</a>
</g>
</g>
<!-- Node1&#45;&gt;Node11 -->
<g id="edge15" class="edge"><title>Node1&#45;&gt;Node11</title>
<path fill="none" stroke="midnightblue" d="M100.284,-151.916C121.808,-166.598 155.07,-186.845 187.318,-196.7 383.466,-256.639 452.134,-171.419 647.23,-234.7 681.048,-245.669 715.392,-269.908 733.924,-284.31"/>
<polygon fill="midnightblue" stroke="midnightblue" points="102.019,-148.859 91.8146,-146.011 98.0157,-154.601 102.019,-148.859"/>
</g>
<!-- Node13 -->
<g id="node13" class="node"><title>Node13</title>
<g id="a_node13"><a xlink:href="classMatch.html#ad096e35ab1b57725ca15372b1c0eebe6" target="_top" xlink:title="Match::diff">
<polygon fill="white" stroke="black" points="209.313,-164.5 209.313,-186.9 279.962,-186.9 279.962,-164.5 209.313,-164.5"/>
<text text-anchor="middle" x="244.637" y="-172.1" font-family="-adobe-utopia-medium-i-normal--0-0-0-0-p-0-iso10646-1" font-size="12.00">Match::diff</text>
</a>
</g>
</g>
<!-- Node1&#45;&gt;Node13 -->
<g id="edge13" class="edge"><title>Node1&#45;&gt;Node13</title>
<path fill="none" stroke="midnightblue" d="M132.187,-148.334C157.632,-154.582 186.994,-161.792 209.191,-167.242"/>
<polygon fill="midnightblue" stroke="midnightblue" points="132.833,-144.889 122.287,-145.903 131.163,-151.687 132.833,-144.889"/>
</g>
<!-- Node15 -->
<g id="node15" class="node"><title>Node15</title>
<g id="a_node15"><a xlink:href="classMatch.html#ad3c0caeb0a6c2e878ab32d82ad6fe9d8" target="_top" xlink:title="Match::isHom">
<polygon fill="white" stroke="black" points="201.975,-123.5 201.975,-145.9 287.299,-145.9 287.299,-123.5 201.975,-123.5"/>
<text text-anchor="middle" x="244.637" y="-131.1" font-family="-adobe-utopia-medium-i-normal--0-0-0-0-p-0-iso10646-1" font-size="12.00">Match::isHom</text>
</a>
</g>
</g>
<!-- Node1&#45;&gt;Node15 -->
<g id="edge16" class="edge"><title>Node1&#45;&gt;Node15</title>
<path fill="none" stroke="midnightblue" d="M161.569,-134.7C175.611,-134.7 189.6,-134.7 201.946,-134.7"/>
<polygon fill="midnightblue" stroke="midnightblue" points="161.357,-131.2 151.357,-134.7 161.357,-138.2 161.357,-131.2"/>
</g>
<!-- Node16 -->
<g id="node16" class="node"><title>Node16</title>
<g id="a_node16"><a xlink:href="Individual_8h.html#a51c3dd4bb7a3668c4dd06c743bd629ff" target="_top" xlink:title="operator\&lt;\&lt;">
<polygon fill="white" stroke="black" points="209.882,-82.5 209.882,-104.9 279.393,-104.9 279.393,-82.5 209.882,-82.5"/>
<text text-anchor="middle" x="244.637" y="-90.1" font-family="-adobe-utopia-medium-i-normal--0-0-0-0-p-0-iso10646-1" font-size="12.00">operator&lt;&lt;</text>
</a>
</g>
</g>
<!-- Node1&#45;&gt;Node16 -->
<g id="edge18" class="edge"><title>Node1&#45;&gt;Node16</title>
<path fill="none" stroke="midnightblue" d="M132.258,-121.048C157.889,-114.755 187.483,-107.488 209.721,-102.028"/>
<polygon fill="midnightblue" stroke="midnightblue" points="131.163,-117.713 122.287,-123.497 132.833,-124.511 131.163,-117.713"/>
</g>
<!-- Node17 -->
<g id="node17" class="node"><title>Node17</title>
<g id="a_node17"><a xlink:href="classMatch.html#ad8dfa0cc3b9bc5cacc26457f6098904b" target="_top" xlink:title="Match::scanLeft">
<polygon fill="white" stroke="black" points="197.321,-41.5 197.321,-63.9 291.954,-63.9 291.954,-41.5 197.321,-41.5"/>
<text text-anchor="middle" x="244.637" y="-49.1" font-family="-adobe-utopia-medium-i-normal--0-0-0-0-p-0-iso10646-1" font-size="12.00">Match::scanLeft</text>
</a>
</g>
</g>
<!-- Node1&#45;&gt;Node17 -->
<g id="edge19" class="edge"><title>Node1&#45;&gt;Node17</title>
<path fill="none" stroke="midnightblue" d="M103.335,-118.063C125.345,-104.753 157.664,-86.1555 187.318,-72.7 194.216,-69.5703 201.759,-66.5992 209.019,-63.9507"/>
<polygon fill="midnightblue" stroke="midnightblue" points="101.283,-115.215 94.5711,-123.413 104.93,-121.19 101.283,-115.215"/>
</g>
<!-- Node18 -->
<g id="node18" class="node"><title>Node18</title>
<g id="a_node18"><a xlink:href="classMatch.html#a5ddbdc8424b9fdfe8327ddd7c15637e8" target="_top" xlink:title="Match::scanRight">
<polygon fill="white" stroke="black" points="193.979,-0.5 193.979,-22.9 295.296,-22.9 295.296,-0.5 193.979,-0.5"/>
<text text-anchor="middle" x="244.637" y="-8.1" font-family="-adobe-utopia-medium-i-normal--0-0-0-0-p-0-iso10646-1" font-size="12.00">Match::scanRight</text>
</a>
</g>
</g>
<!-- Node1&#45;&gt;Node18 -->
<g id="edge21" class="edge"><title>Node1&#45;&gt;Node18</title>
<path fill="none" stroke="midnightblue" d="M92.7802,-115.518C112.844,-92.7207 149.148,-54.8609 187.318,-31.7 192.818,-28.3628 198.957,-25.469 205.103,-22.9995"/>
<polygon fill="midnightblue" stroke="midnightblue" points="90.0465,-113.329 86.1495,-123.181 95.3398,-117.909 90.0465,-113.329"/>
</g>
<!-- Node3 -->
<g id="node3" class="node"><title>Node3</title>
<g id="a_node3"><a xlink:href="classIndividual.html#a37fd25dcc27a8613ca4e5a8d9bcbaca6" target="_top" xlink:title="Individual::assertShares">
<polygon fill="white" stroke="black" points="683.23,-325.5 683.23,-347.9 814.528,-347.9 814.528,-325.5 683.23,-325.5"/>
<text text-anchor="middle" x="748.879" y="-333.1" font-family="-adobe-utopia-medium-i-normal--0-0-0-0-p-0-iso10646-1" font-size="12.00">Individual::assertShares</text>
</a>
</g>
</g>
<!-- Node2&#45;&gt;Node3 -->
<g id="edge2" class="edge"><title>Node2&#45;&gt;Node3</title>
<path fill="none" stroke="midnightblue" d="M301.416,-289.151C313.432,-291.834 326.088,-294.5 337.957,-296.7 458.71,-319.082 601.945,-329.436 683.144,-333.827"/>
<polygon fill="midnightblue" stroke="midnightblue" points="302.032,-285.701 291.505,-286.902 300.483,-292.528 302.032,-285.701"/>
</g>
<!-- Node9 -->
<g id="node9" class="node"><title>Node9</title>
<g id="a_node9"><a xlink:href="classMatch.html#afb81327901b29b02ff117406cdec0a4e" target="_top" xlink:title="Match::extendBack">
<polygon fill="white" stroke="black" points="337.957,-264.5 337.957,-286.9 447.926,-286.9 447.926,-264.5 337.957,-264.5"/>
<text text-anchor="middle" x="392.942" y="-272.1" font-family="-adobe-utopia-medium-i-normal--0-0-0-0-p-0-iso10646-1" font-size="12.00">Match::extendBack</text>
</a>
</g>
</g>
<!-- Node2&#45;&gt;Node9 -->
<g id="edge8" class="edge"><title>Node2&#45;&gt;Node9</title>
<path fill="none" stroke="midnightblue" d="M312.222,-275.7C320.829,-275.7 329.559,-275.7 337.929,-275.7"/>
<polygon fill="midnightblue" stroke="midnightblue" points="312.202,-272.2 302.202,-275.7 312.202,-279.2 312.202,-272.2"/>
</g>
<!-- Node4 -->
<g id="node4" class="node"><title>Node4</title>
<g id="a_node4"><a xlink:href="classMatchesBuilder.html#af44853a4e7540f4f54a802a5d0c45faf" target="_top" xlink:title="MatchesBuilder::matchMarkerSet">
<polygon fill="white" stroke="black" points="850.528,-304.5 850.528,-326.9 1029.81,-326.9 1029.81,-304.5 850.528,-304.5"/>
<text text-anchor="middle" x="940.167" y="-312.1" font-family="-adobe-utopia-medium-i-normal--0-0-0-0-p-0-iso10646-1" font-size="12.00">MatchesBuilder::matchMarkerSet</text>
</a>
</g>
</g>
<!-- Node3&#45;&gt;Node4 -->
<g id="edge3" class="edge"><title>Node3&#45;&gt;Node4</title>
<path fill="none" stroke="midnightblue" d="M824.831,-328.385C833.192,-327.457 841.768,-326.506 850.282,-325.561"/>
<polygon fill="midnightblue" stroke="midnightblue" points="824.31,-324.921 814.757,-329.502 825.082,-331.878 824.31,-324.921"/>
</g>
<!-- Node5 -->
<g id="node5" class="node"><title>Node5</title>
<g id="a_node5"><a xlink:href="classMatchesBuilder.html#ae8d8a0ff7f0726406e83d4fa55a96bf4" target="_top" xlink:title="MatchesBuilder::matchAll\lMarkers">
<polygon fill="white" stroke="black" points="1065.81,-297.3 1065.81,-334.1 1209.77,-334.1 1209.77,-297.3 1065.81,-297.3"/>
<text text-anchor="start" x="1073.81" y="-319.3" font-family="-adobe-utopia-medium-i-normal--0-0-0-0-p-0-iso10646-1" font-size="12.00">MatchesBuilder::matchAll</text>
<text text-anchor="middle" x="1137.79" y="-304.9" font-family="-adobe-utopia-medium-i-normal--0-0-0-0-p-0-iso10646-1" font-size="12.00">Markers</text>
</a>
</g>
</g>
<!-- Node4&#45;&gt;Node5 -->
<g id="edge4" class="edge"><title>Node4&#45;&gt;Node5</title>
<path fill="none" stroke="midnightblue" d="M1040,-315.7C1048.68,-315.7 1057.35,-315.7 1065.73,-315.7"/>
<polygon fill="midnightblue" stroke="midnightblue" points="1039.82,-312.2 1029.82,-315.7 1039.82,-319.2 1039.82,-312.2"/>
</g>
<!-- Node6 -->
<g id="node6" class="node"><title>Node6</title>
<g id="a_node6"><a xlink:href="classMatchesBuilder.html#a31faf645700f38ac0d7d164b57cfebd1" target="_top" xlink:title="MatchesBuilder::buildMatches">
<polygon fill="white" stroke="black" points="1245.77,-304.5 1245.77,-326.9 1410.41,-326.9 1410.41,-304.5 1245.77,-304.5"/>
<text text-anchor="middle" x="1328.09" y="-312.1" font-family="-adobe-utopia-medium-i-normal--0-0-0-0-p-0-iso10646-1" font-size="12.00">MatchesBuilder::buildMatches</text>
</a>
</g>
</g>
<!-- Node5&#45;&gt;Node6 -->
<g id="edge5" class="edge"><title>Node5&#45;&gt;Node6</title>
<path fill="none" stroke="midnightblue" d="M1220.2,-315.7C1228.65,-315.7 1237.24,-315.7 1245.7,-315.7"/>
<polygon fill="midnightblue" stroke="midnightblue" points="1219.98,-312.2 1209.98,-315.7 1219.98,-319.2 1219.98,-312.2"/>
</g>
<!-- Node7 -->
<g id="node7" class="node"><title>Node7</title>
<g id="a_node7"><a xlink:href="classGERMLINE.html#a7912aa3108f42f42e06c615b460d0565" target="_top" xlink:title="GERMLINE::mine">
<polygon fill="white" stroke="black" points="1446.41,-304.5 1446.41,-326.9 1555.05,-326.9 1555.05,-304.5 1446.41,-304.5"/>
<text text-anchor="middle" x="1500.73" y="-312.1" font-family="-adobe-utopia-medium-i-normal--0-0-0-0-p-0-iso10646-1" font-size="12.00">GERMLINE::mine</text>
</a>
</g>
</g>
<!-- Node6&#45;&gt;Node7 -->
<g id="edge6" class="edge"><title>Node6&#45;&gt;Node7</title>
<path fill="none" stroke="midnightblue" d="M1420.41,-315.7C1429.26,-315.7 1438.02,-315.7 1446.31,-315.7"/>
<polygon fill="midnightblue" stroke="midnightblue" points="1420.41,-312.2 1410.41,-315.7 1420.41,-319.2 1420.41,-312.2"/>
</g>
<!-- Node8 -->
<g id="node8" class="node"><title>Node8</title>
<g id="a_node8"><a xlink:href="GERMLINE__0001_8cpp.html#a0ddf1224851353fc92bfbff6f499fa97" target="_top" xlink:title="main">
<polygon fill="white" stroke="black" points="1591.05,-304.5 1591.05,-326.9 1631.05,-326.9 1631.05,-304.5 1591.05,-304.5"/>
<text text-anchor="middle" x="1611.05" y="-312.1" font-family="-adobe-utopia-medium-i-normal--0-0-0-0-p-0-iso10646-1" font-size="12.00">main</text>
</a>
</g>
</g>
<!-- Node7&#45;&gt;Node8 -->
<g id="edge7" class="edge"><title>Node7&#45;&gt;Node8</title>
<path fill="none" stroke="midnightblue" d="M1565.41,-315.7C1574.67,-315.7 1583.55,-315.7 1590.92,-315.7"/>
<polygon fill="midnightblue" stroke="midnightblue" points="1565.26,-312.2 1555.26,-315.7 1565.26,-319.2 1565.26,-312.2"/>
</g>
<!-- Node10 -->
<g id="node10" class="node"><title>Node10</title>
<g id="a_node10"><a xlink:href="classIndividual.html#a6e75847d9fdd923bd0cf7a9ec5e2b1a4" target="_top" xlink:title="Individual::assertHomozygous">
<polygon fill="white" stroke="black" points="483.926,-285.5 483.926,-307.9 647.23,-307.9 647.23,-285.5 483.926,-285.5"/>
<text text-anchor="middle" x="565.578" y="-293.1" font-family="-adobe-utopia-medium-i-normal--0-0-0-0-p-0-iso10646-1" font-size="12.00">Individual::assertHomozygous</text>
</a>
</g>
</g>
<!-- Node9&#45;&gt;Node10 -->
<g id="edge9" class="edge"><title>Node9&#45;&gt;Node10</title>
<path fill="none" stroke="midnightblue" d="M458.033,-283.588C466.453,-284.624 475.168,-285.696 483.82,-286.761"/>
<polygon fill="midnightblue" stroke="midnightblue" points="458.285,-280.092 447.932,-282.345 457.43,-287.04 458.285,-280.092"/>
</g>
<!-- Node12 -->
<g id="node12" class="node"><title>Node12</title>
<g id="a_node12"><a xlink:href="classShare.html#aef9bc1c8649dbe3039e1a35ea3050715" target="_top" xlink:title="Share::assertMatches">
<polygon fill="white" stroke="black" points="506.601,-244.5 506.601,-266.9 624.555,-266.9 624.555,-244.5 506.601,-244.5"/>
<text text-anchor="middle" x="565.578" y="-252.1" font-family="-adobe-utopia-medium-i-normal--0-0-0-0-p-0-iso10646-1" font-size="12.00">Share::assertMatches</text>
</a>
</g>
</g>
<!-- Node9&#45;&gt;Node12 -->
<g id="edge12" class="edge"><title>Node9&#45;&gt;Node12</title>
<path fill="none" stroke="midnightblue" d="M458.185,-268.17C474.052,-266.31 490.956,-264.329 506.511,-262.506"/>
<polygon fill="midnightblue" stroke="midnightblue" points="457.457,-264.731 447.932,-269.372 458.272,-271.684 457.457,-264.731"/>
</g>
<!-- Node10&#45;&gt;Node11 -->
<g id="edge10" class="edge"><title>Node10&#45;&gt;Node11</title>
<path fill="none" stroke="midnightblue" d="M657.494,-296.199C669.508,-296.132 681.515,-296.066 692.672,-296.005"/>
<polygon fill="midnightblue" stroke="midnightblue" points="657.4,-292.699 647.419,-296.254 657.439,-299.699 657.4,-292.699"/>
</g>
<!-- Node11&#45;&gt;Node4 -->
<g id="edge11" class="edge"><title>Node11&#45;&gt;Node4</title>
<path fill="none" stroke="midnightblue" d="M815.159,-302.597C826.565,-303.802 838.602,-305.074 850.512,-306.333"/>
<polygon fill="midnightblue" stroke="midnightblue" points="815.196,-299.082 804.883,-301.512 814.46,-306.043 815.196,-299.082"/>
</g>
<!-- Node14 -->
<g id="node14" class="node"><title>Node14</title>
<g id="a_node14"><a xlink:href="classMatch.html#a989ae28b68842fc096ee6edb8c1595fd" target="_top" xlink:title="Match::print">
<polygon fill="white" stroke="black" points="354.947,-82.5 354.947,-104.9 430.936,-104.9 430.936,-82.5 354.947,-82.5"/>
<text text-anchor="middle" x="392.942" y="-90.1" font-family="-adobe-utopia-medium-i-normal--0-0-0-0-p-0-iso10646-1" font-size="12.00">Match::print</text>
</a>
</g>
</g>
<!-- Node13&#45;&gt;Node14 -->
<g id="edge14" class="edge"><title>Node13&#45;&gt;Node14</title>
<path fill="none" stroke="midnightblue" d="M289.537,-161.391C293.799,-159.622 298.004,-157.719 301.957,-155.7 330.678,-141.029 360.935,-118.502 378.023,-105.023"/>
<polygon fill="midnightblue" stroke="midnightblue" points="288.232,-158.144 280.192,-165.043 290.78,-164.663 288.232,-158.144"/>
</g>
<!-- Node15&#45;&gt;Node14 -->
<g id="edge17" class="edge"><title>Node15&#45;&gt;Node14</title>
<path fill="none" stroke="midnightblue" d="M295.473,-120.734C314.808,-115.316 336.571,-109.217 354.526,-104.185"/>
<polygon fill="midnightblue" stroke="midnightblue" points="294.3,-117.428 285.616,-123.497 296.189,-124.168 294.3,-117.428"/>
</g>
<!-- Node17&#45;&gt;Node14 -->
<g id="edge20" class="edge"><title>Node17&#45;&gt;Node14</title>
<path fill="none" stroke="midnightblue" d="M295.473,-66.6657C314.808,-72.0843 336.571,-78.183 354.526,-83.2147"/>
<polygon fill="midnightblue" stroke="midnightblue" points="296.189,-63.2318 285.616,-63.9034 294.3,-69.9721 296.189,-63.2318"/>
</g>
<!-- Node18&#45;&gt;Node14 -->
<g id="edge22" class="edge"><title>Node18&#45;&gt;Node14</title>
<path fill="none" stroke="midnightblue" d="M291.043,-26.6403C294.788,-28.2284 298.47,-29.9189 301.957,-31.7 330.678,-46.3715 360.935,-68.8981 378.023,-82.3774"/>
<polygon fill="midnightblue" stroke="midnightblue" points="292.267,-23.3607 281.682,-22.911 289.677,-29.8636 292.267,-23.3607"/>
</g>
</g>
</svg>
