<?xml version="1.0" encoding="UTF-8" standalone="no"?>
<!DOCTYPE svg PUBLIC "-//W3C//DTD SVG 1.1//EN"
 "http://www.w3.org/Graphics/SVG/1.1/DTD/svg11.dtd">
<!-- Generated by graphviz version 2.38.0 (20140413.2041)
 -->
<!-- Title: Match::length Pages: 1 -->
<svg width="233pt" height="31pt"
 viewBox="0.00 0.00 233.30 31.40" xmlns="http://www.w3.org/2000/svg" xmlns:xlink="http://www.w3.org/1999/xlink">
<g id="graph0" class="graph" transform="scale(1 1) rotate(0) translate(4 27.4)">
<title>Match::length</title>
<polygon fill="white" stroke="none" points="-4,4 -4,-27.4 229.303,-27.4 229.303,4 -4,4"/>
<!-- Node1 -->
<g id="node1" class="node"><title>Node1</title>
<polygon fill="#bfbfbf" stroke="black" points="-1.42109e-14,-0.5 -1.42109e-14,-22.9 83.3212,-22.9 83.3212,-0.5 -1.42109e-14,-0.5"/>
<text text-anchor="middle" x="41.6606" y="-8.1" font-family="-adobe-utopia-medium-i-normal--0-0-0-0-p-0-iso10646-1" font-size="12.00">Match::length</text>
</g>
<!-- Node2 -->
<g id="node2" class="node"><title>Node2</title>
<g id="a_node2"><a xlink:href="classSNPs.html#ade6928b76d711b107ac9fa36b8b95794" target="_top" xlink:title="SNPs::getDistance">
<polygon fill="white" stroke="black" points="119.321,-0.5 119.321,-22.9 225.303,-22.9 225.303,-0.5 119.321,-0.5"/>
<text text-anchor="middle" x="172.312" y="-8.1" font-family="-adobe-utopia-medium-i-normal--0-0-0-0-p-0-iso10646-1" font-size="12.00">SNPs::getDistance</text>
</a>
</g>
</g>
<!-- Node1&#45;&gt;Node2 -->
<g id="edge1" class="edge"><title>Node1&#45;&gt;Node2</title>
<path fill="none" stroke="midnightblue" d="M83.3668,-11.7C91.515,-11.7 100.25,-11.7 108.938,-11.7"/>
<polygon fill="midnightblue" stroke="midnightblue" points="109.077,-15.2001 119.077,-11.7 109.077,-8.2001 109.077,-15.2001"/>
</g>
</g>
</svg>
