<?xml version="1.0" encoding="UTF-8" standalone="no"?>
<!DOCTYPE svg PUBLIC "-//W3C//DTD SVG 1.1//EN"
 "http://www.w3.org/Graphics/SVG/1.1/DTD/svg11.dtd">
<!-- Generated by graphviz version 2.38.0 (20140413.2041)
 -->
<!-- Title: Individuals::freeMarkers Pages: 1 -->
<svg width="364pt" height="31pt"
 viewBox="0.00 0.00 363.93 31.40" xmlns="http://www.w3.org/2000/svg" xmlns:xlink="http://www.w3.org/1999/xlink">
<g id="graph0" class="graph" transform="scale(1 1) rotate(0) translate(4 27.4)">
<title>Individuals::freeMarkers</title>
<polygon fill="white" stroke="none" points="-4,4 -4,-27.4 359.927,-27.4 359.927,4 -4,4"/>
<!-- Node1 -->
<g id="node1" class="node"><title>Node1</title>
<polygon fill="#bfbfbf" stroke="black" points="-2.84217e-14,-0.5 -2.84217e-14,-22.9 135.282,-22.9 135.282,-0.5 -2.84217e-14,-0.5"/>
<text text-anchor="middle" x="67.6412" y="-8.1" font-family="-adobe-utopia-medium-i-normal--0-0-0-0-p-0-iso10646-1" font-size="12.00">Individuals::freeMarkers</text>
</g>
<!-- Node2 -->
<g id="node2" class="node"><title>Node2</title>
<g id="a_node2"><a xlink:href="classGERMLINE.html#a7912aa3108f42f42e06c615b460d0565" target="_top" xlink:title="GERMLINE::mine">
<polygon fill="white" stroke="black" points="171.282,-0.5 171.282,-22.9 279.931,-22.9 279.931,-0.5 171.282,-0.5"/>
<text text-anchor="middle" x="225.607" y="-8.1" font-family="-adobe-utopia-medium-i-normal--0-0-0-0-p-0-iso10646-1" font-size="12.00">GERMLINE::mine</text>
</a>
</g>
</g>
<!-- Node1&#45;&gt;Node2 -->
<g id="edge1" class="edge"><title>Node1&#45;&gt;Node2</title>
<path fill="none" stroke="midnightblue" d="M145.778,-11.7C154.398,-11.7 163.033,-11.7 171.259,-11.7"/>
<polygon fill="midnightblue" stroke="midnightblue" points="145.69,-8.2001 135.69,-11.7 145.69,-15.2001 145.69,-8.2001"/>
</g>
<!-- Node3 -->
<g id="node3" class="node"><title>Node3</title>
<g id="a_node3"><a xlink:href="GERMLINE__0001_8cpp.html#a0ddf1224851353fc92bfbff6f499fa97" target="_top" xlink:title="main">
<polygon fill="white" stroke="black" points="315.931,-0.5 315.931,-22.9 355.927,-22.9 355.927,-0.5 315.931,-0.5"/>
<text text-anchor="middle" x="335.929" y="-8.1" font-family="-adobe-utopia-medium-i-normal--0-0-0-0-p-0-iso10646-1" font-size="12.00">main</text>
</a>
</g>
</g>
<!-- Node2&#45;&gt;Node3 -->
<g id="edge2" class="edge"><title>Node2&#45;&gt;Node3</title>
<path fill="none" stroke="midnightblue" d="M290.284,-11.7C299.548,-11.7 308.43,-11.7 315.797,-11.7"/>
<polygon fill="midnightblue" stroke="midnightblue" points="290.133,-8.2001 280.133,-11.7 290.133,-15.2001 290.133,-8.2001"/>
</g>
</g>
</svg>
