<?xml version="1.0" encoding="UTF-8" standalone="no"?>
<!DOCTYPE svg PUBLIC "-//W3C//DTD SVG 1.1//EN"
 "http://www.w3.org/Graphics/SVG/1.1/DTD/svg11.dtd">
<!-- Generated by graphviz version 2.38.0 (20140413.2041)
 -->
<!-- Title: MarkerSet::getMarkerBits Pages: 1 -->
<svg width="1630pt" height="315pt"
 viewBox="0.00 0.00 1630.35 315.40" xmlns="http://www.w3.org/2000/svg" xmlns:xlink="http://www.w3.org/1999/xlink">
<g id="graph0" class="graph" transform="scale(1 1) rotate(0) translate(4 311.4)">
<title>MarkerSet::getMarkerBits</title>
<polygon fill="white" stroke="none" points="-4,4 -4,-311.4 1626.35,-311.4 1626.35,4 -4,4"/>
<!-- Node1 -->
<g id="node1" class="node"><title>Node1</title>
<polygon fill="#bfbfbf" stroke="black" points="5.68434e-14,-102.5 5.68434e-14,-124.9 142.623,-124.9 142.623,-102.5 5.68434e-14,-102.5"/>
<text text-anchor="middle" x="71.3114" y="-110.1" font-family="-adobe-utopia-medium-i-normal--0-0-0-0-p-0-iso10646-1" font-size="12.00">MarkerSet::getMarkerBits</text>
</g>
<!-- Node2 -->
<g id="node2" class="node"><title>Node2</title>
<g id="a_node2"><a xlink:href="classMatch.html#a7c47a9c7017d308d2ae58fac5a204179" target="_top" xlink:title="Match::approxEqual">
<polygon fill="white" stroke="black" points="178.623,-223.5 178.623,-245.9 293.262,-245.9 293.262,-223.5 178.623,-223.5"/>
<text text-anchor="middle" x="235.942" y="-231.1" font-family="-adobe-utopia-medium-i-normal--0-0-0-0-p-0-iso10646-1" font-size="12.00">Match::approxEqual</text>
</a>
</g>
</g>
<!-- Node1&#45;&gt;Node2 -->
<g id="edge1" class="edge"><title>Node1&#45;&gt;Node2</title>
<path fill="none" stroke="midnightblue" d="M95.9816,-131.311C129.813,-156.482 191.051,-202.044 219.564,-223.259"/>
<polygon fill="midnightblue" stroke="midnightblue" points="97.7236,-128.245 87.6113,-125.083 93.5451,-133.861 97.7236,-128.245"/>
</g>
<!-- Node11 -->
<g id="node11" class="node"><title>Node11</title>
<g id="a_node11"><a xlink:href="classMatchFactory.html#aa1f3b5e8f0e2fbd5ac2dcbc24a9e6812" target="_top" xlink:title="MatchFactory::hash">
<polygon fill="white" stroke="black" points="684.198,-243.5 684.198,-265.9 796.17,-265.9 796.17,-243.5 684.198,-243.5"/>
<text text-anchor="middle" x="740.184" y="-251.1" font-family="-adobe-utopia-medium-i-normal--0-0-0-0-p-0-iso10646-1" font-size="12.00">MatchFactory::hash</text>
</a>
</g>
</g>
<!-- Node1&#45;&gt;Node11 -->
<g id="edge15" class="edge"><title>Node1&#45;&gt;Node11</title>
<path fill="none" stroke="midnightblue" d="M104.579,-129.326C125.252,-138.607 152.931,-149.702 178.623,-155.7 378.354,-202.327 443.439,-130.419 638.535,-193.7 672.353,-204.669 706.697,-228.908 725.229,-243.31"/>
<polygon fill="midnightblue" stroke="midnightblue" points="105.869,-126.067 95.32,-125.081 102.951,-132.43 105.869,-126.067"/>
</g>
<!-- Node13 -->
<g id="node13" class="node"><title>Node13</title>
<g id="a_node13"><a xlink:href="classMatch.html#ad096e35ab1b57725ca15372b1c0eebe6" target="_top" xlink:title="Match::diff">
<polygon fill="white" stroke="black" points="200.618,-123.5 200.618,-145.9 271.267,-145.9 271.267,-123.5 200.618,-123.5"/>
<text text-anchor="middle" x="235.942" y="-131.1" font-family="-adobe-utopia-medium-i-normal--0-0-0-0-p-0-iso10646-1" font-size="12.00">Match::diff</text>
</a>
</g>
</g>
<!-- Node1&#45;&gt;Node13 -->
<g id="edge13" class="edge"><title>Node1&#45;&gt;Node13</title>
<path fill="none" stroke="midnightblue" d="M153.021,-124.122C169.648,-126.269 186.309,-128.42 200.222,-130.217"/>
<polygon fill="midnightblue" stroke="midnightblue" points="153.064,-120.598 142.698,-122.789 152.167,-127.541 153.064,-120.598"/>
</g>
<!-- Node15 -->
<g id="node15" class="node"><title>Node15</title>
<g id="a_node15"><a xlink:href="classMatch.html#ad3c0caeb0a6c2e878ab32d82ad6fe9d8" target="_top" xlink:title="Match::isHom">
<polygon fill="white" stroke="black" points="193.28,-82.5 193.28,-104.9 278.604,-104.9 278.604,-82.5 193.28,-82.5"/>
<text text-anchor="middle" x="235.942" y="-90.1" font-family="-adobe-utopia-medium-i-normal--0-0-0-0-p-0-iso10646-1" font-size="12.00">Match::isHom</text>
</a>
</g>
</g>
<!-- Node1&#45;&gt;Node15 -->
<g id="edge16" class="edge"><title>Node1&#45;&gt;Node15</title>
<path fill="none" stroke="midnightblue" d="M152.81,-103.8C166.738,-102.088 180.697,-100.371 193.054,-98.8513"/>
<polygon fill="midnightblue" stroke="midnightblue" points="152.196,-100.35 142.698,-105.044 153.05,-107.297 152.196,-100.35"/>
</g>
<!-- Node16 -->
<g id="node16" class="node"><title>Node16</title>
<g id="a_node16"><a xlink:href="classMatch.html#ad8dfa0cc3b9bc5cacc26457f6098904b" target="_top" xlink:title="Match::scanLeft">
<polygon fill="white" stroke="black" points="188.626,-41.5 188.626,-63.9 283.258,-63.9 283.258,-41.5 188.626,-41.5"/>
<text text-anchor="middle" x="235.942" y="-49.1" font-family="-adobe-utopia-medium-i-normal--0-0-0-0-p-0-iso10646-1" font-size="12.00">Match::scanLeft</text>
</a>
</g>
</g>
<!-- Node1&#45;&gt;Node16 -->
<g id="edge18" class="edge"><title>Node1&#45;&gt;Node16</title>
<path fill="none" stroke="midnightblue" d="M110.584,-98.6544C130.773,-90.7903 155.985,-81.083 178.623,-72.7 186.407,-69.8174 194.826,-66.7834 202.723,-63.9739"/>
<polygon fill="midnightblue" stroke="midnightblue" points="109.152,-95.456 101.11,-102.353 111.698,-101.977 109.152,-95.456"/>
</g>
<!-- Node17 -->
<g id="node17" class="node"><title>Node17</title>
<g id="a_node17"><a xlink:href="classMatch.html#a5ddbdc8424b9fdfe8327ddd7c15637e8" target="_top" xlink:title="Match::scanRight">
<polygon fill="white" stroke="black" points="185.283,-0.5 185.283,-22.9 286.601,-22.9 286.601,-0.5 185.283,-0.5"/>
<text text-anchor="middle" x="235.942" y="-8.1" font-family="-adobe-utopia-medium-i-normal--0-0-0-0-p-0-iso10646-1" font-size="12.00">Match::scanRight</text>
</a>
</g>
</g>
<!-- Node1&#45;&gt;Node17 -->
<g id="edge20" class="edge"><title>Node1&#45;&gt;Node17</title>
<path fill="none" stroke="midnightblue" d="M91.8145,-95.5709C112.186,-77.4093 145.706,-49.6449 178.623,-31.7 184.635,-28.4222 191.291,-25.5051 197.859,-22.9807"/>
<polygon fill="midnightblue" stroke="midnightblue" points="89.2456,-93.1752 84.1789,-102.48 93.9423,-98.3657 89.2456,-93.1752"/>
</g>
<!-- Node3 -->
<g id="node3" class="node"><title>Node3</title>
<g id="a_node3"><a xlink:href="classIndividual.html#a37fd25dcc27a8613ca4e5a8d9bcbaca6" target="_top" xlink:title="Individual::assertShares">
<polygon fill="white" stroke="black" points="674.535,-284.5 674.535,-306.9 805.833,-306.9 805.833,-284.5 674.535,-284.5"/>
<text text-anchor="middle" x="740.184" y="-292.1" font-family="-adobe-utopia-medium-i-normal--0-0-0-0-p-0-iso10646-1" font-size="12.00">Individual::assertShares</text>
</a>
</g>
</g>
<!-- Node2&#45;&gt;Node3 -->
<g id="edge2" class="edge"><title>Node2&#45;&gt;Node3</title>
<path fill="none" stroke="midnightblue" d="M292.721,-248.151C304.736,-250.834 317.393,-253.5 329.262,-255.7 450.015,-278.082 593.25,-288.436 674.449,-292.827"/>
<polygon fill="midnightblue" stroke="midnightblue" points="293.337,-244.701 282.81,-245.902 291.788,-251.528 293.337,-244.701"/>
</g>
<!-- Node9 -->
<g id="node9" class="node"><title>Node9</title>
<g id="a_node9"><a xlink:href="classMatch.html#afb81327901b29b02ff117406cdec0a4e" target="_top" xlink:title="Match::extendBack">
<polygon fill="white" stroke="black" points="329.262,-223.5 329.262,-245.9 439.231,-245.9 439.231,-223.5 329.262,-223.5"/>
<text text-anchor="middle" x="384.246" y="-231.1" font-family="-adobe-utopia-medium-i-normal--0-0-0-0-p-0-iso10646-1" font-size="12.00">Match::extendBack</text>
</a>
</g>
</g>
<!-- Node2&#45;&gt;Node9 -->
<g id="edge8" class="edge"><title>Node2&#45;&gt;Node9</title>
<path fill="none" stroke="midnightblue" d="M303.527,-234.7C312.134,-234.7 320.864,-234.7 329.234,-234.7"/>
<polygon fill="midnightblue" stroke="midnightblue" points="303.507,-231.2 293.507,-234.7 303.507,-238.2 303.507,-231.2"/>
</g>
<!-- Node4 -->
<g id="node4" class="node"><title>Node4</title>
<g id="a_node4"><a xlink:href="classMatchesBuilder.html#af44853a4e7540f4f54a802a5d0c45faf" target="_top" xlink:title="MatchesBuilder::matchMarkerSet">
<polygon fill="white" stroke="black" points="841.833,-263.5 841.833,-285.9 1021.11,-285.9 1021.11,-263.5 841.833,-263.5"/>
<text text-anchor="middle" x="931.472" y="-271.1" font-family="-adobe-utopia-medium-i-normal--0-0-0-0-p-0-iso10646-1" font-size="12.00">MatchesBuilder::matchMarkerSet</text>
</a>
</g>
</g>
<!-- Node3&#45;&gt;Node4 -->
<g id="edge3" class="edge"><title>Node3&#45;&gt;Node4</title>
<path fill="none" stroke="midnightblue" d="M816.136,-287.385C824.497,-286.457 833.073,-285.506 841.587,-284.561"/>
<polygon fill="midnightblue" stroke="midnightblue" points="815.614,-283.921 806.061,-288.502 816.386,-290.878 815.614,-283.921"/>
</g>
<!-- Node5 -->
<g id="node5" class="node"><title>Node5</title>
<g id="a_node5"><a xlink:href="classMatchesBuilder.html#ae8d8a0ff7f0726406e83d4fa55a96bf4" target="_top" xlink:title="MatchesBuilder::matchAll\lMarkers">
<polygon fill="white" stroke="black" points="1057.11,-256.3 1057.11,-293.1 1201.08,-293.1 1201.08,-256.3 1057.11,-256.3"/>
<text text-anchor="start" x="1065.11" y="-278.3" font-family="-adobe-utopia-medium-i-normal--0-0-0-0-p-0-iso10646-1" font-size="12.00">MatchesBuilder::matchAll</text>
<text text-anchor="middle" x="1129.1" y="-263.9" font-family="-adobe-utopia-medium-i-normal--0-0-0-0-p-0-iso10646-1" font-size="12.00">Markers</text>
</a>
</g>
</g>
<!-- Node4&#45;&gt;Node5 -->
<g id="edge4" class="edge"><title>Node4&#45;&gt;Node5</title>
<path fill="none" stroke="midnightblue" d="M1031.3,-274.7C1039.98,-274.7 1048.65,-274.7 1057.04,-274.7"/>
<polygon fill="midnightblue" stroke="midnightblue" points="1031.13,-271.2 1021.13,-274.7 1031.13,-278.2 1031.13,-271.2"/>
</g>
<!-- Node6 -->
<g id="node6" class="node"><title>Node6</title>
<g id="a_node6"><a xlink:href="classMatchesBuilder.html#a31faf645700f38ac0d7d164b57cfebd1" target="_top" xlink:title="MatchesBuilder::buildMatches">
<polygon fill="white" stroke="black" points="1237.08,-263.5 1237.08,-285.9 1401.71,-285.9 1401.71,-263.5 1237.08,-263.5"/>
<text text-anchor="middle" x="1319.39" y="-271.1" font-family="-adobe-utopia-medium-i-normal--0-0-0-0-p-0-iso10646-1" font-size="12.00">MatchesBuilder::buildMatches</text>
</a>
</g>
</g>
<!-- Node5&#45;&gt;Node6 -->
<g id="edge5" class="edge"><title>Node5&#45;&gt;Node6</title>
<path fill="none" stroke="midnightblue" d="M1211.51,-274.7C1219.96,-274.7 1228.55,-274.7 1237,-274.7"/>
<polygon fill="midnightblue" stroke="midnightblue" points="1211.28,-271.2 1201.28,-274.7 1211.28,-278.2 1211.28,-271.2"/>
</g>
<!-- Node7 -->
<g id="node7" class="node"><title>Node7</title>
<g id="a_node7"><a xlink:href="classGERMLINE.html#a7912aa3108f42f42e06c615b460d0565" target="_top" xlink:title="GERMLINE::mine">
<polygon fill="white" stroke="black" points="1437.71,-263.5 1437.71,-285.9 1546.36,-285.9 1546.36,-263.5 1437.71,-263.5"/>
<text text-anchor="middle" x="1492.03" y="-271.1" font-family="-adobe-utopia-medium-i-normal--0-0-0-0-p-0-iso10646-1" font-size="12.00">GERMLINE::mine</text>
</a>
</g>
</g>
<!-- Node6&#45;&gt;Node7 -->
<g id="edge6" class="edge"><title>Node6&#45;&gt;Node7</title>
<path fill="none" stroke="midnightblue" d="M1411.72,-274.7C1420.56,-274.7 1429.32,-274.7 1437.61,-274.7"/>
<polygon fill="midnightblue" stroke="midnightblue" points="1411.72,-271.2 1401.72,-274.7 1411.72,-278.2 1411.72,-271.2"/>
</g>
<!-- Node8 -->
<g id="node8" class="node"><title>Node8</title>
<g id="a_node8"><a xlink:href="GERMLINE__0001_8cpp.html#a0ddf1224851353fc92bfbff6f499fa97" target="_top" xlink:title="main">
<polygon fill="white" stroke="black" points="1582.36,-263.5 1582.36,-285.9 1622.35,-285.9 1622.35,-263.5 1582.36,-263.5"/>
<text text-anchor="middle" x="1602.36" y="-271.1" font-family="-adobe-utopia-medium-i-normal--0-0-0-0-p-0-iso10646-1" font-size="12.00">main</text>
</a>
</g>
</g>
<!-- Node7&#45;&gt;Node8 -->
<g id="edge7" class="edge"><title>Node7&#45;&gt;Node8</title>
<path fill="none" stroke="midnightblue" d="M1556.71,-274.7C1565.98,-274.7 1574.86,-274.7 1582.22,-274.7"/>
<polygon fill="midnightblue" stroke="midnightblue" points="1556.56,-271.2 1546.56,-274.7 1556.56,-278.2 1556.56,-271.2"/>
</g>
<!-- Node10 -->
<g id="node10" class="node"><title>Node10</title>
<g id="a_node10"><a xlink:href="classIndividual.html#a6e75847d9fdd923bd0cf7a9ec5e2b1a4" target="_top" xlink:title="Individual::assertHomozygous">
<polygon fill="white" stroke="black" points="475.231,-244.5 475.231,-266.9 638.535,-266.9 638.535,-244.5 475.231,-244.5"/>
<text text-anchor="middle" x="556.883" y="-252.1" font-family="-adobe-utopia-medium-i-normal--0-0-0-0-p-0-iso10646-1" font-size="12.00">Individual::assertHomozygous</text>
</a>
</g>
</g>
<!-- Node9&#45;&gt;Node10 -->
<g id="edge9" class="edge"><title>Node9&#45;&gt;Node10</title>
<path fill="none" stroke="midnightblue" d="M449.338,-242.588C457.758,-243.624 466.472,-244.696 475.124,-245.761"/>
<polygon fill="midnightblue" stroke="midnightblue" points="449.59,-239.092 439.237,-241.345 448.734,-246.04 449.59,-239.092"/>
</g>
<!-- Node12 -->
<g id="node12" class="node"><title>Node12</title>
<g id="a_node12"><a xlink:href="classShare.html#aef9bc1c8649dbe3039e1a35ea3050715" target="_top" xlink:title="Share::assertMatches">
<polygon fill="white" stroke="black" points="497.906,-203.5 497.906,-225.9 615.86,-225.9 615.86,-203.5 497.906,-203.5"/>
<text text-anchor="middle" x="556.883" y="-211.1" font-family="-adobe-utopia-medium-i-normal--0-0-0-0-p-0-iso10646-1" font-size="12.00">Share::assertMatches</text>
</a>
</g>
</g>
<!-- Node9&#45;&gt;Node12 -->
<g id="edge12" class="edge"><title>Node9&#45;&gt;Node12</title>
<path fill="none" stroke="midnightblue" d="M449.489,-227.17C465.357,-225.31 482.261,-223.329 497.816,-221.506"/>
<polygon fill="midnightblue" stroke="midnightblue" points="448.761,-223.731 439.237,-228.372 449.576,-230.684 448.761,-223.731"/>
</g>
<!-- Node10&#45;&gt;Node11 -->
<g id="edge10" class="edge"><title>Node10&#45;&gt;Node11</title>
<path fill="none" stroke="midnightblue" d="M648.799,-255.199C660.812,-255.132 672.82,-255.066 683.977,-255.005"/>
<polygon fill="midnightblue" stroke="midnightblue" points="648.705,-251.699 638.724,-255.254 648.743,-258.699 648.705,-251.699"/>
</g>
<!-- Node11&#45;&gt;Node4 -->
<g id="edge11" class="edge"><title>Node11&#45;&gt;Node4</title>
<path fill="none" stroke="midnightblue" d="M806.464,-261.597C817.869,-262.802 829.907,-264.074 841.817,-265.333"/>
<polygon fill="midnightblue" stroke="midnightblue" points="806.501,-258.082 796.188,-260.512 805.765,-265.043 806.501,-258.082"/>
</g>
<!-- Node14 -->
<g id="node14" class="node"><title>Node14</title>
<g id="a_node14"><a xlink:href="classMatch.html#a989ae28b68842fc096ee6edb8c1595fd" target="_top" xlink:title="Match::print">
<polygon fill="white" stroke="black" points="346.252,-61.5 346.252,-83.9 422.241,-83.9 422.241,-61.5 346.252,-61.5"/>
<text text-anchor="middle" x="384.246" y="-69.1" font-family="-adobe-utopia-medium-i-normal--0-0-0-0-p-0-iso10646-1" font-size="12.00">Match::print</text>
</a>
</g>
</g>
<!-- Node13&#45;&gt;Node14 -->
<g id="edge14" class="edge"><title>Node13&#45;&gt;Node14</title>
<path fill="none" stroke="midnightblue" d="M279.63,-120.027C284.254,-118.293 288.872,-116.499 293.262,-114.7 316.552,-105.155 342.545,-92.8362 360.583,-84.0124"/>
<polygon fill="midnightblue" stroke="midnightblue" points="278.383,-116.756 270.198,-123.484 280.792,-123.329 278.383,-116.756"/>
</g>
<!-- Node15&#45;&gt;Node14 -->
<g id="edge17" class="edge"><title>Node15&#45;&gt;Node14</title>
<path fill="none" stroke="midnightblue" d="M288.78,-86.2594C307.595,-83.5587 328.473,-80.562 345.805,-78.0742"/>
<polygon fill="midnightblue" stroke="midnightblue" points="288.268,-82.7969 278.867,-87.6822 289.263,-89.7258 288.268,-82.7969"/>
</g>
<!-- Node16&#45;&gt;Node14 -->
<g id="edge19" class="edge"><title>Node16&#45;&gt;Node14</title>
<path fill="none" stroke="midnightblue" d="M293.816,-60.4747C311.422,-62.8814 330.353,-65.4693 346.243,-67.6416"/>
<polygon fill="midnightblue" stroke="midnightblue" points="294.018,-56.9699 283.636,-59.0831 293.07,-63.9054 294.018,-56.9699"/>
</g>
<!-- Node17&#45;&gt;Node14 -->
<g id="edge21" class="edge"><title>Node17&#45;&gt;Node14</title>
<path fill="none" stroke="midnightblue" d="M279.613,-26.4136C284.241,-28.1398 288.864,-29.9212 293.262,-31.7 316.179,-40.97 341.786,-52.7839 359.806,-61.3468"/>
<polygon fill="midnightblue" stroke="midnightblue" points="280.772,-23.1107 270.178,-22.9662 278.369,-29.6856 280.772,-23.1107"/>
</g>
</g>
</svg>
