<?xml version="1.0" encoding="UTF-8" standalone="no"?>
<!DOCTYPE svg PUBLIC "-//W3C//DTD SVG 1.1//EN"
 "http://www.w3.org/Graphics/SVG/1.1/DTD/svg11.dtd">
<!-- Generated by graphviz version 2.38.0 (20140413.2041)
 -->
<!-- Title: SNPs Pages: 1 -->
<svg width="327pt" height="391pt"
 viewBox="0.00 0.00 326.69 390.70" xmlns="http://www.w3.org/2000/svg" xmlns:xlink="http://www.w3.org/1999/xlink">
<g id="graph0" class="graph" transform="scale(1 1) rotate(0) translate(4 386.7)">
<title>SNPs</title>
<polygon fill="white" stroke="none" points="-4,4 -4,-386.7 322.688,-386.7 322.688,4 -4,4"/>
<!-- Node1 -->
<g id="node1" class="node"><title>Node1</title>
<polygon fill="#bfbfbf" stroke="black" points="276.017,-178.7 276.017,-201.1 318.688,-201.1 318.688,-178.7 276.017,-178.7"/>
<text text-anchor="middle" x="297.353" y="-186.3" font-family="-adobe-utopia-medium-i-normal--0-0-0-0-p-0-iso10646-1" font-size="12.00">SNPs</text>
</g>
<!-- Node2 -->
<g id="node2" class="node"><title>Node2</title>
<polygon fill="white" stroke="#bfbfbf" points="54.0204,-338.7 54.0204,-361.1 97.3516,-361.1 97.3516,-338.7 54.0204,-338.7"/>
<text text-anchor="middle" x="75.686" y="-346.3" font-family="-adobe-utopia-medium-i-normal--0-0-0-0-p-0-iso10646-1" font-size="12.00">string</text>
</g>
<!-- Node2&#45;&gt;Node1 -->
<g id="edge1" class="edge"><title>Node2&#45;&gt;Node1</title>
<path fill="none" stroke="#9a32cd" stroke-dasharray="5,2" d="M107.741,-354.166C147.55,-357.793 216.388,-357.585 258.017,-320.9 293.575,-289.566 296.972,-227.235 296.757,-201.465"/>
<polygon fill="#9a32cd" stroke="#9a32cd" points="107.878,-350.661 97.5671,-353.097 107.147,-357.623 107.878,-350.661"/>
<text text-anchor="middle" x="213.695" y="-371.9" font-family="-adobe-utopia-medium-i-normal--0-0-0-0-p-0-iso10646-1" font-size="12.00"> ROI_id</text>
<text text-anchor="middle" x="213.695" y="-357.5" font-family="-adobe-utopia-medium-i-normal--0-0-0-0-p-0-iso10646-1" font-size="12.00">info</text>
</g>
<!-- Node3 -->
<g id="node3" class="node"><title>Node3</title>
<g id="a_node3"><a xlink:href="classNucleotideMap.html" target="_top" xlink:title="NucleotideMap">
<polygon fill="white" stroke="black" points="30.3654,-297.7 30.3654,-320.1 121.007,-320.1 121.007,-297.7 30.3654,-297.7"/>
<text text-anchor="middle" x="75.686" y="-305.3" font-family="-adobe-utopia-medium-i-normal--0-0-0-0-p-0-iso10646-1" font-size="12.00">NucleotideMap</text>
</a>
</g>
</g>
<!-- Node3&#45;&gt;Node1 -->
<g id="edge2" class="edge"><title>Node3&#45;&gt;Node1</title>
<path fill="none" stroke="#9a32cd" stroke-dasharray="5,2" d="M131.226,-307.836C170.235,-304.458 222,-294.331 258.017,-265.9 279.128,-249.235 289.598,-217.853 293.887,-201.102"/>
<polygon fill="#9a32cd" stroke="#9a32cd" points="130.808,-304.357 121.094,-308.588 131.326,-311.338 130.808,-304.357"/>
<text text-anchor="middle" x="213.695" y="-306.5" font-family="-adobe-utopia-medium-i-normal--0-0-0-0-p-0-iso10646-1" font-size="12.00"> cnm</text>
</g>
<!-- Node4 -->
<g id="node4" class="node"><title>Node4</title>
<polygon fill="white" stroke="#bfbfbf" points="5.4264,-241.5 5.4264,-278.3 145.946,-278.3 145.946,-241.5 5.4264,-241.5"/>
<text text-anchor="start" x="13.4264" y="-263.5" font-family="-adobe-utopia-medium-i-normal--0-0-0-0-p-0-iso10646-1" font-size="12.00">map&lt; string, map&lt; string,</text>
<text text-anchor="middle" x="75.686" y="-249.1" font-family="-adobe-utopia-medium-i-normal--0-0-0-0-p-0-iso10646-1" font-size="12.00"> float &gt; &gt;</text>
</g>
<!-- Node4&#45;&gt;Node1 -->
<g id="edge3" class="edge"><title>Node4&#45;&gt;Node1</title>
<path fill="none" stroke="#9a32cd" stroke-dasharray="5,2" d="M156.176,-250.262C188.814,-244.318 226.306,-234.851 258.017,-219.9 267.955,-215.215 277.685,-207.552 284.856,-201.144"/>
<polygon fill="#9a32cd" stroke="#9a32cd" points="155.466,-246.833 146.214,-251.996 156.666,-253.729 155.466,-246.833"/>
<text text-anchor="middle" x="213.695" y="-251.5" font-family="-adobe-utopia-medium-i-normal--0-0-0-0-p-0-iso10646-1" font-size="12.00"> cm_map</text>
</g>
<!-- Node5 -->
<g id="node5" class="node"><title>Node5</title>
<polygon fill="white" stroke="#bfbfbf" points="48.0288,-199.7 48.0288,-222.1 103.343,-222.1 103.343,-199.7 48.0288,-199.7"/>
<text text-anchor="middle" x="75.686" y="-207.3" font-family="-adobe-utopia-medium-i-normal--0-0-0-0-p-0-iso10646-1" font-size="12.00">ifstream</text>
</g>
<!-- Node5&#45;&gt;Node1 -->
<g id="edge4" class="edge"><title>Node5&#45;&gt;Node1</title>
<path fill="none" stroke="#9a32cd" stroke-dasharray="5,2" d="M113.609,-207.37C160.178,-202.918 238.64,-195.417 275.736,-191.871"/>
<polygon fill="#9a32cd" stroke="#9a32cd" points="113.243,-203.889 103.621,-208.325 113.909,-210.857 113.243,-203.889"/>
<text text-anchor="middle" x="213.695" y="-205.5" font-family="-adobe-utopia-medium-i-normal--0-0-0-0-p-0-iso10646-1" font-size="12.00"> s</text>
</g>
<!-- Node6 -->
<g id="node6" class="node"><title>Node6</title>
<polygon fill="white" stroke="#bfbfbf" points="61.186,-158.7 61.186,-181.1 90.186,-181.1 90.186,-158.7 61.186,-158.7"/>
<text text-anchor="middle" x="75.686" y="-166.3" font-family="-adobe-utopia-medium-i-normal--0-0-0-0-p-0-iso10646-1" font-size="12.00">int</text>
</g>
<!-- Node6&#45;&gt;Node1 -->
<g id="edge5" class="edge"><title>Node6&#45;&gt;Node1</title>
<path fill="none" stroke="#9a32cd" stroke-dasharray="5,2" d="M100.717,-167.827C135.732,-165.407 202.638,-163.062 258.017,-174.5 263.918,-175.719 270.073,-177.796 275.681,-180.036"/>
<polygon fill="#9a32cd" stroke="#9a32cd" points="100.232,-164.353 90.524,-168.597 100.759,-171.333 100.232,-164.353"/>
<text text-anchor="middle" x="213.695" y="-178.5" font-family="-adobe-utopia-medium-i-normal--0-0-0-0-p-0-iso10646-1" font-size="12.00"> ROI_snp</text>
</g>
<!-- Node7 -->
<g id="node7" class="node"><title>Node7</title>
<polygon fill="white" stroke="#bfbfbf" points="38.187,-117.7 38.187,-140.1 113.185,-140.1 113.185,-117.7 38.187,-117.7"/>
<text text-anchor="middle" x="75.686" y="-125.3" font-family="-adobe-utopia-medium-i-normal--0-0-0-0-p-0-iso10646-1" font-size="12.00">unsigned int</text>
</g>
<!-- Node7&#45;&gt;Node1 -->
<g id="edge6" class="edge"><title>Node7&#45;&gt;Node1</title>
<path fill="none" stroke="#9a32cd" stroke-dasharray="5,2" d="M123.504,-125.196C161.691,-124.168 215.994,-127.378 258.017,-148.5 271.496,-155.275 282.631,-168.88 289.364,-178.647"/>
<polygon fill="#9a32cd" stroke="#9a32cd" points="123.045,-121.71 113.185,-125.586 123.31,-128.705 123.045,-121.71"/>
<text text-anchor="middle" x="213.695" y="-152.5" font-family="-adobe-utopia-medium-i-normal--0-0-0-0-p-0-iso10646-1" font-size="12.00"> full_size</text>
</g>
<!-- Node8 -->
<g id="node8" class="node"><title>Node8</title>
<polygon fill="white" stroke="#bfbfbf" points="0,-61.5 0,-98.3 151.372,-98.3 151.372,-61.5 0,-61.5"/>
<text text-anchor="start" x="8" y="-83.5" font-family="-adobe-utopia-medium-i-normal--0-0-0-0-p-0-iso10646-1" font-size="12.00">list&lt; map&lt; string,</text>
<text text-anchor="middle" x="75.686" y="-69.1" font-family="-adobe-utopia-medium-i-normal--0-0-0-0-p-0-iso10646-1" font-size="12.00"> vector&lt; SNP &gt; &gt;::iterator &gt;</text>
</g>
<!-- Node8&#45;&gt;Node1 -->
<g id="edge7" class="edge"><title>Node8&#45;&gt;Node1</title>
<path fill="none" stroke="#9a32cd" stroke-dasharray="5,2" d="M161.797,-76.8974C194.626,-79.6945 230.753,-88.0501 258.017,-108.5 281.135,-125.84 290.861,-160.628 294.477,-178.591"/>
<polygon fill="#9a32cd" stroke="#9a32cd" points="161.946,-73.3995 151.728,-76.2006 161.463,-80.3828 161.946,-73.3995"/>
<text text-anchor="middle" x="213.695" y="-112.5" font-family="-adobe-utopia-medium-i-normal--0-0-0-0-p-0-iso10646-1" font-size="12.00"> chr_list</text>
</g>
<!-- Node9 -->
<g id="node9" class="node"><title>Node9</title>
<polygon fill="white" stroke="#bfbfbf" points="20.8146,-0.5 20.8146,-37.3 130.557,-37.3 130.557,-0.5 20.8146,-0.5"/>
<text text-anchor="start" x="28.8146" y="-22.5" font-family="-adobe-utopia-medium-i-normal--0-0-0-0-p-0-iso10646-1" font-size="12.00">map&lt; string, vector</text>
<text text-anchor="middle" x="75.686" y="-8.1" font-family="-adobe-utopia-medium-i-normal--0-0-0-0-p-0-iso10646-1" font-size="12.00">&lt; SNP &gt; &gt;</text>
</g>
<!-- Node9&#45;&gt;Node1 -->
<g id="edge8" class="edge"><title>Node9&#45;&gt;Node1</title>
<path fill="none" stroke="#9a32cd" stroke-dasharray="5,2" d="M140.916,-5.62192C179.139,-1.5916 226.225,-3.93637 258.017,-30.7 280.962,-50.0157 292.126,-145.641 295.343,-178.663"/>
<polygon fill="#9a32cd" stroke="#9a32cd" points="140.402,-2.15858 130.899,-6.84224 141.249,-9.10722 140.402,-2.15858"/>
<text text-anchor="middle" x="213.695" y="-63.3" font-family="-adobe-utopia-medium-i-normal--0-0-0-0-p-0-iso10646-1" font-size="12.00"> chromosome</text>
<text text-anchor="middle" x="213.695" y="-48.9" font-family="-adobe-utopia-medium-i-normal--0-0-0-0-p-0-iso10646-1" font-size="12.00">genome</text>
<text text-anchor="middle" x="213.695" y="-34.5" font-family="-adobe-utopia-medium-i-normal--0-0-0-0-p-0-iso10646-1" font-size="12.00">ROI_chromosome</text>
</g>
</g>
</svg>
