<?xml version="1.0" encoding="UTF-8" standalone="no"?>
<!DOCTYPE svg PUBLIC "-//W3C//DTD SVG 1.1//EN"
 "http://www.w3.org/Graphics/SVG/1.1/DTD/svg11.dtd">
<!-- Generated by graphviz version 2.38.0 (20140413.2041)
 -->
<!-- Title: PEDIndividualsExtractor::getCompleteMarkerSet Pages: 1 -->
<svg width="321pt" height="154pt"
 viewBox="0.00 0.00 321.27 154.40" xmlns="http://www.w3.org/2000/svg" xmlns:xlink="http://www.w3.org/1999/xlink">
<g id="graph0" class="graph" transform="scale(1 1) rotate(0) translate(4 150.4)">
<title>PEDIndividualsExtractor::getCompleteMarkerSet</title>
<polygon fill="white" stroke="none" points="-4,4 -4,-150.4 317.266,-150.4 317.266,4 -4,4"/>
<!-- Node1 -->
<g id="node1" class="node"><title>Node1</title>
<polygon fill="#bfbfbf" stroke="black" points="0,-54.3 0,-91.1 137.301,-91.1 137.301,-54.3 0,-54.3"/>
<text text-anchor="start" x="8" y="-76.3" font-family="-adobe-utopia-medium-i-normal--0-0-0-0-p-0-iso10646-1" font-size="12.00">PEDIndividualsExtractor</text>
<text text-anchor="middle" x="68.6504" y="-61.9" font-family="-adobe-utopia-medium-i-normal--0-0-0-0-p-0-iso10646-1" font-size="12.00">::getCompleteMarkerSet</text>
</g>
<!-- Node2 -->
<g id="node2" class="node"><title>Node2</title>
<g id="a_node2"><a xlink:href="classIndividual.html#af7f3a1e23fcb643c40b8a925c20c367b" target="_top" xlink:title="Individual::addMarkerSet">
<polygon fill="white" stroke="black" points="173.301,-123.5 173.301,-145.9 313.266,-145.9 313.266,-123.5 173.301,-123.5"/>
<text text-anchor="middle" x="243.283" y="-131.1" font-family="-adobe-utopia-medium-i-normal--0-0-0-0-p-0-iso10646-1" font-size="12.00">Individual::addMarkerSet</text>
</a>
</g>
</g>
<!-- Node1&#45;&gt;Node2 -->
<g id="edge1" class="edge"><title>Node1&#45;&gt;Node2</title>
<path fill="none" stroke="midnightblue" d="M112.392,-91.1718C130.946,-98.8893 153.029,-107.675 173.301,-114.7 178.962,-116.662 184.927,-118.592 190.884,-120.432"/>
<polygon fill="midnightblue" stroke="midnightblue" points="190.261,-123.9 200.846,-123.436 192.282,-117.198 190.261,-123.9"/>
</g>
<!-- Node3 -->
<g id="node3" class="node"><title>Node3</title>
<g id="a_node3"><a xlink:href="classSNP.html#a3891a5225af3d8916c14557accb17e6c" target="_top" xlink:title="SNP::getMarkerNumber">
<polygon fill="white" stroke="black" points="176.301,-82.5 176.301,-104.9 310.266,-104.9 310.266,-82.5 176.301,-82.5"/>
<text text-anchor="middle" x="243.283" y="-90.1" font-family="-adobe-utopia-medium-i-normal--0-0-0-0-p-0-iso10646-1" font-size="12.00">SNP::getMarkerNumber</text>
</a>
</g>
</g>
<!-- Node1&#45;&gt;Node3 -->
<g id="edge2" class="edge"><title>Node1&#45;&gt;Node3</title>
<path fill="none" stroke="midnightblue" d="M137.384,-80.9395C146.849,-82.0908 156.626,-83.2802 166.231,-84.4487"/>
<polygon fill="midnightblue" stroke="midnightblue" points="165.809,-87.923 176.159,-85.6563 166.655,-80.9742 165.809,-87.923"/>
</g>
<!-- Node4 -->
<g id="node4" class="node"><title>Node4</title>
<g id="a_node4"><a xlink:href="classIndividual.html#a4932af57f66adb254dcb53eef679d9d2" target="_top" xlink:title="Individual::getOffset">
<polygon fill="white" stroke="black" points="184.964,-41.5 184.964,-63.9 301.602,-63.9 301.602,-41.5 184.964,-41.5"/>
<text text-anchor="middle" x="243.283" y="-49.1" font-family="-adobe-utopia-medium-i-normal--0-0-0-0-p-0-iso10646-1" font-size="12.00">Individual::getOffset</text>
</a>
</g>
</g>
<!-- Node1&#45;&gt;Node4 -->
<g id="edge3" class="edge"><title>Node1&#45;&gt;Node4</title>
<path fill="none" stroke="midnightblue" d="M137.384,-64.8529C149.634,-63.4336 162.409,-61.9536 174.656,-60.5348"/>
<polygon fill="midnightblue" stroke="midnightblue" points="175.266,-63.9876 184.797,-59.3599 174.461,-57.0341 175.266,-63.9876"/>
</g>
<!-- Node5 -->
<g id="node5" class="node"><title>Node5</title>
<g id="a_node5"><a xlink:href="classSNPs.html#ae27666e68ba06ba960eeced83704ef9d" target="_top" xlink:title="SNPs::getROIStart">
<polygon fill="white" stroke="black" points="189.621,-0.5 189.621,-22.9 296.946,-22.9 296.946,-0.5 189.621,-0.5"/>
<text text-anchor="middle" x="243.283" y="-8.1" font-family="-adobe-utopia-medium-i-normal--0-0-0-0-p-0-iso10646-1" font-size="12.00">SNPs::getROIStart</text>
</a>
</g>
</g>
<!-- Node1&#45;&gt;Node5 -->
<g id="edge4" class="edge"><title>Node1&#45;&gt;Node5</title>
<path fill="none" stroke="midnightblue" d="M113.694,-54.2137C131.987,-46.8147 153.525,-38.4612 173.301,-31.7 179.185,-29.6881 185.395,-27.701 191.581,-25.8054"/>
<polygon fill="midnightblue" stroke="midnightblue" points="192.657,-29.1368 201.23,-22.9115 190.646,-22.4318 192.657,-29.1368"/>
</g>
</g>
</svg>
