<?xml version="1.0" encoding="UTF-8" standalone="no"?>
<!DOCTYPE svg PUBLIC "-//W3C//DTD SVG 1.1//EN"
 "http://www.w3.org/Graphics/SVG/1.1/DTD/svg11.dtd">
<!-- Generated by graphviz version 2.38.0 (20140413.2041)
 -->
<!-- Title: Match::extendBack Pages: 1 -->
<svg width="457pt" height="113pt"
 viewBox="0.00 0.00 457.24 113.40" xmlns="http://www.w3.org/2000/svg" xmlns:xlink="http://www.w3.org/1999/xlink">
<g id="graph0" class="graph" transform="scale(1 1) rotate(0) translate(4 109.4)">
<title>Match::extendBack</title>
<polygon fill="white" stroke="none" points="-4,4 -4,-109.4 453.243,-109.4 453.243,4 -4,4"/>
<!-- Node1 -->
<g id="node1" class="node"><title>Node1</title>
<polygon fill="#bfbfbf" stroke="black" points="7.10543e-15,-41.5 7.10543e-15,-63.9 109.97,-63.9 109.97,-41.5 7.10543e-15,-41.5"/>
<text text-anchor="middle" x="54.9848" y="-49.1" font-family="-adobe-utopia-medium-i-normal--0-0-0-0-p-0-iso10646-1" font-size="12.00">Match::extendBack</text>
</g>
<!-- Node2 -->
<g id="node2" class="node"><title>Node2</title>
<g id="a_node2"><a xlink:href="classMatch.html#a7c47a9c7017d308d2ae58fac5a204179" target="_top" xlink:title="Match::approxEqual">
<polygon fill="white" stroke="black" points="145.97,-41.5 145.97,-63.9 260.608,-63.9 260.608,-41.5 145.97,-41.5"/>
<text text-anchor="middle" x="203.289" y="-49.1" font-family="-adobe-utopia-medium-i-normal--0-0-0-0-p-0-iso10646-1" font-size="12.00">Match::approxEqual</text>
</a>
</g>
</g>
<!-- Node1&#45;&gt;Node2 -->
<g id="edge1" class="edge"><title>Node1&#45;&gt;Node2</title>
<path fill="none" stroke="midnightblue" d="M110.047,-52.7C118.265,-52.7 126.828,-52.7 135.281,-52.7"/>
<polygon fill="midnightblue" stroke="midnightblue" points="135.506,-56.2001 145.506,-52.7 135.506,-49.2001 135.506,-56.2001"/>
</g>
<!-- Node3 -->
<g id="node3" class="node"><title>Node3</title>
<g id="a_node3"><a xlink:href="classIndividual.html#adab24d093d691c3e84bdce0b2d2f3a81" target="_top" xlink:title="Individual::getChromosome">
<polygon fill="white" stroke="black" points="297.267,-82.5 297.267,-104.9 448.585,-104.9 448.585,-82.5 297.267,-82.5"/>
<text text-anchor="middle" x="372.926" y="-90.1" font-family="-adobe-utopia-medium-i-normal--0-0-0-0-p-0-iso10646-1" font-size="12.00">Individual::getChromosome</text>
</a>
</g>
</g>
<!-- Node2&#45;&gt;Node3 -->
<g id="edge2" class="edge"><title>Node2&#45;&gt;Node3</title>
<path fill="none" stroke="midnightblue" d="M250.096,-63.9034C270.433,-68.8772 294.556,-74.7772 315.95,-80.0096"/>
<polygon fill="midnightblue" stroke="midnightblue" points="315.337,-83.4629 325.883,-82.4389 317,-76.6633 315.337,-83.4629"/>
</g>
<!-- Node4 -->
<g id="node4" class="node"><title>Node4</title>
<g id="a_node4"><a xlink:href="classMarkerSet.html#a4875bf7f161c77ff90c15936fee29ff0" target="_top" xlink:title="MarkerSet::getMarkerBits">
<polygon fill="white" stroke="black" points="301.614,-41.5 301.614,-63.9 444.237,-63.9 444.237,-41.5 301.614,-41.5"/>
<text text-anchor="middle" x="372.926" y="-49.1" font-family="-adobe-utopia-medium-i-normal--0-0-0-0-p-0-iso10646-1" font-size="12.00">MarkerSet::getMarkerBits</text>
</a>
</g>
</g>
<!-- Node2&#45;&gt;Node4 -->
<g id="edge3" class="edge"><title>Node2&#45;&gt;Node4</title>
<path fill="none" stroke="midnightblue" d="M261.043,-52.7C270.803,-52.7 281.111,-52.7 291.355,-52.7"/>
<polygon fill="midnightblue" stroke="midnightblue" points="291.554,-56.2001 301.554,-52.7 291.554,-49.2001 291.554,-56.2001"/>
</g>
<!-- Node5 -->
<g id="node5" class="node"><title>Node5</title>
<g id="a_node5"><a xlink:href="classChromosome.html#a6acf26d0b4a7e2651be613ea14c20a1b" target="_top" xlink:title="Chromosome::getMarkerSet">
<polygon fill="white" stroke="black" points="296.608,-0.5 296.608,-22.9 449.243,-22.9 449.243,-0.5 296.608,-0.5"/>
<text text-anchor="middle" x="372.926" y="-8.1" font-family="-adobe-utopia-medium-i-normal--0-0-0-0-p-0-iso10646-1" font-size="12.00">Chromosome::getMarkerSet</text>
</a>
</g>
</g>
<!-- Node2&#45;&gt;Node5 -->
<g id="edge4" class="edge"><title>Node2&#45;&gt;Node5</title>
<path fill="none" stroke="midnightblue" d="M250.096,-41.4966C270.433,-36.5228 294.556,-30.6228 315.95,-25.3904"/>
<polygon fill="midnightblue" stroke="midnightblue" points="317,-28.7367 325.883,-22.9611 315.337,-21.9371 317,-28.7367"/>
</g>
</g>
</svg>
