<?xml version="1.0" encoding="UTF-8" standalone="no"?>
<!DOCTYPE svg PUBLIC "-//W3C//DTD SVG 1.1//EN"
 "http://www.w3.org/Graphics/SVG/1.1/DTD/svg11.dtd">
<!-- Generated by graphviz version 2.38.0 (20140413.2041)
 -->
<!-- Title: Match Pages: 1 -->
<svg width="396pt" height="193pt"
 viewBox="0.00 0.00 395.65 193.40" xmlns="http://www.w3.org/2000/svg" xmlns:xlink="http://www.w3.org/1999/xlink">
<g id="graph0" class="graph" transform="scale(1 1) rotate(0) translate(4 189.4)">
<title>Match</title>
<polygon fill="white" stroke="none" points="-4,4 -4,-189.4 391.653,-189.4 391.653,4 -4,4"/>
<!-- Node1 -->
<g id="node1" class="node"><title>Node1</title>
<polygon fill="#bfbfbf" stroke="black" points="167.338,-74.3 167.338,-96.7 213.993,-96.7 213.993,-74.3 167.338,-74.3"/>
<text text-anchor="middle" x="190.666" y="-81.9" font-family="-adobe-utopia-medium-i-normal--0-0-0-0-p-0-iso10646-1" font-size="12.00">Match</text>
</g>
<!-- Node2 -->
<g id="node2" class="node"><title>Node2</title>
<g id="a_node2"><a xlink:href="classIndividual.html" target="_top" xlink:title="Individual">
<polygon fill="white" stroke="black" points="134.003,-0.5 134.003,-22.9 199.329,-22.9 199.329,-0.5 134.003,-0.5"/>
<text text-anchor="middle" x="166.666" y="-8.1" font-family="-adobe-utopia-medium-i-normal--0-0-0-0-p-0-iso10646-1" font-size="12.00">Individual</text>
</a>
</g>
</g>
<!-- Node1&#45;&gt;Node2 -->
<g id="edge7" class="edge"><title>Node1&#45;&gt;Node2</title>
<path fill="none" stroke="#9a32cd" stroke-dasharray="5,2" d="M157.456,-74.4355C142.261,-69.0936 126.674,-62.3038 122.352,-55.8 113.858,-43.0182 128.681,-31.0677 143.421,-23.0081"/>
<polygon fill="#9a32cd" stroke="#9a32cd" points="156.669,-77.8627 167.262,-77.7192 158.891,-71.225 156.669,-77.8627"/>
<text text-anchor="middle" x="152.822" y="-45" font-family="-adobe-utopia-medium-i-normal--0-0-0-0-p-0-iso10646-1" font-size="12.00"> all_matches</text>
</g>
<!-- Node2&#45;&gt;Node1 -->
<g id="edge1" class="edge"><title>Node2&#45;&gt;Node1</title>
<path fill="none" stroke="#9a32cd" stroke-dasharray="5,2" d="M181.702,-31.4212C183.662,-34.6044 185.418,-37.9885 186.666,-41.4 190.589,-52.1277 191.263,-65.3107 191.164,-74.2514"/>
<polygon fill="#9a32cd" stroke="#9a32cd" points="184.498,-29.3119 175.897,-23.1258 178.763,-33.3256 184.498,-29.3119"/>
<text text-anchor="middle" x="203.829" y="-45" font-family="-adobe-utopia-medium-i-normal--0-0-0-0-p-0-iso10646-1" font-size="12.00"> node</text>
</g>
<!-- Node3 -->
<g id="node3" class="node"><title>Node3</title>
<polygon fill="white" stroke="#bfbfbf" points="-1.77636e-14,-74.3 -1.77636e-14,-96.7 43.3312,-96.7 43.3312,-74.3 -1.77636e-14,-74.3"/>
<text text-anchor="middle" x="21.6656" y="-81.9" font-family="-adobe-utopia-medium-i-normal--0-0-0-0-p-0-iso10646-1" font-size="12.00">string</text>
</g>
<!-- Node3&#45;&gt;Node2 -->
<g id="edge2" class="edge"><title>Node3&#45;&gt;Node2</title>
<path fill="none" stroke="#9a32cd" stroke-dasharray="5,2" d="M42.2189,-67.853C53.7132,-59.1239 68.5932,-48.7491 83.008,-41.4 99.0131,-33.2401 117.863,-26.5441 133.614,-21.6783"/>
<polygon fill="#9a32cd" stroke="#9a32cd" points="39.8952,-65.2263 34.1528,-74.13 44.1943,-70.7506 39.8952,-65.2263"/>
<text text-anchor="middle" x="91.4944" y="-45" font-family="-adobe-utopia-medium-i-normal--0-0-0-0-p-0-iso10646-1" font-size="12.00"> ID</text>
</g>
<!-- Node4 -->
<g id="node4" class="node"><title>Node4</title>
<g id="a_node4"><a xlink:href="classChromosome.html" target="_top" xlink:title="Chromosome">
<polygon fill="white" stroke="black" points="61.3352,-74.3 61.3352,-96.7 141.996,-96.7 141.996,-74.3 61.3352,-74.3"/>
<text text-anchor="middle" x="101.666" y="-81.9" font-family="-adobe-utopia-medium-i-normal--0-0-0-0-p-0-iso10646-1" font-size="12.00">Chromosome</text>
</a>
</g>
</g>
<!-- Node4&#45;&gt;Node2 -->
<g id="edge3" class="edge"><title>Node4&#45;&gt;Node2</title>
<path fill="none" stroke="#9a32cd" stroke-dasharray="5,2" d="M100.584,-64.1292C101.121,-56.3873 102.958,-47.8812 107.666,-41.4 114.092,-32.5525 123.995,-26.3047 133.864,-21.951"/>
<polygon fill="#9a32cd" stroke="#9a32cd" points="97.0831,-64.2537 100.526,-74.2733 104.083,-64.2933 97.0831,-64.2537"/>
<text text-anchor="middle" x="112.166" y="-45" font-family="-adobe-utopia-medium-i-normal--0-0-0-0-p-0-iso10646-1" font-size="12.00"> h</text>
</g>
<!-- Node5 -->
<g id="node5" class="node"><title>Node5</title>
<polygon fill="white" stroke="#bfbfbf" points="39.086,-162.5 39.086,-184.9 164.245,-184.9 164.245,-162.5 39.086,-162.5"/>
<text text-anchor="middle" x="101.666" y="-170.1" font-family="-adobe-utopia-medium-i-normal--0-0-0-0-p-0-iso10646-1" font-size="12.00">vector&lt; MarkerSet * &gt;</text>
</g>
<!-- Node5&#45;&gt;Node4 -->
<g id="edge4" class="edge"><title>Node5&#45;&gt;Node4</title>
<path fill="none" stroke="#9a32cd" stroke-dasharray="5,2" d="M101.666,-152.166C101.666,-134.689 101.666,-110.315 101.666,-96.7135"/>
<polygon fill="#9a32cd" stroke="#9a32cd" points="98.1657,-152.473 101.666,-162.473 105.166,-152.473 98.1657,-152.473"/>
<text text-anchor="middle" x="134.158" y="-126" font-family="-adobe-utopia-medium-i-normal--0-0-0-0-p-0-iso10646-1" font-size="12.00"> chromosome</text>
</g>
<!-- Node6 -->
<g id="node6" class="node"><title>Node6</title>
<polygon fill="white" stroke="#bfbfbf" points="208.166,-162.5 208.166,-184.9 237.166,-184.9 237.166,-162.5 208.166,-162.5"/>
<text text-anchor="middle" x="222.5" y="-170.1" font-family="-adobe-utopia-medium-i-normal--0-0-0-0-p-0-iso10646-1" font-size="12.00">int</text>
</g>
<!-- Node6&#45;&gt;Node1 -->
<g id="edge8" class="edge"><title>Node6&#45;&gt;Node1</title>
<path fill="none" stroke="#9a32cd" stroke-dasharray="5,2" d="M202.246,-155.143C199.368,-151.737 196.788,-147.979 195.006,-144 188.131,-128.651 188.41,-108.684 189.414,-96.771"/>
<polygon fill="#9a32cd" stroke="#9a32cd" points="199.792,-157.64 209.264,-162.387 204.82,-152.77 199.792,-157.64"/>
<text text-anchor="middle" x="215.995" y="-133.2" font-family="-adobe-utopia-medium-i-normal--0-0-0-0-p-0-iso10646-1" font-size="12.00"> end_ms</text>
<text text-anchor="middle" x="215.995" y="-118.8" font-family="-adobe-utopia-medium-i-normal--0-0-0-0-p-0-iso10646-1" font-size="12.00">start_ms</text>
</g>
<!-- Node6&#45;&gt;Node2 -->
<g id="edge5" class="edge"><title>Node6&#45;&gt;Node2</title>
<path fill="none" stroke="#9a32cd" stroke-dasharray="5,2" d="M232.757,-153.337C233.958,-150.284 234.995,-147.108 235.666,-144 245.392,-98.9534 248.239,-78.3258 220.666,-41.4 214.694,-33.4036 205.828,-27.41 196.997,-23.0266"/>
<polygon fill="#9a32cd" stroke="#9a32cd" points="229.571,-151.888 228.601,-162.439 235.938,-154.796 229.571,-151.888"/>
<text text-anchor="middle" x="271.492" y="-81.9" font-family="-adobe-utopia-medium-i-normal--0-0-0-0-p-0-iso10646-1" font-size="12.00"> numeric_id</text>
</g>
<!-- Node7 -->
<g id="node7" class="node"><title>Node7</title>
<polygon fill="white" stroke="#bfbfbf" points="325.678,-74.3 325.678,-96.7 387.653,-96.7 387.653,-74.3 325.678,-74.3"/>
<text text-anchor="middle" x="356.666" y="-81.9" font-family="-adobe-utopia-medium-i-normal--0-0-0-0-p-0-iso10646-1" font-size="12.00">streamoff</text>
</g>
<!-- Node7&#45;&gt;Node2 -->
<g id="edge6" class="edge"><title>Node7&#45;&gt;Node2</title>
<path fill="none" stroke="#9a32cd" stroke-dasharray="5,2" d="M327.31,-69.5497C309.238,-60.6862 285.44,-49.6164 263.666,-41.4 242.634,-33.4638 218.384,-26.2888 199.392,-21.0979"/>
<polygon fill="#9a32cd" stroke="#9a32cd" points="326.198,-72.905 336.711,-74.2147 329.309,-66.6345 326.198,-72.905"/>
<text text-anchor="middle" x="312.825" y="-45" font-family="-adobe-utopia-medium-i-normal--0-0-0-0-p-0-iso10646-1" font-size="12.00"> offset</text>
</g>
</g>
</svg>
