<?xml version="1.0" encoding="UTF-8" standalone="no"?>
<!DOCTYPE svg PUBLIC "-//W3C//DTD SVG 1.1//EN"
 "http://www.w3.org/Graphics/SVG/1.1/DTD/svg11.dtd">
<!-- Generated by graphviz version 2.38.0 (20140413.2041)
 -->
<!-- Title: Match::scanLeft Pages: 1 -->
<svg width="291pt" height="113pt"
 viewBox="0.00 0.00 291.27 113.40" xmlns="http://www.w3.org/2000/svg" xmlns:xlink="http://www.w3.org/1999/xlink">
<g id="graph0" class="graph" transform="scale(1 1) rotate(0) translate(4 109.4)">
<title>Match::scanLeft</title>
<polygon fill="white" stroke="none" points="-4,4 -4,-109.4 287.267,-109.4 287.267,4 -4,4"/>
<!-- Node1 -->
<g id="node1" class="node"><title>Node1</title>
<polygon fill="#bfbfbf" stroke="black" points="7.10543e-15,-41.5 7.10543e-15,-63.9 94.6324,-63.9 94.6324,-41.5 7.10543e-15,-41.5"/>
<text text-anchor="middle" x="47.3162" y="-49.1" font-family="-adobe-utopia-medium-i-normal--0-0-0-0-p-0-iso10646-1" font-size="12.00">Match::scanLeft</text>
</g>
<!-- Node2 -->
<g id="node2" class="node"><title>Node2</title>
<g id="a_node2"><a xlink:href="classIndividual.html#adab24d093d691c3e84bdce0b2d2f3a81" target="_top" xlink:title="Individual::getChromosome">
<polygon fill="white" stroke="black" points="131.291,-82.5 131.291,-104.9 282.609,-104.9 282.609,-82.5 131.291,-82.5"/>
<text text-anchor="middle" x="206.95" y="-90.1" font-family="-adobe-utopia-medium-i-normal--0-0-0-0-p-0-iso10646-1" font-size="12.00">Individual::getChromosome</text>
</a>
</g>
</g>
<!-- Node1&#45;&gt;Node2 -->
<g id="edge1" class="edge"><title>Node1&#45;&gt;Node2</title>
<path fill="none" stroke="midnightblue" d="M91.3902,-63.9034C110.34,-68.8322 132.787,-74.6705 152.767,-79.8673"/>
<polygon fill="midnightblue" stroke="midnightblue" points="152.095,-83.309 162.654,-82.4389 153.857,-76.5344 152.095,-83.309"/>
</g>
<!-- Node3 -->
<g id="node3" class="node"><title>Node3</title>
<g id="a_node3"><a xlink:href="classMarkerSet.html#a4875bf7f161c77ff90c15936fee29ff0" target="_top" xlink:title="MarkerSet::getMarkerBits">
<polygon fill="white" stroke="black" points="135.638,-41.5 135.638,-63.9 278.261,-63.9 278.261,-41.5 135.638,-41.5"/>
<text text-anchor="middle" x="206.95" y="-49.1" font-family="-adobe-utopia-medium-i-normal--0-0-0-0-p-0-iso10646-1" font-size="12.00">MarkerSet::getMarkerBits</text>
</a>
</g>
</g>
<!-- Node1&#45;&gt;Node3 -->
<g id="edge2" class="edge"><title>Node1&#45;&gt;Node3</title>
<path fill="none" stroke="midnightblue" d="M94.7588,-52.7C104.463,-52.7 114.959,-52.7 125.494,-52.7"/>
<polygon fill="midnightblue" stroke="midnightblue" points="125.583,-56.2001 135.583,-52.7 125.583,-49.2001 125.583,-56.2001"/>
</g>
<!-- Node4 -->
<g id="node4" class="node"><title>Node4</title>
<g id="a_node4"><a xlink:href="classChromosome.html#a6acf26d0b4a7e2651be613ea14c20a1b" target="_top" xlink:title="Chromosome::getMarkerSet">
<polygon fill="white" stroke="black" points="130.632,-0.5 130.632,-22.9 283.267,-22.9 283.267,-0.5 130.632,-0.5"/>
<text text-anchor="middle" x="206.95" y="-8.1" font-family="-adobe-utopia-medium-i-normal--0-0-0-0-p-0-iso10646-1" font-size="12.00">Chromosome::getMarkerSet</text>
</a>
</g>
</g>
<!-- Node1&#45;&gt;Node4 -->
<g id="edge3" class="edge"><title>Node1&#45;&gt;Node4</title>
<path fill="none" stroke="midnightblue" d="M91.3902,-41.4966C110.34,-36.5678 132.787,-30.7295 152.767,-25.5327"/>
<polygon fill="midnightblue" stroke="midnightblue" points="153.857,-28.8656 162.654,-22.9611 152.095,-22.091 153.857,-28.8656"/>
</g>
</g>
</svg>
