<?xml version="1.0" encoding="UTF-8" standalone="no"?>
<!DOCTYPE svg PUBLIC "-//W3C//DTD SVG 1.1//EN"
 "http://www.w3.org/Graphics/SVG/1.1/DTD/svg11.dtd">
<!-- Generated by graphviz version 2.38.0 (20140413.2041)
 -->
<!-- Title: Individual::assertShares Pages: 1 -->
<svg width="479pt" height="113pt"
 viewBox="0.00 0.00 478.57 113.40" xmlns="http://www.w3.org/2000/svg" xmlns:xlink="http://www.w3.org/1999/xlink">
<g id="graph0" class="graph" transform="scale(1 1) rotate(0) translate(4 109.4)">
<title>Individual::assertShares</title>
<polygon fill="white" stroke="none" points="-4,4 -4,-109.4 474.572,-109.4 474.572,4 -4,4"/>
<!-- Node1 -->
<g id="node1" class="node"><title>Node1</title>
<polygon fill="#bfbfbf" stroke="black" points="1.42109e-14,-41.5 1.42109e-14,-63.9 131.298,-63.9 131.298,-41.5 1.42109e-14,-41.5"/>
<text text-anchor="middle" x="65.6492" y="-49.1" font-family="-adobe-utopia-medium-i-normal--0-0-0-0-p-0-iso10646-1" font-size="12.00">Individual::assertShares</text>
</g>
<!-- Node2 -->
<g id="node2" class="node"><title>Node2</title>
<g id="a_node2"><a xlink:href="classMatch.html#a7c47a9c7017d308d2ae58fac5a204179" target="_top" xlink:title="Match::approxEqual">
<polygon fill="white" stroke="black" points="167.298,-41.5 167.298,-63.9 281.937,-63.9 281.937,-41.5 167.298,-41.5"/>
<text text-anchor="middle" x="224.618" y="-49.1" font-family="-adobe-utopia-medium-i-normal--0-0-0-0-p-0-iso10646-1" font-size="12.00">Match::approxEqual</text>
</a>
</g>
</g>
<!-- Node1&#45;&gt;Node2 -->
<g id="edge1" class="edge"><title>Node1&#45;&gt;Node2</title>
<path fill="none" stroke="midnightblue" d="M131.401,-52.7C139.806,-52.7 148.428,-52.7 156.866,-52.7"/>
<polygon fill="midnightblue" stroke="midnightblue" points="157.039,-56.2001 167.039,-52.7 157.039,-49.2001 157.039,-56.2001"/>
</g>
<!-- Node3 -->
<g id="node3" class="node"><title>Node3</title>
<g id="a_node3"><a xlink:href="classIndividual.html#adab24d093d691c3e84bdce0b2d2f3a81" target="_top" xlink:title="Individual::getChromosome">
<polygon fill="white" stroke="black" points="318.595,-82.5 318.595,-104.9 469.913,-104.9 469.913,-82.5 318.595,-82.5"/>
<text text-anchor="middle" x="394.254" y="-90.1" font-family="-adobe-utopia-medium-i-normal--0-0-0-0-p-0-iso10646-1" font-size="12.00">Individual::getChromosome</text>
</a>
</g>
</g>
<!-- Node2&#45;&gt;Node3 -->
<g id="edge2" class="edge"><title>Node2&#45;&gt;Node3</title>
<path fill="none" stroke="midnightblue" d="M271.425,-63.9034C291.761,-68.8772 315.885,-74.7772 337.278,-80.0096"/>
<polygon fill="midnightblue" stroke="midnightblue" points="336.666,-83.4629 347.211,-82.4389 338.329,-76.6633 336.666,-83.4629"/>
</g>
<!-- Node4 -->
<g id="node4" class="node"><title>Node4</title>
<g id="a_node4"><a xlink:href="classChromosome.html#a6acf26d0b4a7e2651be613ea14c20a1b" target="_top" xlink:title="Chromosome::getMarkerSet">
<polygon fill="white" stroke="black" points="317.937,-41.5 317.937,-63.9 470.572,-63.9 470.572,-41.5 317.937,-41.5"/>
<text text-anchor="middle" x="394.254" y="-49.1" font-family="-adobe-utopia-medium-i-normal--0-0-0-0-p-0-iso10646-1" font-size="12.00">Chromosome::getMarkerSet</text>
</a>
</g>
</g>
<!-- Node2&#45;&gt;Node4 -->
<g id="edge3" class="edge"><title>Node2&#45;&gt;Node4</title>
<path fill="none" stroke="midnightblue" d="M282.372,-52.7C290.564,-52.7 299.143,-52.7 307.746,-52.7"/>
<polygon fill="midnightblue" stroke="midnightblue" points="307.834,-56.2001 317.834,-52.7 307.834,-49.2001 307.834,-56.2001"/>
</g>
<!-- Node5 -->
<g id="node5" class="node"><title>Node5</title>
<g id="a_node5"><a xlink:href="classMarkerSet.html#a4875bf7f161c77ff90c15936fee29ff0" target="_top" xlink:title="MarkerSet::getMarkerBits">
<polygon fill="white" stroke="black" points="322.943,-0.5 322.943,-22.9 465.566,-22.9 465.566,-0.5 322.943,-0.5"/>
<text text-anchor="middle" x="394.254" y="-8.1" font-family="-adobe-utopia-medium-i-normal--0-0-0-0-p-0-iso10646-1" font-size="12.00">MarkerSet::getMarkerBits</text>
</a>
</g>
</g>
<!-- Node2&#45;&gt;Node5 -->
<g id="edge4" class="edge"><title>Node2&#45;&gt;Node5</title>
<path fill="none" stroke="midnightblue" d="M271.425,-41.4966C291.761,-36.5228 315.885,-30.6228 337.278,-25.3904"/>
<polygon fill="midnightblue" stroke="midnightblue" points="338.329,-28.7367 347.211,-22.9611 336.666,-21.9371 338.329,-28.7367"/>
</g>
</g>
</svg>
