<?xml version="1.0" encoding="UTF-8" standalone="no"?>
<!DOCTYPE svg PUBLIC "-//W3C//DTD SVG 1.1//EN"
 "http://www.w3.org/Graphics/SVG/1.1/DTD/svg11.dtd">
<!-- Generated by graphviz version 2.38.0 (20140413.2041)
 -->
<!-- Title: InputManager Pages: 1 -->
<svg width="313pt" height="267pt"
 viewBox="0.00 0.00 313.16 267.20" xmlns="http://www.w3.org/2000/svg" xmlns:xlink="http://www.w3.org/1999/xlink">
<g id="graph0" class="graph" transform="scale(1 1) rotate(0) translate(4 263.2)">
<title>InputManager</title>
<polygon fill="white" stroke="none" points="-4,4 -4,-263.2 309.165,-263.2 309.165,4 -4,4"/>
<!-- Node1 -->
<g id="node1" class="node"><title>Node1</title>
<polygon fill="#bfbfbf" stroke="black" points="192.514,-0.5 192.514,-22.9 276.486,-22.9 276.486,-0.5 192.514,-0.5"/>
<text text-anchor="middle" x="234.5" y="-8.1" font-family="-adobe-utopia-medium-i-normal--0-0-0-0-p-0-iso10646-1" font-size="12.00">InputManager</text>
</g>
<!-- Node2 -->
<g id="node2" class="node"><title>Node2</title>
<g id="a_node2"><a xlink:href="classPolymorphicIndividualsExtractor.html" target="_top" xlink:title="PolymorphicIndividualsExtractor">
<polygon fill="white" stroke="black" points="41.1834,-74.3 41.1834,-96.7 217.817,-96.7 217.817,-74.3 41.1834,-74.3"/>
<text text-anchor="middle" x="129.5" y="-81.9" font-family="-adobe-utopia-medium-i-normal--0-0-0-0-p-0-iso10646-1" font-size="12.00">PolymorphicIndividualsExtractor</text>
</a>
</g>
</g>
<!-- Node2&#45;&gt;Node1 -->
<g id="edge1" class="edge"><title>Node2&#45;&gt;Node1</title>
<path fill="none" stroke="#9a32cd" stroke-dasharray="5,2" d="M152.95,-68.4648C173.286,-54.5589 202.109,-34.8494 219.484,-22.9681"/>
<polygon fill="#9a32cd" stroke="#9a32cd" points="150.823,-65.6791 144.544,-74.2128 154.774,-71.4573 150.823,-65.6791"/>
<text text-anchor="middle" x="200.331" y="-45" font-family="-adobe-utopia-medium-i-normal--0-0-0-0-p-0-iso10646-1" font-size="12.00"> pie</text>
</g>
<!-- Node3 -->
<g id="node3" class="node"><title>Node3</title>
<polygon fill="white" stroke="#bfbfbf" points="0,-162.5 0,-184.9 29,-184.9 29,-162.5 0,-162.5"/>
<text text-anchor="middle" x="14.3348" y="-170.1" font-family="-adobe-utopia-medium-i-normal--0-0-0-0-p-0-iso10646-1" font-size="12.00">int</text>
</g>
<!-- Node3&#45;&gt;Node2 -->
<g id="edge2" class="edge"><title>Node3&#45;&gt;Node2</title>
<path fill="none" stroke="#9a32cd" stroke-dasharray="5,2" d="M16.4498,-152.02C18.6474,-139.79 23.313,-124.853 33.2092,-115.2 41.7006,-106.917 52.4749,-101.01 63.7201,-96.8004"/>
<polygon fill="#9a32cd" stroke="#9a32cd" points="12.9364,-151.88 15.0462,-162.263 19.8716,-152.83 12.9364,-151.88"/>
<text text-anchor="middle" x="79.6454" y="-126" font-family="-adobe-utopia-medium-i-normal--0-0-0-0-p-0-iso10646-1" font-size="12.00"> numberOfMarkers</text>
</g>
<!-- Node4 -->
<g id="node4" class="node"><title>Node4</title>
<polygon fill="white" stroke="#bfbfbf" points="110.833,-162.5 110.833,-184.9 148.167,-184.9 148.167,-162.5 110.833,-162.5"/>
<text text-anchor="middle" x="129.5" y="-170.1" font-family="-adobe-utopia-medium-i-normal--0-0-0-0-p-0-iso10646-1" font-size="12.00">bool</text>
</g>
<!-- Node4&#45;&gt;Node2 -->
<g id="edge3" class="edge"><title>Node4&#45;&gt;Node2</title>
<path fill="none" stroke="#9a32cd" stroke-dasharray="5,2" d="M129.5,-152.166C129.5,-134.689 129.5,-110.315 129.5,-96.7135"/>
<polygon fill="#9a32cd" stroke="#9a32cd" points="126,-152.473 129.5,-162.473 133,-152.473 126,-152.473"/>
<text text-anchor="middle" x="155.326" y="-133.2" font-family="-adobe-utopia-medium-i-normal--0-0-0-0-p-0-iso10646-1" font-size="12.00"> valid_flag</text>
<text text-anchor="middle" x="155.326" y="-118.8" font-family="-adobe-utopia-medium-i-normal--0-0-0-0-p-0-iso10646-1" font-size="12.00">phased</text>
</g>
<!-- Node5 -->
<g id="node5" class="node"><title>Node5</title>
<g id="a_node5"><a xlink:href="classIndividuals.html" target="_top" xlink:title="Individuals">
<polygon fill="white" stroke="black" points="169.504,-162.5 169.504,-184.9 239.496,-184.9 239.496,-162.5 169.504,-162.5"/>
<text text-anchor="middle" x="204.5" y="-170.1" font-family="-adobe-utopia-medium-i-normal--0-0-0-0-p-0-iso10646-1" font-size="12.00">Individuals</text>
</a>
</g>
</g>
<!-- Node5&#45;&gt;Node2 -->
<g id="edge4" class="edge"><title>Node5&#45;&gt;Node2</title>
<path fill="none" stroke="#9a32cd" stroke-dasharray="5,2" d="M200.428,-152.259C197.205,-140.346 191.673,-125.659 182.5,-115.2 175.601,-107.333 166.004,-101.233 156.871,-96.7195"/>
<polygon fill="#9a32cd" stroke="#9a32cd" points="197.074,-153.288 202.776,-162.218 203.887,-151.681 197.074,-153.288"/>
<text text-anchor="middle" x="230.002" y="-126" font-family="-adobe-utopia-medium-i-normal--0-0-0-0-p-0-iso10646-1" font-size="12.00"> individualsP</text>
</g>
<!-- Node6 -->
<g id="node6" class="node"><title>Node6</title>
<polygon fill="white" stroke="#bfbfbf" points="40.5786,-236.3 40.5786,-258.7 164.421,-258.7 164.421,-236.3 40.5786,-236.3"/>
<text text-anchor="middle" x="102.5" y="-243.9" font-family="-adobe-utopia-medium-i-normal--0-0-0-0-p-0-iso10646-1" font-size="12.00">vector&lt; Individual * &gt;</text>
</g>
<!-- Node6&#45;&gt;Node5 -->
<g id="edge5" class="edge"><title>Node6&#45;&gt;Node5</title>
<path fill="none" stroke="#9a32cd" stroke-dasharray="5,2" d="M122.191,-229.592C132.13,-221.346 144.525,-211.488 156.19,-203.4 165.65,-196.841 176.653,-190.231 185.767,-185.01"/>
<polygon fill="#9a32cd" stroke="#9a32cd" points="119.893,-226.951 114.491,-236.065 124.398,-232.31 119.893,-226.951"/>
<text text-anchor="middle" x="178.655" y="-207" font-family="-adobe-utopia-medium-i-normal--0-0-0-0-p-0-iso10646-1" font-size="12.00"> pedigree</text>
</g>
<!-- Node7 -->
<g id="node7" class="node"><title>Node7</title>
<polygon fill="white" stroke="#bfbfbf" points="182.505,-236.3 182.505,-258.7 226.495,-258.7 226.495,-236.3 182.505,-236.3"/>
<text text-anchor="middle" x="204.5" y="-243.9" font-family="-adobe-utopia-medium-i-normal--0-0-0-0-p-0-iso10646-1" font-size="12.00">size_t</text>
</g>
<!-- Node7&#45;&gt;Node5 -->
<g id="edge6" class="edge"><title>Node7&#45;&gt;Node5</title>
<path fill="none" stroke="#9a32cd" stroke-dasharray="5,2" d="M204.5,-225.992C204.5,-212.577 204.5,-195.624 204.5,-184.968"/>
<polygon fill="#9a32cd" stroke="#9a32cd" points="201,-226.213 204.5,-236.213 208,-226.213 201,-226.213"/>
<text text-anchor="middle" x="213.996" y="-207" font-family="-adobe-utopia-medium-i-normal--0-0-0-0-p-0-iso10646-1" font-size="12.00"> iter</text>
</g>
<!-- Node8 -->
<g id="node8" class="node"><title>Node8</title>
<polygon fill="white" stroke="#bfbfbf" points="244.833,-236.3 244.833,-258.7 282.167,-258.7 282.167,-236.3 244.833,-236.3"/>
<text text-anchor="middle" x="263.5" y="-243.9" font-family="-adobe-utopia-medium-i-normal--0-0-0-0-p-0-iso10646-1" font-size="12.00">long</text>
</g>
<!-- Node8&#45;&gt;Node5 -->
<g id="edge7" class="edge"><title>Node8&#45;&gt;Node5</title>
<path fill="none" stroke="#9a32cd" stroke-dasharray="5,2" d="M248.599,-228.366C237.314,-214.634 222.219,-196.263 212.938,-184.968"/>
<polygon fill="#9a32cd" stroke="#9a32cd" points="245.994,-230.709 255.047,-236.213 251.402,-226.265 245.994,-230.709"/>
<text text-anchor="middle" x="249.998" y="-207" font-family="-adobe-utopia-medium-i-normal--0-0-0-0-p-0-iso10646-1" font-size="12.00"> sets</text>
</g>
<!-- Node9 -->
<g id="node9" class="node"><title>Node9</title>
<polygon fill="white" stroke="#bfbfbf" points="235.835,-74.3 235.835,-96.7 305.165,-96.7 305.165,-74.3 235.835,-74.3"/>
<text text-anchor="middle" x="270.5" y="-81.9" font-family="-adobe-utopia-medium-i-normal--0-0-0-0-p-0-iso10646-1" font-size="12.00">FileFormat</text>
</g>
<!-- Node9&#45;&gt;Node1 -->
<g id="edge8" class="edge"><title>Node9&#45;&gt;Node1</title>
<path fill="none" stroke="#9a32cd" stroke-dasharray="5,2" d="M260.818,-65.1894C254.004,-51.5994 245.151,-33.9437 239.648,-22.9681"/>
<polygon fill="#9a32cd" stroke="#9a32cd" points="257.731,-66.8423 265.342,-74.2128 263.989,-63.7048 257.731,-66.8423"/>
<text text-anchor="middle" x="273.993" y="-45" font-family="-adobe-utopia-medium-i-normal--0-0-0-0-p-0-iso10646-1" font-size="12.00"> format</text>
</g>
</g>
</svg>
