<?xml version="1.0" encoding="UTF-8" standalone="no"?>
<!DOCTYPE svg PUBLIC "-//W3C//DTD SVG 1.1//EN"
 "http://www.w3.org/Graphics/SVG/1.1/DTD/svg11.dtd">
<!-- Generated by graphviz version 2.38.0 (20140413.2041)
 -->
<!-- Title: MatchFactory::initialize Pages: 1 -->
<svg width="956pt" height="46pt"
 viewBox="0.00 0.00 956.49 45.80" xmlns="http://www.w3.org/2000/svg" xmlns:xlink="http://www.w3.org/1999/xlink">
<g id="graph0" class="graph" transform="scale(1 1) rotate(0) translate(4 41.8)">
<title>MatchFactory::initialize</title>
<polygon fill="white" stroke="none" points="-4,4 -4,-41.8 952.49,-41.8 952.49,4 -4,4"/>
<!-- Node1 -->
<g id="node1" class="node"><title>Node1</title>
<polygon fill="#bfbfbf" stroke="black" points="-5.68434e-14,-7.7 -5.68434e-14,-30.1 131.968,-30.1 131.968,-7.7 -5.68434e-14,-7.7"/>
<text text-anchor="middle" x="65.984" y="-15.3" font-family="-adobe-utopia-medium-i-normal--0-0-0-0-p-0-iso10646-1" font-size="12.00">MatchFactory::initialize</text>
</g>
<!-- Node2 -->
<g id="node2" class="node"><title>Node2</title>
<g id="a_node2"><a xlink:href="classMatchesBuilder.html#af44853a4e7540f4f54a802a5d0c45faf" target="_top" xlink:title="MatchesBuilder::matchMarkerSet">
<polygon fill="white" stroke="black" points="167.968,-7.7 167.968,-30.1 347.246,-30.1 347.246,-7.7 167.968,-7.7"/>
<text text-anchor="middle" x="257.607" y="-15.3" font-family="-adobe-utopia-medium-i-normal--0-0-0-0-p-0-iso10646-1" font-size="12.00">MatchesBuilder::matchMarkerSet</text>
</a>
</g>
</g>
<!-- Node1&#45;&gt;Node2 -->
<g id="edge1" class="edge"><title>Node1&#45;&gt;Node2</title>
<path fill="none" stroke="midnightblue" d="M142.164,-18.9C150.62,-18.9 159.294,-18.9 167.9,-18.9"/>
<polygon fill="midnightblue" stroke="midnightblue" points="141.976,-15.4001 131.976,-18.9 141.976,-22.4001 141.976,-15.4001"/>
</g>
<!-- Node3 -->
<g id="node3" class="node"><title>Node3</title>
<g id="a_node3"><a xlink:href="classMatchesBuilder.html#ae8d8a0ff7f0726406e83d4fa55a96bf4" target="_top" xlink:title="MatchesBuilder::matchAll\lMarkers">
<polygon fill="white" stroke="black" points="383.246,-0.5 383.246,-37.3 527.214,-37.3 527.214,-0.5 383.246,-0.5"/>
<text text-anchor="start" x="391.246" y="-22.5" font-family="-adobe-utopia-medium-i-normal--0-0-0-0-p-0-iso10646-1" font-size="12.00">MatchesBuilder::matchAll</text>
<text text-anchor="middle" x="455.23" y="-8.1" font-family="-adobe-utopia-medium-i-normal--0-0-0-0-p-0-iso10646-1" font-size="12.00">Markers</text>
</a>
</g>
</g>
<!-- Node2&#45;&gt;Node3 -->
<g id="edge2" class="edge"><title>Node2&#45;&gt;Node3</title>
<path fill="none" stroke="midnightblue" d="M357.439,-18.9C366.119,-18.9 374.788,-18.9 383.173,-18.9"/>
<polygon fill="midnightblue" stroke="midnightblue" points="357.261,-15.4001 347.261,-18.9 357.261,-22.4001 357.261,-15.4001"/>
</g>
<!-- Node4 -->
<g id="node4" class="node"><title>Node4</title>
<g id="a_node4"><a xlink:href="classMatchesBuilder.html#a31faf645700f38ac0d7d164b57cfebd1" target="_top" xlink:title="MatchesBuilder::buildMatches">
<polygon fill="white" stroke="black" points="563.214,-7.7 563.214,-30.1 727.845,-30.1 727.845,-7.7 563.214,-7.7"/>
<text text-anchor="middle" x="645.529" y="-15.3" font-family="-adobe-utopia-medium-i-normal--0-0-0-0-p-0-iso10646-1" font-size="12.00">MatchesBuilder::buildMatches</text>
</a>
</g>
</g>
<!-- Node3&#45;&gt;Node4 -->
<g id="edge3" class="edge"><title>Node3&#45;&gt;Node4</title>
<path fill="none" stroke="midnightblue" d="M537.64,-18.9C546.092,-18.9 554.684,-18.9 563.136,-18.9"/>
<polygon fill="midnightblue" stroke="midnightblue" points="537.418,-15.4001 527.418,-18.9 537.418,-22.4001 537.418,-15.4001"/>
</g>
<!-- Node5 -->
<g id="node5" class="node"><title>Node5</title>
<g id="a_node5"><a xlink:href="classGERMLINE.html#a7912aa3108f42f42e06c615b460d0565" target="_top" xlink:title="GERMLINE::mine">
<polygon fill="white" stroke="black" points="763.845,-7.7 763.845,-30.1 872.493,-30.1 872.493,-7.7 763.845,-7.7"/>
<text text-anchor="middle" x="818.169" y="-15.3" font-family="-adobe-utopia-medium-i-normal--0-0-0-0-p-0-iso10646-1" font-size="12.00">GERMLINE::mine</text>
</a>
</g>
</g>
<!-- Node4&#45;&gt;Node5 -->
<g id="edge4" class="edge"><title>Node4&#45;&gt;Node5</title>
<path fill="none" stroke="midnightblue" d="M737.854,-18.9C746.7,-18.9 755.458,-18.9 763.748,-18.9"/>
<polygon fill="midnightblue" stroke="midnightblue" points="737.851,-15.4001 727.851,-18.9 737.851,-22.4001 737.851,-15.4001"/>
</g>
<!-- Node6 -->
<g id="node6" class="node"><title>Node6</title>
<g id="a_node6"><a xlink:href="GERMLINE__0001_8cpp.html#a0ddf1224851353fc92bfbff6f499fa97" target="_top" xlink:title="main">
<polygon fill="white" stroke="black" points="908.493,-7.7 908.493,-30.1 948.49,-30.1 948.49,-7.7 908.493,-7.7"/>
<text text-anchor="middle" x="928.491" y="-15.3" font-family="-adobe-utopia-medium-i-normal--0-0-0-0-p-0-iso10646-1" font-size="12.00">main</text>
</a>
</g>
</g>
<!-- Node5&#45;&gt;Node6 -->
<g id="edge5" class="edge"><title>Node5&#45;&gt;Node6</title>
<path fill="none" stroke="midnightblue" d="M882.846,-18.9C892.111,-18.9 900.992,-18.9 908.359,-18.9"/>
<polygon fill="midnightblue" stroke="midnightblue" points="882.696,-15.4001 872.696,-18.9 882.695,-22.4001 882.696,-15.4001"/>
</g>
</g>
</svg>
