<?xml version="1.0" encoding="UTF-8" standalone="no"?>
<!DOCTYPE svg PUBLIC "-//W3C//DTD SVG 1.1//EN"
 "http://www.w3.org/Graphics/SVG/1.1/DTD/svg11.dtd">
<!-- Generated by graphviz version 2.38.0 (20140413.2041)
 -->
<!-- Title: SNP::getPhysPos Pages: 1 -->
<svg width="260pt" height="113pt"
 viewBox="0.00 0.00 259.99 113.40" xmlns="http://www.w3.org/2000/svg" xmlns:xlink="http://www.w3.org/1999/xlink">
<g id="graph0" class="graph" transform="scale(1 1) rotate(0) translate(4 109.4)">
<title>SNP::getPhysPos</title>
<polygon fill="white" stroke="none" points="-4,4 -4,-109.4 255.988,-109.4 255.988,4 -4,4"/>
<!-- Node1 -->
<g id="node1" class="node"><title>Node1</title>
<polygon fill="#bfbfbf" stroke="black" points="1.42109e-14,-41.5 1.42109e-14,-63.9 100.011,-63.9 100.011,-41.5 1.42109e-14,-41.5"/>
<text text-anchor="middle" x="50.0054" y="-49.1" font-family="-adobe-utopia-medium-i-normal--0-0-0-0-p-0-iso10646-1" font-size="12.00">SNP::getPhysPos</text>
</g>
<!-- Node2 -->
<g id="node2" class="node"><title>Node2</title>
<g id="a_node2"><a xlink:href="classMatch.html#ad30f24028e020b3fa6c8fb542daf588a" target="_top" xlink:title="Match::physicalEnd">
<polygon fill="white" stroke="black" points="137.676,-82.5 137.676,-104.9 250.322,-104.9 250.322,-82.5 137.676,-82.5"/>
<text text-anchor="middle" x="193.999" y="-90.1" font-family="-adobe-utopia-medium-i-normal--0-0-0-0-p-0-iso10646-1" font-size="12.00">Match::physicalEnd</text>
</a>
</g>
</g>
<!-- Node1&#45;&gt;Node2 -->
<g id="edge1" class="edge"><title>Node1&#45;&gt;Node2</title>
<path fill="none" stroke="midnightblue" d="M99.8935,-66.8162C117.485,-71.8957 137.088,-77.556 153.752,-82.3677"/>
<polygon fill="midnightblue" stroke="midnightblue" points="100.384,-63.315 89.8058,-63.9034 98.4424,-70.0402 100.384,-63.315"/>
</g>
<!-- Node3 -->
<g id="node3" class="node"><title>Node3</title>
<g id="a_node3"><a xlink:href="classMatch.html#a5b5d63d426bda95b69d9c10df84684e4" target="_top" xlink:title="Match::physicalStart">
<polygon fill="white" stroke="black" points="136.011,-41.5 136.011,-63.9 251.988,-63.9 251.988,-41.5 136.011,-41.5"/>
<text text-anchor="middle" x="193.999" y="-49.1" font-family="-adobe-utopia-medium-i-normal--0-0-0-0-p-0-iso10646-1" font-size="12.00">Match::physicalStart</text>
</a>
</g>
</g>
<!-- Node1&#45;&gt;Node3 -->
<g id="edge2" class="edge"><title>Node1&#45;&gt;Node3</title>
<path fill="none" stroke="midnightblue" d="M110.307,-52.7C118.653,-52.7 127.22,-52.7 135.531,-52.7"/>
<polygon fill="midnightblue" stroke="midnightblue" points="110.269,-49.2001 100.269,-52.7 110.269,-56.2001 110.269,-49.2001"/>
</g>
<!-- Node4 -->
<g id="node4" class="node"><title>Node4</title>
<g id="a_node4"><a xlink:href="classMatch.html#a989ae28b68842fc096ee6edb8c1595fd" target="_top" xlink:title="Match::print">
<polygon fill="white" stroke="black" points="156.005,-0.5 156.005,-22.9 231.994,-22.9 231.994,-0.5 156.005,-0.5"/>
<text text-anchor="middle" x="193.999" y="-8.1" font-family="-adobe-utopia-medium-i-normal--0-0-0-0-p-0-iso10646-1" font-size="12.00">Match::print</text>
</a>
</g>
</g>
<!-- Node1&#45;&gt;Node4 -->
<g id="edge3" class="edge"><title>Node1&#45;&gt;Node4</title>
<path fill="none" stroke="midnightblue" d="M99.472,-38.7055C117.866,-33.3944 138.51,-27.4333 155.715,-22.4656"/>
<polygon fill="midnightblue" stroke="midnightblue" points="98.4424,-35.3597 89.8058,-41.4966 100.384,-42.085 98.4424,-35.3597"/>
</g>
</g>
</svg>
