<?xml version="1.0" encoding="UTF-8" standalone="no"?>
<!DOCTYPE svg PUBLIC "-//W3C//DTD SVG 1.1//EN"
 "http://www.w3.org/Graphics/SVG/1.1/DTD/svg11.dtd">
<!-- Generated by graphviz version 2.38.0 (20140413.2041)
 -->
<!-- Title: HMIndividualsExtractor::loadInput Pages: 1 -->
<svg width="631pt" height="400pt"
 viewBox="0.00 0.00 631.26 400.40" xmlns="http://www.w3.org/2000/svg" xmlns:xlink="http://www.w3.org/1999/xlink">
<g id="graph0" class="graph" transform="scale(1 1) rotate(0) translate(4 396.4)">
<title>HMIndividualsExtractor::loadInput</title>
<polygon fill="white" stroke="none" points="-4,4 -4,-396.4 627.255,-396.4 627.255,4 -4,4"/>
<!-- Node1 -->
<g id="node1" class="node"><title>Node1</title>
<polygon fill="#bfbfbf" stroke="black" points="-4.26326e-14,-177.3 -4.26326e-14,-214.1 133.966,-214.1 133.966,-177.3 -4.26326e-14,-177.3"/>
<text text-anchor="start" x="8" y="-199.3" font-family="-adobe-utopia-medium-i-normal--0-0-0-0-p-0-iso10646-1" font-size="12.00">HMIndividualsExtractor</text>
<text text-anchor="middle" x="66.983" y="-184.9" font-family="-adobe-utopia-medium-i-normal--0-0-0-0-p-0-iso10646-1" font-size="12.00">::loadInput</text>
</g>
<!-- Node2 -->
<g id="node2" class="node"><title>Node2</title>
<g id="a_node2"><a xlink:href="classSNPs.html#a7e4f810a6d54fdd7d84c0a1b8bc38647" target="_top" xlink:title="SNPs::beginChromosome">
<polygon fill="white" stroke="black" points="169.966,-225.5 169.966,-247.9 310.629,-247.9 310.629,-225.5 169.966,-225.5"/>
<text text-anchor="middle" x="240.298" y="-233.1" font-family="-adobe-utopia-medium-i-normal--0-0-0-0-p-0-iso10646-1" font-size="12.00">SNPs::beginChromosome</text>
</a>
</g>
</g>
<!-- Node1&#45;&gt;Node2 -->
<g id="edge1" class="edge"><title>Node1&#45;&gt;Node2</title>
<path fill="none" stroke="midnightblue" d="M134.218,-211.552C150.129,-215.36 166.983,-219.393 182.426,-223.089"/>
<polygon fill="midnightblue" stroke="midnightblue" points="181.805,-226.539 192.345,-225.463 183.435,-219.732 181.805,-226.539"/>
</g>
<!-- Node3 -->
<g id="node3" class="node"><title>Node3</title>
<g id="a_node3"><a xlink:href="classSNPs.html#a5ebf04c1e5d71710bd68af7a556864f9" target="_top" xlink:title="SNPs::processLegendFile">
<polygon fill="white" stroke="black" points="170.31,-184.5 170.31,-206.9 310.285,-206.9 310.285,-184.5 170.31,-184.5"/>
<text text-anchor="middle" x="240.298" y="-192.1" font-family="-adobe-utopia-medium-i-normal--0-0-0-0-p-0-iso10646-1" font-size="12.00">SNPs::processLegendFile</text>
</a>
</g>
</g>
<!-- Node1&#45;&gt;Node3 -->
<g id="edge2" class="edge"><title>Node1&#45;&gt;Node3</title>
<path fill="none" stroke="midnightblue" d="M134.218,-195.7C142.677,-195.7 151.403,-195.7 160.042,-195.7"/>
<polygon fill="midnightblue" stroke="midnightblue" points="160.122,-199.2 170.122,-195.7 160.122,-192.2 160.122,-199.2"/>
</g>
<!-- Node16 -->
<g id="node16" class="node"><title>Node16</title>
<g id="a_node16"><a xlink:href="classSNPs.html#ae2cd85e5aa4517c008fe42a17eae0e60" target="_top" xlink:title="SNPs::size">
<polygon fill="white" stroke="black" points="206.3,-143.5 206.3,-165.9 274.296,-165.9 274.296,-143.5 206.3,-143.5"/>
<text text-anchor="middle" x="240.298" y="-151.1" font-family="-adobe-utopia-medium-i-normal--0-0-0-0-p-0-iso10646-1" font-size="12.00">SNPs::size</text>
</a>
</g>
</g>
<!-- Node1&#45;&gt;Node16 -->
<g id="edge16" class="edge"><title>Node1&#45;&gt;Node16</title>
<path fill="none" stroke="midnightblue" d="M134.218,-179.848C155.128,-174.844 177.669,-169.449 196.492,-164.945"/>
<polygon fill="midnightblue" stroke="midnightblue" points="197.338,-168.341 206.249,-162.609 195.709,-161.533 197.338,-168.341"/>
</g>
<!-- Node4 -->
<g id="node4" class="node"><title>Node4</title>
<g id="a_node4"><a xlink:href="classSNP.html#a4e0905f0c1d5165fea2185e752ed5089" target="_top" xlink:title="SNP::setSNPID">
<polygon fill="white" stroke="black" points="373.611,-369.5 373.611,-391.9 466.276,-391.9 466.276,-369.5 373.611,-369.5"/>
<text text-anchor="middle" x="419.943" y="-377.1" font-family="-adobe-utopia-medium-i-normal--0-0-0-0-p-0-iso10646-1" font-size="12.00">SNP::setSNPID</text>
</a>
</g>
</g>
<!-- Node3&#45;&gt;Node4 -->
<g id="edge3" class="edge"><title>Node3&#45;&gt;Node4</title>
<path fill="none" stroke="midnightblue" d="M299.315,-207.05C303.477,-209.42 307.327,-212.271 310.629,-215.7 356.693,-263.524 300.302,-313.13 346.629,-360.7 351.453,-365.653 357.385,-369.412 363.759,-372.259"/>
<polygon fill="midnightblue" stroke="midnightblue" points="362.742,-375.615 373.335,-375.811 365.176,-369.052 362.742,-375.615"/>
</g>
<!-- Node5 -->
<g id="node5" class="node"><title>Node5</title>
<g id="a_node5"><a xlink:href="classSNP.html#ad7a6b88dd8139d62c7fc24c1a1fe0f6e" target="_top" xlink:title="SNP::setPhysPos">
<polygon fill="white" stroke="black" points="370.605,-328.5 370.605,-350.9 469.282,-350.9 469.282,-328.5 370.605,-328.5"/>
<text text-anchor="middle" x="419.943" y="-336.1" font-family="-adobe-utopia-medium-i-normal--0-0-0-0-p-0-iso10646-1" font-size="12.00">SNP::setPhysPos</text>
</a>
</g>
</g>
<!-- Node3&#45;&gt;Node5 -->
<g id="edge4" class="edge"><title>Node3&#45;&gt;Node5</title>
<path fill="none" stroke="midnightblue" d="M298.317,-207.021C302.803,-209.391 306.994,-212.251 310.629,-215.7 346.11,-249.369 310.963,-286.227 346.629,-319.7 350.785,-323.6 355.632,-326.751 360.813,-329.295"/>
<polygon fill="midnightblue" stroke="midnightblue" points="359.843,-332.681 370.422,-333.25 362.507,-326.207 359.843,-332.681"/>
</g>
<!-- Node6 -->
<g id="node6" class="node"><title>Node6</title>
<g id="a_node6"><a xlink:href="classSNP.html#a48dda4a0e2279f6da968f910d6905877" target="_top" xlink:title="SNP::setVariant">
<polygon fill="white" stroke="black" points="372.952,-287.5 372.952,-309.9 466.935,-309.9 466.935,-287.5 372.952,-287.5"/>
<text text-anchor="middle" x="419.943" y="-295.1" font-family="-adobe-utopia-medium-i-normal--0-0-0-0-p-0-iso10646-1" font-size="12.00">SNP::setVariant</text>
</a>
</g>
</g>
<!-- Node3&#45;&gt;Node6 -->
<g id="edge5" class="edge"><title>Node3&#45;&gt;Node6</title>
<path fill="none" stroke="midnightblue" d="M295.923,-206.963C301.181,-209.339 306.197,-212.216 310.629,-215.7 335.982,-235.631 321.167,-258.909 346.629,-278.7 351.624,-282.582 357.325,-285.711 363.286,-288.233"/>
<polygon fill="midnightblue" stroke="midnightblue" points="362.209,-291.566 372.803,-291.717 364.616,-284.992 362.209,-291.566"/>
</g>
<!-- Node7 -->
<g id="node7" class="node"><title>Node7</title>
<g id="a_node7"><a xlink:href="classSNP.html#a61968e34d753198196b179a2a3aafce4" target="_top" xlink:title="SNP::setMarkerNumber">
<polygon fill="white" stroke="black" points="353.628,-246.5 353.628,-268.9 486.259,-268.9 486.259,-246.5 353.628,-246.5"/>
<text text-anchor="middle" x="419.943" y="-254.1" font-family="-adobe-utopia-medium-i-normal--0-0-0-0-p-0-iso10646-1" font-size="12.00">SNP::setMarkerNumber</text>
</a>
</g>
</g>
<!-- Node3&#45;&gt;Node7 -->
<g id="edge6" class="edge"><title>Node3&#45;&gt;Node7</title>
<path fill="none" stroke="midnightblue" d="M287.044,-207.008C295.039,-209.515 303.177,-212.419 310.629,-215.7 327.791,-223.255 329.426,-230.24 346.629,-237.7 351.29,-239.721 356.209,-241.591 361.199,-243.308"/>
<polygon fill="midnightblue" stroke="midnightblue" points="360.243,-246.677 370.835,-246.422 362.396,-240.016 360.243,-246.677"/>
</g>
<!-- Node8 -->
<g id="node8" class="node"><title>Node8</title>
<g id="a_node8"><a xlink:href="classSNP.html#af9eff18f0ff52b1d6184d5f929f90290" target="_top" xlink:title="SNP::setCentimorgan">
<polygon fill="white" stroke="black" points="359.614,-205.5 359.614,-227.9 480.272,-227.9 480.272,-205.5 359.614,-205.5"/>
<text text-anchor="middle" x="419.943" y="-213.1" font-family="-adobe-utopia-medium-i-normal--0-0-0-0-p-0-iso10646-1" font-size="12.00">SNP::setCentimorgan</text>
</a>
</g>
</g>
<!-- Node3&#45;&gt;Node8 -->
<g id="edge7" class="edge"><title>Node3&#45;&gt;Node8</title>
<path fill="none" stroke="midnightblue" d="M310.489,-203.879C323.25,-205.388 336.579,-206.964 349.352,-208.473"/>
<polygon fill="midnightblue" stroke="midnightblue" points="349.112,-211.969 359.454,-209.668 349.934,-205.018 349.112,-211.969"/>
</g>
<!-- Node9 -->
<g id="node9" class="node"><title>Node9</title>
<g id="a_node9"><a xlink:href="classSNPs.html#a966e05b1d44910967919ed5aabf7f3a2" target="_top" xlink:title="SNPs::getGeneticDistance">
<polygon fill="white" stroke="black" points="348.296,-164.5 348.296,-186.9 491.591,-186.9 491.591,-164.5 348.296,-164.5"/>
<text text-anchor="middle" x="419.943" y="-172.1" font-family="-adobe-utopia-medium-i-normal--0-0-0-0-p-0-iso10646-1" font-size="12.00">SNPs::getGeneticDistance</text>
</a>
</g>
</g>
<!-- Node3&#45;&gt;Node9 -->
<g id="edge8" class="edge"><title>Node3&#45;&gt;Node9</title>
<path fill="none" stroke="midnightblue" d="M310.489,-187.91C319.575,-186.887 328.95,-185.832 338.206,-184.79"/>
<polygon fill="midnightblue" stroke="midnightblue" points="338.639,-188.263 348.185,-183.666 337.856,-181.307 338.639,-188.263"/>
</g>
<!-- Node12 -->
<g id="node12" class="node"><title>Node12</title>
<g id="a_node12"><a xlink:href="classSNP.html#a1787003e80c13e350f4691cf572a4468" target="_top" xlink:title="SNP::getCentimorgan">
<polygon fill="white" stroke="black" points="358.948,-123.5 358.948,-145.9 480.939,-145.9 480.939,-123.5 358.948,-123.5"/>
<text text-anchor="middle" x="419.943" y="-131.1" font-family="-adobe-utopia-medium-i-normal--0-0-0-0-p-0-iso10646-1" font-size="12.00">SNP::getCentimorgan</text>
</a>
</g>
</g>
<!-- Node3&#45;&gt;Node12 -->
<g id="edge11" class="edge"><title>Node3&#45;&gt;Node12</title>
<path fill="none" stroke="midnightblue" d="M286.251,-184.494C294.487,-181.947 302.913,-179.003 310.629,-175.7 327.658,-168.411 329.561,-161.895 346.629,-154.7 351.383,-152.696 356.398,-150.833 361.478,-149.116"/>
<polygon fill="midnightblue" stroke="midnightblue" points="362.811,-152.365 371.277,-145.994 360.686,-145.695 362.811,-152.365"/>
</g>
<!-- Node13 -->
<g id="node13" class="node"><title>Node13</title>
<g id="a_node13"><a xlink:href="classSNP.html#a0845feb56b14b488595d93567369f7c5" target="_top" xlink:title="SNP::setChr">
<polygon fill="white" stroke="black" points="381.943,-82.5 381.943,-104.9 457.943,-104.9 457.943,-82.5 381.943,-82.5"/>
<text text-anchor="middle" x="419.943" y="-90.1" font-family="-adobe-utopia-medium-i-normal--0-0-0-0-p-0-iso10646-1" font-size="12.00">SNP::setChr</text>
</a>
</g>
</g>
<!-- Node3&#45;&gt;Node13 -->
<g id="edge12" class="edge"><title>Node3&#45;&gt;Node13</title>
<path fill="none" stroke="midnightblue" d="M295.899,-184.406C301.162,-182.036 306.185,-179.169 310.629,-175.7 335.747,-156.094 321.404,-133.168 346.629,-113.7 354.051,-107.972 363.015,-103.885 372.067,-100.967"/>
<polygon fill="midnightblue" stroke="midnightblue" points="373.163,-104.295 381.856,-98.2387 371.284,-97.5523 373.163,-104.295"/>
</g>
<!-- Node14 -->
<g id="node14" class="node"><title>Node14</title>
<g id="a_node14"><a xlink:href="classSNPs.html#a79df6854d1863b8f2e14fd324ad5752b" target="_top" xlink:title="SNPs::addSNP">
<polygon fill="white" stroke="black" points="375.607,-41.5 375.607,-63.9 464.279,-63.9 464.279,-41.5 375.607,-41.5"/>
<text text-anchor="middle" x="419.943" y="-49.1" font-family="-adobe-utopia-medium-i-normal--0-0-0-0-p-0-iso10646-1" font-size="12.00">SNPs::addSNP</text>
</a>
</g>
</g>
<!-- Node3&#45;&gt;Node14 -->
<g id="edge13" class="edge"><title>Node3&#45;&gt;Node14</title>
<path fill="none" stroke="midnightblue" d="M298.306,-184.367C302.794,-182 306.989,-179.144 310.629,-175.7 345.856,-142.373 311.22,-105.833 346.629,-72.7 352.057,-67.6216 358.657,-63.8134 365.639,-60.9616"/>
<polygon fill="midnightblue" stroke="midnightblue" points="367,-64.1948 375.32,-57.6359 364.726,-57.5745 367,-64.1948"/>
</g>
<!-- Node15 -->
<g id="node15" class="node"><title>Node15</title>
<g id="a_node15"><a xlink:href="classSNPs.html#aab7887e45f048314552ec8c9d657eec8" target="_top" xlink:title="SNPs::setGeneticDistances">
<polygon fill="white" stroke="black" points="346.629,-0.5 346.629,-22.9 493.258,-22.9 493.258,-0.5 346.629,-0.5"/>
<text text-anchor="middle" x="419.943" y="-8.1" font-family="-adobe-utopia-medium-i-normal--0-0-0-0-p-0-iso10646-1" font-size="12.00">SNPs::setGeneticDistances</text>
</a>
</g>
</g>
<!-- Node3&#45;&gt;Node15 -->
<g id="edge15" class="edge"><title>Node3&#45;&gt;Node15</title>
<path fill="none" stroke="midnightblue" d="M299.309,-184.344C303.472,-181.976 307.324,-179.126 310.629,-175.7 356.433,-128.223 300.565,-78.9235 346.629,-31.7 347.576,-30.7297 348.565,-29.8052 349.591,-28.9244"/>
<polygon fill="midnightblue" stroke="midnightblue" points="351.905,-31.5785 358.113,-22.9929 347.906,-25.8332 351.905,-31.5785"/>
</g>
<!-- Node10 -->
<g id="node10" class="node"><title>Node10</title>
<g id="a_node10"><a xlink:href="classSNP.html#a1cf02a7f908f653fb2645935b0bdcc3d" target="_top" xlink:title="SNP::getChr">
<polygon fill="white" stroke="black" points="537.59,-82.5 537.59,-104.9 614.923,-104.9 614.923,-82.5 537.59,-82.5"/>
<text text-anchor="middle" x="576.256" y="-90.1" font-family="-adobe-utopia-medium-i-normal--0-0-0-0-p-0-iso10646-1" font-size="12.00">SNP::getChr</text>
</a>
</g>
</g>
<!-- Node9&#45;&gt;Node10 -->
<g id="edge9" class="edge"><title>Node9&#45;&gt;Node10</title>
<path fill="none" stroke="midnightblue" d="M471.263,-164.442C478.811,-161.999 486.366,-159.102 493.258,-155.7 516.697,-144.127 540.157,-125.502 555.941,-111.682"/>
<polygon fill="midnightblue" stroke="midnightblue" points="558.339,-114.233 563.455,-104.956 553.67,-109.018 558.339,-114.233"/>
</g>
<!-- Node11 -->
<g id="node11" class="node"><title>Node11</title>
<g id="a_node11"><a xlink:href="classSNP.html#acb364c2ba0b3daf71f3a83a9f9f4fa1b" target="_top" xlink:title="SNP::getSNPID">
<polygon fill="white" stroke="black" points="529.258,-164.5 529.258,-186.9 623.255,-186.9 623.255,-164.5 529.258,-164.5"/>
<text text-anchor="middle" x="576.256" y="-172.1" font-family="-adobe-utopia-medium-i-normal--0-0-0-0-p-0-iso10646-1" font-size="12.00">SNP::getSNPID</text>
</a>
</g>
</g>
<!-- Node9&#45;&gt;Node11 -->
<g id="edge10" class="edge"><title>Node9&#45;&gt;Node11</title>
<path fill="none" stroke="midnightblue" d="M491.777,-175.7C500.889,-175.7 510.119,-175.7 518.954,-175.7"/>
<polygon fill="midnightblue" stroke="midnightblue" points="519.114,-179.2 529.114,-175.7 519.114,-172.2 519.114,-179.2"/>
</g>
<!-- Node14&#45;&gt;Node10 -->
<g id="edge14" class="edge"><title>Node14&#45;&gt;Node10</title>
<path fill="none" stroke="midnightblue" d="M463.11,-63.9034C483.049,-69.2011 506.943,-75.5495 527.543,-81.0228"/>
<polygon fill="midnightblue" stroke="midnightblue" points="526.796,-84.4456 537.359,-83.6309 528.593,-77.6803 526.796,-84.4456"/>
</g>
</g>
</svg>
