<?xml version="1.0" encoding="UTF-8" standalone="no"?>
<!DOCTYPE svg PUBLIC "-//W3C//DTD SVG 1.1//EN"
 "http://www.w3.org/Graphics/SVG/1.1/DTD/svg11.dtd">
<!-- Generated by graphviz version 2.38.0 (20140413.2041)
 -->
<!-- Title: HMIndividualsExtractor::loadMarkerSet Pages: 1 -->
<svg width="312pt" height="154pt"
 viewBox="0.00 0.00 311.93 154.40" xmlns="http://www.w3.org/2000/svg" xmlns:xlink="http://www.w3.org/1999/xlink">
<g id="graph0" class="graph" transform="scale(1 1) rotate(0) translate(4 150.4)">
<title>HMIndividualsExtractor::loadMarkerSet</title>
<polygon fill="white" stroke="none" points="-4,4 -4,-150.4 307.931,-150.4 307.931,4 -4,4"/>
<!-- Node1 -->
<g id="node1" class="node"><title>Node1</title>
<polygon fill="#bfbfbf" stroke="black" points="1.42109e-14,-54.3 1.42109e-14,-91.1 133.966,-91.1 133.966,-54.3 1.42109e-14,-54.3"/>
<text text-anchor="start" x="8" y="-76.3" font-family="-adobe-utopia-medium-i-normal--0-0-0-0-p-0-iso10646-1" font-size="12.00">HMIndividualsExtractor</text>
<text text-anchor="middle" x="66.983" y="-61.9" font-family="-adobe-utopia-medium-i-normal--0-0-0-0-p-0-iso10646-1" font-size="12.00">::loadMarkerSet</text>
</g>
<!-- Node2 -->
<g id="node2" class="node"><title>Node2</title>
<g id="a_node2"><a xlink:href="classSNPs.html#ab60d36a9d490c8d5d155134170ffd2dc" target="_top" xlink:title="SNPs::currentSize">
<polygon fill="white" stroke="black" points="184.959,-123.5 184.959,-145.9 288.937,-145.9 288.937,-123.5 184.959,-123.5"/>
<text text-anchor="middle" x="236.948" y="-131.1" font-family="-adobe-utopia-medium-i-normal--0-0-0-0-p-0-iso10646-1" font-size="12.00">SNPs::currentSize</text>
</a>
</g>
</g>
<!-- Node1&#45;&gt;Node2 -->
<g id="edge1" class="edge"><title>Node1&#45;&gt;Node2</title>
<path fill="none" stroke="midnightblue" d="M110.301,-91.1983C128.507,-98.8772 150.126,-107.626 169.966,-114.7 175.455,-116.657 181.243,-118.593 187.018,-120.446"/>
<polygon fill="midnightblue" stroke="midnightblue" points="186.079,-123.819 196.668,-123.473 188.174,-117.14 186.079,-123.819"/>
</g>
<!-- Node3 -->
<g id="node3" class="node"><title>Node3</title>
<g id="a_node3"><a xlink:href="classSNP.html#a3891a5225af3d8916c14557accb17e6c" target="_top" xlink:title="SNP::getMarkerNumber">
<polygon fill="white" stroke="black" points="169.966,-82.5 169.966,-104.9 303.931,-104.9 303.931,-82.5 169.966,-82.5"/>
<text text-anchor="middle" x="236.948" y="-90.1" font-family="-adobe-utopia-medium-i-normal--0-0-0-0-p-0-iso10646-1" font-size="12.00">SNP::getMarkerNumber</text>
</a>
</g>
</g>
<!-- Node1&#45;&gt;Node3 -->
<g id="edge2" class="edge"><title>Node1&#45;&gt;Node3</title>
<path fill="none" stroke="midnightblue" d="M134.367,-80.9998C142.647,-82.0349 151.165,-83.0999 159.58,-84.152"/>
<polygon fill="midnightblue" stroke="midnightblue" points="159.414,-87.6584 169.771,-85.4262 160.283,-80.7125 159.414,-87.6584"/>
</g>
<!-- Node4 -->
<g id="node4" class="node"><title>Node4</title>
<g id="a_node4"><a xlink:href="classSNPs.html#ae27666e68ba06ba960eeced83704ef9d" target="_top" xlink:title="SNPs::getROIStart">
<polygon fill="white" stroke="black" points="183.286,-41.5 183.286,-63.9 290.611,-63.9 290.611,-41.5 183.286,-41.5"/>
<text text-anchor="middle" x="236.948" y="-49.1" font-family="-adobe-utopia-medium-i-normal--0-0-0-0-p-0-iso10646-1" font-size="12.00">SNPs::getROIStart</text>
</a>
</g>
</g>
<!-- Node1&#45;&gt;Node4 -->
<g id="edge3" class="edge"><title>Node1&#45;&gt;Node4</title>
<path fill="none" stroke="midnightblue" d="M134.367,-64.7955C147.174,-63.2705 160.553,-61.6775 173.238,-60.167"/>
<polygon fill="midnightblue" stroke="midnightblue" points="173.723,-63.6342 183.239,-58.9762 172.895,-56.6833 173.723,-63.6342"/>
</g>
<!-- Node5 -->
<g id="node5" class="node"><title>Node5</title>
<g id="a_node5"><a xlink:href="classMarkerSet.html#a18b07d89da5718fdae652a6ada7267be" target="_top" xlink:title="MarkerSet::set">
<polygon fill="white" stroke="black" points="193.628,-0.5 193.628,-22.9 280.269,-22.9 280.269,-0.5 193.628,-0.5"/>
<text text-anchor="middle" x="236.948" y="-8.1" font-family="-adobe-utopia-medium-i-normal--0-0-0-0-p-0-iso10646-1" font-size="12.00">MarkerSet::set</text>
</a>
</g>
</g>
<!-- Node1&#45;&gt;Node5 -->
<g id="edge4" class="edge"><title>Node1&#45;&gt;Node5</title>
<path fill="none" stroke="midnightblue" d="M111.335,-54.2923C129.336,-46.9053 150.525,-38.5395 169.966,-31.7 175.464,-29.7659 181.257,-27.8441 187.034,-25.9998"/>
<polygon fill="midnightblue" stroke="midnightblue" points="188.188,-29.3063 196.687,-22.9808 186.098,-22.6254 188.188,-29.3063"/>
</g>
</g>
</svg>
