<?xml version="1.0" encoding="UTF-8" standalone="no"?>
<!DOCTYPE svg PUBLIC "-//W3C//DTD SVG 1.1//EN"
 "http://www.w3.org/Graphics/SVG/1.1/DTD/svg11.dtd">
<!-- Generated by graphviz version 2.38.0 (20140413.2041)
 -->
<!-- Title: SNPs::setFile Pages: 1 -->
<svg width="263pt" height="102pt"
 viewBox="0.00 0.00 262.64 101.80" xmlns="http://www.w3.org/2000/svg" xmlns:xlink="http://www.w3.org/1999/xlink">
<g id="graph0" class="graph" transform="scale(1 1) rotate(0) translate(4 97.8)">
<title>SNPs::setFile</title>
<polygon fill="white" stroke="none" points="-4,4 -4,-97.8 258.637,-97.8 258.637,4 -4,4"/>
<!-- Node1 -->
<g id="node1" class="node"><title>Node1</title>
<polygon fill="#bfbfbf" stroke="black" points="1.42109e-14,-35.7 1.42109e-14,-58.1 81.3364,-58.1 81.3364,-35.7 1.42109e-14,-35.7"/>
<text text-anchor="middle" x="40.6682" y="-43.3" font-family="-adobe-utopia-medium-i-normal--0-0-0-0-p-0-iso10646-1" font-size="12.00">SNPs::setFile</text>
</g>
<!-- Node2 -->
<g id="node2" class="node"><title>Node2</title>
<g id="a_node2"><a xlink:href="classPEDIndividualsExtractor.html#a64e71c4bdfdd1caf91a6b258446e1b18" target="_top" xlink:title="PEDIndividualsExtractor\l::getInput">
<polygon fill="white" stroke="black" points="117.336,-56.5 117.336,-93.3 254.637,-93.3 254.637,-56.5 117.336,-56.5"/>
<text text-anchor="start" x="125.336" y="-78.5" font-family="-adobe-utopia-medium-i-normal--0-0-0-0-p-0-iso10646-1" font-size="12.00">PEDIndividualsExtractor</text>
<text text-anchor="middle" x="185.987" y="-64.1" font-family="-adobe-utopia-medium-i-normal--0-0-0-0-p-0-iso10646-1" font-size="12.00">::getInput</text>
</a>
</g>
</g>
<!-- Node1&#45;&gt;Node2 -->
<g id="edge1" class="edge"><title>Node1&#45;&gt;Node2</title>
<path fill="none" stroke="midnightblue" d="M91.4997,-56.6355C99.8285,-58.2627 108.592,-59.9749 117.278,-61.6719"/>
<polygon fill="midnightblue" stroke="midnightblue" points="92.076,-53.182 81.5904,-54.6996 90.7337,-60.0521 92.076,-53.182"/>
</g>
<!-- Node3 -->
<g id="node3" class="node"><title>Node3</title>
<g id="a_node3"><a xlink:href="classHMIndividualsExtractor.html#a3c8b275b1e5a01ec435338f56e9e2c41" target="_top" xlink:title="HMIndividualsExtractor\l::getInput">
<polygon fill="white" stroke="black" points="119.004,-0.5 119.004,-37.3 252.97,-37.3 252.97,-0.5 119.004,-0.5"/>
<text text-anchor="start" x="127.004" y="-22.5" font-family="-adobe-utopia-medium-i-normal--0-0-0-0-p-0-iso10646-1" font-size="12.00">HMIndividualsExtractor</text>
<text text-anchor="middle" x="185.987" y="-8.1" font-family="-adobe-utopia-medium-i-normal--0-0-0-0-p-0-iso10646-1" font-size="12.00">::getInput</text>
</a>
</g>
</g>
<!-- Node1&#45;&gt;Node3 -->
<g id="edge2" class="edge"><title>Node1&#45;&gt;Node3</title>
<path fill="none" stroke="midnightblue" d="M91.6677,-37.1316C100.471,-35.4117 109.756,-33.5977 118.919,-31.8077"/>
<polygon fill="midnightblue" stroke="midnightblue" points="90.7337,-33.7479 81.5904,-39.1004 92.076,-40.618 90.7337,-33.7479"/>
</g>
</g>
</svg>
