<?xml version="1.0" encoding="UTF-8" standalone="no"?>
<!DOCTYPE svg PUBLIC "-//W3C//DTD SVG 1.1//EN"
 "http://www.w3.org/Graphics/SVG/1.1/DTD/svg11.dtd">
<!-- Generated by graphviz version 2.38.0 (20140413.2041)
 -->
<!-- Title: GERMLINE.cpp Pages: 1 -->
<svg width="1420pt" height="685pt"
 viewBox="0.00 0.00 1420.00 684.80" xmlns="http://www.w3.org/2000/svg" xmlns:xlink="http://www.w3.org/1999/xlink">
<g id="graph0" class="graph" transform="scale(1 1) rotate(0) translate(4 680.8)">
<title>GERMLINE.cpp</title>
<polygon fill="white" stroke="none" points="-4,4 -4,-680.8 1416,-680.8 1416,4 -4,4"/>
<!-- Node1 -->
<g id="node1" class="node"><title>Node1</title>
<polygon fill="#bfbfbf" stroke="black" points="581.845,-653.9 581.845,-676.3 680.155,-676.3 680.155,-653.9 581.845,-653.9"/>
<text text-anchor="middle" x="631" y="-661.5" font-family="-adobe-utopia-medium-i-normal--0-0-0-0-p-0-iso10646-1" font-size="12.00">GERMLINE.cpp</text>
</g>
<!-- Node2 -->
<g id="node2" class="node"><title>Node2</title>
<g id="a_node2"><a xlink:href="GERMLINE_8h.html" target="_top" xlink:title="GERMLINE.h">
<polygon fill="white" stroke="black" points="587.509,-594.5 587.509,-616.9 674.491,-616.9 674.491,-594.5 587.509,-594.5"/>
<text text-anchor="middle" x="631" y="-602.1" font-family="-adobe-utopia-medium-i-normal--0-0-0-0-p-0-iso10646-1" font-size="12.00">GERMLINE.h</text>
</a>
</g>
</g>
<!-- Node1&#45;&gt;Node2 -->
<g id="edge1" class="edge"><title>Node1&#45;&gt;Node2</title>
<path fill="none" stroke="midnightblue" d="M631,-653.838C631,-646.502 631,-636.379 631,-627.393"/>
<polygon fill="midnightblue" stroke="midnightblue" points="634.5,-627.261 631,-617.261 627.5,-627.262 634.5,-627.261"/>
</g>
<!-- Node7 -->
<g id="node7" class="node"><title>Node7</title>
<polygon fill="white" stroke="#bfbfbf" points="47.3402,-0.5 47.3402,-22.9 104.66,-22.9 104.66,-0.5 47.3402,-0.5"/>
<text text-anchor="middle" x="76" y="-8.1" font-family="-adobe-utopia-medium-i-normal--0-0-0-0-p-0-iso10646-1" font-size="12.00">iostream</text>
</g>
<!-- Node1&#45;&gt;Node7 -->
<g id="edge75" class="edge"><title>Node1&#45;&gt;Node7</title>
<path fill="none" stroke="midnightblue" d="M581.749,-660.19C433.245,-647.747 0,-606.382 0,-547.3 0,-547.3 0,-547.3 0,-129.5 0,-88.5984 33.1473,-50.7788 55.6599,-29.8095"/>
<polygon fill="midnightblue" stroke="midnightblue" points="58.0084,-32.4047 63.1076,-23.1177 53.3299,-27.1977 58.0084,-32.4047"/>
</g>
<!-- Node19 -->
<g id="node19" class="node"><title>Node19</title>
<polygon fill="white" stroke="#bfbfbf" points="955.502,-119.3 955.502,-141.7 1004.5,-141.7 1004.5,-119.3 955.502,-119.3"/>
<text text-anchor="middle" x="980" y="-126.9" font-family="-adobe-utopia-medium-i-normal--0-0-0-0-p-0-iso10646-1" font-size="12.00">math.h</text>
</g>
<!-- Node1&#45;&gt;Node19 -->
<g id="edge74" class="edge"><title>Node1&#45;&gt;Node19</title>
<path fill="none" stroke="midnightblue" d="M680.357,-660.152C828.637,-647.636 1260,-606.166 1260,-547.3 1260,-547.3 1260,-547.3 1260,-426.5 1260,-283.911 1085.78,-182.719 1012.19,-146.337"/>
<polygon fill="midnightblue" stroke="midnightblue" points="1013.44,-143.051 1002.91,-141.83 1010.38,-149.347 1013.44,-143.051"/>
</g>
<!-- Node3 -->
<g id="node3" class="node"><title>Node3</title>
<g id="a_node3"><a xlink:href="InputManager_8h.html" target="_top" xlink:title="InputManager.h">
<polygon fill="white" stroke="black" points="926.514,-535.1 926.514,-557.5 1019.49,-557.5 1019.49,-535.1 926.514,-535.1"/>
<text text-anchor="middle" x="973" y="-542.7" font-family="-adobe-utopia-medium-i-normal--0-0-0-0-p-0-iso10646-1" font-size="12.00">InputManager.h</text>
</a>
</g>
</g>
<!-- Node2&#45;&gt;Node3 -->
<g id="edge2" class="edge"><title>Node2&#45;&gt;Node3</title>
<path fill="none" stroke="midnightblue" d="M674.662,-597.372C736.153,-587.052 848.324,-568.225 916.224,-556.829"/>
<polygon fill="midnightblue" stroke="midnightblue" points="917.035,-560.242 926.318,-555.135 915.876,-553.339 917.035,-560.242"/>
</g>
<!-- Node4 -->
<g id="node4" class="node"><title>Node4</title>
<g id="a_node4"><a xlink:href="BasicDefinitions_8h.html" target="_top" xlink:title="BasicDefinitions.h">
<polygon fill="white" stroke="black" points="1055.18,-59.9 1055.18,-82.3 1160.82,-82.3 1160.82,-59.9 1055.18,-59.9"/>
<text text-anchor="middle" x="1108" y="-67.5" font-family="-adobe-utopia-medium-i-normal--0-0-0-0-p-0-iso10646-1" font-size="12.00">BasicDefinitions.h</text>
</a>
</g>
</g>
<!-- Node2&#45;&gt;Node4 -->
<g id="edge71" class="edge"><title>Node2&#45;&gt;Node4</title>
<path fill="none" stroke="midnightblue" d="M674.704,-602.477C833.971,-593.805 1374,-559.146 1374,-487.9 1374,-487.9 1374,-487.9 1374,-307.7 1374,-217.037 1365.58,-178.102 1297,-118.8 1278.14,-102.494 1218.27,-89.4747 1170.9,-81.3677"/>
<polygon fill="midnightblue" stroke="midnightblue" points="1171.45,-77.9099 1161.01,-79.7129 1170.29,-84.8141 1171.45,-77.9099"/>
</g>
<!-- Node2&#45;&gt;Node7 -->
<g id="edge72" class="edge"><title>Node2&#45;&gt;Node7</title>
<path fill="none" stroke="midnightblue" d="M587.395,-605.373C450.449,-606.329 38,-599.912 38,-487.9 38,-487.9 38,-487.9 38,-129.5 38,-93.6499 54.3888,-54.5129 65.6407,-31.8677"/>
<polygon fill="midnightblue" stroke="midnightblue" points="68.7602,-33.4547 70.2286,-22.9621 62.5375,-30.2488 68.7602,-33.4547"/>
</g>
<!-- Node10 -->
<g id="node10" class="node"><title>Node10</title>
<g id="a_node10"><a xlink:href="Individuals_8h.html" target="_top" xlink:title="Individuals.h">
<polygon fill="white" stroke="black" points="496.504,-416.3 496.504,-438.7 575.496,-438.7 575.496,-416.3 496.504,-416.3"/>
<text text-anchor="middle" x="536" y="-423.9" font-family="-adobe-utopia-medium-i-normal--0-0-0-0-p-0-iso10646-1" font-size="12.00">Individuals.h</text>
</a>
</g>
</g>
<!-- Node2&#45;&gt;Node10 -->
<g id="edge59" class="edge"><title>Node2&#45;&gt;Node10</title>
<path fill="none" stroke="midnightblue" d="M634.73,-594.289C639.153,-580.209 644.982,-554.561 637,-534.6 621.543,-495.944 584.555,-463.342 559.893,-444.857"/>
<polygon fill="midnightblue" stroke="midnightblue" points="561.884,-441.977 551.739,-438.92 557.764,-447.636 561.884,-441.977"/>
</g>
<!-- Node27 -->
<g id="node27" class="node"><title>Node27</title>
<g id="a_node27"><a xlink:href="MatchesBuilder_8h.html" target="_top" xlink:title="MatchesBuilder.h">
<polygon fill="white" stroke="black" points="466.179,-535.1 466.179,-557.5 567.821,-557.5 567.821,-535.1 466.179,-535.1"/>
<text text-anchor="middle" x="517" y="-542.7" font-family="-adobe-utopia-medium-i-normal--0-0-0-0-p-0-iso10646-1" font-size="12.00">MatchesBuilder.h</text>
</a>
</g>
</g>
<!-- Node2&#45;&gt;Node27 -->
<g id="edge60" class="edge"><title>Node2&#45;&gt;Node27</title>
<path fill="none" stroke="midnightblue" d="M610.619,-594.438C592.816,-585.474 566.749,-572.349 546.639,-562.223"/>
<polygon fill="midnightblue" stroke="midnightblue" points="548.095,-559.038 537.589,-557.667 544.947,-565.29 548.095,-559.038"/>
</g>
<!-- Node30 -->
<g id="node30" class="node"><title>Node30</title>
<polygon fill="white" stroke="#bfbfbf" points="585.671,-535.1 585.671,-557.5 628.329,-557.5 628.329,-535.1 585.671,-535.1"/>
<text text-anchor="middle" x="607" y="-542.7" font-family="-adobe-utopia-medium-i-normal--0-0-0-0-p-0-iso10646-1" font-size="12.00">ctime</text>
</g>
<!-- Node2&#45;&gt;Node30 -->
<g id="edge73" class="edge"><title>Node2&#45;&gt;Node30</title>
<path fill="none" stroke="midnightblue" d="M626.709,-594.438C623.541,-586.86 619.129,-576.308 615.282,-567.108"/>
<polygon fill="midnightblue" stroke="midnightblue" points="618.503,-565.737 611.416,-557.861 612.044,-568.438 618.503,-565.737"/>
</g>
<!-- Node3&#45;&gt;Node4 -->
<g id="edge3" class="edge"><title>Node3&#45;&gt;Node4</title>
<path fill="none" stroke="midnightblue" d="M1019.8,-546.07C1074.92,-545.012 1167.65,-536.941 1236,-498.6 1272.28,-478.252 1298,-470.093 1298,-428.5 1298,-428.5 1298,-428.5 1298,-188.9 1298,-155.969 1297.92,-141.429 1274,-118.8 1258.88,-104.498 1211.22,-91.9564 1170.82,-83.4813"/>
<polygon fill="midnightblue" stroke="midnightblue" points="1171.5,-80.0474 1161,-81.4691 1170.1,-86.905 1171.5,-80.0474"/>
</g>
<!-- Node9 -->
<g id="node9" class="node"><title>Node9</title>
<g id="a_node9"><a xlink:href="PolymorphicIndividualsExtractor_8h.html" target="_top" xlink:title="PolymorphicIndividualsExtractor.h">
<polygon fill="white" stroke="black" points="880.183,-475.7 880.183,-498.1 1065.82,-498.1 1065.82,-475.7 880.183,-475.7"/>
<text text-anchor="middle" x="973" y="-483.3" font-family="-adobe-utopia-medium-i-normal--0-0-0-0-p-0-iso10646-1" font-size="12.00">PolymorphicIndividualsExtractor.h</text>
</a>
</g>
</g>
<!-- Node3&#45;&gt;Node9 -->
<g id="edge8" class="edge"><title>Node3&#45;&gt;Node9</title>
<path fill="none" stroke="midnightblue" d="M973,-535.038C973,-527.702 973,-517.579 973,-508.593"/>
<polygon fill="midnightblue" stroke="midnightblue" points="976.5,-508.461 973,-498.461 969.5,-508.462 976.5,-508.461"/>
</g>
<!-- Node3&#45;&gt;Node10 -->
<g id="edge57" class="edge"><title>Node3&#45;&gt;Node10</title>
<path fill="none" stroke="midnightblue" d="M934.602,-535.037C854.886,-513.731 671.599,-464.743 584.14,-441.367"/>
<polygon fill="midnightblue" stroke="midnightblue" points="585.032,-437.982 574.467,-438.781 583.224,-444.745 585.032,-437.982"/>
</g>
<!-- Node16 -->
<g id="node16" class="node"><title>Node16</title>
<polygon fill="white" stroke="#bfbfbf" points="529.334,-59.9 529.334,-82.3 572.666,-82.3 572.666,-59.9 529.334,-59.9"/>
<text text-anchor="middle" x="551" y="-67.5" font-family="-adobe-utopia-medium-i-normal--0-0-0-0-p-0-iso10646-1" font-size="12.00">string</text>
</g>
<!-- Node3&#45;&gt;Node16 -->
<g id="edge58" class="edge"><title>Node3&#45;&gt;Node16</title>
<path fill="none" stroke="midnightblue" d="M1019.67,-535.907C1040.33,-529.178 1062.69,-517.776 1075,-498.6 1101.89,-456.718 1213.12,-585.827 1046,-297 969.332,-164.496 668.902,-151.903 649,-142.2 647.967,-141.696 602.131,-108.822 573.518,-88.2765"/>
<polygon fill="midnightblue" stroke="midnightblue" points="575.424,-85.3361 565.26,-82.3457 571.34,-91.0218 575.424,-85.3361"/>
</g>
<!-- Node5 -->
<g id="node5" class="node"><title>Node5</title>
<polygon fill="white" stroke="#bfbfbf" points="857.008,-0.5 857.008,-22.9 902.992,-22.9 902.992,-0.5 857.008,-0.5"/>
<text text-anchor="middle" x="880" y="-8.1" font-family="-adobe-utopia-medium-i-normal--0-0-0-0-p-0-iso10646-1" font-size="12.00">vector</text>
</g>
<!-- Node4&#45;&gt;Node5 -->
<g id="edge4" class="edge"><title>Node4&#45;&gt;Node5</title>
<path fill="none" stroke="midnightblue" d="M1067.24,-59.838C1023.08,-48.72 953.485,-31.2001 912.739,-20.9421"/>
<polygon fill="midnightblue" stroke="midnightblue" points="913.586,-17.5463 903.034,-18.4989 911.877,-24.3344 913.586,-17.5463"/>
</g>
<!-- Node6 -->
<g id="node6" class="node"><title>Node6</title>
<polygon fill="white" stroke="#bfbfbf" points="1163.01,-0.5 1163.01,-22.9 1214.99,-22.9 1214.99,-0.5 1163.01,-0.5"/>
<text text-anchor="middle" x="1189" y="-8.1" font-family="-adobe-utopia-medium-i-normal--0-0-0-0-p-0-iso10646-1" font-size="12.00">fstream</text>
</g>
<!-- Node4&#45;&gt;Node6 -->
<g id="edge5" class="edge"><title>Node4&#45;&gt;Node6</title>
<path fill="none" stroke="midnightblue" d="M1122.48,-59.838C1134.62,-51.2393 1152.15,-38.8112 1166.17,-28.8749"/>
<polygon fill="midnightblue" stroke="midnightblue" points="1168.24,-31.7042 1174.37,-23.0667 1164.19,-25.9929 1168.24,-31.7042"/>
</g>
<!-- Node4&#45;&gt;Node7 -->
<g id="edge6" class="edge"><title>Node4&#45;&gt;Node7</title>
<path fill="none" stroke="midnightblue" d="M1055.05,-67.1547C872.917,-57.0246 274.735,-23.7537 115.327,-14.8874"/>
<polygon fill="midnightblue" stroke="midnightblue" points="115.223,-11.3763 105.044,-14.3155 114.835,-18.3655 115.223,-11.3763"/>
</g>
<!-- Node8 -->
<g id="node8" class="node"><title>Node8</title>
<polygon fill="white" stroke="#bfbfbf" points="1081.83,-0.5 1081.83,-22.9 1134.17,-22.9 1134.17,-0.5 1081.83,-0.5"/>
<text text-anchor="middle" x="1108" y="-8.1" font-family="-adobe-utopia-medium-i-normal--0-0-0-0-p-0-iso10646-1" font-size="12.00">string.h</text>
</g>
<!-- Node4&#45;&gt;Node8 -->
<g id="edge7" class="edge"><title>Node4&#45;&gt;Node8</title>
<path fill="none" stroke="midnightblue" d="M1108,-59.838C1108,-52.5019 1108,-42.3785 1108,-33.3932"/>
<polygon fill="midnightblue" stroke="midnightblue" points="1111.5,-33.2614 1108,-23.2615 1104.5,-33.2615 1111.5,-33.2614"/>
</g>
<!-- Node9&#45;&gt;Node5 -->
<g id="edge56" class="edge"><title>Node9&#45;&gt;Node5</title>
<path fill="none" stroke="midnightblue" d="M997.5,-475.588C1091.38,-434.595 1417.75,-277.672 1312,-118.8 1267.19,-51.4809 1006.58,-23.2987 913.24,-15.2728"/>
<polygon fill="midnightblue" stroke="midnightblue" points="913.473,-11.7801 903.216,-14.4335 912.889,-18.7557 913.473,-11.7801"/>
</g>
<!-- Node9&#45;&gt;Node6 -->
<g id="edge54" class="edge"><title>Node9&#45;&gt;Node6</title>
<path fill="none" stroke="midnightblue" d="M1029.05,-475.65C1147.39,-452.406 1412,-391.312 1412,-309.7 1412,-309.7 1412,-309.7 1412,-129.5 1412,-46.2519 1288.54,-22.2235 1225.34,-15.3771"/>
<polygon fill="midnightblue" stroke="midnightblue" points="1225.31,-11.857 1215.02,-14.3532 1224.62,-18.8228 1225.31,-11.857"/>
</g>
<!-- Node9&#45;&gt;Node10 -->
<g id="edge9" class="edge"><title>Node9&#45;&gt;Node10</title>
<path fill="none" stroke="midnightblue" d="M879.991,-476.647C802.044,-468.401 687.951,-455.18 589,-439.2 587.911,-439.024 586.811,-438.842 585.702,-438.654"/>
<polygon fill="midnightblue" stroke="midnightblue" points="586.048,-435.161 575.588,-436.844 584.814,-442.051 586.048,-435.161"/>
</g>
<!-- Node13 -->
<g id="node13" class="node"><title>Node13</title>
<g id="a_node13"><a xlink:href="SNPs_8h.html" target="_top" xlink:title="SNPs.h">
<polygon fill="white" stroke="black" points="693.164,-178.7 693.164,-201.1 744.836,-201.1 744.836,-178.7 693.164,-178.7"/>
<text text-anchor="middle" x="719" y="-186.3" font-family="-adobe-utopia-medium-i-normal--0-0-0-0-p-0-iso10646-1" font-size="12.00">SNPs.h</text>
</a>
</g>
</g>
<!-- Node9&#45;&gt;Node13 -->
<g id="edge53" class="edge"><title>Node9&#45;&gt;Node13</title>
<path fill="none" stroke="midnightblue" d="M982.479,-475.526C999.157,-456.152 1032,-412.491 1032,-369.1 1032,-369.1 1032,-369.1 1032,-307.7 1032,-249.089 836.916,-210.224 754.776,-196.457"/>
<polygon fill="midnightblue" stroke="midnightblue" points="755.316,-192.999 744.88,-194.829 754.179,-199.906 755.316,-192.999"/>
</g>
<!-- Node9&#45;&gt;Node16 -->
<g id="edge55" class="edge"><title>Node9&#45;&gt;Node16</title>
<path fill="none" stroke="midnightblue" d="M910.027,-475.697C773.594,-449.587 455.405,-365.899 361,-142.2 334.369,-79.097 458.287,-71.4395 519.053,-71.3844"/>
<polygon fill="midnightblue" stroke="midnightblue" points="519.249,-74.8855 529.27,-71.4463 519.291,-67.8856 519.249,-74.8855"/>
</g>
<!-- Node10&#45;&gt;Node4 -->
<g id="edge10" class="edge"><title>Node10&#45;&gt;Node4</title>
<path fill="none" stroke="midnightblue" d="M575.846,-422.236C670.514,-410.53 913.44,-371.095 1080,-261 1111.04,-240.482 1120.94,-234.134 1139,-201.6 1152.16,-177.885 1149.87,-169.142 1153,-142.2 1154.2,-131.87 1156.89,-128.445 1153,-118.8 1148.36,-107.288 1139.37,-97.0302 1130.63,-89.0814"/>
<polygon fill="midnightblue" stroke="midnightblue" points="1132.71,-86.2548 1122.82,-82.4608 1128.19,-91.5956 1132.71,-86.2548"/>
</g>
<!-- Node11 -->
<g id="node11" class="node"><title>Node11</title>
<g id="a_node11"><a xlink:href="Chromosome_8h.html" target="_top" xlink:title="Chromosome.h">
<polygon fill="white" stroke="black" points="627.17,-297.5 627.17,-319.9 716.83,-319.9 716.83,-297.5 627.17,-297.5"/>
<text text-anchor="middle" x="672" y="-305.1" font-family="-adobe-utopia-medium-i-normal--0-0-0-0-p-0-iso10646-1" font-size="12.00">Chromosome.h</text>
</a>
</g>
</g>
<!-- Node10&#45;&gt;Node11 -->
<g id="edge11" class="edge"><title>Node10&#45;&gt;Node11</title>
<path fill="none" stroke="midnightblue" d="M548.069,-416.135C571.5,-396.012 623.356,-351.477 652.006,-326.871"/>
<polygon fill="midnightblue" stroke="midnightblue" points="654.457,-329.38 659.762,-320.21 649.896,-324.07 654.457,-329.38"/>
</g>
<!-- Node18 -->
<g id="node18" class="node"><title>Node18</title>
<polygon fill="white" stroke="#bfbfbf" points="247.669,-59.9 247.669,-82.3 284.331,-82.3 284.331,-59.9 247.669,-59.9"/>
<text text-anchor="middle" x="266" y="-67.5" font-family="-adobe-utopia-medium-i-normal--0-0-0-0-p-0-iso10646-1" font-size="12.00">map</text>
</g>
<!-- Node10&#45;&gt;Node18 -->
<g id="edge51" class="edge"><title>Node10&#45;&gt;Node18</title>
<path fill="none" stroke="midnightblue" d="M496.302,-425.547C431.54,-421.552 305.062,-402.985 252,-320.4 205.329,-247.763 240.112,-137.1 257.574,-92.1385"/>
<polygon fill="midnightblue" stroke="midnightblue" points="260.908,-93.2289 261.389,-82.645 254.413,-90.6189 260.908,-93.2289"/>
</g>
<!-- Node22 -->
<g id="node22" class="node"><title>Node22</title>
<g id="a_node22"><a xlink:href="Individual_8h.html" target="_top" xlink:title="Individual.h">
<polygon fill="white" stroke="black" points="390.837,-356.9 390.837,-379.3 465.163,-379.3 465.163,-356.9 390.837,-356.9"/>
<text text-anchor="middle" x="428" y="-364.5" font-family="-adobe-utopia-medium-i-normal--0-0-0-0-p-0-iso10646-1" font-size="12.00">Individual.h</text>
</a>
</g>
</g>
<!-- Node10&#45;&gt;Node22 -->
<g id="edge35" class="edge"><title>Node10&#45;&gt;Node22</title>
<path fill="none" stroke="midnightblue" d="M511.376,-416.238C493.284,-407.477 469.064,-394.741 451.297,-384.715"/>
<polygon fill="midnightblue" stroke="midnightblue" points="452.584,-381.418 442.17,-379.467 449.094,-387.486 452.584,-381.418"/>
</g>
<!-- Node26 -->
<g id="node26" class="node"><title>Node26</title>
<polygon fill="white" stroke="#bfbfbf" points="483.008,-356.9 483.008,-379.3 536.992,-379.3 536.992,-356.9 483.008,-356.9"/>
<text text-anchor="middle" x="510" y="-364.5" font-family="-adobe-utopia-medium-i-normal--0-0-0-0-p-0-iso10646-1" font-size="12.00">ostream</text>
</g>
<!-- Node10&#45;&gt;Node26 -->
<g id="edge52" class="edge"><title>Node10&#45;&gt;Node26</title>
<path fill="none" stroke="midnightblue" d="M531.352,-416.238C527.919,-408.66 523.14,-398.108 518.972,-388.908"/>
<polygon fill="midnightblue" stroke="midnightblue" points="522.098,-387.326 514.784,-379.661 515.722,-390.215 522.098,-387.326"/>
</g>
<!-- Node11&#45;&gt;Node4 -->
<g id="edge12" class="edge"><title>Node11&#45;&gt;Node4</title>
<path fill="none" stroke="midnightblue" d="M717.073,-304.756C796.384,-299.03 957.295,-284.825 1008,-261 1074.23,-229.88 1097.26,-211.069 1122,-142.2 1127.94,-125.659 1123.02,-105.965 1117.44,-91.6693"/>
<polygon fill="midnightblue" stroke="midnightblue" points="1120.59,-90.1265 1113.41,-82.3362 1114.17,-92.9041 1120.59,-90.1265"/>
</g>
<!-- Node11&#45;&gt;Node5 -->
<g id="edge34" class="edge"><title>Node11&#45;&gt;Node5</title>
<path fill="none" stroke="midnightblue" d="M716.947,-302.138C795.022,-289.703 953.084,-251.564 1013,-142.2 1041.47,-90.2409 960.464,-46.1261 912.534,-25.3835"/>
<polygon fill="midnightblue" stroke="midnightblue" points="913.72,-22.0854 903.145,-21.4343 911.006,-28.5379 913.72,-22.0854"/>
</g>
<!-- Node12 -->
<g id="node12" class="node"><title>Node12</title>
<g id="a_node12"><a xlink:href="MarkerSet_8h.html" target="_top" xlink:title="MarkerSet.h">
<polygon fill="white" stroke="black" points="584.179,-238.1 584.179,-260.5 659.821,-260.5 659.821,-238.1 584.179,-238.1"/>
<text text-anchor="middle" x="622" y="-245.7" font-family="-adobe-utopia-medium-i-normal--0-0-0-0-p-0-iso10646-1" font-size="12.00">MarkerSet.h</text>
</a>
</g>
</g>
<!-- Node11&#45;&gt;Node12 -->
<g id="edge13" class="edge"><title>Node11&#45;&gt;Node12</title>
<path fill="none" stroke="midnightblue" d="M663.061,-297.438C656.109,-289.457 646.283,-278.177 637.987,-268.653"/>
<polygon fill="midnightblue" stroke="midnightblue" points="640.407,-266.103 631.2,-260.861 635.129,-270.701 640.407,-266.103"/>
</g>
<!-- Node12&#45;&gt;Node4 -->
<g id="edge14" class="edge"><title>Node12&#45;&gt;Node4</title>
<path fill="none" stroke="midnightblue" d="M651.699,-238.039C678.504,-228.72 718.987,-214.5 754,-201.6 823.225,-176.095 842.86,-174.883 909,-142.2 926.782,-133.413 928.867,-126.836 947,-118.8 980.133,-104.117 1019.13,-92.6693 1050.44,-84.7829"/>
<polygon fill="midnightblue" stroke="midnightblue" points="1051.45,-88.1393 1060.32,-82.3479 1049.77,-81.3427 1051.45,-88.1393"/>
</g>
<!-- Node12&#45;&gt;Node13 -->
<g id="edge15" class="edge"><title>Node12&#45;&gt;Node13</title>
<path fill="none" stroke="midnightblue" d="M639.342,-238.038C654.147,-229.277 675.67,-216.541 692.612,-206.515"/>
<polygon fill="midnightblue" stroke="midnightblue" points="694.658,-209.372 701.481,-201.267 691.093,-203.347 694.658,-209.372"/>
</g>
<!-- Node20 -->
<g id="node20" class="node"><title>Node20</title>
<polygon fill="white" stroke="#bfbfbf" points="369.664,-119.3 369.664,-141.7 400.336,-141.7 400.336,-119.3 369.664,-119.3"/>
<text text-anchor="middle" x="385" y="-126.9" font-family="-adobe-utopia-medium-i-normal--0-0-0-0-p-0-iso10646-1" font-size="12.00">list</text>
</g>
<!-- Node12&#45;&gt;Node20 -->
<g id="edge33" class="edge"><title>Node12&#45;&gt;Node20</title>
<path fill="none" stroke="midnightblue" d="M600.622,-237.966C581.15,-228.537 551.613,-214.196 526,-201.6 485.184,-181.527 437.863,-157.935 409.734,-143.877"/>
<polygon fill="midnightblue" stroke="midnightblue" points="411.137,-140.665 400.627,-139.324 408.006,-146.927 411.137,-140.665"/>
</g>
<!-- Node21 -->
<g id="node21" class="node"><title>Node21</title>
<polygon fill="white" stroke="#bfbfbf" points="535.171,-178.7 535.171,-201.1 674.829,-201.1 674.829,-178.7 535.171,-178.7"/>
<text text-anchor="middle" x="605" y="-186.3" font-family="-adobe-utopia-medium-i-normal--0-0-0-0-p-0-iso10646-1" font-size="12.00">boost/dynamic_bitset.hpp</text>
</g>
<!-- Node12&#45;&gt;Node21 -->
<g id="edge32" class="edge"><title>Node12&#45;&gt;Node21</title>
<path fill="none" stroke="midnightblue" d="M618.961,-238.038C616.764,-230.621 613.724,-220.356 611.041,-211.297"/>
<polygon fill="midnightblue" stroke="midnightblue" points="614.324,-210.056 608.128,-201.461 607.612,-212.044 614.324,-210.056"/>
</g>
<!-- Node13&#45;&gt;Node4 -->
<g id="edge16" class="edge"><title>Node13&#45;&gt;Node4</title>
<path fill="none" stroke="midnightblue" d="M726.243,-178.502C737.886,-162.691 762.38,-132.949 791,-118.8 834.37,-97.3586 965.15,-83.4946 1044.54,-76.8097"/>
<polygon fill="midnightblue" stroke="midnightblue" points="1045.23,-80.2646 1054.9,-75.9527 1044.65,-73.2883 1045.23,-80.2646"/>
</g>
<!-- Node13&#45;&gt;Node5 -->
<g id="edge28" class="edge"><title>Node13&#45;&gt;Node5</title>
<path fill="none" stroke="midnightblue" d="M722.952,-178.671C728.792,-164.35 740.706,-137.934 756,-118.8 785.563,-81.8167 829.368,-47.9064 856.224,-28.8161"/>
<polygon fill="midnightblue" stroke="midnightblue" points="858.452,-31.529 864.637,-22.9271 854.438,-25.7943 858.452,-31.529"/>
</g>
<!-- Node13&#45;&gt;Node6 -->
<g id="edge27" class="edge"><title>Node13&#45;&gt;Node6</title>
<path fill="none" stroke="midnightblue" d="M744.919,-186.593C831.984,-178.293 1111.76,-146.984 1170,-82.8 1182.27,-69.2746 1186.74,-48.6137 1188.31,-33.2215"/>
<polygon fill="midnightblue" stroke="midnightblue" points="1191.81,-33.3396 1189,-23.1222 1184.82,-32.8574 1191.81,-33.3396"/>
</g>
<!-- Node14 -->
<g id="node14" class="node"><title>Node14</title>
<g id="a_node14"><a xlink:href="NucleotideMap_8h.html" target="_top" xlink:title="NucleotideMap.h">
<polygon fill="white" stroke="black" points="800.179,-119.3 800.179,-141.7 899.821,-141.7 899.821,-119.3 800.179,-119.3"/>
<text text-anchor="middle" x="850" y="-126.9" font-family="-adobe-utopia-medium-i-normal--0-0-0-0-p-0-iso10646-1" font-size="12.00">NucleotideMap.h</text>
</a>
</g>
</g>
<!-- Node13&#45;&gt;Node14 -->
<g id="edge17" class="edge"><title>Node13&#45;&gt;Node14</title>
<path fill="none" stroke="midnightblue" d="M742.42,-178.638C763.155,-169.553 793.647,-156.192 816.879,-146.013"/>
<polygon fill="midnightblue" stroke="midnightblue" points="818.586,-149.086 826.341,-141.867 815.777,-142.674 818.586,-149.086"/>
</g>
<!-- Node15 -->
<g id="node15" class="node"><title>Node15</title>
<g id="a_node15"><a xlink:href="SNP_8h.html" target="_top" xlink:title="SNP.h">
<polygon fill="white" stroke="black" points="658.498,-119.3 658.498,-141.7 705.502,-141.7 705.502,-119.3 658.498,-119.3"/>
<text text-anchor="middle" x="682" y="-126.9" font-family="-adobe-utopia-medium-i-normal--0-0-0-0-p-0-iso10646-1" font-size="12.00">SNP.h</text>
</a>
</g>
</g>
<!-- Node13&#45;&gt;Node15 -->
<g id="edge19" class="edge"><title>Node13&#45;&gt;Node15</title>
<path fill="none" stroke="midnightblue" d="M712.385,-178.638C707.396,-170.899 700.408,-160.058 694.391,-150.723"/>
<polygon fill="midnightblue" stroke="midnightblue" points="697.168,-148.57 688.808,-142.061 691.284,-152.363 697.168,-148.57"/>
</g>
<!-- Node13&#45;&gt;Node16 -->
<g id="edge29" class="edge"><title>Node13&#45;&gt;Node16</title>
<path fill="none" stroke="midnightblue" d="M692.936,-180.366C671.15,-172.491 639.894,-159.418 616,-142.2 595.739,-127.6 576.84,-105.946 564.701,-90.573"/>
<polygon fill="midnightblue" stroke="midnightblue" points="567.247,-88.1419 558.376,-82.3486 561.698,-92.4092 567.247,-88.1419"/>
</g>
<!-- Node17 -->
<g id="node17" class="node"><title>Node17</title>
<g id="a_node17"><a xlink:href="SNPPositionMap_8h.html" target="_top" xlink:title="SNPPositionMap.h">
<polygon fill="white" stroke="black" points="455.83,-119.3 455.83,-141.7 564.17,-141.7 564.17,-119.3 455.83,-119.3"/>
<text text-anchor="middle" x="510" y="-126.9" font-family="-adobe-utopia-medium-i-normal--0-0-0-0-p-0-iso10646-1" font-size="12.00">SNPPositionMap.h</text>
</a>
</g>
</g>
<!-- Node13&#45;&gt;Node17 -->
<g id="edge23" class="edge"><title>Node13&#45;&gt;Node17</title>
<path fill="none" stroke="midnightblue" d="M693.036,-180.854C689.994,-179.943 686.932,-179.041 684,-178.2 642.271,-166.226 594.642,-153.508 559.778,-144.373"/>
<polygon fill="midnightblue" stroke="midnightblue" points="560.404,-140.919 549.844,-141.776 558.634,-147.691 560.404,-140.919"/>
</g>
<!-- Node13&#45;&gt;Node18 -->
<g id="edge30" class="edge"><title>Node13&#45;&gt;Node18</title>
<path fill="none" stroke="midnightblue" d="M693.12,-180.528C690.063,-179.676 686.974,-178.877 684,-178.2 580.114,-154.563 547.033,-178.868 447,-142.2 428.377,-135.374 426.997,-127.137 409,-118.8 370.799,-101.104 324.005,-87.1768 294.589,-79.2888"/>
<polygon fill="midnightblue" stroke="midnightblue" points="295.146,-75.8166 284.585,-76.6601 293.367,-82.5867 295.146,-75.8166"/>
</g>
<!-- Node13&#45;&gt;Node19 -->
<g id="edge26" class="edge"><title>Node13&#45;&gt;Node19</title>
<path fill="none" stroke="midnightblue" d="M744.98,-183.186C792.244,-172.792 892.297,-150.788 945.324,-139.126"/>
<polygon fill="midnightblue" stroke="midnightblue" points="946.258,-142.504 955.273,-136.938 944.755,-135.668 946.258,-142.504"/>
</g>
<!-- Node13&#45;&gt;Node20 -->
<g id="edge31" class="edge"><title>Node13&#45;&gt;Node20</title>
<path fill="none" stroke="midnightblue" d="M693.132,-180.474C690.073,-179.632 686.98,-178.85 684,-178.2 565.716,-152.417 531.505,-171.331 414,-142.2 412.74,-141.888 411.459,-141.539 410.173,-141.163"/>
<polygon fill="midnightblue" stroke="midnightblue" points="411.048,-137.765 400.454,-137.92 408.832,-144.405 411.048,-137.765"/>
</g>
<!-- Node14&#45;&gt;Node4 -->
<g id="edge18" class="edge"><title>Node14&#45;&gt;Node4</title>
<path fill="none" stroke="midnightblue" d="M896.125,-119.238C939.741,-109.534 1005.28,-94.9541 1051.9,-84.5815"/>
<polygon fill="midnightblue" stroke="midnightblue" points="1052.84,-87.958 1061.84,-82.3697 1051.32,-81.125 1052.84,-87.958"/>
</g>
<!-- Node15&#45;&gt;Node4 -->
<g id="edge20" class="edge"><title>Node15&#45;&gt;Node4</title>
<path fill="none" stroke="midnightblue" d="M705.615,-126.13C720.615,-124.001 740.443,-121.207 758,-118.8 858.29,-105.05 974.823,-89.6077 1044.92,-80.3776"/>
<polygon fill="midnightblue" stroke="midnightblue" points="1045.46,-83.8368 1054.91,-79.0618 1044.54,-76.8967 1045.46,-83.8368"/>
</g>
<!-- Node15&#45;&gt;Node5 -->
<g id="edge22" class="edge"><title>Node15&#45;&gt;Node5</title>
<path fill="none" stroke="midnightblue" d="M684.775,-119.281C689.459,-103.978 700.394,-75.223 720,-59.4 756.733,-29.755 811.618,-18.9283 846.607,-14.9744"/>
<polygon fill="midnightblue" stroke="midnightblue" points="847.184,-18.4342 856.785,-13.9547 846.486,-11.4691 847.184,-18.4342"/>
</g>
<!-- Node15&#45;&gt;Node16 -->
<g id="edge21" class="edge"><title>Node15&#45;&gt;Node16</title>
<path fill="none" stroke="midnightblue" d="M658.58,-119.238C637.235,-109.885 605.55,-96.0021 582.09,-85.7227"/>
<polygon fill="midnightblue" stroke="midnightblue" points="583.474,-82.508 572.91,-81.7004 580.665,-88.9195 583.474,-82.508"/>
</g>
<!-- Node17&#45;&gt;Node16 -->
<g id="edge25" class="edge"><title>Node17&#45;&gt;Node16</title>
<path fill="none" stroke="midnightblue" d="M517.33,-119.238C522.916,-111.418 530.763,-100.431 537.477,-91.0319"/>
<polygon fill="midnightblue" stroke="midnightblue" points="540.492,-92.8332 543.456,-82.6615 534.796,-88.7645 540.492,-92.8332"/>
</g>
<!-- Node17&#45;&gt;Node18 -->
<g id="edge24" class="edge"><title>Node17&#45;&gt;Node18</title>
<path fill="none" stroke="midnightblue" d="M466.378,-119.238C416.589,-107.525 336.599,-88.708 294.314,-78.7608"/>
<polygon fill="midnightblue" stroke="midnightblue" points="294.954,-75.3157 284.418,-76.4327 293.351,-82.1297 294.954,-75.3157"/>
</g>
<!-- Node22&#45;&gt;Node4 -->
<g id="edge36" class="edge"><title>Node22&#45;&gt;Node4</title>
<path fill="none" stroke="midnightblue" d="M465.349,-358.127C468.27,-357.513 471.179,-356.929 474,-356.4 726.895,-309.016 812.639,-371.495 1045,-261 1105.56,-232.204 1125.68,-208.114 1138,-142.2 1139.91,-131.977 1140.93,-128.779 1138,-118.8 1135.01,-108.615 1129.04,-98.5479 1123.21,-90.3837"/>
<polygon fill="midnightblue" stroke="midnightblue" points="1125.93,-88.1807 1117.08,-82.3557 1120.36,-92.4281 1125.93,-88.1807"/>
</g>
<!-- Node22&#45;&gt;Node7 -->
<g id="edge50" class="edge"><title>Node22&#45;&gt;Node7</title>
<path fill="none" stroke="midnightblue" d="M398.56,-356.782C378.302,-348.798 351.464,-336.405 331,-320.4 217.299,-231.473 119.985,-83.8585 87.52,-31.6812"/>
<polygon fill="midnightblue" stroke="midnightblue" points="90.4489,-29.7626 82.2233,-23.0849 84.4893,-33.4346 90.4489,-29.7626"/>
</g>
<!-- Node22&#45;&gt;Node10 -->
<g id="edge45" class="edge"><title>Node22&#45;&gt;Node10</title>
<path fill="none" stroke="midnightblue" d="M452.84,-379.467C470.981,-388.259 495.199,-401 512.914,-411.004"/>
<polygon fill="midnightblue" stroke="midnightblue" points="511.595,-414.283 522.008,-416.238 515.087,-408.216 511.595,-414.283"/>
</g>
<!-- Node22&#45;&gt;Node11 -->
<g id="edge37" class="edge"><title>Node22&#45;&gt;Node11</title>
<path fill="none" stroke="midnightblue" d="M465.324,-358.32C506.243,-348.694 572.239,-333.168 618.622,-322.257"/>
<polygon fill="midnightblue" stroke="midnightblue" points="619.565,-325.631 628.498,-319.934 617.962,-318.817 619.565,-325.631"/>
</g>
<!-- Node22&#45;&gt;Node16 -->
<g id="edge46" class="edge"><title>Node22&#45;&gt;Node16</title>
<path fill="none" stroke="midnightblue" d="M425.965,-356.895C423.04,-343.048 417.095,-317.663 409,-297 377.266,-215.996 273.149,-186.328 328,-118.8 351.722,-89.5958 463.335,-78.007 519.111,-73.9803"/>
<polygon fill="midnightblue" stroke="midnightblue" points="519.423,-77.4672 529.161,-73.2933 518.946,-70.4835 519.423,-77.4672"/>
</g>
<!-- Node22&#45;&gt;Node18 -->
<g id="edge48" class="edge"><title>Node22&#45;&gt;Node18</title>
<path fill="none" stroke="midnightblue" d="M400.799,-356.875C383.75,-349.2 362.521,-337.128 349,-320.4 292.107,-250.011 273.504,-138.896 268.045,-92.9986"/>
<polygon fill="midnightblue" stroke="midnightblue" points="271.496,-92.3576 266.926,-82.7993 264.538,-93.1215 271.496,-92.3576"/>
</g>
<!-- Node22&#45;&gt;Node20 -->
<g id="edge47" class="edge"><title>Node22&#45;&gt;Node20</title>
<path fill="none" stroke="midnightblue" d="M402.843,-356.867C387.736,-349.249 369.791,-337.243 361,-320.4 331.903,-264.651 359.299,-187.453 375.298,-151.463"/>
<polygon fill="midnightblue" stroke="midnightblue" points="378.621,-152.616 379.637,-142.07 372.266,-149.68 378.621,-152.616"/>
</g>
<!-- Node23 -->
<g id="node23" class="node"><title>Node23</title>
<g id="a_node23"><a xlink:href="Match_8h.html" target="_top" xlink:title="Match.h">
<polygon fill="white" stroke="black" points="553.172,-297.5 553.172,-319.9 608.828,-319.9 608.828,-297.5 553.172,-297.5"/>
<text text-anchor="middle" x="581" y="-305.1" font-family="-adobe-utopia-medium-i-normal--0-0-0-0-p-0-iso10646-1" font-size="12.00">Match.h</text>
</a>
</g>
</g>
<!-- Node22&#45;&gt;Node23 -->
<g id="edge38" class="edge"><title>Node22&#45;&gt;Node23</title>
<path fill="none" stroke="midnightblue" d="M450.037,-356.838C474.558,-346.959 514.271,-332.025 543.624,-321.622"/>
<polygon fill="midnightblue" stroke="midnightblue" points="544.867,-324.895 553.144,-318.282 542.549,-318.29 544.867,-324.895"/>
</g>
<!-- Node25 -->
<g id="node25" class="node"><title>Node25</title>
<polygon fill="white" stroke="#bfbfbf" points="370.336,-297.5 370.336,-319.9 399.664,-319.9 399.664,-297.5 370.336,-297.5"/>
<text text-anchor="middle" x="385" y="-305.1" font-family="-adobe-utopia-medium-i-normal--0-0-0-0-p-0-iso10646-1" font-size="12.00">set</text>
</g>
<!-- Node22&#45;&gt;Node25 -->
<g id="edge49" class="edge"><title>Node22&#45;&gt;Node25</title>
<path fill="none" stroke="midnightblue" d="M420.312,-356.838C414.394,-348.938 406.054,-337.805 398.965,-328.342"/>
<polygon fill="midnightblue" stroke="midnightblue" points="401.709,-326.166 392.912,-320.261 396.106,-330.363 401.709,-326.166"/>
</g>
<!-- Node23&#45;&gt;Node4 -->
<g id="edge39" class="edge"><title>Node23&#45;&gt;Node4</title>
<path fill="none" stroke="midnightblue" d="M608.828,-299.445C611.915,-298.591 615.019,-297.759 618,-297 689.894,-278.685 710.36,-283.675 781,-261 903.895,-221.551 942.749,-219.651 1046,-142.2 1065.56,-127.53 1083.54,-105.888 1095.05,-90.5372"/>
<polygon fill="midnightblue" stroke="midnightblue" points="1097.97,-92.4682 1101.04,-82.3264 1092.32,-88.3434 1097.97,-92.4682"/>
</g>
<!-- Node23&#45;&gt;Node12 -->
<g id="edge41" class="edge"><title>Node23&#45;&gt;Node12</title>
<path fill="none" stroke="midnightblue" d="M588.33,-297.438C593.916,-289.618 601.763,-278.631 608.477,-269.232"/>
<polygon fill="midnightblue" stroke="midnightblue" points="611.492,-271.033 614.456,-260.861 605.796,-266.964 611.492,-271.033"/>
</g>
<!-- Node23&#45;&gt;Node13 -->
<g id="edge40" class="edge"><title>Node23&#45;&gt;Node13</title>
<path fill="none" stroke="midnightblue" d="M607.613,-297.454C626.178,-289.429 650.789,-276.958 669,-261 685.416,-246.615 699.372,-225.834 708.334,-210.633"/>
<polygon fill="midnightblue" stroke="midnightblue" points="711.584,-211.998 713.477,-201.573 705.496,-208.542 711.584,-211.998"/>
</g>
<!-- Node23&#45;&gt;Node19 -->
<g id="edge43" class="edge"><title>Node23&#45;&gt;Node19</title>
<path fill="none" stroke="midnightblue" d="M608.925,-299.245C674.537,-279.183 836.764,-228.385 887,-201.6 914.598,-186.885 942.8,-164.359 960.799,-148.833"/>
<polygon fill="midnightblue" stroke="midnightblue" points="963.561,-151.066 968.768,-141.839 958.944,-145.805 963.561,-151.066"/>
</g>
<!-- Node23&#45;&gt;Node22 -->
<g id="edge42" class="edge"><title>Node23&#45;&gt;Node22</title>
<path fill="none" stroke="midnightblue" d="M558.703,-320.067C535.549,-329.388 499.045,-343.148 470.428,-353.379"/>
<polygon fill="midnightblue" stroke="midnightblue" points="468.926,-350.198 460.669,-356.838 471.264,-356.796 468.926,-350.198"/>
</g>
<!-- Node24 -->
<g id="node24" class="node"><title>Node24</title>
<polygon fill="white" stroke="#bfbfbf" points="511.334,-238.1 511.334,-260.5 566.666,-260.5 566.666,-238.1 511.334,-238.1"/>
<text text-anchor="middle" x="539" y="-245.7" font-family="-adobe-utopia-medium-i-normal--0-0-0-0-p-0-iso10646-1" font-size="12.00">iomanip</text>
</g>
<!-- Node23&#45;&gt;Node24 -->
<g id="edge44" class="edge"><title>Node23&#45;&gt;Node24</title>
<path fill="none" stroke="midnightblue" d="M573.491,-297.438C567.71,-289.538 559.564,-278.405 552.64,-268.942"/>
<polygon fill="midnightblue" stroke="midnightblue" points="555.458,-266.865 546.728,-260.861 549.808,-270.999 555.458,-266.865"/>
</g>
<!-- Node27&#45;&gt;Node4 -->
<g id="edge61" class="edge"><title>Node27&#45;&gt;Node4</title>
<path fill="none" stroke="midnightblue" d="M568.008,-535.83C571.046,-535.382 574.06,-534.967 577,-534.6 687.099,-520.841 977.697,-551.923 1075,-498.6 1195.68,-432.464 1260,-387.918 1260,-250.3 1260,-250.3 1260,-250.3 1260,-188.9 1260,-134.796 1198.7,-102.306 1153.96,-85.7969"/>
<polygon fill="midnightblue" stroke="midnightblue" points="1155,-82.4537 1144.41,-82.4187 1152.67,-89.053 1155,-82.4537"/>
</g>
<!-- Node27&#45;&gt;Node7 -->
<g id="edge70" class="edge"><title>Node27&#45;&gt;Node7</title>
<path fill="none" stroke="midnightblue" d="M465.981,-542.551C349.896,-534.904 76,-508.395 76,-428.5 76,-428.5 76,-428.5 76,-129.5 76,-95.6931 76,-56.3821 76,-33.0743"/>
<polygon fill="midnightblue" stroke="midnightblue" points="79.5001,-33.012 76,-23.012 72.5001,-33.012 79.5001,-33.012"/>
</g>
<!-- Node27&#45;&gt;Node9 -->
<g id="edge68" class="edge"><title>Node27&#45;&gt;Node9</title>
<path fill="none" stroke="midnightblue" d="M568.03,-535.988C571.062,-535.501 574.069,-535.034 577,-534.6 676.164,-519.924 789.848,-506.909 869.897,-498.371"/>
<polygon fill="midnightblue" stroke="midnightblue" points="870.405,-501.837 879.98,-497.301 869.666,-494.876 870.405,-501.837"/>
</g>
<!-- Node27&#45;&gt;Node10 -->
<g id="edge62" class="edge"><title>Node27&#45;&gt;Node10</title>
<path fill="none" stroke="midnightblue" d="M518.686,-534.935C521.819,-515.676 528.59,-474.055 532.674,-448.946"/>
<polygon fill="midnightblue" stroke="midnightblue" points="536.139,-449.442 534.29,-439.01 529.23,-448.318 536.139,-449.442"/>
</g>
<!-- Node28 -->
<g id="node28" class="node"><title>Node28</title>
<g id="a_node28"><a xlink:href="MatchFactory_8h.html" target="_top" xlink:title="MatchFactory.h">
<polygon fill="white" stroke="black" points="181.845,-416.3 181.845,-438.7 274.155,-438.7 274.155,-416.3 181.845,-416.3"/>
<text text-anchor="middle" x="228" y="-423.9" font-family="-adobe-utopia-medium-i-normal--0-0-0-0-p-0-iso10646-1" font-size="12.00">MatchFactory.h</text>
</a>
</g>
</g>
<!-- Node27&#45;&gt;Node28 -->
<g id="edge63" class="edge"><title>Node27&#45;&gt;Node28</title>
<path fill="none" stroke="midnightblue" d="M514.49,-535.086C510.101,-519.521 499.485,-490.104 479,-475.2 448.636,-453.108 348.513,-439.802 284.274,-433.33"/>
<polygon fill="midnightblue" stroke="midnightblue" points="284.582,-429.843 274.288,-432.349 283.898,-436.81 284.582,-429.843"/>
</g>
<!-- Node29 -->
<g id="node29" class="node"><title>Node29</title>
<polygon fill="white" stroke="#bfbfbf" points="417.674,-475.7 417.674,-498.1 470.326,-498.1 470.326,-475.7 417.674,-475.7"/>
<text text-anchor="middle" x="444" y="-483.3" font-family="-adobe-utopia-medium-i-normal--0-0-0-0-p-0-iso10646-1" font-size="12.00">sstream</text>
</g>
<!-- Node27&#45;&gt;Node29 -->
<g id="edge69" class="edge"><title>Node27&#45;&gt;Node29</title>
<path fill="none" stroke="midnightblue" d="M503.949,-535.038C493.286,-526.654 477.994,-514.629 465.523,-504.824"/>
<polygon fill="midnightblue" stroke="midnightblue" points="467.456,-501.891 457.432,-498.461 463.129,-507.394 467.456,-501.891"/>
</g>
<!-- Node28&#45;&gt;Node5 -->
<g id="edge67" class="edge"><title>Node28&#45;&gt;Node5</title>
<path fill="none" stroke="midnightblue" d="M205.749,-416.213C172.573,-399.162 114,-361.696 114,-309.7 114,-309.7 114,-309.7 114,-129.5 114,-65.8047 177.999,-77.7305 239,-59.4 354.425,-24.7153 731.511,-15.3135 846.445,-13.2232"/>
<polygon fill="midnightblue" stroke="midnightblue" points="846.794,-16.7177 856.732,-13.0431 846.672,-9.71878 846.794,-16.7177"/>
</g>
<!-- Node28&#45;&gt;Node12 -->
<g id="edge64" class="edge"><title>Node28&#45;&gt;Node12</title>
<path fill="none" stroke="midnightblue" d="M235.237,-415.949C253.206,-390.673 302.641,-326.57 361,-297 444.555,-254.663 478.705,-278.284 574.088,-261.213"/>
<polygon fill="midnightblue" stroke="midnightblue" points="574.964,-264.609 584.136,-259.306 573.659,-257.732 574.964,-264.609"/>
</g>
<!-- Node28&#45;&gt;Node18 -->
<g id="edge66" class="edge"><title>Node28&#45;&gt;Node18</title>
<path fill="none" stroke="midnightblue" d="M215.108,-416.082C193.424,-397.297 152,-355.424 152,-309.7 152,-309.7 152,-309.7 152,-188.9 152,-139.56 204.743,-103.302 238.479,-85.158"/>
<polygon fill="midnightblue" stroke="midnightblue" points="240.158,-88.2299 247.43,-80.5248 236.94,-82.0132 240.158,-88.2299"/>
</g>
<!-- Node28&#45;&gt;Node22 -->
<g id="edge65" class="edge"><title>Node28&#45;&gt;Node22</title>
<path fill="none" stroke="midnightblue" d="M263.756,-416.238C296.929,-406.717 346.458,-392.503 382.449,-382.173"/>
<polygon fill="midnightblue" stroke="midnightblue" points="383.571,-385.493 392.217,-379.37 381.639,-378.764 383.571,-385.493"/>
</g>
</g>
</svg>
