<?xml version="1.0" encoding="UTF-8" standalone="no"?>
<!DOCTYPE svg PUBLIC "-//W3C//DTD SVG 1.1//EN"
 "http://www.w3.org/Graphics/SVG/1.1/DTD/svg11.dtd">
<!-- Generated by graphviz version 2.38.0 (20140413.2041)
 -->
<!-- Title: Graph Legend Pages: 1 -->
<svg width="534pt" height="176pt"
 viewBox="0.00 0.00 534.32 176.00" xmlns="http://www.w3.org/2000/svg" xmlns:xlink="http://www.w3.org/1999/xlink">
<g id="graph0" class="graph" transform="scale(1 1) rotate(0) translate(4 172)">
<title>Graph Legend</title>
<polygon fill="white" stroke="none" points="-4,4 -4,-172 530.323,-172 530.323,4 -4,4"/>
<!-- Node9 -->
<g id="node1" class="node"><title>Node9</title>
<polygon fill="#bfbfbf" stroke="black" points="305.809,-22.6036 246.182,-22.6036 246.182,0.203636 305.809,0.203636 305.809,-22.6036"/>
<text text-anchor="middle" x="275.995" y="-7.6" font-family="-adobe-utopia-medium-i-normal--0-0-0-0-p-0-iso10646-1" font-size="12.00">Inherited</text>
</g>
<!-- Node10 -->
<g id="node2" class="node"><title>Node10</title>
<g id="a_node2"><a xlink:href="$classPublicBase.html" xlink:title="PublicBase">
<polygon fill="none" stroke="black" points="69.9856,-95.4036 0.00479934,-95.4036 0.00479934,-72.5964 69.9856,-72.5964 69.9856,-95.4036"/>
<text text-anchor="middle" x="34.9952" y="-80.4" font-family="-adobe-utopia-medium-i-normal--0-0-0-0-p-0-iso10646-1" font-size="12.00">PublicBase</text>
</a>
</g>
</g>
<!-- Node10&#45;&gt;Node9 -->
<g id="edge1" class="edge"><title>Node10&#45;&gt;Node9</title>
<path fill="none" stroke="midnightblue" d="M79.3936,-69.9568C127.921,-55.7008 204.322,-33.2559 246.159,-20.9653"/>
<polygon fill="midnightblue" stroke="midnightblue" points="78.3893,-66.6039 69.7813,-72.7807 80.3624,-73.3201 78.3893,-66.6039"/>
</g>
<!-- Node11 -->
<g id="node3" class="node"><title>Node11</title>
<g id="a_node3"><a xlink:href="$classTruncated.html" xlink:title="Truncated">
<polygon fill="none" stroke="red" points="67.137,-168.204 2.85341,-168.204 2.85341,-145.396 67.137,-145.396 67.137,-168.204"/>
<text text-anchor="middle" x="34.9952" y="-153.2" font-family="-adobe-utopia-medium-i-normal--0-0-0-0-p-0-iso10646-1" font-size="12.00">Truncated</text>
</a>
</g>
</g>
<!-- Node11&#45;&gt;Node10 -->
<g id="edge2" class="edge"><title>Node11&#45;&gt;Node10</title>
<path fill="none" stroke="midnightblue" d="M34.9952,-134.989C34.9952,-122.009 34.9952,-105.859 34.9952,-95.4896"/>
<polygon fill="midnightblue" stroke="midnightblue" points="31.4953,-135.353 34.9952,-145.353 38.4953,-135.353 31.4953,-135.353"/>
</g>
<!-- Node13 -->
<g id="node4" class="node"><title>Node13</title>
<g id="a_node4"><a xlink:href="$classProtectedBase.html" xlink:title="ProtectedBase">
<polygon fill="none" stroke="black" points="172.135,-95.4036 87.8556,-95.4036 87.8556,-72.5964 172.135,-72.5964 172.135,-95.4036"/>
<text text-anchor="middle" x="129.995" y="-80.4" font-family="-adobe-utopia-medium-i-normal--0-0-0-0-p-0-iso10646-1" font-size="12.00">ProtectedBase</text>
</a>
</g>
</g>
<!-- Node13&#45;&gt;Node9 -->
<g id="edge3" class="edge"><title>Node13&#45;&gt;Node9</title>
<path fill="none" stroke="darkgreen" d="M160.249,-68.3289C188.473,-54.6422 229.859,-34.5727 254.74,-22.5074"/>
<polygon fill="darkgreen" stroke="darkgreen" points="158.696,-65.1924 151.225,-72.7051 161.75,-71.4909 158.696,-65.1924"/>
</g>
<!-- Node14 -->
<g id="node5" class="node"><title>Node14</title>
<g id="a_node5"><a xlink:href="$classPrivateBase.html" xlink:title="PrivateBase">
<polygon fill="none" stroke="black" points="263.808,-95.4036 190.183,-95.4036 190.183,-72.5964 263.808,-72.5964 263.808,-95.4036"/>
<text text-anchor="middle" x="226.995" y="-80.4" font-family="-adobe-utopia-medium-i-normal--0-0-0-0-p-0-iso10646-1" font-size="12.00">PrivateBase</text>
</a>
</g>
</g>
<!-- Node14&#45;&gt;Node9 -->
<g id="edge4" class="edge"><title>Node14&#45;&gt;Node9</title>
<path fill="none" stroke="#8b1a1a" d="M240.055,-64.1297C249.242,-50.8554 261.197,-33.5825 268.735,-22.6896"/>
<polygon fill="#8b1a1a" stroke="#8b1a1a" points="237.038,-62.3386 234.225,-72.5532 242.794,-66.3223 237.038,-62.3386"/>
</g>
<!-- Node15 -->
<g id="node6" class="node"><title>Node15</title>
<polygon fill="none" stroke="#bfbfbf" points="370.809,-95.4036 281.182,-95.4036 281.182,-72.5964 370.809,-72.5964 370.809,-95.4036"/>
<text text-anchor="middle" x="325.995" y="-80.4" font-family="-adobe-utopia-medium-i-normal--0-0-0-0-p-0-iso10646-1" font-size="12.00">Undocumented</text>
</g>
<!-- Node15&#45;&gt;Node9 -->
<g id="edge5" class="edge"><title>Node15&#45;&gt;Node9</title>
<path fill="none" stroke="midnightblue" d="M312.669,-64.1297C303.294,-50.8554 291.096,-33.5825 283.403,-22.6896"/>
<polygon fill="midnightblue" stroke="midnightblue" points="309.99,-66.4038 318.618,-72.5532 315.708,-62.3658 309.99,-66.4038"/>
</g>
<!-- Node16 -->
<g id="node7" class="node"><title>Node16</title>
<g id="a_node7"><a xlink:href="$classTempl.html" xlink:title="Templ&lt; int &gt;">
<polygon fill="none" stroke="black" points="467.527,-95.4036 388.463,-95.4036 388.463,-72.5964 467.527,-72.5964 467.527,-95.4036"/>
<text text-anchor="middle" x="427.995" y="-80.4" font-family="-adobe-utopia-medium-i-normal--0-0-0-0-p-0-iso10646-1" font-size="12.00">Templ&lt; int &gt;</text>
</a>
</g>
</g>
<!-- Node16&#45;&gt;Node9 -->
<g id="edge6" class="edge"><title>Node16&#45;&gt;Node9</title>
<path fill="none" stroke="midnightblue" d="M396.498,-68.3289C367.114,-54.6422 324.027,-34.5727 298.124,-22.5074"/>
<polygon fill="midnightblue" stroke="midnightblue" points="395.35,-71.6554 405.893,-72.7051 398.306,-65.31 395.35,-71.6554"/>
</g>
<!-- Node17 -->
<g id="node8" class="node"><title>Node17</title>
<g id="a_node8"><a xlink:href="$classTempl.html" xlink:title="Templ&lt; T &gt;">
<polygon fill="none" stroke="black" points="465.187,-168.204 390.803,-168.204 390.803,-145.396 465.187,-145.396 465.187,-168.204"/>
<text text-anchor="middle" x="427.995" y="-153.2" font-family="-adobe-utopia-medium-i-normal--0-0-0-0-p-0-iso10646-1" font-size="12.00">Templ&lt; T &gt;</text>
</a>
</g>
</g>
<!-- Node17&#45;&gt;Node16 -->
<g id="edge7" class="edge"><title>Node17&#45;&gt;Node16</title>
<path fill="none" stroke="orange" stroke-dasharray="5,2" d="M427.995,-134.989C427.995,-122.009 427.995,-105.859 427.995,-95.4896"/>
<polygon fill="orange" stroke="orange" points="424.495,-135.353 427.995,-145.353 431.495,-135.353 424.495,-135.353"/>
<text text-anchor="middle" x="444.097" y="-116.8" font-family="-adobe-utopia-medium-i-normal--0-0-0-0-p-0-iso10646-1" font-size="12.00">&lt; int &gt;</text>
</g>
<!-- Node18 -->
<g id="node9" class="node"><title>Node18</title>
<g id="a_node9"><a xlink:href="$classUsed.html" xlink:title="Used">
<polygon fill="none" stroke="black" points="526.153,-95.4036 485.837,-95.4036 485.837,-72.5964 526.153,-72.5964 526.153,-95.4036"/>
<text text-anchor="middle" x="505.995" y="-80.4" font-family="-adobe-utopia-medium-i-normal--0-0-0-0-p-0-iso10646-1" font-size="12.00">Used</text>
</a>
</g>
</g>
<!-- Node18&#45;&gt;Node9 -->
<g id="edge8" class="edge"><title>Node18&#45;&gt;Node9</title>
<path fill="none" stroke="#9a32cd" stroke-dasharray="5,2" d="M476.009,-72.5709C409.908,-51.1178 343.263,-31.5444 305.756,-20.7144"/>
<polygon fill="#9a32cd" stroke="#9a32cd" points="475.161,-75.9759 485.754,-75.7489 477.332,-69.3208 475.161,-75.9759"/>
<text text-anchor="middle" x="448.658" y="-44" font-family="-adobe-utopia-medium-i-normal--0-0-0-0-p-0-iso10646-1" font-size="12.00">m_usedClass</text>
</g>
</g>
</svg>
