<?xml version="1.0" encoding="UTF-8" standalone="no"?>
<!DOCTYPE svg PUBLIC "-//W3C//DTD SVG 1.1//EN"
 "http://www.w3.org/Graphics/SVG/1.1/DTD/svg11.dtd">
<!-- Generated by graphviz version 2.38.0 (20140413.2041)
 -->
<!-- Title: HMIndividualsExtractor.h Pages: 1 -->
<svg width="284pt" height="91pt"
 viewBox="0.00 0.00 284.30 90.80" xmlns="http://www.w3.org/2000/svg" xmlns:xlink="http://www.w3.org/1999/xlink">
<g id="graph0" class="graph" transform="scale(1 1) rotate(0) translate(4 86.8)">
<title>HMIndividualsExtractor.h</title>
<polygon fill="white" stroke="none" points="-4,4 -4,-86.8 280.296,-86.8 280.296,4 -4,4"/>
<!-- Node1 -->
<g id="node1" class="node"><title>Node1</title>
<polygon fill="#bfbfbf" stroke="black" points="78.6634,-59.9 78.6634,-82.3 221.629,-82.3 221.629,-59.9 78.6634,-59.9"/>
<text text-anchor="middle" x="150.146" y="-67.5" font-family="-adobe-utopia-medium-i-normal--0-0-0-0-p-0-iso10646-1" font-size="12.00">HMIndividualsExtractor.h</text>
</g>
<!-- Node2 -->
<g id="node2" class="node"><title>Node2</title>
<g id="a_node2"><a xlink:href="HMIndividualsExtractor_8cpp.html" target="_top" xlink:title="HMIndividualsExtractor.cpp">
<polygon fill="white" stroke="black" points="-1.42109e-14,-0.5 -1.42109e-14,-22.9 154.293,-22.9 154.293,-0.5 -1.42109e-14,-0.5"/>
<text text-anchor="middle" x="77.1464" y="-8.1" font-family="-adobe-utopia-medium-i-normal--0-0-0-0-p-0-iso10646-1" font-size="12.00">HMIndividualsExtractor.cpp</text>
</a>
</g>
</g>
<!-- Node1&#45;&gt;Node2 -->
<g id="edge1" class="edge"><title>Node1&#45;&gt;Node2</title>
<path fill="none" stroke="midnightblue" d="M129.065,-53.524C116.663,-43.7717 101.35,-31.731 90.5782,-23.2615"/>
<polygon fill="midnightblue" stroke="midnightblue" points="127.071,-56.4083 137.095,-59.838 131.398,-50.9056 127.071,-56.4083"/>
</g>
<!-- Node3 -->
<g id="node3" class="node"><title>Node3</title>
<g id="a_node3"><a xlink:href="InputManager_8cpp.html" target="_top" xlink:title="InputManager.cpp">
<polygon fill="white" stroke="black" points="171.997,-0.5 171.997,-22.9 276.296,-22.9 276.296,-0.5 171.997,-0.5"/>
<text text-anchor="middle" x="224.146" y="-8.1" font-family="-adobe-utopia-medium-i-normal--0-0-0-0-p-0-iso10646-1" font-size="12.00">InputManager.cpp</text>
</a>
</g>
</g>
<!-- Node1&#45;&gt;Node3 -->
<g id="edge2" class="edge"><title>Node1&#45;&gt;Node3</title>
<path fill="none" stroke="midnightblue" d="M171.516,-53.524C184.089,-43.7717 199.612,-31.731 210.531,-23.2615"/>
<polygon fill="midnightblue" stroke="midnightblue" points="169.133,-50.9434 163.376,-59.838 173.423,-56.4745 169.133,-50.9434"/>
</g>
</g>
</svg>
