<?xml version="1.0" encoding="UTF-8" standalone="no"?>
<!DOCTYPE svg PUBLIC "-//W3C//DTD SVG 1.1//EN"
 "http://www.w3.org/Graphics/SVG/1.1/DTD/svg11.dtd">
<!-- Generated by graphviz version 2.38.0 (20140413.2041)
 -->
<!-- Title: Individuals.h Pages: 1 -->
<svg width="1131pt" height="328pt"
 viewBox="0.00 0.00 1130.98 328.40" xmlns="http://www.w3.org/2000/svg" xmlns:xlink="http://www.w3.org/1999/xlink">
<g id="graph0" class="graph" transform="scale(1 1) rotate(0) translate(4 324.4)">
<title>Individuals.h</title>
<polygon fill="white" stroke="none" points="-4,4 -4,-324.4 1126.98,-324.4 1126.98,4 -4,4"/>
<!-- Node1 -->
<g id="node1" class="node"><title>Node1</title>
<polygon fill="#bfbfbf" stroke="black" points="697.989,-297.5 697.989,-319.9 776.982,-319.9 776.982,-297.5 697.989,-297.5"/>
<text text-anchor="middle" x="737.486" y="-305.1" font-family="-adobe-utopia-medium-i-normal--0-0-0-0-p-0-iso10646-1" font-size="12.00">Individuals.h</text>
</g>
<!-- Node2 -->
<g id="node2" class="node"><title>Node2</title>
<g id="a_node2"><a xlink:href="PolymorphicIndividualsExtractor_8h.html" target="_top" xlink:title="PolymorphicIndividualsExtractor.h">
<polygon fill="white" stroke="black" points="350.669,-238.1 350.669,-260.5 536.302,-260.5 536.302,-238.1 350.669,-238.1"/>
<text text-anchor="middle" x="443.486" y="-245.7" font-family="-adobe-utopia-medium-i-normal--0-0-0-0-p-0-iso10646-1" font-size="12.00">PolymorphicIndividualsExtractor.h</text>
</a>
</g>
</g>
<!-- Node1&#45;&gt;Node2 -->
<g id="edge1" class="edge"><title>Node1&#45;&gt;Node2</title>
<path fill="none" stroke="midnightblue" d="M687.935,-298.026C634.639,-287.62 550.245,-271.143 495.875,-260.528"/>
<polygon fill="midnightblue" stroke="midnightblue" points="687.35,-301.478 697.836,-299.959 688.692,-294.607 687.35,-301.478"/>
</g>
<!-- Node3 -->
<g id="node3" class="node"><title>Node3</title>
<g id="a_node3"><a xlink:href="InputManager_8h.html" target="_top" xlink:title="InputManager.h">
<polygon fill="white" stroke="black" points="3.55271e-14,-178.7 3.55271e-14,-201.1 92.9716,-201.1 92.9716,-178.7 3.55271e-14,-178.7"/>
<text text-anchor="middle" x="46.4858" y="-186.3" font-family="-adobe-utopia-medium-i-normal--0-0-0-0-p-0-iso10646-1" font-size="12.00">InputManager.h</text>
</a>
</g>
</g>
<!-- Node1&#45;&gt;Node3 -->
<g id="edge27" class="edge"><title>Node1&#45;&gt;Node3</title>
<path fill="none" stroke="midnightblue" d="M687.783,-303.702C612.49,-297.226 465.181,-282.914 341.486,-261 247.666,-244.379 139.045,-216.218 83.4521,-201.145"/>
<polygon fill="midnightblue" stroke="midnightblue" points="687.659,-307.204 697.92,-304.564 688.252,-300.229 687.659,-307.204"/>
</g>
<!-- Node4 -->
<g id="node4" class="node"><title>Node4</title>
<g id="a_node4"><a xlink:href="GERMLINE_8h.html" target="_top" xlink:title="GERMLINE.h">
<polygon fill="white" stroke="black" points="635.995,-59.9 635.995,-82.3 722.977,-82.3 722.977,-59.9 635.995,-59.9"/>
<text text-anchor="middle" x="679.486" y="-67.5" font-family="-adobe-utopia-medium-i-normal--0-0-0-0-p-0-iso10646-1" font-size="12.00">GERMLINE.h</text>
</a>
</g>
</g>
<!-- Node1&#45;&gt;Node4 -->
<g id="edge28" class="edge"><title>Node1&#45;&gt;Node4</title>
<path fill="none" stroke="midnightblue" d="M732.477,-287.354C720.566,-238.971 690.885,-118.406 682.023,-82.407"/>
<polygon fill="midnightblue" stroke="midnightblue" points="729.13,-288.399 734.919,-297.273 735.927,-286.726 729.13,-288.399"/>
</g>
<!-- Node8 -->
<g id="node8" class="node"><title>Node8</title>
<g id="a_node8"><a xlink:href="MatchesBuilder_8h.html" target="_top" xlink:title="MatchesBuilder.h">
<polygon fill="white" stroke="black" points="727.664,-119.3 727.664,-141.7 829.307,-141.7 829.307,-119.3 727.664,-119.3"/>
<text text-anchor="middle" x="778.486" y="-126.9" font-family="-adobe-utopia-medium-i-normal--0-0-0-0-p-0-iso10646-1" font-size="12.00">MatchesBuilder.h</text>
</a>
</g>
</g>
<!-- Node1&#45;&gt;Node8 -->
<g id="edge29" class="edge"><title>Node1&#45;&gt;Node8</title>
<path fill="none" stroke="midnightblue" d="M738.619,-287.323C740.476,-261.467 745.167,-215.722 756.486,-178.2 760.42,-165.158 767.438,-151.14 772.491,-141.902"/>
<polygon fill="midnightblue" stroke="midnightblue" points="735.12,-287.199 737.969,-297.403 742.105,-287.649 735.12,-287.199"/>
</g>
<!-- Node15 -->
<g id="node15" class="node"><title>Node15</title>
<g id="a_node15"><a xlink:href="Individual_8h.html" target="_top" xlink:title="Individual.h">
<polygon fill="white" stroke="black" points="822.323,-238.1 822.323,-260.5 896.649,-260.5 896.649,-238.1 822.323,-238.1"/>
<text text-anchor="middle" x="859.486" y="-245.7" font-family="-adobe-utopia-medium-i-normal--0-0-0-0-p-0-iso10646-1" font-size="12.00">Individual.h</text>
</a>
</g>
</g>
<!-- Node1&#45;&gt;Node15 -->
<g id="edge17" class="edge"><title>Node1&#45;&gt;Node15</title>
<path fill="none" stroke="midnightblue" d="M762.963,-292.895C783.238,-282.792 811.362,-269.663 832.117,-260.667"/>
<polygon fill="midnightblue" stroke="midnightblue" points="761.324,-289.801 753.981,-297.438 764.484,-296.047 761.324,-289.801"/>
</g>
<!-- Node22 -->
<g id="node22" class="node"><title>Node22</title>
<g id="a_node22"><a xlink:href="Individuals_8cpp.html" target="_top" xlink:title="Individuals.cpp">
<polygon fill="white" stroke="black" points="914.326,-238.1 914.326,-260.5 1004.65,-260.5 1004.65,-238.1 914.326,-238.1"/>
<text text-anchor="middle" x="959.486" y="-245.7" font-family="-adobe-utopia-medium-i-normal--0-0-0-0-p-0-iso10646-1" font-size="12.00">Individuals.cpp</text>
</a>
</g>
</g>
<!-- Node1&#45;&gt;Node22 -->
<g id="edge30" class="edge"><title>Node1&#45;&gt;Node22</title>
<path fill="none" stroke="midnightblue" d="M786.994,-294.899C827.016,-284.551 882.62,-270.174 919.767,-260.57"/>
<polygon fill="midnightblue" stroke="midnightblue" points="785.98,-291.546 777.175,-297.438 787.733,-298.323 785.98,-291.546"/>
</g>
<!-- Node2&#45;&gt;Node3 -->
<g id="edge2" class="edge"><title>Node2&#45;&gt;Node3</title>
<path fill="none" stroke="midnightblue" d="M349.644,-236.8C281.036,-228.064 185.807,-215.256 102.486,-201.6 99.4578,-201.104 96.342,-200.571 93.204,-200.017"/>
<polygon fill="midnightblue" stroke="midnightblue" points="349.208,-240.273 359.569,-238.059 350.089,-233.329 349.208,-240.273"/>
</g>
<!-- Node2&#45;&gt;Node8 -->
<g id="edge7" class="edge"><title>Node2&#45;&gt;Node8</title>
<path fill="none" stroke="midnightblue" d="M514.359,-236.069C552.921,-228.325 601.07,-216.869 642.486,-201.6 687.597,-184.969 736.904,-156.813 761.922,-141.742"/>
<polygon fill="midnightblue" stroke="midnightblue" points="513.398,-232.691 504.262,-238.056 514.75,-239.559 513.398,-232.691"/>
</g>
<!-- Node10 -->
<g id="node10" class="node"><title>Node10</title>
<g id="a_node10"><a xlink:href="HMIndividualsExtractor_8h.html" target="_top" xlink:title="HMIndividualsExtractor.h">
<polygon fill="white" stroke="black" points="111.003,-178.7 111.003,-201.1 253.969,-201.1 253.969,-178.7 111.003,-178.7"/>
<text text-anchor="middle" x="182.486" y="-186.3" font-family="-adobe-utopia-medium-i-normal--0-0-0-0-p-0-iso10646-1" font-size="12.00">HMIndividualsExtractor.h</text>
</a>
</g>
</g>
<!-- Node2&#45;&gt;Node10 -->
<g id="edge10" class="edge"><title>Node2&#45;&gt;Node10</title>
<path fill="none" stroke="midnightblue" d="M386.77,-235.827C339.615,-225.456 273.317,-210.876 229.183,-201.17"/>
<polygon fill="midnightblue" stroke="midnightblue" points="386.306,-239.308 396.824,-238.038 387.809,-232.472 386.306,-239.308"/>
</g>
<!-- Node12 -->
<g id="node12" class="node"><title>Node12</title>
<g id="a_node12"><a xlink:href="PEDIndividualsExtractor_8h.html" target="_top" xlink:title="PEDIndividualsExtractor.h">
<polygon fill="white" stroke="black" points="272.335,-178.7 272.335,-201.1 418.636,-201.1 418.636,-178.7 272.335,-178.7"/>
<text text-anchor="middle" x="345.486" y="-186.3" font-family="-adobe-utopia-medium-i-normal--0-0-0-0-p-0-iso10646-1" font-size="12.00">PEDIndividualsExtractor.h</text>
</a>
</g>
</g>
<!-- Node2&#45;&gt;Node12 -->
<g id="edge13" class="edge"><title>Node2&#45;&gt;Node12</title>
<path fill="none" stroke="midnightblue" d="M417.03,-232.804C399.95,-222.8 378.197,-210.059 363.185,-201.267"/>
<polygon fill="midnightblue" stroke="midnightblue" points="415.568,-236.004 425.965,-238.038 419.105,-229.964 415.568,-236.004"/>
</g>
<!-- Node14 -->
<g id="node14" class="node"><title>Node14</title>
<g id="a_node14"><a xlink:href="PolymorphicIndividualsExtractor_8cpp.html" target="_top" xlink:title="PolymorphicIndividualsExtractor.cpp">
<polygon fill="white" stroke="black" points="437.006,-178.7 437.006,-201.1 633.966,-201.1 633.966,-178.7 437.006,-178.7"/>
<text text-anchor="middle" x="535.486" y="-186.3" font-family="-adobe-utopia-medium-i-normal--0-0-0-0-p-0-iso10646-1" font-size="12.00">PolymorphicIndividualsExtractor.cpp</text>
</a>
</g>
</g>
<!-- Node2&#45;&gt;Node14 -->
<g id="edge16" class="edge"><title>Node2&#45;&gt;Node14</title>
<path fill="none" stroke="midnightblue" d="M468.769,-232.526C484.734,-222.565 504.908,-209.978 518.87,-201.267"/>
<polygon fill="midnightblue" stroke="midnightblue" points="466.565,-229.775 459.934,-238.038 470.27,-235.714 466.565,-229.775"/>
</g>
<!-- Node3&#45;&gt;Node4 -->
<g id="edge3" class="edge"><title>Node3&#45;&gt;Node4</title>
<path fill="none" stroke="midnightblue" d="M46.0866,-168.572C46.9638,-152.465 51.0383,-130.749 65.4858,-118.8 109.199,-82.6471 502.496,-74.341 635.647,-72.5579"/>
<polygon fill="midnightblue" stroke="midnightblue" points="42.5861,-168.575 45.9019,-178.638 49.5849,-168.704 42.5861,-168.575"/>
</g>
<!-- Node7 -->
<g id="node7" class="node"><title>Node7</title>
<g id="a_node7"><a xlink:href="InputManager_8cpp.html" target="_top" xlink:title="InputManager.cpp">
<polygon fill="white" stroke="black" points="74.3366,-119.3 74.3366,-141.7 178.635,-141.7 178.635,-119.3 74.3366,-119.3"/>
<text text-anchor="middle" x="126.486" y="-126.9" font-family="-adobe-utopia-medium-i-normal--0-0-0-0-p-0-iso10646-1" font-size="12.00">InputManager.cpp</text>
</a>
</g>
</g>
<!-- Node3&#45;&gt;Node7 -->
<g id="edge6" class="edge"><title>Node3&#45;&gt;Node7</title>
<path fill="none" stroke="midnightblue" d="M69.2531,-172.564C83.0078,-162.695 100.124,-150.415 112.037,-141.867"/>
<polygon fill="midnightblue" stroke="midnightblue" points="66.8728,-169.965 60.7882,-178.638 70.9536,-175.652 66.8728,-169.965"/>
</g>
<!-- Node5 -->
<g id="node5" class="node"><title>Node5</title>
<g id="a_node5"><a xlink:href="GERMLINE__0001_8cpp.html" target="_top" xlink:title="GERMLINE_0001.cpp">
<polygon fill="white" stroke="black" points="550.331,-0.5 550.331,-22.9 678.64,-22.9 678.64,-0.5 550.331,-0.5"/>
<text text-anchor="middle" x="614.486" y="-8.1" font-family="-adobe-utopia-medium-i-normal--0-0-0-0-p-0-iso10646-1" font-size="12.00">GERMLINE_0001.cpp</text>
</a>
</g>
</g>
<!-- Node4&#45;&gt;Node5 -->
<g id="edge4" class="edge"><title>Node4&#45;&gt;Node5</title>
<path fill="none" stroke="midnightblue" d="M660.075,-52.9589C649.149,-43.3099 635.852,-31.5682 626.446,-23.2615"/>
<polygon fill="midnightblue" stroke="midnightblue" points="658.053,-55.8422 667.865,-59.838 662.686,-50.5952 658.053,-55.8422"/>
</g>
<!-- Node6 -->
<g id="node6" class="node"><title>Node6</title>
<g id="a_node6"><a xlink:href="GERMLINE_8cpp.html" target="_top" xlink:title="GERMLINE.cpp">
<polygon fill="white" stroke="black" points="696.331,-0.5 696.331,-22.9 794.64,-22.9 794.64,-0.5 696.331,-0.5"/>
<text text-anchor="middle" x="745.486" y="-8.1" font-family="-adobe-utopia-medium-i-normal--0-0-0-0-p-0-iso10646-1" font-size="12.00">GERMLINE.cpp</text>
</a>
</g>
</g>
<!-- Node4&#45;&gt;Node6 -->
<g id="edge5" class="edge"><title>Node4&#45;&gt;Node6</title>
<path fill="none" stroke="midnightblue" d="M698.869,-53.2421C710.025,-43.5405 723.697,-31.6496 733.342,-23.2615"/>
<polygon fill="midnightblue" stroke="midnightblue" points="696.534,-50.6347 691.285,-59.838 701.128,-55.9166 696.534,-50.6347"/>
</g>
<!-- Node8&#45;&gt;Node4 -->
<g id="edge8" class="edge"><title>Node8&#45;&gt;Node4</title>
<path fill="none" stroke="midnightblue" d="M751.76,-114.004C734.505,-104 712.53,-91.2592 697.366,-82.4667"/>
<polygon fill="midnightblue" stroke="midnightblue" points="750.38,-117.25 760.787,-119.238 753.891,-111.194 750.38,-117.25"/>
</g>
<!-- Node9 -->
<g id="node9" class="node"><title>Node9</title>
<g id="a_node9"><a xlink:href="MatchesBuilder_8cpp.html" target="_top" xlink:title="MatchesBuilder.cpp">
<polygon fill="white" stroke="black" points="741.001,-59.9 741.001,-82.3 853.971,-82.3 853.971,-59.9 741.001,-59.9"/>
<text text-anchor="middle" x="797.486" y="-67.5" font-family="-adobe-utopia-medium-i-normal--0-0-0-0-p-0-iso10646-1" font-size="12.00">MatchesBuilder.cpp</text>
</a>
</g>
</g>
<!-- Node8&#45;&gt;Node9 -->
<g id="edge9" class="edge"><title>Node8&#45;&gt;Node9</title>
<path fill="none" stroke="midnightblue" d="M785.117,-109.466C788.105,-100.441 791.51,-90.1538 793.99,-82.6615"/>
<polygon fill="midnightblue" stroke="midnightblue" points="781.702,-108.645 781.883,-119.238 788.348,-110.844 781.702,-108.645"/>
</g>
<!-- Node10&#45;&gt;Node7 -->
<g id="edge12" class="edge"><title>Node10&#45;&gt;Node7</title>
<path fill="none" stroke="midnightblue" d="M165.485,-171.475C156.125,-161.88 144.814,-150.287 136.79,-142.061"/>
<polygon fill="midnightblue" stroke="midnightblue" points="162.986,-173.924 172.474,-178.638 167.996,-169.036 162.986,-173.924"/>
</g>
<!-- Node11 -->
<g id="node11" class="node"><title>Node11</title>
<g id="a_node11"><a xlink:href="HMIndividualsExtractor_8cpp.html" target="_top" xlink:title="HMIndividualsExtractor.cpp">
<polygon fill="white" stroke="black" points="196.339,-119.3 196.339,-141.7 350.632,-141.7 350.632,-119.3 196.339,-119.3"/>
<text text-anchor="middle" x="273.486" y="-126.9" font-family="-adobe-utopia-medium-i-normal--0-0-0-0-p-0-iso10646-1" font-size="12.00">HMIndividualsExtractor.cpp</text>
</a>
</g>
</g>
<!-- Node10&#45;&gt;Node11 -->
<g id="edge11" class="edge"><title>Node10&#45;&gt;Node11</title>
<path fill="none" stroke="midnightblue" d="M207.494,-173.126C223.286,-163.165 243.241,-150.578 257.051,-141.867"/>
<polygon fill="midnightblue" stroke="midnightblue" points="205.345,-170.343 198.755,-178.638 209.08,-176.263 205.345,-170.343"/>
</g>
<!-- Node12&#45;&gt;Node7 -->
<g id="edge14" class="edge"><title>Node12&#45;&gt;Node7</title>
<path fill="none" stroke="midnightblue" d="M296.647,-176.099C257.166,-165.751 202.313,-151.374 165.668,-141.77"/>
<polygon fill="midnightblue" stroke="midnightblue" points="295.772,-179.488 306.333,-178.638 297.547,-172.717 295.772,-179.488"/>
</g>
<!-- Node13 -->
<g id="node13" class="node"><title>Node13</title>
<g id="a_node13"><a xlink:href="PEDIndividualsExtractor_8cpp.html" target="_top" xlink:title="PEDIndividualsExtractor.cpp">
<polygon fill="white" stroke="black" points="368.672,-119.3 368.672,-141.7 526.3,-141.7 526.3,-119.3 368.672,-119.3"/>
<text text-anchor="middle" x="447.486" y="-126.9" font-family="-adobe-utopia-medium-i-normal--0-0-0-0-p-0-iso10646-1" font-size="12.00">PEDIndividualsExtractor.cpp</text>
</a>
</g>
</g>
<!-- Node12&#45;&gt;Node13 -->
<g id="edge15" class="edge"><title>Node12&#45;&gt;Node13</title>
<path fill="none" stroke="midnightblue" d="M372.529,-173.681C390.379,-163.637 413.295,-150.741 429.064,-141.867"/>
<polygon fill="midnightblue" stroke="midnightblue" points="370.72,-170.684 363.721,-178.638 374.153,-176.784 370.72,-170.684"/>
</g>
<!-- Node15&#45;&gt;Node1 -->
<g id="edge18" class="edge"><title>Node15&#45;&gt;Node1</title>
<path fill="none" stroke="midnightblue" d="M833.772,-265.223C813.436,-275.349 785.31,-288.474 764.613,-297.438"/>
<polygon fill="midnightblue" stroke="midnightblue" points="835.441,-268.301 842.787,-260.667 832.284,-262.054 835.441,-268.301"/>
</g>
<!-- Node16 -->
<g id="node16" class="node"><title>Node16</title>
<g id="a_node16"><a xlink:href="Match_8h.html" target="_top" xlink:title="Match.h">
<polygon fill="white" stroke="black" points="1061.66,-178.7 1061.66,-201.1 1117.31,-201.1 1117.31,-178.7 1061.66,-178.7"/>
<text text-anchor="middle" x="1089.49" y="-186.3" font-family="-adobe-utopia-medium-i-normal--0-0-0-0-p-0-iso10646-1" font-size="12.00">Match.h</text>
</a>
</g>
</g>
<!-- Node15&#45;&gt;Node16 -->
<g id="edge19" class="edge"><title>Node15&#45;&gt;Node16</title>
<path fill="none" stroke="midnightblue" d="M906.209,-235.587C951.748,-224.275 1017.54,-208.486 1043.49,-201.6 1049.17,-200.09 1055.32,-198.354 1061.31,-196.726"/>
<polygon fill="midnightblue" stroke="midnightblue" points="905.106,-232.255 896.251,-238.071 906.801,-239.047 905.106,-232.255"/>
</g>
<!-- Node18 -->
<g id="node18" class="node"><title>Node18</title>
<g id="a_node18"><a xlink:href="MatchFactory_8h.html" target="_top" xlink:title="MatchFactory.h">
<polygon fill="white" stroke="black" points="765.331,-178.7 765.331,-201.1 857.64,-201.1 857.64,-178.7 765.331,-178.7"/>
<text text-anchor="middle" x="811.486" y="-186.3" font-family="-adobe-utopia-medium-i-normal--0-0-0-0-p-0-iso10646-1" font-size="12.00">MatchFactory.h</text>
</a>
</g>
</g>
<!-- Node15&#45;&gt;Node18 -->
<g id="edge22" class="edge"><title>Node15&#45;&gt;Node18</title>
<path fill="none" stroke="midnightblue" d="M844.435,-230.302C836.508,-220.822 827.06,-209.524 820.318,-201.461"/>
<polygon fill="midnightblue" stroke="midnightblue" points="841.804,-232.612 850.904,-238.038 847.174,-228.122 841.804,-232.612"/>
</g>
<!-- Node20 -->
<g id="node20" class="node"><title>Node20</title>
<g id="a_node20"><a xlink:href="Share_8cpp.html" target="_top" xlink:title="Share.cpp">
<polygon fill="white" stroke="black" points="875.663,-178.7 875.663,-201.1 939.309,-201.1 939.309,-178.7 875.663,-178.7"/>
<text text-anchor="middle" x="907.486" y="-186.3" font-family="-adobe-utopia-medium-i-normal--0-0-0-0-p-0-iso10646-1" font-size="12.00">Share.cpp</text>
</a>
</g>
</g>
<!-- Node15&#45;&gt;Node20 -->
<g id="edge25" class="edge"><title>Node15&#45;&gt;Node20</title>
<path fill="none" stroke="midnightblue" d="M874.536,-230.302C882.464,-220.822 891.912,-209.524 898.654,-201.461"/>
<polygon fill="midnightblue" stroke="midnightblue" points="871.797,-228.122 868.067,-238.038 877.167,-232.612 871.797,-228.122"/>
</g>
<!-- Node21 -->
<g id="node21" class="node"><title>Node21</title>
<g id="a_node21"><a xlink:href="Individual_8cpp.html" target="_top" xlink:title="Individual.cpp">
<polygon fill="white" stroke="black" points="957.659,-178.7 957.659,-201.1 1043.31,-201.1 1043.31,-178.7 957.659,-178.7"/>
<text text-anchor="middle" x="1000.49" y="-186.3" font-family="-adobe-utopia-medium-i-normal--0-0-0-0-p-0-iso10646-1" font-size="12.00">Individual.cpp</text>
</a>
</g>
</g>
<!-- Node15&#45;&gt;Node21 -->
<g id="edge26" class="edge"><title>Node15&#45;&gt;Node21</title>
<path fill="none" stroke="midnightblue" d="M894.182,-234.175C919.206,-223.988 952.422,-210.466 975.021,-201.267"/>
<polygon fill="midnightblue" stroke="midnightblue" points="892.636,-231.026 884.694,-238.038 895.275,-237.509 892.636,-231.026"/>
</g>
<!-- Node16&#45;&gt;Node15 -->
<g id="edge20" class="edge"><title>Node16&#45;&gt;Node15</title>
<path fill="none" stroke="midnightblue" d="M1053.24,-203.734C1016.22,-213.205 941.943,-230.846 896.708,-240.867"/>
<polygon fill="midnightblue" stroke="midnightblue" points="1054.25,-207.087 1063.05,-201.183 1052.49,-200.312 1054.25,-207.087"/>
</g>
<!-- Node17 -->
<g id="node17" class="node"><title>Node17</title>
<g id="a_node17"><a xlink:href="Match_8cpp.html" target="_top" xlink:title="Match.cpp">
<polygon fill="white" stroke="black" points="1055.99,-119.3 1055.99,-141.7 1122.98,-141.7 1122.98,-119.3 1055.99,-119.3"/>
<text text-anchor="middle" x="1089.49" y="-126.9" font-family="-adobe-utopia-medium-i-normal--0-0-0-0-p-0-iso10646-1" font-size="12.00">Match.cpp</text>
</a>
</g>
</g>
<!-- Node16&#45;&gt;Node17 -->
<g id="edge21" class="edge"><title>Node16&#45;&gt;Node17</title>
<path fill="none" stroke="midnightblue" d="M1089.49,-168.571C1089.49,-159.617 1089.49,-149.472 1089.49,-142.061"/>
<polygon fill="midnightblue" stroke="midnightblue" points="1085.99,-168.638 1089.49,-178.638 1092.99,-168.638 1085.99,-168.638"/>
</g>
<!-- Node18&#45;&gt;Node8 -->
<g id="edge23" class="edge"><title>Node18&#45;&gt;Node8</title>
<path fill="none" stroke="midnightblue" d="M800.473,-169.745C795.167,-160.514 789.006,-149.798 784.558,-142.061"/>
<polygon fill="midnightblue" stroke="midnightblue" points="797.568,-171.713 805.586,-178.638 803.636,-168.224 797.568,-171.713"/>
</g>
<!-- Node19 -->
<g id="node19" class="node"><title>Node19</title>
<g id="a_node19"><a xlink:href="MatchFactory_8cpp.html" target="_top" xlink:title="MatchFactory.cpp">
<polygon fill="white" stroke="black" points="847.668,-119.3 847.668,-141.7 951.304,-141.7 951.304,-119.3 847.668,-119.3"/>
<text text-anchor="middle" x="899.486" y="-126.9" font-family="-adobe-utopia-medium-i-normal--0-0-0-0-p-0-iso10646-1" font-size="12.00">MatchFactory.cpp</text>
</a>
</g>
</g>
<!-- Node18&#45;&gt;Node19 -->
<g id="edge24" class="edge"><title>Node18&#45;&gt;Node19</title>
<path fill="none" stroke="midnightblue" d="M835.669,-173.126C850.941,-163.165 870.238,-150.578 883.593,-141.867"/>
<polygon fill="midnightblue" stroke="midnightblue" points="833.682,-170.243 827.218,-178.638 837.506,-176.106 833.682,-170.243"/>
</g>
</g>
</svg>
