<?xml version="1.0" encoding="UTF-8" standalone="no"?>
<!DOCTYPE svg PUBLIC "-//W3C//DTD SVG 1.1//EN"
 "http://www.w3.org/Graphics/SVG/1.1/DTD/svg11.dtd">
<!-- Generated by graphviz version 2.38.0 (20140413.2041)
 -->
<!-- Title: Graphical Class Hierarchy Pages: 1 -->
<svg width="358pt" height="72pt"
 viewBox="0.00 0.00 357.93 72.40" xmlns="http://www.w3.org/2000/svg" xmlns:xlink="http://www.w3.org/1999/xlink">
<g id="graph0" class="graph" transform="scale(1 1) rotate(0) translate(4 68.4)">
<title>Graphical Class Hierarchy</title>
<polygon fill="white" stroke="none" points="-4,4 -4,-68.4 353.934,-68.4 353.934,4 -4,4"/>
<!-- Node1 -->
<g id="node1" class="node"><title>Node1</title>
<g id="a_node1"><a xlink:href="classPolymorphicIndividualsExtractor.html" target="_top" xlink:title="PolymorphicIndividualsExtractor">
<polygon fill="white" stroke="black" points="0,-20.5 0,-42.9 176.633,-42.9 176.633,-20.5 0,-20.5"/>
<text text-anchor="middle" x="88.3166" y="-28.1" font-family="-adobe-utopia-medium-i-normal--0-0-0-0-p-0-iso10646-1" font-size="12.00">PolymorphicIndividualsExtractor</text>
</a>
</g>
</g>
<!-- Node2 -->
<g id="node2" class="node"><title>Node2</title>
<g id="a_node2"><a xlink:href="classHMIndividualsExtractor.html" target="_top" xlink:title="HMIndividualsExtractor">
<polygon fill="white" stroke="black" points="214.301,-41.5 214.301,-63.9 348.267,-63.9 348.267,-41.5 214.301,-41.5"/>
<text text-anchor="middle" x="281.284" y="-49.1" font-family="-adobe-utopia-medium-i-normal--0-0-0-0-p-0-iso10646-1" font-size="12.00">HMIndividualsExtractor</text>
</a>
</g>
</g>
<!-- Node1&#45;&gt;Node2 -->
<g id="edge1" class="edge"><title>Node1&#45;&gt;Node2</title>
<path fill="none" stroke="midnightblue" d="M186.737,-42.413C195.997,-43.4313 205.233,-44.4469 214.095,-45.4215"/>
<polygon fill="midnightblue" stroke="midnightblue" points="187.019,-38.923 176.696,-41.3089 186.254,-45.8811 187.019,-38.923"/>
</g>
<!-- Node3 -->
<g id="node3" class="node"><title>Node3</title>
<g id="a_node3"><a xlink:href="classPEDIndividualsExtractor.html" target="_top" xlink:title="PEDIndividualsExtractor">
<polygon fill="white" stroke="black" points="212.633,-0.5 212.633,-22.9 349.934,-22.9 349.934,-0.5 212.633,-0.5"/>
<text text-anchor="middle" x="281.284" y="-8.1" font-family="-adobe-utopia-medium-i-normal--0-0-0-0-p-0-iso10646-1" font-size="12.00">PEDIndividualsExtractor</text>
</a>
</g>
</g>
<!-- Node1&#45;&gt;Node3 -->
<g id="edge2" class="edge"><title>Node1&#45;&gt;Node3</title>
<path fill="none" stroke="midnightblue" d="M186.83,-21.4874C195.468,-20.5828 204.083,-19.6805 212.394,-18.8101"/>
<polygon fill="midnightblue" stroke="midnightblue" points="186.277,-18.026 176.696,-22.5487 187.007,-24.988 186.277,-18.026"/>
</g>
</g>
</svg>
