<?xml version="1.0" encoding="UTF-8" standalone="no"?>
<!DOCTYPE svg PUBLIC "-//W3C//DTD SVG 1.1//EN"
 "http://www.w3.org/Graphics/SVG/1.1/DTD/svg11.dtd">
<!-- Generated by graphviz version 2.38.0 (20140413.2041)
 -->
<!-- Title: InputManager.cpp Pages: 1 -->
<svg width="1307pt" height="625pt"
 viewBox="0.00 0.00 1307.00 625.40" xmlns="http://www.w3.org/2000/svg" xmlns:xlink="http://www.w3.org/1999/xlink">
<g id="graph0" class="graph" transform="scale(1 1) rotate(0) translate(4 621.4)">
<title>InputManager.cpp</title>
<polygon fill="white" stroke="none" points="-4,4 -4,-621.4 1303,-621.4 1303,4 -4,4"/>
<!-- Node1 -->
<g id="node1" class="node"><title>Node1</title>
<polygon fill="#bfbfbf" stroke="black" points="927.851,-594.5 927.851,-616.9 1032.15,-616.9 1032.15,-594.5 927.851,-594.5"/>
<text text-anchor="middle" x="980" y="-602.1" font-family="-adobe-utopia-medium-i-normal--0-0-0-0-p-0-iso10646-1" font-size="12.00">InputManager.cpp</text>
</g>
<!-- Node2 -->
<g id="node2" class="node"><title>Node2</title>
<g id="a_node2"><a xlink:href="InputManager_8h.html" target="_top" xlink:title="InputManager.h">
<polygon fill="white" stroke="black" points="774.514,-535.1 774.514,-557.5 867.486,-557.5 867.486,-535.1 774.514,-535.1"/>
<text text-anchor="middle" x="821" y="-542.7" font-family="-adobe-utopia-medium-i-normal--0-0-0-0-p-0-iso10646-1" font-size="12.00">InputManager.h</text>
</a>
</g>
</g>
<!-- Node1&#45;&gt;Node2 -->
<g id="edge1" class="edge"><title>Node1&#45;&gt;Node2</title>
<path fill="none" stroke="midnightblue" d="M951.574,-594.438C925.765,-585.121 887.503,-571.308 859.061,-561.04"/>
<polygon fill="midnightblue" stroke="midnightblue" points="860.042,-557.673 849.448,-557.57 857.665,-564.257 860.042,-557.673"/>
</g>
<!-- Node6 -->
<g id="node6" class="node"><title>Node6</title>
<polygon fill="white" stroke="#bfbfbf" points="9.3402,-0.5 9.3402,-22.9 66.6598,-22.9 66.6598,-0.5 9.3402,-0.5"/>
<text text-anchor="middle" x="38" y="-8.1" font-family="-adobe-utopia-medium-i-normal--0-0-0-0-p-0-iso10646-1" font-size="12.00">iostream</text>
</g>
<!-- Node1&#45;&gt;Node6 -->
<g id="edge68" class="edge"><title>Node1&#45;&gt;Node6</title>
<path fill="none" stroke="midnightblue" d="M927.657,-604.017C724.578,-600.685 0,-582.192 0,-487.9 0,-487.9 0,-487.9 0,-129.5 0,-93.6499 16.3888,-54.5129 27.6407,-31.8677"/>
<polygon fill="midnightblue" stroke="midnightblue" points="30.7602,-33.4547 32.2286,-22.9621 24.5375,-30.2488 30.7602,-33.4547"/>
</g>
<!-- Node26 -->
<g id="node26" class="node"><title>Node26</title>
<g id="a_node26"><a xlink:href="PEDIndividualsExtractor_8h.html" target="_top" xlink:title="PEDIndividualsExtractor.h">
<polygon fill="white" stroke="black" points="1069.85,-535.1 1069.85,-557.5 1216.15,-557.5 1216.15,-535.1 1069.85,-535.1"/>
<text text-anchor="middle" x="1143" y="-542.7" font-family="-adobe-utopia-medium-i-normal--0-0-0-0-p-0-iso10646-1" font-size="12.00">PEDIndividualsExtractor.h</text>
</a>
</g>
</g>
<!-- Node1&#45;&gt;Node26 -->
<g id="edge58" class="edge"><title>Node1&#45;&gt;Node26</title>
<path fill="none" stroke="midnightblue" d="M1009.14,-594.438C1035.71,-585.08 1075.17,-571.187 1104.36,-560.906"/>
<polygon fill="midnightblue" stroke="midnightblue" points="1105.57,-564.193 1113.84,-557.57 1103.24,-557.59 1105.57,-564.193"/>
</g>
<!-- Node27 -->
<g id="node27" class="node"><title>Node27</title>
<g id="a_node27"><a xlink:href="HMIndividualsExtractor_8h.html" target="_top" xlink:title="HMIndividualsExtractor.h">
<polygon fill="white" stroke="black" points="908.517,-535.1 908.517,-557.5 1051.48,-557.5 1051.48,-535.1 908.517,-535.1"/>
<text text-anchor="middle" x="980" y="-542.7" font-family="-adobe-utopia-medium-i-normal--0-0-0-0-p-0-iso10646-1" font-size="12.00">HMIndividualsExtractor.h</text>
</a>
</g>
</g>
<!-- Node1&#45;&gt;Node27 -->
<g id="edge63" class="edge"><title>Node1&#45;&gt;Node27</title>
<path fill="none" stroke="midnightblue" d="M980,-594.438C980,-587.102 980,-576.979 980,-567.993"/>
<polygon fill="midnightblue" stroke="midnightblue" points="983.5,-567.861 980,-557.861 976.5,-567.862 983.5,-567.861"/>
</g>
<!-- Node28 -->
<g id="node28" class="node"><title>Node28</title>
<polygon fill="white" stroke="#bfbfbf" points="1234.34,-535.1 1234.34,-557.5 1279.66,-557.5 1279.66,-535.1 1234.34,-535.1"/>
<text text-anchor="middle" x="1257" y="-542.7" font-family="-adobe-utopia-medium-i-normal--0-0-0-0-p-0-iso10646-1" font-size="12.00">cmath</text>
</g>
<!-- Node1&#45;&gt;Node28 -->
<g id="edge69" class="edge"><title>Node1&#45;&gt;Node28</title>
<path fill="none" stroke="midnightblue" d="M1032.55,-596.782C1080.23,-589.127 1152.57,-576.342 1223.97,-558.012"/>
<polygon fill="midnightblue" stroke="midnightblue" points="1225.25,-561.297 1234.04,-555.388 1223.48,-554.523 1225.25,-561.297"/>
</g>
<!-- Node3 -->
<g id="node3" class="node"><title>Node3</title>
<g id="a_node3"><a xlink:href="BasicDefinitions_8h.html" target="_top" xlink:title="BasicDefinitions.h">
<polygon fill="white" stroke="black" points="881.176,-59.9 881.176,-82.3 986.824,-82.3 986.824,-59.9 881.176,-59.9"/>
<text text-anchor="middle" x="934" y="-67.5" font-family="-adobe-utopia-medium-i-normal--0-0-0-0-p-0-iso10646-1" font-size="12.00">BasicDefinitions.h</text>
</a>
</g>
</g>
<!-- Node2&#45;&gt;Node3 -->
<g id="edge2" class="edge"><title>Node2&#45;&gt;Node3</title>
<path fill="none" stroke="midnightblue" d="M827.617,-534.977C850.358,-498.941 925.726,-374.741 959,-261 976.789,-200.193 989.025,-178.908 969,-118.8 965.482,-108.241 958.54,-98.1457 951.759,-90.0598"/>
<polygon fill="midnightblue" stroke="midnightblue" points="954.188,-87.5262 944.901,-82.4258 948.98,-92.204 954.188,-87.5262"/>
</g>
<!-- Node8 -->
<g id="node8" class="node"><title>Node8</title>
<g id="a_node8"><a xlink:href="PolymorphicIndividualsExtractor_8h.html" target="_top" xlink:title="PolymorphicIndividualsExtractor.h">
<polygon fill="white" stroke="black" points="887.183,-475.7 887.183,-498.1 1072.82,-498.1 1072.82,-475.7 887.183,-475.7"/>
<text text-anchor="middle" x="980" y="-483.3" font-family="-adobe-utopia-medium-i-normal--0-0-0-0-p-0-iso10646-1" font-size="12.00">PolymorphicIndividualsExtractor.h</text>
</a>
</g>
</g>
<!-- Node2&#45;&gt;Node8 -->
<g id="edge7" class="edge"><title>Node2&#45;&gt;Node8</title>
<path fill="none" stroke="midnightblue" d="M849.426,-535.038C875.235,-525.721 913.497,-511.908 941.939,-501.64"/>
<polygon fill="midnightblue" stroke="midnightblue" points="943.335,-504.857 951.552,-498.17 940.958,-498.273 943.335,-504.857"/>
</g>
<!-- Node9 -->
<g id="node9" class="node"><title>Node9</title>
<g id="a_node9"><a xlink:href="Individuals_8h.html" target="_top" xlink:title="Individuals.h">
<polygon fill="white" stroke="black" points="467.504,-416.3 467.504,-438.7 546.496,-438.7 546.496,-416.3 467.504,-416.3"/>
<text text-anchor="middle" x="507" y="-423.9" font-family="-adobe-utopia-medium-i-normal--0-0-0-0-p-0-iso10646-1" font-size="12.00">Individuals.h</text>
</a>
</g>
</g>
<!-- Node2&#45;&gt;Node9 -->
<g id="edge56" class="edge"><title>Node2&#45;&gt;Node9</title>
<path fill="none" stroke="midnightblue" d="M793.41,-535.037C737.015,-514.06 608.482,-466.249 544.55,-442.468"/>
<polygon fill="midnightblue" stroke="midnightblue" points="545.458,-439.071 534.865,-438.865 543.017,-445.632 545.458,-439.071"/>
</g>
<!-- Node15 -->
<g id="node15" class="node"><title>Node15</title>
<polygon fill="white" stroke="#bfbfbf" points="482.334,-59.9 482.334,-82.3 525.666,-82.3 525.666,-59.9 482.334,-59.9"/>
<text text-anchor="middle" x="504" y="-67.5" font-family="-adobe-utopia-medium-i-normal--0-0-0-0-p-0-iso10646-1" font-size="12.00">string</text>
</g>
<!-- Node2&#45;&gt;Node15 -->
<g id="edge57" class="edge"><title>Node2&#45;&gt;Node15</title>
<path fill="none" stroke="midnightblue" d="M774.338,-542.54C616.741,-532.602 114,-495.641 114,-428.5 114,-428.5 114,-428.5 114,-307.7 114,-216.869 120.461,-174.769 192,-118.8 235.185,-85.0141 401.671,-75.5105 472.17,-72.9731"/>
<polygon fill="midnightblue" stroke="midnightblue" points="472.361,-76.4688 482.238,-72.6351 472.126,-69.4727 472.361,-76.4688"/>
</g>
<!-- Node4 -->
<g id="node4" class="node"><title>Node4</title>
<polygon fill="white" stroke="#bfbfbf" points="844.008,-0.5 844.008,-22.9 889.992,-22.9 889.992,-0.5 844.008,-0.5"/>
<text text-anchor="middle" x="867" y="-8.1" font-family="-adobe-utopia-medium-i-normal--0-0-0-0-p-0-iso10646-1" font-size="12.00">vector</text>
</g>
<!-- Node3&#45;&gt;Node4 -->
<g id="edge3" class="edge"><title>Node3&#45;&gt;Node4</title>
<path fill="none" stroke="midnightblue" d="M922.022,-59.838C912.329,-51.5345 898.469,-39.6602 887.085,-29.907"/>
<polygon fill="midnightblue" stroke="midnightblue" points="889.199,-27.1096 879.328,-23.2615 884.645,-32.4255 889.199,-27.1096"/>
</g>
<!-- Node5 -->
<g id="node5" class="node"><title>Node5</title>
<polygon fill="white" stroke="#bfbfbf" points="978.01,-0.5 978.01,-22.9 1029.99,-22.9 1029.99,-0.5 978.01,-0.5"/>
<text text-anchor="middle" x="1004" y="-8.1" font-family="-adobe-utopia-medium-i-normal--0-0-0-0-p-0-iso10646-1" font-size="12.00">fstream</text>
</g>
<!-- Node3&#45;&gt;Node5 -->
<g id="edge4" class="edge"><title>Node3&#45;&gt;Node5</title>
<path fill="none" stroke="midnightblue" d="M946.515,-59.838C956.739,-51.4539 971.403,-39.4293 983.362,-29.6235"/>
<polygon fill="midnightblue" stroke="midnightblue" points="985.607,-32.3087 991.12,-23.2615 981.168,-26.8959 985.607,-32.3087"/>
</g>
<!-- Node3&#45;&gt;Node6 -->
<g id="edge5" class="edge"><title>Node3&#45;&gt;Node6</title>
<path fill="none" stroke="midnightblue" d="M880.966,-66.7025C716.842,-56.1883 219.714,-24.341 76.8062,-15.186"/>
<polygon fill="midnightblue" stroke="midnightblue" points="76.9571,-11.6886 66.7537,-14.542 76.5095,-18.6743 76.9571,-11.6886"/>
</g>
<!-- Node7 -->
<g id="node7" class="node"><title>Node7</title>
<polygon fill="white" stroke="#bfbfbf" points="907.834,-0.5 907.834,-22.9 960.166,-22.9 960.166,-0.5 907.834,-0.5"/>
<text text-anchor="middle" x="934" y="-8.1" font-family="-adobe-utopia-medium-i-normal--0-0-0-0-p-0-iso10646-1" font-size="12.00">string.h</text>
</g>
<!-- Node3&#45;&gt;Node7 -->
<g id="edge6" class="edge"><title>Node3&#45;&gt;Node7</title>
<path fill="none" stroke="midnightblue" d="M934,-59.838C934,-52.5019 934,-42.3785 934,-33.3932"/>
<polygon fill="midnightblue" stroke="midnightblue" points="937.5,-33.2614 934,-23.2615 930.5,-33.2615 937.5,-33.2614"/>
</g>
<!-- Node8&#45;&gt;Node4 -->
<g id="edge55" class="edge"><title>Node8&#45;&gt;Node4</title>
<path fill="none" stroke="midnightblue" d="M991.389,-475.563C1048.14,-423.498 1295.61,-189.679 1242,-118.8 1148.5,4.80946 1054.4,-66.1237 899.811,-23.4111"/>
<polygon fill="midnightblue" stroke="midnightblue" points="900.6,-19.9958 890.021,-20.576 898.652,-26.7195 900.6,-19.9958"/>
</g>
<!-- Node8&#45;&gt;Node5 -->
<g id="edge53" class="edge"><title>Node8&#45;&gt;Node5</title>
<path fill="none" stroke="midnightblue" d="M1072.91,-478.123C1141.51,-466.684 1223,-438.493 1223,-369.1 1223,-369.1 1223,-369.1 1223,-307.7 1223,-194.95 1347.64,-145.63 1275,-59.4 1245.37,-24.2214 1106.81,-15.5424 1040.09,-13.4013"/>
<polygon fill="midnightblue" stroke="midnightblue" points="1040.12,-9.90086 1030.02,-13.1107 1039.92,-16.8979 1040.12,-9.90086"/>
</g>
<!-- Node8&#45;&gt;Node9 -->
<g id="edge8" class="edge"><title>Node8&#45;&gt;Node9</title>
<path fill="none" stroke="midnightblue" d="M895.71,-475.671C797.212,-463.718 637.471,-444.333 556.881,-434.553"/>
<polygon fill="midnightblue" stroke="midnightblue" points="556.866,-431.026 546.518,-433.296 556.023,-437.975 556.866,-431.026"/>
</g>
<!-- Node12 -->
<g id="node12" class="node"><title>Node12</title>
<g id="a_node12"><a xlink:href="SNPs_8h.html" target="_top" xlink:title="SNPs.h">
<polygon fill="white" stroke="black" points="525.164,-178.7 525.164,-201.1 576.836,-201.1 576.836,-178.7 525.164,-178.7"/>
<text text-anchor="middle" x="551" y="-186.3" font-family="-adobe-utopia-medium-i-normal--0-0-0-0-p-0-iso10646-1" font-size="12.00">SNPs.h</text>
</a>
</g>
</g>
<!-- Node8&#45;&gt;Node12 -->
<g id="edge52" class="edge"><title>Node8&#45;&gt;Node12</title>
<path fill="none" stroke="midnightblue" d="M891.387,-475.641C782.496,-460.512 612,-427.5 612,-369.1 612,-369.1 612,-369.1 612,-307.7 612,-269.126 585.536,-230.695 567.47,-208.953"/>
<polygon fill="midnightblue" stroke="midnightblue" points="569.981,-206.505 560.801,-201.215 564.678,-211.075 569.981,-206.505"/>
</g>
<!-- Node8&#45;&gt;Node15 -->
<g id="edge54" class="edge"><title>Node8&#45;&gt;Node15</title>
<path fill="none" stroke="midnightblue" d="M977.331,-475.549C969.194,-445.463 942.385,-356.409 896,-297 843.234,-229.418 820.822,-216.279 744,-178.2 687.593,-150.24 664.296,-168.288 607,-142.2 575.962,-128.068 544.086,-104.753 524.177,-88.9271"/>
<polygon fill="midnightblue" stroke="midnightblue" points="526.143,-86.0152 516.167,-82.4473 521.74,-91.4576 526.143,-86.0152"/>
</g>
<!-- Node9&#45;&gt;Node3 -->
<g id="edge9" class="edge"><title>Node9&#45;&gt;Node3</title>
<path fill="none" stroke="midnightblue" d="M546.767,-426.637C623.695,-424.785 794.246,-410.073 896,-320.4 958.487,-265.332 949.118,-225.346 954,-142.2 954.61,-131.818 956.09,-128.988 954,-118.8 952.085,-109.463 948.223,-99.6879 944.399,-91.5077"/>
<polygon fill="midnightblue" stroke="midnightblue" points="947.481,-89.8452 939.887,-82.4575 941.216,-92.9686 947.481,-89.8452"/>
</g>
<!-- Node10 -->
<g id="node10" class="node"><title>Node10</title>
<g id="a_node10"><a xlink:href="Chromosome_8h.html" target="_top" xlink:title="Chromosome.h">
<polygon fill="white" stroke="black" points="797.17,-297.5 797.17,-319.9 886.83,-319.9 886.83,-297.5 797.17,-297.5"/>
<text text-anchor="middle" x="842" y="-305.1" font-family="-adobe-utopia-medium-i-normal--0-0-0-0-p-0-iso10646-1" font-size="12.00">Chromosome.h</text>
</a>
</g>
</g>
<!-- Node9&#45;&gt;Node10 -->
<g id="edge10" class="edge"><title>Node9&#45;&gt;Node10</title>
<path fill="none" stroke="midnightblue" d="M536.435,-416.237C596.849,-395.173 734.861,-347.055 802.777,-323.375"/>
<polygon fill="midnightblue" stroke="midnightblue" points="803.981,-326.662 812.272,-320.065 801.677,-320.052 803.981,-326.662"/>
</g>
<!-- Node17 -->
<g id="node17" class="node"><title>Node17</title>
<polygon fill="white" stroke="#bfbfbf" points="229.669,-59.9 229.669,-82.3 266.331,-82.3 266.331,-59.9 229.669,-59.9"/>
<text text-anchor="middle" x="248" y="-67.5" font-family="-adobe-utopia-medium-i-normal--0-0-0-0-p-0-iso10646-1" font-size="12.00">map</text>
</g>
<!-- Node9&#45;&gt;Node17 -->
<g id="edge50" class="edge"><title>Node9&#45;&gt;Node17</title>
<path fill="none" stroke="midnightblue" d="M467.225,-424.225C360.527,-417.041 76,-390.326 76,-309.7 76,-309.7 76,-309.7 76,-188.9 76,-120.299 170.799,-89.1815 219.64,-77.702"/>
<polygon fill="midnightblue" stroke="midnightblue" points="220.593,-81.0756 229.593,-75.4852 219.071,-74.243 220.593,-81.0756"/>
</g>
<!-- Node21 -->
<g id="node21" class="node"><title>Node21</title>
<g id="a_node21"><a xlink:href="Individual_8h.html" target="_top" xlink:title="Individual.h">
<polygon fill="white" stroke="black" points="469.837,-356.9 469.837,-379.3 544.163,-379.3 544.163,-356.9 469.837,-356.9"/>
<text text-anchor="middle" x="507" y="-364.5" font-family="-adobe-utopia-medium-i-normal--0-0-0-0-p-0-iso10646-1" font-size="12.00">Individual.h</text>
</a>
</g>
</g>
<!-- Node9&#45;&gt;Node21 -->
<g id="edge34" class="edge"><title>Node9&#45;&gt;Node21</title>
<path fill="none" stroke="midnightblue" d="M501.684,-416.238C500.338,-408.902 499.939,-398.779 500.489,-389.793"/>
<polygon fill="midnightblue" stroke="midnightblue" points="503.989,-389.99 501.63,-379.661 497.033,-389.207 503.989,-389.99"/>
</g>
<!-- Node25 -->
<g id="node25" class="node"><title>Node25</title>
<polygon fill="white" stroke="#bfbfbf" points="398.008,-356.9 398.008,-379.3 451.992,-379.3 451.992,-356.9 398.008,-356.9"/>
<text text-anchor="middle" x="425" y="-364.5" font-family="-adobe-utopia-medium-i-normal--0-0-0-0-p-0-iso10646-1" font-size="12.00">ostream</text>
</g>
<!-- Node9&#45;&gt;Node25 -->
<g id="edge51" class="edge"><title>Node9&#45;&gt;Node25</title>
<path fill="none" stroke="midnightblue" d="M492.34,-416.238C480.056,-407.639 462.302,-395.211 448.107,-385.275"/>
<polygon fill="midnightblue" stroke="midnightblue" points="450.009,-382.334 439.81,-379.467 445.995,-388.069 450.009,-382.334"/>
</g>
<!-- Node10&#45;&gt;Node3 -->
<g id="edge11" class="edge"><title>Node10&#45;&gt;Node3</title>
<path fill="none" stroke="midnightblue" d="M850.725,-297.425C872.348,-271.911 926.834,-207.307 929,-201.6 942.768,-165.318 940.254,-119.143 937.147,-92.8736"/>
<polygon fill="midnightblue" stroke="midnightblue" points="940.571,-92.066 935.78,-82.616 933.632,-92.9908 940.571,-92.066"/>
</g>
<!-- Node10&#45;&gt;Node4 -->
<g id="edge33" class="edge"><title>Node10&#45;&gt;Node4</title>
<path fill="none" stroke="midnightblue" d="M886.991,-304.208C952.652,-296.382 1067,-271.222 1067,-190.9 1067,-190.9 1067,-190.9 1067,-129.5 1067,-85.1556 1033.5,-83.0744 996,-59.4 987.578,-54.0824 935.086,-35.7755 899.711,-23.7244"/>
<polygon fill="midnightblue" stroke="midnightblue" points="900.833,-20.4091 890.239,-20.5073 898.582,-27.0373 900.833,-20.4091"/>
</g>
<!-- Node11 -->
<g id="node11" class="node"><title>Node11</title>
<g id="a_node11"><a xlink:href="MarkerSet_8h.html" target="_top" xlink:title="MarkerSet.h">
<polygon fill="white" stroke="black" points="640.179,-238.1 640.179,-260.5 715.821,-260.5 715.821,-238.1 640.179,-238.1"/>
<text text-anchor="middle" x="678" y="-245.7" font-family="-adobe-utopia-medium-i-normal--0-0-0-0-p-0-iso10646-1" font-size="12.00">MarkerSet.h</text>
</a>
</g>
</g>
<!-- Node10&#45;&gt;Node11 -->
<g id="edge12" class="edge"><title>Node10&#45;&gt;Node11</title>
<path fill="none" stroke="midnightblue" d="M812.68,-297.438C785.943,-288.08 746.249,-274.187 716.875,-263.906"/>
<polygon fill="midnightblue" stroke="midnightblue" points="717.937,-260.57 707.342,-260.57 715.624,-267.177 717.937,-260.57"/>
</g>
<!-- Node11&#45;&gt;Node3 -->
<g id="edge13" class="edge"><title>Node11&#45;&gt;Node3</title>
<path fill="none" stroke="midnightblue" d="M692.591,-238.005C730.156,-211.512 829.587,-141.476 863,-118.8 878.422,-108.334 895.913,-96.8249 909.675,-87.8513"/>
<polygon fill="midnightblue" stroke="midnightblue" points="911.647,-90.7437 918.121,-82.3568 907.83,-84.876 911.647,-90.7437"/>
</g>
<!-- Node11&#45;&gt;Node12 -->
<g id="edge14" class="edge"><title>Node11&#45;&gt;Node12</title>
<path fill="none" stroke="midnightblue" d="M655.295,-238.038C635.193,-228.953 605.632,-215.592 583.11,-205.413"/>
<polygon fill="midnightblue" stroke="midnightblue" points="584.491,-202.196 573.937,-201.267 581.608,-208.575 584.491,-202.196"/>
</g>
<!-- Node19 -->
<g id="node19" class="node"><title>Node19</title>
<polygon fill="white" stroke="#bfbfbf" points="255.664,-119.3 255.664,-141.7 286.336,-141.7 286.336,-119.3 255.664,-119.3"/>
<text text-anchor="middle" x="271" y="-126.9" font-family="-adobe-utopia-medium-i-normal--0-0-0-0-p-0-iso10646-1" font-size="12.00">list</text>
</g>
<!-- Node11&#45;&gt;Node19 -->
<g id="edge32" class="edge"><title>Node11&#45;&gt;Node19</title>
<path fill="none" stroke="midnightblue" d="M640.072,-239.548C570.839,-223.181 419.717,-185.638 296,-142.2 295.903,-142.166 295.805,-142.131 295.707,-142.097"/>
<polygon fill="midnightblue" stroke="midnightblue" points="297.065,-138.87 286.476,-138.504 294.526,-145.393 297.065,-138.87"/>
</g>
<!-- Node20 -->
<g id="node20" class="node"><title>Node20</title>
<polygon fill="white" stroke="#bfbfbf" points="595.171,-178.7 595.171,-201.1 734.829,-201.1 734.829,-178.7 595.171,-178.7"/>
<text text-anchor="middle" x="665" y="-186.3" font-family="-adobe-utopia-medium-i-normal--0-0-0-0-p-0-iso10646-1" font-size="12.00">boost/dynamic_bitset.hpp</text>
</g>
<!-- Node11&#45;&gt;Node20 -->
<g id="edge31" class="edge"><title>Node11&#45;&gt;Node20</title>
<path fill="none" stroke="midnightblue" d="M675.676,-238.038C673.996,-230.621 671.671,-220.356 669.62,-211.297"/>
<polygon fill="midnightblue" stroke="midnightblue" points="673.014,-210.441 667.392,-201.461 666.187,-211.988 673.014,-210.441"/>
</g>
<!-- Node12&#45;&gt;Node3 -->
<g id="edge15" class="edge"><title>Node12&#45;&gt;Node3</title>
<path fill="none" stroke="midnightblue" d="M576.905,-180.632C579.957,-179.761 583.039,-178.929 586,-178.2 669.877,-157.541 695,-169.369 777,-142.2 799.529,-134.735 803.419,-128.676 825,-118.8 849.838,-107.433 878.209,-95.3045 899.779,-86.2569"/>
<polygon fill="midnightblue" stroke="midnightblue" points="901.296,-89.416 909.173,-82.3306 898.597,-82.9574 901.296,-89.416"/>
</g>
<!-- Node12&#45;&gt;Node4 -->
<g id="edge27" class="edge"><title>Node12&#45;&gt;Node4</title>
<path fill="none" stroke="midnightblue" d="M576.989,-180.938C580.026,-180.013 583.081,-179.084 586,-178.2 639.291,-162.06 663.114,-177.714 706,-142.2 737.938,-115.753 718.22,-87.1863 749,-59.4 772.86,-37.8603 807.851,-25.7039 833.535,-19.2316"/>
<polygon fill="midnightblue" stroke="midnightblue" points="834.635,-22.5683 843.568,-16.8704 833.032,-15.7544 834.635,-22.5683"/>
</g>
<!-- Node12&#45;&gt;Node5 -->
<g id="edge26" class="edge"><title>Node12&#45;&gt;Node5</title>
<path fill="none" stroke="midnightblue" d="M576.951,-180.808C579.995,-179.906 583.062,-179.018 586,-178.2 649.135,-160.614 668.277,-166.858 729,-142.2 797.044,-114.568 805.32,-90.1787 872,-59.4 889.401,-51.3677 935.448,-35.512 968.249,-24.5183"/>
<polygon fill="midnightblue" stroke="midnightblue" points="969.58,-27.7639 977.957,-21.2767 967.363,-21.1242 969.58,-27.7639"/>
</g>
<!-- Node13 -->
<g id="node13" class="node"><title>Node13</title>
<g id="a_node13"><a xlink:href="NucleotideMap_8h.html" target="_top" xlink:title="NucleotideMap.h">
<polygon fill="white" stroke="black" points="1133.18,-119.3 1133.18,-141.7 1232.82,-141.7 1232.82,-119.3 1133.18,-119.3"/>
<text text-anchor="middle" x="1183" y="-126.9" font-family="-adobe-utopia-medium-i-normal--0-0-0-0-p-0-iso10646-1" font-size="12.00">NucleotideMap.h</text>
</a>
</g>
</g>
<!-- Node12&#45;&gt;Node13 -->
<g id="edge16" class="edge"><title>Node12&#45;&gt;Node13</title>
<path fill="none" stroke="midnightblue" d="M577.219,-180.211C580.159,-179.439 583.128,-178.744 586,-178.2 779.943,-141.428 1014.61,-133.513 1122.9,-131.878"/>
<polygon fill="midnightblue" stroke="midnightblue" points="1123.03,-135.376 1132.98,-131.738 1122.93,-128.377 1123.03,-135.376"/>
</g>
<!-- Node14 -->
<g id="node14" class="node"><title>Node14</title>
<g id="a_node14"><a xlink:href="SNP_8h.html" target="_top" xlink:title="SNP.h">
<polygon fill="white" stroke="black" points="649.498,-119.3 649.498,-141.7 696.502,-141.7 696.502,-119.3 649.498,-119.3"/>
<text text-anchor="middle" x="673" y="-126.9" font-family="-adobe-utopia-medium-i-normal--0-0-0-0-p-0-iso10646-1" font-size="12.00">SNP.h</text>
</a>
</g>
</g>
<!-- Node12&#45;&gt;Node14 -->
<g id="edge18" class="edge"><title>Node12&#45;&gt;Node14</title>
<path fill="none" stroke="midnightblue" d="M572.811,-178.638C592.036,-169.593 620.265,-156.311 641.864,-146.149"/>
<polygon fill="midnightblue" stroke="midnightblue" points="643.408,-149.291 650.966,-141.867 640.428,-142.957 643.408,-149.291"/>
</g>
<!-- Node12&#45;&gt;Node15 -->
<g id="edge28" class="edge"><title>Node12&#45;&gt;Node15</title>
<path fill="none" stroke="midnightblue" d="M547.588,-178.327C543.044,-164.498 534.577,-139.582 526,-118.8 522.257,-109.73 517.691,-99.8762 513.692,-91.5681"/>
<polygon fill="midnightblue" stroke="midnightblue" points="516.724,-89.8028 509.187,-82.3573 510.436,-92.8782 516.724,-89.8028"/>
</g>
<!-- Node16 -->
<g id="node16" class="node"><title>Node16</title>
<g id="a_node16"><a xlink:href="SNPPositionMap_8h.html" target="_top" xlink:title="SNPPositionMap.h">
<polygon fill="white" stroke="black" points="408.83,-119.3 408.83,-141.7 517.17,-141.7 517.17,-119.3 408.83,-119.3"/>
<text text-anchor="middle" x="463" y="-126.9" font-family="-adobe-utopia-medium-i-normal--0-0-0-0-p-0-iso10646-1" font-size="12.00">SNPPositionMap.h</text>
</a>
</g>
</g>
<!-- Node12&#45;&gt;Node16 -->
<g id="edge22" class="edge"><title>Node12&#45;&gt;Node16</title>
<path fill="none" stroke="midnightblue" d="M535.267,-178.638C521.96,-169.958 502.671,-157.376 487.368,-147.394"/>
<polygon fill="midnightblue" stroke="midnightblue" points="489.181,-144.398 478.893,-141.867 485.357,-150.261 489.181,-144.398"/>
</g>
<!-- Node12&#45;&gt;Node17 -->
<g id="edge29" class="edge"><title>Node12&#45;&gt;Node17</title>
<path fill="none" stroke="midnightblue" d="M524.894,-182.958C494.201,-175.491 442.106,-161.304 400,-142.2 381.938,-134.005 379.68,-127.789 362,-118.8 333.601,-104.361 299.654,-90.9141 276.231,-82.1932"/>
<polygon fill="midnightblue" stroke="midnightblue" points="277.169,-78.8092 266.575,-78.6442 274.754,-85.3794 277.169,-78.8092"/>
</g>
<!-- Node18 -->
<g id="node18" class="node"><title>Node18</title>
<polygon fill="white" stroke="#bfbfbf" points="304.502,-119.3 304.502,-141.7 353.498,-141.7 353.498,-119.3 304.502,-119.3"/>
<text text-anchor="middle" x="329" y="-126.9" font-family="-adobe-utopia-medium-i-normal--0-0-0-0-p-0-iso10646-1" font-size="12.00">math.h</text>
</g>
<!-- Node12&#45;&gt;Node18 -->
<g id="edge25" class="edge"><title>Node12&#45;&gt;Node18</title>
<path fill="none" stroke="midnightblue" d="M525.044,-182.537C489.364,-173.739 423.192,-157.239 367,-142.2 365.771,-141.871 364.52,-141.534 363.258,-141.191"/>
<polygon fill="midnightblue" stroke="midnightblue" points="364.075,-137.785 353.504,-138.5 362.214,-144.533 364.075,-137.785"/>
</g>
<!-- Node12&#45;&gt;Node19 -->
<g id="edge30" class="edge"><title>Node12&#45;&gt;Node19</title>
<path fill="none" stroke="midnightblue" d="M524.849,-186.066C478.151,-180.577 377.659,-166.815 296,-142.2 295.901,-142.17 295.802,-142.14 295.703,-142.11"/>
<polygon fill="midnightblue" stroke="midnightblue" points="296.998,-138.856 286.404,-138.727 294.605,-145.435 296.998,-138.856"/>
</g>
<!-- Node13&#45;&gt;Node3 -->
<g id="edge17" class="edge"><title>Node13&#45;&gt;Node3</title>
<path fill="none" stroke="midnightblue" d="M1138.48,-119.238C1096.48,-109.555 1033.41,-95.0152 988.428,-84.6468"/>
<polygon fill="midnightblue" stroke="midnightblue" points="989.081,-81.2056 978.55,-82.3697 987.508,-88.0267 989.081,-81.2056"/>
</g>
<!-- Node14&#45;&gt;Node3 -->
<g id="edge19" class="edge"><title>Node14&#45;&gt;Node3</title>
<path fill="none" stroke="midnightblue" d="M696.622,-124.305C737.225,-115.375 821.315,-96.882 877.71,-84.4794"/>
<polygon fill="midnightblue" stroke="midnightblue" points="878.539,-87.881 887.553,-82.3147 877.035,-81.0443 878.539,-87.881"/>
</g>
<!-- Node14&#45;&gt;Node4 -->
<g id="edge21" class="edge"><title>Node14&#45;&gt;Node4</title>
<path fill="none" stroke="midnightblue" d="M675.789,-119.297C680.49,-104.017 691.448,-75.2904 711,-59.4 746.589,-30.4755 799.714,-19.4564 833.861,-15.2647"/>
<polygon fill="midnightblue" stroke="midnightblue" points="834.251,-18.743 843.809,-14.1708 833.486,-11.7849 834.251,-18.743"/>
</g>
<!-- Node14&#45;&gt;Node15 -->
<g id="edge20" class="edge"><title>Node14&#45;&gt;Node15</title>
<path fill="none" stroke="midnightblue" d="M649.145,-121.398C619.378,-111.288 568.39,-93.9699 535.455,-82.7835"/>
<polygon fill="midnightblue" stroke="midnightblue" points="536.451,-79.4254 525.856,-79.5234 534.2,-86.0536 536.451,-79.4254"/>
</g>
<!-- Node16&#45;&gt;Node15 -->
<g id="edge24" class="edge"><title>Node16&#45;&gt;Node15</title>
<path fill="none" stroke="midnightblue" d="M470.33,-119.238C475.916,-111.418 483.763,-100.431 490.477,-91.0319"/>
<polygon fill="midnightblue" stroke="midnightblue" points="493.492,-92.8332 496.456,-82.6615 487.796,-88.7645 493.492,-92.8332"/>
</g>
<!-- Node16&#45;&gt;Node17 -->
<g id="edge23" class="edge"><title>Node16&#45;&gt;Node17</title>
<path fill="none" stroke="midnightblue" d="M424.562,-119.238C381.946,-107.861 314.219,-89.7788 276.227,-79.6359"/>
<polygon fill="midnightblue" stroke="midnightblue" points="276.91,-76.1957 266.345,-76.9978 275.104,-82.9588 276.91,-76.1957"/>
</g>
<!-- Node21&#45;&gt;Node3 -->
<g id="edge35" class="edge"><title>Node21&#45;&gt;Node3</title>
<path fill="none" stroke="midnightblue" d="M537.461,-356.895C585.823,-340.112 682.427,-304.201 758,-261 796.447,-239.022 804.283,-230.312 838,-201.6 866.811,-177.066 876.679,-172.757 899,-142.2 910.364,-126.643 919.866,-106.845 926.088,-92.259"/>
<polygon fill="midnightblue" stroke="midnightblue" points="929.455,-93.2745 930.02,-82.6948 922.981,-90.6134 929.455,-93.2745"/>
</g>
<!-- Node21&#45;&gt;Node6 -->
<g id="edge49" class="edge"><title>Node21&#45;&gt;Node6</title>
<path fill="none" stroke="midnightblue" d="M469.65,-358.132C466.729,-357.517 463.82,-356.931 461,-356.4 365.761,-338.472 38,-347.212 38,-250.3 38,-250.3 38,-250.3 38,-129.5 38,-95.6931 38,-56.3821 38,-33.0743"/>
<polygon fill="midnightblue" stroke="midnightblue" points="41.5001,-33.012 38,-23.012 34.5001,-33.012 41.5001,-33.012"/>
</g>
<!-- Node21&#45;&gt;Node9 -->
<g id="edge44" class="edge"><title>Node21&#45;&gt;Node9</title>
<path fill="none" stroke="midnightblue" d="M512.37,-379.661C513.691,-387.072 514.064,-397.217 513.488,-406.171"/>
<polygon fill="midnightblue" stroke="midnightblue" points="509.996,-405.9 512.316,-416.238 516.949,-406.71 509.996,-405.9"/>
</g>
<!-- Node21&#45;&gt;Node10 -->
<g id="edge36" class="edge"><title>Node21&#45;&gt;Node10</title>
<path fill="none" stroke="midnightblue" d="M544.523,-360.895C597.643,-352.078 697.795,-335.334 783,-320.4 784.269,-320.178 785.553,-319.952 786.848,-319.723"/>
<polygon fill="midnightblue" stroke="midnightblue" points="787.679,-323.13 796.912,-317.933 786.453,-316.238 787.679,-323.13"/>
</g>
<!-- Node21&#45;&gt;Node15 -->
<g id="edge45" class="edge"><title>Node21&#45;&gt;Node15</title>
<path fill="none" stroke="midnightblue" d="M469.704,-357.407C385.908,-335.105 190,-279.809 190,-250.3 190,-250.3 190,-250.3 190,-188.9 190,-155.969 188.819,-140.022 214,-118.8 252.587,-86.2789 404.837,-76.1302 471.943,-73.1989"/>
<polygon fill="midnightblue" stroke="midnightblue" points="472.104,-76.6954 481.952,-72.7881 471.816,-69.7013 472.104,-76.6954"/>
</g>
<!-- Node21&#45;&gt;Node17 -->
<g id="edge47" class="edge"><title>Node21&#45;&gt;Node17</title>
<path fill="none" stroke="midnightblue" d="M469.372,-358.217C466.542,-357.589 463.727,-356.977 461,-356.4 334.431,-329.637 255.436,-370.154 186,-261 152.048,-207.628 157.896,-172.076 192,-118.8 199.701,-106.77 211.493,-96.2718 222.273,-88.2927"/>
<polygon fill="midnightblue" stroke="midnightblue" points="224.425,-91.0587 230.604,-82.4525 220.407,-85.3268 224.425,-91.0587"/>
</g>
<!-- Node21&#45;&gt;Node19 -->
<g id="edge46" class="edge"><title>Node21&#45;&gt;Node19</title>
<path fill="none" stroke="midnightblue" d="M478.575,-356.819C459.062,-348.852 433.303,-336.465 414,-320.4 352.763,-269.436 302.33,-187.455 281.407,-150.567"/>
<polygon fill="midnightblue" stroke="midnightblue" points="284.45,-148.837 276.519,-141.812 278.338,-152.25 284.45,-148.837"/>
</g>
<!-- Node22 -->
<g id="node22" class="node"><title>Node22</title>
<g id="a_node22"><a xlink:href="Match_8h.html" target="_top" xlink:title="Match.h">
<polygon fill="white" stroke="black" points="509.172,-297.5 509.172,-319.9 564.828,-319.9 564.828,-297.5 509.172,-297.5"/>
<text text-anchor="middle" x="537" y="-305.1" font-family="-adobe-utopia-medium-i-normal--0-0-0-0-p-0-iso10646-1" font-size="12.00">Match.h</text>
</a>
</g>
</g>
<!-- Node21&#45;&gt;Node22 -->
<g id="edge37" class="edge"><title>Node21&#45;&gt;Node22</title>
<path fill="none" stroke="midnightblue" d="M507.048,-356.838C509.672,-349.099 514.973,-338.258 520.541,-328.923"/>
<polygon fill="midnightblue" stroke="midnightblue" points="523.646,-330.566 526.11,-320.261 517.758,-326.78 523.646,-330.566"/>
</g>
<!-- Node24 -->
<g id="node24" class="node"><title>Node24</title>
<polygon fill="white" stroke="#bfbfbf" points="423.336,-297.5 423.336,-319.9 452.664,-319.9 452.664,-297.5 423.336,-297.5"/>
<text text-anchor="middle" x="438" y="-305.1" font-family="-adobe-utopia-medium-i-normal--0-0-0-0-p-0-iso10646-1" font-size="12.00">set</text>
</g>
<!-- Node21&#45;&gt;Node24 -->
<g id="edge48" class="edge"><title>Node21&#45;&gt;Node24</title>
<path fill="none" stroke="midnightblue" d="M494.664,-356.838C484.683,-348.535 470.409,-336.66 458.684,-326.907"/>
<polygon fill="midnightblue" stroke="midnightblue" points="460.622,-323.966 450.696,-320.261 456.145,-329.347 460.622,-323.966"/>
</g>
<!-- Node22&#45;&gt;Node3 -->
<g id="edge38" class="edge"><title>Node22&#45;&gt;Node3</title>
<path fill="none" stroke="midnightblue" d="M564.904,-304.928C602.947,-300.247 672.37,-288.449 725,-261 810.112,-216.61 887.564,-129.254 919.075,-90.9045"/>
<polygon fill="midnightblue" stroke="midnightblue" points="922.169,-92.6455 925.748,-82.6733 916.731,-88.2371 922.169,-92.6455"/>
</g>
<!-- Node22&#45;&gt;Node11 -->
<g id="edge40" class="edge"><title>Node22&#45;&gt;Node11</title>
<path fill="none" stroke="midnightblue" d="M562.208,-297.438C584.725,-288.271 617.932,-274.753 643.018,-264.541"/>
<polygon fill="midnightblue" stroke="midnightblue" points="644.593,-267.679 652.535,-260.667 641.953,-261.196 644.593,-267.679"/>
</g>
<!-- Node22&#45;&gt;Node12 -->
<g id="edge39" class="edge"><title>Node22&#45;&gt;Node12</title>
<path fill="none" stroke="midnightblue" d="M538.242,-297.335C540.551,-278.076 545.54,-236.455 548.549,-211.346"/>
<polygon fill="midnightblue" stroke="midnightblue" points="552.025,-211.755 549.74,-201.41 545.075,-210.922 552.025,-211.755"/>
</g>
<!-- Node22&#45;&gt;Node18 -->
<g id="edge42" class="edge"><title>Node22&#45;&gt;Node18</title>
<path fill="none" stroke="midnightblue" d="M516.288,-297.327C499.797,-288.636 476.493,-275.371 458,-261 412.779,-225.86 367.207,-175.907 344.253,-149.49"/>
<polygon fill="midnightblue" stroke="midnightblue" points="346.8,-147.085 337.624,-141.789 341.495,-151.651 346.8,-147.085"/>
</g>
<!-- Node22&#45;&gt;Node21 -->
<g id="edge41" class="edge"><title>Node22&#45;&gt;Node21</title>
<path fill="none" stroke="midnightblue" d="M536.85,-320.261C534.157,-328.08 528.819,-338.94 523.244,-348.236"/>
<polygon fill="midnightblue" stroke="midnightblue" points="520.172,-346.541 517.679,-356.838 526.05,-350.343 520.172,-346.541"/>
</g>
<!-- Node23 -->
<g id="node23" class="node"><title>Node23</title>
<polygon fill="white" stroke="#bfbfbf" points="467.334,-238.1 467.334,-260.5 522.666,-260.5 522.666,-238.1 467.334,-238.1"/>
<text text-anchor="middle" x="495" y="-245.7" font-family="-adobe-utopia-medium-i-normal--0-0-0-0-p-0-iso10646-1" font-size="12.00">iomanip</text>
</g>
<!-- Node22&#45;&gt;Node23 -->
<g id="edge43" class="edge"><title>Node22&#45;&gt;Node23</title>
<path fill="none" stroke="midnightblue" d="M529.491,-297.438C523.71,-289.538 515.564,-278.405 508.64,-268.942"/>
<polygon fill="midnightblue" stroke="midnightblue" points="511.458,-266.865 502.728,-260.861 505.808,-270.999 511.458,-266.865"/>
</g>
<!-- Node26&#45;&gt;Node3 -->
<g id="edge59" class="edge"><title>Node26&#45;&gt;Node3</title>
<path fill="none" stroke="midnightblue" d="M1181.16,-535.017C1227.35,-519.984 1299,-487.201 1299,-428.5 1299,-428.5 1299,-428.5 1299,-188.9 1299,-148.745 1276.86,-138.728 1242,-118.8 1201.33,-95.5538 1074.68,-82.3848 997.027,-76.299"/>
<polygon fill="midnightblue" stroke="midnightblue" points="997.114,-72.7955 986.876,-75.5218 996.58,-79.7751 997.114,-72.7955"/>
</g>
<!-- Node26&#45;&gt;Node8 -->
<g id="edge61" class="edge"><title>Node26&#45;&gt;Node8</title>
<path fill="none" stroke="midnightblue" d="M1113.86,-535.038C1087.29,-525.68 1047.83,-511.787 1018.64,-501.506"/>
<polygon fill="midnightblue" stroke="midnightblue" points="1019.76,-498.19 1009.16,-498.17 1017.43,-504.793 1019.76,-498.19"/>
</g>
<!-- Node26&#45;&gt;Node13 -->
<g id="edge60" class="edge"><title>Node26&#45;&gt;Node13</title>
<path fill="none" stroke="midnightblue" d="M1166.31,-535.092C1200.7,-518.269 1261,-481.249 1261,-428.5 1261,-428.5 1261,-428.5 1261,-248.3 1261,-207.075 1226.98,-169.359 1203.88,-148.498"/>
<polygon fill="midnightblue" stroke="midnightblue" points="1206.07,-145.77 1196.23,-141.843 1201.48,-151.049 1206.07,-145.77"/>
</g>
<!-- Node26&#45;&gt;Node15 -->
<g id="edge62" class="edge"><title>Node26&#45;&gt;Node15</title>
<path fill="none" stroke="midnightblue" d="M1136.85,-534.77C1106.38,-483.715 965.552,-261.029 781,-178.2 721.993,-151.717 699.829,-166.768 640,-142.2 620.947,-134.376 618.163,-128.512 600,-118.8 578.608,-107.361 553.995,-95.4115 535.048,-86.4636"/>
<polygon fill="midnightblue" stroke="midnightblue" points="536.512,-83.2844 525.972,-82.2024 533.536,-89.6207 536.512,-83.2844"/>
</g>
<!-- Node27&#45;&gt;Node3 -->
<g id="edge64" class="edge"><title>Node27&#45;&gt;Node3</title>
<path fill="none" stroke="midnightblue" d="M1021.06,-535.047C1041.87,-527.942 1066.04,-516.463 1082,-498.6 1103.85,-474.149 1105,-461.29 1105,-428.5 1105,-428.5 1105,-428.5 1105,-188.9 1105,-131.939 1039.5,-100.746 989.578,-85.2428"/>
<polygon fill="midnightblue" stroke="midnightblue" points="990.407,-81.8382 979.825,-82.3485 988.416,-88.5489 990.407,-81.8382"/>
</g>
<!-- Node27&#45;&gt;Node8 -->
<g id="edge66" class="edge"><title>Node27&#45;&gt;Node8</title>
<path fill="none" stroke="midnightblue" d="M980,-535.038C980,-527.702 980,-517.579 980,-508.593"/>
<polygon fill="midnightblue" stroke="midnightblue" points="983.5,-508.461 980,-498.461 976.5,-508.462 983.5,-508.461"/>
</g>
<!-- Node27&#45;&gt;Node13 -->
<g id="edge65" class="edge"><title>Node27&#45;&gt;Node13</title>
<path fill="none" stroke="midnightblue" d="M1047.6,-535.048C1106.65,-521.804 1183,-492.337 1183,-428.5 1183,-428.5 1183,-428.5 1183,-248.3 1183,-214.493 1183,-175.182 1183,-151.874"/>
<polygon fill="midnightblue" stroke="midnightblue" points="1186.5,-151.812 1183,-141.812 1179.5,-151.812 1186.5,-151.812"/>
</g>
<!-- Node27&#45;&gt;Node15 -->
<g id="edge67" class="edge"><title>Node27&#45;&gt;Node15</title>
<path fill="none" stroke="midnightblue" d="M929.619,-535.045C863.484,-520.241 745.113,-489.055 654,-439.2 603.079,-411.337 599.5,-391.143 553,-356.4 536.376,-343.98 256.556,-160.62 247,-142.2 242.211,-132.968 240.336,-126.784 247,-118.8 275.362,-84.8193 409.903,-75.5074 472.203,-73.001"/>
<polygon fill="midnightblue" stroke="midnightblue" points="472.391,-76.4966 482.255,-72.6309 472.133,-69.5013 472.391,-76.4966"/>
</g>
</g>
</svg>
