<?xml version="1.0" encoding="UTF-8" standalone="no"?>
<!DOCTYPE svg PUBLIC "-//W3C//DTD SVG 1.1//EN"
 "http://www.w3.org/Graphics/SVG/1.1/DTD/svg11.dtd">
<!-- Generated by graphviz version 2.38.0 (20140413.2041)
 -->
<!-- Title: InputManager.h Pages: 1 -->
<svg width="303pt" height="150pt"
 viewBox="0.00 0.00 303.30 150.20" xmlns="http://www.w3.org/2000/svg" xmlns:xlink="http://www.w3.org/1999/xlink">
<g id="graph0" class="graph" transform="scale(1 1) rotate(0) translate(4 146.2)">
<title>InputManager.h</title>
<polygon fill="white" stroke="none" points="-4,4 -4,-146.2 299.304,-146.2 299.304,4 -4,4"/>
<!-- Node1 -->
<g id="node1" class="node"><title>Node1</title>
<polygon fill="#bfbfbf" stroke="black" points="139.669,-119.3 139.669,-141.7 232.64,-141.7 232.64,-119.3 139.669,-119.3"/>
<text text-anchor="middle" x="186.155" y="-126.9" font-family="-adobe-utopia-medium-i-normal--0-0-0-0-p-0-iso10646-1" font-size="12.00">InputManager.h</text>
</g>
<!-- Node2 -->
<g id="node2" class="node"><title>Node2</title>
<g id="a_node2"><a xlink:href="GERMLINE_8h.html" target="_top" xlink:title="GERMLINE.h">
<polygon fill="white" stroke="black" points="85.6634,-59.9 85.6634,-82.3 172.646,-82.3 172.646,-59.9 85.6634,-59.9"/>
<text text-anchor="middle" x="129.155" y="-67.5" font-family="-adobe-utopia-medium-i-normal--0-0-0-0-p-0-iso10646-1" font-size="12.00">GERMLINE.h</text>
</a>
</g>
</g>
<!-- Node1&#45;&gt;Node2 -->
<g id="edge1" class="edge"><title>Node1&#45;&gt;Node2</title>
<path fill="none" stroke="midnightblue" d="M168.851,-112.075C159.323,-102.48 147.81,-90.8867 139.642,-82.6615"/>
<polygon fill="midnightblue" stroke="midnightblue" points="166.434,-114.608 175.964,-119.238 171.401,-109.676 166.434,-114.608"/>
</g>
<!-- Node5 -->
<g id="node5" class="node"><title>Node5</title>
<g id="a_node5"><a xlink:href="InputManager_8cpp.html" target="_top" xlink:title="InputManager.cpp">
<polygon fill="white" stroke="black" points="191.005,-59.9 191.005,-82.3 295.304,-82.3 295.304,-59.9 191.005,-59.9"/>
<text text-anchor="middle" x="243.155" y="-67.5" font-family="-adobe-utopia-medium-i-normal--0-0-0-0-p-0-iso10646-1" font-size="12.00">InputManager.cpp</text>
</a>
</g>
</g>
<!-- Node1&#45;&gt;Node5 -->
<g id="edge4" class="edge"><title>Node1&#45;&gt;Node5</title>
<path fill="none" stroke="midnightblue" d="M203.459,-112.075C212.986,-102.48 224.499,-90.8867 232.667,-82.6615"/>
<polygon fill="midnightblue" stroke="midnightblue" points="200.908,-109.676 196.345,-119.238 205.875,-114.608 200.908,-109.676"/>
</g>
<!-- Node3 -->
<g id="node3" class="node"><title>Node3</title>
<g id="a_node3"><a xlink:href="GERMLINE__0001_8cpp.html" target="_top" xlink:title="GERMLINE_0001.cpp">
<polygon fill="white" stroke="black" points="1.42109e-14,-0.5 1.42109e-14,-22.9 128.309,-22.9 128.309,-0.5 1.42109e-14,-0.5"/>
<text text-anchor="middle" x="64.1546" y="-8.1" font-family="-adobe-utopia-medium-i-normal--0-0-0-0-p-0-iso10646-1" font-size="12.00">GERMLINE_0001.cpp</text>
</a>
</g>
</g>
<!-- Node2&#45;&gt;Node3 -->
<g id="edge2" class="edge"><title>Node2&#45;&gt;Node3</title>
<path fill="none" stroke="midnightblue" d="M109.744,-52.9589C98.8174,-43.3099 85.521,-31.5682 76.1145,-23.2615"/>
<polygon fill="midnightblue" stroke="midnightblue" points="107.721,-55.8422 117.534,-59.838 112.355,-50.5952 107.721,-55.8422"/>
</g>
<!-- Node4 -->
<g id="node4" class="node"><title>Node4</title>
<g id="a_node4"><a xlink:href="GERMLINE_8cpp.html" target="_top" xlink:title="GERMLINE.cpp">
<polygon fill="white" stroke="black" points="146,-0.5 146,-22.9 244.309,-22.9 244.309,-0.5 146,-0.5"/>
<text text-anchor="middle" x="195.155" y="-8.1" font-family="-adobe-utopia-medium-i-normal--0-0-0-0-p-0-iso10646-1" font-size="12.00">GERMLINE.cpp</text>
</a>
</g>
</g>
<!-- Node2&#45;&gt;Node4 -->
<g id="edge3" class="edge"><title>Node2&#45;&gt;Node4</title>
<path fill="none" stroke="midnightblue" d="M148.538,-53.2421C159.693,-43.5405 173.366,-31.6496 183.011,-23.2615"/>
<polygon fill="midnightblue" stroke="midnightblue" points="146.203,-50.6347 140.954,-59.838 150.797,-55.9166 146.203,-50.6347"/>
</g>
</g>
</svg>
