<?xml version="1.0" encoding="UTF-8" standalone="no"?>
<!DOCTYPE svg PUBLIC "-//W3C//DTD SVG 1.1//EN"
 "http://www.w3.org/Graphics/SVG/1.1/DTD/svg11.dtd">
<!-- Generated by graphviz version 2.38.0 (20140413.2041)
 -->
<!-- Title: MarkerSet.h Pages: 1 -->
<svg width="1158pt" height="447pt"
 viewBox="0.00 0.00 1157.97 447.20" xmlns="http://www.w3.org/2000/svg" xmlns:xlink="http://www.w3.org/1999/xlink">
<g id="graph0" class="graph" transform="scale(1 1) rotate(0) translate(4 443.2)">
<title>MarkerSet.h</title>
<polygon fill="white" stroke="none" points="-4,4 -4,-443.2 1153.97,-443.2 1153.97,4 -4,4"/>
<!-- Node1 -->
<g id="node1" class="node"><title>Node1</title>
<polygon fill="#bfbfbf" stroke="black" points="978.665,-416.3 978.665,-438.7 1054.31,-438.7 1054.31,-416.3 978.665,-416.3"/>
<text text-anchor="middle" x="1016.49" y="-423.9" font-family="-adobe-utopia-medium-i-normal--0-0-0-0-p-0-iso10646-1" font-size="12.00">MarkerSet.h</text>
</g>
<!-- Node2 -->
<g id="node2" class="node"><title>Node2</title>
<g id="a_node2"><a xlink:href="Chromosome_8h.html" target="_top" xlink:title="Chromosome.h">
<polygon fill="white" stroke="black" points="673.655,-356.9 673.655,-379.3 763.316,-379.3 763.316,-356.9 673.655,-356.9"/>
<text text-anchor="middle" x="718.486" y="-364.5" font-family="-adobe-utopia-medium-i-normal--0-0-0-0-p-0-iso10646-1" font-size="12.00">Chromosome.h</text>
</a>
</g>
</g>
<!-- Node1&#45;&gt;Node2 -->
<g id="edge1" class="edge"><title>Node1&#45;&gt;Node2</title>
<path fill="none" stroke="midnightblue" d="M968.313,-417.221C911.695,-406.315 818.489,-388.362 763.347,-377.741"/>
<polygon fill="midnightblue" stroke="midnightblue" points="967.96,-420.717 978.441,-419.172 969.284,-413.844 967.96,-420.717"/>
</g>
<!-- Node18 -->
<g id="node18" class="node"><title>Node18</title>
<g id="a_node18"><a xlink:href="Match_8h.html" target="_top" xlink:title="Match.h">
<polygon fill="white" stroke="black" points="1061.66,-178.7 1061.66,-201.1 1117.31,-201.1 1117.31,-178.7 1061.66,-178.7"/>
<text text-anchor="middle" x="1089.49" y="-186.3" font-family="-adobe-utopia-medium-i-normal--0-0-0-0-p-0-iso10646-1" font-size="12.00">Match.h</text>
</a>
</g>
</g>
<!-- Node1&#45;&gt;Node18 -->
<g id="edge37" class="edge"><title>Node1&#45;&gt;Node18</title>
<path fill="none" stroke="midnightblue" d="M1022.7,-406.459C1037.62,-358.279 1075.11,-237.282 1086.29,-201.207"/>
<polygon fill="midnightblue" stroke="midnightblue" points="1019.33,-405.485 1019.72,-416.073 1026.02,-407.556 1019.33,-405.485"/>
</g>
<!-- Node20 -->
<g id="node20" class="node"><title>Node20</title>
<g id="a_node20"><a xlink:href="MatchFactory_8h.html" target="_top" xlink:title="MatchFactory.h">
<polygon fill="white" stroke="black" points="951.331,-178.7 951.331,-201.1 1043.64,-201.1 1043.64,-178.7 951.331,-178.7"/>
<text text-anchor="middle" x="997.486" y="-186.3" font-family="-adobe-utopia-medium-i-normal--0-0-0-0-p-0-iso10646-1" font-size="12.00">MatchFactory.h</text>
</a>
</g>
</g>
<!-- Node1&#45;&gt;Node20 -->
<g id="edge38" class="edge"><title>Node1&#45;&gt;Node20</title>
<path fill="none" stroke="midnightblue" d="M1014.82,-405.848C1010.9,-357.264 1001.21,-237.13 998.317,-201.207"/>
<polygon fill="midnightblue" stroke="midnightblue" points="1011.35,-406.386 1015.64,-416.073 1018.33,-405.824 1011.35,-406.386"/>
</g>
<!-- Node28 -->
<g id="node28" class="node"><title>Node28</title>
<g id="a_node28"><a xlink:href="MarkerSet_8cpp.html" target="_top" xlink:title="MarkerSet.cpp">
<polygon fill="white" stroke="black" points="1063,-356.9 1063,-379.3 1149.97,-379.3 1149.97,-356.9 1063,-356.9"/>
<text text-anchor="middle" x="1106.49" y="-364.5" font-family="-adobe-utopia-medium-i-normal--0-0-0-0-p-0-iso10646-1" font-size="12.00">MarkerSet.cpp</text>
</a>
</g>
</g>
<!-- Node1&#45;&gt;Node28 -->
<g id="edge39" class="edge"><title>Node1&#45;&gt;Node28</title>
<path fill="none" stroke="midnightblue" d="M1041.22,-410.726C1056.84,-400.765 1076.57,-388.178 1090.23,-379.467"/>
<polygon fill="midnightblue" stroke="midnightblue" points="1039.13,-407.91 1032.58,-416.238 1042.89,-413.812 1039.13,-407.91"/>
</g>
<!-- Node3 -->
<g id="node3" class="node"><title>Node3</title>
<g id="a_node3"><a xlink:href="Individuals_8h.html" target="_top" xlink:title="Individuals.h">
<polygon fill="white" stroke="black" points="678.989,-297.5 678.989,-319.9 757.982,-319.9 757.982,-297.5 678.989,-297.5"/>
<text text-anchor="middle" x="718.486" y="-305.1" font-family="-adobe-utopia-medium-i-normal--0-0-0-0-p-0-iso10646-1" font-size="12.00">Individuals.h</text>
</a>
</g>
</g>
<!-- Node2&#45;&gt;Node3 -->
<g id="edge2" class="edge"><title>Node2&#45;&gt;Node3</title>
<path fill="none" stroke="midnightblue" d="M718.486,-346.771C718.486,-337.817 718.486,-327.672 718.486,-320.261"/>
<polygon fill="midnightblue" stroke="midnightblue" points="714.986,-346.838 718.486,-356.838 721.986,-346.838 714.986,-346.838"/>
</g>
<!-- Node17 -->
<g id="node17" class="node"><title>Node17</title>
<g id="a_node17"><a xlink:href="Individual_8h.html" target="_top" xlink:title="Individual.h">
<polygon fill="white" stroke="black" points="817.323,-238.1 817.323,-260.5 891.649,-260.5 891.649,-238.1 817.323,-238.1"/>
<text text-anchor="middle" x="854.486" y="-245.7" font-family="-adobe-utopia-medium-i-normal--0-0-0-0-p-0-iso10646-1" font-size="12.00">Individual.h</text>
</a>
</g>
</g>
<!-- Node2&#45;&gt;Node17 -->
<g id="edge33" class="edge"><title>Node2&#45;&gt;Node17</title>
<path fill="none" stroke="midnightblue" d="M738.275,-350.105C766.814,-325.595 818.682,-281.049 842.248,-260.81"/>
<polygon fill="midnightblue" stroke="midnightblue" points="735.861,-347.564 730.555,-356.735 740.422,-352.875 735.861,-347.564"/>
</g>
<!-- Node25 -->
<g id="node25" class="node"><title>Node25</title>
<g id="a_node25"><a xlink:href="Chromosome_8cpp.html" target="_top" xlink:title="Chromosome.cpp">
<polygon fill="white" stroke="black" points="432.992,-297.5 432.992,-319.9 533.98,-319.9 533.98,-297.5 432.992,-297.5"/>
<text text-anchor="middle" x="483.486" y="-305.1" font-family="-adobe-utopia-medium-i-normal--0-0-0-0-p-0-iso10646-1" font-size="12.00">Chromosome.cpp</text>
</a>
</g>
</g>
<!-- Node2&#45;&gt;Node25 -->
<g id="edge34" class="edge"><title>Node2&#45;&gt;Node25</title>
<path fill="none" stroke="midnightblue" d="M666.617,-354.431C624.212,-344.073 565.019,-329.615 525.531,-319.97"/>
<polygon fill="midnightblue" stroke="midnightblue" points="665.928,-357.865 676.473,-356.838 667.589,-351.065 665.928,-357.865"/>
</g>
<!-- Node26 -->
<g id="node26" class="node"><title>Node26</title>
<g id="a_node26"><a xlink:href="ChromosomePair_8h.html" target="_top" xlink:title="ChromosomePair.h">
<polygon fill="white" stroke="black" points="551.992,-297.5 551.992,-319.9 660.98,-319.9 660.98,-297.5 551.992,-297.5"/>
<text text-anchor="middle" x="606.486" y="-305.1" font-family="-adobe-utopia-medium-i-normal--0-0-0-0-p-0-iso10646-1" font-size="12.00">ChromosomePair.h</text>
</a>
</g>
</g>
<!-- Node2&#45;&gt;Node26 -->
<g id="edge35" class="edge"><title>Node2&#45;&gt;Node26</title>
<path fill="none" stroke="midnightblue" d="M689.329,-352.157C669.654,-342.074 644.187,-329.022 626.713,-320.067"/>
<polygon fill="midnightblue" stroke="midnightblue" points="687.967,-355.392 698.462,-356.838 691.159,-349.162 687.967,-355.392"/>
</g>
<!-- Node4 -->
<g id="node4" class="node"><title>Node4</title>
<g id="a_node4"><a xlink:href="PolymorphicIndividualsExtractor_8h.html" target="_top" xlink:title="PolymorphicIndividualsExtractor.h">
<polygon fill="white" stroke="black" points="476.669,-238.1 476.669,-260.5 662.302,-260.5 662.302,-238.1 476.669,-238.1"/>
<text text-anchor="middle" x="569.486" y="-245.7" font-family="-adobe-utopia-medium-i-normal--0-0-0-0-p-0-iso10646-1" font-size="12.00">PolymorphicIndividualsExtractor.h</text>
</a>
</g>
</g>
<!-- Node3&#45;&gt;Node4 -->
<g id="edge3" class="edge"><title>Node3&#45;&gt;Node4</title>
<path fill="none" stroke="midnightblue" d="M682.491,-293.833C655.88,-283.582 620.231,-269.849 596.144,-260.57"/>
<polygon fill="midnightblue" stroke="midnightblue" points="681.258,-297.109 691.848,-297.438 683.774,-290.577 681.258,-297.109"/>
</g>
<!-- Node5 -->
<g id="node5" class="node"><title>Node5</title>
<g id="a_node5"><a xlink:href="InputManager_8h.html" target="_top" xlink:title="InputManager.h">
<polygon fill="white" stroke="black" points="-7.81597e-14,-178.7 -7.81597e-14,-201.1 92.9716,-201.1 92.9716,-178.7 -7.81597e-14,-178.7"/>
<text text-anchor="middle" x="46.4858" y="-186.3" font-family="-adobe-utopia-medium-i-normal--0-0-0-0-p-0-iso10646-1" font-size="12.00">InputManager.h</text>
</a>
</g>
</g>
<!-- Node3&#45;&gt;Node5 -->
<g id="edge29" class="edge"><title>Node3&#45;&gt;Node5</title>
<path fill="none" stroke="midnightblue" d="M669.037,-297.026C578.097,-280.186 549.786,-292.369 467.486,-261 448.952,-253.936 448.245,-244.042 429.486,-237.6 291.202,-190.111 247.072,-223.337 102.486,-201.6 99.4515,-201.144 96.3309,-200.641 93.1894,-200.11"/>
<polygon fill="midnightblue" stroke="midnightblue" points="668.452,-300.477 678.933,-298.926 669.772,-293.603 668.452,-300.477"/>
</g>
<!-- Node6 -->
<g id="node6" class="node"><title>Node6</title>
<g id="a_node6"><a xlink:href="GERMLINE_8h.html" target="_top" xlink:title="GERMLINE.h">
<polygon fill="white" stroke="black" points="635.995,-59.9 635.995,-82.3 722.977,-82.3 722.977,-59.9 635.995,-59.9"/>
<text text-anchor="middle" x="679.486" y="-67.5" font-family="-adobe-utopia-medium-i-normal--0-0-0-0-p-0-iso10646-1" font-size="12.00">GERMLINE.h</text>
</a>
</g>
</g>
<!-- Node3&#45;&gt;Node6 -->
<g id="edge30" class="edge"><title>Node3&#45;&gt;Node6</title>
<path fill="none" stroke="midnightblue" d="M715.118,-287.354C707.109,-238.971 687.151,-118.406 681.192,-82.407"/>
<polygon fill="midnightblue" stroke="midnightblue" points="711.673,-287.978 716.76,-297.273 718.58,-286.835 711.673,-287.978"/>
</g>
<!-- Node10 -->
<g id="node10" class="node"><title>Node10</title>
<g id="a_node10"><a xlink:href="MatchesBuilder_8h.html" target="_top" xlink:title="MatchesBuilder.h">
<polygon fill="white" stroke="black" points="727.664,-119.3 727.664,-141.7 829.307,-141.7 829.307,-119.3 727.664,-119.3"/>
<text text-anchor="middle" x="778.486" y="-126.9" font-family="-adobe-utopia-medium-i-normal--0-0-0-0-p-0-iso10646-1" font-size="12.00">MatchesBuilder.h</text>
</a>
</g>
</g>
<!-- Node3&#45;&gt;Node10 -->
<g id="edge31" class="edge"><title>Node3&#45;&gt;Node10</title>
<path fill="none" stroke="midnightblue" d="M723.401,-287.405C729.877,-261.636 742.142,-215.981 756.486,-178.2 761.321,-165.464 768.17,-151.389 772.937,-142.054"/>
<polygon fill="midnightblue" stroke="midnightblue" points="719.92,-286.901 720.918,-297.449 726.716,-288.581 719.92,-286.901"/>
</g>
<!-- Node3&#45;&gt;Node17 -->
<g id="edge19" class="edge"><title>Node3&#45;&gt;Node17</title>
<path fill="none" stroke="midnightblue" d="M746.653,-293.304C769.461,-283.149 801.328,-269.785 824.589,-260.667"/>
<polygon fill="midnightblue" stroke="midnightblue" points="745.162,-290.137 737.484,-297.438 748.039,-296.519 745.162,-290.137"/>
</g>
<!-- Node24 -->
<g id="node24" class="node"><title>Node24</title>
<g id="a_node24"><a xlink:href="Individuals_8cpp.html" target="_top" xlink:title="Individuals.cpp">
<polygon fill="white" stroke="black" points="330.326,-238.1 330.326,-260.5 420.646,-260.5 420.646,-238.1 330.326,-238.1"/>
<text text-anchor="middle" x="375.486" y="-245.7" font-family="-adobe-utopia-medium-i-normal--0-0-0-0-p-0-iso10646-1" font-size="12.00">Individuals.cpp</text>
</a>
</g>
</g>
<!-- Node3&#45;&gt;Node24 -->
<g id="edge32" class="edge"><title>Node3&#45;&gt;Node24</title>
<path fill="none" stroke="midnightblue" d="M668.887,-296.983C563.898,-277.746 535.546,-277.902 434.486,-261 430.071,-260.262 425.474,-259.469 420.882,-258.662"/>
<polygon fill="midnightblue" stroke="midnightblue" points="668.479,-300.467 678.949,-298.843 669.751,-293.583 668.479,-300.467"/>
</g>
<!-- Node4&#45;&gt;Node5 -->
<g id="edge4" class="edge"><title>Node4&#45;&gt;Node5</title>
<path fill="none" stroke="midnightblue" d="M466.511,-238.003C328.993,-224.251 102.486,-201.6 102.486,-201.6 99.4492,-201.159 96.3269,-200.668 93.1842,-200.145"/>
<polygon fill="midnightblue" stroke="midnightblue" points="466.365,-241.505 476.663,-239.018 467.061,-234.54 466.365,-241.505"/>
</g>
<!-- Node4&#45;&gt;Node10 -->
<g id="edge9" class="edge"><title>Node4&#45;&gt;Node10</title>
<path fill="none" stroke="midnightblue" d="M596.876,-232.993C640.115,-208.829 723.064,-162.472 759.98,-141.842"/>
<polygon fill="midnightblue" stroke="midnightblue" points="595.055,-230.001 588.033,-237.935 598.47,-236.112 595.055,-230.001"/>
</g>
<!-- Node12 -->
<g id="node12" class="node"><title>Node12</title>
<g id="a_node12"><a xlink:href="HMIndividualsExtractor_8h.html" target="_top" xlink:title="HMIndividualsExtractor.h">
<polygon fill="white" stroke="black" points="326.003,-178.7 326.003,-201.1 468.969,-201.1 468.969,-178.7 326.003,-178.7"/>
<text text-anchor="middle" x="397.486" y="-186.3" font-family="-adobe-utopia-medium-i-normal--0-0-0-0-p-0-iso10646-1" font-size="12.00">HMIndividualsExtractor.h</text>
</a>
</g>
</g>
<!-- Node4&#45;&gt;Node12 -->
<g id="edge12" class="edge"><title>Node4&#45;&gt;Node12</title>
<path fill="none" stroke="midnightblue" d="M529.142,-234.836C498.301,-224.544 456.43,-210.571 428.259,-201.17"/>
<polygon fill="midnightblue" stroke="midnightblue" points="528.142,-238.192 538.736,-238.038 530.358,-231.552 528.142,-238.192"/>
</g>
<!-- Node14 -->
<g id="node14" class="node"><title>Node14</title>
<g id="a_node14"><a xlink:href="PEDIndividualsExtractor_8h.html" target="_top" xlink:title="PEDIndividualsExtractor.h">
<polygon fill="white" stroke="black" points="487.335,-178.7 487.335,-201.1 633.636,-201.1 633.636,-178.7 487.335,-178.7"/>
<text text-anchor="middle" x="560.486" y="-186.3" font-family="-adobe-utopia-medium-i-normal--0-0-0-0-p-0-iso10646-1" font-size="12.00">PEDIndividualsExtractor.h</text>
</a>
</g>
</g>
<!-- Node4&#45;&gt;Node14 -->
<g id="edge15" class="edge"><title>Node4&#45;&gt;Node14</title>
<path fill="none" stroke="midnightblue" d="M566.298,-227.971C564.894,-219.017 563.304,-208.872 562.142,-201.461"/>
<polygon fill="midnightblue" stroke="midnightblue" points="562.87,-228.701 567.877,-238.038 569.785,-227.617 562.87,-228.701"/>
</g>
<!-- Node16 -->
<g id="node16" class="node"><title>Node16</title>
<g id="a_node16"><a xlink:href="PolymorphicIndividualsExtractor_8cpp.html" target="_top" xlink:title="PolymorphicIndividualsExtractor.cpp">
<polygon fill="white" stroke="black" points="111.006,-178.7 111.006,-201.1 307.966,-201.1 307.966,-178.7 111.006,-178.7"/>
<text text-anchor="middle" x="209.486" y="-186.3" font-family="-adobe-utopia-medium-i-normal--0-0-0-0-p-0-iso10646-1" font-size="12.00">PolymorphicIndividualsExtractor.cpp</text>
</a>
</g>
</g>
<!-- Node4&#45;&gt;Node16 -->
<g id="edge18" class="edge"><title>Node4&#45;&gt;Node16</title>
<path fill="none" stroke="midnightblue" d="M494.894,-236.407C429.556,-225.989 335.608,-211.01 273.592,-201.121"/>
<polygon fill="midnightblue" stroke="midnightblue" points="494.699,-239.92 505.125,-238.038 495.801,-233.007 494.699,-239.92"/>
</g>
<!-- Node5&#45;&gt;Node6 -->
<g id="edge5" class="edge"><title>Node5&#45;&gt;Node6</title>
<path fill="none" stroke="midnightblue" d="M71.0484,-173.421C98.6925,-156.838 145.501,-131.229 189.486,-118.8 272.954,-95.2133 532.159,-79.6687 635.908,-74.2432"/>
<polygon fill="midnightblue" stroke="midnightblue" points="69.158,-170.474 62.4399,-178.667 72.8007,-176.452 69.158,-170.474"/>
</g>
<!-- Node9 -->
<g id="node9" class="node"><title>Node9</title>
<g id="a_node9"><a xlink:href="InputManager_8cpp.html" target="_top" xlink:title="InputManager.cpp">
<polygon fill="white" stroke="black" points="198.337,-119.3 198.337,-141.7 302.635,-141.7 302.635,-119.3 198.337,-119.3"/>
<text text-anchor="middle" x="250.486" y="-126.9" font-family="-adobe-utopia-medium-i-normal--0-0-0-0-p-0-iso10646-1" font-size="12.00">InputManager.cpp</text>
</a>
</g>
</g>
<!-- Node5&#45;&gt;Node9 -->
<g id="edge8" class="edge"><title>Node5&#45;&gt;Node9</title>
<path fill="none" stroke="midnightblue" d="M92.9175,-175.835C129.621,-165.508 180.142,-151.293 213.987,-141.77"/>
<polygon fill="midnightblue" stroke="midnightblue" points="91.6351,-172.56 82.9569,-178.638 93.5311,-179.299 91.6351,-172.56"/>
</g>
<!-- Node7 -->
<g id="node7" class="node"><title>Node7</title>
<g id="a_node7"><a xlink:href="GERMLINE__0001_8cpp.html" target="_top" xlink:title="GERMLINE_0001.cpp">
<polygon fill="white" stroke="black" points="550.331,-0.5 550.331,-22.9 678.64,-22.9 678.64,-0.5 550.331,-0.5"/>
<text text-anchor="middle" x="614.486" y="-8.1" font-family="-adobe-utopia-medium-i-normal--0-0-0-0-p-0-iso10646-1" font-size="12.00">GERMLINE_0001.cpp</text>
</a>
</g>
</g>
<!-- Node6&#45;&gt;Node7 -->
<g id="edge6" class="edge"><title>Node6&#45;&gt;Node7</title>
<path fill="none" stroke="midnightblue" d="M660.075,-52.9589C649.149,-43.3099 635.852,-31.5682 626.446,-23.2615"/>
<polygon fill="midnightblue" stroke="midnightblue" points="658.053,-55.8422 667.865,-59.838 662.686,-50.5952 658.053,-55.8422"/>
</g>
<!-- Node8 -->
<g id="node8" class="node"><title>Node8</title>
<g id="a_node8"><a xlink:href="GERMLINE_8cpp.html" target="_top" xlink:title="GERMLINE.cpp">
<polygon fill="white" stroke="black" points="696.331,-0.5 696.331,-22.9 794.64,-22.9 794.64,-0.5 696.331,-0.5"/>
<text text-anchor="middle" x="745.486" y="-8.1" font-family="-adobe-utopia-medium-i-normal--0-0-0-0-p-0-iso10646-1" font-size="12.00">GERMLINE.cpp</text>
</a>
</g>
</g>
<!-- Node6&#45;&gt;Node8 -->
<g id="edge7" class="edge"><title>Node6&#45;&gt;Node8</title>
<path fill="none" stroke="midnightblue" d="M698.869,-53.2421C710.025,-43.5405 723.697,-31.6496 733.342,-23.2615"/>
<polygon fill="midnightblue" stroke="midnightblue" points="696.534,-50.6347 691.285,-59.838 701.128,-55.9166 696.534,-50.6347"/>
</g>
<!-- Node10&#45;&gt;Node6 -->
<g id="edge10" class="edge"><title>Node10&#45;&gt;Node6</title>
<path fill="none" stroke="midnightblue" d="M751.76,-114.004C734.505,-104 712.53,-91.2592 697.366,-82.4667"/>
<polygon fill="midnightblue" stroke="midnightblue" points="750.38,-117.25 760.787,-119.238 753.891,-111.194 750.38,-117.25"/>
</g>
<!-- Node11 -->
<g id="node11" class="node"><title>Node11</title>
<g id="a_node11"><a xlink:href="MatchesBuilder_8cpp.html" target="_top" xlink:title="MatchesBuilder.cpp">
<polygon fill="white" stroke="black" points="741.001,-59.9 741.001,-82.3 853.971,-82.3 853.971,-59.9 741.001,-59.9"/>
<text text-anchor="middle" x="797.486" y="-67.5" font-family="-adobe-utopia-medium-i-normal--0-0-0-0-p-0-iso10646-1" font-size="12.00">MatchesBuilder.cpp</text>
</a>
</g>
</g>
<!-- Node10&#45;&gt;Node11 -->
<g id="edge11" class="edge"><title>Node10&#45;&gt;Node11</title>
<path fill="none" stroke="midnightblue" d="M785.117,-109.466C788.105,-100.441 791.51,-90.1538 793.99,-82.6615"/>
<polygon fill="midnightblue" stroke="midnightblue" points="781.702,-108.645 781.883,-119.238 788.348,-110.844 781.702,-108.645"/>
</g>
<!-- Node12&#45;&gt;Node9 -->
<g id="edge14" class="edge"><title>Node12&#45;&gt;Node9</title>
<path fill="none" stroke="midnightblue" d="M361.659,-174.911C335.531,-164.708 300.699,-151.107 277.035,-141.867"/>
<polygon fill="midnightblue" stroke="midnightblue" points="360.617,-178.261 371.205,-178.638 363.163,-171.74 360.617,-178.261"/>
</g>
<!-- Node13 -->
<g id="node13" class="node"><title>Node13</title>
<g id="a_node13"><a xlink:href="HMIndividualsExtractor_8cpp.html" target="_top" xlink:title="HMIndividualsExtractor.cpp">
<polygon fill="white" stroke="black" points="320.339,-119.3 320.339,-141.7 474.632,-141.7 474.632,-119.3 320.339,-119.3"/>
<text text-anchor="middle" x="397.486" y="-126.9" font-family="-adobe-utopia-medium-i-normal--0-0-0-0-p-0-iso10646-1" font-size="12.00">HMIndividualsExtractor.cpp</text>
</a>
</g>
</g>
<!-- Node12&#45;&gt;Node13 -->
<g id="edge13" class="edge"><title>Node12&#45;&gt;Node13</title>
<path fill="none" stroke="midnightblue" d="M397.486,-168.571C397.486,-159.617 397.486,-149.472 397.486,-142.061"/>
<polygon fill="midnightblue" stroke="midnightblue" points="393.986,-168.638 397.486,-178.638 400.986,-168.638 393.986,-168.638"/>
</g>
<!-- Node14&#45;&gt;Node9 -->
<g id="edge16" class="edge"><title>Node14&#45;&gt;Node9</title>
<path fill="none" stroke="midnightblue" d="M495.037,-176.781C437.815,-166.186 355.809,-151.002 302.846,-141.195"/>
<polygon fill="midnightblue" stroke="midnightblue" points="494.594,-180.259 505.064,-178.638 495.868,-173.376 494.594,-180.259"/>
</g>
<!-- Node15 -->
<g id="node15" class="node"><title>Node15</title>
<g id="a_node15"><a xlink:href="PEDIndividualsExtractor_8cpp.html" target="_top" xlink:title="PEDIndividualsExtractor.cpp">
<polygon fill="white" stroke="black" points="492.672,-119.3 492.672,-141.7 650.3,-141.7 650.3,-119.3 492.672,-119.3"/>
<text text-anchor="middle" x="571.486" y="-126.9" font-family="-adobe-utopia-medium-i-normal--0-0-0-0-p-0-iso10646-1" font-size="12.00">PEDIndividualsExtractor.cpp</text>
</a>
</g>
</g>
<!-- Node14&#45;&gt;Node15 -->
<g id="edge17" class="edge"><title>Node14&#45;&gt;Node15</title>
<path fill="none" stroke="midnightblue" d="M564.382,-168.571C566.097,-159.617 568.042,-149.472 569.462,-142.061"/>
<polygon fill="midnightblue" stroke="midnightblue" points="560.897,-168.158 562.452,-178.638 567.772,-169.476 560.897,-168.158"/>
</g>
<!-- Node17&#45;&gt;Node3 -->
<g id="edge20" class="edge"><title>Node17&#45;&gt;Node3</title>
<path fill="none" stroke="midnightblue" d="M826.056,-264.813C803.179,-274.992 771.31,-288.353 748.116,-297.438"/>
<polygon fill="midnightblue" stroke="midnightblue" points="827.579,-267.965 835.259,-260.667 824.704,-261.583 827.579,-267.965"/>
</g>
<!-- Node17&#45;&gt;Node18 -->
<g id="edge21" class="edge"><title>Node17&#45;&gt;Node18</title>
<path fill="none" stroke="midnightblue" d="M901.873,-236.128C940.216,-227.104 995.349,-214.229 1043.49,-201.6 1049.18,-200.107 1055.33,-198.376 1061.32,-196.747"/>
<polygon fill="midnightblue" stroke="midnightblue" points="900.944,-232.751 892.014,-238.452 902.55,-239.564 900.944,-232.751"/>
</g>
<!-- Node17&#45;&gt;Node20 -->
<g id="edge24" class="edge"><title>Node17&#45;&gt;Node20</title>
<path fill="none" stroke="midnightblue" d="M889.338,-234.311C914.755,-224.108 948.639,-210.507 971.659,-201.267"/>
<polygon fill="midnightblue" stroke="midnightblue" points="888.028,-231.065 880.051,-238.038 890.635,-237.561 888.028,-231.065"/>
</g>
<!-- Node22 -->
<g id="node22" class="node"><title>Node22</title>
<g id="a_node22"><a xlink:href="Share_8cpp.html" target="_top" xlink:title="Share.cpp">
<polygon fill="white" stroke="black" points="869.663,-178.7 869.663,-201.1 933.309,-201.1 933.309,-178.7 869.663,-178.7"/>
<text text-anchor="middle" x="901.486" y="-186.3" font-family="-adobe-utopia-medium-i-normal--0-0-0-0-p-0-iso10646-1" font-size="12.00">Share.cpp</text>
</a>
</g>
</g>
<!-- Node17&#45;&gt;Node22 -->
<g id="edge27" class="edge"><title>Node17&#45;&gt;Node22</title>
<path fill="none" stroke="midnightblue" d="M869.458,-230.014C877.172,-220.594 886.303,-209.442 892.838,-201.461"/>
<polygon fill="midnightblue" stroke="midnightblue" points="866.516,-228.083 862.888,-238.038 871.932,-232.518 866.516,-228.083"/>
</g>
<!-- Node23 -->
<g id="node23" class="node"><title>Node23</title>
<g id="a_node23"><a xlink:href="Individual_8cpp.html" target="_top" xlink:title="Individual.cpp">
<polygon fill="white" stroke="black" points="765.659,-178.7 765.659,-201.1 851.312,-201.1 851.312,-178.7 765.659,-178.7"/>
<text text-anchor="middle" x="808.486" y="-186.3" font-family="-adobe-utopia-medium-i-normal--0-0-0-0-p-0-iso10646-1" font-size="12.00">Individual.cpp</text>
</a>
</g>
</g>
<!-- Node17&#45;&gt;Node23 -->
<g id="edge28" class="edge"><title>Node17&#45;&gt;Node23</title>
<path fill="none" stroke="midnightblue" d="M839.832,-230.014C832.283,-220.594 823.346,-209.442 816.95,-201.461"/>
<polygon fill="midnightblue" stroke="midnightblue" points="837.277,-232.423 846.262,-238.038 842.739,-228.046 837.277,-232.423"/>
</g>
<!-- Node18&#45;&gt;Node17 -->
<g id="edge22" class="edge"><title>Node18&#45;&gt;Node17</title>
<path fill="none" stroke="midnightblue" d="M1053.08,-203.782C995.242,-218.72 931.259,-233.273 891.741,-241.495"/>
<polygon fill="midnightblue" stroke="midnightblue" points="1054.25,-207.093 1063.05,-201.187 1052.49,-200.319 1054.25,-207.093"/>
</g>
<!-- Node19 -->
<g id="node19" class="node"><title>Node19</title>
<g id="a_node19"><a xlink:href="Match_8cpp.html" target="_top" xlink:title="Match.cpp">
<polygon fill="white" stroke="black" points="1060.99,-119.3 1060.99,-141.7 1127.98,-141.7 1127.98,-119.3 1060.99,-119.3"/>
<text text-anchor="middle" x="1094.49" y="-126.9" font-family="-adobe-utopia-medium-i-normal--0-0-0-0-p-0-iso10646-1" font-size="12.00">Match.cpp</text>
</a>
</g>
</g>
<!-- Node18&#45;&gt;Node19 -->
<g id="edge23" class="edge"><title>Node18&#45;&gt;Node19</title>
<path fill="none" stroke="midnightblue" d="M1091.26,-168.571C1092.04,-159.617 1092.92,-149.472 1093.57,-142.061"/>
<polygon fill="midnightblue" stroke="midnightblue" points="1087.76,-168.372 1090.38,-178.638 1094.73,-168.98 1087.76,-168.372"/>
</g>
<!-- Node20&#45;&gt;Node10 -->
<g id="edge25" class="edge"><title>Node20&#45;&gt;Node10</title>
<path fill="none" stroke="midnightblue" d="M948.647,-176.099C909.166,-165.751 854.313,-151.374 817.668,-141.77"/>
<polygon fill="midnightblue" stroke="midnightblue" points="947.772,-179.488 958.333,-178.638 949.547,-172.717 947.772,-179.488"/>
</g>
<!-- Node21 -->
<g id="node21" class="node"><title>Node21</title>
<g id="a_node21"><a xlink:href="MatchFactory_8cpp.html" target="_top" xlink:title="MatchFactory.cpp">
<polygon fill="white" stroke="black" points="939.668,-119.3 939.668,-141.7 1043.3,-141.7 1043.3,-119.3 939.668,-119.3"/>
<text text-anchor="middle" x="991.486" y="-126.9" font-family="-adobe-utopia-medium-i-normal--0-0-0-0-p-0-iso10646-1" font-size="12.00">MatchFactory.cpp</text>
</a>
</g>
</g>
<!-- Node20&#45;&gt;Node21 -->
<g id="edge26" class="edge"><title>Node20&#45;&gt;Node21</title>
<path fill="none" stroke="midnightblue" d="M995.361,-168.571C994.425,-159.617 993.364,-149.472 992.59,-142.061"/>
<polygon fill="midnightblue" stroke="midnightblue" points="991.892,-169.056 996.413,-178.638 998.854,-168.328 991.892,-169.056"/>
</g>
<!-- Node27 -->
<g id="node27" class="node"><title>Node27</title>
<g id="a_node27"><a xlink:href="ChromosomePair_8cpp.html" target="_top" xlink:title="ChromosomePair.cpp">
<polygon fill="white" stroke="black" points="192.328,-238.1 192.328,-260.5 312.643,-260.5 312.643,-238.1 192.328,-238.1"/>
<text text-anchor="middle" x="252.486" y="-245.7" font-family="-adobe-utopia-medium-i-normal--0-0-0-0-p-0-iso10646-1" font-size="12.00">ChromosomePair.cpp</text>
</a>
</g>
</g>
<!-- Node26&#45;&gt;Node27 -->
<g id="edge36" class="edge"><title>Node26&#45;&gt;Node27</title>
<path fill="none" stroke="midnightblue" d="M541.805,-296.895C456.344,-282.888 369.258,-268.92 312.766,-259.899"/>
<polygon fill="midnightblue" stroke="midnightblue" points="541.242,-300.349 551.677,-298.514 542.375,-293.442 541.242,-300.349"/>
</g>
</g>
</svg>
