<?xml version="1.0" encoding="UTF-8" standalone="no"?>
<!DOCTYPE svg PUBLIC "-//W3C//DTD SVG 1.1//EN"
 "http://www.w3.org/Graphics/SVG/1.1/DTD/svg11.dtd">
<!-- Generated by graphviz version 2.38.0 (20140413.2041)
 -->
<!-- Title: MatchFactory.h Pages: 1 -->
<svg width="369pt" height="210pt"
 viewBox="0.00 0.00 368.97 209.60" xmlns="http://www.w3.org/2000/svg" xmlns:xlink="http://www.w3.org/1999/xlink">
<g id="graph0" class="graph" transform="scale(1 1) rotate(0) translate(4 205.6)">
<title>MatchFactory.h</title>
<polygon fill="white" stroke="none" points="-4,4 -4,-205.6 364.973,-205.6 364.973,4 -4,4"/>
<!-- Node1 -->
<g id="node1" class="node"><title>Node1</title>
<polygon fill="#bfbfbf" stroke="black" points="202,-178.7 202,-201.1 294.309,-201.1 294.309,-178.7 202,-178.7"/>
<text text-anchor="middle" x="248.155" y="-186.3" font-family="-adobe-utopia-medium-i-normal--0-0-0-0-p-0-iso10646-1" font-size="12.00">MatchFactory.h</text>
</g>
<!-- Node2 -->
<g id="node2" class="node"><title>Node2</title>
<g id="a_node2"><a xlink:href="MatchesBuilder_8h.html" target="_top" xlink:title="MatchesBuilder.h">
<polygon fill="white" stroke="black" points="137.333,-119.3 137.333,-141.7 238.976,-141.7 238.976,-119.3 137.333,-119.3"/>
<text text-anchor="middle" x="188.155" y="-126.9" font-family="-adobe-utopia-medium-i-normal--0-0-0-0-p-0-iso10646-1" font-size="12.00">MatchesBuilder.h</text>
</a>
</g>
</g>
<!-- Node1&#45;&gt;Node2 -->
<g id="edge1" class="edge"><title>Node1&#45;&gt;Node2</title>
<path fill="none" stroke="midnightblue" d="M229.94,-171.475C219.911,-161.88 207.792,-150.287 199.194,-142.061"/>
<polygon fill="midnightblue" stroke="midnightblue" points="227.782,-174.254 237.428,-178.638 232.621,-169.196 227.782,-174.254"/>
</g>
<!-- Node7 -->
<g id="node7" class="node"><title>Node7</title>
<g id="a_node7"><a xlink:href="MatchFactory_8cpp.html" target="_top" xlink:title="MatchFactory.cpp">
<polygon fill="white" stroke="black" points="257.337,-119.3 257.337,-141.7 360.973,-141.7 360.973,-119.3 257.337,-119.3"/>
<text text-anchor="middle" x="309.155" y="-126.9" font-family="-adobe-utopia-medium-i-normal--0-0-0-0-p-0-iso10646-1" font-size="12.00">MatchFactory.cpp</text>
</a>
</g>
</g>
<!-- Node1&#45;&gt;Node7 -->
<g id="edge6" class="edge"><title>Node1&#45;&gt;Node7</title>
<path fill="none" stroke="midnightblue" d="M266.371,-171.759C276.625,-162.11 289.103,-150.368 297.931,-142.061"/>
<polygon fill="midnightblue" stroke="midnightblue" points="263.944,-169.236 259.06,-178.638 268.741,-174.334 263.944,-169.236"/>
</g>
<!-- Node3 -->
<g id="node3" class="node"><title>Node3</title>
<g id="a_node3"><a xlink:href="GERMLINE_8h.html" target="_top" xlink:title="GERMLINE.h">
<polygon fill="white" stroke="black" points="85.6634,-59.9 85.6634,-82.3 172.646,-82.3 172.646,-59.9 85.6634,-59.9"/>
<text text-anchor="middle" x="129.155" y="-67.5" font-family="-adobe-utopia-medium-i-normal--0-0-0-0-p-0-iso10646-1" font-size="12.00">GERMLINE.h</text>
</a>
</g>
</g>
<!-- Node2&#45;&gt;Node3 -->
<g id="edge2" class="edge"><title>Node2&#45;&gt;Node3</title>
<path fill="none" stroke="midnightblue" d="M170.243,-112.075C160.381,-102.48 148.465,-90.8867 140.01,-82.6615"/>
<polygon fill="midnightblue" stroke="midnightblue" points="167.998,-114.773 177.607,-119.238 172.88,-109.756 167.998,-114.773"/>
</g>
<!-- Node6 -->
<g id="node6" class="node"><title>Node6</title>
<g id="a_node6"><a xlink:href="MatchesBuilder_8cpp.html" target="_top" xlink:title="MatchesBuilder.cpp">
<polygon fill="white" stroke="black" points="190.67,-59.9 190.67,-82.3 303.639,-82.3 303.639,-59.9 190.67,-59.9"/>
<text text-anchor="middle" x="247.155" y="-67.5" font-family="-adobe-utopia-medium-i-normal--0-0-0-0-p-0-iso10646-1" font-size="12.00">MatchesBuilder.cpp</text>
</a>
</g>
</g>
<!-- Node2&#45;&gt;Node6 -->
<g id="edge5" class="edge"><title>Node2&#45;&gt;Node6</title>
<path fill="none" stroke="midnightblue" d="M206.066,-112.075C215.928,-102.48 227.844,-90.8867 236.299,-82.6615"/>
<polygon fill="midnightblue" stroke="midnightblue" points="203.43,-109.756 198.703,-119.238 208.311,-114.773 203.43,-109.756"/>
</g>
<!-- Node4 -->
<g id="node4" class="node"><title>Node4</title>
<g id="a_node4"><a xlink:href="GERMLINE__0001_8cpp.html" target="_top" xlink:title="GERMLINE_0001.cpp">
<polygon fill="white" stroke="black" points="1.42109e-14,-0.5 1.42109e-14,-22.9 128.309,-22.9 128.309,-0.5 1.42109e-14,-0.5"/>
<text text-anchor="middle" x="64.1546" y="-8.1" font-family="-adobe-utopia-medium-i-normal--0-0-0-0-p-0-iso10646-1" font-size="12.00">GERMLINE_0001.cpp</text>
</a>
</g>
</g>
<!-- Node3&#45;&gt;Node4 -->
<g id="edge3" class="edge"><title>Node3&#45;&gt;Node4</title>
<path fill="none" stroke="midnightblue" d="M109.744,-52.9589C98.8174,-43.3099 85.521,-31.5682 76.1145,-23.2615"/>
<polygon fill="midnightblue" stroke="midnightblue" points="107.721,-55.8422 117.534,-59.838 112.355,-50.5952 107.721,-55.8422"/>
</g>
<!-- Node5 -->
<g id="node5" class="node"><title>Node5</title>
<g id="a_node5"><a xlink:href="GERMLINE_8cpp.html" target="_top" xlink:title="GERMLINE.cpp">
<polygon fill="white" stroke="black" points="146,-0.5 146,-22.9 244.309,-22.9 244.309,-0.5 146,-0.5"/>
<text text-anchor="middle" x="195.155" y="-8.1" font-family="-adobe-utopia-medium-i-normal--0-0-0-0-p-0-iso10646-1" font-size="12.00">GERMLINE.cpp</text>
</a>
</g>
</g>
<!-- Node3&#45;&gt;Node5 -->
<g id="edge4" class="edge"><title>Node3&#45;&gt;Node5</title>
<path fill="none" stroke="midnightblue" d="M148.538,-53.2421C159.693,-43.5405 173.366,-31.6496 183.011,-23.2615"/>
<polygon fill="midnightblue" stroke="midnightblue" points="146.203,-50.6347 140.954,-59.838 150.797,-55.9166 146.203,-50.6347"/>
</g>
</g>
</svg>
