<?xml version="1.0" encoding="UTF-8" standalone="no"?>
<!DOCTYPE svg PUBLIC "-//W3C//DTD SVG 1.1//EN"
 "http://www.w3.org/Graphics/SVG/1.1/DTD/svg11.dtd">
<!-- Generated by graphviz version 2.38.0 (20140413.2041)
 -->
<!-- Title: MatchFactory.cpp Pages: 1 -->
<svg width="1040pt" height="566pt"
 viewBox="0.00 0.00 1040.00 566.00" xmlns="http://www.w3.org/2000/svg" xmlns:xlink="http://www.w3.org/1999/xlink">
<g id="graph0" class="graph" transform="scale(1 1) rotate(0) translate(4 562)">
<title>MatchFactory.cpp</title>
<polygon fill="white" stroke="none" points="-4,4 -4,-562 1036,-562 1036,4 -4,4"/>
<!-- Node1 -->
<g id="node1" class="node"><title>Node1</title>
<polygon fill="#bfbfbf" stroke="black" points="179.182,-535.1 179.182,-557.5 282.818,-557.5 282.818,-535.1 179.182,-535.1"/>
<text text-anchor="middle" x="231" y="-542.7" font-family="-adobe-utopia-medium-i-normal--0-0-0-0-p-0-iso10646-1" font-size="12.00">MatchFactory.cpp</text>
</g>
<!-- Node2 -->
<g id="node2" class="node"><title>Node2</title>
<g id="a_node2"><a xlink:href="MatchFactory_8h.html" target="_top" xlink:title="MatchFactory.h">
<polygon fill="white" stroke="black" points="184.845,-475.7 184.845,-498.1 277.155,-498.1 277.155,-475.7 184.845,-475.7"/>
<text text-anchor="middle" x="231" y="-483.3" font-family="-adobe-utopia-medium-i-normal--0-0-0-0-p-0-iso10646-1" font-size="12.00">MatchFactory.h</text>
</a>
</g>
</g>
<!-- Node1&#45;&gt;Node2 -->
<g id="edge1" class="edge"><title>Node1&#45;&gt;Node2</title>
<path fill="none" stroke="midnightblue" d="M231,-535.038C231,-527.702 231,-517.579 231,-508.593"/>
<polygon fill="midnightblue" stroke="midnightblue" points="234.5,-508.461 231,-498.461 227.5,-508.462 234.5,-508.461"/>
</g>
<!-- Node3 -->
<g id="node3" class="node"><title>Node3</title>
<g id="a_node3"><a xlink:href="MarkerSet_8h.html" target="_top" xlink:title="MarkerSet.h">
<polygon fill="white" stroke="black" points="282.179,-238.1 282.179,-260.5 357.821,-260.5 357.821,-238.1 282.179,-238.1"/>
<text text-anchor="middle" x="320" y="-245.7" font-family="-adobe-utopia-medium-i-normal--0-0-0-0-p-0-iso10646-1" font-size="12.00">MarkerSet.h</text>
</a>
</g>
</g>
<!-- Node2&#45;&gt;Node3 -->
<g id="edge2" class="edge"><title>Node2&#45;&gt;Node3</title>
<path fill="none" stroke="midnightblue" d="M233.885,-475.437C242.007,-446.483 266.351,-363.08 295,-297 298.996,-287.782 304.135,-277.927 308.713,-269.657"/>
<polygon fill="midnightblue" stroke="midnightblue" points="311.841,-271.236 313.727,-260.81 305.751,-267.784 311.841,-271.236"/>
</g>
<!-- Node5 -->
<g id="node5" class="node"><title>Node5</title>
<polygon fill="white" stroke="#bfbfbf" points="129.008,-0.5 129.008,-22.9 174.992,-22.9 174.992,-0.5 129.008,-0.5"/>
<text text-anchor="middle" x="152" y="-8.1" font-family="-adobe-utopia-medium-i-normal--0-0-0-0-p-0-iso10646-1" font-size="12.00">vector</text>
</g>
<!-- Node2&#45;&gt;Node5 -->
<g id="edge52" class="edge"><title>Node2&#45;&gt;Node5</title>
<path fill="none" stroke="midnightblue" d="M184.809,-482.826C117.397,-475.553 0,-451.114 0,-369.1 0,-369.1 0,-369.1 0,-307.7 0,-190.789 95.504,-73.8669 135.107,-30.4085"/>
<polygon fill="midnightblue" stroke="midnightblue" points="137.797,-32.6549 142.027,-22.9411 132.663,-27.8969 137.797,-32.6549"/>
</g>
<!-- Node14 -->
<g id="node14" class="node"><title>Node14</title>
<polygon fill="white" stroke="#bfbfbf" points="937.669,-59.9 937.669,-82.3 974.331,-82.3 974.331,-59.9 937.669,-59.9"/>
<text text-anchor="middle" x="956" y="-67.5" font-family="-adobe-utopia-medium-i-normal--0-0-0-0-p-0-iso10646-1" font-size="12.00">map</text>
</g>
<!-- Node2&#45;&gt;Node14 -->
<g id="edge51" class="edge"><title>Node2&#45;&gt;Node14</title>
<path fill="none" stroke="midnightblue" d="M277.234,-484.07C447.813,-476.713 1032,-445.91 1032,-369.1 1032,-369.1 1032,-369.1 1032,-188.9 1032,-147.998 998.853,-110.179 976.34,-89.2095"/>
<polygon fill="midnightblue" stroke="midnightblue" points="978.67,-86.5977 968.892,-82.5177 973.992,-91.8047 978.67,-86.5977"/>
</g>
<!-- Node18 -->
<g id="node18" class="node"><title>Node18</title>
<g id="a_node18"><a xlink:href="Individual_8h.html" target="_top" xlink:title="Individual.h">
<polygon fill="white" stroke="black" points="386.837,-416.3 386.837,-438.7 461.163,-438.7 461.163,-416.3 386.837,-416.3"/>
<text text-anchor="middle" x="424" y="-423.9" font-family="-adobe-utopia-medium-i-normal--0-0-0-0-p-0-iso10646-1" font-size="12.00">Individual.h</text>
</a>
</g>
</g>
<!-- Node2&#45;&gt;Node18 -->
<g id="edge27" class="edge"><title>Node2&#45;&gt;Node18</title>
<path fill="none" stroke="midnightblue" d="M265.505,-475.638C297.379,-466.158 344.904,-452.024 379.598,-441.706"/>
<polygon fill="midnightblue" stroke="midnightblue" points="380.882,-444.975 389.469,-438.77 378.887,-438.266 380.882,-444.975"/>
</g>
<!-- Node4 -->
<g id="node4" class="node"><title>Node4</title>
<g id="a_node4"><a xlink:href="BasicDefinitions_8h.html" target="_top" xlink:title="BasicDefinitions.h">
<polygon fill="white" stroke="black" points="213.176,-59.9 213.176,-82.3 318.824,-82.3 318.824,-59.9 213.176,-59.9"/>
<text text-anchor="middle" x="266" y="-67.5" font-family="-adobe-utopia-medium-i-normal--0-0-0-0-p-0-iso10646-1" font-size="12.00">BasicDefinitions.h</text>
</a>
</g>
</g>
<!-- Node3&#45;&gt;Node4 -->
<g id="edge3" class="edge"><title>Node3&#45;&gt;Node4</title>
<path fill="none" stroke="midnightblue" d="M325.263,-237.874C331.794,-223.319 340.726,-196.626 329,-178.2 308.718,-146.328 272.282,-174.072 252,-142.2 242.364,-127.057 248.084,-106.651 254.884,-91.7614"/>
<polygon fill="midnightblue" stroke="midnightblue" points="258.196,-92.9697 259.59,-82.467 251.95,-89.8079 258.196,-92.9697"/>
</g>
<!-- Node9 -->
<g id="node9" class="node"><title>Node9</title>
<g id="a_node9"><a xlink:href="SNPs_8h.html" target="_top" xlink:title="SNPs.h">
<polygon fill="white" stroke="black" points="485.164,-178.7 485.164,-201.1 536.836,-201.1 536.836,-178.7 485.164,-178.7"/>
<text text-anchor="middle" x="511" y="-186.3" font-family="-adobe-utopia-medium-i-normal--0-0-0-0-p-0-iso10646-1" font-size="12.00">SNPs.h</text>
</a>
</g>
</g>
<!-- Node3&#45;&gt;Node9 -->
<g id="edge8" class="edge"><title>Node3&#45;&gt;Node9</title>
<path fill="none" stroke="midnightblue" d="M354.147,-238.038C388.328,-227.766 440.694,-212.028 475.385,-201.603"/>
<polygon fill="midnightblue" stroke="midnightblue" points="476.538,-204.911 485.107,-198.681 474.523,-198.208 476.538,-204.911"/>
</g>
<!-- Node16 -->
<g id="node16" class="node"><title>Node16</title>
<polygon fill="white" stroke="#bfbfbf" points="859.664,-119.3 859.664,-141.7 890.336,-141.7 890.336,-119.3 859.664,-119.3"/>
<text text-anchor="middle" x="875" y="-126.9" font-family="-adobe-utopia-medium-i-normal--0-0-0-0-p-0-iso10646-1" font-size="12.00">list</text>
</g>
<!-- Node3&#45;&gt;Node16 -->
<g id="edge26" class="edge"><title>Node3&#45;&gt;Node16</title>
<path fill="none" stroke="midnightblue" d="M357.935,-243.456C445.868,-231.635 669.862,-198.119 850,-142.2 850.099,-142.169 850.197,-142.139 850.296,-142.107"/>
<polygon fill="midnightblue" stroke="midnightblue" points="851.41,-145.427 859.584,-138.686 848.99,-138.859 851.41,-145.427"/>
</g>
<!-- Node17 -->
<g id="node17" class="node"><title>Node17</title>
<polygon fill="white" stroke="#bfbfbf" points="180.171,-178.7 180.171,-201.1 319.829,-201.1 319.829,-178.7 180.171,-178.7"/>
<text text-anchor="middle" x="250" y="-186.3" font-family="-adobe-utopia-medium-i-normal--0-0-0-0-p-0-iso10646-1" font-size="12.00">boost/dynamic_bitset.hpp</text>
</g>
<!-- Node3&#45;&gt;Node17 -->
<g id="edge25" class="edge"><title>Node3&#45;&gt;Node17</title>
<path fill="none" stroke="midnightblue" d="M307.485,-238.038C297.261,-229.654 282.597,-217.629 270.638,-207.824"/>
<polygon fill="midnightblue" stroke="midnightblue" points="272.832,-205.096 262.88,-201.461 268.393,-210.509 272.832,-205.096"/>
</g>
<!-- Node4&#45;&gt;Node5 -->
<g id="edge4" class="edge"><title>Node4&#45;&gt;Node5</title>
<path fill="none" stroke="midnightblue" d="M245.619,-59.838C227.816,-50.8742 201.749,-37.7491 181.639,-27.6234"/>
<polygon fill="midnightblue" stroke="midnightblue" points="183.095,-24.4378 172.589,-23.0667 179.947,-30.69 183.095,-24.4378"/>
</g>
<!-- Node6 -->
<g id="node6" class="node"><title>Node6</title>
<polygon fill="white" stroke="#bfbfbf" points="423.01,-0.5 423.01,-22.9 474.99,-22.9 474.99,-0.5 423.01,-0.5"/>
<text text-anchor="middle" x="449" y="-8.1" font-family="-adobe-utopia-medium-i-normal--0-0-0-0-p-0-iso10646-1" font-size="12.00">fstream</text>
</g>
<!-- Node4&#45;&gt;Node6 -->
<g id="edge5" class="edge"><title>Node4&#45;&gt;Node6</title>
<path fill="none" stroke="midnightblue" d="M298.717,-59.838C330.86,-49.7559 379.787,-34.4094 413.014,-23.9876"/>
<polygon fill="midnightblue" stroke="midnightblue" points="414.291,-27.2551 422.785,-20.9226 412.196,-20.5759 414.291,-27.2551"/>
</g>
<!-- Node7 -->
<g id="node7" class="node"><title>Node7</title>
<polygon fill="white" stroke="#bfbfbf" points="12.3402,-0.5 12.3402,-22.9 69.6598,-22.9 69.6598,-0.5 12.3402,-0.5"/>
<text text-anchor="middle" x="41" y="-8.1" font-family="-adobe-utopia-medium-i-normal--0-0-0-0-p-0-iso10646-1" font-size="12.00">iostream</text>
</g>
<!-- Node4&#45;&gt;Node7 -->
<g id="edge6" class="edge"><title>Node4&#45;&gt;Node7</title>
<path fill="none" stroke="midnightblue" d="M225.775,-59.838C184.407,-49.2848 120.431,-32.9637 79.6495,-22.5599"/>
<polygon fill="midnightblue" stroke="midnightblue" points="80.3639,-19.1301 69.809,-20.0495 78.6335,-25.9129 80.3639,-19.1301"/>
</g>
<!-- Node8 -->
<g id="node8" class="node"><title>Node8</title>
<polygon fill="white" stroke="#bfbfbf" points="239.834,-0.5 239.834,-22.9 292.166,-22.9 292.166,-0.5 239.834,-0.5"/>
<text text-anchor="middle" x="266" y="-8.1" font-family="-adobe-utopia-medium-i-normal--0-0-0-0-p-0-iso10646-1" font-size="12.00">string.h</text>
</g>
<!-- Node4&#45;&gt;Node8 -->
<g id="edge7" class="edge"><title>Node4&#45;&gt;Node8</title>
<path fill="none" stroke="midnightblue" d="M266,-59.838C266,-52.5019 266,-42.3785 266,-33.3932"/>
<polygon fill="midnightblue" stroke="midnightblue" points="269.5,-33.2614 266,-23.2615 262.5,-33.2615 269.5,-33.2614"/>
</g>
<!-- Node9&#45;&gt;Node4 -->
<g id="edge9" class="edge"><title>Node9&#45;&gt;Node4</title>
<path fill="none" stroke="midnightblue" d="M485.051,-183.601C454.321,-176.706 402.122,-163.025 361,-142.2 332.298,-127.665 303.079,-104.601 284.767,-88.9311"/>
<polygon fill="midnightblue" stroke="midnightblue" points="287.002,-86.2363 277.162,-82.3089 282.405,-91.5154 287.002,-86.2363"/>
</g>
<!-- Node9&#45;&gt;Node5 -->
<g id="edge21" class="edge"><title>Node9&#45;&gt;Node5</title>
<path fill="none" stroke="midnightblue" d="M484.833,-186.274C427.579,-179.284 289.492,-155.494 204,-82.8 186.984,-68.3308 172.323,-47.2827 162.947,-32.0293"/>
<polygon fill="midnightblue" stroke="midnightblue" points="165.933,-30.203 157.818,-23.3914 159.914,-33.7768 165.933,-30.203"/>
</g>
<!-- Node9&#45;&gt;Node6 -->
<g id="edge20" class="edge"><title>Node9&#45;&gt;Node6</title>
<path fill="none" stroke="midnightblue" d="M521.561,-178.66C534.109,-165.19 552.357,-140.662 544,-118.8 529.532,-80.953 494.659,-48.0834 471.433,-29.3275"/>
<polygon fill="midnightblue" stroke="midnightblue" points="473.49,-26.4928 463.462,-23.0729 469.168,-31.9998 473.49,-26.4928"/>
</g>
<!-- Node10 -->
<g id="node10" class="node"><title>Node10</title>
<g id="a_node10"><a xlink:href="NucleotideMap_8h.html" target="_top" xlink:title="NucleotideMap.h">
<polygon fill="white" stroke="black" points="370.179,-119.3 370.179,-141.7 469.821,-141.7 469.821,-119.3 370.179,-119.3"/>
<text text-anchor="middle" x="420" y="-126.9" font-family="-adobe-utopia-medium-i-normal--0-0-0-0-p-0-iso10646-1" font-size="12.00">NucleotideMap.h</text>
</a>
</g>
</g>
<!-- Node9&#45;&gt;Node10 -->
<g id="edge10" class="edge"><title>Node9&#45;&gt;Node10</title>
<path fill="none" stroke="midnightblue" d="M494.731,-178.638C480.97,-169.958 461.023,-157.376 445.198,-147.394"/>
<polygon fill="midnightblue" stroke="midnightblue" points="446.76,-144.241 436.435,-141.867 443.026,-150.162 446.76,-144.241"/>
</g>
<!-- Node11 -->
<g id="node11" class="node"><title>Node11</title>
<g id="a_node11"><a xlink:href="SNP_8h.html" target="_top" xlink:title="SNP.h">
<polygon fill="white" stroke="black" points="487.498,-119.3 487.498,-141.7 534.502,-141.7 534.502,-119.3 487.498,-119.3"/>
<text text-anchor="middle" x="511" y="-126.9" font-family="-adobe-utopia-medium-i-normal--0-0-0-0-p-0-iso10646-1" font-size="12.00">SNP.h</text>
</a>
</g>
</g>
<!-- Node9&#45;&gt;Node11 -->
<g id="edge12" class="edge"><title>Node9&#45;&gt;Node11</title>
<path fill="none" stroke="midnightblue" d="M511,-178.638C511,-171.302 511,-161.179 511,-152.193"/>
<polygon fill="midnightblue" stroke="midnightblue" points="514.5,-152.061 511,-142.061 507.5,-152.062 514.5,-152.061"/>
</g>
<!-- Node12 -->
<g id="node12" class="node"><title>Node12</title>
<polygon fill="white" stroke="#bfbfbf" points="626.334,-59.9 626.334,-82.3 669.666,-82.3 669.666,-59.9 626.334,-59.9"/>
<text text-anchor="middle" x="648" y="-67.5" font-family="-adobe-utopia-medium-i-normal--0-0-0-0-p-0-iso10646-1" font-size="12.00">string</text>
</g>
<!-- Node9&#45;&gt;Node12 -->
<g id="edge22" class="edge"><title>Node9&#45;&gt;Node12</title>
<path fill="none" stroke="midnightblue" d="M527.002,-178.646C540.71,-169.614 560.754,-155.812 577,-142.2 596.717,-125.68 617.45,-104.738 631.386,-90.0625"/>
<polygon fill="midnightblue" stroke="midnightblue" points="634.08,-92.306 638.379,-82.6223 628.98,-87.5119 634.08,-92.306"/>
</g>
<!-- Node13 -->
<g id="node13" class="node"><title>Node13</title>
<g id="a_node13"><a xlink:href="SNPPositionMap_8h.html" target="_top" xlink:title="SNPPositionMap.h">
<polygon fill="white" stroke="black" points="628.83,-119.3 628.83,-141.7 737.17,-141.7 737.17,-119.3 628.83,-119.3"/>
<text text-anchor="middle" x="683" y="-126.9" font-family="-adobe-utopia-medium-i-normal--0-0-0-0-p-0-iso10646-1" font-size="12.00">SNPPositionMap.h</text>
</a>
</g>
</g>
<!-- Node9&#45;&gt;Node13 -->
<g id="edge16" class="edge"><title>Node9&#45;&gt;Node13</title>
<path fill="none" stroke="midnightblue" d="M537.123,-180.182C565.143,-170.831 609.998,-155.862 642.579,-144.989"/>
<polygon fill="midnightblue" stroke="midnightblue" points="643.886,-148.243 652.264,-141.757 641.67,-141.603 643.886,-148.243"/>
</g>
<!-- Node9&#45;&gt;Node14 -->
<g id="edge23" class="edge"><title>Node9&#45;&gt;Node14</title>
<path fill="none" stroke="midnightblue" d="M537.177,-181.581C541.768,-180.388 546.512,-179.213 551,-178.2 636.969,-158.798 663.746,-173.844 746,-142.2 764.512,-135.078 765.798,-126.679 784,-118.8 832.508,-97.8014 892.867,-84.0326 927.66,-77.1951"/>
<polygon fill="midnightblue" stroke="midnightblue" points="928.431,-80.6111 937.596,-75.2953 927.117,-73.7357 928.431,-80.6111"/>
</g>
<!-- Node15 -->
<g id="node15" class="node"><title>Node15</title>
<polygon fill="white" stroke="#bfbfbf" points="792.502,-119.3 792.502,-141.7 841.498,-141.7 841.498,-119.3 792.502,-119.3"/>
<text text-anchor="middle" x="817" y="-126.9" font-family="-adobe-utopia-medium-i-normal--0-0-0-0-p-0-iso10646-1" font-size="12.00">math.h</text>
</g>
<!-- Node9&#45;&gt;Node15 -->
<g id="edge19" class="edge"><title>Node9&#45;&gt;Node15</title>
<path fill="none" stroke="midnightblue" d="M537.155,-181.483C541.749,-180.301 546.499,-179.155 551,-178.2 651.356,-156.916 678.785,-164.141 779,-142.2 780.071,-141.965 781.157,-141.718 782.251,-141.461"/>
<polygon fill="midnightblue" stroke="midnightblue" points="783.336,-144.797 792.168,-138.945 781.615,-138.012 783.336,-144.797"/>
</g>
<!-- Node9&#45;&gt;Node16 -->
<g id="edge24" class="edge"><title>Node9&#45;&gt;Node16</title>
<path fill="none" stroke="midnightblue" d="M537.127,-181.343C541.724,-180.176 546.483,-179.072 551,-178.2 682.425,-152.842 720.723,-176.884 850,-142.2 850.1,-142.173 850.2,-142.146 850.3,-142.119"/>
<polygon fill="midnightblue" stroke="midnightblue" points="851.338,-145.463 859.64,-138.881 849.046,-138.849 851.338,-145.463"/>
</g>
<!-- Node10&#45;&gt;Node4 -->
<g id="edge11" class="edge"><title>Node10&#45;&gt;Node4</title>
<path fill="none" stroke="midnightblue" d="M392.468,-119.238C367.58,-109.962 330.735,-96.2284 303.226,-85.9751"/>
<polygon fill="midnightblue" stroke="midnightblue" points="304.146,-82.5828 293.553,-82.3697 301.701,-89.1419 304.146,-82.5828"/>
</g>
<!-- Node11&#45;&gt;Node4 -->
<g id="edge13" class="edge"><title>Node11&#45;&gt;Node4</title>
<path fill="none" stroke="midnightblue" d="M487.321,-121.269C484.53,-120.392 481.71,-119.548 479,-118.8 428.998,-105.001 371.505,-92.5957 328.862,-84.0447"/>
<polygon fill="midnightblue" stroke="midnightblue" points="329.395,-80.5821 318.904,-82.0637 328.029,-87.4476 329.395,-80.5821"/>
</g>
<!-- Node11&#45;&gt;Node5 -->
<g id="edge15" class="edge"><title>Node11&#45;&gt;Node5</title>
<path fill="none" stroke="midnightblue" d="M487.309,-119.493C452.7,-105.088 386.11,-78.1804 328,-59.4 278.719,-43.473 220.434,-28.8055 184.852,-20.3083"/>
<polygon fill="midnightblue" stroke="midnightblue" points="185.546,-16.876 175.009,-17.977 183.933,-23.6875 185.546,-16.876"/>
</g>
<!-- Node11&#45;&gt;Node12 -->
<g id="edge14" class="edge"><title>Node11&#45;&gt;Node12</title>
<path fill="none" stroke="midnightblue" d="M534.551,-119.633C557.244,-110.125 591.721,-95.6796 616.711,-85.2092"/>
<polygon fill="midnightblue" stroke="midnightblue" points="618.241,-88.3631 626.112,-81.2706 615.536,-81.9068 618.241,-88.3631"/>
</g>
<!-- Node13&#45;&gt;Node12 -->
<g id="edge18" class="edge"><title>Node13&#45;&gt;Node12</title>
<path fill="none" stroke="midnightblue" d="M676.743,-119.238C672.024,-111.499 665.413,-100.658 659.721,-91.3231"/>
<polygon fill="midnightblue" stroke="midnightblue" points="662.634,-89.3773 654.44,-82.6615 656.658,-93.0216 662.634,-89.3773"/>
</g>
<!-- Node13&#45;&gt;Node14 -->
<g id="edge17" class="edge"><title>Node13&#45;&gt;Node14</title>
<path fill="none" stroke="midnightblue" d="M731.807,-119.238C788.863,-107.242 881.368,-87.7918 927.685,-78.0535"/>
<polygon fill="midnightblue" stroke="midnightblue" points="928.563,-81.4454 937.629,-75.9627 927.123,-74.5952 928.563,-81.4454"/>
</g>
<!-- Node18&#45;&gt;Node4 -->
<g id="edge28" class="edge"><title>Node18&#45;&gt;Node4</title>
<path fill="none" stroke="midnightblue" d="M386.765,-420.138C308.413,-405.898 130.924,-368.87 97,-320.4 60.5178,-268.276 182.364,-126.483 190,-118.8 202.716,-106.005 219.596,-95.1855 234.216,-87.1923"/>
<polygon fill="midnightblue" stroke="midnightblue" points="236.204,-90.1019 243.432,-82.3554 232.951,-83.9038 236.204,-90.1019"/>
</g>
<!-- Node18&#45;&gt;Node7 -->
<g id="edge50" class="edge"><title>Node18&#45;&gt;Node7</title>
<path fill="none" stroke="midnightblue" d="M386.832,-427.192C331.497,-426.739 225.552,-420.068 147,-379.8 113.608,-362.682 105.801,-352.874 87,-320.4 32.2614,-225.854 38.1184,-191.133 24,-82.8 22.656,-72.4872 22.1938,-69.642 24,-59.4 25.6015,-50.3188 28.8287,-40.6807 32.0451,-32.5335"/>
<polygon fill="midnightblue" stroke="midnightblue" points="35.3349,-33.7397 35.9903,-23.1651 28.8835,-31.0229 35.3349,-33.7397"/>
</g>
<!-- Node18&#45;&gt;Node12 -->
<g id="edge46" class="edge"><title>Node18&#45;&gt;Node12</title>
<path fill="none" stroke="midnightblue" d="M461.347,-421.737C554.147,-407.682 795.048,-357.107 897,-201.6 917.183,-170.815 922.528,-147.11 899,-118.8 871.539,-85.7583 741.732,-75.9791 680.333,-73.1784"/>
<polygon fill="midnightblue" stroke="midnightblue" points="680.188,-69.6694 670.05,-72.7459 679.894,-76.6632 680.188,-69.6694"/>
</g>
<!-- Node18&#45;&gt;Node14 -->
<g id="edge48" class="edge"><title>Node18&#45;&gt;Node14</title>
<path fill="none" stroke="midnightblue" d="M461.399,-426.827C588.209,-426.944 994,-418.796 994,-309.7 994,-309.7 994,-309.7 994,-188.9 994,-153.05 977.611,-113.913 966.359,-91.2677"/>
<polygon fill="midnightblue" stroke="midnightblue" points="969.463,-89.6488 961.771,-82.3621 963.24,-92.8547 969.463,-89.6488"/>
</g>
<!-- Node18&#45;&gt;Node16 -->
<g id="edge47" class="edge"><title>Node18&#45;&gt;Node16</title>
<path fill="none" stroke="midnightblue" d="M461.305,-424.766C557.123,-419.964 806.25,-405.146 833,-379.8 897.05,-319.111 886.215,-199.79 878.759,-152.002"/>
<polygon fill="midnightblue" stroke="midnightblue" points="882.18,-151.238 877.072,-141.955 875.277,-152.397 882.18,-151.238"/>
</g>
<!-- Node19 -->
<g id="node19" class="node"><title>Node19</title>
<g id="a_node19"><a xlink:href="Chromosome_8h.html" target="_top" xlink:title="Chromosome.h">
<polygon fill="white" stroke="black" points="106.17,-297.5 106.17,-319.9 195.83,-319.9 195.83,-297.5 106.17,-297.5"/>
<text text-anchor="middle" x="151" y="-305.1" font-family="-adobe-utopia-medium-i-normal--0-0-0-0-p-0-iso10646-1" font-size="12.00">Chromosome.h</text>
</a>
</g>
</g>
<!-- Node18&#45;&gt;Node19 -->
<g id="edge29" class="edge"><title>Node18&#45;&gt;Node19</title>
<path fill="none" stroke="midnightblue" d="M399.773,-416.135C350.901,-395.225 240.42,-347.957 184.609,-324.079"/>
<polygon fill="midnightblue" stroke="midnightblue" points="185.743,-320.758 175.173,-320.042 182.99,-327.193 185.743,-320.758"/>
</g>
<!-- Node20 -->
<g id="node20" class="node"><title>Node20</title>
<g id="a_node20"><a xlink:href="Match_8h.html" target="_top" xlink:title="Match.h">
<polygon fill="white" stroke="black" points="434.172,-297.5 434.172,-319.9 489.828,-319.9 489.828,-297.5 434.172,-297.5"/>
<text text-anchor="middle" x="462" y="-305.1" font-family="-adobe-utopia-medium-i-normal--0-0-0-0-p-0-iso10646-1" font-size="12.00">Match.h</text>
</a>
</g>
</g>
<!-- Node18&#45;&gt;Node20 -->
<g id="edge33" class="edge"><title>Node18&#45;&gt;Node20</title>
<path fill="none" stroke="midnightblue" d="M423.325,-416.135C426.486,-396.703 439.826,-354.506 450.353,-329.474"/>
<polygon fill="midnightblue" stroke="midnightblue" points="453.61,-330.766 454.51,-320.21 447.223,-327.901 453.61,-330.766"/>
</g>
<!-- Node22 -->
<g id="node22" class="node"><title>Node22</title>
<g id="a_node22"><a xlink:href="Individuals_8h.html" target="_top" xlink:title="Individuals.h">
<polygon fill="white" stroke="black" points="346.504,-356.9 346.504,-379.3 425.496,-379.3 425.496,-356.9 346.504,-356.9"/>
<text text-anchor="middle" x="386" y="-364.5" font-family="-adobe-utopia-medium-i-normal--0-0-0-0-p-0-iso10646-1" font-size="12.00">Individuals.h</text>
</a>
</g>
</g>
<!-- Node18&#45;&gt;Node22 -->
<g id="edge40" class="edge"><title>Node18&#45;&gt;Node22</title>
<path fill="none" stroke="midnightblue" d="M411.89,-416.238C405.415,-408.579 397.961,-397.883 392.487,-388.615"/>
<polygon fill="midnightblue" stroke="midnightblue" points="395.471,-386.777 387.622,-379.661 389.321,-390.119 395.471,-386.777"/>
</g>
<!-- Node24 -->
<g id="node24" class="node"><title>Node24</title>
<polygon fill="white" stroke="#bfbfbf" points="794.336,-356.9 794.336,-379.3 823.664,-379.3 823.664,-356.9 794.336,-356.9"/>
<text text-anchor="middle" x="809" y="-364.5" font-family="-adobe-utopia-medium-i-normal--0-0-0-0-p-0-iso10646-1" font-size="12.00">set</text>
</g>
<!-- Node18&#45;&gt;Node24 -->
<g id="edge49" class="edge"><title>Node18&#45;&gt;Node24</title>
<path fill="none" stroke="midnightblue" d="M461.405,-424.344C526.825,-419.966 665.921,-407.953 780,-379.8 781.465,-379.438 782.959,-379.027 784.456,-378.581"/>
<polygon fill="midnightblue" stroke="midnightblue" points="785.797,-381.823 794.148,-375.303 783.553,-375.192 785.797,-381.823"/>
</g>
<!-- Node19&#45;&gt;Node3 -->
<g id="edge31" class="edge"><title>Node19&#45;&gt;Node3</title>
<path fill="none" stroke="midnightblue" d="M181.214,-297.438C208.766,-288.08 249.67,-274.187 279.94,-263.906"/>
<polygon fill="midnightblue" stroke="midnightblue" points="281.42,-267.1 289.763,-260.57 279.169,-260.472 281.42,-267.1"/>
</g>
<!-- Node19&#45;&gt;Node4 -->
<g id="edge30" class="edge"><title>Node19&#45;&gt;Node4</title>
<path fill="none" stroke="midnightblue" d="M150.655,-297.385C150.296,-274.677 151.646,-219.125 171,-178.2 188.34,-141.534 222.466,-108.292 244.745,-89.142"/>
<polygon fill="midnightblue" stroke="midnightblue" points="247.233,-91.6235 252.644,-82.5147 242.733,-86.2609 247.233,-91.6235"/>
</g>
<!-- Node19&#45;&gt;Node5 -->
<g id="edge32" class="edge"><title>Node19&#45;&gt;Node5</title>
<path fill="none" stroke="midnightblue" d="M145.38,-297.419C135.03,-277.492 114,-231.953 114,-190.9 114,-190.9 114,-190.9 114,-129.5 114,-93.6499 130.389,-54.5129 141.641,-31.8677"/>
<polygon fill="midnightblue" stroke="midnightblue" points="144.76,-33.4547 146.229,-22.9621 138.537,-30.2488 144.76,-33.4547"/>
</g>
<!-- Node20&#45;&gt;Node3 -->
<g id="edge36" class="edge"><title>Node20&#45;&gt;Node3</title>
<path fill="none" stroke="midnightblue" d="M436.613,-297.438C413.936,-288.271 380.494,-274.753 355.23,-264.541"/>
<polygon fill="midnightblue" stroke="midnightblue" points="356.229,-261.169 345.646,-260.667 353.605,-267.659 356.229,-261.169"/>
</g>
<!-- Node20&#45;&gt;Node4 -->
<g id="edge34" class="edge"><title>Node20&#45;&gt;Node4</title>
<path fill="none" stroke="midnightblue" d="M459.619,-297.172C453.658,-273.039 435.925,-213.123 400,-178.2 371.752,-150.74 349.859,-166.689 319,-142.2 301.186,-128.062 286.148,-106.622 276.693,-91.1761"/>
<polygon fill="midnightblue" stroke="midnightblue" points="279.644,-89.2911 271.552,-82.4526 273.614,-92.8449 279.644,-89.2911"/>
</g>
<!-- Node20&#45;&gt;Node9 -->
<g id="edge35" class="edge"><title>Node20&#45;&gt;Node9</title>
<path fill="none" stroke="midnightblue" d="M466.348,-297.335C474.5,-277.903 492.203,-235.706 502.704,-210.674"/>
<polygon fill="midnightblue" stroke="midnightblue" points="505.95,-211.985 506.591,-201.41 499.495,-209.277 505.95,-211.985"/>
</g>
<!-- Node20&#45;&gt;Node15 -->
<g id="edge38" class="edge"><title>Node20&#45;&gt;Node15</title>
<path fill="none" stroke="midnightblue" d="M482.621,-297.465C542.546,-267.722 716.853,-181.207 787.121,-146.33"/>
<polygon fill="midnightblue" stroke="midnightblue" points="788.921,-149.344 796.322,-141.763 785.809,-143.074 788.921,-149.344"/>
</g>
<!-- Node20&#45;&gt;Node18 -->
<g id="edge37" class="edge"><title>Node20&#45;&gt;Node18</title>
<path fill="none" stroke="midnightblue" d="M462.651,-320.21C459.44,-339.754 446.082,-381.964 435.569,-406.911"/>
<polygon fill="midnightblue" stroke="midnightblue" points="432.33,-405.579 431.419,-416.135 438.714,-408.451 432.33,-405.579"/>
</g>
<!-- Node21 -->
<g id="node21" class="node"><title>Node21</title>
<polygon fill="white" stroke="#bfbfbf" points="631.334,-238.1 631.334,-260.5 686.666,-260.5 686.666,-238.1 631.334,-238.1"/>
<text text-anchor="middle" x="659" y="-245.7" font-family="-adobe-utopia-medium-i-normal--0-0-0-0-p-0-iso10646-1" font-size="12.00">iomanip</text>
</g>
<!-- Node20&#45;&gt;Node21 -->
<g id="edge39" class="edge"><title>Node20&#45;&gt;Node21</title>
<path fill="none" stroke="midnightblue" d="M490.225,-299.476C524.701,-289.431 583.141,-272.403 621.403,-261.255"/>
<polygon fill="midnightblue" stroke="midnightblue" points="622.524,-264.574 631.145,-258.416 620.565,-257.853 622.524,-264.574"/>
</g>
<!-- Node22&#45;&gt;Node4 -->
<g id="edge41" class="edge"><title>Node22&#45;&gt;Node4</title>
<path fill="none" stroke="midnightblue" d="M385.181,-356.895C383.266,-334.857 377.815,-281.273 367,-237.6 360.269,-210.42 363.197,-200.298 346,-178.2 328.285,-155.436 309.889,-164.827 292,-142.2 280.469,-127.615 273.702,-107.406 269.978,-92.4324"/>
<polygon fill="midnightblue" stroke="midnightblue" points="273.379,-91.6037 267.779,-82.6097 266.548,-93.1327 273.379,-91.6037"/>
</g>
<!-- Node22&#45;&gt;Node14 -->
<g id="edge44" class="edge"><title>Node22&#45;&gt;Node14</title>
<path fill="none" stroke="midnightblue" d="M425.626,-358.203C517.838,-335.842 750.245,-269.747 899,-142.2 916.553,-127.15 932.79,-106.19 943.407,-91.1156"/>
<polygon fill="midnightblue" stroke="midnightblue" points="946.481,-92.8218 949.253,-82.596 940.709,-88.8613 946.481,-92.8218"/>
</g>
<!-- Node22&#45;&gt;Node18 -->
<g id="edge43" class="edge"><title>Node22&#45;&gt;Node18</title>
<path fill="none" stroke="midnightblue" d="M398.362,-379.661C404.863,-387.398 412.303,-398.114 417.725,-407.345"/>
<polygon fill="midnightblue" stroke="midnightblue" points="414.695,-409.098 422.522,-416.238 420.855,-405.775 414.695,-409.098"/>
</g>
<!-- Node22&#45;&gt;Node19 -->
<g id="edge42" class="edge"><title>Node22&#45;&gt;Node19</title>
<path fill="none" stroke="midnightblue" d="M346.401,-357.428C306.961,-347.794 246.209,-332.955 202.923,-322.382"/>
<polygon fill="midnightblue" stroke="midnightblue" points="203.689,-318.967 193.144,-319.994 202.028,-325.767 203.689,-318.967"/>
</g>
<!-- Node23 -->
<g id="node23" class="node"><title>Node23</title>
<polygon fill="white" stroke="#bfbfbf" points="304.008,-297.5 304.008,-319.9 357.992,-319.9 357.992,-297.5 304.008,-297.5"/>
<text text-anchor="middle" x="331" y="-305.1" font-family="-adobe-utopia-medium-i-normal--0-0-0-0-p-0-iso10646-1" font-size="12.00">ostream</text>
</g>
<!-- Node22&#45;&gt;Node23 -->
<g id="edge45" class="edge"><title>Node22&#45;&gt;Node23</title>
<path fill="none" stroke="midnightblue" d="M376.167,-356.838C368.443,-348.776 357.493,-337.349 348.309,-327.764"/>
<polygon fill="midnightblue" stroke="midnightblue" points="350.566,-325.06 341.12,-320.261 345.511,-329.903 350.566,-325.06"/>
</g>
</g>
</svg>
