<?xml version="1.0" encoding="UTF-8" standalone="no"?>
<!DOCTYPE svg PUBLIC "-//W3C//DTD SVG 1.1//EN"
 "http://www.w3.org/Graphics/SVG/1.1/DTD/svg11.dtd">
<!-- Generated by graphviz version 2.38.0 (20140413.2041)
 -->
<!-- Title: NucleotideMap.cpp Pages: 1 -->
<svg width="270pt" height="210pt"
 viewBox="0.00 0.00 269.65 209.60" xmlns="http://www.w3.org/2000/svg" xmlns:xlink="http://www.w3.org/1999/xlink">
<g id="graph0" class="graph" transform="scale(1 1) rotate(0) translate(4 205.6)">
<title>NucleotideMap.cpp</title>
<polygon fill="white" stroke="none" points="-4,4 -4,-205.6 265.651,-205.6 265.651,4 -4,4"/>
<!-- Node1 -->
<g id="node1" class="node"><title>Node1</title>
<polygon fill="#bfbfbf" stroke="black" points="137.508,-178.7 137.508,-201.1 248.476,-201.1 248.476,-178.7 137.508,-178.7"/>
<text text-anchor="middle" x="192.992" y="-186.3" font-family="-adobe-utopia-medium-i-normal--0-0-0-0-p-0-iso10646-1" font-size="12.00">NucleotideMap.cpp</text>
</g>
<!-- Node2 -->
<g id="node2" class="node"><title>Node2</title>
<g id="a_node2"><a xlink:href="NucleotideMap_8h.html" target="_top" xlink:title="NucleotideMap.h">
<polygon fill="white" stroke="black" points="103.171,-119.3 103.171,-141.7 202.812,-141.7 202.812,-119.3 103.171,-119.3"/>
<text text-anchor="middle" x="152.992" y="-126.9" font-family="-adobe-utopia-medium-i-normal--0-0-0-0-p-0-iso10646-1" font-size="12.00">NucleotideMap.h</text>
</a>
</g>
</g>
<!-- Node1&#45;&gt;Node2 -->
<g id="edge1" class="edge"><title>Node1&#45;&gt;Node2</title>
<path fill="none" stroke="midnightblue" d="M185.84,-178.638C180.391,-170.818 172.735,-159.831 166.185,-150.432"/>
<polygon fill="midnightblue" stroke="midnightblue" points="168.94,-148.265 160.352,-142.061 163.197,-152.267 168.94,-148.265"/>
</g>
<!-- Node6 -->
<g id="node6" class="node"><title>Node6</title>
<polygon fill="white" stroke="#bfbfbf" points="204.332,-0.5 204.332,-22.9 261.651,-22.9 261.651,-0.5 204.332,-0.5"/>
<text text-anchor="middle" x="232.992" y="-8.1" font-family="-adobe-utopia-medium-i-normal--0-0-0-0-p-0-iso10646-1" font-size="12.00">iostream</text>
</g>
<!-- Node1&#45;&gt;Node6 -->
<g id="edge7" class="edge"><title>Node1&#45;&gt;Node6</title>
<path fill="none" stroke="midnightblue" d="M198.071,-178.383C202.373,-169.071 208.397,-155.01 211.992,-142.2 222.605,-104.377 228.45,-58.7368 231.133,-32.9814"/>
<polygon fill="midnightblue" stroke="midnightblue" points="234.625,-33.2386 232.123,-22.9436 227.659,-32.5521 234.625,-33.2386"/>
</g>
<!-- Node3 -->
<g id="node3" class="node"><title>Node3</title>
<g id="a_node3"><a xlink:href="BasicDefinitions_8h.html" target="_top" xlink:title="BasicDefinitions.h">
<polygon fill="white" stroke="black" points="99.1674,-59.9 99.1674,-82.3 204.816,-82.3 204.816,-59.9 99.1674,-59.9"/>
<text text-anchor="middle" x="151.992" y="-67.5" font-family="-adobe-utopia-medium-i-normal--0-0-0-0-p-0-iso10646-1" font-size="12.00">BasicDefinitions.h</text>
</a>
</g>
</g>
<!-- Node2&#45;&gt;Node3 -->
<g id="edge2" class="edge"><title>Node2&#45;&gt;Node3</title>
<path fill="none" stroke="midnightblue" d="M152.813,-119.238C152.685,-111.902 152.509,-101.779 152.352,-92.7932"/>
<polygon fill="midnightblue" stroke="midnightblue" points="155.849,-92.599 152.176,-82.6615 148.85,-92.721 155.849,-92.599"/>
</g>
<!-- Node4 -->
<g id="node4" class="node"><title>Node4</title>
<polygon fill="white" stroke="#bfbfbf" points="3.55271e-15,-0.5 3.55271e-15,-22.9 45.9832,-22.9 45.9832,-0.5 3.55271e-15,-0.5"/>
<text text-anchor="middle" x="22.9916" y="-8.1" font-family="-adobe-utopia-medium-i-normal--0-0-0-0-p-0-iso10646-1" font-size="12.00">vector</text>
</g>
<!-- Node3&#45;&gt;Node4 -->
<g id="edge3" class="edge"><title>Node3&#45;&gt;Node4</title>
<path fill="none" stroke="midnightblue" d="M128.929,-59.838C108.51,-50.7525 78.484,-37.392 55.6072,-27.2127"/>
<polygon fill="midnightblue" stroke="midnightblue" points="56.8487,-23.9343 46.2895,-23.0667 54.003,-30.3298 56.8487,-23.9343"/>
</g>
<!-- Node5 -->
<g id="node5" class="node"><title>Node5</title>
<polygon fill="white" stroke="#bfbfbf" points="64.0018,-0.5 64.0018,-22.9 115.981,-22.9 115.981,-0.5 64.0018,-0.5"/>
<text text-anchor="middle" x="89.9916" y="-8.1" font-family="-adobe-utopia-medium-i-normal--0-0-0-0-p-0-iso10646-1" font-size="12.00">fstream</text>
</g>
<!-- Node3&#45;&gt;Node5 -->
<g id="edge4" class="edge"><title>Node3&#45;&gt;Node5</title>
<path fill="none" stroke="midnightblue" d="M140.907,-59.838C132.025,-51.6151 119.361,-39.8904 108.885,-30.1917"/>
<polygon fill="midnightblue" stroke="midnightblue" points="111.115,-27.4868 101.399,-23.2615 106.36,-32.6234 111.115,-27.4868"/>
</g>
<!-- Node3&#45;&gt;Node6 -->
<g id="edge5" class="edge"><title>Node3&#45;&gt;Node6</title>
<path fill="none" stroke="midnightblue" d="M166.473,-59.838C178.607,-51.2393 196.145,-38.8112 210.166,-28.8749"/>
<polygon fill="midnightblue" stroke="midnightblue" points="212.227,-31.7042 218.363,-23.0667 208.18,-25.9929 212.227,-31.7042"/>
</g>
<!-- Node7 -->
<g id="node7" class="node"><title>Node7</title>
<polygon fill="white" stroke="#bfbfbf" points="133.826,-0.5 133.826,-22.9 186.157,-22.9 186.157,-0.5 133.826,-0.5"/>
<text text-anchor="middle" x="159.992" y="-8.1" font-family="-adobe-utopia-medium-i-normal--0-0-0-0-p-0-iso10646-1" font-size="12.00">string.h</text>
</g>
<!-- Node3&#45;&gt;Node7 -->
<g id="edge6" class="edge"><title>Node3&#45;&gt;Node7</title>
<path fill="none" stroke="midnightblue" d="M153.422,-59.838C154.444,-52.5019 155.855,-42.3785 157.108,-33.3932"/>
<polygon fill="midnightblue" stroke="midnightblue" points="160.606,-33.6489 158.52,-23.2615 153.673,-32.6826 160.606,-33.6489"/>
</g>
</g>
</svg>
