<?xml version="1.0" encoding="UTF-8" standalone="no"?>
<!DOCTYPE svg PUBLIC "-//W3C//DTD SVG 1.1//EN"
 "http://www.w3.org/Graphics/SVG/1.1/DTD/svg11.dtd">
<!-- Generated by graphviz version 2.38.0 (20140413.2041)
 -->
<!-- Title: PEDIndividualsExtractor.h Pages: 1 -->
<svg width="1116pt" height="566pt"
 viewBox="0.00 0.00 1116.10 566.00" xmlns="http://www.w3.org/2000/svg" xmlns:xlink="http://www.w3.org/1999/xlink">
<g id="graph0" class="graph" transform="scale(1 1) rotate(0) translate(4 562)">
<title>PEDIndividualsExtractor.h</title>
<polygon fill="white" stroke="none" points="-4,4 -4,-562 1112.1,-562 1112.1,4 -4,4"/>
<!-- Node1 -->
<g id="node1" class="node"><title>Node1</title>
<polygon fill="#bfbfbf" stroke="black" points="341.95,-535.1 341.95,-557.5 488.251,-557.5 488.251,-535.1 341.95,-535.1"/>
<text text-anchor="middle" x="415.101" y="-542.7" font-family="-adobe-utopia-medium-i-normal--0-0-0-0-p-0-iso10646-1" font-size="12.00">PEDIndividualsExtractor.h</text>
</g>
<!-- Node2 -->
<g id="node2" class="node"><title>Node2</title>
<g id="a_node2"><a xlink:href="BasicDefinitions_8h.html" target="_top" xlink:title="BasicDefinitions.h">
<polygon fill="white" stroke="black" points="331.276,-59.9 331.276,-82.3 436.925,-82.3 436.925,-59.9 331.276,-59.9"/>
<text text-anchor="middle" x="384.101" y="-67.5" font-family="-adobe-utopia-medium-i-normal--0-0-0-0-p-0-iso10646-1" font-size="12.00">BasicDefinitions.h</text>
</a>
</g>
</g>
<!-- Node1&#45;&gt;Node2 -->
<g id="edge1" class="edge"><title>Node1&#45;&gt;Node2</title>
<path fill="none" stroke="midnightblue" d="M341.516,-537.629C231.802,-524.12 38.1005,-491.368 38.1005,-428.5 38.1005,-428.5 38.1005,-428.5 38.1005,-307.7 38.1005,-205.278 82.9441,-172.597 170.101,-118.8 215.732,-90.6342 276.026,-79.3282 320.982,-74.8541"/>
<polygon fill="midnightblue" stroke="midnightblue" points="321.551,-78.3169 331.194,-73.9281 320.919,-71.3455 321.551,-78.3169"/>
</g>
<!-- Node7 -->
<g id="node7" class="node"><title>Node7</title>
<g id="a_node7"><a xlink:href="NucleotideMap_8h.html" target="_top" xlink:title="NucleotideMap.h">
<polygon fill="white" stroke="black" points="256.28,-119.3 256.28,-141.7 355.921,-141.7 355.921,-119.3 256.28,-119.3"/>
<text text-anchor="middle" x="306.101" y="-126.9" font-family="-adobe-utopia-medium-i-normal--0-0-0-0-p-0-iso10646-1" font-size="12.00">NucleotideMap.h</text>
</a>
</g>
</g>
<!-- Node1&#45;&gt;Node7 -->
<g id="edge6" class="edge"><title>Node1&#45;&gt;Node7</title>
<path fill="none" stroke="midnightblue" d="M341.921,-545.594C242.445,-544.51 71.4815,-536.908 24.1005,-498.6 -1.50764,-477.896 0.10051,-461.431 0.10051,-428.5 0.10051,-428.5 0.10051,-428.5 0.10051,-367.1 0.10051,-239.112 170.247,-170.998 256.791,-144.63"/>
<polygon fill="midnightblue" stroke="midnightblue" points="257.824,-147.974 266.41,-141.766 255.827,-141.265 257.824,-147.974"/>
</g>
<!-- Node8 -->
<g id="node8" class="node"><title>Node8</title>
<g id="a_node8"><a xlink:href="PolymorphicIndividualsExtractor_8h.html" target="_top" xlink:title="PolymorphicIndividualsExtractor.h">
<polygon fill="white" stroke="black" points="700.284,-475.7 700.284,-498.1 885.917,-498.1 885.917,-475.7 700.284,-475.7"/>
<text text-anchor="middle" x="793.101" y="-483.3" font-family="-adobe-utopia-medium-i-normal--0-0-0-0-p-0-iso10646-1" font-size="12.00">PolymorphicIndividualsExtractor.h</text>
</a>
</g>
</g>
<!-- Node1&#45;&gt;Node8 -->
<g id="edge8" class="edge"><title>Node1&#45;&gt;Node8</title>
<path fill="none" stroke="midnightblue" d="M482.679,-535.038C548.022,-525.116 646.944,-510.094 715.483,-499.686"/>
<polygon fill="midnightblue" stroke="midnightblue" points="716.428,-503.083 725.789,-498.121 715.377,-496.162 716.428,-503.083"/>
</g>
<!-- Node14 -->
<g id="node14" class="node"><title>Node14</title>
<polygon fill="white" stroke="#bfbfbf" points="920.435,-59.9 920.435,-82.3 963.766,-82.3 963.766,-59.9 920.435,-59.9"/>
<text text-anchor="middle" x="942.101" y="-67.5" font-family="-adobe-utopia-medium-i-normal--0-0-0-0-p-0-iso10646-1" font-size="12.00">string</text>
</g>
<!-- Node1&#45;&gt;Node14 -->
<g id="edge56" class="edge"><title>Node1&#45;&gt;Node14</title>
<path fill="none" stroke="midnightblue" d="M488.28,-540.571C666.419,-528.085 1108.1,-490.839 1108.1,-428.5 1108.1,-428.5 1108.1,-428.5 1108.1,-188.9 1108.1,-150.108 1086.73,-142.605 1056.1,-118.8 1054.34,-117.43 1006.35,-97.971 973.209,-84.6086"/>
<polygon fill="midnightblue" stroke="midnightblue" points="974.469,-81.343 963.885,-80.8529 971.853,-87.836 974.469,-81.343"/>
</g>
<!-- Node3 -->
<g id="node3" class="node"><title>Node3</title>
<polygon fill="white" stroke="#bfbfbf" points="327.109,-0.5 327.109,-22.9 373.092,-22.9 373.092,-0.5 327.109,-0.5"/>
<text text-anchor="middle" x="350.101" y="-8.1" font-family="-adobe-utopia-medium-i-normal--0-0-0-0-p-0-iso10646-1" font-size="12.00">vector</text>
</g>
<!-- Node2&#45;&gt;Node3 -->
<g id="edge2" class="edge"><title>Node2&#45;&gt;Node3</title>
<path fill="none" stroke="midnightblue" d="M378.022,-59.838C373.438,-52.0988 367.016,-41.2577 361.487,-31.9231"/>
<polygon fill="midnightblue" stroke="midnightblue" points="364.464,-30.0816 356.356,-23.2615 358.441,-33.6491 364.464,-30.0816"/>
</g>
<!-- Node4 -->
<g id="node4" class="node"><title>Node4</title>
<polygon fill="white" stroke="#bfbfbf" points="624.111,-0.5 624.111,-22.9 676.09,-22.9 676.09,-0.5 624.111,-0.5"/>
<text text-anchor="middle" x="650.101" y="-8.1" font-family="-adobe-utopia-medium-i-normal--0-0-0-0-p-0-iso10646-1" font-size="12.00">fstream</text>
</g>
<!-- Node2&#45;&gt;Node4 -->
<g id="edge3" class="edge"><title>Node2&#45;&gt;Node4</title>
<path fill="none" stroke="midnightblue" d="M431.656,-59.838C484.003,-48.5421 566.973,-30.6379 614.161,-20.4554"/>
<polygon fill="midnightblue" stroke="midnightblue" points="614.907,-23.8751 623.944,-18.3444 613.43,-17.0325 614.907,-23.8751"/>
</g>
<!-- Node5 -->
<g id="node5" class="node"><title>Node5</title>
<polygon fill="white" stroke="#bfbfbf" points="924.441,-0.5 924.441,-22.9 981.76,-22.9 981.76,-0.5 924.441,-0.5"/>
<text text-anchor="middle" x="953.101" y="-8.1" font-family="-adobe-utopia-medium-i-normal--0-0-0-0-p-0-iso10646-1" font-size="12.00">iostream</text>
</g>
<!-- Node2&#45;&gt;Node5 -->
<g id="edge4" class="edge"><title>Node2&#45;&gt;Node5</title>
<path fill="none" stroke="midnightblue" d="M437.12,-64.7515C550.516,-53.3122 814.375,-26.6945 914.04,-16.6403"/>
<polygon fill="midnightblue" stroke="midnightblue" points="914.668,-20.0949 924.266,-15.6088 913.965,-13.1303 914.668,-20.0949"/>
</g>
<!-- Node6 -->
<g id="node6" class="node"><title>Node6</title>
<polygon fill="white" stroke="#bfbfbf" points="390.935,-0.5 390.935,-22.9 443.266,-22.9 443.266,-0.5 390.935,-0.5"/>
<text text-anchor="middle" x="417.101" y="-8.1" font-family="-adobe-utopia-medium-i-normal--0-0-0-0-p-0-iso10646-1" font-size="12.00">string.h</text>
</g>
<!-- Node2&#45;&gt;Node6 -->
<g id="edge5" class="edge"><title>Node2&#45;&gt;Node6</title>
<path fill="none" stroke="midnightblue" d="M390,-59.838C394.403,-52.1795 400.553,-41.4832 405.881,-32.2153"/>
<polygon fill="midnightblue" stroke="midnightblue" points="409.079,-33.6753 411.029,-23.2615 403.01,-30.1864 409.079,-33.6753"/>
</g>
<!-- Node7&#45;&gt;Node2 -->
<g id="edge7" class="edge"><title>Node7&#45;&gt;Node2</title>
<path fill="none" stroke="midnightblue" d="M320.045,-119.238C331.62,-110.72 348.3,-98.4453 361.738,-88.5568"/>
<polygon fill="midnightblue" stroke="midnightblue" points="364.034,-91.2127 370.013,-82.4667 359.885,-85.5748 364.034,-91.2127"/>
</g>
<!-- Node8&#45;&gt;Node3 -->
<g id="edge55" class="edge"><title>Node8&#45;&gt;Node3</title>
<path fill="none" stroke="midnightblue" d="M700.1,-480.293C506.098,-467.349 76.1005,-431.608 76.1005,-369.1 76.1005,-369.1 76.1005,-369.1 76.1005,-307.7 76.1005,-178.771 121.594,-134.906 226.101,-59.4 253.591,-39.5384 290.543,-27.0648 316.942,-20.0571"/>
<polygon fill="midnightblue" stroke="midnightblue" points="318.014,-23.3963 326.851,-17.5509 316.298,-16.61 318.014,-23.3963"/>
</g>
<!-- Node8&#45;&gt;Node4 -->
<g id="edge53" class="edge"><title>Node8&#45;&gt;Node4</title>
<path fill="none" stroke="midnightblue" d="M886.189,-477.33C953.296,-465.424 1032.1,-436.989 1032.1,-369.1 1032.1,-369.1 1032.1,-369.1 1032.1,-307.7 1032.1,-194.272 1058.83,-133.675 973.101,-59.4 930.857,-22.8 761.876,-14.8764 686.6,-13.1671"/>
<polygon fill="midnightblue" stroke="midnightblue" points="686.268,-9.65975 676.2,-12.9573 686.127,-16.6583 686.268,-9.65975"/>
</g>
<!-- Node9 -->
<g id="node9" class="node"><title>Node9</title>
<g id="a_node9"><a xlink:href="Individuals_8h.html" target="_top" xlink:title="Individuals.h">
<polygon fill="white" stroke="black" points="590.604,-416.3 590.604,-438.7 669.597,-438.7 669.597,-416.3 590.604,-416.3"/>
<text text-anchor="middle" x="630.101" y="-423.9" font-family="-adobe-utopia-medium-i-normal--0-0-0-0-p-0-iso10646-1" font-size="12.00">Individuals.h</text>
</a>
</g>
</g>
<!-- Node8&#45;&gt;Node9 -->
<g id="edge9" class="edge"><title>Node8&#45;&gt;Node9</title>
<path fill="none" stroke="midnightblue" d="M763.959,-475.638C737.386,-466.28 697.933,-452.387 668.738,-442.106"/>
<polygon fill="midnightblue" stroke="midnightblue" points="669.859,-438.79 659.264,-438.77 667.533,-445.393 669.859,-438.79"/>
</g>
<!-- Node12 -->
<g id="node12" class="node"><title>Node12</title>
<g id="a_node12"><a xlink:href="SNPs_8h.html" target="_top" xlink:title="SNPs.h">
<polygon fill="white" stroke="black" points="604.265,-178.7 604.265,-201.1 655.936,-201.1 655.936,-178.7 604.265,-178.7"/>
<text text-anchor="middle" x="630.101" y="-186.3" font-family="-adobe-utopia-medium-i-normal--0-0-0-0-p-0-iso10646-1" font-size="12.00">SNPs.h</text>
</a>
</g>
</g>
<!-- Node8&#45;&gt;Node12 -->
<g id="edge52" class="edge"><title>Node8&#45;&gt;Node12</title>
<path fill="none" stroke="midnightblue" d="M796.121,-475.509C806.193,-438.505 834.851,-311.435 777.101,-237.6 750.862,-204.054 700.486,-194.165 666.093,-191.486"/>
<polygon fill="midnightblue" stroke="midnightblue" points="666.172,-187.985 655.977,-190.868 665.745,-194.972 666.172,-187.985"/>
</g>
<!-- Node8&#45;&gt;Node14 -->
<g id="edge54" class="edge"><title>Node8&#45;&gt;Node14</title>
<path fill="none" stroke="midnightblue" d="M885.96,-478.546C947.928,-471.845 1022.26,-459.767 1046.1,-439.2 1071.04,-417.691 1070.1,-402.031 1070.1,-369.1 1070.1,-369.1 1070.1,-369.1 1070.1,-188.9 1070.1,-136.706 1011.31,-101.611 973.415,-84.4116"/>
<polygon fill="midnightblue" stroke="midnightblue" points="974.38,-81.0141 963.814,-80.2298 971.585,-87.4318 974.38,-81.0141"/>
</g>
<!-- Node9&#45;&gt;Node2 -->
<g id="edge10" class="edge"><title>Node9&#45;&gt;Node2</title>
<path fill="none" stroke="midnightblue" d="M590.331,-424.324C482.896,-417.52 191.148,-392.605 135.101,-320.4 113.932,-293.129 66.6642,-237.05 195.101,-118.8 229.026,-87.5649 280.475,-76.359 321.131,-72.7049"/>
<polygon fill="midnightblue" stroke="midnightblue" points="321.515,-76.1858 331.218,-71.931 320.98,-69.2063 321.515,-76.1858"/>
</g>
<!-- Node10 -->
<g id="node10" class="node"><title>Node10</title>
<g id="a_node10"><a xlink:href="Chromosome_8h.html" target="_top" xlink:title="Chromosome.h">
<polygon fill="white" stroke="black" points="144.27,-297.5 144.27,-319.9 233.931,-319.9 233.931,-297.5 144.27,-297.5"/>
<text text-anchor="middle" x="189.101" y="-305.1" font-family="-adobe-utopia-medium-i-normal--0-0-0-0-p-0-iso10646-1" font-size="12.00">Chromosome.h</text>
</a>
</g>
</g>
<!-- Node9&#45;&gt;Node10 -->
<g id="edge11" class="edge"><title>Node9&#45;&gt;Node10</title>
<path fill="none" stroke="midnightblue" d="M591.351,-416.237C510.905,-394.931 325.941,-345.943 237.682,-322.567"/>
<polygon fill="midnightblue" stroke="midnightblue" points="238.482,-319.158 227.92,-319.981 236.69,-325.925 238.482,-319.158"/>
</g>
<!-- Node16 -->
<g id="node16" class="node"><title>Node16</title>
<polygon fill="white" stroke="#bfbfbf" points="808.77,-59.9 808.77,-82.3 845.431,-82.3 845.431,-59.9 808.77,-59.9"/>
<text text-anchor="middle" x="827.101" y="-67.5" font-family="-adobe-utopia-medium-i-normal--0-0-0-0-p-0-iso10646-1" font-size="12.00">map</text>
</g>
<!-- Node9&#45;&gt;Node16 -->
<g id="edge50" class="edge"><title>Node9&#45;&gt;Node16</title>
<path fill="none" stroke="midnightblue" d="M669.748,-425.335C764.089,-420.242 994.101,-393.175 994.101,-250.3 994.101,-250.3 994.101,-250.3 994.101,-188.9 994.101,-152.807 980.747,-142.004 953.101,-118.8 924.863,-95.0998 883.476,-82.8646 855.933,-76.9708"/>
<polygon fill="midnightblue" stroke="midnightblue" points="856.25,-73.4654 845.759,-74.9469 854.884,-80.3309 856.25,-73.4654"/>
</g>
<!-- Node20 -->
<g id="node20" class="node"><title>Node20</title>
<g id="a_node20"><a xlink:href="Individual_8h.html" target="_top" xlink:title="Individual.h">
<polygon fill="white" stroke="black" points="592.938,-356.9 592.938,-379.3 667.264,-379.3 667.264,-356.9 592.938,-356.9"/>
<text text-anchor="middle" x="630.101" y="-364.5" font-family="-adobe-utopia-medium-i-normal--0-0-0-0-p-0-iso10646-1" font-size="12.00">Individual.h</text>
</a>
</g>
</g>
<!-- Node9&#45;&gt;Node20 -->
<g id="edge34" class="edge"><title>Node9&#45;&gt;Node20</title>
<path fill="none" stroke="midnightblue" d="M624.785,-416.238C623.438,-408.902 623.04,-398.779 623.59,-389.793"/>
<polygon fill="midnightblue" stroke="midnightblue" points="627.089,-389.99 624.73,-379.661 620.133,-389.207 627.089,-389.99"/>
</g>
<!-- Node24 -->
<g id="node24" class="node"><title>Node24</title>
<polygon fill="white" stroke="#bfbfbf" points="521.108,-356.9 521.108,-379.3 575.093,-379.3 575.093,-356.9 521.108,-356.9"/>
<text text-anchor="middle" x="548.101" y="-364.5" font-family="-adobe-utopia-medium-i-normal--0-0-0-0-p-0-iso10646-1" font-size="12.00">ostream</text>
</g>
<!-- Node9&#45;&gt;Node24 -->
<g id="edge51" class="edge"><title>Node9&#45;&gt;Node24</title>
<path fill="none" stroke="midnightblue" d="M615.441,-416.238C603.157,-407.639 585.402,-395.211 571.207,-385.275"/>
<polygon fill="midnightblue" stroke="midnightblue" points="573.109,-382.334 562.91,-379.467 569.095,-388.069 573.109,-382.334"/>
</g>
<!-- Node10&#45;&gt;Node2 -->
<g id="edge12" class="edge"><title>Node10&#45;&gt;Node2</title>
<path fill="none" stroke="midnightblue" d="M186.894,-297.118C180.989,-265.622 168.225,-171.408 214.101,-118.8 228.347,-102.463 278.872,-89.9073 321.169,-81.9505"/>
<polygon fill="midnightblue" stroke="midnightblue" points="321.951,-85.3656 331.16,-80.1259 320.694,-78.4795 321.951,-85.3656"/>
</g>
<!-- Node10&#45;&gt;Node3 -->
<g id="edge33" class="edge"><title>Node10&#45;&gt;Node3</title>
<path fill="none" stroke="midnightblue" d="M185.674,-297.458C182.732,-288.091 178.717,-273.79 177.101,-261 169.11,-197.799 158.251,-170.765 195.101,-118.8 226.395,-74.6686 282.225,-43.1769 317.646,-26.4766"/>
<polygon fill="midnightblue" stroke="midnightblue" points="319.428,-29.5102 327.059,-22.1603 316.51,-23.1474 319.428,-29.5102"/>
</g>
<!-- Node11 -->
<g id="node11" class="node"><title>Node11</title>
<g id="a_node11"><a xlink:href="MarkerSet_8h.html" target="_top" xlink:title="MarkerSet.h">
<polygon fill="white" stroke="black" points="399.279,-238.1 399.279,-260.5 474.922,-260.5 474.922,-238.1 399.279,-238.1"/>
<text text-anchor="middle" x="437.101" y="-245.7" font-family="-adobe-utopia-medium-i-normal--0-0-0-0-p-0-iso10646-1" font-size="12.00">MarkerSet.h</text>
</a>
</g>
</g>
<!-- Node10&#45;&gt;Node11 -->
<g id="edge13" class="edge"><title>Node10&#45;&gt;Node11</title>
<path fill="none" stroke="midnightblue" d="M233.438,-297.438C277.348,-287.275 344.369,-271.763 389.411,-261.338"/>
<polygon fill="midnightblue" stroke="midnightblue" points="390.281,-264.729 399.234,-259.064 388.703,-257.909 390.281,-264.729"/>
</g>
<!-- Node11&#45;&gt;Node2 -->
<g id="edge14" class="edge"><title>Node11&#45;&gt;Node2</title>
<path fill="none" stroke="midnightblue" d="M451.598,-238.049C469.115,-224.361 494.653,-199.381 481.101,-178.2 460.523,-146.039 427.742,-171.365 403.101,-142.2 391.313,-128.249 386.782,-107.644 385.069,-92.3809"/>
<polygon fill="midnightblue" stroke="midnightblue" points="388.555,-92.0661 384.257,-82.3825 381.578,-92.6331 388.555,-92.0661"/>
</g>
<!-- Node11&#45;&gt;Node12 -->
<g id="edge15" class="edge"><title>Node11&#45;&gt;Node12</title>
<path fill="none" stroke="midnightblue" d="M471.605,-238.038C506.243,-227.736 559.361,-211.938 594.413,-201.514"/>
<polygon fill="midnightblue" stroke="midnightblue" points="595.642,-204.8 604.23,-198.594 593.647,-198.09 595.642,-204.8"/>
</g>
<!-- Node18 -->
<g id="node18" class="node"><title>Node18</title>
<polygon fill="white" stroke="#bfbfbf" points="411.765,-119.3 411.765,-141.7 442.436,-141.7 442.436,-119.3 411.765,-119.3"/>
<text text-anchor="middle" x="427.101" y="-126.9" font-family="-adobe-utopia-medium-i-normal--0-0-0-0-p-0-iso10646-1" font-size="12.00">list</text>
</g>
<!-- Node11&#45;&gt;Node18 -->
<g id="edge32" class="edge"><title>Node11&#45;&gt;Node18</title>
<path fill="none" stroke="midnightblue" d="M399.205,-243.712C373.014,-238.348 339.963,-226.731 323.101,-201.6 300.755,-168.298 364.397,-146.629 401.863,-137.093"/>
<polygon fill="midnightblue" stroke="midnightblue" points="402.747,-140.48 411.643,-134.725 401.1,-133.676 402.747,-140.48"/>
</g>
<!-- Node19 -->
<g id="node19" class="node"><title>Node19</title>
<polygon fill="white" stroke="#bfbfbf" points="332.272,-178.7 332.272,-201.1 471.929,-201.1 471.929,-178.7 332.272,-178.7"/>
<text text-anchor="middle" x="402.101" y="-186.3" font-family="-adobe-utopia-medium-i-normal--0-0-0-0-p-0-iso10646-1" font-size="12.00">boost/dynamic_bitset.hpp</text>
</g>
<!-- Node11&#45;&gt;Node19 -->
<g id="edge31" class="edge"><title>Node11&#45;&gt;Node19</title>
<path fill="none" stroke="midnightblue" d="M430.843,-238.038C426.124,-230.299 419.514,-219.458 413.822,-210.123"/>
<polygon fill="midnightblue" stroke="midnightblue" points="416.735,-208.177 408.54,-201.461 410.758,-211.822 416.735,-208.177"/>
</g>
<!-- Node12&#45;&gt;Node2 -->
<g id="edge16" class="edge"><title>Node12&#45;&gt;Node2</title>
<path fill="none" stroke="midnightblue" d="M608.277,-178.569C588.399,-169.142 558.246,-154.802 532.101,-142.2 510.721,-131.895 505.52,-129.022 484.101,-118.8 461.215,-107.879 435.266,-95.7684 415.537,-86.6173"/>
<polygon fill="midnightblue" stroke="midnightblue" points="416.937,-83.4087 406.392,-82.3809 413.995,-89.7603 416.937,-83.4087"/>
</g>
<!-- Node12&#45;&gt;Node3 -->
<g id="edge27" class="edge"><title>Node12&#45;&gt;Node3</title>
<path fill="none" stroke="midnightblue" d="M615.838,-178.663C575.729,-149.904 463.722,-69.796 446.101,-59.4 425.48,-47.2345 401.227,-35.4558 382.257,-26.771"/>
<polygon fill="midnightblue" stroke="midnightblue" points="383.691,-23.5785 373.137,-22.6472 380.807,-29.9567 383.691,-23.5785"/>
</g>
<!-- Node12&#45;&gt;Node4 -->
<g id="edge26" class="edge"><title>Node12&#45;&gt;Node4</title>
<path fill="none" stroke="midnightblue" d="M631.262,-178.665C634.466,-150.443 643.471,-71.1045 647.766,-33.2699"/>
<polygon fill="midnightblue" stroke="midnightblue" points="651.285,-33.2941 648.936,-22.9631 644.33,-32.5045 651.285,-33.2941"/>
</g>
<!-- Node12&#45;&gt;Node7 -->
<g id="edge17" class="edge"><title>Node12&#45;&gt;Node7</title>
<path fill="none" stroke="midnightblue" d="M604.134,-184.3C552.895,-175.222 437.581,-154.793 366.355,-142.175"/>
<polygon fill="midnightblue" stroke="midnightblue" points="366.636,-138.67 356.179,-140.372 365.415,-145.563 366.636,-138.67"/>
</g>
<!-- Node13 -->
<g id="node13" class="node"><title>Node13</title>
<g id="a_node13"><a xlink:href="SNP_8h.html" target="_top" xlink:title="SNP.h">
<polygon fill="white" stroke="black" points="574.598,-119.3 574.598,-141.7 621.603,-141.7 621.603,-119.3 574.598,-119.3"/>
<text text-anchor="middle" x="598.101" y="-126.9" font-family="-adobe-utopia-medium-i-normal--0-0-0-0-p-0-iso10646-1" font-size="12.00">SNP.h</text>
</a>
</g>
</g>
<!-- Node12&#45;&gt;Node13 -->
<g id="edge18" class="edge"><title>Node12&#45;&gt;Node13</title>
<path fill="none" stroke="midnightblue" d="M624.38,-178.638C620.11,-170.979 614.147,-160.283 608.98,-151.015"/>
<polygon fill="midnightblue" stroke="midnightblue" points="611.915,-149.092 603.988,-142.061 605.801,-152.5 611.915,-149.092"/>
</g>
<!-- Node12&#45;&gt;Node14 -->
<g id="edge28" class="edge"><title>Node12&#45;&gt;Node14</title>
<path fill="none" stroke="midnightblue" d="M656.308,-181.713C660.896,-180.505 665.631,-179.291 670.101,-178.2 742.175,-160.61 764.607,-170.711 833.101,-142.2 837.661,-140.301 887.284,-108.003 917.981,-87.9177"/>
<polygon fill="midnightblue" stroke="midnightblue" points="920.008,-90.774 926.456,-82.3677 916.173,-84.9178 920.008,-90.774"/>
</g>
<!-- Node15 -->
<g id="node15" class="node"><title>Node15</title>
<g id="a_node15"><a xlink:href="SNPPositionMap_8h.html" target="_top" xlink:title="SNPPositionMap.h">
<polygon fill="white" stroke="black" points="715.931,-119.3 715.931,-141.7 824.271,-141.7 824.271,-119.3 715.931,-119.3"/>
<text text-anchor="middle" x="770.101" y="-126.9" font-family="-adobe-utopia-medium-i-normal--0-0-0-0-p-0-iso10646-1" font-size="12.00">SNPPositionMap.h</text>
</a>
</g>
</g>
<!-- Node12&#45;&gt;Node15 -->
<g id="edge22" class="edge"><title>Node12&#45;&gt;Node15</title>
<path fill="none" stroke="midnightblue" d="M655.13,-178.638C677.487,-169.471 710.459,-155.953 735.367,-145.741"/>
<polygon fill="midnightblue" stroke="midnightblue" points="736.891,-148.899 744.816,-141.867 734.236,-142.422 736.891,-148.899"/>
</g>
<!-- Node12&#45;&gt;Node16 -->
<g id="edge29" class="edge"><title>Node12&#45;&gt;Node16</title>
<path fill="none" stroke="midnightblue" d="M639.117,-178.566C652.61,-163.635 679.441,-135.942 707.101,-118.8 736.327,-100.686 773.751,-87.4809 798.973,-79.8245"/>
<polygon fill="midnightblue" stroke="midnightblue" points="800.044,-83.1578 808.649,-76.9775 798.068,-76.4424 800.044,-83.1578"/>
</g>
<!-- Node17 -->
<g id="node17" class="node"><title>Node17</title>
<polygon fill="white" stroke="#bfbfbf" points="879.602,-119.3 879.602,-141.7 928.599,-141.7 928.599,-119.3 879.602,-119.3"/>
<text text-anchor="middle" x="904.101" y="-126.9" font-family="-adobe-utopia-medium-i-normal--0-0-0-0-p-0-iso10646-1" font-size="12.00">math.h</text>
</g>
<!-- Node12&#45;&gt;Node17 -->
<g id="edge25" class="edge"><title>Node12&#45;&gt;Node17</title>
<path fill="none" stroke="midnightblue" d="M656.277,-181.578C660.868,-180.385 665.612,-179.211 670.101,-178.2 756.505,-158.741 779.826,-162.224 866.101,-142.2 867.169,-141.952 868.252,-141.693 869.344,-141.426"/>
<polygon fill="midnightblue" stroke="midnightblue" points="870.449,-144.755 879.248,-138.855 868.69,-137.98 870.449,-144.755"/>
</g>
<!-- Node12&#45;&gt;Node18 -->
<g id="edge30" class="edge"><title>Node12&#45;&gt;Node18</title>
<path fill="none" stroke="midnightblue" d="M603.977,-181.513C564.825,-170.443 491.392,-149.679 452.604,-138.711"/>
<polygon fill="midnightblue" stroke="midnightblue" points="453.215,-135.247 442.64,-135.894 451.31,-141.983 453.215,-135.247"/>
</g>
<!-- Node13&#45;&gt;Node2 -->
<g id="edge19" class="edge"><title>Node13&#45;&gt;Node2</title>
<path fill="none" stroke="midnightblue" d="M574.381,-123.138C540.185,-113.966 476.29,-96.8274 432.031,-84.9562"/>
<polygon fill="midnightblue" stroke="midnightblue" points="432.913,-81.5691 422.348,-82.3589 431.1,-88.3301 432.913,-81.5691"/>
</g>
<!-- Node13&#45;&gt;Node3 -->
<g id="edge21" class="edge"><title>Node13&#45;&gt;Node3</title>
<path fill="none" stroke="midnightblue" d="M595.488,-119.07C591.018,-103.492 580.357,-74.3815 560.101,-59.4 497.742,-13.2806 462.867,-41.7956 383.343,-23.3557"/>
<polygon fill="midnightblue" stroke="midnightblue" points="383.97,-19.9046 373.418,-20.8661 382.266,-26.6942 383.97,-19.9046"/>
</g>
<!-- Node13&#45;&gt;Node14 -->
<g id="edge20" class="edge"><title>Node13&#45;&gt;Node14</title>
<path fill="none" stroke="midnightblue" d="M621.745,-125.555C681.974,-115.505 841.242,-88.9293 909.879,-77.4766"/>
<polygon fill="midnightblue" stroke="midnightblue" points="910.8,-80.8713 920.087,-75.7731 909.648,-73.9668 910.8,-80.8713"/>
</g>
<!-- Node15&#45;&gt;Node14 -->
<g id="edge24" class="edge"><title>Node15&#45;&gt;Node14</title>
<path fill="none" stroke="midnightblue" d="M800.851,-119.238C831.891,-108.879 879.583,-92.9633 910.814,-82.5411"/>
<polygon fill="midnightblue" stroke="midnightblue" points="911.955,-85.85 920.333,-79.3643 909.739,-79.2099 911.955,-85.85"/>
</g>
<!-- Node15&#45;&gt;Node16 -->
<g id="edge23" class="edge"><title>Node15&#45;&gt;Node16</title>
<path fill="none" stroke="midnightblue" d="M780.291,-119.238C788.377,-111.096 799.872,-99.52 809.447,-89.8775"/>
<polygon fill="midnightblue" stroke="midnightblue" points="812.05,-92.2235 816.613,-82.6615 807.083,-87.291 812.05,-92.2235"/>
</g>
<!-- Node20&#45;&gt;Node2 -->
<g id="edge35" class="edge"><title>Node20&#45;&gt;Node2</title>
<path fill="none" stroke="midnightblue" d="M600.477,-356.785C553.95,-339.982 461.671,-304.198 390.101,-261 353.696,-239.027 347.789,-228.795 315.101,-201.6 284.251,-175.935 263.698,-178.736 247.101,-142.2 230.954,-106.656 277.872,-88.8501 321.123,-80.1127"/>
<polygon fill="midnightblue" stroke="midnightblue" points="321.951,-83.5186 331.132,-78.2319 320.658,-76.639 321.951,-83.5186"/>
</g>
<!-- Node20&#45;&gt;Node5 -->
<g id="edge49" class="edge"><title>Node20&#45;&gt;Node5</title>
<path fill="none" stroke="midnightblue" d="M667.482,-361.517C704.691,-355.015 762.777,-342.268 809.101,-320.4 882.896,-285.563 907.037,-271.53 949.101,-201.6 982.137,-146.677 985.979,-122.187 973.101,-59.4 971.185,-50.0634 967.323,-40.2879 963.499,-32.1077"/>
<polygon fill="midnightblue" stroke="midnightblue" points="966.581,-30.4452 958.987,-23.0575 960.317,-33.5686 966.581,-30.4452"/>
</g>
<!-- Node20&#45;&gt;Node9 -->
<g id="edge44" class="edge"><title>Node20&#45;&gt;Node9</title>
<path fill="none" stroke="midnightblue" d="M635.471,-379.661C636.791,-387.072 637.164,-397.217 636.589,-406.171"/>
<polygon fill="midnightblue" stroke="midnightblue" points="633.097,-405.9 635.416,-416.238 640.05,-406.71 633.097,-405.9"/>
</g>
<!-- Node20&#45;&gt;Node10 -->
<g id="edge36" class="edge"><title>Node20&#45;&gt;Node10</title>
<path fill="none" stroke="midnightblue" d="M592.771,-358.016C589.846,-357.427 586.93,-356.879 584.101,-356.4 436.018,-331.34 396.754,-341.814 248.101,-320.4 246.825,-320.216 245.536,-320.025 244.236,-319.828"/>
<polygon fill="midnightblue" stroke="midnightblue" points="244.57,-316.337 234.143,-318.217 243.466,-323.25 244.57,-316.337"/>
</g>
<!-- Node20&#45;&gt;Node14 -->
<g id="edge45" class="edge"><title>Node20&#45;&gt;Node14</title>
<path fill="none" stroke="midnightblue" d="M667.301,-358.12C697.048,-350.217 739.374,-337.332 774.101,-320.4 816.514,-299.719 825.619,-290.929 862.101,-261 913.52,-218.815 937.259,-206.796 953.101,-142.2 957.169,-125.61 953.603,-106.427 949.48,-92.3264"/>
<polygon fill="midnightblue" stroke="midnightblue" points="952.757,-91.0876 946.335,-82.6614 946.101,-93.2536 952.757,-91.0876"/>
</g>
<!-- Node20&#45;&gt;Node16 -->
<g id="edge47" class="edge"><title>Node20&#45;&gt;Node16</title>
<path fill="none" stroke="midnightblue" d="M659.036,-356.805C723.889,-331.918 879.683,-261.581 937.101,-142.2 954.685,-105.638 893.784,-85.9182 855.638,-77.3738"/>
<polygon fill="midnightblue" stroke="midnightblue" points="856.072,-73.8887 845.566,-75.2554 854.631,-80.7388 856.072,-73.8887"/>
</g>
<!-- Node20&#45;&gt;Node18 -->
<g id="edge46" class="edge"><title>Node20&#45;&gt;Node18</title>
<path fill="none" stroke="midnightblue" d="M621.641,-356.888C613.988,-347.542 602.51,-333.254 593.101,-320.4 548.057,-258.871 551.168,-231.972 497.101,-178.2 483.59,-164.763 465.676,-152.896 451.352,-144.487"/>
<polygon fill="midnightblue" stroke="midnightblue" points="452.964,-141.377 442.54,-139.478 449.505,-147.463 452.964,-141.377"/>
</g>
<!-- Node21 -->
<g id="node21" class="node"><title>Node21</title>
<g id="a_node21"><a xlink:href="Match_8h.html" target="_top" xlink:title="Match.h">
<polygon fill="white" stroke="black" points="602.273,-297.5 602.273,-319.9 657.928,-319.9 657.928,-297.5 602.273,-297.5"/>
<text text-anchor="middle" x="630.101" y="-305.1" font-family="-adobe-utopia-medium-i-normal--0-0-0-0-p-0-iso10646-1" font-size="12.00">Match.h</text>
</a>
</g>
</g>
<!-- Node20&#45;&gt;Node21 -->
<g id="edge37" class="edge"><title>Node20&#45;&gt;Node21</title>
<path fill="none" stroke="midnightblue" d="M624.785,-356.838C623.438,-349.502 623.04,-339.379 623.59,-330.393"/>
<polygon fill="midnightblue" stroke="midnightblue" points="627.089,-330.59 624.73,-320.261 620.133,-329.807 627.089,-330.59"/>
</g>
<!-- Node23 -->
<g id="node23" class="node"><title>Node23</title>
<polygon fill="white" stroke="#bfbfbf" points="675.436,-297.5 675.436,-319.9 704.765,-319.9 704.765,-297.5 675.436,-297.5"/>
<text text-anchor="middle" x="690.101" y="-305.1" font-family="-adobe-utopia-medium-i-normal--0-0-0-0-p-0-iso10646-1" font-size="12.00">set</text>
</g>
<!-- Node20&#45;&gt;Node23 -->
<g id="edge48" class="edge"><title>Node20&#45;&gt;Node23</title>
<path fill="none" stroke="midnightblue" d="M640.827,-356.838C649.423,-348.615 661.678,-336.89 671.817,-327.192"/>
<polygon fill="midnightblue" stroke="midnightblue" points="674.254,-329.703 679.061,-320.261 669.415,-324.645 674.254,-329.703"/>
</g>
<!-- Node21&#45;&gt;Node2 -->
<g id="edge38" class="edge"><title>Node21&#45;&gt;Node2</title>
<path fill="none" stroke="midnightblue" d="M622.544,-297.43C605.691,-274.811 563.263,-219.426 522.101,-178.2 493.031,-149.085 483.786,-143.787 451.101,-118.8 437.189,-108.165 421.107,-96.9228 408.186,-88.1341"/>
<polygon fill="midnightblue" stroke="midnightblue" points="410.058,-85.1747 399.812,-82.4792 406.141,-90.976 410.058,-85.1747"/>
</g>
<!-- Node21&#45;&gt;Node11 -->
<g id="edge40" class="edge"><title>Node21&#45;&gt;Node11</title>
<path fill="none" stroke="midnightblue" d="M602.037,-299.354C570.501,-289.975 518.876,-274.621 481.778,-263.588"/>
<polygon fill="midnightblue" stroke="midnightblue" points="482.311,-260.095 471.729,-260.599 480.316,-266.804 482.311,-260.095"/>
</g>
<!-- Node21&#45;&gt;Node12 -->
<g id="edge39" class="edge"><title>Node21&#45;&gt;Node12</title>
<path fill="none" stroke="midnightblue" d="M630.101,-297.335C630.101,-278.162 630.101,-236.828 630.101,-211.685"/>
<polygon fill="midnightblue" stroke="midnightblue" points="633.601,-211.41 630.101,-201.41 626.601,-211.41 633.601,-211.41"/>
</g>
<!-- Node21&#45;&gt;Node17 -->
<g id="edge42" class="edge"><title>Node21&#45;&gt;Node17</title>
<path fill="none" stroke="midnightblue" d="M639.24,-297.242C652.357,-282.648 677.744,-255.91 703.101,-237.6 757.742,-198.143 828.948,-164.105 870.29,-145.821"/>
<polygon fill="midnightblue" stroke="midnightblue" points="871.875,-148.948 879.633,-141.732 869.069,-142.535 871.875,-148.948"/>
</g>
<!-- Node21&#45;&gt;Node20 -->
<g id="edge41" class="edge"><title>Node21&#45;&gt;Node20</title>
<path fill="none" stroke="midnightblue" d="M635.471,-320.261C636.791,-327.672 637.164,-337.817 636.589,-346.771"/>
<polygon fill="midnightblue" stroke="midnightblue" points="633.097,-346.5 635.416,-356.838 640.05,-347.31 633.097,-346.5"/>
</g>
<!-- Node22 -->
<g id="node22" class="node"><title>Node22</title>
<polygon fill="white" stroke="#bfbfbf" points="712.435,-238.1 712.435,-260.5 767.766,-260.5 767.766,-238.1 712.435,-238.1"/>
<text text-anchor="middle" x="740.101" y="-245.7" font-family="-adobe-utopia-medium-i-normal--0-0-0-0-p-0-iso10646-1" font-size="12.00">iomanip</text>
</g>
<!-- Node21&#45;&gt;Node22 -->
<g id="edge43" class="edge"><title>Node21&#45;&gt;Node22</title>
<path fill="none" stroke="midnightblue" d="M649.766,-297.438C666.867,-288.515 691.87,-275.468 711.238,-265.361"/>
<polygon fill="midnightblue" stroke="midnightblue" points="712.988,-268.396 720.234,-260.667 709.749,-262.19 712.988,-268.396"/>
</g>
</g>
</svg>
