<?xml version="1.0" encoding="UTF-8" standalone="no"?>
<!DOCTYPE svg PUBLIC "-//W3C//DTD SVG 1.1//EN"
 "http://www.w3.org/Graphics/SVG/1.1/DTD/svg11.dtd">
<!-- Generated by graphviz version 2.38.0 (20140413.2041)
 -->
<!-- Title: PolymorphicIndividualsExtractor.cpp Pages: 1 -->
<svg width="1230pt" height="566pt"
 viewBox="0.00 0.00 1229.66 566.00" xmlns="http://www.w3.org/2000/svg" xmlns:xlink="http://www.w3.org/1999/xlink">
<g id="graph0" class="graph" transform="scale(1 1) rotate(0) translate(4 562)">
<title>PolymorphicIndividualsExtractor.cpp</title>
<polygon fill="white" stroke="none" points="-4,4 -4,-562 1225.66,-562 1225.66,4 -4,4"/>
<!-- Node1 -->
<g id="node1" class="node"><title>Node1</title>
<polygon fill="#bfbfbf" stroke="black" points="559.52,-535.1 559.52,-557.5 756.48,-557.5 756.48,-535.1 559.52,-535.1"/>
<text text-anchor="middle" x="658" y="-542.7" font-family="-adobe-utopia-medium-i-normal--0-0-0-0-p-0-iso10646-1" font-size="12.00">PolymorphicIndividualsExtractor.cpp</text>
</g>
<!-- Node2 -->
<g id="node2" class="node"><title>Node2</title>
<g id="a_node2"><a xlink:href="PolymorphicIndividualsExtractor_8h.html" target="_top" xlink:title="PolymorphicIndividualsExtractor.h">
<polygon fill="white" stroke="black" points="78.1834,-475.7 78.1834,-498.1 263.817,-498.1 263.817,-475.7 78.1834,-475.7"/>
<text text-anchor="middle" x="171" y="-483.3" font-family="-adobe-utopia-medium-i-normal--0-0-0-0-p-0-iso10646-1" font-size="12.00">PolymorphicIndividualsExtractor.h</text>
</a>
</g>
</g>
<!-- Node1&#45;&gt;Node2 -->
<g id="edge1" class="edge"><title>Node1&#45;&gt;Node2</title>
<path fill="none" stroke="midnightblue" d="M571.215,-535.071C486.033,-525.031 356.364,-509.748 267.868,-499.317"/>
<polygon fill="midnightblue" stroke="midnightblue" points="268.166,-495.828 257.825,-498.134 267.346,-502.78 268.166,-495.828"/>
</g>
<!-- Node6 -->
<g id="node6" class="node"><title>Node6</title>
<polygon fill="white" stroke="#bfbfbf" points="227.01,-0.5 227.01,-22.9 278.99,-22.9 278.99,-0.5 227.01,-0.5"/>
<text text-anchor="middle" x="253" y="-8.1" font-family="-adobe-utopia-medium-i-normal--0-0-0-0-p-0-iso10646-1" font-size="12.00">fstream</text>
</g>
<!-- Node1&#45;&gt;Node6 -->
<g id="edge55" class="edge"><title>Node1&#45;&gt;Node6</title>
<path fill="none" stroke="midnightblue" d="M559.419,-545.733C414.892,-544.986 153.489,-537.985 69,-498.6 29.3774,-480.129 0,-472.216 0,-428.5 0,-428.5 0,-428.5 0,-129.5 0,-35.1668 146.78,-16.7748 216.741,-13.3662"/>
<polygon fill="midnightblue" stroke="midnightblue" points="217.029,-16.8574 226.877,-12.9514 216.743,-9.86325 217.029,-16.8574"/>
</g>
<!-- Node7 -->
<g id="node7" class="node"><title>Node7</title>
<polygon fill="white" stroke="#bfbfbf" points="1079.34,-0.5 1079.34,-22.9 1136.66,-22.9 1136.66,-0.5 1079.34,-0.5"/>
<text text-anchor="middle" x="1108" y="-8.1" font-family="-adobe-utopia-medium-i-normal--0-0-0-0-p-0-iso10646-1" font-size="12.00">iostream</text>
</g>
<!-- Node1&#45;&gt;Node7 -->
<g id="edge56" class="edge"><title>Node1&#45;&gt;Node7</title>
<path fill="none" stroke="midnightblue" d="M756.754,-541.536C899.349,-533.365 1146,-507.775 1146,-428.5 1146,-428.5 1146,-428.5 1146,-129.5 1146,-93.6499 1129.61,-54.5129 1118.36,-31.8677"/>
<polygon fill="midnightblue" stroke="midnightblue" points="1121.46,-30.2488 1113.77,-22.9621 1115.24,-33.4547 1121.46,-30.2488"/>
</g>
<!-- Node25 -->
<g id="node25" class="node"><title>Node25</title>
<polygon fill="white" stroke="#bfbfbf" points="1174.34,-475.7 1174.34,-498.1 1221.66,-498.1 1221.66,-475.7 1174.34,-475.7"/>
<text text-anchor="middle" x="1198" y="-483.3" font-family="-adobe-utopia-medium-i-normal--0-0-0-0-p-0-iso10646-1" font-size="12.00">cctype</text>
</g>
<!-- Node1&#45;&gt;Node25 -->
<g id="edge54" class="edge"><title>Node1&#45;&gt;Node25</title>
<path fill="none" stroke="midnightblue" d="M756.844,-541.41C858.615,-536.168 1021.45,-524.33 1160,-498.6 1161.29,-498.361 1162.6,-498.097 1163.91,-497.815"/>
<polygon fill="midnightblue" stroke="midnightblue" points="1165.14,-501.119 1174.03,-495.359 1163.49,-494.317 1165.14,-501.119"/>
</g>
<!-- Node3 -->
<g id="node3" class="node"><title>Node3</title>
<g id="a_node3"><a xlink:href="Individuals_8h.html" target="_top" xlink:title="Individuals.h">
<polygon fill="white" stroke="black" points="550.504,-416.3 550.504,-438.7 629.496,-438.7 629.496,-416.3 550.504,-416.3"/>
<text text-anchor="middle" x="590" y="-423.9" font-family="-adobe-utopia-medium-i-normal--0-0-0-0-p-0-iso10646-1" font-size="12.00">Individuals.h</text>
</a>
</g>
</g>
<!-- Node2&#45;&gt;Node3 -->
<g id="edge2" class="edge"><title>Node2&#45;&gt;Node3</title>
<path fill="none" stroke="midnightblue" d="M245.909,-475.638C330.939,-463.989 467.268,-445.313 540.182,-435.325"/>
<polygon fill="midnightblue" stroke="midnightblue" points="541.034,-438.741 550.467,-433.916 540.084,-431.806 541.034,-438.741"/>
</g>
<!-- Node5 -->
<g id="node5" class="node"><title>Node5</title>
<polygon fill="white" stroke="#bfbfbf" points="535.008,-0.5 535.008,-22.9 580.992,-22.9 580.992,-0.5 535.008,-0.5"/>
<text text-anchor="middle" x="558" y="-8.1" font-family="-adobe-utopia-medium-i-normal--0-0-0-0-p-0-iso10646-1" font-size="12.00">vector</text>
</g>
<!-- Node2&#45;&gt;Node5 -->
<g id="edge53" class="edge"><title>Node2&#45;&gt;Node5</title>
<path fill="none" stroke="midnightblue" d="M154.016,-475.671C126.691,-457.771 76,-417.979 76,-369.1 76,-369.1 76,-369.1 76,-129.5 76,-37.0063 415.485,-17.4964 524.635,-13.614"/>
<polygon fill="midnightblue" stroke="midnightblue" points="524.875,-17.108 534.752,-13.276 524.641,-10.1119 524.875,-17.108"/>
</g>
<!-- Node2&#45;&gt;Node6 -->
<g id="edge51" class="edge"><title>Node2&#45;&gt;Node6</title>
<path fill="none" stroke="midnightblue" d="M125.624,-475.698C103.803,-468.704 78.8024,-457.311 62,-439.2 39.6027,-415.059 38,-402.031 38,-369.1 38,-369.1 38,-369.1 38,-129.5 38,-96.5691 37.6897,-81.6139 62,-59.4 84.4211,-38.9124 167.955,-24.3431 216.811,-17.3632"/>
<polygon fill="midnightblue" stroke="midnightblue" points="217.545,-20.7949 226.967,-15.95 216.58,-13.8617 217.545,-20.7949"/>
</g>
<!-- Node11 -->
<g id="node11" class="node"><title>Node11</title>
<g id="a_node11"><a xlink:href="SNPs_8h.html" target="_top" xlink:title="SNPs.h">
<polygon fill="white" stroke="black" points="528.164,-178.7 528.164,-201.1 579.836,-201.1 579.836,-178.7 528.164,-178.7"/>
<text text-anchor="middle" x="554" y="-186.3" font-family="-adobe-utopia-medium-i-normal--0-0-0-0-p-0-iso10646-1" font-size="12.00">SNPs.h</text>
</a>
</g>
</g>
<!-- Node2&#45;&gt;Node11 -->
<g id="edge50" class="edge"><title>Node2&#45;&gt;Node11</title>
<path fill="none" stroke="midnightblue" d="M182.501,-475.595C222.018,-440.405 356.447,-322.473 477,-237.6 492.986,-226.345 511.727,-214.943 526.717,-206.223"/>
<polygon fill="midnightblue" stroke="midnightblue" points="528.585,-209.186 535.508,-201.165 525.094,-203.119 528.585,-209.186"/>
</g>
<!-- Node14 -->
<g id="node14" class="node"><title>Node14</title>
<polygon fill="white" stroke="#bfbfbf" points="370.334,-59.9 370.334,-82.3 413.666,-82.3 413.666,-59.9 370.334,-59.9"/>
<text text-anchor="middle" x="392" y="-67.5" font-family="-adobe-utopia-medium-i-normal--0-0-0-0-p-0-iso10646-1" font-size="12.00">string</text>
</g>
<!-- Node2&#45;&gt;Node14 -->
<g id="edge52" class="edge"><title>Node2&#45;&gt;Node14</title>
<path fill="none" stroke="midnightblue" d="M168.196,-475.679C162.911,-455.481 152,-408.956 152,-369.1 152,-369.1 152,-369.1 152,-188.9 152,-97.3783 294.852,-77.5538 360.135,-73.2726"/>
<polygon fill="midnightblue" stroke="midnightblue" points="360.495,-76.7578 370.278,-72.6924 360.095,-69.7692 360.495,-76.7578"/>
</g>
<!-- Node4 -->
<g id="node4" class="node"><title>Node4</title>
<g id="a_node4"><a xlink:href="BasicDefinitions_8h.html" target="_top" xlink:title="BasicDefinitions.h">
<polygon fill="white" stroke="black" points="906.176,-59.9 906.176,-82.3 1011.82,-82.3 1011.82,-59.9 906.176,-59.9"/>
<text text-anchor="middle" x="959" y="-67.5" font-family="-adobe-utopia-medium-i-normal--0-0-0-0-p-0-iso10646-1" font-size="12.00">BasicDefinitions.h</text>
</a>
</g>
</g>
<!-- Node3&#45;&gt;Node4 -->
<g id="edge3" class="edge"><title>Node3&#45;&gt;Node4</title>
<path fill="none" stroke="midnightblue" d="M629.616,-421.901C702.735,-412.115 862.179,-384.646 980,-320.4 1014.65,-301.507 1029.94,-297.05 1046,-261 1071.97,-202.699 1064.29,-169.86 1026,-118.8 1016.42,-106.021 1002.29,-95.4451 989.481,-87.6084"/>
<polygon fill="midnightblue" stroke="midnightblue" points="990.876,-84.3719 980.467,-82.3938 987.371,-90.431 990.876,-84.3719"/>
</g>
<!-- Node9 -->
<g id="node9" class="node"><title>Node9</title>
<g id="a_node9"><a xlink:href="Chromosome_8h.html" target="_top" xlink:title="Chromosome.h">
<polygon fill="white" stroke="black" points="674.17,-297.5 674.17,-319.9 763.83,-319.9 763.83,-297.5 674.17,-297.5"/>
<text text-anchor="middle" x="719" y="-305.1" font-family="-adobe-utopia-medium-i-normal--0-0-0-0-p-0-iso10646-1" font-size="12.00">Chromosome.h</text>
</a>
</g>
</g>
<!-- Node3&#45;&gt;Node9 -->
<g id="edge8" class="edge"><title>Node3&#45;&gt;Node9</title>
<path fill="none" stroke="midnightblue" d="M601.448,-416.135C623.577,-396.099 672.438,-351.859 699.684,-327.189"/>
<polygon fill="midnightblue" stroke="midnightblue" points="702.329,-329.516 707.392,-320.21 697.63,-324.327 702.329,-329.516"/>
</g>
<!-- Node16 -->
<g id="node16" class="node"><title>Node16</title>
<polygon fill="white" stroke="#bfbfbf" points="190.669,-59.9 190.669,-82.3 227.331,-82.3 227.331,-59.9 190.669,-59.9"/>
<text text-anchor="middle" x="209" y="-67.5" font-family="-adobe-utopia-medium-i-normal--0-0-0-0-p-0-iso10646-1" font-size="12.00">map</text>
</g>
<!-- Node3&#45;&gt;Node16 -->
<g id="edge48" class="edge"><title>Node3&#45;&gt;Node16</title>
<path fill="none" stroke="midnightblue" d="M559.155,-416.292C534.882,-407.789 500.511,-394.694 472,-379.8 387.369,-335.59 364.555,-324.22 293,-261 244.731,-218.353 226.197,-204.54 210,-142.2 205.798,-126.026 205.815,-107.038 206.735,-92.9058"/>
<polygon fill="midnightblue" stroke="midnightblue" points="210.238,-93.022 207.603,-82.7601 203.263,-92.4254 210.238,-93.022"/>
</g>
<!-- Node20 -->
<g id="node20" class="node"><title>Node20</title>
<g id="a_node20"><a xlink:href="Individual_8h.html" target="_top" xlink:title="Individual.h">
<polygon fill="white" stroke="black" points="552.837,-356.9 552.837,-379.3 627.163,-379.3 627.163,-356.9 552.837,-356.9"/>
<text text-anchor="middle" x="590" y="-364.5" font-family="-adobe-utopia-medium-i-normal--0-0-0-0-p-0-iso10646-1" font-size="12.00">Individual.h</text>
</a>
</g>
</g>
<!-- Node3&#45;&gt;Node20 -->
<g id="edge32" class="edge"><title>Node3&#45;&gt;Node20</title>
<path fill="none" stroke="midnightblue" d="M584.684,-416.238C583.338,-408.902 582.939,-398.779 583.489,-389.793"/>
<polygon fill="midnightblue" stroke="midnightblue" points="586.989,-389.99 584.63,-379.661 580.033,-389.207 586.989,-389.99"/>
</g>
<!-- Node24 -->
<g id="node24" class="node"><title>Node24</title>
<polygon fill="white" stroke="#bfbfbf" points="481.008,-356.9 481.008,-379.3 534.992,-379.3 534.992,-356.9 481.008,-356.9"/>
<text text-anchor="middle" x="508" y="-364.5" font-family="-adobe-utopia-medium-i-normal--0-0-0-0-p-0-iso10646-1" font-size="12.00">ostream</text>
</g>
<!-- Node3&#45;&gt;Node24 -->
<g id="edge49" class="edge"><title>Node3&#45;&gt;Node24</title>
<path fill="none" stroke="midnightblue" d="M575.34,-416.238C563.056,-407.639 545.302,-395.211 531.107,-385.275"/>
<polygon fill="midnightblue" stroke="midnightblue" points="533.009,-382.334 522.81,-379.467 528.995,-388.069 533.009,-382.334"/>
</g>
<!-- Node4&#45;&gt;Node5 -->
<g id="edge4" class="edge"><title>Node4&#45;&gt;Node5</title>
<path fill="none" stroke="midnightblue" d="M905.984,-61.5359C901.257,-60.8017 896.543,-60.0803 892,-59.4 781.931,-42.9176 651.171,-25.1646 591.133,-17.1154"/>
<polygon fill="midnightblue" stroke="midnightblue" points="591.479,-13.6306 581.103,-15.7729 590.551,-20.5687 591.479,-13.6306"/>
</g>
<!-- Node4&#45;&gt;Node6 -->
<g id="edge5" class="edge"><title>Node4&#45;&gt;Node6</title>
<path fill="none" stroke="midnightblue" d="M905.935,-65.7857C768.796,-54.6359 405.23,-25.0768 289.159,-15.6399"/>
<polygon fill="midnightblue" stroke="midnightblue" points="289.278,-12.138 279.027,-14.8161 288.71,-19.115 289.278,-12.138"/>
</g>
<!-- Node4&#45;&gt;Node7 -->
<g id="edge6" class="edge"><title>Node4&#45;&gt;Node7</title>
<path fill="none" stroke="midnightblue" d="M985.638,-59.838C1009.72,-50.5616 1045.37,-36.8284 1071.98,-26.5751"/>
<polygon fill="midnightblue" stroke="midnightblue" points="1073.27,-29.8307 1081.34,-22.9697 1070.75,-23.2986 1073.27,-29.8307"/>
</g>
<!-- Node8 -->
<g id="node8" class="node"><title>Node8</title>
<polygon fill="white" stroke="#bfbfbf" points="932.834,-0.5 932.834,-22.9 985.166,-22.9 985.166,-0.5 932.834,-0.5"/>
<text text-anchor="middle" x="959" y="-8.1" font-family="-adobe-utopia-medium-i-normal--0-0-0-0-p-0-iso10646-1" font-size="12.00">string.h</text>
</g>
<!-- Node4&#45;&gt;Node8 -->
<g id="edge7" class="edge"><title>Node4&#45;&gt;Node8</title>
<path fill="none" stroke="midnightblue" d="M959,-59.838C959,-52.5019 959,-42.3785 959,-33.3932"/>
<polygon fill="midnightblue" stroke="midnightblue" points="962.5,-33.2614 959,-23.2615 955.5,-33.2615 962.5,-33.2614"/>
</g>
<!-- Node9&#45;&gt;Node4 -->
<g id="edge9" class="edge"><title>Node9&#45;&gt;Node4</title>
<path fill="none" stroke="midnightblue" d="M763.867,-305.997C828.868,-302.479 944.29,-291.935 970,-261 1010.5,-212.274 983.731,-129.749 968.066,-92.0087"/>
<polygon fill="midnightblue" stroke="midnightblue" points="971.187,-90.408 964.007,-82.617 964.761,-93.185 971.187,-90.408"/>
</g>
<!-- Node9&#45;&gt;Node5 -->
<g id="edge31" class="edge"><title>Node9&#45;&gt;Node5</title>
<path fill="none" stroke="midnightblue" d="M713.17,-297.265C700.662,-273.327 674.604,-213.794 703,-178.2 749.786,-119.555 904.406,-179.989 861,-118.8 798.378,-30.5221 656.413,-15.1209 591.51,-12.8301"/>
<polygon fill="midnightblue" stroke="midnightblue" points="591.504,-9.32875 581.414,-12.5591 591.316,-16.3262 591.504,-9.32875"/>
</g>
<!-- Node10 -->
<g id="node10" class="node"><title>Node10</title>
<g id="a_node10"><a xlink:href="MarkerSet_8h.html" target="_top" xlink:title="MarkerSet.h">
<polygon fill="white" stroke="black" points="728.179,-238.1 728.179,-260.5 803.821,-260.5 803.821,-238.1 728.179,-238.1"/>
<text text-anchor="middle" x="766" y="-245.7" font-family="-adobe-utopia-medium-i-normal--0-0-0-0-p-0-iso10646-1" font-size="12.00">MarkerSet.h</text>
</a>
</g>
</g>
<!-- Node9&#45;&gt;Node10 -->
<g id="edge10" class="edge"><title>Node9&#45;&gt;Node10</title>
<path fill="none" stroke="midnightblue" d="M727.403,-297.438C733.938,-289.457 743.174,-278.177 750.973,-268.653"/>
<polygon fill="midnightblue" stroke="midnightblue" points="753.725,-270.816 757.352,-260.861 748.309,-266.381 753.725,-270.816"/>
</g>
<!-- Node10&#45;&gt;Node4 -->
<g id="edge11" class="edge"><title>Node10&#45;&gt;Node4</title>
<path fill="none" stroke="midnightblue" d="M803.922,-238.869C827.237,-231.621 856.632,-219.724 878,-201.6 914.223,-170.875 939.411,-119.749 951.272,-91.8112"/>
<polygon fill="midnightblue" stroke="midnightblue" points="954.605,-92.9103 955.161,-82.3301 948.128,-90.2539 954.605,-92.9103"/>
</g>
<!-- Node10&#45;&gt;Node11 -->
<g id="edge12" class="edge"><title>Node10&#45;&gt;Node11</title>
<path fill="none" stroke="midnightblue" d="M728.099,-238.038C688.849,-227.411 627.999,-210.935 589.615,-200.543"/>
<polygon fill="midnightblue" stroke="midnightblue" points="590.461,-197.146 579.894,-197.911 588.632,-203.903 590.461,-197.146"/>
</g>
<!-- Node18 -->
<g id="node18" class="node"><title>Node18</title>
<polygon fill="white" stroke="#bfbfbf" points="821.664,-119.3 821.664,-141.7 852.336,-141.7 852.336,-119.3 821.664,-119.3"/>
<text text-anchor="middle" x="837" y="-126.9" font-family="-adobe-utopia-medium-i-normal--0-0-0-0-p-0-iso10646-1" font-size="12.00">list</text>
</g>
<!-- Node10&#45;&gt;Node18 -->
<g id="edge30" class="edge"><title>Node10&#45;&gt;Node18</title>
<path fill="none" stroke="midnightblue" d="M804.174,-239.927C824.815,-233.244 848.565,-221.569 861,-201.6 870.911,-185.685 861.757,-165.169 852.034,-150.451"/>
<polygon fill="midnightblue" stroke="midnightblue" points="854.741,-148.219 846.073,-142.128 849.051,-152.296 854.741,-148.219"/>
</g>
<!-- Node19 -->
<g id="node19" class="node"><title>Node19</title>
<polygon fill="white" stroke="#bfbfbf" points="712.171,-178.7 712.171,-201.1 851.829,-201.1 851.829,-178.7 712.171,-178.7"/>
<text text-anchor="middle" x="782" y="-186.3" font-family="-adobe-utopia-medium-i-normal--0-0-0-0-p-0-iso10646-1" font-size="12.00">boost/dynamic_bitset.hpp</text>
</g>
<!-- Node10&#45;&gt;Node19 -->
<g id="edge29" class="edge"><title>Node10&#45;&gt;Node19</title>
<path fill="none" stroke="midnightblue" d="M768.86,-238.038C770.928,-230.621 773.789,-220.356 776.314,-211.297"/>
<polygon fill="midnightblue" stroke="midnightblue" points="779.742,-212.034 779.056,-201.461 772.999,-210.154 779.742,-212.034"/>
</g>
<!-- Node11&#45;&gt;Node4 -->
<g id="edge13" class="edge"><title>Node11&#45;&gt;Node4</title>
<path fill="none" stroke="midnightblue" d="M579.973,-181.897C617.508,-171.629 684.946,-152.584 708,-142.2 726.084,-134.055 727.609,-126.229 746,-118.8 794.42,-99.2415 852.502,-87.2016 895.776,-80.2564"/>
<polygon fill="midnightblue" stroke="midnightblue" points="896.542,-83.6793 905.885,-78.683 895.466,-76.7626 896.542,-83.6793"/>
</g>
<!-- Node11&#45;&gt;Node5 -->
<g id="edge25" class="edge"><title>Node11&#45;&gt;Node5</title>
<path fill="none" stroke="midnightblue" d="M545.221,-178.591C538.208,-169.634 528.927,-155.966 525,-142.2 513.932,-103.398 533.132,-57.5494 546.583,-32.1367"/>
<polygon fill="midnightblue" stroke="midnightblue" points="549.771,-33.6052 551.552,-23.1611 543.647,-30.2151 549.771,-33.6052"/>
</g>
<!-- Node11&#45;&gt;Node6 -->
<g id="edge24" class="edge"><title>Node11&#45;&gt;Node6</title>
<path fill="none" stroke="midnightblue" d="M546.439,-178.358C528.161,-153.662 478.936,-91.7147 423,-59.4 380.667,-34.9438 324.977,-22.8255 289.08,-17.1698"/>
<polygon fill="midnightblue" stroke="midnightblue" points="289.466,-13.6888 279.06,-15.6782 288.436,-20.6125 289.466,-13.6888"/>
</g>
<!-- Node12 -->
<g id="node12" class="node"><title>Node12</title>
<g id="a_node12"><a xlink:href="NucleotideMap_8h.html" target="_top" xlink:title="NucleotideMap.h">
<polygon fill="white" stroke="black" points="599.179,-119.3 599.179,-141.7 698.821,-141.7 698.821,-119.3 599.179,-119.3"/>
<text text-anchor="middle" x="649" y="-126.9" font-family="-adobe-utopia-medium-i-normal--0-0-0-0-p-0-iso10646-1" font-size="12.00">NucleotideMap.h</text>
</a>
</g>
</g>
<!-- Node11&#45;&gt;Node12 -->
<g id="edge14" class="edge"><title>Node11&#45;&gt;Node12</title>
<path fill="none" stroke="midnightblue" d="M570.984,-178.638C585.484,-169.877 606.563,-157.141 623.156,-147.115"/>
<polygon fill="midnightblue" stroke="midnightblue" points="625.094,-150.034 631.843,-141.867 621.474,-144.042 625.094,-150.034"/>
</g>
<!-- Node13 -->
<g id="node13" class="node"><title>Node13</title>
<g id="a_node13"><a xlink:href="SNP_8h.html" target="_top" xlink:title="SNP.h">
<polygon fill="white" stroke="black" points="534.498,-119.3 534.498,-141.7 581.502,-141.7 581.502,-119.3 534.498,-119.3"/>
<text text-anchor="middle" x="558" y="-126.9" font-family="-adobe-utopia-medium-i-normal--0-0-0-0-p-0-iso10646-1" font-size="12.00">SNP.h</text>
</a>
</g>
</g>
<!-- Node11&#45;&gt;Node13 -->
<g id="edge16" class="edge"><title>Node11&#45;&gt;Node13</title>
<path fill="none" stroke="midnightblue" d="M554.715,-178.638C555.226,-171.302 555.932,-161.179 556.558,-152.193"/>
<polygon fill="midnightblue" stroke="midnightblue" points="560.06,-152.281 557.264,-142.061 553.077,-151.794 560.06,-152.281"/>
</g>
<!-- Node11&#45;&gt;Node14 -->
<g id="edge26" class="edge"><title>Node11&#45;&gt;Node14</title>
<path fill="none" stroke="midnightblue" d="M527.752,-180.042C506.589,-172.132 476.716,-159.176 454,-142.2 434.417,-127.566 416.435,-105.917 404.938,-90.5553"/>
<polygon fill="midnightblue" stroke="midnightblue" points="407.67,-88.3617 398.955,-82.3376 402.011,-92.4819 407.67,-88.3617"/>
</g>
<!-- Node15 -->
<g id="node15" class="node"><title>Node15</title>
<g id="a_node15"><a xlink:href="SNPPositionMap_8h.html" target="_top" xlink:title="SNPPositionMap.h">
<polygon fill="white" stroke="black" points="255.83,-119.3 255.83,-141.7 364.17,-141.7 364.17,-119.3 255.83,-119.3"/>
<text text-anchor="middle" x="310" y="-126.9" font-family="-adobe-utopia-medium-i-normal--0-0-0-0-p-0-iso10646-1" font-size="12.00">SNPPositionMap.h</text>
</a>
</g>
</g>
<!-- Node11&#45;&gt;Node15 -->
<g id="edge20" class="edge"><title>Node11&#45;&gt;Node15</title>
<path fill="none" stroke="midnightblue" d="M527.888,-182.757C488.816,-173.566 414.297,-156.035 363.392,-144.06"/>
<polygon fill="midnightblue" stroke="midnightblue" points="364.079,-140.626 353.543,-141.743 362.476,-147.44 364.079,-140.626"/>
</g>
<!-- Node11&#45;&gt;Node16 -->
<g id="edge27" class="edge"><title>Node11&#45;&gt;Node16</title>
<path fill="none" stroke="midnightblue" d="M527.685,-187.861C461.879,-184.805 292.214,-173.97 247,-142.2 229.997,-130.253 219.868,-108.212 214.398,-92.0244"/>
<polygon fill="midnightblue" stroke="midnightblue" points="217.725,-90.9342 211.451,-82.3966 211.031,-92.9831 217.725,-90.9342"/>
</g>
<!-- Node17 -->
<g id="node17" class="node"><title>Node17</title>
<polygon fill="white" stroke="#bfbfbf" points="754.502,-119.3 754.502,-141.7 803.498,-141.7 803.498,-119.3 754.502,-119.3"/>
<text text-anchor="middle" x="779" y="-126.9" font-family="-adobe-utopia-medium-i-normal--0-0-0-0-p-0-iso10646-1" font-size="12.00">math.h</text>
</g>
<!-- Node11&#45;&gt;Node17 -->
<g id="edge23" class="edge"><title>Node11&#45;&gt;Node17</title>
<path fill="none" stroke="midnightblue" d="M580.229,-181.798C584.815,-180.581 589.543,-179.342 594,-178.2 659.16,-161.508 675.951,-159.318 741,-142.2 742.06,-141.921 743.137,-141.635 744.223,-141.344"/>
<polygon fill="midnightblue" stroke="midnightblue" points="745.373,-144.658 754.096,-138.644 743.527,-137.906 745.373,-144.658"/>
</g>
<!-- Node11&#45;&gt;Node18 -->
<g id="edge28" class="edge"><title>Node11&#45;&gt;Node18</title>
<path fill="none" stroke="midnightblue" d="M580.224,-184.923C636.783,-176.22 768.622,-155.227 812,-142.2 812.099,-142.17 812.198,-142.14 812.297,-142.11"/>
<polygon fill="midnightblue" stroke="midnightblue" points="813.393,-145.436 821.598,-138.732 811.004,-138.856 813.393,-145.436"/>
</g>
<!-- Node12&#45;&gt;Node4 -->
<g id="edge15" class="edge"><title>Node12&#45;&gt;Node4</title>
<path fill="none" stroke="midnightblue" d="M699.151,-120.214C752.74,-110.291 837.806,-94.5405 895.905,-83.7828"/>
<polygon fill="midnightblue" stroke="midnightblue" points="896.87,-87.1636 906.066,-81.9014 895.596,-80.2806 896.87,-87.1636"/>
</g>
<!-- Node13&#45;&gt;Node4 -->
<g id="edge17" class="edge"><title>Node13&#45;&gt;Node4</title>
<path fill="none" stroke="midnightblue" d="M581.618,-121.026C584.42,-120.192 587.259,-119.425 590,-118.8 695.825,-94.6584 821.77,-82.0859 895.786,-76.2981"/>
<polygon fill="midnightblue" stroke="midnightblue" points="896.174,-79.7787 905.878,-75.5259 895.64,-72.7991 896.174,-79.7787"/>
</g>
<!-- Node13&#45;&gt;Node5 -->
<g id="edge19" class="edge"><title>Node13&#45;&gt;Node5</title>
<path fill="none" stroke="midnightblue" d="M558,-119.135C558,-99.9622 558,-58.6276 558,-33.4848"/>
<polygon fill="midnightblue" stroke="midnightblue" points="561.5,-33.2099 558,-23.2099 554.5,-33.2099 561.5,-33.2099"/>
</g>
<!-- Node13&#45;&gt;Node14 -->
<g id="edge18" class="edge"><title>Node13&#45;&gt;Node14</title>
<path fill="none" stroke="midnightblue" d="M534.216,-121.276C505.175,-111.234 455.952,-94.2137 423.711,-83.0652"/>
<polygon fill="midnightblue" stroke="midnightblue" points="424.482,-79.6284 413.887,-79.6682 422.194,-86.244 424.482,-79.6284"/>
</g>
<!-- Node15&#45;&gt;Node14 -->
<g id="edge22" class="edge"><title>Node15&#45;&gt;Node14</title>
<path fill="none" stroke="midnightblue" d="M324.66,-119.238C336.944,-110.639 354.698,-98.2112 368.893,-88.2749"/>
<polygon fill="midnightblue" stroke="midnightblue" points="371.005,-91.0686 377.19,-82.4667 366.991,-85.334 371.005,-91.0686"/>
</g>
<!-- Node15&#45;&gt;Node16 -->
<g id="edge21" class="edge"><title>Node15&#45;&gt;Node16</title>
<path fill="none" stroke="midnightblue" d="M291.943,-119.238C276.385,-110.396 253.702,-97.5046 235.987,-87.4374"/>
<polygon fill="midnightblue" stroke="midnightblue" points="237.664,-84.3648 227.241,-82.4667 234.206,-90.4506 237.664,-84.3648"/>
</g>
<!-- Node20&#45;&gt;Node3 -->
<g id="edge42" class="edge"><title>Node20&#45;&gt;Node3</title>
<path fill="none" stroke="midnightblue" d="M595.37,-379.661C596.691,-387.072 597.064,-397.217 596.488,-406.171"/>
<polygon fill="midnightblue" stroke="midnightblue" points="592.996,-405.9 595.316,-416.238 599.949,-406.71 592.996,-405.9"/>
</g>
<!-- Node20&#45;&gt;Node4 -->
<g id="edge33" class="edge"><title>Node20&#45;&gt;Node4</title>
<path fill="none" stroke="midnightblue" d="M627.304,-365.237C733.864,-358.906 1032,-333.738 1032,-250.3 1032,-250.3 1032,-250.3 1032,-188.9 1032,-148.436 1000.1,-110.432 978.479,-89.3162"/>
<polygon fill="midnightblue" stroke="midnightblue" points="980.735,-86.6333 971.054,-82.3276 975.937,-91.7303 980.735,-86.6333"/>
</g>
<!-- Node20&#45;&gt;Node7 -->
<g id="edge47" class="edge"><title>Node20&#45;&gt;Node7</title>
<path fill="none" stroke="midnightblue" d="M627.311,-365.496C712.251,-361.389 917.514,-348.755 980,-320.4 1053.69,-286.959 1108,-271.826 1108,-190.9 1108,-190.9 1108,-190.9 1108,-129.5 1108,-95.6931 1108,-56.3821 1108,-33.0743"/>
<polygon fill="midnightblue" stroke="midnightblue" points="1111.5,-33.012 1108,-23.012 1104.5,-33.012 1111.5,-33.012"/>
</g>
<!-- Node20&#45;&gt;Node9 -->
<g id="edge34" class="edge"><title>Node20&#45;&gt;Node9</title>
<path fill="none" stroke="midnightblue" d="M613.063,-356.838C633.481,-347.753 663.508,-334.392 686.384,-324.213"/>
<polygon fill="midnightblue" stroke="midnightblue" points="687.989,-327.33 695.702,-320.067 685.143,-320.934 687.989,-327.33"/>
</g>
<!-- Node20&#45;&gt;Node14 -->
<g id="edge43" class="edge"><title>Node20&#45;&gt;Node14</title>
<path fill="none" stroke="midnightblue" d="M561.209,-356.836C506.294,-336.37 392,-289.113 392,-250.3 392,-250.3 392,-250.3 392,-188.9 392,-155.093 392,-115.782 392,-92.4743"/>
<polygon fill="midnightblue" stroke="midnightblue" points="395.5,-92.412 392,-82.412 388.5,-92.412 395.5,-92.412"/>
</g>
<!-- Node20&#45;&gt;Node16 -->
<g id="edge45" class="edge"><title>Node20&#45;&gt;Node16</title>
<path fill="none" stroke="midnightblue" d="M552.645,-358.064C512.613,-348.042 451.99,-331.786 431,-320.4 323.998,-262.356 284.515,-247.245 223,-142.2 214.104,-127.009 210.769,-107.132 209.562,-92.4242"/>
<polygon fill="midnightblue" stroke="midnightblue" points="213.052,-92.1371 208.998,-82.3485 206.063,-92.5285 213.052,-92.1371"/>
</g>
<!-- Node20&#45;&gt;Node18 -->
<g id="edge44" class="edge"><title>Node20&#45;&gt;Node18</title>
<path fill="none" stroke="midnightblue" d="M600.079,-356.783C608.343,-347.819 619.81,-334.149 627,-320.4 657.597,-261.891 622.266,-223.817 670,-178.2 717.07,-133.218 750.329,-163.073 812,-142.2 812.098,-142.167 812.196,-142.134 812.294,-142.1"/>
<polygon fill="midnightblue" stroke="midnightblue" points="813.455,-145.403 821.543,-138.56 810.952,-138.866 813.455,-145.403"/>
</g>
<!-- Node21 -->
<g id="node21" class="node"><title>Node21</title>
<g id="a_node21"><a xlink:href="Match_8h.html" target="_top" xlink:title="Match.h">
<polygon fill="white" stroke="black" points="562.172,-297.5 562.172,-319.9 617.828,-319.9 617.828,-297.5 562.172,-297.5"/>
<text text-anchor="middle" x="590" y="-305.1" font-family="-adobe-utopia-medium-i-normal--0-0-0-0-p-0-iso10646-1" font-size="12.00">Match.h</text>
</a>
</g>
</g>
<!-- Node20&#45;&gt;Node21 -->
<g id="edge35" class="edge"><title>Node20&#45;&gt;Node21</title>
<path fill="none" stroke="midnightblue" d="M584.684,-356.838C583.338,-349.502 582.939,-339.379 583.489,-330.393"/>
<polygon fill="midnightblue" stroke="midnightblue" points="586.989,-330.59 584.63,-320.261 580.033,-329.807 586.989,-330.59"/>
</g>
<!-- Node23 -->
<g id="node23" class="node"><title>Node23</title>
<polygon fill="white" stroke="#bfbfbf" points="515.336,-297.5 515.336,-319.9 544.664,-319.9 544.664,-297.5 515.336,-297.5"/>
<text text-anchor="middle" x="530" y="-305.1" font-family="-adobe-utopia-medium-i-normal--0-0-0-0-p-0-iso10646-1" font-size="12.00">set</text>
</g>
<!-- Node20&#45;&gt;Node23 -->
<g id="edge46" class="edge"><title>Node20&#45;&gt;Node23</title>
<path fill="none" stroke="midnightblue" d="M579.273,-356.838C570.678,-348.615 558.422,-336.89 548.284,-327.192"/>
<polygon fill="midnightblue" stroke="midnightblue" points="550.685,-324.645 541.04,-320.261 545.846,-329.703 550.685,-324.645"/>
</g>
<!-- Node21&#45;&gt;Node4 -->
<g id="edge36" class="edge"><title>Node21&#45;&gt;Node4</title>
<path fill="none" stroke="midnightblue" d="M617.862,-303.193C669.456,-294.628 777.821,-275.558 813,-261 857.628,-242.532 870.005,-235.908 904,-201.6 926.059,-179.338 929.694,-171.023 942,-142.2 948.829,-126.206 953.251,-106.935 955.869,-92.6499"/>
<polygon fill="midnightblue" stroke="midnightblue" points="959.382,-92.8626 957.593,-82.42 952.48,-91.6995 959.382,-92.8626"/>
</g>
<!-- Node21&#45;&gt;Node10 -->
<g id="edge38" class="edge"><title>Node21&#45;&gt;Node10</title>
<path fill="none" stroke="midnightblue" d="M617.888,-298.605C646.7,-289.208 691.979,-274.441 724.894,-263.706"/>
<polygon fill="midnightblue" stroke="midnightblue" points="726.259,-266.943 734.681,-260.514 724.088,-260.288 726.259,-266.943"/>
</g>
<!-- Node21&#45;&gt;Node11 -->
<g id="edge37" class="edge"><title>Node21&#45;&gt;Node11</title>
<path fill="none" stroke="midnightblue" d="M586.805,-297.335C580.843,-277.989 567.926,-236.081 560.198,-211.009"/>
<polygon fill="midnightblue" stroke="midnightblue" points="563.53,-209.935 557.239,-201.41 556.84,-211.997 563.53,-209.935"/>
</g>
<!-- Node21&#45;&gt;Node17 -->
<g id="edge40" class="edge"><title>Node21&#45;&gt;Node17</title>
<path fill="none" stroke="midnightblue" d="M590.298,-297.338C591.565,-273.029 598.139,-211.858 632,-178.2 636.132,-174.093 702.592,-153.985 744.721,-141.531"/>
<polygon fill="midnightblue" stroke="midnightblue" points="745.737,-144.88 754.339,-138.695 743.758,-138.166 745.737,-144.88"/>
</g>
<!-- Node21&#45;&gt;Node20 -->
<g id="edge39" class="edge"><title>Node21&#45;&gt;Node20</title>
<path fill="none" stroke="midnightblue" d="M595.37,-320.261C596.691,-327.672 597.064,-337.817 596.488,-346.771"/>
<polygon fill="midnightblue" stroke="midnightblue" points="592.996,-346.5 595.316,-356.838 599.949,-347.31 592.996,-346.5"/>
</g>
<!-- Node22 -->
<g id="node22" class="node"><title>Node22</title>
<polygon fill="white" stroke="#bfbfbf" points="486.334,-238.1 486.334,-260.5 541.666,-260.5 541.666,-238.1 486.334,-238.1"/>
<text text-anchor="middle" x="514" y="-245.7" font-family="-adobe-utopia-medium-i-normal--0-0-0-0-p-0-iso10646-1" font-size="12.00">iomanip</text>
</g>
<!-- Node21&#45;&gt;Node22 -->
<g id="edge41" class="edge"><title>Node21&#45;&gt;Node22</title>
<path fill="none" stroke="midnightblue" d="M576.413,-297.438C565.135,-288.92 548.882,-276.645 535.789,-266.757"/>
<polygon fill="midnightblue" stroke="midnightblue" points="537.815,-263.901 527.726,-260.667 533.596,-269.486 537.815,-263.901"/>
</g>
</g>
</svg>
