<?xml version="1.0" encoding="UTF-8" standalone="no"?>
<!DOCTYPE svg PUBLIC "-//W3C//DTD SVG 1.1//EN"
 "http://www.w3.org/Graphics/SVG/1.1/DTD/svg11.dtd">
<!-- Generated by graphviz version 2.38.0 (20140413.2041)
 -->
<!-- Title: SNP.h Pages: 1 -->
<svg width="270pt" height="150pt"
 viewBox="0.00 0.00 270.16 150.20" xmlns="http://www.w3.org/2000/svg" xmlns:xlink="http://www.w3.org/1999/xlink">
<g id="graph0" class="graph" transform="scale(1 1) rotate(0) translate(4 146.2)">
<title>SNP.h</title>
<polygon fill="white" stroke="none" points="-4,4 -4,-146.2 266.157,-146.2 266.157,4 -4,4"/>
<!-- Node1 -->
<g id="node1" class="node"><title>Node1</title>
<polygon fill="#bfbfbf" stroke="black" points="80.4894,-119.3 80.4894,-141.7 127.494,-141.7 127.494,-119.3 80.4894,-119.3"/>
<text text-anchor="middle" x="103.992" y="-126.9" font-family="-adobe-utopia-medium-i-normal--0-0-0-0-p-0-iso10646-1" font-size="12.00">SNP.h</text>
</g>
<!-- Node2 -->
<g id="node2" class="node"><title>Node2</title>
<g id="a_node2"><a xlink:href="BasicDefinitions_8h.html" target="_top" xlink:title="BasicDefinitions.h">
<polygon fill="white" stroke="black" points="51.1674,-59.9 51.1674,-82.3 156.816,-82.3 156.816,-59.9 51.1674,-59.9"/>
<text text-anchor="middle" x="103.992" y="-67.5" font-family="-adobe-utopia-medium-i-normal--0-0-0-0-p-0-iso10646-1" font-size="12.00">BasicDefinitions.h</text>
</a>
</g>
</g>
<!-- Node1&#45;&gt;Node2 -->
<g id="edge1" class="edge"><title>Node1&#45;&gt;Node2</title>
<path fill="none" stroke="midnightblue" d="M103.992,-119.238C103.992,-111.902 103.992,-101.779 103.992,-92.7932"/>
<polygon fill="midnightblue" stroke="midnightblue" points="107.492,-92.6614 103.992,-82.6615 100.492,-92.6615 107.492,-92.6614"/>
</g>
<!-- Node3 -->
<g id="node3" class="node"><title>Node3</title>
<polygon fill="white" stroke="#bfbfbf" points="3.55271e-15,-0.5 3.55271e-15,-22.9 45.9832,-22.9 45.9832,-0.5 3.55271e-15,-0.5"/>
<text text-anchor="middle" x="22.9916" y="-8.1" font-family="-adobe-utopia-medium-i-normal--0-0-0-0-p-0-iso10646-1" font-size="12.00">vector</text>
</g>
<!-- Node1&#45;&gt;Node3 -->
<g id="edge7" class="edge"><title>Node1&#45;&gt;Node3</title>
<path fill="none" stroke="midnightblue" d="M84.1451,-119.221C70.3678,-111.105 52.641,-98.5359 41.9916,-82.8 31.9673,-67.9878 27.2184,-48.069 24.9765,-33.2499"/>
<polygon fill="midnightblue" stroke="midnightblue" points="28.4187,-32.5691 23.7049,-23.0807 21.4728,-33.4377 28.4187,-32.5691"/>
</g>
<!-- Node7 -->
<g id="node7" class="node"><title>Node7</title>
<polygon fill="white" stroke="#bfbfbf" points="174.326,-59.9 174.326,-82.3 217.657,-82.3 217.657,-59.9 174.326,-59.9"/>
<text text-anchor="middle" x="195.992" y="-67.5" font-family="-adobe-utopia-medium-i-normal--0-0-0-0-p-0-iso10646-1" font-size="12.00">string</text>
</g>
<!-- Node1&#45;&gt;Node7 -->
<g id="edge6" class="edge"><title>Node1&#45;&gt;Node7</title>
<path fill="none" stroke="midnightblue" d="M120.439,-119.238C134.351,-110.558 154.517,-97.9764 170.516,-87.9943"/>
<polygon fill="midnightblue" stroke="midnightblue" points="172.745,-90.7295 179.376,-82.4667 169.039,-84.7906 172.745,-90.7295"/>
</g>
<!-- Node2&#45;&gt;Node3 -->
<g id="edge2" class="edge"><title>Node2&#45;&gt;Node3</title>
<path fill="none" stroke="midnightblue" d="M89.5104,-59.838C77.3763,-51.2393 59.8384,-38.8112 45.8168,-28.8749"/>
<polygon fill="midnightblue" stroke="midnightblue" points="47.8032,-25.9929 37.6205,-23.0667 43.7559,-31.7042 47.8032,-25.9929"/>
</g>
<!-- Node4 -->
<g id="node4" class="node"><title>Node4</title>
<polygon fill="white" stroke="#bfbfbf" points="64.0018,-0.5 64.0018,-22.9 115.981,-22.9 115.981,-0.5 64.0018,-0.5"/>
<text text-anchor="middle" x="89.9916" y="-8.1" font-family="-adobe-utopia-medium-i-normal--0-0-0-0-p-0-iso10646-1" font-size="12.00">fstream</text>
</g>
<!-- Node2&#45;&gt;Node4 -->
<g id="edge3" class="edge"><title>Node2&#45;&gt;Node4</title>
<path fill="none" stroke="midnightblue" d="M101.489,-59.838C99.6797,-52.4213 97.1759,-42.1557 94.9666,-33.0974"/>
<polygon fill="midnightblue" stroke="midnightblue" points="98.3375,-32.1473 92.5676,-23.2615 91.5369,-33.8061 98.3375,-32.1473"/>
</g>
<!-- Node5 -->
<g id="node5" class="node"><title>Node5</title>
<polygon fill="white" stroke="#bfbfbf" points="134.332,-0.5 134.332,-22.9 191.651,-22.9 191.651,-0.5 134.332,-0.5"/>
<text text-anchor="middle" x="162.992" y="-8.1" font-family="-adobe-utopia-medium-i-normal--0-0-0-0-p-0-iso10646-1" font-size="12.00">iostream</text>
</g>
<!-- Node2&#45;&gt;Node5 -->
<g id="edge4" class="edge"><title>Node2&#45;&gt;Node5</title>
<path fill="none" stroke="midnightblue" d="M114.54,-59.838C122.909,-51.6958 134.807,-40.12 144.719,-30.4775"/>
<polygon fill="midnightblue" stroke="midnightblue" points="147.409,-32.7434 152.136,-23.2615 142.527,-27.726 147.409,-32.7434"/>
</g>
<!-- Node6 -->
<g id="node6" class="node"><title>Node6</title>
<polygon fill="white" stroke="#bfbfbf" points="209.826,-0.5 209.826,-22.9 262.157,-22.9 262.157,-0.5 209.826,-0.5"/>
<text text-anchor="middle" x="235.992" y="-8.1" font-family="-adobe-utopia-medium-i-normal--0-0-0-0-p-0-iso10646-1" font-size="12.00">string.h</text>
</g>
<!-- Node2&#45;&gt;Node6 -->
<g id="edge5" class="edge"><title>Node2&#45;&gt;Node6</title>
<path fill="none" stroke="midnightblue" d="M127.591,-59.838C148.577,-50.712 179.483,-37.2726 202.931,-27.0766"/>
<polygon fill="midnightblue" stroke="midnightblue" points="204.377,-30.2642 212.152,-23.0667 201.586,-23.8448 204.377,-30.2642"/>
</g>
</g>
</svg>
