<?xml version="1.0" encoding="UTF-8" standalone="no"?>
<!DOCTYPE svg PUBLIC "-//W3C//DTD SVG 1.1//EN"
 "http://www.w3.org/Graphics/SVG/1.1/DTD/svg11.dtd">
<!-- Generated by graphviz version 2.38.0 (20140413.2041)
 -->
<!-- Title: SNPs.cpp Pages: 1 -->
<svg width="583pt" height="269pt"
 viewBox="0.00 0.00 582.66 269.00" xmlns="http://www.w3.org/2000/svg" xmlns:xlink="http://www.w3.org/1999/xlink">
<g id="graph0" class="graph" transform="scale(1 1) rotate(0) translate(4 265)">
<title>SNPs.cpp</title>
<polygon fill="white" stroke="none" points="-4,4 -4,-265 578.664,-265 578.664,4 -4,4"/>
<!-- Node1 -->
<g id="node1" class="node"><title>Node1</title>
<polygon fill="#bfbfbf" stroke="black" points="441.457,-238.1 441.457,-260.5 504.455,-260.5 504.455,-238.1 441.457,-238.1"/>
<text text-anchor="middle" x="472.956" y="-245.7" font-family="-adobe-utopia-medium-i-normal--0-0-0-0-p-0-iso10646-1" font-size="12.00">SNPs.cpp</text>
</g>
<!-- Node2 -->
<g id="node2" class="node"><title>Node2</title>
<g id="a_node2"><a xlink:href="SNPs_8h.html" target="_top" xlink:title="SNPs.h">
<polygon fill="white" stroke="black" points="311.12,-178.7 311.12,-201.1 362.791,-201.1 362.791,-178.7 311.12,-178.7"/>
<text text-anchor="middle" x="336.956" y="-186.3" font-family="-adobe-utopia-medium-i-normal--0-0-0-0-p-0-iso10646-1" font-size="12.00">SNPs.h</text>
</a>
</g>
</g>
<!-- Node1&#45;&gt;Node2 -->
<g id="edge1" class="edge"><title>Node1&#45;&gt;Node2</title>
<path fill="none" stroke="midnightblue" d="M448.642,-238.038C427.019,-228.912 395.176,-215.473 371.019,-205.277"/>
<polygon fill="midnightblue" stroke="midnightblue" points="372.092,-201.931 361.518,-201.267 369.37,-208.38 372.092,-201.931"/>
</g>
<!-- Node6 -->
<g id="node6" class="node"><title>Node6</title>
<polygon fill="white" stroke="#bfbfbf" points="420.296,-0.5 420.296,-22.9 477.615,-22.9 477.615,-0.5 420.296,-0.5"/>
<text text-anchor="middle" x="448.956" y="-8.1" font-family="-adobe-utopia-medium-i-normal--0-0-0-0-p-0-iso10646-1" font-size="12.00">iostream</text>
</g>
<!-- Node1&#45;&gt;Node6 -->
<g id="edge22" class="edge"><title>Node1&#45;&gt;Node6</title>
<path fill="none" stroke="midnightblue" d="M490.965,-238.086C524.798,-217.464 592.506,-168.565 569.956,-118.8 551.226,-77.4663 507.555,-45.8723 478.131,-28.2976"/>
<polygon fill="midnightblue" stroke="midnightblue" points="479.537,-25.0673 469.128,-23.0895 476.032,-31.1265 479.537,-25.0673"/>
</g>
<!-- Node3 -->
<g id="node3" class="node"><title>Node3</title>
<g id="a_node3"><a xlink:href="BasicDefinitions_8h.html" target="_top" xlink:title="BasicDefinitions.h">
<polygon fill="white" stroke="black" points="84.1315,-59.9 84.1315,-82.3 189.78,-82.3 189.78,-59.9 84.1315,-59.9"/>
<text text-anchor="middle" x="136.956" y="-67.5" font-family="-adobe-utopia-medium-i-normal--0-0-0-0-p-0-iso10646-1" font-size="12.00">BasicDefinitions.h</text>
</a>
</g>
</g>
<!-- Node2&#45;&gt;Node3 -->
<g id="edge2" class="edge"><title>Node2&#45;&gt;Node3</title>
<path fill="none" stroke="midnightblue" d="M310.99,-188.151C275.269,-185.807 210.766,-176.696 169.956,-142.2 154.765,-129.359 146.112,-107.963 141.514,-92.1801"/>
<polygon fill="midnightblue" stroke="midnightblue" points="144.854,-91.1193 138.947,-82.3242 138.08,-92.8835 144.854,-91.1193"/>
</g>
<!-- Node4 -->
<g id="node4" class="node"><title>Node4</title>
<polygon fill="white" stroke="#bfbfbf" points="194.964,-0.5 194.964,-22.9 240.947,-22.9 240.947,-0.5 194.964,-0.5"/>
<text text-anchor="middle" x="217.956" y="-8.1" font-family="-adobe-utopia-medium-i-normal--0-0-0-0-p-0-iso10646-1" font-size="12.00">vector</text>
</g>
<!-- Node2&#45;&gt;Node4 -->
<g id="edge18" class="edge"><title>Node2&#45;&gt;Node4</title>
<path fill="none" stroke="midnightblue" d="M363.175,-189.615C430.047,-190.493 598.559,-186.242 552.956,-118.8 518.36,-67.6364 328.926,-31.0338 251.227,-17.9649"/>
<polygon fill="midnightblue" stroke="midnightblue" points="251.47,-14.4576 241.032,-16.2779 250.327,-21.3636 251.47,-14.4576"/>
</g>
<!-- Node5 -->
<g id="node5" class="node"><title>Node5</title>
<polygon fill="white" stroke="#bfbfbf" points="4.96585,-0.5 4.96585,-22.9 56.9455,-22.9 56.9455,-0.5 4.96585,-0.5"/>
<text text-anchor="middle" x="30.9557" y="-8.1" font-family="-adobe-utopia-medium-i-normal--0-0-0-0-p-0-iso10646-1" font-size="12.00">fstream</text>
</g>
<!-- Node2&#45;&gt;Node5 -->
<g id="edge17" class="edge"><title>Node2&#45;&gt;Node5</title>
<path fill="none" stroke="midnightblue" d="M310.964,-189.29C241.196,-189.728 52.48,-186.695 13.9557,-142.2 -12.7471,-111.359 6.47715,-59.9094 20.2649,-32.0484"/>
<polygon fill="midnightblue" stroke="midnightblue" points="23.4964,-33.4201 25.0034,-22.9329 17.2855,-30.1913 23.4964,-33.4201"/>
</g>
<!-- Node8 -->
<g id="node8" class="node"><title>Node8</title>
<g id="a_node8"><a xlink:href="NucleotideMap_8h.html" target="_top" xlink:title="NucleotideMap.h">
<polygon fill="white" stroke="black" points="23.1351,-119.3 23.1351,-141.7 122.776,-141.7 122.776,-119.3 23.1351,-119.3"/>
<text text-anchor="middle" x="72.9557" y="-126.9" font-family="-adobe-utopia-medium-i-normal--0-0-0-0-p-0-iso10646-1" font-size="12.00">NucleotideMap.h</text>
</a>
</g>
</g>
<!-- Node2&#45;&gt;Node8 -->
<g id="edge7" class="edge"><title>Node2&#45;&gt;Node8</title>
<path fill="none" stroke="midnightblue" d="M310.677,-183.186C268.723,-174.064 185.647,-156.002 129.683,-143.834"/>
<polygon fill="midnightblue" stroke="midnightblue" points="130.426,-140.414 119.911,-141.709 128.939,-147.254 130.426,-140.414"/>
</g>
<!-- Node9 -->
<g id="node9" class="node"><title>Node9</title>
<g id="a_node9"><a xlink:href="SNP_8h.html" target="_top" xlink:title="SNP.h">
<polygon fill="white" stroke="black" points="179.453,-119.3 179.453,-141.7 226.458,-141.7 226.458,-119.3 179.453,-119.3"/>
<text text-anchor="middle" x="202.956" y="-126.9" font-family="-adobe-utopia-medium-i-normal--0-0-0-0-p-0-iso10646-1" font-size="12.00">SNP.h</text>
</a>
</g>
</g>
<!-- Node2&#45;&gt;Node9 -->
<g id="edge9" class="edge"><title>Node2&#45;&gt;Node9</title>
<path fill="none" stroke="midnightblue" d="M312.999,-178.638C291.562,-169.455 259.93,-155.905 236.075,-145.687"/>
<polygon fill="midnightblue" stroke="midnightblue" points="237.275,-142.393 226.705,-141.673 234.519,-148.828 237.275,-142.393"/>
</g>
<!-- Node10 -->
<g id="node10" class="node"><title>Node10</title>
<polygon fill="white" stroke="#bfbfbf" points="246.29,-59.9 246.29,-82.3 289.621,-82.3 289.621,-59.9 246.29,-59.9"/>
<text text-anchor="middle" x="267.956" y="-67.5" font-family="-adobe-utopia-medium-i-normal--0-0-0-0-p-0-iso10646-1" font-size="12.00">string</text>
</g>
<!-- Node2&#45;&gt;Node10 -->
<g id="edge19" class="edge"><title>Node2&#45;&gt;Node10</title>
<path fill="none" stroke="midnightblue" d="M314.666,-178.566C300.451,-170.716 283.047,-158.486 273.956,-142.2 265.511,-127.072 264.582,-107.187 265.433,-92.4614"/>
<polygon fill="midnightblue" stroke="midnightblue" points="268.931,-92.6424 266.336,-82.3703 261.959,-92.0186 268.931,-92.6424"/>
</g>
<!-- Node11 -->
<g id="node11" class="node"><title>Node11</title>
<g id="a_node11"><a xlink:href="SNPPositionMap_8h.html" target="_top" xlink:title="SNPPositionMap.h">
<polygon fill="white" stroke="black" points="282.786,-119.3 282.786,-141.7 391.126,-141.7 391.126,-119.3 282.786,-119.3"/>
<text text-anchor="middle" x="336.956" y="-126.9" font-family="-adobe-utopia-medium-i-normal--0-0-0-0-p-0-iso10646-1" font-size="12.00">SNPPositionMap.h</text>
</a>
</g>
</g>
<!-- Node2&#45;&gt;Node11 -->
<g id="edge13" class="edge"><title>Node2&#45;&gt;Node11</title>
<path fill="none" stroke="midnightblue" d="M336.956,-178.638C336.956,-171.302 336.956,-161.179 336.956,-152.193"/>
<polygon fill="midnightblue" stroke="midnightblue" points="340.456,-152.061 336.956,-142.061 333.456,-152.062 340.456,-152.061"/>
</g>
<!-- Node12 -->
<g id="node12" class="node"><title>Node12</title>
<polygon fill="white" stroke="#bfbfbf" points="359.625,-59.9 359.625,-82.3 396.286,-82.3 396.286,-59.9 359.625,-59.9"/>
<text text-anchor="middle" x="377.956" y="-67.5" font-family="-adobe-utopia-medium-i-normal--0-0-0-0-p-0-iso10646-1" font-size="12.00">map</text>
</g>
<!-- Node2&#45;&gt;Node12 -->
<g id="edge20" class="edge"><title>Node2&#45;&gt;Node12</title>
<path fill="none" stroke="midnightblue" d="M360.017,-178.638C374.369,-170.884 391.629,-158.738 399.956,-142.2 408.238,-125.752 400.181,-105.56 391.58,-91.079"/>
<polygon fill="midnightblue" stroke="midnightblue" points="394.389,-88.9766 386.016,-82.4842 388.512,-92.7807 394.389,-88.9766"/>
</g>
<!-- Node13 -->
<g id="node13" class="node"><title>Node13</title>
<polygon fill="white" stroke="#bfbfbf" points="446.457,-119.3 446.457,-141.7 495.454,-141.7 495.454,-119.3 446.457,-119.3"/>
<text text-anchor="middle" x="470.956" y="-126.9" font-family="-adobe-utopia-medium-i-normal--0-0-0-0-p-0-iso10646-1" font-size="12.00">math.h</text>
</g>
<!-- Node2&#45;&gt;Node13 -->
<g id="edge16" class="edge"><title>Node2&#45;&gt;Node13</title>
<path fill="none" stroke="midnightblue" d="M360.912,-178.638C382.217,-169.512 413.591,-156.073 437.394,-145.877"/>
<polygon fill="midnightblue" stroke="midnightblue" points="438.941,-149.022 446.755,-141.867 436.184,-142.587 438.941,-149.022"/>
</g>
<!-- Node14 -->
<g id="node14" class="node"><title>Node14</title>
<polygon fill="white" stroke="#bfbfbf" points="513.62,-119.3 513.62,-141.7 544.291,-141.7 544.291,-119.3 513.62,-119.3"/>
<text text-anchor="middle" x="528.956" y="-126.9" font-family="-adobe-utopia-medium-i-normal--0-0-0-0-p-0-iso10646-1" font-size="12.00">list</text>
</g>
<!-- Node2&#45;&gt;Node14 -->
<g id="edge21" class="edge"><title>Node2&#45;&gt;Node14</title>
<path fill="none" stroke="midnightblue" d="M363.032,-182.741C396.176,-174.655 454.972,-159.447 503.956,-142.2 504.053,-142.166 504.151,-142.131 504.248,-142.097"/>
<polygon fill="midnightblue" stroke="midnightblue" points="505.431,-145.392 513.478,-138.499 502.889,-138.87 505.431,-145.392"/>
</g>
<!-- Node3&#45;&gt;Node4 -->
<g id="edge3" class="edge"><title>Node3&#45;&gt;Node4</title>
<path fill="none" stroke="midnightblue" d="M151.437,-59.838C163.571,-51.2393 181.109,-38.8112 195.13,-28.8749"/>
<polygon fill="midnightblue" stroke="midnightblue" points="197.191,-31.7042 203.327,-23.0667 193.144,-25.9929 197.191,-31.7042"/>
</g>
<!-- Node3&#45;&gt;Node5 -->
<g id="edge4" class="edge"><title>Node3&#45;&gt;Node5</title>
<path fill="none" stroke="midnightblue" d="M118.005,-59.838C101.601,-50.9553 77.6516,-37.9863 59.0235,-27.899"/>
<polygon fill="midnightblue" stroke="midnightblue" points="60.5598,-24.7507 50.0997,-23.0667 57.2265,-30.9062 60.5598,-24.7507"/>
</g>
<!-- Node3&#45;&gt;Node6 -->
<g id="edge5" class="edge"><title>Node3&#45;&gt;Node6</title>
<path fill="none" stroke="midnightblue" d="M189.882,-60.3629C252.275,-48.8843 354.483,-30.0806 410.039,-19.8597"/>
<polygon fill="midnightblue" stroke="midnightblue" points="410.974,-23.2465 420.176,-17.9948 409.707,-16.362 410.974,-23.2465"/>
</g>
<!-- Node7 -->
<g id="node7" class="node"><title>Node7</title>
<polygon fill="white" stroke="#bfbfbf" points="110.79,-0.5 110.79,-22.9 163.121,-22.9 163.121,-0.5 110.79,-0.5"/>
<text text-anchor="middle" x="136.956" y="-8.1" font-family="-adobe-utopia-medium-i-normal--0-0-0-0-p-0-iso10646-1" font-size="12.00">string.h</text>
</g>
<!-- Node3&#45;&gt;Node7 -->
<g id="edge6" class="edge"><title>Node3&#45;&gt;Node7</title>
<path fill="none" stroke="midnightblue" d="M136.956,-59.838C136.956,-52.5019 136.956,-42.3785 136.956,-33.3932"/>
<polygon fill="midnightblue" stroke="midnightblue" points="140.456,-33.2614 136.956,-23.2615 133.456,-33.2615 140.456,-33.2614"/>
</g>
<!-- Node8&#45;&gt;Node3 -->
<g id="edge8" class="edge"><title>Node8&#45;&gt;Node3</title>
<path fill="none" stroke="midnightblue" d="M84.3976,-119.238C93.566,-111.015 106.639,-99.2904 117.453,-89.5917"/>
<polygon fill="midnightblue" stroke="midnightblue" points="120.072,-91.9439 125.18,-82.6615 115.398,-86.7327 120.072,-91.9439"/>
</g>
<!-- Node9&#45;&gt;Node3 -->
<g id="edge10" class="edge"><title>Node9&#45;&gt;Node3</title>
<path fill="none" stroke="midnightblue" d="M191.156,-119.238C181.609,-110.935 167.955,-99.0602 156.741,-89.307"/>
<polygon fill="midnightblue" stroke="midnightblue" points="158.942,-86.5829 149.1,-82.6615 154.348,-91.8648 158.942,-86.5829"/>
</g>
<!-- Node9&#45;&gt;Node4 -->
<g id="edge12" class="edge"><title>Node9&#45;&gt;Node4</title>
<path fill="none" stroke="midnightblue" d="M204.287,-119.135C206.76,-99.8758 212.105,-58.2548 215.33,-33.1461"/>
<polygon fill="midnightblue" stroke="midnightblue" points="218.804,-33.5743 216.606,-23.2099 211.861,-32.6826 218.804,-33.5743"/>
</g>
<!-- Node9&#45;&gt;Node10 -->
<g id="edge11" class="edge"><title>Node9&#45;&gt;Node10</title>
<path fill="none" stroke="midnightblue" d="M214.576,-119.238C223.979,-110.935 237.426,-99.0602 248.47,-89.307"/>
<polygon fill="midnightblue" stroke="midnightblue" points="250.817,-91.9043 255.996,-82.6615 246.183,-86.6573 250.817,-91.9043"/>
</g>
<!-- Node11&#45;&gt;Node10 -->
<g id="edge15" class="edge"><title>Node11&#45;&gt;Node10</title>
<path fill="none" stroke="midnightblue" d="M324.62,-119.238C314.638,-110.935 300.364,-99.0602 288.64,-89.307"/>
<polygon fill="midnightblue" stroke="midnightblue" points="290.578,-86.3661 280.652,-82.6615 286.101,-91.7475 290.578,-86.3661"/>
</g>
<!-- Node11&#45;&gt;Node12 -->
<g id="edge14" class="edge"><title>Node11&#45;&gt;Node12</title>
<path fill="none" stroke="midnightblue" d="M344.286,-119.238C349.871,-111.418 357.719,-100.431 364.433,-91.0319"/>
<polygon fill="midnightblue" stroke="midnightblue" points="367.447,-92.8332 370.412,-82.6615 361.751,-88.7645 367.447,-92.8332"/>
</g>
</g>
</svg>
